M48
; DRILL file {KiCad (5.1.4)-1} date 6/17/2023 9:44:20 PM
; FORMAT={-:-/ absolute / metric / decimal}
; #@! TF.CreationDate,2023-06-17T21:44:20-04:00
; #@! TF.GenerationSoftware,Kicad,Pcbnew,(5.1.4)-1
; #@! TF.FileFunction,NonPlated,1,2,NPTH
FMAT,2
METRIC
T1C0.600
T2C0.787
T3C1.750
T4C3.000
T5C3.988
%
G90
G05
T1
X109.09Y-392.515
X114.87Y-392.515
X151.385Y-392.5
X157.165Y-392.5
T2
X130.376Y-414.53
X130.376Y-415.8
X130.376Y-417.07
X130.376Y-418.34
X130.376Y-419.61
X135.876Y-414.53
X135.876Y-415.8
X135.876Y-417.07
X135.876Y-418.34
X135.876Y-419.61
X135.916Y-391.89
X135.916Y-393.16
X135.916Y-394.43
X135.916Y-395.7
X135.916Y-396.97
X130.396Y-452.67
X130.396Y-453.94
X130.396Y-455.21
X130.396Y-456.48
X130.396Y-457.75
X135.896Y-452.67
X135.896Y-453.94
X135.896Y-455.21
X135.896Y-456.48
X135.896Y-457.75
X130.416Y-391.89
X130.416Y-393.16
X130.416Y-394.43
X130.416Y-395.7
X130.416Y-396.97
T3
X159.332Y-419.41
X169.492Y-419.41
X58.853Y-451.963
X69.013Y-451.963
X116.003Y-397.363
X126.163Y-397.363
X197.432Y-451.96
X207.592Y-451.96
X140.282Y-416.41
X150.442Y-416.41
X159.332Y-400.36
X169.492Y-400.36
X140.282Y-397.36
X150.442Y-397.36
X96.953Y-400.363
X107.113Y-400.363
X96.953Y-438.463
X107.113Y-438.463
X140.282Y-435.46
X150.442Y-435.46
X96.953Y-419.413
X107.113Y-419.413
X159.332Y-438.46
X169.492Y-438.46
X116.003Y-416.413
X126.163Y-416.413
X178.382Y-446.96
X188.542Y-446.96
X116.003Y-435.463
X126.163Y-435.463
X77.903Y-446.963
X88.063Y-446.963
T4
X160.602Y-416.87
X166.952Y-414.33
X60.123Y-449.423
X66.473Y-446.883
X118.543Y-402.443
X124.893Y-399.903
X198.702Y-449.42
X205.052Y-446.88
X142.822Y-421.49
X149.172Y-418.95
X160.602Y-397.82
X166.952Y-395.28
X142.822Y-402.44
X149.172Y-399.9
X99.493Y-405.443
X105.843Y-402.903
X99.493Y-443.543
X105.843Y-441.003
X142.822Y-440.54
X149.172Y-438.0
X99.493Y-424.493
X105.843Y-421.953
X160.602Y-435.92
X166.952Y-433.38
X118.543Y-421.493
X124.893Y-418.953
X179.652Y-444.42
X186.002Y-441.88
X118.543Y-440.543
X124.893Y-438.003
X79.173Y-444.423
X85.523Y-441.883
T5
X164.412Y-419.41
X63.933Y-451.963
X121.083Y-397.363
X202.512Y-451.96
X145.362Y-416.41
X164.412Y-400.36
X145.362Y-397.36
X102.033Y-400.363
X102.033Y-438.463
X145.362Y-435.46
X102.033Y-419.413
X164.412Y-438.46
X121.083Y-416.413
X183.462Y-446.96
X121.083Y-435.463
X82.983Y-446.963
T0
M30
