M48
; DRILL file {KiCad (5.1.4)-1} date 6/17/2023 9:44:20 PM
; FORMAT={-:-/ absolute / metric / decimal}
; #@! TF.CreationDate,2023-06-17T21:44:20-04:00
; #@! TF.GenerationSoftware,Kicad,Pcbnew,(5.1.4)-1
; #@! TF.FileFunction,Plated,1,2,PTH
FMAT,2
METRIC
T1C0.400
T2C0.600
T3C1.000
T4C1.050
T5C1.470
T6C1.500
T7C1.600
T8C2.000
%
G90
G05
T1
X67.743Y-459.232
X96.49Y-462.97
X98.03Y-462.97
X99.8Y-463.735
X101.423Y-448.1
X102.467Y-448.1
X103.52Y-448.1
X104.036Y-451.556
X104.04Y-455.86
X104.164Y-464.9
X104.5Y-448.1
X105.084Y-464.031
X105.93Y-448.18
X107.146Y-463.78
X107.3Y-449.67
X107.621Y-461.401
X107.788Y-464.703
X107.908Y-467.082
X107.967Y-463.226
X108.0Y-470.3
X108.277Y-450.846
X108.509Y-468.546
X109.35Y-451.261
X109.624Y-456.992
X111.43Y-405.06
X111.569Y-395.912
X111.72Y-444.83
X111.76Y-449.607
X112.73Y-445.26
X112.741Y-396.621
X113.5Y-453.45
X113.5Y-455.025
X114.681Y-443.892
X114.9Y-463.0
X115.456Y-469.244
X115.503Y-468.125
X115.67Y-444.49
X116.97Y-443.31
X117.99Y-462.84
X118.334Y-464.759
X118.875Y-456.925
X120.125Y-463.946
X120.3Y-465.225
X120.35Y-467.35
X121.4Y-462.0
X121.948Y-447.628
X121.95Y-448.555
X121.964Y-446.701
X122.0Y-445.775
X122.17Y-468.34
X142.9Y-446.9
X143.16Y-461.05
X143.592Y-446.183
X144.168Y-445.456
X144.829Y-444.807
X146.1Y-456.0
X148.223Y-461.127
X148.325Y-450.975
X149.0Y-455.976
X149.0Y-459.45
X149.28Y-442.58
X149.282Y-451.832
X149.793Y-456.753
X149.92Y-441.23
X150.05Y-466.35
X150.675Y-459.425
X151.182Y-458.53
X151.2Y-451.0
X151.2Y-463.75
X151.25Y-467.4
X151.8Y-457.839
X152.043Y-423.775
X152.15Y-464.9
X152.275Y-444.15
X152.75Y-447.05
X152.8Y-405.15
X153.125Y-395.325
X153.325Y-444.25
X153.672Y-447.148
X154.444Y-446.206
X154.525Y-395.35
X155.53Y-441.026
X155.563Y-440.1
X156.02Y-439.173
X156.047Y-463.785
X156.1Y-446.5
X156.2Y-467.4
X156.45Y-462.95
X156.559Y-438.418
X156.829Y-466.35
X157.31Y-404.589
X157.73Y-464.9
X157.806Y-463.819
X158.256Y-447.294
X158.477Y-458.523
X158.561Y-450.324
X159.072Y-449.551
X159.125Y-448.55
X159.504Y-465.7
X160.225Y-460.45
X160.969Y-464.9
X161.518Y-457.318
X162.411Y-459.317
X163.041Y-447.294
X163.284Y-453.679
X163.584Y-459.262
X165.325Y-458.05
X165.725Y-461.6
T3
X147.852Y-472.983
X150.305Y-472.325
X152.759Y-471.668
X155.212Y-471.01
X137.459Y-390.761
X137.459Y-393.301
X137.459Y-395.841
X137.459Y-398.381
X89.628Y-465.172
X90.285Y-462.718
X90.943Y-460.265
X91.6Y-457.811
X174.726Y-457.808
X175.384Y-460.261
X176.041Y-462.715
X176.699Y-465.168
X136.419Y-464.455
X137.076Y-466.908
X137.734Y-469.362
X138.391Y-471.815
X160.437Y-428.958
X162.977Y-428.958
X165.517Y-428.958
X168.057Y-428.958
X97.51Y-389.72
X100.05Y-389.72
X102.59Y-389.72
X105.13Y-389.72
X111.333Y-471.013
X113.786Y-471.67
X116.24Y-472.328
X118.693Y-472.985
X128.876Y-390.998
X128.876Y-393.538
X128.876Y-396.078
X128.876Y-398.618
X161.21Y-389.86
X163.75Y-389.86
X166.29Y-389.86
X168.83Y-389.86
X138.196Y-451.085
X140.736Y-451.085
X143.276Y-451.085
X145.816Y-451.085
X127.933Y-471.813
X128.59Y-469.359
X129.248Y-466.906
X129.905Y-464.453
X210.412Y-451.11
X210.412Y-453.65
X210.412Y-456.19
X210.412Y-458.73
X164.552Y-468.483
X167.005Y-467.825
X169.459Y-467.168
X171.912Y-466.51
X160.739Y-409.842
X163.279Y-409.842
X165.819Y-409.842
X168.359Y-409.842
X137.412Y-422.11
X137.412Y-424.65
X137.412Y-427.19
X137.412Y-429.73
X56.533Y-451.093
X56.533Y-453.633
X56.533Y-456.173
X56.533Y-458.713
X98.534Y-409.835
X101.074Y-409.835
X103.614Y-409.835
X106.154Y-409.835
X128.941Y-422.125
X128.941Y-424.665
X128.941Y-427.205
X128.941Y-429.745
X120.448Y-451.081
X122.988Y-451.081
X125.528Y-451.081
X128.068Y-451.081
X94.633Y-466.613
X97.086Y-467.27
X99.54Y-467.928
X101.993Y-468.585
X98.377Y-428.921
X100.917Y-428.921
X103.457Y-428.921
X105.997Y-428.921
T4
X188.176Y-456.974
X189.348Y-461.319
X190.728Y-453.955
X194.452Y-455.281
X195.624Y-459.626
X178.476Y-459.574
X179.648Y-463.919
X181.028Y-456.555
X184.752Y-457.881
X185.924Y-462.226
X80.551Y-462.226
X81.723Y-457.881
X85.447Y-456.555
X86.827Y-463.919
X87.999Y-459.574
X70.773Y-459.626
X71.946Y-455.281
X75.67Y-453.955
X77.049Y-461.319
X78.221Y-456.974
T5
X117.273Y-394.823
X118.583Y-393.363
X123.583Y-392.863
X123.623Y-392.283
X199.972Y-457.04
X200.012Y-456.46
X205.012Y-455.96
X206.322Y-454.5
X141.552Y-413.87
X142.862Y-412.41
X147.862Y-411.91
X147.902Y-411.33
X161.872Y-405.44
X161.912Y-404.86
X166.912Y-404.36
X168.222Y-402.9
X141.552Y-394.82
X142.862Y-393.36
X147.862Y-392.86
X147.902Y-392.28
X98.223Y-397.823
X99.533Y-396.363
X104.533Y-395.863
X104.573Y-395.283
X98.223Y-435.923
X99.533Y-434.463
X104.533Y-433.963
X104.573Y-433.383
X141.552Y-432.92
X142.862Y-431.46
X147.862Y-430.96
X147.902Y-430.38
X98.223Y-416.873
X99.533Y-415.413
X104.533Y-414.913
X104.573Y-414.333
X161.872Y-443.54
X161.912Y-442.96
X166.912Y-442.46
X168.222Y-441.0
X117.273Y-413.873
X118.583Y-412.413
X123.583Y-411.913
X123.623Y-411.333
X180.922Y-452.04
X180.962Y-451.46
X185.962Y-450.96
X187.272Y-449.5
X117.273Y-432.923
X118.583Y-431.463
X123.583Y-430.963
X123.623Y-430.383
X80.443Y-452.043
X80.483Y-451.463
X85.483Y-450.963
X86.793Y-449.503
X161.872Y-424.49
X161.912Y-423.91
X166.912Y-423.41
X168.222Y-421.95
X61.393Y-457.043
X61.433Y-456.463
X66.433Y-455.963
X67.743Y-454.503
T6
X124.0Y-405.1
X125.9Y-410.15
X139.75Y-405.05
X141.65Y-410.1
T7
X117.8Y-407.625
X124.8Y-407.625
X140.85Y-407.575
X147.85Y-407.575
T8
X116.6Y-410.025
X149.05Y-405.175
T2
X107.66Y-388.425G85X107.66Y-389.225
G05
X107.66Y-392.445G85X107.66Y-393.545
G05
X116.3Y-388.425G85X116.3Y-389.225
G05
X116.3Y-392.445G85X116.3Y-393.545
G05
X149.955Y-388.41G85X149.955Y-389.21
G05
X149.955Y-392.43G85X149.955Y-393.53
G05
X158.595Y-388.41G85X158.595Y-389.21
G05
X158.595Y-392.43G85X158.595Y-393.53
G05
T0
M30
