G04 #@! TF.GenerationSoftware,KiCad,Pcbnew,(5.1.4)-1*
G04 #@! TF.CreationDate,2023-06-17T21:44:22-04:00*
G04 #@! TF.ProjectId,ThumbsUp,5468756d-6273-4557-902e-6b696361645f,rev?*
G04 #@! TF.SameCoordinates,Original*
G04 #@! TF.FileFunction,Paste,Bot*
G04 #@! TF.FilePolarity,Positive*
%FSLAX46Y46*%
G04 Gerber Fmt 4.6, Leading zero omitted, Abs format (unit mm)*
G04 Created by KiCad (PCBNEW (5.1.4)-1) date 2023-06-17 21:44:22*
%MOMM*%
%LPD*%
G04 APERTURE LIST*
%ADD10R,2.550000X2.500000*%
%ADD11R,0.600000X1.160000*%
%ADD12R,0.300000X1.160000*%
%ADD13R,1.300000X3.250000*%
%ADD14R,1.300000X0.950000*%
%ADD15C,0.100000*%
%ADD16C,1.250000*%
%ADD17C,0.590000*%
%ADD18R,2.100000X5.600000*%
%ADD19R,0.650000X1.650000*%
%ADD20R,3.200000X3.200000*%
%ADD21R,0.850000X0.200000*%
%ADD22R,0.200000X0.850000*%
G04 APERTURE END LIST*
D10*
X128167789Y-418952952D03*
X115240789Y-421492952D03*
X170254025Y-395280323D03*
X157327025Y-397820323D03*
D11*
X157475000Y-393560000D03*
X156675000Y-393560000D03*
X157475000Y-393560000D03*
X156675000Y-393560000D03*
X151075000Y-393560000D03*
X151075000Y-393560000D03*
X151875000Y-393560000D03*
X151875000Y-393560000D03*
D12*
X156025000Y-393560000D03*
X155025000Y-393560000D03*
X155525000Y-393560000D03*
X153025000Y-393560000D03*
X152525000Y-393560000D03*
X154525000Y-393560000D03*
X154025000Y-393560000D03*
X153525000Y-393560000D03*
D13*
X117270000Y-427290000D03*
D14*
X110570000Y-425000000D03*
X110570000Y-427290000D03*
X110570000Y-429580000D03*
D13*
X157200000Y-424925000D03*
D14*
X150500000Y-422635000D03*
X150500000Y-424925000D03*
X150500000Y-427215000D03*
D15*
G36*
X145079504Y-425106204D02*
G01*
X145103773Y-425109804D01*
X145127571Y-425115765D01*
X145150671Y-425124030D01*
X145172849Y-425134520D01*
X145193893Y-425147133D01*
X145213598Y-425161747D01*
X145231777Y-425178223D01*
X145248253Y-425196402D01*
X145262867Y-425216107D01*
X145275480Y-425237151D01*
X145285970Y-425259329D01*
X145294235Y-425282429D01*
X145300196Y-425306227D01*
X145303796Y-425330496D01*
X145305000Y-425355000D01*
X145305000Y-427505000D01*
X145303796Y-427529504D01*
X145300196Y-427553773D01*
X145294235Y-427577571D01*
X145285970Y-427600671D01*
X145275480Y-427622849D01*
X145262867Y-427643893D01*
X145248253Y-427663598D01*
X145231777Y-427681777D01*
X145213598Y-427698253D01*
X145193893Y-427712867D01*
X145172849Y-427725480D01*
X145150671Y-427735970D01*
X145127571Y-427744235D01*
X145103773Y-427750196D01*
X145079504Y-427753796D01*
X145055000Y-427755000D01*
X144305000Y-427755000D01*
X144280496Y-427753796D01*
X144256227Y-427750196D01*
X144232429Y-427744235D01*
X144209329Y-427735970D01*
X144187151Y-427725480D01*
X144166107Y-427712867D01*
X144146402Y-427698253D01*
X144128223Y-427681777D01*
X144111747Y-427663598D01*
X144097133Y-427643893D01*
X144084520Y-427622849D01*
X144074030Y-427600671D01*
X144065765Y-427577571D01*
X144059804Y-427553773D01*
X144056204Y-427529504D01*
X144055000Y-427505000D01*
X144055000Y-425355000D01*
X144056204Y-425330496D01*
X144059804Y-425306227D01*
X144065765Y-425282429D01*
X144074030Y-425259329D01*
X144084520Y-425237151D01*
X144097133Y-425216107D01*
X144111747Y-425196402D01*
X144128223Y-425178223D01*
X144146402Y-425161747D01*
X144166107Y-425147133D01*
X144187151Y-425134520D01*
X144209329Y-425124030D01*
X144232429Y-425115765D01*
X144256227Y-425109804D01*
X144280496Y-425106204D01*
X144305000Y-425105000D01*
X145055000Y-425105000D01*
X145079504Y-425106204D01*
X145079504Y-425106204D01*
G37*
D16*
X144680000Y-426430000D03*
D15*
G36*
X147879504Y-425106204D02*
G01*
X147903773Y-425109804D01*
X147927571Y-425115765D01*
X147950671Y-425124030D01*
X147972849Y-425134520D01*
X147993893Y-425147133D01*
X148013598Y-425161747D01*
X148031777Y-425178223D01*
X148048253Y-425196402D01*
X148062867Y-425216107D01*
X148075480Y-425237151D01*
X148085970Y-425259329D01*
X148094235Y-425282429D01*
X148100196Y-425306227D01*
X148103796Y-425330496D01*
X148105000Y-425355000D01*
X148105000Y-427505000D01*
X148103796Y-427529504D01*
X148100196Y-427553773D01*
X148094235Y-427577571D01*
X148085970Y-427600671D01*
X148075480Y-427622849D01*
X148062867Y-427643893D01*
X148048253Y-427663598D01*
X148031777Y-427681777D01*
X148013598Y-427698253D01*
X147993893Y-427712867D01*
X147972849Y-427725480D01*
X147950671Y-427735970D01*
X147927571Y-427744235D01*
X147903773Y-427750196D01*
X147879504Y-427753796D01*
X147855000Y-427755000D01*
X147105000Y-427755000D01*
X147080496Y-427753796D01*
X147056227Y-427750196D01*
X147032429Y-427744235D01*
X147009329Y-427735970D01*
X146987151Y-427725480D01*
X146966107Y-427712867D01*
X146946402Y-427698253D01*
X146928223Y-427681777D01*
X146911747Y-427663598D01*
X146897133Y-427643893D01*
X146884520Y-427622849D01*
X146874030Y-427600671D01*
X146865765Y-427577571D01*
X146859804Y-427553773D01*
X146856204Y-427529504D01*
X146855000Y-427505000D01*
X146855000Y-425355000D01*
X146856204Y-425330496D01*
X146859804Y-425306227D01*
X146865765Y-425282429D01*
X146874030Y-425259329D01*
X146884520Y-425237151D01*
X146897133Y-425216107D01*
X146911747Y-425196402D01*
X146928223Y-425178223D01*
X146946402Y-425161747D01*
X146966107Y-425147133D01*
X146987151Y-425134520D01*
X147009329Y-425124030D01*
X147032429Y-425115765D01*
X147056227Y-425109804D01*
X147080496Y-425106204D01*
X147105000Y-425105000D01*
X147855000Y-425105000D01*
X147879504Y-425106204D01*
X147879504Y-425106204D01*
G37*
D16*
X147480000Y-426430000D03*
D15*
G36*
X113519504Y-432086204D02*
G01*
X113543773Y-432089804D01*
X113567571Y-432095765D01*
X113590671Y-432104030D01*
X113612849Y-432114520D01*
X113633893Y-432127133D01*
X113653598Y-432141747D01*
X113671777Y-432158223D01*
X113688253Y-432176402D01*
X113702867Y-432196107D01*
X113715480Y-432217151D01*
X113725970Y-432239329D01*
X113734235Y-432262429D01*
X113740196Y-432286227D01*
X113743796Y-432310496D01*
X113745000Y-432335000D01*
X113745000Y-433085000D01*
X113743796Y-433109504D01*
X113740196Y-433133773D01*
X113734235Y-433157571D01*
X113725970Y-433180671D01*
X113715480Y-433202849D01*
X113702867Y-433223893D01*
X113688253Y-433243598D01*
X113671777Y-433261777D01*
X113653598Y-433278253D01*
X113633893Y-433292867D01*
X113612849Y-433305480D01*
X113590671Y-433315970D01*
X113567571Y-433324235D01*
X113543773Y-433330196D01*
X113519504Y-433333796D01*
X113495000Y-433335000D01*
X111345000Y-433335000D01*
X111320496Y-433333796D01*
X111296227Y-433330196D01*
X111272429Y-433324235D01*
X111249329Y-433315970D01*
X111227151Y-433305480D01*
X111206107Y-433292867D01*
X111186402Y-433278253D01*
X111168223Y-433261777D01*
X111151747Y-433243598D01*
X111137133Y-433223893D01*
X111124520Y-433202849D01*
X111114030Y-433180671D01*
X111105765Y-433157571D01*
X111099804Y-433133773D01*
X111096204Y-433109504D01*
X111095000Y-433085000D01*
X111095000Y-432335000D01*
X111096204Y-432310496D01*
X111099804Y-432286227D01*
X111105765Y-432262429D01*
X111114030Y-432239329D01*
X111124520Y-432217151D01*
X111137133Y-432196107D01*
X111151747Y-432176402D01*
X111168223Y-432158223D01*
X111186402Y-432141747D01*
X111206107Y-432127133D01*
X111227151Y-432114520D01*
X111249329Y-432104030D01*
X111272429Y-432095765D01*
X111296227Y-432089804D01*
X111320496Y-432086204D01*
X111345000Y-432085000D01*
X113495000Y-432085000D01*
X113519504Y-432086204D01*
X113519504Y-432086204D01*
G37*
D16*
X112420000Y-432710000D03*
D15*
G36*
X113519504Y-434886204D02*
G01*
X113543773Y-434889804D01*
X113567571Y-434895765D01*
X113590671Y-434904030D01*
X113612849Y-434914520D01*
X113633893Y-434927133D01*
X113653598Y-434941747D01*
X113671777Y-434958223D01*
X113688253Y-434976402D01*
X113702867Y-434996107D01*
X113715480Y-435017151D01*
X113725970Y-435039329D01*
X113734235Y-435062429D01*
X113740196Y-435086227D01*
X113743796Y-435110496D01*
X113745000Y-435135000D01*
X113745000Y-435885000D01*
X113743796Y-435909504D01*
X113740196Y-435933773D01*
X113734235Y-435957571D01*
X113725970Y-435980671D01*
X113715480Y-436002849D01*
X113702867Y-436023893D01*
X113688253Y-436043598D01*
X113671777Y-436061777D01*
X113653598Y-436078253D01*
X113633893Y-436092867D01*
X113612849Y-436105480D01*
X113590671Y-436115970D01*
X113567571Y-436124235D01*
X113543773Y-436130196D01*
X113519504Y-436133796D01*
X113495000Y-436135000D01*
X111345000Y-436135000D01*
X111320496Y-436133796D01*
X111296227Y-436130196D01*
X111272429Y-436124235D01*
X111249329Y-436115970D01*
X111227151Y-436105480D01*
X111206107Y-436092867D01*
X111186402Y-436078253D01*
X111168223Y-436061777D01*
X111151747Y-436043598D01*
X111137133Y-436023893D01*
X111124520Y-436002849D01*
X111114030Y-435980671D01*
X111105765Y-435957571D01*
X111099804Y-435933773D01*
X111096204Y-435909504D01*
X111095000Y-435885000D01*
X111095000Y-435135000D01*
X111096204Y-435110496D01*
X111099804Y-435086227D01*
X111105765Y-435062429D01*
X111114030Y-435039329D01*
X111124520Y-435017151D01*
X111137133Y-434996107D01*
X111151747Y-434976402D01*
X111168223Y-434958223D01*
X111186402Y-434941747D01*
X111206107Y-434927133D01*
X111227151Y-434914520D01*
X111249329Y-434904030D01*
X111272429Y-434895765D01*
X111296227Y-434889804D01*
X111320496Y-434886204D01*
X111345000Y-434885000D01*
X113495000Y-434885000D01*
X113519504Y-434886204D01*
X113519504Y-434886204D01*
G37*
D16*
X112420000Y-435510000D03*
D15*
G36*
X118676958Y-466980710D02*
G01*
X118691276Y-466982834D01*
X118705317Y-466986351D01*
X118718946Y-466991228D01*
X118732031Y-466997417D01*
X118744447Y-467004858D01*
X118756073Y-467013481D01*
X118766798Y-467023202D01*
X118776519Y-467033927D01*
X118785142Y-467045553D01*
X118792583Y-467057969D01*
X118798772Y-467071054D01*
X118803649Y-467084683D01*
X118807166Y-467098724D01*
X118809290Y-467113042D01*
X118810000Y-467127500D01*
X118810000Y-467472500D01*
X118809290Y-467486958D01*
X118807166Y-467501276D01*
X118803649Y-467515317D01*
X118798772Y-467528946D01*
X118792583Y-467542031D01*
X118785142Y-467554447D01*
X118776519Y-467566073D01*
X118766798Y-467576798D01*
X118756073Y-467586519D01*
X118744447Y-467595142D01*
X118732031Y-467602583D01*
X118718946Y-467608772D01*
X118705317Y-467613649D01*
X118691276Y-467617166D01*
X118676958Y-467619290D01*
X118662500Y-467620000D01*
X118367500Y-467620000D01*
X118353042Y-467619290D01*
X118338724Y-467617166D01*
X118324683Y-467613649D01*
X118311054Y-467608772D01*
X118297969Y-467602583D01*
X118285553Y-467595142D01*
X118273927Y-467586519D01*
X118263202Y-467576798D01*
X118253481Y-467566073D01*
X118244858Y-467554447D01*
X118237417Y-467542031D01*
X118231228Y-467528946D01*
X118226351Y-467515317D01*
X118222834Y-467501276D01*
X118220710Y-467486958D01*
X118220000Y-467472500D01*
X118220000Y-467127500D01*
X118220710Y-467113042D01*
X118222834Y-467098724D01*
X118226351Y-467084683D01*
X118231228Y-467071054D01*
X118237417Y-467057969D01*
X118244858Y-467045553D01*
X118253481Y-467033927D01*
X118263202Y-467023202D01*
X118273927Y-467013481D01*
X118285553Y-467004858D01*
X118297969Y-466997417D01*
X118311054Y-466991228D01*
X118324683Y-466986351D01*
X118338724Y-466982834D01*
X118353042Y-466980710D01*
X118367500Y-466980000D01*
X118662500Y-466980000D01*
X118676958Y-466980710D01*
X118676958Y-466980710D01*
G37*
D17*
X118515000Y-467300000D03*
D15*
G36*
X119646958Y-466980710D02*
G01*
X119661276Y-466982834D01*
X119675317Y-466986351D01*
X119688946Y-466991228D01*
X119702031Y-466997417D01*
X119714447Y-467004858D01*
X119726073Y-467013481D01*
X119736798Y-467023202D01*
X119746519Y-467033927D01*
X119755142Y-467045553D01*
X119762583Y-467057969D01*
X119768772Y-467071054D01*
X119773649Y-467084683D01*
X119777166Y-467098724D01*
X119779290Y-467113042D01*
X119780000Y-467127500D01*
X119780000Y-467472500D01*
X119779290Y-467486958D01*
X119777166Y-467501276D01*
X119773649Y-467515317D01*
X119768772Y-467528946D01*
X119762583Y-467542031D01*
X119755142Y-467554447D01*
X119746519Y-467566073D01*
X119736798Y-467576798D01*
X119726073Y-467586519D01*
X119714447Y-467595142D01*
X119702031Y-467602583D01*
X119688946Y-467608772D01*
X119675317Y-467613649D01*
X119661276Y-467617166D01*
X119646958Y-467619290D01*
X119632500Y-467620000D01*
X119337500Y-467620000D01*
X119323042Y-467619290D01*
X119308724Y-467617166D01*
X119294683Y-467613649D01*
X119281054Y-467608772D01*
X119267969Y-467602583D01*
X119255553Y-467595142D01*
X119243927Y-467586519D01*
X119233202Y-467576798D01*
X119223481Y-467566073D01*
X119214858Y-467554447D01*
X119207417Y-467542031D01*
X119201228Y-467528946D01*
X119196351Y-467515317D01*
X119192834Y-467501276D01*
X119190710Y-467486958D01*
X119190000Y-467472500D01*
X119190000Y-467127500D01*
X119190710Y-467113042D01*
X119192834Y-467098724D01*
X119196351Y-467084683D01*
X119201228Y-467071054D01*
X119207417Y-467057969D01*
X119214858Y-467045553D01*
X119223481Y-467033927D01*
X119233202Y-467023202D01*
X119243927Y-467013481D01*
X119255553Y-467004858D01*
X119267969Y-466997417D01*
X119281054Y-466991228D01*
X119294683Y-466986351D01*
X119308724Y-466982834D01*
X119323042Y-466980710D01*
X119337500Y-466980000D01*
X119632500Y-466980000D01*
X119646958Y-466980710D01*
X119646958Y-466980710D01*
G37*
D17*
X119485000Y-467300000D03*
D10*
X109117789Y-421952952D03*
X96190789Y-424492952D03*
X195427025Y-449420322D03*
X208354025Y-446880322D03*
X176377025Y-444420323D03*
X189304025Y-441880323D03*
X157327025Y-435920322D03*
X170254025Y-433380322D03*
X157327025Y-416870322D03*
X170254025Y-414330322D03*
X152447025Y-438000322D03*
X139520025Y-440540322D03*
X152447025Y-418950323D03*
X139520025Y-421490323D03*
X139520026Y-402440322D03*
X152447026Y-399900322D03*
X128167789Y-438002952D03*
X115240789Y-440542952D03*
X115240790Y-402442952D03*
X128167790Y-399902952D03*
X109117790Y-441002952D03*
X96190790Y-443542952D03*
X96190790Y-405442952D03*
X109117790Y-402902952D03*
X75897789Y-444422953D03*
X88824789Y-441882953D03*
X56847789Y-449422952D03*
X69774789Y-446882952D03*
D15*
G36*
X147016958Y-423470710D02*
G01*
X147031276Y-423472834D01*
X147045317Y-423476351D01*
X147058946Y-423481228D01*
X147072031Y-423487417D01*
X147084447Y-423494858D01*
X147096073Y-423503481D01*
X147106798Y-423513202D01*
X147116519Y-423523927D01*
X147125142Y-423535553D01*
X147132583Y-423547969D01*
X147138772Y-423561054D01*
X147143649Y-423574683D01*
X147147166Y-423588724D01*
X147149290Y-423603042D01*
X147150000Y-423617500D01*
X147150000Y-423962500D01*
X147149290Y-423976958D01*
X147147166Y-423991276D01*
X147143649Y-424005317D01*
X147138772Y-424018946D01*
X147132583Y-424032031D01*
X147125142Y-424044447D01*
X147116519Y-424056073D01*
X147106798Y-424066798D01*
X147096073Y-424076519D01*
X147084447Y-424085142D01*
X147072031Y-424092583D01*
X147058946Y-424098772D01*
X147045317Y-424103649D01*
X147031276Y-424107166D01*
X147016958Y-424109290D01*
X147002500Y-424110000D01*
X146707500Y-424110000D01*
X146693042Y-424109290D01*
X146678724Y-424107166D01*
X146664683Y-424103649D01*
X146651054Y-424098772D01*
X146637969Y-424092583D01*
X146625553Y-424085142D01*
X146613927Y-424076519D01*
X146603202Y-424066798D01*
X146593481Y-424056073D01*
X146584858Y-424044447D01*
X146577417Y-424032031D01*
X146571228Y-424018946D01*
X146566351Y-424005317D01*
X146562834Y-423991276D01*
X146560710Y-423976958D01*
X146560000Y-423962500D01*
X146560000Y-423617500D01*
X146560710Y-423603042D01*
X146562834Y-423588724D01*
X146566351Y-423574683D01*
X146571228Y-423561054D01*
X146577417Y-423547969D01*
X146584858Y-423535553D01*
X146593481Y-423523927D01*
X146603202Y-423513202D01*
X146613927Y-423503481D01*
X146625553Y-423494858D01*
X146637969Y-423487417D01*
X146651054Y-423481228D01*
X146664683Y-423476351D01*
X146678724Y-423472834D01*
X146693042Y-423470710D01*
X146707500Y-423470000D01*
X147002500Y-423470000D01*
X147016958Y-423470710D01*
X147016958Y-423470710D01*
G37*
D17*
X146855000Y-423790000D03*
D15*
G36*
X147986958Y-423470710D02*
G01*
X148001276Y-423472834D01*
X148015317Y-423476351D01*
X148028946Y-423481228D01*
X148042031Y-423487417D01*
X148054447Y-423494858D01*
X148066073Y-423503481D01*
X148076798Y-423513202D01*
X148086519Y-423523927D01*
X148095142Y-423535553D01*
X148102583Y-423547969D01*
X148108772Y-423561054D01*
X148113649Y-423574683D01*
X148117166Y-423588724D01*
X148119290Y-423603042D01*
X148120000Y-423617500D01*
X148120000Y-423962500D01*
X148119290Y-423976958D01*
X148117166Y-423991276D01*
X148113649Y-424005317D01*
X148108772Y-424018946D01*
X148102583Y-424032031D01*
X148095142Y-424044447D01*
X148086519Y-424056073D01*
X148076798Y-424066798D01*
X148066073Y-424076519D01*
X148054447Y-424085142D01*
X148042031Y-424092583D01*
X148028946Y-424098772D01*
X148015317Y-424103649D01*
X148001276Y-424107166D01*
X147986958Y-424109290D01*
X147972500Y-424110000D01*
X147677500Y-424110000D01*
X147663042Y-424109290D01*
X147648724Y-424107166D01*
X147634683Y-424103649D01*
X147621054Y-424098772D01*
X147607969Y-424092583D01*
X147595553Y-424085142D01*
X147583927Y-424076519D01*
X147573202Y-424066798D01*
X147563481Y-424056073D01*
X147554858Y-424044447D01*
X147547417Y-424032031D01*
X147541228Y-424018946D01*
X147536351Y-424005317D01*
X147532834Y-423991276D01*
X147530710Y-423976958D01*
X147530000Y-423962500D01*
X147530000Y-423617500D01*
X147530710Y-423603042D01*
X147532834Y-423588724D01*
X147536351Y-423574683D01*
X147541228Y-423561054D01*
X147547417Y-423547969D01*
X147554858Y-423535553D01*
X147563481Y-423523927D01*
X147573202Y-423513202D01*
X147583927Y-423503481D01*
X147595553Y-423494858D01*
X147607969Y-423487417D01*
X147621054Y-423481228D01*
X147634683Y-423476351D01*
X147648724Y-423472834D01*
X147663042Y-423470710D01*
X147677500Y-423470000D01*
X147972500Y-423470000D01*
X147986958Y-423470710D01*
X147986958Y-423470710D01*
G37*
D17*
X147825000Y-423790000D03*
D15*
G36*
X117556958Y-468955710D02*
G01*
X117571276Y-468957834D01*
X117585317Y-468961351D01*
X117598946Y-468966228D01*
X117612031Y-468972417D01*
X117624447Y-468979858D01*
X117636073Y-468988481D01*
X117646798Y-468998202D01*
X117656519Y-469008927D01*
X117665142Y-469020553D01*
X117672583Y-469032969D01*
X117678772Y-469046054D01*
X117683649Y-469059683D01*
X117687166Y-469073724D01*
X117689290Y-469088042D01*
X117690000Y-469102500D01*
X117690000Y-469447500D01*
X117689290Y-469461958D01*
X117687166Y-469476276D01*
X117683649Y-469490317D01*
X117678772Y-469503946D01*
X117672583Y-469517031D01*
X117665142Y-469529447D01*
X117656519Y-469541073D01*
X117646798Y-469551798D01*
X117636073Y-469561519D01*
X117624447Y-469570142D01*
X117612031Y-469577583D01*
X117598946Y-469583772D01*
X117585317Y-469588649D01*
X117571276Y-469592166D01*
X117556958Y-469594290D01*
X117542500Y-469595000D01*
X117247500Y-469595000D01*
X117233042Y-469594290D01*
X117218724Y-469592166D01*
X117204683Y-469588649D01*
X117191054Y-469583772D01*
X117177969Y-469577583D01*
X117165553Y-469570142D01*
X117153927Y-469561519D01*
X117143202Y-469551798D01*
X117133481Y-469541073D01*
X117124858Y-469529447D01*
X117117417Y-469517031D01*
X117111228Y-469503946D01*
X117106351Y-469490317D01*
X117102834Y-469476276D01*
X117100710Y-469461958D01*
X117100000Y-469447500D01*
X117100000Y-469102500D01*
X117100710Y-469088042D01*
X117102834Y-469073724D01*
X117106351Y-469059683D01*
X117111228Y-469046054D01*
X117117417Y-469032969D01*
X117124858Y-469020553D01*
X117133481Y-469008927D01*
X117143202Y-468998202D01*
X117153927Y-468988481D01*
X117165553Y-468979858D01*
X117177969Y-468972417D01*
X117191054Y-468966228D01*
X117204683Y-468961351D01*
X117218724Y-468957834D01*
X117233042Y-468955710D01*
X117247500Y-468955000D01*
X117542500Y-468955000D01*
X117556958Y-468955710D01*
X117556958Y-468955710D01*
G37*
D17*
X117395000Y-469275000D03*
D15*
G36*
X116586958Y-468955710D02*
G01*
X116601276Y-468957834D01*
X116615317Y-468961351D01*
X116628946Y-468966228D01*
X116642031Y-468972417D01*
X116654447Y-468979858D01*
X116666073Y-468988481D01*
X116676798Y-468998202D01*
X116686519Y-469008927D01*
X116695142Y-469020553D01*
X116702583Y-469032969D01*
X116708772Y-469046054D01*
X116713649Y-469059683D01*
X116717166Y-469073724D01*
X116719290Y-469088042D01*
X116720000Y-469102500D01*
X116720000Y-469447500D01*
X116719290Y-469461958D01*
X116717166Y-469476276D01*
X116713649Y-469490317D01*
X116708772Y-469503946D01*
X116702583Y-469517031D01*
X116695142Y-469529447D01*
X116686519Y-469541073D01*
X116676798Y-469551798D01*
X116666073Y-469561519D01*
X116654447Y-469570142D01*
X116642031Y-469577583D01*
X116628946Y-469583772D01*
X116615317Y-469588649D01*
X116601276Y-469592166D01*
X116586958Y-469594290D01*
X116572500Y-469595000D01*
X116277500Y-469595000D01*
X116263042Y-469594290D01*
X116248724Y-469592166D01*
X116234683Y-469588649D01*
X116221054Y-469583772D01*
X116207969Y-469577583D01*
X116195553Y-469570142D01*
X116183927Y-469561519D01*
X116173202Y-469551798D01*
X116163481Y-469541073D01*
X116154858Y-469529447D01*
X116147417Y-469517031D01*
X116141228Y-469503946D01*
X116136351Y-469490317D01*
X116132834Y-469476276D01*
X116130710Y-469461958D01*
X116130000Y-469447500D01*
X116130000Y-469102500D01*
X116130710Y-469088042D01*
X116132834Y-469073724D01*
X116136351Y-469059683D01*
X116141228Y-469046054D01*
X116147417Y-469032969D01*
X116154858Y-469020553D01*
X116163481Y-469008927D01*
X116173202Y-468998202D01*
X116183927Y-468988481D01*
X116195553Y-468979858D01*
X116207969Y-468972417D01*
X116221054Y-468966228D01*
X116234683Y-468961351D01*
X116248724Y-468957834D01*
X116263042Y-468955710D01*
X116277500Y-468955000D01*
X116572500Y-468955000D01*
X116586958Y-468955710D01*
X116586958Y-468955710D01*
G37*
D17*
X116425000Y-469275000D03*
D15*
G36*
X109612958Y-447697710D02*
G01*
X109627276Y-447699834D01*
X109641317Y-447703351D01*
X109654946Y-447708228D01*
X109668031Y-447714417D01*
X109680447Y-447721858D01*
X109692073Y-447730481D01*
X109702798Y-447740202D01*
X109712519Y-447750927D01*
X109721142Y-447762553D01*
X109728583Y-447774969D01*
X109734772Y-447788054D01*
X109739649Y-447801683D01*
X109743166Y-447815724D01*
X109745290Y-447830042D01*
X109746000Y-447844500D01*
X109746000Y-448139500D01*
X109745290Y-448153958D01*
X109743166Y-448168276D01*
X109739649Y-448182317D01*
X109734772Y-448195946D01*
X109728583Y-448209031D01*
X109721142Y-448221447D01*
X109712519Y-448233073D01*
X109702798Y-448243798D01*
X109692073Y-448253519D01*
X109680447Y-448262142D01*
X109668031Y-448269583D01*
X109654946Y-448275772D01*
X109641317Y-448280649D01*
X109627276Y-448284166D01*
X109612958Y-448286290D01*
X109598500Y-448287000D01*
X109253500Y-448287000D01*
X109239042Y-448286290D01*
X109224724Y-448284166D01*
X109210683Y-448280649D01*
X109197054Y-448275772D01*
X109183969Y-448269583D01*
X109171553Y-448262142D01*
X109159927Y-448253519D01*
X109149202Y-448243798D01*
X109139481Y-448233073D01*
X109130858Y-448221447D01*
X109123417Y-448209031D01*
X109117228Y-448195946D01*
X109112351Y-448182317D01*
X109108834Y-448168276D01*
X109106710Y-448153958D01*
X109106000Y-448139500D01*
X109106000Y-447844500D01*
X109106710Y-447830042D01*
X109108834Y-447815724D01*
X109112351Y-447801683D01*
X109117228Y-447788054D01*
X109123417Y-447774969D01*
X109130858Y-447762553D01*
X109139481Y-447750927D01*
X109149202Y-447740202D01*
X109159927Y-447730481D01*
X109171553Y-447721858D01*
X109183969Y-447714417D01*
X109197054Y-447708228D01*
X109210683Y-447703351D01*
X109224724Y-447699834D01*
X109239042Y-447697710D01*
X109253500Y-447697000D01*
X109598500Y-447697000D01*
X109612958Y-447697710D01*
X109612958Y-447697710D01*
G37*
D17*
X109426000Y-447992000D03*
D15*
G36*
X109612958Y-448667710D02*
G01*
X109627276Y-448669834D01*
X109641317Y-448673351D01*
X109654946Y-448678228D01*
X109668031Y-448684417D01*
X109680447Y-448691858D01*
X109692073Y-448700481D01*
X109702798Y-448710202D01*
X109712519Y-448720927D01*
X109721142Y-448732553D01*
X109728583Y-448744969D01*
X109734772Y-448758054D01*
X109739649Y-448771683D01*
X109743166Y-448785724D01*
X109745290Y-448800042D01*
X109746000Y-448814500D01*
X109746000Y-449109500D01*
X109745290Y-449123958D01*
X109743166Y-449138276D01*
X109739649Y-449152317D01*
X109734772Y-449165946D01*
X109728583Y-449179031D01*
X109721142Y-449191447D01*
X109712519Y-449203073D01*
X109702798Y-449213798D01*
X109692073Y-449223519D01*
X109680447Y-449232142D01*
X109668031Y-449239583D01*
X109654946Y-449245772D01*
X109641317Y-449250649D01*
X109627276Y-449254166D01*
X109612958Y-449256290D01*
X109598500Y-449257000D01*
X109253500Y-449257000D01*
X109239042Y-449256290D01*
X109224724Y-449254166D01*
X109210683Y-449250649D01*
X109197054Y-449245772D01*
X109183969Y-449239583D01*
X109171553Y-449232142D01*
X109159927Y-449223519D01*
X109149202Y-449213798D01*
X109139481Y-449203073D01*
X109130858Y-449191447D01*
X109123417Y-449179031D01*
X109117228Y-449165946D01*
X109112351Y-449152317D01*
X109108834Y-449138276D01*
X109106710Y-449123958D01*
X109106000Y-449109500D01*
X109106000Y-448814500D01*
X109106710Y-448800042D01*
X109108834Y-448785724D01*
X109112351Y-448771683D01*
X109117228Y-448758054D01*
X109123417Y-448744969D01*
X109130858Y-448732553D01*
X109139481Y-448720927D01*
X109149202Y-448710202D01*
X109159927Y-448700481D01*
X109171553Y-448691858D01*
X109183969Y-448684417D01*
X109197054Y-448678228D01*
X109210683Y-448673351D01*
X109224724Y-448669834D01*
X109239042Y-448667710D01*
X109253500Y-448667000D01*
X109598500Y-448667000D01*
X109612958Y-448667710D01*
X109612958Y-448667710D01*
G37*
D17*
X109426000Y-448962000D03*
D15*
G36*
X108562958Y-447697710D02*
G01*
X108577276Y-447699834D01*
X108591317Y-447703351D01*
X108604946Y-447708228D01*
X108618031Y-447714417D01*
X108630447Y-447721858D01*
X108642073Y-447730481D01*
X108652798Y-447740202D01*
X108662519Y-447750927D01*
X108671142Y-447762553D01*
X108678583Y-447774969D01*
X108684772Y-447788054D01*
X108689649Y-447801683D01*
X108693166Y-447815724D01*
X108695290Y-447830042D01*
X108696000Y-447844500D01*
X108696000Y-448139500D01*
X108695290Y-448153958D01*
X108693166Y-448168276D01*
X108689649Y-448182317D01*
X108684772Y-448195946D01*
X108678583Y-448209031D01*
X108671142Y-448221447D01*
X108662519Y-448233073D01*
X108652798Y-448243798D01*
X108642073Y-448253519D01*
X108630447Y-448262142D01*
X108618031Y-448269583D01*
X108604946Y-448275772D01*
X108591317Y-448280649D01*
X108577276Y-448284166D01*
X108562958Y-448286290D01*
X108548500Y-448287000D01*
X108203500Y-448287000D01*
X108189042Y-448286290D01*
X108174724Y-448284166D01*
X108160683Y-448280649D01*
X108147054Y-448275772D01*
X108133969Y-448269583D01*
X108121553Y-448262142D01*
X108109927Y-448253519D01*
X108099202Y-448243798D01*
X108089481Y-448233073D01*
X108080858Y-448221447D01*
X108073417Y-448209031D01*
X108067228Y-448195946D01*
X108062351Y-448182317D01*
X108058834Y-448168276D01*
X108056710Y-448153958D01*
X108056000Y-448139500D01*
X108056000Y-447844500D01*
X108056710Y-447830042D01*
X108058834Y-447815724D01*
X108062351Y-447801683D01*
X108067228Y-447788054D01*
X108073417Y-447774969D01*
X108080858Y-447762553D01*
X108089481Y-447750927D01*
X108099202Y-447740202D01*
X108109927Y-447730481D01*
X108121553Y-447721858D01*
X108133969Y-447714417D01*
X108147054Y-447708228D01*
X108160683Y-447703351D01*
X108174724Y-447699834D01*
X108189042Y-447697710D01*
X108203500Y-447697000D01*
X108548500Y-447697000D01*
X108562958Y-447697710D01*
X108562958Y-447697710D01*
G37*
D17*
X108376000Y-447992000D03*
D15*
G36*
X108562958Y-448667710D02*
G01*
X108577276Y-448669834D01*
X108591317Y-448673351D01*
X108604946Y-448678228D01*
X108618031Y-448684417D01*
X108630447Y-448691858D01*
X108642073Y-448700481D01*
X108652798Y-448710202D01*
X108662519Y-448720927D01*
X108671142Y-448732553D01*
X108678583Y-448744969D01*
X108684772Y-448758054D01*
X108689649Y-448771683D01*
X108693166Y-448785724D01*
X108695290Y-448800042D01*
X108696000Y-448814500D01*
X108696000Y-449109500D01*
X108695290Y-449123958D01*
X108693166Y-449138276D01*
X108689649Y-449152317D01*
X108684772Y-449165946D01*
X108678583Y-449179031D01*
X108671142Y-449191447D01*
X108662519Y-449203073D01*
X108652798Y-449213798D01*
X108642073Y-449223519D01*
X108630447Y-449232142D01*
X108618031Y-449239583D01*
X108604946Y-449245772D01*
X108591317Y-449250649D01*
X108577276Y-449254166D01*
X108562958Y-449256290D01*
X108548500Y-449257000D01*
X108203500Y-449257000D01*
X108189042Y-449256290D01*
X108174724Y-449254166D01*
X108160683Y-449250649D01*
X108147054Y-449245772D01*
X108133969Y-449239583D01*
X108121553Y-449232142D01*
X108109927Y-449223519D01*
X108099202Y-449213798D01*
X108089481Y-449203073D01*
X108080858Y-449191447D01*
X108073417Y-449179031D01*
X108067228Y-449165946D01*
X108062351Y-449152317D01*
X108058834Y-449138276D01*
X108056710Y-449123958D01*
X108056000Y-449109500D01*
X108056000Y-448814500D01*
X108056710Y-448800042D01*
X108058834Y-448785724D01*
X108062351Y-448771683D01*
X108067228Y-448758054D01*
X108073417Y-448744969D01*
X108080858Y-448732553D01*
X108089481Y-448720927D01*
X108099202Y-448710202D01*
X108109927Y-448700481D01*
X108121553Y-448691858D01*
X108133969Y-448684417D01*
X108147054Y-448678228D01*
X108160683Y-448673351D01*
X108174724Y-448669834D01*
X108189042Y-448667710D01*
X108203500Y-448667000D01*
X108548500Y-448667000D01*
X108562958Y-448667710D01*
X108562958Y-448667710D01*
G37*
D17*
X108376000Y-448962000D03*
D15*
G36*
X118286958Y-391055710D02*
G01*
X118301276Y-391057834D01*
X118315317Y-391061351D01*
X118328946Y-391066228D01*
X118342031Y-391072417D01*
X118354447Y-391079858D01*
X118366073Y-391088481D01*
X118376798Y-391098202D01*
X118386519Y-391108927D01*
X118395142Y-391120553D01*
X118402583Y-391132969D01*
X118408772Y-391146054D01*
X118413649Y-391159683D01*
X118417166Y-391173724D01*
X118419290Y-391188042D01*
X118420000Y-391202500D01*
X118420000Y-391547500D01*
X118419290Y-391561958D01*
X118417166Y-391576276D01*
X118413649Y-391590317D01*
X118408772Y-391603946D01*
X118402583Y-391617031D01*
X118395142Y-391629447D01*
X118386519Y-391641073D01*
X118376798Y-391651798D01*
X118366073Y-391661519D01*
X118354447Y-391670142D01*
X118342031Y-391677583D01*
X118328946Y-391683772D01*
X118315317Y-391688649D01*
X118301276Y-391692166D01*
X118286958Y-391694290D01*
X118272500Y-391695000D01*
X117977500Y-391695000D01*
X117963042Y-391694290D01*
X117948724Y-391692166D01*
X117934683Y-391688649D01*
X117921054Y-391683772D01*
X117907969Y-391677583D01*
X117895553Y-391670142D01*
X117883927Y-391661519D01*
X117873202Y-391651798D01*
X117863481Y-391641073D01*
X117854858Y-391629447D01*
X117847417Y-391617031D01*
X117841228Y-391603946D01*
X117836351Y-391590317D01*
X117832834Y-391576276D01*
X117830710Y-391561958D01*
X117830000Y-391547500D01*
X117830000Y-391202500D01*
X117830710Y-391188042D01*
X117832834Y-391173724D01*
X117836351Y-391159683D01*
X117841228Y-391146054D01*
X117847417Y-391132969D01*
X117854858Y-391120553D01*
X117863481Y-391108927D01*
X117873202Y-391098202D01*
X117883927Y-391088481D01*
X117895553Y-391079858D01*
X117907969Y-391072417D01*
X117921054Y-391066228D01*
X117934683Y-391061351D01*
X117948724Y-391057834D01*
X117963042Y-391055710D01*
X117977500Y-391055000D01*
X118272500Y-391055000D01*
X118286958Y-391055710D01*
X118286958Y-391055710D01*
G37*
D17*
X118125000Y-391375000D03*
D15*
G36*
X119256958Y-391055710D02*
G01*
X119271276Y-391057834D01*
X119285317Y-391061351D01*
X119298946Y-391066228D01*
X119312031Y-391072417D01*
X119324447Y-391079858D01*
X119336073Y-391088481D01*
X119346798Y-391098202D01*
X119356519Y-391108927D01*
X119365142Y-391120553D01*
X119372583Y-391132969D01*
X119378772Y-391146054D01*
X119383649Y-391159683D01*
X119387166Y-391173724D01*
X119389290Y-391188042D01*
X119390000Y-391202500D01*
X119390000Y-391547500D01*
X119389290Y-391561958D01*
X119387166Y-391576276D01*
X119383649Y-391590317D01*
X119378772Y-391603946D01*
X119372583Y-391617031D01*
X119365142Y-391629447D01*
X119356519Y-391641073D01*
X119346798Y-391651798D01*
X119336073Y-391661519D01*
X119324447Y-391670142D01*
X119312031Y-391677583D01*
X119298946Y-391683772D01*
X119285317Y-391688649D01*
X119271276Y-391692166D01*
X119256958Y-391694290D01*
X119242500Y-391695000D01*
X118947500Y-391695000D01*
X118933042Y-391694290D01*
X118918724Y-391692166D01*
X118904683Y-391688649D01*
X118891054Y-391683772D01*
X118877969Y-391677583D01*
X118865553Y-391670142D01*
X118853927Y-391661519D01*
X118843202Y-391651798D01*
X118833481Y-391641073D01*
X118824858Y-391629447D01*
X118817417Y-391617031D01*
X118811228Y-391603946D01*
X118806351Y-391590317D01*
X118802834Y-391576276D01*
X118800710Y-391561958D01*
X118800000Y-391547500D01*
X118800000Y-391202500D01*
X118800710Y-391188042D01*
X118802834Y-391173724D01*
X118806351Y-391159683D01*
X118811228Y-391146054D01*
X118817417Y-391132969D01*
X118824858Y-391120553D01*
X118833481Y-391108927D01*
X118843202Y-391098202D01*
X118853927Y-391088481D01*
X118865553Y-391079858D01*
X118877969Y-391072417D01*
X118891054Y-391066228D01*
X118904683Y-391061351D01*
X118918724Y-391057834D01*
X118933042Y-391055710D01*
X118947500Y-391055000D01*
X119242500Y-391055000D01*
X119256958Y-391055710D01*
X119256958Y-391055710D01*
G37*
D17*
X119095000Y-391375000D03*
D15*
G36*
X119256958Y-390055710D02*
G01*
X119271276Y-390057834D01*
X119285317Y-390061351D01*
X119298946Y-390066228D01*
X119312031Y-390072417D01*
X119324447Y-390079858D01*
X119336073Y-390088481D01*
X119346798Y-390098202D01*
X119356519Y-390108927D01*
X119365142Y-390120553D01*
X119372583Y-390132969D01*
X119378772Y-390146054D01*
X119383649Y-390159683D01*
X119387166Y-390173724D01*
X119389290Y-390188042D01*
X119390000Y-390202500D01*
X119390000Y-390547500D01*
X119389290Y-390561958D01*
X119387166Y-390576276D01*
X119383649Y-390590317D01*
X119378772Y-390603946D01*
X119372583Y-390617031D01*
X119365142Y-390629447D01*
X119356519Y-390641073D01*
X119346798Y-390651798D01*
X119336073Y-390661519D01*
X119324447Y-390670142D01*
X119312031Y-390677583D01*
X119298946Y-390683772D01*
X119285317Y-390688649D01*
X119271276Y-390692166D01*
X119256958Y-390694290D01*
X119242500Y-390695000D01*
X118947500Y-390695000D01*
X118933042Y-390694290D01*
X118918724Y-390692166D01*
X118904683Y-390688649D01*
X118891054Y-390683772D01*
X118877969Y-390677583D01*
X118865553Y-390670142D01*
X118853927Y-390661519D01*
X118843202Y-390651798D01*
X118833481Y-390641073D01*
X118824858Y-390629447D01*
X118817417Y-390617031D01*
X118811228Y-390603946D01*
X118806351Y-390590317D01*
X118802834Y-390576276D01*
X118800710Y-390561958D01*
X118800000Y-390547500D01*
X118800000Y-390202500D01*
X118800710Y-390188042D01*
X118802834Y-390173724D01*
X118806351Y-390159683D01*
X118811228Y-390146054D01*
X118817417Y-390132969D01*
X118824858Y-390120553D01*
X118833481Y-390108927D01*
X118843202Y-390098202D01*
X118853927Y-390088481D01*
X118865553Y-390079858D01*
X118877969Y-390072417D01*
X118891054Y-390066228D01*
X118904683Y-390061351D01*
X118918724Y-390057834D01*
X118933042Y-390055710D01*
X118947500Y-390055000D01*
X119242500Y-390055000D01*
X119256958Y-390055710D01*
X119256958Y-390055710D01*
G37*
D17*
X119095000Y-390375000D03*
D15*
G36*
X118286958Y-390055710D02*
G01*
X118301276Y-390057834D01*
X118315317Y-390061351D01*
X118328946Y-390066228D01*
X118342031Y-390072417D01*
X118354447Y-390079858D01*
X118366073Y-390088481D01*
X118376798Y-390098202D01*
X118386519Y-390108927D01*
X118395142Y-390120553D01*
X118402583Y-390132969D01*
X118408772Y-390146054D01*
X118413649Y-390159683D01*
X118417166Y-390173724D01*
X118419290Y-390188042D01*
X118420000Y-390202500D01*
X118420000Y-390547500D01*
X118419290Y-390561958D01*
X118417166Y-390576276D01*
X118413649Y-390590317D01*
X118408772Y-390603946D01*
X118402583Y-390617031D01*
X118395142Y-390629447D01*
X118386519Y-390641073D01*
X118376798Y-390651798D01*
X118366073Y-390661519D01*
X118354447Y-390670142D01*
X118342031Y-390677583D01*
X118328946Y-390683772D01*
X118315317Y-390688649D01*
X118301276Y-390692166D01*
X118286958Y-390694290D01*
X118272500Y-390695000D01*
X117977500Y-390695000D01*
X117963042Y-390694290D01*
X117948724Y-390692166D01*
X117934683Y-390688649D01*
X117921054Y-390683772D01*
X117907969Y-390677583D01*
X117895553Y-390670142D01*
X117883927Y-390661519D01*
X117873202Y-390651798D01*
X117863481Y-390641073D01*
X117854858Y-390629447D01*
X117847417Y-390617031D01*
X117841228Y-390603946D01*
X117836351Y-390590317D01*
X117832834Y-390576276D01*
X117830710Y-390561958D01*
X117830000Y-390547500D01*
X117830000Y-390202500D01*
X117830710Y-390188042D01*
X117832834Y-390173724D01*
X117836351Y-390159683D01*
X117841228Y-390146054D01*
X117847417Y-390132969D01*
X117854858Y-390120553D01*
X117863481Y-390108927D01*
X117873202Y-390098202D01*
X117883927Y-390088481D01*
X117895553Y-390079858D01*
X117907969Y-390072417D01*
X117921054Y-390066228D01*
X117934683Y-390061351D01*
X117948724Y-390057834D01*
X117963042Y-390055710D01*
X117977500Y-390055000D01*
X118272500Y-390055000D01*
X118286958Y-390055710D01*
X118286958Y-390055710D01*
G37*
D17*
X118125000Y-390375000D03*
D15*
G36*
X163531958Y-455880710D02*
G01*
X163546276Y-455882834D01*
X163560317Y-455886351D01*
X163573946Y-455891228D01*
X163587031Y-455897417D01*
X163599447Y-455904858D01*
X163611073Y-455913481D01*
X163621798Y-455923202D01*
X163631519Y-455933927D01*
X163640142Y-455945553D01*
X163647583Y-455957969D01*
X163653772Y-455971054D01*
X163658649Y-455984683D01*
X163662166Y-455998724D01*
X163664290Y-456013042D01*
X163665000Y-456027500D01*
X163665000Y-456372500D01*
X163664290Y-456386958D01*
X163662166Y-456401276D01*
X163658649Y-456415317D01*
X163653772Y-456428946D01*
X163647583Y-456442031D01*
X163640142Y-456454447D01*
X163631519Y-456466073D01*
X163621798Y-456476798D01*
X163611073Y-456486519D01*
X163599447Y-456495142D01*
X163587031Y-456502583D01*
X163573946Y-456508772D01*
X163560317Y-456513649D01*
X163546276Y-456517166D01*
X163531958Y-456519290D01*
X163517500Y-456520000D01*
X163222500Y-456520000D01*
X163208042Y-456519290D01*
X163193724Y-456517166D01*
X163179683Y-456513649D01*
X163166054Y-456508772D01*
X163152969Y-456502583D01*
X163140553Y-456495142D01*
X163128927Y-456486519D01*
X163118202Y-456476798D01*
X163108481Y-456466073D01*
X163099858Y-456454447D01*
X163092417Y-456442031D01*
X163086228Y-456428946D01*
X163081351Y-456415317D01*
X163077834Y-456401276D01*
X163075710Y-456386958D01*
X163075000Y-456372500D01*
X163075000Y-456027500D01*
X163075710Y-456013042D01*
X163077834Y-455998724D01*
X163081351Y-455984683D01*
X163086228Y-455971054D01*
X163092417Y-455957969D01*
X163099858Y-455945553D01*
X163108481Y-455933927D01*
X163118202Y-455923202D01*
X163128927Y-455913481D01*
X163140553Y-455904858D01*
X163152969Y-455897417D01*
X163166054Y-455891228D01*
X163179683Y-455886351D01*
X163193724Y-455882834D01*
X163208042Y-455880710D01*
X163222500Y-455880000D01*
X163517500Y-455880000D01*
X163531958Y-455880710D01*
X163531958Y-455880710D01*
G37*
D17*
X163370000Y-456200000D03*
D15*
G36*
X162561958Y-455880710D02*
G01*
X162576276Y-455882834D01*
X162590317Y-455886351D01*
X162603946Y-455891228D01*
X162617031Y-455897417D01*
X162629447Y-455904858D01*
X162641073Y-455913481D01*
X162651798Y-455923202D01*
X162661519Y-455933927D01*
X162670142Y-455945553D01*
X162677583Y-455957969D01*
X162683772Y-455971054D01*
X162688649Y-455984683D01*
X162692166Y-455998724D01*
X162694290Y-456013042D01*
X162695000Y-456027500D01*
X162695000Y-456372500D01*
X162694290Y-456386958D01*
X162692166Y-456401276D01*
X162688649Y-456415317D01*
X162683772Y-456428946D01*
X162677583Y-456442031D01*
X162670142Y-456454447D01*
X162661519Y-456466073D01*
X162651798Y-456476798D01*
X162641073Y-456486519D01*
X162629447Y-456495142D01*
X162617031Y-456502583D01*
X162603946Y-456508772D01*
X162590317Y-456513649D01*
X162576276Y-456517166D01*
X162561958Y-456519290D01*
X162547500Y-456520000D01*
X162252500Y-456520000D01*
X162238042Y-456519290D01*
X162223724Y-456517166D01*
X162209683Y-456513649D01*
X162196054Y-456508772D01*
X162182969Y-456502583D01*
X162170553Y-456495142D01*
X162158927Y-456486519D01*
X162148202Y-456476798D01*
X162138481Y-456466073D01*
X162129858Y-456454447D01*
X162122417Y-456442031D01*
X162116228Y-456428946D01*
X162111351Y-456415317D01*
X162107834Y-456401276D01*
X162105710Y-456386958D01*
X162105000Y-456372500D01*
X162105000Y-456027500D01*
X162105710Y-456013042D01*
X162107834Y-455998724D01*
X162111351Y-455984683D01*
X162116228Y-455971054D01*
X162122417Y-455957969D01*
X162129858Y-455945553D01*
X162138481Y-455933927D01*
X162148202Y-455923202D01*
X162158927Y-455913481D01*
X162170553Y-455904858D01*
X162182969Y-455897417D01*
X162196054Y-455891228D01*
X162209683Y-455886351D01*
X162223724Y-455882834D01*
X162238042Y-455880710D01*
X162252500Y-455880000D01*
X162547500Y-455880000D01*
X162561958Y-455880710D01*
X162561958Y-455880710D01*
G37*
D17*
X162400000Y-456200000D03*
D15*
G36*
X152461958Y-444820710D02*
G01*
X152476276Y-444822834D01*
X152490317Y-444826351D01*
X152503946Y-444831228D01*
X152517031Y-444837417D01*
X152529447Y-444844858D01*
X152541073Y-444853481D01*
X152551798Y-444863202D01*
X152561519Y-444873927D01*
X152570142Y-444885553D01*
X152577583Y-444897969D01*
X152583772Y-444911054D01*
X152588649Y-444924683D01*
X152592166Y-444938724D01*
X152594290Y-444953042D01*
X152595000Y-444967500D01*
X152595000Y-445262500D01*
X152594290Y-445276958D01*
X152592166Y-445291276D01*
X152588649Y-445305317D01*
X152583772Y-445318946D01*
X152577583Y-445332031D01*
X152570142Y-445344447D01*
X152561519Y-445356073D01*
X152551798Y-445366798D01*
X152541073Y-445376519D01*
X152529447Y-445385142D01*
X152517031Y-445392583D01*
X152503946Y-445398772D01*
X152490317Y-445403649D01*
X152476276Y-445407166D01*
X152461958Y-445409290D01*
X152447500Y-445410000D01*
X152102500Y-445410000D01*
X152088042Y-445409290D01*
X152073724Y-445407166D01*
X152059683Y-445403649D01*
X152046054Y-445398772D01*
X152032969Y-445392583D01*
X152020553Y-445385142D01*
X152008927Y-445376519D01*
X151998202Y-445366798D01*
X151988481Y-445356073D01*
X151979858Y-445344447D01*
X151972417Y-445332031D01*
X151966228Y-445318946D01*
X151961351Y-445305317D01*
X151957834Y-445291276D01*
X151955710Y-445276958D01*
X151955000Y-445262500D01*
X151955000Y-444967500D01*
X151955710Y-444953042D01*
X151957834Y-444938724D01*
X151961351Y-444924683D01*
X151966228Y-444911054D01*
X151972417Y-444897969D01*
X151979858Y-444885553D01*
X151988481Y-444873927D01*
X151998202Y-444863202D01*
X152008927Y-444853481D01*
X152020553Y-444844858D01*
X152032969Y-444837417D01*
X152046054Y-444831228D01*
X152059683Y-444826351D01*
X152073724Y-444822834D01*
X152088042Y-444820710D01*
X152102500Y-444820000D01*
X152447500Y-444820000D01*
X152461958Y-444820710D01*
X152461958Y-444820710D01*
G37*
D17*
X152275000Y-445115000D03*
D15*
G36*
X152461958Y-445790710D02*
G01*
X152476276Y-445792834D01*
X152490317Y-445796351D01*
X152503946Y-445801228D01*
X152517031Y-445807417D01*
X152529447Y-445814858D01*
X152541073Y-445823481D01*
X152551798Y-445833202D01*
X152561519Y-445843927D01*
X152570142Y-445855553D01*
X152577583Y-445867969D01*
X152583772Y-445881054D01*
X152588649Y-445894683D01*
X152592166Y-445908724D01*
X152594290Y-445923042D01*
X152595000Y-445937500D01*
X152595000Y-446232500D01*
X152594290Y-446246958D01*
X152592166Y-446261276D01*
X152588649Y-446275317D01*
X152583772Y-446288946D01*
X152577583Y-446302031D01*
X152570142Y-446314447D01*
X152561519Y-446326073D01*
X152551798Y-446336798D01*
X152541073Y-446346519D01*
X152529447Y-446355142D01*
X152517031Y-446362583D01*
X152503946Y-446368772D01*
X152490317Y-446373649D01*
X152476276Y-446377166D01*
X152461958Y-446379290D01*
X152447500Y-446380000D01*
X152102500Y-446380000D01*
X152088042Y-446379290D01*
X152073724Y-446377166D01*
X152059683Y-446373649D01*
X152046054Y-446368772D01*
X152032969Y-446362583D01*
X152020553Y-446355142D01*
X152008927Y-446346519D01*
X151998202Y-446336798D01*
X151988481Y-446326073D01*
X151979858Y-446314447D01*
X151972417Y-446302031D01*
X151966228Y-446288946D01*
X151961351Y-446275317D01*
X151957834Y-446261276D01*
X151955710Y-446246958D01*
X151955000Y-446232500D01*
X151955000Y-445937500D01*
X151955710Y-445923042D01*
X151957834Y-445908724D01*
X151961351Y-445894683D01*
X151966228Y-445881054D01*
X151972417Y-445867969D01*
X151979858Y-445855553D01*
X151988481Y-445843927D01*
X151998202Y-445833202D01*
X152008927Y-445823481D01*
X152020553Y-445814858D01*
X152032969Y-445807417D01*
X152046054Y-445801228D01*
X152059683Y-445796351D01*
X152073724Y-445792834D01*
X152088042Y-445790710D01*
X152102500Y-445790000D01*
X152447500Y-445790000D01*
X152461958Y-445790710D01*
X152461958Y-445790710D01*
G37*
D17*
X152275000Y-446085000D03*
D15*
G36*
X153511958Y-444830710D02*
G01*
X153526276Y-444832834D01*
X153540317Y-444836351D01*
X153553946Y-444841228D01*
X153567031Y-444847417D01*
X153579447Y-444854858D01*
X153591073Y-444863481D01*
X153601798Y-444873202D01*
X153611519Y-444883927D01*
X153620142Y-444895553D01*
X153627583Y-444907969D01*
X153633772Y-444921054D01*
X153638649Y-444934683D01*
X153642166Y-444948724D01*
X153644290Y-444963042D01*
X153645000Y-444977500D01*
X153645000Y-445272500D01*
X153644290Y-445286958D01*
X153642166Y-445301276D01*
X153638649Y-445315317D01*
X153633772Y-445328946D01*
X153627583Y-445342031D01*
X153620142Y-445354447D01*
X153611519Y-445366073D01*
X153601798Y-445376798D01*
X153591073Y-445386519D01*
X153579447Y-445395142D01*
X153567031Y-445402583D01*
X153553946Y-445408772D01*
X153540317Y-445413649D01*
X153526276Y-445417166D01*
X153511958Y-445419290D01*
X153497500Y-445420000D01*
X153152500Y-445420000D01*
X153138042Y-445419290D01*
X153123724Y-445417166D01*
X153109683Y-445413649D01*
X153096054Y-445408772D01*
X153082969Y-445402583D01*
X153070553Y-445395142D01*
X153058927Y-445386519D01*
X153048202Y-445376798D01*
X153038481Y-445366073D01*
X153029858Y-445354447D01*
X153022417Y-445342031D01*
X153016228Y-445328946D01*
X153011351Y-445315317D01*
X153007834Y-445301276D01*
X153005710Y-445286958D01*
X153005000Y-445272500D01*
X153005000Y-444977500D01*
X153005710Y-444963042D01*
X153007834Y-444948724D01*
X153011351Y-444934683D01*
X153016228Y-444921054D01*
X153022417Y-444907969D01*
X153029858Y-444895553D01*
X153038481Y-444883927D01*
X153048202Y-444873202D01*
X153058927Y-444863481D01*
X153070553Y-444854858D01*
X153082969Y-444847417D01*
X153096054Y-444841228D01*
X153109683Y-444836351D01*
X153123724Y-444832834D01*
X153138042Y-444830710D01*
X153152500Y-444830000D01*
X153497500Y-444830000D01*
X153511958Y-444830710D01*
X153511958Y-444830710D01*
G37*
D17*
X153325000Y-445125000D03*
D15*
G36*
X153511958Y-445800710D02*
G01*
X153526276Y-445802834D01*
X153540317Y-445806351D01*
X153553946Y-445811228D01*
X153567031Y-445817417D01*
X153579447Y-445824858D01*
X153591073Y-445833481D01*
X153601798Y-445843202D01*
X153611519Y-445853927D01*
X153620142Y-445865553D01*
X153627583Y-445877969D01*
X153633772Y-445891054D01*
X153638649Y-445904683D01*
X153642166Y-445918724D01*
X153644290Y-445933042D01*
X153645000Y-445947500D01*
X153645000Y-446242500D01*
X153644290Y-446256958D01*
X153642166Y-446271276D01*
X153638649Y-446285317D01*
X153633772Y-446298946D01*
X153627583Y-446312031D01*
X153620142Y-446324447D01*
X153611519Y-446336073D01*
X153601798Y-446346798D01*
X153591073Y-446356519D01*
X153579447Y-446365142D01*
X153567031Y-446372583D01*
X153553946Y-446378772D01*
X153540317Y-446383649D01*
X153526276Y-446387166D01*
X153511958Y-446389290D01*
X153497500Y-446390000D01*
X153152500Y-446390000D01*
X153138042Y-446389290D01*
X153123724Y-446387166D01*
X153109683Y-446383649D01*
X153096054Y-446378772D01*
X153082969Y-446372583D01*
X153070553Y-446365142D01*
X153058927Y-446356519D01*
X153048202Y-446346798D01*
X153038481Y-446336073D01*
X153029858Y-446324447D01*
X153022417Y-446312031D01*
X153016228Y-446298946D01*
X153011351Y-446285317D01*
X153007834Y-446271276D01*
X153005710Y-446256958D01*
X153005000Y-446242500D01*
X153005000Y-445947500D01*
X153005710Y-445933042D01*
X153007834Y-445918724D01*
X153011351Y-445904683D01*
X153016228Y-445891054D01*
X153022417Y-445877969D01*
X153029858Y-445865553D01*
X153038481Y-445853927D01*
X153048202Y-445843202D01*
X153058927Y-445833481D01*
X153070553Y-445824858D01*
X153082969Y-445817417D01*
X153096054Y-445811228D01*
X153109683Y-445806351D01*
X153123724Y-445802834D01*
X153138042Y-445800710D01*
X153152500Y-445800000D01*
X153497500Y-445800000D01*
X153511958Y-445800710D01*
X153511958Y-445800710D01*
G37*
D17*
X153325000Y-446095000D03*
D15*
G36*
X150161958Y-462630710D02*
G01*
X150176276Y-462632834D01*
X150190317Y-462636351D01*
X150203946Y-462641228D01*
X150217031Y-462647417D01*
X150229447Y-462654858D01*
X150241073Y-462663481D01*
X150251798Y-462673202D01*
X150261519Y-462683927D01*
X150270142Y-462695553D01*
X150277583Y-462707969D01*
X150283772Y-462721054D01*
X150288649Y-462734683D01*
X150292166Y-462748724D01*
X150294290Y-462763042D01*
X150295000Y-462777500D01*
X150295000Y-463122500D01*
X150294290Y-463136958D01*
X150292166Y-463151276D01*
X150288649Y-463165317D01*
X150283772Y-463178946D01*
X150277583Y-463192031D01*
X150270142Y-463204447D01*
X150261519Y-463216073D01*
X150251798Y-463226798D01*
X150241073Y-463236519D01*
X150229447Y-463245142D01*
X150217031Y-463252583D01*
X150203946Y-463258772D01*
X150190317Y-463263649D01*
X150176276Y-463267166D01*
X150161958Y-463269290D01*
X150147500Y-463270000D01*
X149852500Y-463270000D01*
X149838042Y-463269290D01*
X149823724Y-463267166D01*
X149809683Y-463263649D01*
X149796054Y-463258772D01*
X149782969Y-463252583D01*
X149770553Y-463245142D01*
X149758927Y-463236519D01*
X149748202Y-463226798D01*
X149738481Y-463216073D01*
X149729858Y-463204447D01*
X149722417Y-463192031D01*
X149716228Y-463178946D01*
X149711351Y-463165317D01*
X149707834Y-463151276D01*
X149705710Y-463136958D01*
X149705000Y-463122500D01*
X149705000Y-462777500D01*
X149705710Y-462763042D01*
X149707834Y-462748724D01*
X149711351Y-462734683D01*
X149716228Y-462721054D01*
X149722417Y-462707969D01*
X149729858Y-462695553D01*
X149738481Y-462683927D01*
X149748202Y-462673202D01*
X149758927Y-462663481D01*
X149770553Y-462654858D01*
X149782969Y-462647417D01*
X149796054Y-462641228D01*
X149809683Y-462636351D01*
X149823724Y-462632834D01*
X149838042Y-462630710D01*
X149852500Y-462630000D01*
X150147500Y-462630000D01*
X150161958Y-462630710D01*
X150161958Y-462630710D01*
G37*
D17*
X150000000Y-462950000D03*
D15*
G36*
X149191958Y-462630710D02*
G01*
X149206276Y-462632834D01*
X149220317Y-462636351D01*
X149233946Y-462641228D01*
X149247031Y-462647417D01*
X149259447Y-462654858D01*
X149271073Y-462663481D01*
X149281798Y-462673202D01*
X149291519Y-462683927D01*
X149300142Y-462695553D01*
X149307583Y-462707969D01*
X149313772Y-462721054D01*
X149318649Y-462734683D01*
X149322166Y-462748724D01*
X149324290Y-462763042D01*
X149325000Y-462777500D01*
X149325000Y-463122500D01*
X149324290Y-463136958D01*
X149322166Y-463151276D01*
X149318649Y-463165317D01*
X149313772Y-463178946D01*
X149307583Y-463192031D01*
X149300142Y-463204447D01*
X149291519Y-463216073D01*
X149281798Y-463226798D01*
X149271073Y-463236519D01*
X149259447Y-463245142D01*
X149247031Y-463252583D01*
X149233946Y-463258772D01*
X149220317Y-463263649D01*
X149206276Y-463267166D01*
X149191958Y-463269290D01*
X149177500Y-463270000D01*
X148882500Y-463270000D01*
X148868042Y-463269290D01*
X148853724Y-463267166D01*
X148839683Y-463263649D01*
X148826054Y-463258772D01*
X148812969Y-463252583D01*
X148800553Y-463245142D01*
X148788927Y-463236519D01*
X148778202Y-463226798D01*
X148768481Y-463216073D01*
X148759858Y-463204447D01*
X148752417Y-463192031D01*
X148746228Y-463178946D01*
X148741351Y-463165317D01*
X148737834Y-463151276D01*
X148735710Y-463136958D01*
X148735000Y-463122500D01*
X148735000Y-462777500D01*
X148735710Y-462763042D01*
X148737834Y-462748724D01*
X148741351Y-462734683D01*
X148746228Y-462721054D01*
X148752417Y-462707969D01*
X148759858Y-462695553D01*
X148768481Y-462683927D01*
X148778202Y-462673202D01*
X148788927Y-462663481D01*
X148800553Y-462654858D01*
X148812969Y-462647417D01*
X148826054Y-462641228D01*
X148839683Y-462636351D01*
X148853724Y-462632834D01*
X148868042Y-462630710D01*
X148882500Y-462630000D01*
X149177500Y-462630000D01*
X149191958Y-462630710D01*
X149191958Y-462630710D01*
G37*
D17*
X149030000Y-462950000D03*
D15*
G36*
X149211958Y-463630710D02*
G01*
X149226276Y-463632834D01*
X149240317Y-463636351D01*
X149253946Y-463641228D01*
X149267031Y-463647417D01*
X149279447Y-463654858D01*
X149291073Y-463663481D01*
X149301798Y-463673202D01*
X149311519Y-463683927D01*
X149320142Y-463695553D01*
X149327583Y-463707969D01*
X149333772Y-463721054D01*
X149338649Y-463734683D01*
X149342166Y-463748724D01*
X149344290Y-463763042D01*
X149345000Y-463777500D01*
X149345000Y-464122500D01*
X149344290Y-464136958D01*
X149342166Y-464151276D01*
X149338649Y-464165317D01*
X149333772Y-464178946D01*
X149327583Y-464192031D01*
X149320142Y-464204447D01*
X149311519Y-464216073D01*
X149301798Y-464226798D01*
X149291073Y-464236519D01*
X149279447Y-464245142D01*
X149267031Y-464252583D01*
X149253946Y-464258772D01*
X149240317Y-464263649D01*
X149226276Y-464267166D01*
X149211958Y-464269290D01*
X149197500Y-464270000D01*
X148902500Y-464270000D01*
X148888042Y-464269290D01*
X148873724Y-464267166D01*
X148859683Y-464263649D01*
X148846054Y-464258772D01*
X148832969Y-464252583D01*
X148820553Y-464245142D01*
X148808927Y-464236519D01*
X148798202Y-464226798D01*
X148788481Y-464216073D01*
X148779858Y-464204447D01*
X148772417Y-464192031D01*
X148766228Y-464178946D01*
X148761351Y-464165317D01*
X148757834Y-464151276D01*
X148755710Y-464136958D01*
X148755000Y-464122500D01*
X148755000Y-463777500D01*
X148755710Y-463763042D01*
X148757834Y-463748724D01*
X148761351Y-463734683D01*
X148766228Y-463721054D01*
X148772417Y-463707969D01*
X148779858Y-463695553D01*
X148788481Y-463683927D01*
X148798202Y-463673202D01*
X148808927Y-463663481D01*
X148820553Y-463654858D01*
X148832969Y-463647417D01*
X148846054Y-463641228D01*
X148859683Y-463636351D01*
X148873724Y-463632834D01*
X148888042Y-463630710D01*
X148902500Y-463630000D01*
X149197500Y-463630000D01*
X149211958Y-463630710D01*
X149211958Y-463630710D01*
G37*
D17*
X149050000Y-463950000D03*
D15*
G36*
X150181958Y-463630710D02*
G01*
X150196276Y-463632834D01*
X150210317Y-463636351D01*
X150223946Y-463641228D01*
X150237031Y-463647417D01*
X150249447Y-463654858D01*
X150261073Y-463663481D01*
X150271798Y-463673202D01*
X150281519Y-463683927D01*
X150290142Y-463695553D01*
X150297583Y-463707969D01*
X150303772Y-463721054D01*
X150308649Y-463734683D01*
X150312166Y-463748724D01*
X150314290Y-463763042D01*
X150315000Y-463777500D01*
X150315000Y-464122500D01*
X150314290Y-464136958D01*
X150312166Y-464151276D01*
X150308649Y-464165317D01*
X150303772Y-464178946D01*
X150297583Y-464192031D01*
X150290142Y-464204447D01*
X150281519Y-464216073D01*
X150271798Y-464226798D01*
X150261073Y-464236519D01*
X150249447Y-464245142D01*
X150237031Y-464252583D01*
X150223946Y-464258772D01*
X150210317Y-464263649D01*
X150196276Y-464267166D01*
X150181958Y-464269290D01*
X150167500Y-464270000D01*
X149872500Y-464270000D01*
X149858042Y-464269290D01*
X149843724Y-464267166D01*
X149829683Y-464263649D01*
X149816054Y-464258772D01*
X149802969Y-464252583D01*
X149790553Y-464245142D01*
X149778927Y-464236519D01*
X149768202Y-464226798D01*
X149758481Y-464216073D01*
X149749858Y-464204447D01*
X149742417Y-464192031D01*
X149736228Y-464178946D01*
X149731351Y-464165317D01*
X149727834Y-464151276D01*
X149725710Y-464136958D01*
X149725000Y-464122500D01*
X149725000Y-463777500D01*
X149725710Y-463763042D01*
X149727834Y-463748724D01*
X149731351Y-463734683D01*
X149736228Y-463721054D01*
X149742417Y-463707969D01*
X149749858Y-463695553D01*
X149758481Y-463683927D01*
X149768202Y-463673202D01*
X149778927Y-463663481D01*
X149790553Y-463654858D01*
X149802969Y-463647417D01*
X149816054Y-463641228D01*
X149829683Y-463636351D01*
X149843724Y-463632834D01*
X149858042Y-463630710D01*
X149872500Y-463630000D01*
X150167500Y-463630000D01*
X150181958Y-463630710D01*
X150181958Y-463630710D01*
G37*
D17*
X150020000Y-463950000D03*
D15*
G36*
X161176958Y-392390710D02*
G01*
X161191276Y-392392834D01*
X161205317Y-392396351D01*
X161218946Y-392401228D01*
X161232031Y-392407417D01*
X161244447Y-392414858D01*
X161256073Y-392423481D01*
X161266798Y-392433202D01*
X161276519Y-392443927D01*
X161285142Y-392455553D01*
X161292583Y-392467969D01*
X161298772Y-392481054D01*
X161303649Y-392494683D01*
X161307166Y-392508724D01*
X161309290Y-392523042D01*
X161310000Y-392537500D01*
X161310000Y-392882500D01*
X161309290Y-392896958D01*
X161307166Y-392911276D01*
X161303649Y-392925317D01*
X161298772Y-392938946D01*
X161292583Y-392952031D01*
X161285142Y-392964447D01*
X161276519Y-392976073D01*
X161266798Y-392986798D01*
X161256073Y-392996519D01*
X161244447Y-393005142D01*
X161232031Y-393012583D01*
X161218946Y-393018772D01*
X161205317Y-393023649D01*
X161191276Y-393027166D01*
X161176958Y-393029290D01*
X161162500Y-393030000D01*
X160867500Y-393030000D01*
X160853042Y-393029290D01*
X160838724Y-393027166D01*
X160824683Y-393023649D01*
X160811054Y-393018772D01*
X160797969Y-393012583D01*
X160785553Y-393005142D01*
X160773927Y-392996519D01*
X160763202Y-392986798D01*
X160753481Y-392976073D01*
X160744858Y-392964447D01*
X160737417Y-392952031D01*
X160731228Y-392938946D01*
X160726351Y-392925317D01*
X160722834Y-392911276D01*
X160720710Y-392896958D01*
X160720000Y-392882500D01*
X160720000Y-392537500D01*
X160720710Y-392523042D01*
X160722834Y-392508724D01*
X160726351Y-392494683D01*
X160731228Y-392481054D01*
X160737417Y-392467969D01*
X160744858Y-392455553D01*
X160753481Y-392443927D01*
X160763202Y-392433202D01*
X160773927Y-392423481D01*
X160785553Y-392414858D01*
X160797969Y-392407417D01*
X160811054Y-392401228D01*
X160824683Y-392396351D01*
X160838724Y-392392834D01*
X160853042Y-392390710D01*
X160867500Y-392390000D01*
X161162500Y-392390000D01*
X161176958Y-392390710D01*
X161176958Y-392390710D01*
G37*
D17*
X161015000Y-392710000D03*
D15*
G36*
X162146958Y-392390710D02*
G01*
X162161276Y-392392834D01*
X162175317Y-392396351D01*
X162188946Y-392401228D01*
X162202031Y-392407417D01*
X162214447Y-392414858D01*
X162226073Y-392423481D01*
X162236798Y-392433202D01*
X162246519Y-392443927D01*
X162255142Y-392455553D01*
X162262583Y-392467969D01*
X162268772Y-392481054D01*
X162273649Y-392494683D01*
X162277166Y-392508724D01*
X162279290Y-392523042D01*
X162280000Y-392537500D01*
X162280000Y-392882500D01*
X162279290Y-392896958D01*
X162277166Y-392911276D01*
X162273649Y-392925317D01*
X162268772Y-392938946D01*
X162262583Y-392952031D01*
X162255142Y-392964447D01*
X162246519Y-392976073D01*
X162236798Y-392986798D01*
X162226073Y-392996519D01*
X162214447Y-393005142D01*
X162202031Y-393012583D01*
X162188946Y-393018772D01*
X162175317Y-393023649D01*
X162161276Y-393027166D01*
X162146958Y-393029290D01*
X162132500Y-393030000D01*
X161837500Y-393030000D01*
X161823042Y-393029290D01*
X161808724Y-393027166D01*
X161794683Y-393023649D01*
X161781054Y-393018772D01*
X161767969Y-393012583D01*
X161755553Y-393005142D01*
X161743927Y-392996519D01*
X161733202Y-392986798D01*
X161723481Y-392976073D01*
X161714858Y-392964447D01*
X161707417Y-392952031D01*
X161701228Y-392938946D01*
X161696351Y-392925317D01*
X161692834Y-392911276D01*
X161690710Y-392896958D01*
X161690000Y-392882500D01*
X161690000Y-392537500D01*
X161690710Y-392523042D01*
X161692834Y-392508724D01*
X161696351Y-392494683D01*
X161701228Y-392481054D01*
X161707417Y-392467969D01*
X161714858Y-392455553D01*
X161723481Y-392443927D01*
X161733202Y-392433202D01*
X161743927Y-392423481D01*
X161755553Y-392414858D01*
X161767969Y-392407417D01*
X161781054Y-392401228D01*
X161794683Y-392396351D01*
X161808724Y-392392834D01*
X161823042Y-392390710D01*
X161837500Y-392390000D01*
X162132500Y-392390000D01*
X162146958Y-392390710D01*
X162146958Y-392390710D01*
G37*
D17*
X161985000Y-392710000D03*
D15*
G36*
X162141958Y-391410710D02*
G01*
X162156276Y-391412834D01*
X162170317Y-391416351D01*
X162183946Y-391421228D01*
X162197031Y-391427417D01*
X162209447Y-391434858D01*
X162221073Y-391443481D01*
X162231798Y-391453202D01*
X162241519Y-391463927D01*
X162250142Y-391475553D01*
X162257583Y-391487969D01*
X162263772Y-391501054D01*
X162268649Y-391514683D01*
X162272166Y-391528724D01*
X162274290Y-391543042D01*
X162275000Y-391557500D01*
X162275000Y-391902500D01*
X162274290Y-391916958D01*
X162272166Y-391931276D01*
X162268649Y-391945317D01*
X162263772Y-391958946D01*
X162257583Y-391972031D01*
X162250142Y-391984447D01*
X162241519Y-391996073D01*
X162231798Y-392006798D01*
X162221073Y-392016519D01*
X162209447Y-392025142D01*
X162197031Y-392032583D01*
X162183946Y-392038772D01*
X162170317Y-392043649D01*
X162156276Y-392047166D01*
X162141958Y-392049290D01*
X162127500Y-392050000D01*
X161832500Y-392050000D01*
X161818042Y-392049290D01*
X161803724Y-392047166D01*
X161789683Y-392043649D01*
X161776054Y-392038772D01*
X161762969Y-392032583D01*
X161750553Y-392025142D01*
X161738927Y-392016519D01*
X161728202Y-392006798D01*
X161718481Y-391996073D01*
X161709858Y-391984447D01*
X161702417Y-391972031D01*
X161696228Y-391958946D01*
X161691351Y-391945317D01*
X161687834Y-391931276D01*
X161685710Y-391916958D01*
X161685000Y-391902500D01*
X161685000Y-391557500D01*
X161685710Y-391543042D01*
X161687834Y-391528724D01*
X161691351Y-391514683D01*
X161696228Y-391501054D01*
X161702417Y-391487969D01*
X161709858Y-391475553D01*
X161718481Y-391463927D01*
X161728202Y-391453202D01*
X161738927Y-391443481D01*
X161750553Y-391434858D01*
X161762969Y-391427417D01*
X161776054Y-391421228D01*
X161789683Y-391416351D01*
X161803724Y-391412834D01*
X161818042Y-391410710D01*
X161832500Y-391410000D01*
X162127500Y-391410000D01*
X162141958Y-391410710D01*
X162141958Y-391410710D01*
G37*
D17*
X161980000Y-391730000D03*
D15*
G36*
X161171958Y-391410710D02*
G01*
X161186276Y-391412834D01*
X161200317Y-391416351D01*
X161213946Y-391421228D01*
X161227031Y-391427417D01*
X161239447Y-391434858D01*
X161251073Y-391443481D01*
X161261798Y-391453202D01*
X161271519Y-391463927D01*
X161280142Y-391475553D01*
X161287583Y-391487969D01*
X161293772Y-391501054D01*
X161298649Y-391514683D01*
X161302166Y-391528724D01*
X161304290Y-391543042D01*
X161305000Y-391557500D01*
X161305000Y-391902500D01*
X161304290Y-391916958D01*
X161302166Y-391931276D01*
X161298649Y-391945317D01*
X161293772Y-391958946D01*
X161287583Y-391972031D01*
X161280142Y-391984447D01*
X161271519Y-391996073D01*
X161261798Y-392006798D01*
X161251073Y-392016519D01*
X161239447Y-392025142D01*
X161227031Y-392032583D01*
X161213946Y-392038772D01*
X161200317Y-392043649D01*
X161186276Y-392047166D01*
X161171958Y-392049290D01*
X161157500Y-392050000D01*
X160862500Y-392050000D01*
X160848042Y-392049290D01*
X160833724Y-392047166D01*
X160819683Y-392043649D01*
X160806054Y-392038772D01*
X160792969Y-392032583D01*
X160780553Y-392025142D01*
X160768927Y-392016519D01*
X160758202Y-392006798D01*
X160748481Y-391996073D01*
X160739858Y-391984447D01*
X160732417Y-391972031D01*
X160726228Y-391958946D01*
X160721351Y-391945317D01*
X160717834Y-391931276D01*
X160715710Y-391916958D01*
X160715000Y-391902500D01*
X160715000Y-391557500D01*
X160715710Y-391543042D01*
X160717834Y-391528724D01*
X160721351Y-391514683D01*
X160726228Y-391501054D01*
X160732417Y-391487969D01*
X160739858Y-391475553D01*
X160748481Y-391463927D01*
X160758202Y-391453202D01*
X160768927Y-391443481D01*
X160780553Y-391434858D01*
X160792969Y-391427417D01*
X160806054Y-391421228D01*
X160819683Y-391416351D01*
X160833724Y-391412834D01*
X160848042Y-391410710D01*
X160862500Y-391410000D01*
X161157500Y-391410000D01*
X161171958Y-391410710D01*
X161171958Y-391410710D01*
G37*
D17*
X161010000Y-391730000D03*
D15*
G36*
X155089504Y-409946204D02*
G01*
X155113773Y-409949804D01*
X155137571Y-409955765D01*
X155160671Y-409964030D01*
X155182849Y-409974520D01*
X155203893Y-409987133D01*
X155223598Y-410001747D01*
X155241777Y-410018223D01*
X155258253Y-410036402D01*
X155272867Y-410056107D01*
X155285480Y-410077151D01*
X155295970Y-410099329D01*
X155304235Y-410122429D01*
X155310196Y-410146227D01*
X155313796Y-410170496D01*
X155315000Y-410195000D01*
X155315000Y-410945000D01*
X155313796Y-410969504D01*
X155310196Y-410993773D01*
X155304235Y-411017571D01*
X155295970Y-411040671D01*
X155285480Y-411062849D01*
X155272867Y-411083893D01*
X155258253Y-411103598D01*
X155241777Y-411121777D01*
X155223598Y-411138253D01*
X155203893Y-411152867D01*
X155182849Y-411165480D01*
X155160671Y-411175970D01*
X155137571Y-411184235D01*
X155113773Y-411190196D01*
X155089504Y-411193796D01*
X155065000Y-411195000D01*
X153815000Y-411195000D01*
X153790496Y-411193796D01*
X153766227Y-411190196D01*
X153742429Y-411184235D01*
X153719329Y-411175970D01*
X153697151Y-411165480D01*
X153676107Y-411152867D01*
X153656402Y-411138253D01*
X153638223Y-411121777D01*
X153621747Y-411103598D01*
X153607133Y-411083893D01*
X153594520Y-411062849D01*
X153584030Y-411040671D01*
X153575765Y-411017571D01*
X153569804Y-410993773D01*
X153566204Y-410969504D01*
X153565000Y-410945000D01*
X153565000Y-410195000D01*
X153566204Y-410170496D01*
X153569804Y-410146227D01*
X153575765Y-410122429D01*
X153584030Y-410099329D01*
X153594520Y-410077151D01*
X153607133Y-410056107D01*
X153621747Y-410036402D01*
X153638223Y-410018223D01*
X153656402Y-410001747D01*
X153676107Y-409987133D01*
X153697151Y-409974520D01*
X153719329Y-409964030D01*
X153742429Y-409955765D01*
X153766227Y-409949804D01*
X153790496Y-409946204D01*
X153815000Y-409945000D01*
X155065000Y-409945000D01*
X155089504Y-409946204D01*
X155089504Y-409946204D01*
G37*
D16*
X154440000Y-410570000D03*
D15*
G36*
X155089504Y-412746204D02*
G01*
X155113773Y-412749804D01*
X155137571Y-412755765D01*
X155160671Y-412764030D01*
X155182849Y-412774520D01*
X155203893Y-412787133D01*
X155223598Y-412801747D01*
X155241777Y-412818223D01*
X155258253Y-412836402D01*
X155272867Y-412856107D01*
X155285480Y-412877151D01*
X155295970Y-412899329D01*
X155304235Y-412922429D01*
X155310196Y-412946227D01*
X155313796Y-412970496D01*
X155315000Y-412995000D01*
X155315000Y-413745000D01*
X155313796Y-413769504D01*
X155310196Y-413793773D01*
X155304235Y-413817571D01*
X155295970Y-413840671D01*
X155285480Y-413862849D01*
X155272867Y-413883893D01*
X155258253Y-413903598D01*
X155241777Y-413921777D01*
X155223598Y-413938253D01*
X155203893Y-413952867D01*
X155182849Y-413965480D01*
X155160671Y-413975970D01*
X155137571Y-413984235D01*
X155113773Y-413990196D01*
X155089504Y-413993796D01*
X155065000Y-413995000D01*
X153815000Y-413995000D01*
X153790496Y-413993796D01*
X153766227Y-413990196D01*
X153742429Y-413984235D01*
X153719329Y-413975970D01*
X153697151Y-413965480D01*
X153676107Y-413952867D01*
X153656402Y-413938253D01*
X153638223Y-413921777D01*
X153621747Y-413903598D01*
X153607133Y-413883893D01*
X153594520Y-413862849D01*
X153584030Y-413840671D01*
X153575765Y-413817571D01*
X153569804Y-413793773D01*
X153566204Y-413769504D01*
X153565000Y-413745000D01*
X153565000Y-412995000D01*
X153566204Y-412970496D01*
X153569804Y-412946227D01*
X153575765Y-412922429D01*
X153584030Y-412899329D01*
X153594520Y-412877151D01*
X153607133Y-412856107D01*
X153621747Y-412836402D01*
X153638223Y-412818223D01*
X153656402Y-412801747D01*
X153676107Y-412787133D01*
X153697151Y-412774520D01*
X153719329Y-412764030D01*
X153742429Y-412755765D01*
X153766227Y-412749804D01*
X153790496Y-412746204D01*
X153815000Y-412745000D01*
X155065000Y-412745000D01*
X155089504Y-412746204D01*
X155089504Y-412746204D01*
G37*
D16*
X154440000Y-413370000D03*
D15*
G36*
X157861958Y-449730710D02*
G01*
X157876276Y-449732834D01*
X157890317Y-449736351D01*
X157903946Y-449741228D01*
X157917031Y-449747417D01*
X157929447Y-449754858D01*
X157941073Y-449763481D01*
X157951798Y-449773202D01*
X157961519Y-449783927D01*
X157970142Y-449795553D01*
X157977583Y-449807969D01*
X157983772Y-449821054D01*
X157988649Y-449834683D01*
X157992166Y-449848724D01*
X157994290Y-449863042D01*
X157995000Y-449877500D01*
X157995000Y-450172500D01*
X157994290Y-450186958D01*
X157992166Y-450201276D01*
X157988649Y-450215317D01*
X157983772Y-450228946D01*
X157977583Y-450242031D01*
X157970142Y-450254447D01*
X157961519Y-450266073D01*
X157951798Y-450276798D01*
X157941073Y-450286519D01*
X157929447Y-450295142D01*
X157917031Y-450302583D01*
X157903946Y-450308772D01*
X157890317Y-450313649D01*
X157876276Y-450317166D01*
X157861958Y-450319290D01*
X157847500Y-450320000D01*
X157502500Y-450320000D01*
X157488042Y-450319290D01*
X157473724Y-450317166D01*
X157459683Y-450313649D01*
X157446054Y-450308772D01*
X157432969Y-450302583D01*
X157420553Y-450295142D01*
X157408927Y-450286519D01*
X157398202Y-450276798D01*
X157388481Y-450266073D01*
X157379858Y-450254447D01*
X157372417Y-450242031D01*
X157366228Y-450228946D01*
X157361351Y-450215317D01*
X157357834Y-450201276D01*
X157355710Y-450186958D01*
X157355000Y-450172500D01*
X157355000Y-449877500D01*
X157355710Y-449863042D01*
X157357834Y-449848724D01*
X157361351Y-449834683D01*
X157366228Y-449821054D01*
X157372417Y-449807969D01*
X157379858Y-449795553D01*
X157388481Y-449783927D01*
X157398202Y-449773202D01*
X157408927Y-449763481D01*
X157420553Y-449754858D01*
X157432969Y-449747417D01*
X157446054Y-449741228D01*
X157459683Y-449736351D01*
X157473724Y-449732834D01*
X157488042Y-449730710D01*
X157502500Y-449730000D01*
X157847500Y-449730000D01*
X157861958Y-449730710D01*
X157861958Y-449730710D01*
G37*
D17*
X157675000Y-450025000D03*
D15*
G36*
X157861958Y-450700710D02*
G01*
X157876276Y-450702834D01*
X157890317Y-450706351D01*
X157903946Y-450711228D01*
X157917031Y-450717417D01*
X157929447Y-450724858D01*
X157941073Y-450733481D01*
X157951798Y-450743202D01*
X157961519Y-450753927D01*
X157970142Y-450765553D01*
X157977583Y-450777969D01*
X157983772Y-450791054D01*
X157988649Y-450804683D01*
X157992166Y-450818724D01*
X157994290Y-450833042D01*
X157995000Y-450847500D01*
X157995000Y-451142500D01*
X157994290Y-451156958D01*
X157992166Y-451171276D01*
X157988649Y-451185317D01*
X157983772Y-451198946D01*
X157977583Y-451212031D01*
X157970142Y-451224447D01*
X157961519Y-451236073D01*
X157951798Y-451246798D01*
X157941073Y-451256519D01*
X157929447Y-451265142D01*
X157917031Y-451272583D01*
X157903946Y-451278772D01*
X157890317Y-451283649D01*
X157876276Y-451287166D01*
X157861958Y-451289290D01*
X157847500Y-451290000D01*
X157502500Y-451290000D01*
X157488042Y-451289290D01*
X157473724Y-451287166D01*
X157459683Y-451283649D01*
X157446054Y-451278772D01*
X157432969Y-451272583D01*
X157420553Y-451265142D01*
X157408927Y-451256519D01*
X157398202Y-451246798D01*
X157388481Y-451236073D01*
X157379858Y-451224447D01*
X157372417Y-451212031D01*
X157366228Y-451198946D01*
X157361351Y-451185317D01*
X157357834Y-451171276D01*
X157355710Y-451156958D01*
X157355000Y-451142500D01*
X157355000Y-450847500D01*
X157355710Y-450833042D01*
X157357834Y-450818724D01*
X157361351Y-450804683D01*
X157366228Y-450791054D01*
X157372417Y-450777969D01*
X157379858Y-450765553D01*
X157388481Y-450753927D01*
X157398202Y-450743202D01*
X157408927Y-450733481D01*
X157420553Y-450724858D01*
X157432969Y-450717417D01*
X157446054Y-450711228D01*
X157459683Y-450706351D01*
X157473724Y-450702834D01*
X157488042Y-450700710D01*
X157502500Y-450700000D01*
X157847500Y-450700000D01*
X157861958Y-450700710D01*
X157861958Y-450700710D01*
G37*
D17*
X157675000Y-450995000D03*
D15*
G36*
X158674958Y-464505710D02*
G01*
X158689276Y-464507834D01*
X158703317Y-464511351D01*
X158716946Y-464516228D01*
X158730031Y-464522417D01*
X158742447Y-464529858D01*
X158754073Y-464538481D01*
X158764798Y-464548202D01*
X158774519Y-464558927D01*
X158783142Y-464570553D01*
X158790583Y-464582969D01*
X158796772Y-464596054D01*
X158801649Y-464609683D01*
X158805166Y-464623724D01*
X158807290Y-464638042D01*
X158808000Y-464652500D01*
X158808000Y-464947500D01*
X158807290Y-464961958D01*
X158805166Y-464976276D01*
X158801649Y-464990317D01*
X158796772Y-465003946D01*
X158790583Y-465017031D01*
X158783142Y-465029447D01*
X158774519Y-465041073D01*
X158764798Y-465051798D01*
X158754073Y-465061519D01*
X158742447Y-465070142D01*
X158730031Y-465077583D01*
X158716946Y-465083772D01*
X158703317Y-465088649D01*
X158689276Y-465092166D01*
X158674958Y-465094290D01*
X158660500Y-465095000D01*
X158315500Y-465095000D01*
X158301042Y-465094290D01*
X158286724Y-465092166D01*
X158272683Y-465088649D01*
X158259054Y-465083772D01*
X158245969Y-465077583D01*
X158233553Y-465070142D01*
X158221927Y-465061519D01*
X158211202Y-465051798D01*
X158201481Y-465041073D01*
X158192858Y-465029447D01*
X158185417Y-465017031D01*
X158179228Y-465003946D01*
X158174351Y-464990317D01*
X158170834Y-464976276D01*
X158168710Y-464961958D01*
X158168000Y-464947500D01*
X158168000Y-464652500D01*
X158168710Y-464638042D01*
X158170834Y-464623724D01*
X158174351Y-464609683D01*
X158179228Y-464596054D01*
X158185417Y-464582969D01*
X158192858Y-464570553D01*
X158201481Y-464558927D01*
X158211202Y-464548202D01*
X158221927Y-464538481D01*
X158233553Y-464529858D01*
X158245969Y-464522417D01*
X158259054Y-464516228D01*
X158272683Y-464511351D01*
X158286724Y-464507834D01*
X158301042Y-464505710D01*
X158315500Y-464505000D01*
X158660500Y-464505000D01*
X158674958Y-464505710D01*
X158674958Y-464505710D01*
G37*
D17*
X158488000Y-464800000D03*
D15*
G36*
X158674958Y-463535710D02*
G01*
X158689276Y-463537834D01*
X158703317Y-463541351D01*
X158716946Y-463546228D01*
X158730031Y-463552417D01*
X158742447Y-463559858D01*
X158754073Y-463568481D01*
X158764798Y-463578202D01*
X158774519Y-463588927D01*
X158783142Y-463600553D01*
X158790583Y-463612969D01*
X158796772Y-463626054D01*
X158801649Y-463639683D01*
X158805166Y-463653724D01*
X158807290Y-463668042D01*
X158808000Y-463682500D01*
X158808000Y-463977500D01*
X158807290Y-463991958D01*
X158805166Y-464006276D01*
X158801649Y-464020317D01*
X158796772Y-464033946D01*
X158790583Y-464047031D01*
X158783142Y-464059447D01*
X158774519Y-464071073D01*
X158764798Y-464081798D01*
X158754073Y-464091519D01*
X158742447Y-464100142D01*
X158730031Y-464107583D01*
X158716946Y-464113772D01*
X158703317Y-464118649D01*
X158689276Y-464122166D01*
X158674958Y-464124290D01*
X158660500Y-464125000D01*
X158315500Y-464125000D01*
X158301042Y-464124290D01*
X158286724Y-464122166D01*
X158272683Y-464118649D01*
X158259054Y-464113772D01*
X158245969Y-464107583D01*
X158233553Y-464100142D01*
X158221927Y-464091519D01*
X158211202Y-464081798D01*
X158201481Y-464071073D01*
X158192858Y-464059447D01*
X158185417Y-464047031D01*
X158179228Y-464033946D01*
X158174351Y-464020317D01*
X158170834Y-464006276D01*
X158168710Y-463991958D01*
X158168000Y-463977500D01*
X158168000Y-463682500D01*
X158168710Y-463668042D01*
X158170834Y-463653724D01*
X158174351Y-463639683D01*
X158179228Y-463626054D01*
X158185417Y-463612969D01*
X158192858Y-463600553D01*
X158201481Y-463588927D01*
X158211202Y-463578202D01*
X158221927Y-463568481D01*
X158233553Y-463559858D01*
X158245969Y-463552417D01*
X158259054Y-463546228D01*
X158272683Y-463541351D01*
X158286724Y-463537834D01*
X158301042Y-463535710D01*
X158315500Y-463535000D01*
X158660500Y-463535000D01*
X158674958Y-463535710D01*
X158674958Y-463535710D01*
G37*
D17*
X158488000Y-463830000D03*
D15*
G36*
X163531958Y-456905710D02*
G01*
X163546276Y-456907834D01*
X163560317Y-456911351D01*
X163573946Y-456916228D01*
X163587031Y-456922417D01*
X163599447Y-456929858D01*
X163611073Y-456938481D01*
X163621798Y-456948202D01*
X163631519Y-456958927D01*
X163640142Y-456970553D01*
X163647583Y-456982969D01*
X163653772Y-456996054D01*
X163658649Y-457009683D01*
X163662166Y-457023724D01*
X163664290Y-457038042D01*
X163665000Y-457052500D01*
X163665000Y-457397500D01*
X163664290Y-457411958D01*
X163662166Y-457426276D01*
X163658649Y-457440317D01*
X163653772Y-457453946D01*
X163647583Y-457467031D01*
X163640142Y-457479447D01*
X163631519Y-457491073D01*
X163621798Y-457501798D01*
X163611073Y-457511519D01*
X163599447Y-457520142D01*
X163587031Y-457527583D01*
X163573946Y-457533772D01*
X163560317Y-457538649D01*
X163546276Y-457542166D01*
X163531958Y-457544290D01*
X163517500Y-457545000D01*
X163222500Y-457545000D01*
X163208042Y-457544290D01*
X163193724Y-457542166D01*
X163179683Y-457538649D01*
X163166054Y-457533772D01*
X163152969Y-457527583D01*
X163140553Y-457520142D01*
X163128927Y-457511519D01*
X163118202Y-457501798D01*
X163108481Y-457491073D01*
X163099858Y-457479447D01*
X163092417Y-457467031D01*
X163086228Y-457453946D01*
X163081351Y-457440317D01*
X163077834Y-457426276D01*
X163075710Y-457411958D01*
X163075000Y-457397500D01*
X163075000Y-457052500D01*
X163075710Y-457038042D01*
X163077834Y-457023724D01*
X163081351Y-457009683D01*
X163086228Y-456996054D01*
X163092417Y-456982969D01*
X163099858Y-456970553D01*
X163108481Y-456958927D01*
X163118202Y-456948202D01*
X163128927Y-456938481D01*
X163140553Y-456929858D01*
X163152969Y-456922417D01*
X163166054Y-456916228D01*
X163179683Y-456911351D01*
X163193724Y-456907834D01*
X163208042Y-456905710D01*
X163222500Y-456905000D01*
X163517500Y-456905000D01*
X163531958Y-456905710D01*
X163531958Y-456905710D01*
G37*
D17*
X163370000Y-457225000D03*
D15*
G36*
X162561958Y-456905710D02*
G01*
X162576276Y-456907834D01*
X162590317Y-456911351D01*
X162603946Y-456916228D01*
X162617031Y-456922417D01*
X162629447Y-456929858D01*
X162641073Y-456938481D01*
X162651798Y-456948202D01*
X162661519Y-456958927D01*
X162670142Y-456970553D01*
X162677583Y-456982969D01*
X162683772Y-456996054D01*
X162688649Y-457009683D01*
X162692166Y-457023724D01*
X162694290Y-457038042D01*
X162695000Y-457052500D01*
X162695000Y-457397500D01*
X162694290Y-457411958D01*
X162692166Y-457426276D01*
X162688649Y-457440317D01*
X162683772Y-457453946D01*
X162677583Y-457467031D01*
X162670142Y-457479447D01*
X162661519Y-457491073D01*
X162651798Y-457501798D01*
X162641073Y-457511519D01*
X162629447Y-457520142D01*
X162617031Y-457527583D01*
X162603946Y-457533772D01*
X162590317Y-457538649D01*
X162576276Y-457542166D01*
X162561958Y-457544290D01*
X162547500Y-457545000D01*
X162252500Y-457545000D01*
X162238042Y-457544290D01*
X162223724Y-457542166D01*
X162209683Y-457538649D01*
X162196054Y-457533772D01*
X162182969Y-457527583D01*
X162170553Y-457520142D01*
X162158927Y-457511519D01*
X162148202Y-457501798D01*
X162138481Y-457491073D01*
X162129858Y-457479447D01*
X162122417Y-457467031D01*
X162116228Y-457453946D01*
X162111351Y-457440317D01*
X162107834Y-457426276D01*
X162105710Y-457411958D01*
X162105000Y-457397500D01*
X162105000Y-457052500D01*
X162105710Y-457038042D01*
X162107834Y-457023724D01*
X162111351Y-457009683D01*
X162116228Y-456996054D01*
X162122417Y-456982969D01*
X162129858Y-456970553D01*
X162138481Y-456958927D01*
X162148202Y-456948202D01*
X162158927Y-456938481D01*
X162170553Y-456929858D01*
X162182969Y-456922417D01*
X162196054Y-456916228D01*
X162209683Y-456911351D01*
X162223724Y-456907834D01*
X162238042Y-456905710D01*
X162252500Y-456905000D01*
X162547500Y-456905000D01*
X162561958Y-456905710D01*
X162561958Y-456905710D01*
G37*
D17*
X162400000Y-457225000D03*
D15*
G36*
X163531958Y-457930710D02*
G01*
X163546276Y-457932834D01*
X163560317Y-457936351D01*
X163573946Y-457941228D01*
X163587031Y-457947417D01*
X163599447Y-457954858D01*
X163611073Y-457963481D01*
X163621798Y-457973202D01*
X163631519Y-457983927D01*
X163640142Y-457995553D01*
X163647583Y-458007969D01*
X163653772Y-458021054D01*
X163658649Y-458034683D01*
X163662166Y-458048724D01*
X163664290Y-458063042D01*
X163665000Y-458077500D01*
X163665000Y-458422500D01*
X163664290Y-458436958D01*
X163662166Y-458451276D01*
X163658649Y-458465317D01*
X163653772Y-458478946D01*
X163647583Y-458492031D01*
X163640142Y-458504447D01*
X163631519Y-458516073D01*
X163621798Y-458526798D01*
X163611073Y-458536519D01*
X163599447Y-458545142D01*
X163587031Y-458552583D01*
X163573946Y-458558772D01*
X163560317Y-458563649D01*
X163546276Y-458567166D01*
X163531958Y-458569290D01*
X163517500Y-458570000D01*
X163222500Y-458570000D01*
X163208042Y-458569290D01*
X163193724Y-458567166D01*
X163179683Y-458563649D01*
X163166054Y-458558772D01*
X163152969Y-458552583D01*
X163140553Y-458545142D01*
X163128927Y-458536519D01*
X163118202Y-458526798D01*
X163108481Y-458516073D01*
X163099858Y-458504447D01*
X163092417Y-458492031D01*
X163086228Y-458478946D01*
X163081351Y-458465317D01*
X163077834Y-458451276D01*
X163075710Y-458436958D01*
X163075000Y-458422500D01*
X163075000Y-458077500D01*
X163075710Y-458063042D01*
X163077834Y-458048724D01*
X163081351Y-458034683D01*
X163086228Y-458021054D01*
X163092417Y-458007969D01*
X163099858Y-457995553D01*
X163108481Y-457983927D01*
X163118202Y-457973202D01*
X163128927Y-457963481D01*
X163140553Y-457954858D01*
X163152969Y-457947417D01*
X163166054Y-457941228D01*
X163179683Y-457936351D01*
X163193724Y-457932834D01*
X163208042Y-457930710D01*
X163222500Y-457930000D01*
X163517500Y-457930000D01*
X163531958Y-457930710D01*
X163531958Y-457930710D01*
G37*
D17*
X163370000Y-458250000D03*
D15*
G36*
X162561958Y-457930710D02*
G01*
X162576276Y-457932834D01*
X162590317Y-457936351D01*
X162603946Y-457941228D01*
X162617031Y-457947417D01*
X162629447Y-457954858D01*
X162641073Y-457963481D01*
X162651798Y-457973202D01*
X162661519Y-457983927D01*
X162670142Y-457995553D01*
X162677583Y-458007969D01*
X162683772Y-458021054D01*
X162688649Y-458034683D01*
X162692166Y-458048724D01*
X162694290Y-458063042D01*
X162695000Y-458077500D01*
X162695000Y-458422500D01*
X162694290Y-458436958D01*
X162692166Y-458451276D01*
X162688649Y-458465317D01*
X162683772Y-458478946D01*
X162677583Y-458492031D01*
X162670142Y-458504447D01*
X162661519Y-458516073D01*
X162651798Y-458526798D01*
X162641073Y-458536519D01*
X162629447Y-458545142D01*
X162617031Y-458552583D01*
X162603946Y-458558772D01*
X162590317Y-458563649D01*
X162576276Y-458567166D01*
X162561958Y-458569290D01*
X162547500Y-458570000D01*
X162252500Y-458570000D01*
X162238042Y-458569290D01*
X162223724Y-458567166D01*
X162209683Y-458563649D01*
X162196054Y-458558772D01*
X162182969Y-458552583D01*
X162170553Y-458545142D01*
X162158927Y-458536519D01*
X162148202Y-458526798D01*
X162138481Y-458516073D01*
X162129858Y-458504447D01*
X162122417Y-458492031D01*
X162116228Y-458478946D01*
X162111351Y-458465317D01*
X162107834Y-458451276D01*
X162105710Y-458436958D01*
X162105000Y-458422500D01*
X162105000Y-458077500D01*
X162105710Y-458063042D01*
X162107834Y-458048724D01*
X162111351Y-458034683D01*
X162116228Y-458021054D01*
X162122417Y-458007969D01*
X162129858Y-457995553D01*
X162138481Y-457983927D01*
X162148202Y-457973202D01*
X162158927Y-457963481D01*
X162170553Y-457954858D01*
X162182969Y-457947417D01*
X162196054Y-457941228D01*
X162209683Y-457936351D01*
X162223724Y-457932834D01*
X162238042Y-457930710D01*
X162252500Y-457930000D01*
X162547500Y-457930000D01*
X162561958Y-457930710D01*
X162561958Y-457930710D01*
G37*
D17*
X162400000Y-458250000D03*
D15*
G36*
X151386958Y-451735710D02*
G01*
X151401276Y-451737834D01*
X151415317Y-451741351D01*
X151428946Y-451746228D01*
X151442031Y-451752417D01*
X151454447Y-451759858D01*
X151466073Y-451768481D01*
X151476798Y-451778202D01*
X151486519Y-451788927D01*
X151495142Y-451800553D01*
X151502583Y-451812969D01*
X151508772Y-451826054D01*
X151513649Y-451839683D01*
X151517166Y-451853724D01*
X151519290Y-451868042D01*
X151520000Y-451882500D01*
X151520000Y-452177500D01*
X151519290Y-452191958D01*
X151517166Y-452206276D01*
X151513649Y-452220317D01*
X151508772Y-452233946D01*
X151502583Y-452247031D01*
X151495142Y-452259447D01*
X151486519Y-452271073D01*
X151476798Y-452281798D01*
X151466073Y-452291519D01*
X151454447Y-452300142D01*
X151442031Y-452307583D01*
X151428946Y-452313772D01*
X151415317Y-452318649D01*
X151401276Y-452322166D01*
X151386958Y-452324290D01*
X151372500Y-452325000D01*
X151027500Y-452325000D01*
X151013042Y-452324290D01*
X150998724Y-452322166D01*
X150984683Y-452318649D01*
X150971054Y-452313772D01*
X150957969Y-452307583D01*
X150945553Y-452300142D01*
X150933927Y-452291519D01*
X150923202Y-452281798D01*
X150913481Y-452271073D01*
X150904858Y-452259447D01*
X150897417Y-452247031D01*
X150891228Y-452233946D01*
X150886351Y-452220317D01*
X150882834Y-452206276D01*
X150880710Y-452191958D01*
X150880000Y-452177500D01*
X150880000Y-451882500D01*
X150880710Y-451868042D01*
X150882834Y-451853724D01*
X150886351Y-451839683D01*
X150891228Y-451826054D01*
X150897417Y-451812969D01*
X150904858Y-451800553D01*
X150913481Y-451788927D01*
X150923202Y-451778202D01*
X150933927Y-451768481D01*
X150945553Y-451759858D01*
X150957969Y-451752417D01*
X150971054Y-451746228D01*
X150984683Y-451741351D01*
X150998724Y-451737834D01*
X151013042Y-451735710D01*
X151027500Y-451735000D01*
X151372500Y-451735000D01*
X151386958Y-451735710D01*
X151386958Y-451735710D01*
G37*
D17*
X151200000Y-452030000D03*
D15*
G36*
X151386958Y-452705710D02*
G01*
X151401276Y-452707834D01*
X151415317Y-452711351D01*
X151428946Y-452716228D01*
X151442031Y-452722417D01*
X151454447Y-452729858D01*
X151466073Y-452738481D01*
X151476798Y-452748202D01*
X151486519Y-452758927D01*
X151495142Y-452770553D01*
X151502583Y-452782969D01*
X151508772Y-452796054D01*
X151513649Y-452809683D01*
X151517166Y-452823724D01*
X151519290Y-452838042D01*
X151520000Y-452852500D01*
X151520000Y-453147500D01*
X151519290Y-453161958D01*
X151517166Y-453176276D01*
X151513649Y-453190317D01*
X151508772Y-453203946D01*
X151502583Y-453217031D01*
X151495142Y-453229447D01*
X151486519Y-453241073D01*
X151476798Y-453251798D01*
X151466073Y-453261519D01*
X151454447Y-453270142D01*
X151442031Y-453277583D01*
X151428946Y-453283772D01*
X151415317Y-453288649D01*
X151401276Y-453292166D01*
X151386958Y-453294290D01*
X151372500Y-453295000D01*
X151027500Y-453295000D01*
X151013042Y-453294290D01*
X150998724Y-453292166D01*
X150984683Y-453288649D01*
X150971054Y-453283772D01*
X150957969Y-453277583D01*
X150945553Y-453270142D01*
X150933927Y-453261519D01*
X150923202Y-453251798D01*
X150913481Y-453241073D01*
X150904858Y-453229447D01*
X150897417Y-453217031D01*
X150891228Y-453203946D01*
X150886351Y-453190317D01*
X150882834Y-453176276D01*
X150880710Y-453161958D01*
X150880000Y-453147500D01*
X150880000Y-452852500D01*
X150880710Y-452838042D01*
X150882834Y-452823724D01*
X150886351Y-452809683D01*
X150891228Y-452796054D01*
X150897417Y-452782969D01*
X150904858Y-452770553D01*
X150913481Y-452758927D01*
X150923202Y-452748202D01*
X150933927Y-452738481D01*
X150945553Y-452729858D01*
X150957969Y-452722417D01*
X150971054Y-452716228D01*
X150984683Y-452711351D01*
X150998724Y-452707834D01*
X151013042Y-452705710D01*
X151027500Y-452705000D01*
X151372500Y-452705000D01*
X151386958Y-452705710D01*
X151386958Y-452705710D01*
G37*
D17*
X151200000Y-453000000D03*
D15*
G36*
X149261958Y-457130710D02*
G01*
X149276276Y-457132834D01*
X149290317Y-457136351D01*
X149303946Y-457141228D01*
X149317031Y-457147417D01*
X149329447Y-457154858D01*
X149341073Y-457163481D01*
X149351798Y-457173202D01*
X149361519Y-457183927D01*
X149370142Y-457195553D01*
X149377583Y-457207969D01*
X149383772Y-457221054D01*
X149388649Y-457234683D01*
X149392166Y-457248724D01*
X149394290Y-457263042D01*
X149395000Y-457277500D01*
X149395000Y-457622500D01*
X149394290Y-457636958D01*
X149392166Y-457651276D01*
X149388649Y-457665317D01*
X149383772Y-457678946D01*
X149377583Y-457692031D01*
X149370142Y-457704447D01*
X149361519Y-457716073D01*
X149351798Y-457726798D01*
X149341073Y-457736519D01*
X149329447Y-457745142D01*
X149317031Y-457752583D01*
X149303946Y-457758772D01*
X149290317Y-457763649D01*
X149276276Y-457767166D01*
X149261958Y-457769290D01*
X149247500Y-457770000D01*
X148952500Y-457770000D01*
X148938042Y-457769290D01*
X148923724Y-457767166D01*
X148909683Y-457763649D01*
X148896054Y-457758772D01*
X148882969Y-457752583D01*
X148870553Y-457745142D01*
X148858927Y-457736519D01*
X148848202Y-457726798D01*
X148838481Y-457716073D01*
X148829858Y-457704447D01*
X148822417Y-457692031D01*
X148816228Y-457678946D01*
X148811351Y-457665317D01*
X148807834Y-457651276D01*
X148805710Y-457636958D01*
X148805000Y-457622500D01*
X148805000Y-457277500D01*
X148805710Y-457263042D01*
X148807834Y-457248724D01*
X148811351Y-457234683D01*
X148816228Y-457221054D01*
X148822417Y-457207969D01*
X148829858Y-457195553D01*
X148838481Y-457183927D01*
X148848202Y-457173202D01*
X148858927Y-457163481D01*
X148870553Y-457154858D01*
X148882969Y-457147417D01*
X148896054Y-457141228D01*
X148909683Y-457136351D01*
X148923724Y-457132834D01*
X148938042Y-457130710D01*
X148952500Y-457130000D01*
X149247500Y-457130000D01*
X149261958Y-457130710D01*
X149261958Y-457130710D01*
G37*
D17*
X149100000Y-457450000D03*
D15*
G36*
X150231958Y-457130710D02*
G01*
X150246276Y-457132834D01*
X150260317Y-457136351D01*
X150273946Y-457141228D01*
X150287031Y-457147417D01*
X150299447Y-457154858D01*
X150311073Y-457163481D01*
X150321798Y-457173202D01*
X150331519Y-457183927D01*
X150340142Y-457195553D01*
X150347583Y-457207969D01*
X150353772Y-457221054D01*
X150358649Y-457234683D01*
X150362166Y-457248724D01*
X150364290Y-457263042D01*
X150365000Y-457277500D01*
X150365000Y-457622500D01*
X150364290Y-457636958D01*
X150362166Y-457651276D01*
X150358649Y-457665317D01*
X150353772Y-457678946D01*
X150347583Y-457692031D01*
X150340142Y-457704447D01*
X150331519Y-457716073D01*
X150321798Y-457726798D01*
X150311073Y-457736519D01*
X150299447Y-457745142D01*
X150287031Y-457752583D01*
X150273946Y-457758772D01*
X150260317Y-457763649D01*
X150246276Y-457767166D01*
X150231958Y-457769290D01*
X150217500Y-457770000D01*
X149922500Y-457770000D01*
X149908042Y-457769290D01*
X149893724Y-457767166D01*
X149879683Y-457763649D01*
X149866054Y-457758772D01*
X149852969Y-457752583D01*
X149840553Y-457745142D01*
X149828927Y-457736519D01*
X149818202Y-457726798D01*
X149808481Y-457716073D01*
X149799858Y-457704447D01*
X149792417Y-457692031D01*
X149786228Y-457678946D01*
X149781351Y-457665317D01*
X149777834Y-457651276D01*
X149775710Y-457636958D01*
X149775000Y-457622500D01*
X149775000Y-457277500D01*
X149775710Y-457263042D01*
X149777834Y-457248724D01*
X149781351Y-457234683D01*
X149786228Y-457221054D01*
X149792417Y-457207969D01*
X149799858Y-457195553D01*
X149808481Y-457183927D01*
X149818202Y-457173202D01*
X149828927Y-457163481D01*
X149840553Y-457154858D01*
X149852969Y-457147417D01*
X149866054Y-457141228D01*
X149879683Y-457136351D01*
X149893724Y-457132834D01*
X149908042Y-457130710D01*
X149922500Y-457130000D01*
X150217500Y-457130000D01*
X150231958Y-457130710D01*
X150231958Y-457130710D01*
G37*
D17*
X150070000Y-457450000D03*
D15*
G36*
X149176958Y-461580710D02*
G01*
X149191276Y-461582834D01*
X149205317Y-461586351D01*
X149218946Y-461591228D01*
X149232031Y-461597417D01*
X149244447Y-461604858D01*
X149256073Y-461613481D01*
X149266798Y-461623202D01*
X149276519Y-461633927D01*
X149285142Y-461645553D01*
X149292583Y-461657969D01*
X149298772Y-461671054D01*
X149303649Y-461684683D01*
X149307166Y-461698724D01*
X149309290Y-461713042D01*
X149310000Y-461727500D01*
X149310000Y-462072500D01*
X149309290Y-462086958D01*
X149307166Y-462101276D01*
X149303649Y-462115317D01*
X149298772Y-462128946D01*
X149292583Y-462142031D01*
X149285142Y-462154447D01*
X149276519Y-462166073D01*
X149266798Y-462176798D01*
X149256073Y-462186519D01*
X149244447Y-462195142D01*
X149232031Y-462202583D01*
X149218946Y-462208772D01*
X149205317Y-462213649D01*
X149191276Y-462217166D01*
X149176958Y-462219290D01*
X149162500Y-462220000D01*
X148867500Y-462220000D01*
X148853042Y-462219290D01*
X148838724Y-462217166D01*
X148824683Y-462213649D01*
X148811054Y-462208772D01*
X148797969Y-462202583D01*
X148785553Y-462195142D01*
X148773927Y-462186519D01*
X148763202Y-462176798D01*
X148753481Y-462166073D01*
X148744858Y-462154447D01*
X148737417Y-462142031D01*
X148731228Y-462128946D01*
X148726351Y-462115317D01*
X148722834Y-462101276D01*
X148720710Y-462086958D01*
X148720000Y-462072500D01*
X148720000Y-461727500D01*
X148720710Y-461713042D01*
X148722834Y-461698724D01*
X148726351Y-461684683D01*
X148731228Y-461671054D01*
X148737417Y-461657969D01*
X148744858Y-461645553D01*
X148753481Y-461633927D01*
X148763202Y-461623202D01*
X148773927Y-461613481D01*
X148785553Y-461604858D01*
X148797969Y-461597417D01*
X148811054Y-461591228D01*
X148824683Y-461586351D01*
X148838724Y-461582834D01*
X148853042Y-461580710D01*
X148867500Y-461580000D01*
X149162500Y-461580000D01*
X149176958Y-461580710D01*
X149176958Y-461580710D01*
G37*
D17*
X149015000Y-461900000D03*
D15*
G36*
X150146958Y-461580710D02*
G01*
X150161276Y-461582834D01*
X150175317Y-461586351D01*
X150188946Y-461591228D01*
X150202031Y-461597417D01*
X150214447Y-461604858D01*
X150226073Y-461613481D01*
X150236798Y-461623202D01*
X150246519Y-461633927D01*
X150255142Y-461645553D01*
X150262583Y-461657969D01*
X150268772Y-461671054D01*
X150273649Y-461684683D01*
X150277166Y-461698724D01*
X150279290Y-461713042D01*
X150280000Y-461727500D01*
X150280000Y-462072500D01*
X150279290Y-462086958D01*
X150277166Y-462101276D01*
X150273649Y-462115317D01*
X150268772Y-462128946D01*
X150262583Y-462142031D01*
X150255142Y-462154447D01*
X150246519Y-462166073D01*
X150236798Y-462176798D01*
X150226073Y-462186519D01*
X150214447Y-462195142D01*
X150202031Y-462202583D01*
X150188946Y-462208772D01*
X150175317Y-462213649D01*
X150161276Y-462217166D01*
X150146958Y-462219290D01*
X150132500Y-462220000D01*
X149837500Y-462220000D01*
X149823042Y-462219290D01*
X149808724Y-462217166D01*
X149794683Y-462213649D01*
X149781054Y-462208772D01*
X149767969Y-462202583D01*
X149755553Y-462195142D01*
X149743927Y-462186519D01*
X149733202Y-462176798D01*
X149723481Y-462166073D01*
X149714858Y-462154447D01*
X149707417Y-462142031D01*
X149701228Y-462128946D01*
X149696351Y-462115317D01*
X149692834Y-462101276D01*
X149690710Y-462086958D01*
X149690000Y-462072500D01*
X149690000Y-461727500D01*
X149690710Y-461713042D01*
X149692834Y-461698724D01*
X149696351Y-461684683D01*
X149701228Y-461671054D01*
X149707417Y-461657969D01*
X149714858Y-461645553D01*
X149723481Y-461633927D01*
X149733202Y-461623202D01*
X149743927Y-461613481D01*
X149755553Y-461604858D01*
X149767969Y-461597417D01*
X149781054Y-461591228D01*
X149794683Y-461586351D01*
X149808724Y-461582834D01*
X149823042Y-461580710D01*
X149837500Y-461580000D01*
X150132500Y-461580000D01*
X150146958Y-461580710D01*
X150146958Y-461580710D01*
G37*
D17*
X149985000Y-461900000D03*
D15*
G36*
X149191958Y-460130710D02*
G01*
X149206276Y-460132834D01*
X149220317Y-460136351D01*
X149233946Y-460141228D01*
X149247031Y-460147417D01*
X149259447Y-460154858D01*
X149271073Y-460163481D01*
X149281798Y-460173202D01*
X149291519Y-460183927D01*
X149300142Y-460195553D01*
X149307583Y-460207969D01*
X149313772Y-460221054D01*
X149318649Y-460234683D01*
X149322166Y-460248724D01*
X149324290Y-460263042D01*
X149325000Y-460277500D01*
X149325000Y-460622500D01*
X149324290Y-460636958D01*
X149322166Y-460651276D01*
X149318649Y-460665317D01*
X149313772Y-460678946D01*
X149307583Y-460692031D01*
X149300142Y-460704447D01*
X149291519Y-460716073D01*
X149281798Y-460726798D01*
X149271073Y-460736519D01*
X149259447Y-460745142D01*
X149247031Y-460752583D01*
X149233946Y-460758772D01*
X149220317Y-460763649D01*
X149206276Y-460767166D01*
X149191958Y-460769290D01*
X149177500Y-460770000D01*
X148882500Y-460770000D01*
X148868042Y-460769290D01*
X148853724Y-460767166D01*
X148839683Y-460763649D01*
X148826054Y-460758772D01*
X148812969Y-460752583D01*
X148800553Y-460745142D01*
X148788927Y-460736519D01*
X148778202Y-460726798D01*
X148768481Y-460716073D01*
X148759858Y-460704447D01*
X148752417Y-460692031D01*
X148746228Y-460678946D01*
X148741351Y-460665317D01*
X148737834Y-460651276D01*
X148735710Y-460636958D01*
X148735000Y-460622500D01*
X148735000Y-460277500D01*
X148735710Y-460263042D01*
X148737834Y-460248724D01*
X148741351Y-460234683D01*
X148746228Y-460221054D01*
X148752417Y-460207969D01*
X148759858Y-460195553D01*
X148768481Y-460183927D01*
X148778202Y-460173202D01*
X148788927Y-460163481D01*
X148800553Y-460154858D01*
X148812969Y-460147417D01*
X148826054Y-460141228D01*
X148839683Y-460136351D01*
X148853724Y-460132834D01*
X148868042Y-460130710D01*
X148882500Y-460130000D01*
X149177500Y-460130000D01*
X149191958Y-460130710D01*
X149191958Y-460130710D01*
G37*
D17*
X149030000Y-460450000D03*
D15*
G36*
X150161958Y-460130710D02*
G01*
X150176276Y-460132834D01*
X150190317Y-460136351D01*
X150203946Y-460141228D01*
X150217031Y-460147417D01*
X150229447Y-460154858D01*
X150241073Y-460163481D01*
X150251798Y-460173202D01*
X150261519Y-460183927D01*
X150270142Y-460195553D01*
X150277583Y-460207969D01*
X150283772Y-460221054D01*
X150288649Y-460234683D01*
X150292166Y-460248724D01*
X150294290Y-460263042D01*
X150295000Y-460277500D01*
X150295000Y-460622500D01*
X150294290Y-460636958D01*
X150292166Y-460651276D01*
X150288649Y-460665317D01*
X150283772Y-460678946D01*
X150277583Y-460692031D01*
X150270142Y-460704447D01*
X150261519Y-460716073D01*
X150251798Y-460726798D01*
X150241073Y-460736519D01*
X150229447Y-460745142D01*
X150217031Y-460752583D01*
X150203946Y-460758772D01*
X150190317Y-460763649D01*
X150176276Y-460767166D01*
X150161958Y-460769290D01*
X150147500Y-460770000D01*
X149852500Y-460770000D01*
X149838042Y-460769290D01*
X149823724Y-460767166D01*
X149809683Y-460763649D01*
X149796054Y-460758772D01*
X149782969Y-460752583D01*
X149770553Y-460745142D01*
X149758927Y-460736519D01*
X149748202Y-460726798D01*
X149738481Y-460716073D01*
X149729858Y-460704447D01*
X149722417Y-460692031D01*
X149716228Y-460678946D01*
X149711351Y-460665317D01*
X149707834Y-460651276D01*
X149705710Y-460636958D01*
X149705000Y-460622500D01*
X149705000Y-460277500D01*
X149705710Y-460263042D01*
X149707834Y-460248724D01*
X149711351Y-460234683D01*
X149716228Y-460221054D01*
X149722417Y-460207969D01*
X149729858Y-460195553D01*
X149738481Y-460183927D01*
X149748202Y-460173202D01*
X149758927Y-460163481D01*
X149770553Y-460154858D01*
X149782969Y-460147417D01*
X149796054Y-460141228D01*
X149809683Y-460136351D01*
X149823724Y-460132834D01*
X149838042Y-460130710D01*
X149852500Y-460130000D01*
X150147500Y-460130000D01*
X150161958Y-460130710D01*
X150161958Y-460130710D01*
G37*
D17*
X150000000Y-460450000D03*
D15*
G36*
X153186958Y-464525710D02*
G01*
X153201276Y-464527834D01*
X153215317Y-464531351D01*
X153228946Y-464536228D01*
X153242031Y-464542417D01*
X153254447Y-464549858D01*
X153266073Y-464558481D01*
X153276798Y-464568202D01*
X153286519Y-464578927D01*
X153295142Y-464590553D01*
X153302583Y-464602969D01*
X153308772Y-464616054D01*
X153313649Y-464629683D01*
X153317166Y-464643724D01*
X153319290Y-464658042D01*
X153320000Y-464672500D01*
X153320000Y-464967500D01*
X153319290Y-464981958D01*
X153317166Y-464996276D01*
X153313649Y-465010317D01*
X153308772Y-465023946D01*
X153302583Y-465037031D01*
X153295142Y-465049447D01*
X153286519Y-465061073D01*
X153276798Y-465071798D01*
X153266073Y-465081519D01*
X153254447Y-465090142D01*
X153242031Y-465097583D01*
X153228946Y-465103772D01*
X153215317Y-465108649D01*
X153201276Y-465112166D01*
X153186958Y-465114290D01*
X153172500Y-465115000D01*
X152827500Y-465115000D01*
X152813042Y-465114290D01*
X152798724Y-465112166D01*
X152784683Y-465108649D01*
X152771054Y-465103772D01*
X152757969Y-465097583D01*
X152745553Y-465090142D01*
X152733927Y-465081519D01*
X152723202Y-465071798D01*
X152713481Y-465061073D01*
X152704858Y-465049447D01*
X152697417Y-465037031D01*
X152691228Y-465023946D01*
X152686351Y-465010317D01*
X152682834Y-464996276D01*
X152680710Y-464981958D01*
X152680000Y-464967500D01*
X152680000Y-464672500D01*
X152680710Y-464658042D01*
X152682834Y-464643724D01*
X152686351Y-464629683D01*
X152691228Y-464616054D01*
X152697417Y-464602969D01*
X152704858Y-464590553D01*
X152713481Y-464578927D01*
X152723202Y-464568202D01*
X152733927Y-464558481D01*
X152745553Y-464549858D01*
X152757969Y-464542417D01*
X152771054Y-464536228D01*
X152784683Y-464531351D01*
X152798724Y-464527834D01*
X152813042Y-464525710D01*
X152827500Y-464525000D01*
X153172500Y-464525000D01*
X153186958Y-464525710D01*
X153186958Y-464525710D01*
G37*
D17*
X153000000Y-464820000D03*
D15*
G36*
X153186958Y-463555710D02*
G01*
X153201276Y-463557834D01*
X153215317Y-463561351D01*
X153228946Y-463566228D01*
X153242031Y-463572417D01*
X153254447Y-463579858D01*
X153266073Y-463588481D01*
X153276798Y-463598202D01*
X153286519Y-463608927D01*
X153295142Y-463620553D01*
X153302583Y-463632969D01*
X153308772Y-463646054D01*
X153313649Y-463659683D01*
X153317166Y-463673724D01*
X153319290Y-463688042D01*
X153320000Y-463702500D01*
X153320000Y-463997500D01*
X153319290Y-464011958D01*
X153317166Y-464026276D01*
X153313649Y-464040317D01*
X153308772Y-464053946D01*
X153302583Y-464067031D01*
X153295142Y-464079447D01*
X153286519Y-464091073D01*
X153276798Y-464101798D01*
X153266073Y-464111519D01*
X153254447Y-464120142D01*
X153242031Y-464127583D01*
X153228946Y-464133772D01*
X153215317Y-464138649D01*
X153201276Y-464142166D01*
X153186958Y-464144290D01*
X153172500Y-464145000D01*
X152827500Y-464145000D01*
X152813042Y-464144290D01*
X152798724Y-464142166D01*
X152784683Y-464138649D01*
X152771054Y-464133772D01*
X152757969Y-464127583D01*
X152745553Y-464120142D01*
X152733927Y-464111519D01*
X152723202Y-464101798D01*
X152713481Y-464091073D01*
X152704858Y-464079447D01*
X152697417Y-464067031D01*
X152691228Y-464053946D01*
X152686351Y-464040317D01*
X152682834Y-464026276D01*
X152680710Y-464011958D01*
X152680000Y-463997500D01*
X152680000Y-463702500D01*
X152680710Y-463688042D01*
X152682834Y-463673724D01*
X152686351Y-463659683D01*
X152691228Y-463646054D01*
X152697417Y-463632969D01*
X152704858Y-463620553D01*
X152713481Y-463608927D01*
X152723202Y-463598202D01*
X152733927Y-463588481D01*
X152745553Y-463579858D01*
X152757969Y-463572417D01*
X152771054Y-463566228D01*
X152784683Y-463561351D01*
X152798724Y-463557834D01*
X152813042Y-463555710D01*
X152827500Y-463555000D01*
X153172500Y-463555000D01*
X153186958Y-463555710D01*
X153186958Y-463555710D01*
G37*
D17*
X153000000Y-463850000D03*
D15*
G36*
X165581958Y-455880710D02*
G01*
X165596276Y-455882834D01*
X165610317Y-455886351D01*
X165623946Y-455891228D01*
X165637031Y-455897417D01*
X165649447Y-455904858D01*
X165661073Y-455913481D01*
X165671798Y-455923202D01*
X165681519Y-455933927D01*
X165690142Y-455945553D01*
X165697583Y-455957969D01*
X165703772Y-455971054D01*
X165708649Y-455984683D01*
X165712166Y-455998724D01*
X165714290Y-456013042D01*
X165715000Y-456027500D01*
X165715000Y-456372500D01*
X165714290Y-456386958D01*
X165712166Y-456401276D01*
X165708649Y-456415317D01*
X165703772Y-456428946D01*
X165697583Y-456442031D01*
X165690142Y-456454447D01*
X165681519Y-456466073D01*
X165671798Y-456476798D01*
X165661073Y-456486519D01*
X165649447Y-456495142D01*
X165637031Y-456502583D01*
X165623946Y-456508772D01*
X165610317Y-456513649D01*
X165596276Y-456517166D01*
X165581958Y-456519290D01*
X165567500Y-456520000D01*
X165272500Y-456520000D01*
X165258042Y-456519290D01*
X165243724Y-456517166D01*
X165229683Y-456513649D01*
X165216054Y-456508772D01*
X165202969Y-456502583D01*
X165190553Y-456495142D01*
X165178927Y-456486519D01*
X165168202Y-456476798D01*
X165158481Y-456466073D01*
X165149858Y-456454447D01*
X165142417Y-456442031D01*
X165136228Y-456428946D01*
X165131351Y-456415317D01*
X165127834Y-456401276D01*
X165125710Y-456386958D01*
X165125000Y-456372500D01*
X165125000Y-456027500D01*
X165125710Y-456013042D01*
X165127834Y-455998724D01*
X165131351Y-455984683D01*
X165136228Y-455971054D01*
X165142417Y-455957969D01*
X165149858Y-455945553D01*
X165158481Y-455933927D01*
X165168202Y-455923202D01*
X165178927Y-455913481D01*
X165190553Y-455904858D01*
X165202969Y-455897417D01*
X165216054Y-455891228D01*
X165229683Y-455886351D01*
X165243724Y-455882834D01*
X165258042Y-455880710D01*
X165272500Y-455880000D01*
X165567500Y-455880000D01*
X165581958Y-455880710D01*
X165581958Y-455880710D01*
G37*
D17*
X165420000Y-456200000D03*
D15*
G36*
X164611958Y-455880710D02*
G01*
X164626276Y-455882834D01*
X164640317Y-455886351D01*
X164653946Y-455891228D01*
X164667031Y-455897417D01*
X164679447Y-455904858D01*
X164691073Y-455913481D01*
X164701798Y-455923202D01*
X164711519Y-455933927D01*
X164720142Y-455945553D01*
X164727583Y-455957969D01*
X164733772Y-455971054D01*
X164738649Y-455984683D01*
X164742166Y-455998724D01*
X164744290Y-456013042D01*
X164745000Y-456027500D01*
X164745000Y-456372500D01*
X164744290Y-456386958D01*
X164742166Y-456401276D01*
X164738649Y-456415317D01*
X164733772Y-456428946D01*
X164727583Y-456442031D01*
X164720142Y-456454447D01*
X164711519Y-456466073D01*
X164701798Y-456476798D01*
X164691073Y-456486519D01*
X164679447Y-456495142D01*
X164667031Y-456502583D01*
X164653946Y-456508772D01*
X164640317Y-456513649D01*
X164626276Y-456517166D01*
X164611958Y-456519290D01*
X164597500Y-456520000D01*
X164302500Y-456520000D01*
X164288042Y-456519290D01*
X164273724Y-456517166D01*
X164259683Y-456513649D01*
X164246054Y-456508772D01*
X164232969Y-456502583D01*
X164220553Y-456495142D01*
X164208927Y-456486519D01*
X164198202Y-456476798D01*
X164188481Y-456466073D01*
X164179858Y-456454447D01*
X164172417Y-456442031D01*
X164166228Y-456428946D01*
X164161351Y-456415317D01*
X164157834Y-456401276D01*
X164155710Y-456386958D01*
X164155000Y-456372500D01*
X164155000Y-456027500D01*
X164155710Y-456013042D01*
X164157834Y-455998724D01*
X164161351Y-455984683D01*
X164166228Y-455971054D01*
X164172417Y-455957969D01*
X164179858Y-455945553D01*
X164188481Y-455933927D01*
X164198202Y-455923202D01*
X164208927Y-455913481D01*
X164220553Y-455904858D01*
X164232969Y-455897417D01*
X164246054Y-455891228D01*
X164259683Y-455886351D01*
X164273724Y-455882834D01*
X164288042Y-455880710D01*
X164302500Y-455880000D01*
X164597500Y-455880000D01*
X164611958Y-455880710D01*
X164611958Y-455880710D01*
G37*
D17*
X164450000Y-456200000D03*
D15*
G36*
X165581958Y-454830710D02*
G01*
X165596276Y-454832834D01*
X165610317Y-454836351D01*
X165623946Y-454841228D01*
X165637031Y-454847417D01*
X165649447Y-454854858D01*
X165661073Y-454863481D01*
X165671798Y-454873202D01*
X165681519Y-454883927D01*
X165690142Y-454895553D01*
X165697583Y-454907969D01*
X165703772Y-454921054D01*
X165708649Y-454934683D01*
X165712166Y-454948724D01*
X165714290Y-454963042D01*
X165715000Y-454977500D01*
X165715000Y-455322500D01*
X165714290Y-455336958D01*
X165712166Y-455351276D01*
X165708649Y-455365317D01*
X165703772Y-455378946D01*
X165697583Y-455392031D01*
X165690142Y-455404447D01*
X165681519Y-455416073D01*
X165671798Y-455426798D01*
X165661073Y-455436519D01*
X165649447Y-455445142D01*
X165637031Y-455452583D01*
X165623946Y-455458772D01*
X165610317Y-455463649D01*
X165596276Y-455467166D01*
X165581958Y-455469290D01*
X165567500Y-455470000D01*
X165272500Y-455470000D01*
X165258042Y-455469290D01*
X165243724Y-455467166D01*
X165229683Y-455463649D01*
X165216054Y-455458772D01*
X165202969Y-455452583D01*
X165190553Y-455445142D01*
X165178927Y-455436519D01*
X165168202Y-455426798D01*
X165158481Y-455416073D01*
X165149858Y-455404447D01*
X165142417Y-455392031D01*
X165136228Y-455378946D01*
X165131351Y-455365317D01*
X165127834Y-455351276D01*
X165125710Y-455336958D01*
X165125000Y-455322500D01*
X165125000Y-454977500D01*
X165125710Y-454963042D01*
X165127834Y-454948724D01*
X165131351Y-454934683D01*
X165136228Y-454921054D01*
X165142417Y-454907969D01*
X165149858Y-454895553D01*
X165158481Y-454883927D01*
X165168202Y-454873202D01*
X165178927Y-454863481D01*
X165190553Y-454854858D01*
X165202969Y-454847417D01*
X165216054Y-454841228D01*
X165229683Y-454836351D01*
X165243724Y-454832834D01*
X165258042Y-454830710D01*
X165272500Y-454830000D01*
X165567500Y-454830000D01*
X165581958Y-454830710D01*
X165581958Y-454830710D01*
G37*
D17*
X165420000Y-455150000D03*
D15*
G36*
X164611958Y-454830710D02*
G01*
X164626276Y-454832834D01*
X164640317Y-454836351D01*
X164653946Y-454841228D01*
X164667031Y-454847417D01*
X164679447Y-454854858D01*
X164691073Y-454863481D01*
X164701798Y-454873202D01*
X164711519Y-454883927D01*
X164720142Y-454895553D01*
X164727583Y-454907969D01*
X164733772Y-454921054D01*
X164738649Y-454934683D01*
X164742166Y-454948724D01*
X164744290Y-454963042D01*
X164745000Y-454977500D01*
X164745000Y-455322500D01*
X164744290Y-455336958D01*
X164742166Y-455351276D01*
X164738649Y-455365317D01*
X164733772Y-455378946D01*
X164727583Y-455392031D01*
X164720142Y-455404447D01*
X164711519Y-455416073D01*
X164701798Y-455426798D01*
X164691073Y-455436519D01*
X164679447Y-455445142D01*
X164667031Y-455452583D01*
X164653946Y-455458772D01*
X164640317Y-455463649D01*
X164626276Y-455467166D01*
X164611958Y-455469290D01*
X164597500Y-455470000D01*
X164302500Y-455470000D01*
X164288042Y-455469290D01*
X164273724Y-455467166D01*
X164259683Y-455463649D01*
X164246054Y-455458772D01*
X164232969Y-455452583D01*
X164220553Y-455445142D01*
X164208927Y-455436519D01*
X164198202Y-455426798D01*
X164188481Y-455416073D01*
X164179858Y-455404447D01*
X164172417Y-455392031D01*
X164166228Y-455378946D01*
X164161351Y-455365317D01*
X164157834Y-455351276D01*
X164155710Y-455336958D01*
X164155000Y-455322500D01*
X164155000Y-454977500D01*
X164155710Y-454963042D01*
X164157834Y-454948724D01*
X164161351Y-454934683D01*
X164166228Y-454921054D01*
X164172417Y-454907969D01*
X164179858Y-454895553D01*
X164188481Y-454883927D01*
X164198202Y-454873202D01*
X164208927Y-454863481D01*
X164220553Y-454854858D01*
X164232969Y-454847417D01*
X164246054Y-454841228D01*
X164259683Y-454836351D01*
X164273724Y-454832834D01*
X164288042Y-454830710D01*
X164302500Y-454830000D01*
X164597500Y-454830000D01*
X164611958Y-454830710D01*
X164611958Y-454830710D01*
G37*
D17*
X164450000Y-455150000D03*
D15*
G36*
X149261958Y-458130710D02*
G01*
X149276276Y-458132834D01*
X149290317Y-458136351D01*
X149303946Y-458141228D01*
X149317031Y-458147417D01*
X149329447Y-458154858D01*
X149341073Y-458163481D01*
X149351798Y-458173202D01*
X149361519Y-458183927D01*
X149370142Y-458195553D01*
X149377583Y-458207969D01*
X149383772Y-458221054D01*
X149388649Y-458234683D01*
X149392166Y-458248724D01*
X149394290Y-458263042D01*
X149395000Y-458277500D01*
X149395000Y-458622500D01*
X149394290Y-458636958D01*
X149392166Y-458651276D01*
X149388649Y-458665317D01*
X149383772Y-458678946D01*
X149377583Y-458692031D01*
X149370142Y-458704447D01*
X149361519Y-458716073D01*
X149351798Y-458726798D01*
X149341073Y-458736519D01*
X149329447Y-458745142D01*
X149317031Y-458752583D01*
X149303946Y-458758772D01*
X149290317Y-458763649D01*
X149276276Y-458767166D01*
X149261958Y-458769290D01*
X149247500Y-458770000D01*
X148952500Y-458770000D01*
X148938042Y-458769290D01*
X148923724Y-458767166D01*
X148909683Y-458763649D01*
X148896054Y-458758772D01*
X148882969Y-458752583D01*
X148870553Y-458745142D01*
X148858927Y-458736519D01*
X148848202Y-458726798D01*
X148838481Y-458716073D01*
X148829858Y-458704447D01*
X148822417Y-458692031D01*
X148816228Y-458678946D01*
X148811351Y-458665317D01*
X148807834Y-458651276D01*
X148805710Y-458636958D01*
X148805000Y-458622500D01*
X148805000Y-458277500D01*
X148805710Y-458263042D01*
X148807834Y-458248724D01*
X148811351Y-458234683D01*
X148816228Y-458221054D01*
X148822417Y-458207969D01*
X148829858Y-458195553D01*
X148838481Y-458183927D01*
X148848202Y-458173202D01*
X148858927Y-458163481D01*
X148870553Y-458154858D01*
X148882969Y-458147417D01*
X148896054Y-458141228D01*
X148909683Y-458136351D01*
X148923724Y-458132834D01*
X148938042Y-458130710D01*
X148952500Y-458130000D01*
X149247500Y-458130000D01*
X149261958Y-458130710D01*
X149261958Y-458130710D01*
G37*
D17*
X149100000Y-458450000D03*
D15*
G36*
X150231958Y-458130710D02*
G01*
X150246276Y-458132834D01*
X150260317Y-458136351D01*
X150273946Y-458141228D01*
X150287031Y-458147417D01*
X150299447Y-458154858D01*
X150311073Y-458163481D01*
X150321798Y-458173202D01*
X150331519Y-458183927D01*
X150340142Y-458195553D01*
X150347583Y-458207969D01*
X150353772Y-458221054D01*
X150358649Y-458234683D01*
X150362166Y-458248724D01*
X150364290Y-458263042D01*
X150365000Y-458277500D01*
X150365000Y-458622500D01*
X150364290Y-458636958D01*
X150362166Y-458651276D01*
X150358649Y-458665317D01*
X150353772Y-458678946D01*
X150347583Y-458692031D01*
X150340142Y-458704447D01*
X150331519Y-458716073D01*
X150321798Y-458726798D01*
X150311073Y-458736519D01*
X150299447Y-458745142D01*
X150287031Y-458752583D01*
X150273946Y-458758772D01*
X150260317Y-458763649D01*
X150246276Y-458767166D01*
X150231958Y-458769290D01*
X150217500Y-458770000D01*
X149922500Y-458770000D01*
X149908042Y-458769290D01*
X149893724Y-458767166D01*
X149879683Y-458763649D01*
X149866054Y-458758772D01*
X149852969Y-458752583D01*
X149840553Y-458745142D01*
X149828927Y-458736519D01*
X149818202Y-458726798D01*
X149808481Y-458716073D01*
X149799858Y-458704447D01*
X149792417Y-458692031D01*
X149786228Y-458678946D01*
X149781351Y-458665317D01*
X149777834Y-458651276D01*
X149775710Y-458636958D01*
X149775000Y-458622500D01*
X149775000Y-458277500D01*
X149775710Y-458263042D01*
X149777834Y-458248724D01*
X149781351Y-458234683D01*
X149786228Y-458221054D01*
X149792417Y-458207969D01*
X149799858Y-458195553D01*
X149808481Y-458183927D01*
X149818202Y-458173202D01*
X149828927Y-458163481D01*
X149840553Y-458154858D01*
X149852969Y-458147417D01*
X149866054Y-458141228D01*
X149879683Y-458136351D01*
X149893724Y-458132834D01*
X149908042Y-458130710D01*
X149922500Y-458130000D01*
X150217500Y-458130000D01*
X150231958Y-458130710D01*
X150231958Y-458130710D01*
G37*
D17*
X150070000Y-458450000D03*
D15*
G36*
X148181958Y-455680710D02*
G01*
X148196276Y-455682834D01*
X148210317Y-455686351D01*
X148223946Y-455691228D01*
X148237031Y-455697417D01*
X148249447Y-455704858D01*
X148261073Y-455713481D01*
X148271798Y-455723202D01*
X148281519Y-455733927D01*
X148290142Y-455745553D01*
X148297583Y-455757969D01*
X148303772Y-455771054D01*
X148308649Y-455784683D01*
X148312166Y-455798724D01*
X148314290Y-455813042D01*
X148315000Y-455827500D01*
X148315000Y-456172500D01*
X148314290Y-456186958D01*
X148312166Y-456201276D01*
X148308649Y-456215317D01*
X148303772Y-456228946D01*
X148297583Y-456242031D01*
X148290142Y-456254447D01*
X148281519Y-456266073D01*
X148271798Y-456276798D01*
X148261073Y-456286519D01*
X148249447Y-456295142D01*
X148237031Y-456302583D01*
X148223946Y-456308772D01*
X148210317Y-456313649D01*
X148196276Y-456317166D01*
X148181958Y-456319290D01*
X148167500Y-456320000D01*
X147872500Y-456320000D01*
X147858042Y-456319290D01*
X147843724Y-456317166D01*
X147829683Y-456313649D01*
X147816054Y-456308772D01*
X147802969Y-456302583D01*
X147790553Y-456295142D01*
X147778927Y-456286519D01*
X147768202Y-456276798D01*
X147758481Y-456266073D01*
X147749858Y-456254447D01*
X147742417Y-456242031D01*
X147736228Y-456228946D01*
X147731351Y-456215317D01*
X147727834Y-456201276D01*
X147725710Y-456186958D01*
X147725000Y-456172500D01*
X147725000Y-455827500D01*
X147725710Y-455813042D01*
X147727834Y-455798724D01*
X147731351Y-455784683D01*
X147736228Y-455771054D01*
X147742417Y-455757969D01*
X147749858Y-455745553D01*
X147758481Y-455733927D01*
X147768202Y-455723202D01*
X147778927Y-455713481D01*
X147790553Y-455704858D01*
X147802969Y-455697417D01*
X147816054Y-455691228D01*
X147829683Y-455686351D01*
X147843724Y-455682834D01*
X147858042Y-455680710D01*
X147872500Y-455680000D01*
X148167500Y-455680000D01*
X148181958Y-455680710D01*
X148181958Y-455680710D01*
G37*
D17*
X148020000Y-456000000D03*
D15*
G36*
X147211958Y-455680710D02*
G01*
X147226276Y-455682834D01*
X147240317Y-455686351D01*
X147253946Y-455691228D01*
X147267031Y-455697417D01*
X147279447Y-455704858D01*
X147291073Y-455713481D01*
X147301798Y-455723202D01*
X147311519Y-455733927D01*
X147320142Y-455745553D01*
X147327583Y-455757969D01*
X147333772Y-455771054D01*
X147338649Y-455784683D01*
X147342166Y-455798724D01*
X147344290Y-455813042D01*
X147345000Y-455827500D01*
X147345000Y-456172500D01*
X147344290Y-456186958D01*
X147342166Y-456201276D01*
X147338649Y-456215317D01*
X147333772Y-456228946D01*
X147327583Y-456242031D01*
X147320142Y-456254447D01*
X147311519Y-456266073D01*
X147301798Y-456276798D01*
X147291073Y-456286519D01*
X147279447Y-456295142D01*
X147267031Y-456302583D01*
X147253946Y-456308772D01*
X147240317Y-456313649D01*
X147226276Y-456317166D01*
X147211958Y-456319290D01*
X147197500Y-456320000D01*
X146902500Y-456320000D01*
X146888042Y-456319290D01*
X146873724Y-456317166D01*
X146859683Y-456313649D01*
X146846054Y-456308772D01*
X146832969Y-456302583D01*
X146820553Y-456295142D01*
X146808927Y-456286519D01*
X146798202Y-456276798D01*
X146788481Y-456266073D01*
X146779858Y-456254447D01*
X146772417Y-456242031D01*
X146766228Y-456228946D01*
X146761351Y-456215317D01*
X146757834Y-456201276D01*
X146755710Y-456186958D01*
X146755000Y-456172500D01*
X146755000Y-455827500D01*
X146755710Y-455813042D01*
X146757834Y-455798724D01*
X146761351Y-455784683D01*
X146766228Y-455771054D01*
X146772417Y-455757969D01*
X146779858Y-455745553D01*
X146788481Y-455733927D01*
X146798202Y-455723202D01*
X146808927Y-455713481D01*
X146820553Y-455704858D01*
X146832969Y-455697417D01*
X146846054Y-455691228D01*
X146859683Y-455686351D01*
X146873724Y-455682834D01*
X146888042Y-455680710D01*
X146902500Y-455680000D01*
X147197500Y-455680000D01*
X147211958Y-455680710D01*
X147211958Y-455680710D01*
G37*
D17*
X147050000Y-456000000D03*
D15*
G36*
X142756958Y-425300710D02*
G01*
X142771276Y-425302834D01*
X142785317Y-425306351D01*
X142798946Y-425311228D01*
X142812031Y-425317417D01*
X142824447Y-425324858D01*
X142836073Y-425333481D01*
X142846798Y-425343202D01*
X142856519Y-425353927D01*
X142865142Y-425365553D01*
X142872583Y-425377969D01*
X142878772Y-425391054D01*
X142883649Y-425404683D01*
X142887166Y-425418724D01*
X142889290Y-425433042D01*
X142890000Y-425447500D01*
X142890000Y-425742500D01*
X142889290Y-425756958D01*
X142887166Y-425771276D01*
X142883649Y-425785317D01*
X142878772Y-425798946D01*
X142872583Y-425812031D01*
X142865142Y-425824447D01*
X142856519Y-425836073D01*
X142846798Y-425846798D01*
X142836073Y-425856519D01*
X142824447Y-425865142D01*
X142812031Y-425872583D01*
X142798946Y-425878772D01*
X142785317Y-425883649D01*
X142771276Y-425887166D01*
X142756958Y-425889290D01*
X142742500Y-425890000D01*
X142397500Y-425890000D01*
X142383042Y-425889290D01*
X142368724Y-425887166D01*
X142354683Y-425883649D01*
X142341054Y-425878772D01*
X142327969Y-425872583D01*
X142315553Y-425865142D01*
X142303927Y-425856519D01*
X142293202Y-425846798D01*
X142283481Y-425836073D01*
X142274858Y-425824447D01*
X142267417Y-425812031D01*
X142261228Y-425798946D01*
X142256351Y-425785317D01*
X142252834Y-425771276D01*
X142250710Y-425756958D01*
X142250000Y-425742500D01*
X142250000Y-425447500D01*
X142250710Y-425433042D01*
X142252834Y-425418724D01*
X142256351Y-425404683D01*
X142261228Y-425391054D01*
X142267417Y-425377969D01*
X142274858Y-425365553D01*
X142283481Y-425353927D01*
X142293202Y-425343202D01*
X142303927Y-425333481D01*
X142315553Y-425324858D01*
X142327969Y-425317417D01*
X142341054Y-425311228D01*
X142354683Y-425306351D01*
X142368724Y-425302834D01*
X142383042Y-425300710D01*
X142397500Y-425300000D01*
X142742500Y-425300000D01*
X142756958Y-425300710D01*
X142756958Y-425300710D01*
G37*
D17*
X142570000Y-425595000D03*
D15*
G36*
X142756958Y-424330710D02*
G01*
X142771276Y-424332834D01*
X142785317Y-424336351D01*
X142798946Y-424341228D01*
X142812031Y-424347417D01*
X142824447Y-424354858D01*
X142836073Y-424363481D01*
X142846798Y-424373202D01*
X142856519Y-424383927D01*
X142865142Y-424395553D01*
X142872583Y-424407969D01*
X142878772Y-424421054D01*
X142883649Y-424434683D01*
X142887166Y-424448724D01*
X142889290Y-424463042D01*
X142890000Y-424477500D01*
X142890000Y-424772500D01*
X142889290Y-424786958D01*
X142887166Y-424801276D01*
X142883649Y-424815317D01*
X142878772Y-424828946D01*
X142872583Y-424842031D01*
X142865142Y-424854447D01*
X142856519Y-424866073D01*
X142846798Y-424876798D01*
X142836073Y-424886519D01*
X142824447Y-424895142D01*
X142812031Y-424902583D01*
X142798946Y-424908772D01*
X142785317Y-424913649D01*
X142771276Y-424917166D01*
X142756958Y-424919290D01*
X142742500Y-424920000D01*
X142397500Y-424920000D01*
X142383042Y-424919290D01*
X142368724Y-424917166D01*
X142354683Y-424913649D01*
X142341054Y-424908772D01*
X142327969Y-424902583D01*
X142315553Y-424895142D01*
X142303927Y-424886519D01*
X142293202Y-424876798D01*
X142283481Y-424866073D01*
X142274858Y-424854447D01*
X142267417Y-424842031D01*
X142261228Y-424828946D01*
X142256351Y-424815317D01*
X142252834Y-424801276D01*
X142250710Y-424786958D01*
X142250000Y-424772500D01*
X142250000Y-424477500D01*
X142250710Y-424463042D01*
X142252834Y-424448724D01*
X142256351Y-424434683D01*
X142261228Y-424421054D01*
X142267417Y-424407969D01*
X142274858Y-424395553D01*
X142283481Y-424383927D01*
X142293202Y-424373202D01*
X142303927Y-424363481D01*
X142315553Y-424354858D01*
X142327969Y-424347417D01*
X142341054Y-424341228D01*
X142354683Y-424336351D01*
X142368724Y-424332834D01*
X142383042Y-424330710D01*
X142397500Y-424330000D01*
X142742500Y-424330000D01*
X142756958Y-424330710D01*
X142756958Y-424330710D01*
G37*
D17*
X142570000Y-424625000D03*
D15*
G36*
X107071958Y-466670710D02*
G01*
X107086276Y-466672834D01*
X107100317Y-466676351D01*
X107113946Y-466681228D01*
X107127031Y-466687417D01*
X107139447Y-466694858D01*
X107151073Y-466703481D01*
X107161798Y-466713202D01*
X107171519Y-466723927D01*
X107180142Y-466735553D01*
X107187583Y-466747969D01*
X107193772Y-466761054D01*
X107198649Y-466774683D01*
X107202166Y-466788724D01*
X107204290Y-466803042D01*
X107205000Y-466817500D01*
X107205000Y-467162500D01*
X107204290Y-467176958D01*
X107202166Y-467191276D01*
X107198649Y-467205317D01*
X107193772Y-467218946D01*
X107187583Y-467232031D01*
X107180142Y-467244447D01*
X107171519Y-467256073D01*
X107161798Y-467266798D01*
X107151073Y-467276519D01*
X107139447Y-467285142D01*
X107127031Y-467292583D01*
X107113946Y-467298772D01*
X107100317Y-467303649D01*
X107086276Y-467307166D01*
X107071958Y-467309290D01*
X107057500Y-467310000D01*
X106762500Y-467310000D01*
X106748042Y-467309290D01*
X106733724Y-467307166D01*
X106719683Y-467303649D01*
X106706054Y-467298772D01*
X106692969Y-467292583D01*
X106680553Y-467285142D01*
X106668927Y-467276519D01*
X106658202Y-467266798D01*
X106648481Y-467256073D01*
X106639858Y-467244447D01*
X106632417Y-467232031D01*
X106626228Y-467218946D01*
X106621351Y-467205317D01*
X106617834Y-467191276D01*
X106615710Y-467176958D01*
X106615000Y-467162500D01*
X106615000Y-466817500D01*
X106615710Y-466803042D01*
X106617834Y-466788724D01*
X106621351Y-466774683D01*
X106626228Y-466761054D01*
X106632417Y-466747969D01*
X106639858Y-466735553D01*
X106648481Y-466723927D01*
X106658202Y-466713202D01*
X106668927Y-466703481D01*
X106680553Y-466694858D01*
X106692969Y-466687417D01*
X106706054Y-466681228D01*
X106719683Y-466676351D01*
X106733724Y-466672834D01*
X106748042Y-466670710D01*
X106762500Y-466670000D01*
X107057500Y-466670000D01*
X107071958Y-466670710D01*
X107071958Y-466670710D01*
G37*
D17*
X106910000Y-466990000D03*
D15*
G36*
X106101958Y-466670710D02*
G01*
X106116276Y-466672834D01*
X106130317Y-466676351D01*
X106143946Y-466681228D01*
X106157031Y-466687417D01*
X106169447Y-466694858D01*
X106181073Y-466703481D01*
X106191798Y-466713202D01*
X106201519Y-466723927D01*
X106210142Y-466735553D01*
X106217583Y-466747969D01*
X106223772Y-466761054D01*
X106228649Y-466774683D01*
X106232166Y-466788724D01*
X106234290Y-466803042D01*
X106235000Y-466817500D01*
X106235000Y-467162500D01*
X106234290Y-467176958D01*
X106232166Y-467191276D01*
X106228649Y-467205317D01*
X106223772Y-467218946D01*
X106217583Y-467232031D01*
X106210142Y-467244447D01*
X106201519Y-467256073D01*
X106191798Y-467266798D01*
X106181073Y-467276519D01*
X106169447Y-467285142D01*
X106157031Y-467292583D01*
X106143946Y-467298772D01*
X106130317Y-467303649D01*
X106116276Y-467307166D01*
X106101958Y-467309290D01*
X106087500Y-467310000D01*
X105792500Y-467310000D01*
X105778042Y-467309290D01*
X105763724Y-467307166D01*
X105749683Y-467303649D01*
X105736054Y-467298772D01*
X105722969Y-467292583D01*
X105710553Y-467285142D01*
X105698927Y-467276519D01*
X105688202Y-467266798D01*
X105678481Y-467256073D01*
X105669858Y-467244447D01*
X105662417Y-467232031D01*
X105656228Y-467218946D01*
X105651351Y-467205317D01*
X105647834Y-467191276D01*
X105645710Y-467176958D01*
X105645000Y-467162500D01*
X105645000Y-466817500D01*
X105645710Y-466803042D01*
X105647834Y-466788724D01*
X105651351Y-466774683D01*
X105656228Y-466761054D01*
X105662417Y-466747969D01*
X105669858Y-466735553D01*
X105678481Y-466723927D01*
X105688202Y-466713202D01*
X105698927Y-466703481D01*
X105710553Y-466694858D01*
X105722969Y-466687417D01*
X105736054Y-466681228D01*
X105749683Y-466676351D01*
X105763724Y-466672834D01*
X105778042Y-466670710D01*
X105792500Y-466670000D01*
X106087500Y-466670000D01*
X106101958Y-466670710D01*
X106101958Y-466670710D01*
G37*
D17*
X105940000Y-466990000D03*
D15*
G36*
X119846958Y-460830710D02*
G01*
X119861276Y-460832834D01*
X119875317Y-460836351D01*
X119888946Y-460841228D01*
X119902031Y-460847417D01*
X119914447Y-460854858D01*
X119926073Y-460863481D01*
X119936798Y-460873202D01*
X119946519Y-460883927D01*
X119955142Y-460895553D01*
X119962583Y-460907969D01*
X119968772Y-460921054D01*
X119973649Y-460934683D01*
X119977166Y-460948724D01*
X119979290Y-460963042D01*
X119980000Y-460977500D01*
X119980000Y-461322500D01*
X119979290Y-461336958D01*
X119977166Y-461351276D01*
X119973649Y-461365317D01*
X119968772Y-461378946D01*
X119962583Y-461392031D01*
X119955142Y-461404447D01*
X119946519Y-461416073D01*
X119936798Y-461426798D01*
X119926073Y-461436519D01*
X119914447Y-461445142D01*
X119902031Y-461452583D01*
X119888946Y-461458772D01*
X119875317Y-461463649D01*
X119861276Y-461467166D01*
X119846958Y-461469290D01*
X119832500Y-461470000D01*
X119537500Y-461470000D01*
X119523042Y-461469290D01*
X119508724Y-461467166D01*
X119494683Y-461463649D01*
X119481054Y-461458772D01*
X119467969Y-461452583D01*
X119455553Y-461445142D01*
X119443927Y-461436519D01*
X119433202Y-461426798D01*
X119423481Y-461416073D01*
X119414858Y-461404447D01*
X119407417Y-461392031D01*
X119401228Y-461378946D01*
X119396351Y-461365317D01*
X119392834Y-461351276D01*
X119390710Y-461336958D01*
X119390000Y-461322500D01*
X119390000Y-460977500D01*
X119390710Y-460963042D01*
X119392834Y-460948724D01*
X119396351Y-460934683D01*
X119401228Y-460921054D01*
X119407417Y-460907969D01*
X119414858Y-460895553D01*
X119423481Y-460883927D01*
X119433202Y-460873202D01*
X119443927Y-460863481D01*
X119455553Y-460854858D01*
X119467969Y-460847417D01*
X119481054Y-460841228D01*
X119494683Y-460836351D01*
X119508724Y-460832834D01*
X119523042Y-460830710D01*
X119537500Y-460830000D01*
X119832500Y-460830000D01*
X119846958Y-460830710D01*
X119846958Y-460830710D01*
G37*
D17*
X119685000Y-461150000D03*
D15*
G36*
X118876958Y-460830710D02*
G01*
X118891276Y-460832834D01*
X118905317Y-460836351D01*
X118918946Y-460841228D01*
X118932031Y-460847417D01*
X118944447Y-460854858D01*
X118956073Y-460863481D01*
X118966798Y-460873202D01*
X118976519Y-460883927D01*
X118985142Y-460895553D01*
X118992583Y-460907969D01*
X118998772Y-460921054D01*
X119003649Y-460934683D01*
X119007166Y-460948724D01*
X119009290Y-460963042D01*
X119010000Y-460977500D01*
X119010000Y-461322500D01*
X119009290Y-461336958D01*
X119007166Y-461351276D01*
X119003649Y-461365317D01*
X118998772Y-461378946D01*
X118992583Y-461392031D01*
X118985142Y-461404447D01*
X118976519Y-461416073D01*
X118966798Y-461426798D01*
X118956073Y-461436519D01*
X118944447Y-461445142D01*
X118932031Y-461452583D01*
X118918946Y-461458772D01*
X118905317Y-461463649D01*
X118891276Y-461467166D01*
X118876958Y-461469290D01*
X118862500Y-461470000D01*
X118567500Y-461470000D01*
X118553042Y-461469290D01*
X118538724Y-461467166D01*
X118524683Y-461463649D01*
X118511054Y-461458772D01*
X118497969Y-461452583D01*
X118485553Y-461445142D01*
X118473927Y-461436519D01*
X118463202Y-461426798D01*
X118453481Y-461416073D01*
X118444858Y-461404447D01*
X118437417Y-461392031D01*
X118431228Y-461378946D01*
X118426351Y-461365317D01*
X118422834Y-461351276D01*
X118420710Y-461336958D01*
X118420000Y-461322500D01*
X118420000Y-460977500D01*
X118420710Y-460963042D01*
X118422834Y-460948724D01*
X118426351Y-460934683D01*
X118431228Y-460921054D01*
X118437417Y-460907969D01*
X118444858Y-460895553D01*
X118453481Y-460883927D01*
X118463202Y-460873202D01*
X118473927Y-460863481D01*
X118485553Y-460854858D01*
X118497969Y-460847417D01*
X118511054Y-460841228D01*
X118524683Y-460836351D01*
X118538724Y-460832834D01*
X118553042Y-460830710D01*
X118567500Y-460830000D01*
X118862500Y-460830000D01*
X118876958Y-460830710D01*
X118876958Y-460830710D01*
G37*
D17*
X118715000Y-461150000D03*
D15*
G36*
X97486958Y-454385710D02*
G01*
X97501276Y-454387834D01*
X97515317Y-454391351D01*
X97528946Y-454396228D01*
X97542031Y-454402417D01*
X97554447Y-454409858D01*
X97566073Y-454418481D01*
X97576798Y-454428202D01*
X97586519Y-454438927D01*
X97595142Y-454450553D01*
X97602583Y-454462969D01*
X97608772Y-454476054D01*
X97613649Y-454489683D01*
X97617166Y-454503724D01*
X97619290Y-454518042D01*
X97620000Y-454532500D01*
X97620000Y-454827500D01*
X97619290Y-454841958D01*
X97617166Y-454856276D01*
X97613649Y-454870317D01*
X97608772Y-454883946D01*
X97602583Y-454897031D01*
X97595142Y-454909447D01*
X97586519Y-454921073D01*
X97576798Y-454931798D01*
X97566073Y-454941519D01*
X97554447Y-454950142D01*
X97542031Y-454957583D01*
X97528946Y-454963772D01*
X97515317Y-454968649D01*
X97501276Y-454972166D01*
X97486958Y-454974290D01*
X97472500Y-454975000D01*
X97127500Y-454975000D01*
X97113042Y-454974290D01*
X97098724Y-454972166D01*
X97084683Y-454968649D01*
X97071054Y-454963772D01*
X97057969Y-454957583D01*
X97045553Y-454950142D01*
X97033927Y-454941519D01*
X97023202Y-454931798D01*
X97013481Y-454921073D01*
X97004858Y-454909447D01*
X96997417Y-454897031D01*
X96991228Y-454883946D01*
X96986351Y-454870317D01*
X96982834Y-454856276D01*
X96980710Y-454841958D01*
X96980000Y-454827500D01*
X96980000Y-454532500D01*
X96980710Y-454518042D01*
X96982834Y-454503724D01*
X96986351Y-454489683D01*
X96991228Y-454476054D01*
X96997417Y-454462969D01*
X97004858Y-454450553D01*
X97013481Y-454438927D01*
X97023202Y-454428202D01*
X97033927Y-454418481D01*
X97045553Y-454409858D01*
X97057969Y-454402417D01*
X97071054Y-454396228D01*
X97084683Y-454391351D01*
X97098724Y-454387834D01*
X97113042Y-454385710D01*
X97127500Y-454385000D01*
X97472500Y-454385000D01*
X97486958Y-454385710D01*
X97486958Y-454385710D01*
G37*
D17*
X97300000Y-454680000D03*
D15*
G36*
X97486958Y-455355710D02*
G01*
X97501276Y-455357834D01*
X97515317Y-455361351D01*
X97528946Y-455366228D01*
X97542031Y-455372417D01*
X97554447Y-455379858D01*
X97566073Y-455388481D01*
X97576798Y-455398202D01*
X97586519Y-455408927D01*
X97595142Y-455420553D01*
X97602583Y-455432969D01*
X97608772Y-455446054D01*
X97613649Y-455459683D01*
X97617166Y-455473724D01*
X97619290Y-455488042D01*
X97620000Y-455502500D01*
X97620000Y-455797500D01*
X97619290Y-455811958D01*
X97617166Y-455826276D01*
X97613649Y-455840317D01*
X97608772Y-455853946D01*
X97602583Y-455867031D01*
X97595142Y-455879447D01*
X97586519Y-455891073D01*
X97576798Y-455901798D01*
X97566073Y-455911519D01*
X97554447Y-455920142D01*
X97542031Y-455927583D01*
X97528946Y-455933772D01*
X97515317Y-455938649D01*
X97501276Y-455942166D01*
X97486958Y-455944290D01*
X97472500Y-455945000D01*
X97127500Y-455945000D01*
X97113042Y-455944290D01*
X97098724Y-455942166D01*
X97084683Y-455938649D01*
X97071054Y-455933772D01*
X97057969Y-455927583D01*
X97045553Y-455920142D01*
X97033927Y-455911519D01*
X97023202Y-455901798D01*
X97013481Y-455891073D01*
X97004858Y-455879447D01*
X96997417Y-455867031D01*
X96991228Y-455853946D01*
X96986351Y-455840317D01*
X96982834Y-455826276D01*
X96980710Y-455811958D01*
X96980000Y-455797500D01*
X96980000Y-455502500D01*
X96980710Y-455488042D01*
X96982834Y-455473724D01*
X96986351Y-455459683D01*
X96991228Y-455446054D01*
X96997417Y-455432969D01*
X97004858Y-455420553D01*
X97013481Y-455408927D01*
X97023202Y-455398202D01*
X97033927Y-455388481D01*
X97045553Y-455379858D01*
X97057969Y-455372417D01*
X97071054Y-455366228D01*
X97084683Y-455361351D01*
X97098724Y-455357834D01*
X97113042Y-455355710D01*
X97127500Y-455355000D01*
X97472500Y-455355000D01*
X97486958Y-455355710D01*
X97486958Y-455355710D01*
G37*
D17*
X97300000Y-455650000D03*
D15*
G36*
X109586958Y-468225710D02*
G01*
X109601276Y-468227834D01*
X109615317Y-468231351D01*
X109628946Y-468236228D01*
X109642031Y-468242417D01*
X109654447Y-468249858D01*
X109666073Y-468258481D01*
X109676798Y-468268202D01*
X109686519Y-468278927D01*
X109695142Y-468290553D01*
X109702583Y-468302969D01*
X109708772Y-468316054D01*
X109713649Y-468329683D01*
X109717166Y-468343724D01*
X109719290Y-468358042D01*
X109720000Y-468372500D01*
X109720000Y-468667500D01*
X109719290Y-468681958D01*
X109717166Y-468696276D01*
X109713649Y-468710317D01*
X109708772Y-468723946D01*
X109702583Y-468737031D01*
X109695142Y-468749447D01*
X109686519Y-468761073D01*
X109676798Y-468771798D01*
X109666073Y-468781519D01*
X109654447Y-468790142D01*
X109642031Y-468797583D01*
X109628946Y-468803772D01*
X109615317Y-468808649D01*
X109601276Y-468812166D01*
X109586958Y-468814290D01*
X109572500Y-468815000D01*
X109227500Y-468815000D01*
X109213042Y-468814290D01*
X109198724Y-468812166D01*
X109184683Y-468808649D01*
X109171054Y-468803772D01*
X109157969Y-468797583D01*
X109145553Y-468790142D01*
X109133927Y-468781519D01*
X109123202Y-468771798D01*
X109113481Y-468761073D01*
X109104858Y-468749447D01*
X109097417Y-468737031D01*
X109091228Y-468723946D01*
X109086351Y-468710317D01*
X109082834Y-468696276D01*
X109080710Y-468681958D01*
X109080000Y-468667500D01*
X109080000Y-468372500D01*
X109080710Y-468358042D01*
X109082834Y-468343724D01*
X109086351Y-468329683D01*
X109091228Y-468316054D01*
X109097417Y-468302969D01*
X109104858Y-468290553D01*
X109113481Y-468278927D01*
X109123202Y-468268202D01*
X109133927Y-468258481D01*
X109145553Y-468249858D01*
X109157969Y-468242417D01*
X109171054Y-468236228D01*
X109184683Y-468231351D01*
X109198724Y-468227834D01*
X109213042Y-468225710D01*
X109227500Y-468225000D01*
X109572500Y-468225000D01*
X109586958Y-468225710D01*
X109586958Y-468225710D01*
G37*
D17*
X109400000Y-468520000D03*
D15*
G36*
X109586958Y-467255710D02*
G01*
X109601276Y-467257834D01*
X109615317Y-467261351D01*
X109628946Y-467266228D01*
X109642031Y-467272417D01*
X109654447Y-467279858D01*
X109666073Y-467288481D01*
X109676798Y-467298202D01*
X109686519Y-467308927D01*
X109695142Y-467320553D01*
X109702583Y-467332969D01*
X109708772Y-467346054D01*
X109713649Y-467359683D01*
X109717166Y-467373724D01*
X109719290Y-467388042D01*
X109720000Y-467402500D01*
X109720000Y-467697500D01*
X109719290Y-467711958D01*
X109717166Y-467726276D01*
X109713649Y-467740317D01*
X109708772Y-467753946D01*
X109702583Y-467767031D01*
X109695142Y-467779447D01*
X109686519Y-467791073D01*
X109676798Y-467801798D01*
X109666073Y-467811519D01*
X109654447Y-467820142D01*
X109642031Y-467827583D01*
X109628946Y-467833772D01*
X109615317Y-467838649D01*
X109601276Y-467842166D01*
X109586958Y-467844290D01*
X109572500Y-467845000D01*
X109227500Y-467845000D01*
X109213042Y-467844290D01*
X109198724Y-467842166D01*
X109184683Y-467838649D01*
X109171054Y-467833772D01*
X109157969Y-467827583D01*
X109145553Y-467820142D01*
X109133927Y-467811519D01*
X109123202Y-467801798D01*
X109113481Y-467791073D01*
X109104858Y-467779447D01*
X109097417Y-467767031D01*
X109091228Y-467753946D01*
X109086351Y-467740317D01*
X109082834Y-467726276D01*
X109080710Y-467711958D01*
X109080000Y-467697500D01*
X109080000Y-467402500D01*
X109080710Y-467388042D01*
X109082834Y-467373724D01*
X109086351Y-467359683D01*
X109091228Y-467346054D01*
X109097417Y-467332969D01*
X109104858Y-467320553D01*
X109113481Y-467308927D01*
X109123202Y-467298202D01*
X109133927Y-467288481D01*
X109145553Y-467279858D01*
X109157969Y-467272417D01*
X109171054Y-467266228D01*
X109184683Y-467261351D01*
X109198724Y-467257834D01*
X109213042Y-467255710D01*
X109227500Y-467255000D01*
X109572500Y-467255000D01*
X109586958Y-467255710D01*
X109586958Y-467255710D01*
G37*
D17*
X109400000Y-467550000D03*
D15*
G36*
X114611958Y-454520710D02*
G01*
X114626276Y-454522834D01*
X114640317Y-454526351D01*
X114653946Y-454531228D01*
X114667031Y-454537417D01*
X114679447Y-454544858D01*
X114691073Y-454553481D01*
X114701798Y-454563202D01*
X114711519Y-454573927D01*
X114720142Y-454585553D01*
X114727583Y-454597969D01*
X114733772Y-454611054D01*
X114738649Y-454624683D01*
X114742166Y-454638724D01*
X114744290Y-454653042D01*
X114745000Y-454667500D01*
X114745000Y-454962500D01*
X114744290Y-454976958D01*
X114742166Y-454991276D01*
X114738649Y-455005317D01*
X114733772Y-455018946D01*
X114727583Y-455032031D01*
X114720142Y-455044447D01*
X114711519Y-455056073D01*
X114701798Y-455066798D01*
X114691073Y-455076519D01*
X114679447Y-455085142D01*
X114667031Y-455092583D01*
X114653946Y-455098772D01*
X114640317Y-455103649D01*
X114626276Y-455107166D01*
X114611958Y-455109290D01*
X114597500Y-455110000D01*
X114252500Y-455110000D01*
X114238042Y-455109290D01*
X114223724Y-455107166D01*
X114209683Y-455103649D01*
X114196054Y-455098772D01*
X114182969Y-455092583D01*
X114170553Y-455085142D01*
X114158927Y-455076519D01*
X114148202Y-455066798D01*
X114138481Y-455056073D01*
X114129858Y-455044447D01*
X114122417Y-455032031D01*
X114116228Y-455018946D01*
X114111351Y-455005317D01*
X114107834Y-454991276D01*
X114105710Y-454976958D01*
X114105000Y-454962500D01*
X114105000Y-454667500D01*
X114105710Y-454653042D01*
X114107834Y-454638724D01*
X114111351Y-454624683D01*
X114116228Y-454611054D01*
X114122417Y-454597969D01*
X114129858Y-454585553D01*
X114138481Y-454573927D01*
X114148202Y-454563202D01*
X114158927Y-454553481D01*
X114170553Y-454544858D01*
X114182969Y-454537417D01*
X114196054Y-454531228D01*
X114209683Y-454526351D01*
X114223724Y-454522834D01*
X114238042Y-454520710D01*
X114252500Y-454520000D01*
X114597500Y-454520000D01*
X114611958Y-454520710D01*
X114611958Y-454520710D01*
G37*
D17*
X114425000Y-454815000D03*
D15*
G36*
X114611958Y-455490710D02*
G01*
X114626276Y-455492834D01*
X114640317Y-455496351D01*
X114653946Y-455501228D01*
X114667031Y-455507417D01*
X114679447Y-455514858D01*
X114691073Y-455523481D01*
X114701798Y-455533202D01*
X114711519Y-455543927D01*
X114720142Y-455555553D01*
X114727583Y-455567969D01*
X114733772Y-455581054D01*
X114738649Y-455594683D01*
X114742166Y-455608724D01*
X114744290Y-455623042D01*
X114745000Y-455637500D01*
X114745000Y-455932500D01*
X114744290Y-455946958D01*
X114742166Y-455961276D01*
X114738649Y-455975317D01*
X114733772Y-455988946D01*
X114727583Y-456002031D01*
X114720142Y-456014447D01*
X114711519Y-456026073D01*
X114701798Y-456036798D01*
X114691073Y-456046519D01*
X114679447Y-456055142D01*
X114667031Y-456062583D01*
X114653946Y-456068772D01*
X114640317Y-456073649D01*
X114626276Y-456077166D01*
X114611958Y-456079290D01*
X114597500Y-456080000D01*
X114252500Y-456080000D01*
X114238042Y-456079290D01*
X114223724Y-456077166D01*
X114209683Y-456073649D01*
X114196054Y-456068772D01*
X114182969Y-456062583D01*
X114170553Y-456055142D01*
X114158927Y-456046519D01*
X114148202Y-456036798D01*
X114138481Y-456026073D01*
X114129858Y-456014447D01*
X114122417Y-456002031D01*
X114116228Y-455988946D01*
X114111351Y-455975317D01*
X114107834Y-455961276D01*
X114105710Y-455946958D01*
X114105000Y-455932500D01*
X114105000Y-455637500D01*
X114105710Y-455623042D01*
X114107834Y-455608724D01*
X114111351Y-455594683D01*
X114116228Y-455581054D01*
X114122417Y-455567969D01*
X114129858Y-455555553D01*
X114138481Y-455543927D01*
X114148202Y-455533202D01*
X114158927Y-455523481D01*
X114170553Y-455514858D01*
X114182969Y-455507417D01*
X114196054Y-455501228D01*
X114209683Y-455496351D01*
X114223724Y-455492834D01*
X114238042Y-455490710D01*
X114252500Y-455490000D01*
X114597500Y-455490000D01*
X114611958Y-455490710D01*
X114611958Y-455490710D01*
G37*
D17*
X114425000Y-455785000D03*
D15*
G36*
X119846958Y-461830710D02*
G01*
X119861276Y-461832834D01*
X119875317Y-461836351D01*
X119888946Y-461841228D01*
X119902031Y-461847417D01*
X119914447Y-461854858D01*
X119926073Y-461863481D01*
X119936798Y-461873202D01*
X119946519Y-461883927D01*
X119955142Y-461895553D01*
X119962583Y-461907969D01*
X119968772Y-461921054D01*
X119973649Y-461934683D01*
X119977166Y-461948724D01*
X119979290Y-461963042D01*
X119980000Y-461977500D01*
X119980000Y-462322500D01*
X119979290Y-462336958D01*
X119977166Y-462351276D01*
X119973649Y-462365317D01*
X119968772Y-462378946D01*
X119962583Y-462392031D01*
X119955142Y-462404447D01*
X119946519Y-462416073D01*
X119936798Y-462426798D01*
X119926073Y-462436519D01*
X119914447Y-462445142D01*
X119902031Y-462452583D01*
X119888946Y-462458772D01*
X119875317Y-462463649D01*
X119861276Y-462467166D01*
X119846958Y-462469290D01*
X119832500Y-462470000D01*
X119537500Y-462470000D01*
X119523042Y-462469290D01*
X119508724Y-462467166D01*
X119494683Y-462463649D01*
X119481054Y-462458772D01*
X119467969Y-462452583D01*
X119455553Y-462445142D01*
X119443927Y-462436519D01*
X119433202Y-462426798D01*
X119423481Y-462416073D01*
X119414858Y-462404447D01*
X119407417Y-462392031D01*
X119401228Y-462378946D01*
X119396351Y-462365317D01*
X119392834Y-462351276D01*
X119390710Y-462336958D01*
X119390000Y-462322500D01*
X119390000Y-461977500D01*
X119390710Y-461963042D01*
X119392834Y-461948724D01*
X119396351Y-461934683D01*
X119401228Y-461921054D01*
X119407417Y-461907969D01*
X119414858Y-461895553D01*
X119423481Y-461883927D01*
X119433202Y-461873202D01*
X119443927Y-461863481D01*
X119455553Y-461854858D01*
X119467969Y-461847417D01*
X119481054Y-461841228D01*
X119494683Y-461836351D01*
X119508724Y-461832834D01*
X119523042Y-461830710D01*
X119537500Y-461830000D01*
X119832500Y-461830000D01*
X119846958Y-461830710D01*
X119846958Y-461830710D01*
G37*
D17*
X119685000Y-462150000D03*
D15*
G36*
X118876958Y-461830710D02*
G01*
X118891276Y-461832834D01*
X118905317Y-461836351D01*
X118918946Y-461841228D01*
X118932031Y-461847417D01*
X118944447Y-461854858D01*
X118956073Y-461863481D01*
X118966798Y-461873202D01*
X118976519Y-461883927D01*
X118985142Y-461895553D01*
X118992583Y-461907969D01*
X118998772Y-461921054D01*
X119003649Y-461934683D01*
X119007166Y-461948724D01*
X119009290Y-461963042D01*
X119010000Y-461977500D01*
X119010000Y-462322500D01*
X119009290Y-462336958D01*
X119007166Y-462351276D01*
X119003649Y-462365317D01*
X118998772Y-462378946D01*
X118992583Y-462392031D01*
X118985142Y-462404447D01*
X118976519Y-462416073D01*
X118966798Y-462426798D01*
X118956073Y-462436519D01*
X118944447Y-462445142D01*
X118932031Y-462452583D01*
X118918946Y-462458772D01*
X118905317Y-462463649D01*
X118891276Y-462467166D01*
X118876958Y-462469290D01*
X118862500Y-462470000D01*
X118567500Y-462470000D01*
X118553042Y-462469290D01*
X118538724Y-462467166D01*
X118524683Y-462463649D01*
X118511054Y-462458772D01*
X118497969Y-462452583D01*
X118485553Y-462445142D01*
X118473927Y-462436519D01*
X118463202Y-462426798D01*
X118453481Y-462416073D01*
X118444858Y-462404447D01*
X118437417Y-462392031D01*
X118431228Y-462378946D01*
X118426351Y-462365317D01*
X118422834Y-462351276D01*
X118420710Y-462336958D01*
X118420000Y-462322500D01*
X118420000Y-461977500D01*
X118420710Y-461963042D01*
X118422834Y-461948724D01*
X118426351Y-461934683D01*
X118431228Y-461921054D01*
X118437417Y-461907969D01*
X118444858Y-461895553D01*
X118453481Y-461883927D01*
X118463202Y-461873202D01*
X118473927Y-461863481D01*
X118485553Y-461854858D01*
X118497969Y-461847417D01*
X118511054Y-461841228D01*
X118524683Y-461836351D01*
X118538724Y-461832834D01*
X118553042Y-461830710D01*
X118567500Y-461830000D01*
X118862500Y-461830000D01*
X118876958Y-461830710D01*
X118876958Y-461830710D01*
G37*
D17*
X118715000Y-462150000D03*
D15*
G36*
X106091958Y-461130710D02*
G01*
X106106276Y-461132834D01*
X106120317Y-461136351D01*
X106133946Y-461141228D01*
X106147031Y-461147417D01*
X106159447Y-461154858D01*
X106171073Y-461163481D01*
X106181798Y-461173202D01*
X106191519Y-461183927D01*
X106200142Y-461195553D01*
X106207583Y-461207969D01*
X106213772Y-461221054D01*
X106218649Y-461234683D01*
X106222166Y-461248724D01*
X106224290Y-461263042D01*
X106225000Y-461277500D01*
X106225000Y-461622500D01*
X106224290Y-461636958D01*
X106222166Y-461651276D01*
X106218649Y-461665317D01*
X106213772Y-461678946D01*
X106207583Y-461692031D01*
X106200142Y-461704447D01*
X106191519Y-461716073D01*
X106181798Y-461726798D01*
X106171073Y-461736519D01*
X106159447Y-461745142D01*
X106147031Y-461752583D01*
X106133946Y-461758772D01*
X106120317Y-461763649D01*
X106106276Y-461767166D01*
X106091958Y-461769290D01*
X106077500Y-461770000D01*
X105782500Y-461770000D01*
X105768042Y-461769290D01*
X105753724Y-461767166D01*
X105739683Y-461763649D01*
X105726054Y-461758772D01*
X105712969Y-461752583D01*
X105700553Y-461745142D01*
X105688927Y-461736519D01*
X105678202Y-461726798D01*
X105668481Y-461716073D01*
X105659858Y-461704447D01*
X105652417Y-461692031D01*
X105646228Y-461678946D01*
X105641351Y-461665317D01*
X105637834Y-461651276D01*
X105635710Y-461636958D01*
X105635000Y-461622500D01*
X105635000Y-461277500D01*
X105635710Y-461263042D01*
X105637834Y-461248724D01*
X105641351Y-461234683D01*
X105646228Y-461221054D01*
X105652417Y-461207969D01*
X105659858Y-461195553D01*
X105668481Y-461183927D01*
X105678202Y-461173202D01*
X105688927Y-461163481D01*
X105700553Y-461154858D01*
X105712969Y-461147417D01*
X105726054Y-461141228D01*
X105739683Y-461136351D01*
X105753724Y-461132834D01*
X105768042Y-461130710D01*
X105782500Y-461130000D01*
X106077500Y-461130000D01*
X106091958Y-461130710D01*
X106091958Y-461130710D01*
G37*
D17*
X105930000Y-461450000D03*
D15*
G36*
X107061958Y-461130710D02*
G01*
X107076276Y-461132834D01*
X107090317Y-461136351D01*
X107103946Y-461141228D01*
X107117031Y-461147417D01*
X107129447Y-461154858D01*
X107141073Y-461163481D01*
X107151798Y-461173202D01*
X107161519Y-461183927D01*
X107170142Y-461195553D01*
X107177583Y-461207969D01*
X107183772Y-461221054D01*
X107188649Y-461234683D01*
X107192166Y-461248724D01*
X107194290Y-461263042D01*
X107195000Y-461277500D01*
X107195000Y-461622500D01*
X107194290Y-461636958D01*
X107192166Y-461651276D01*
X107188649Y-461665317D01*
X107183772Y-461678946D01*
X107177583Y-461692031D01*
X107170142Y-461704447D01*
X107161519Y-461716073D01*
X107151798Y-461726798D01*
X107141073Y-461736519D01*
X107129447Y-461745142D01*
X107117031Y-461752583D01*
X107103946Y-461758772D01*
X107090317Y-461763649D01*
X107076276Y-461767166D01*
X107061958Y-461769290D01*
X107047500Y-461770000D01*
X106752500Y-461770000D01*
X106738042Y-461769290D01*
X106723724Y-461767166D01*
X106709683Y-461763649D01*
X106696054Y-461758772D01*
X106682969Y-461752583D01*
X106670553Y-461745142D01*
X106658927Y-461736519D01*
X106648202Y-461726798D01*
X106638481Y-461716073D01*
X106629858Y-461704447D01*
X106622417Y-461692031D01*
X106616228Y-461678946D01*
X106611351Y-461665317D01*
X106607834Y-461651276D01*
X106605710Y-461636958D01*
X106605000Y-461622500D01*
X106605000Y-461277500D01*
X106605710Y-461263042D01*
X106607834Y-461248724D01*
X106611351Y-461234683D01*
X106616228Y-461221054D01*
X106622417Y-461207969D01*
X106629858Y-461195553D01*
X106638481Y-461183927D01*
X106648202Y-461173202D01*
X106658927Y-461163481D01*
X106670553Y-461154858D01*
X106682969Y-461147417D01*
X106696054Y-461141228D01*
X106709683Y-461136351D01*
X106723724Y-461132834D01*
X106738042Y-461130710D01*
X106752500Y-461130000D01*
X107047500Y-461130000D01*
X107061958Y-461130710D01*
X107061958Y-461130710D01*
G37*
D17*
X106900000Y-461450000D03*
D15*
G36*
X119831958Y-463355710D02*
G01*
X119846276Y-463357834D01*
X119860317Y-463361351D01*
X119873946Y-463366228D01*
X119887031Y-463372417D01*
X119899447Y-463379858D01*
X119911073Y-463388481D01*
X119921798Y-463398202D01*
X119931519Y-463408927D01*
X119940142Y-463420553D01*
X119947583Y-463432969D01*
X119953772Y-463446054D01*
X119958649Y-463459683D01*
X119962166Y-463473724D01*
X119964290Y-463488042D01*
X119965000Y-463502500D01*
X119965000Y-463847500D01*
X119964290Y-463861958D01*
X119962166Y-463876276D01*
X119958649Y-463890317D01*
X119953772Y-463903946D01*
X119947583Y-463917031D01*
X119940142Y-463929447D01*
X119931519Y-463941073D01*
X119921798Y-463951798D01*
X119911073Y-463961519D01*
X119899447Y-463970142D01*
X119887031Y-463977583D01*
X119873946Y-463983772D01*
X119860317Y-463988649D01*
X119846276Y-463992166D01*
X119831958Y-463994290D01*
X119817500Y-463995000D01*
X119522500Y-463995000D01*
X119508042Y-463994290D01*
X119493724Y-463992166D01*
X119479683Y-463988649D01*
X119466054Y-463983772D01*
X119452969Y-463977583D01*
X119440553Y-463970142D01*
X119428927Y-463961519D01*
X119418202Y-463951798D01*
X119408481Y-463941073D01*
X119399858Y-463929447D01*
X119392417Y-463917031D01*
X119386228Y-463903946D01*
X119381351Y-463890317D01*
X119377834Y-463876276D01*
X119375710Y-463861958D01*
X119375000Y-463847500D01*
X119375000Y-463502500D01*
X119375710Y-463488042D01*
X119377834Y-463473724D01*
X119381351Y-463459683D01*
X119386228Y-463446054D01*
X119392417Y-463432969D01*
X119399858Y-463420553D01*
X119408481Y-463408927D01*
X119418202Y-463398202D01*
X119428927Y-463388481D01*
X119440553Y-463379858D01*
X119452969Y-463372417D01*
X119466054Y-463366228D01*
X119479683Y-463361351D01*
X119493724Y-463357834D01*
X119508042Y-463355710D01*
X119522500Y-463355000D01*
X119817500Y-463355000D01*
X119831958Y-463355710D01*
X119831958Y-463355710D01*
G37*
D17*
X119670000Y-463675000D03*
D15*
G36*
X118861958Y-463355710D02*
G01*
X118876276Y-463357834D01*
X118890317Y-463361351D01*
X118903946Y-463366228D01*
X118917031Y-463372417D01*
X118929447Y-463379858D01*
X118941073Y-463388481D01*
X118951798Y-463398202D01*
X118961519Y-463408927D01*
X118970142Y-463420553D01*
X118977583Y-463432969D01*
X118983772Y-463446054D01*
X118988649Y-463459683D01*
X118992166Y-463473724D01*
X118994290Y-463488042D01*
X118995000Y-463502500D01*
X118995000Y-463847500D01*
X118994290Y-463861958D01*
X118992166Y-463876276D01*
X118988649Y-463890317D01*
X118983772Y-463903946D01*
X118977583Y-463917031D01*
X118970142Y-463929447D01*
X118961519Y-463941073D01*
X118951798Y-463951798D01*
X118941073Y-463961519D01*
X118929447Y-463970142D01*
X118917031Y-463977583D01*
X118903946Y-463983772D01*
X118890317Y-463988649D01*
X118876276Y-463992166D01*
X118861958Y-463994290D01*
X118847500Y-463995000D01*
X118552500Y-463995000D01*
X118538042Y-463994290D01*
X118523724Y-463992166D01*
X118509683Y-463988649D01*
X118496054Y-463983772D01*
X118482969Y-463977583D01*
X118470553Y-463970142D01*
X118458927Y-463961519D01*
X118448202Y-463951798D01*
X118438481Y-463941073D01*
X118429858Y-463929447D01*
X118422417Y-463917031D01*
X118416228Y-463903946D01*
X118411351Y-463890317D01*
X118407834Y-463876276D01*
X118405710Y-463861958D01*
X118405000Y-463847500D01*
X118405000Y-463502500D01*
X118405710Y-463488042D01*
X118407834Y-463473724D01*
X118411351Y-463459683D01*
X118416228Y-463446054D01*
X118422417Y-463432969D01*
X118429858Y-463420553D01*
X118438481Y-463408927D01*
X118448202Y-463398202D01*
X118458927Y-463388481D01*
X118470553Y-463379858D01*
X118482969Y-463372417D01*
X118496054Y-463366228D01*
X118509683Y-463361351D01*
X118523724Y-463357834D01*
X118538042Y-463355710D01*
X118552500Y-463355000D01*
X118847500Y-463355000D01*
X118861958Y-463355710D01*
X118861958Y-463355710D01*
G37*
D17*
X118700000Y-463675000D03*
D15*
G36*
X106126958Y-464630710D02*
G01*
X106141276Y-464632834D01*
X106155317Y-464636351D01*
X106168946Y-464641228D01*
X106182031Y-464647417D01*
X106194447Y-464654858D01*
X106206073Y-464663481D01*
X106216798Y-464673202D01*
X106226519Y-464683927D01*
X106235142Y-464695553D01*
X106242583Y-464707969D01*
X106248772Y-464721054D01*
X106253649Y-464734683D01*
X106257166Y-464748724D01*
X106259290Y-464763042D01*
X106260000Y-464777500D01*
X106260000Y-465122500D01*
X106259290Y-465136958D01*
X106257166Y-465151276D01*
X106253649Y-465165317D01*
X106248772Y-465178946D01*
X106242583Y-465192031D01*
X106235142Y-465204447D01*
X106226519Y-465216073D01*
X106216798Y-465226798D01*
X106206073Y-465236519D01*
X106194447Y-465245142D01*
X106182031Y-465252583D01*
X106168946Y-465258772D01*
X106155317Y-465263649D01*
X106141276Y-465267166D01*
X106126958Y-465269290D01*
X106112500Y-465270000D01*
X105817500Y-465270000D01*
X105803042Y-465269290D01*
X105788724Y-465267166D01*
X105774683Y-465263649D01*
X105761054Y-465258772D01*
X105747969Y-465252583D01*
X105735553Y-465245142D01*
X105723927Y-465236519D01*
X105713202Y-465226798D01*
X105703481Y-465216073D01*
X105694858Y-465204447D01*
X105687417Y-465192031D01*
X105681228Y-465178946D01*
X105676351Y-465165317D01*
X105672834Y-465151276D01*
X105670710Y-465136958D01*
X105670000Y-465122500D01*
X105670000Y-464777500D01*
X105670710Y-464763042D01*
X105672834Y-464748724D01*
X105676351Y-464734683D01*
X105681228Y-464721054D01*
X105687417Y-464707969D01*
X105694858Y-464695553D01*
X105703481Y-464683927D01*
X105713202Y-464673202D01*
X105723927Y-464663481D01*
X105735553Y-464654858D01*
X105747969Y-464647417D01*
X105761054Y-464641228D01*
X105774683Y-464636351D01*
X105788724Y-464632834D01*
X105803042Y-464630710D01*
X105817500Y-464630000D01*
X106112500Y-464630000D01*
X106126958Y-464630710D01*
X106126958Y-464630710D01*
G37*
D17*
X105965000Y-464950000D03*
D15*
G36*
X107096958Y-464630710D02*
G01*
X107111276Y-464632834D01*
X107125317Y-464636351D01*
X107138946Y-464641228D01*
X107152031Y-464647417D01*
X107164447Y-464654858D01*
X107176073Y-464663481D01*
X107186798Y-464673202D01*
X107196519Y-464683927D01*
X107205142Y-464695553D01*
X107212583Y-464707969D01*
X107218772Y-464721054D01*
X107223649Y-464734683D01*
X107227166Y-464748724D01*
X107229290Y-464763042D01*
X107230000Y-464777500D01*
X107230000Y-465122500D01*
X107229290Y-465136958D01*
X107227166Y-465151276D01*
X107223649Y-465165317D01*
X107218772Y-465178946D01*
X107212583Y-465192031D01*
X107205142Y-465204447D01*
X107196519Y-465216073D01*
X107186798Y-465226798D01*
X107176073Y-465236519D01*
X107164447Y-465245142D01*
X107152031Y-465252583D01*
X107138946Y-465258772D01*
X107125317Y-465263649D01*
X107111276Y-465267166D01*
X107096958Y-465269290D01*
X107082500Y-465270000D01*
X106787500Y-465270000D01*
X106773042Y-465269290D01*
X106758724Y-465267166D01*
X106744683Y-465263649D01*
X106731054Y-465258772D01*
X106717969Y-465252583D01*
X106705553Y-465245142D01*
X106693927Y-465236519D01*
X106683202Y-465226798D01*
X106673481Y-465216073D01*
X106664858Y-465204447D01*
X106657417Y-465192031D01*
X106651228Y-465178946D01*
X106646351Y-465165317D01*
X106642834Y-465151276D01*
X106640710Y-465136958D01*
X106640000Y-465122500D01*
X106640000Y-464777500D01*
X106640710Y-464763042D01*
X106642834Y-464748724D01*
X106646351Y-464734683D01*
X106651228Y-464721054D01*
X106657417Y-464707969D01*
X106664858Y-464695553D01*
X106673481Y-464683927D01*
X106683202Y-464673202D01*
X106693927Y-464663481D01*
X106705553Y-464654858D01*
X106717969Y-464647417D01*
X106731054Y-464641228D01*
X106744683Y-464636351D01*
X106758724Y-464632834D01*
X106773042Y-464630710D01*
X106787500Y-464630000D01*
X107082500Y-464630000D01*
X107096958Y-464630710D01*
X107096958Y-464630710D01*
G37*
D17*
X106935000Y-464950000D03*
D15*
G36*
X98216958Y-463440710D02*
G01*
X98231276Y-463442834D01*
X98245317Y-463446351D01*
X98258946Y-463451228D01*
X98272031Y-463457417D01*
X98284447Y-463464858D01*
X98296073Y-463473481D01*
X98306798Y-463483202D01*
X98316519Y-463493927D01*
X98325142Y-463505553D01*
X98332583Y-463517969D01*
X98338772Y-463531054D01*
X98343649Y-463544683D01*
X98347166Y-463558724D01*
X98349290Y-463573042D01*
X98350000Y-463587500D01*
X98350000Y-463932500D01*
X98349290Y-463946958D01*
X98347166Y-463961276D01*
X98343649Y-463975317D01*
X98338772Y-463988946D01*
X98332583Y-464002031D01*
X98325142Y-464014447D01*
X98316519Y-464026073D01*
X98306798Y-464036798D01*
X98296073Y-464046519D01*
X98284447Y-464055142D01*
X98272031Y-464062583D01*
X98258946Y-464068772D01*
X98245317Y-464073649D01*
X98231276Y-464077166D01*
X98216958Y-464079290D01*
X98202500Y-464080000D01*
X97907500Y-464080000D01*
X97893042Y-464079290D01*
X97878724Y-464077166D01*
X97864683Y-464073649D01*
X97851054Y-464068772D01*
X97837969Y-464062583D01*
X97825553Y-464055142D01*
X97813927Y-464046519D01*
X97803202Y-464036798D01*
X97793481Y-464026073D01*
X97784858Y-464014447D01*
X97777417Y-464002031D01*
X97771228Y-463988946D01*
X97766351Y-463975317D01*
X97762834Y-463961276D01*
X97760710Y-463946958D01*
X97760000Y-463932500D01*
X97760000Y-463587500D01*
X97760710Y-463573042D01*
X97762834Y-463558724D01*
X97766351Y-463544683D01*
X97771228Y-463531054D01*
X97777417Y-463517969D01*
X97784858Y-463505553D01*
X97793481Y-463493927D01*
X97803202Y-463483202D01*
X97813927Y-463473481D01*
X97825553Y-463464858D01*
X97837969Y-463457417D01*
X97851054Y-463451228D01*
X97864683Y-463446351D01*
X97878724Y-463442834D01*
X97893042Y-463440710D01*
X97907500Y-463440000D01*
X98202500Y-463440000D01*
X98216958Y-463440710D01*
X98216958Y-463440710D01*
G37*
D17*
X98055000Y-463760000D03*
D15*
G36*
X99186958Y-463440710D02*
G01*
X99201276Y-463442834D01*
X99215317Y-463446351D01*
X99228946Y-463451228D01*
X99242031Y-463457417D01*
X99254447Y-463464858D01*
X99266073Y-463473481D01*
X99276798Y-463483202D01*
X99286519Y-463493927D01*
X99295142Y-463505553D01*
X99302583Y-463517969D01*
X99308772Y-463531054D01*
X99313649Y-463544683D01*
X99317166Y-463558724D01*
X99319290Y-463573042D01*
X99320000Y-463587500D01*
X99320000Y-463932500D01*
X99319290Y-463946958D01*
X99317166Y-463961276D01*
X99313649Y-463975317D01*
X99308772Y-463988946D01*
X99302583Y-464002031D01*
X99295142Y-464014447D01*
X99286519Y-464026073D01*
X99276798Y-464036798D01*
X99266073Y-464046519D01*
X99254447Y-464055142D01*
X99242031Y-464062583D01*
X99228946Y-464068772D01*
X99215317Y-464073649D01*
X99201276Y-464077166D01*
X99186958Y-464079290D01*
X99172500Y-464080000D01*
X98877500Y-464080000D01*
X98863042Y-464079290D01*
X98848724Y-464077166D01*
X98834683Y-464073649D01*
X98821054Y-464068772D01*
X98807969Y-464062583D01*
X98795553Y-464055142D01*
X98783927Y-464046519D01*
X98773202Y-464036798D01*
X98763481Y-464026073D01*
X98754858Y-464014447D01*
X98747417Y-464002031D01*
X98741228Y-463988946D01*
X98736351Y-463975317D01*
X98732834Y-463961276D01*
X98730710Y-463946958D01*
X98730000Y-463932500D01*
X98730000Y-463587500D01*
X98730710Y-463573042D01*
X98732834Y-463558724D01*
X98736351Y-463544683D01*
X98741228Y-463531054D01*
X98747417Y-463517969D01*
X98754858Y-463505553D01*
X98763481Y-463493927D01*
X98773202Y-463483202D01*
X98783927Y-463473481D01*
X98795553Y-463464858D01*
X98807969Y-463457417D01*
X98821054Y-463451228D01*
X98834683Y-463446351D01*
X98848724Y-463442834D01*
X98863042Y-463440710D01*
X98877500Y-463440000D01*
X99172500Y-463440000D01*
X99186958Y-463440710D01*
X99186958Y-463440710D01*
G37*
D17*
X99025000Y-463760000D03*
D15*
G36*
X114271958Y-418370710D02*
G01*
X114286276Y-418372834D01*
X114300317Y-418376351D01*
X114313946Y-418381228D01*
X114327031Y-418387417D01*
X114339447Y-418394858D01*
X114351073Y-418403481D01*
X114361798Y-418413202D01*
X114371519Y-418423927D01*
X114380142Y-418435553D01*
X114387583Y-418447969D01*
X114393772Y-418461054D01*
X114398649Y-418474683D01*
X114402166Y-418488724D01*
X114404290Y-418503042D01*
X114405000Y-418517500D01*
X114405000Y-418862500D01*
X114404290Y-418876958D01*
X114402166Y-418891276D01*
X114398649Y-418905317D01*
X114393772Y-418918946D01*
X114387583Y-418932031D01*
X114380142Y-418944447D01*
X114371519Y-418956073D01*
X114361798Y-418966798D01*
X114351073Y-418976519D01*
X114339447Y-418985142D01*
X114327031Y-418992583D01*
X114313946Y-418998772D01*
X114300317Y-419003649D01*
X114286276Y-419007166D01*
X114271958Y-419009290D01*
X114257500Y-419010000D01*
X113962500Y-419010000D01*
X113948042Y-419009290D01*
X113933724Y-419007166D01*
X113919683Y-419003649D01*
X113906054Y-418998772D01*
X113892969Y-418992583D01*
X113880553Y-418985142D01*
X113868927Y-418976519D01*
X113858202Y-418966798D01*
X113848481Y-418956073D01*
X113839858Y-418944447D01*
X113832417Y-418932031D01*
X113826228Y-418918946D01*
X113821351Y-418905317D01*
X113817834Y-418891276D01*
X113815710Y-418876958D01*
X113815000Y-418862500D01*
X113815000Y-418517500D01*
X113815710Y-418503042D01*
X113817834Y-418488724D01*
X113821351Y-418474683D01*
X113826228Y-418461054D01*
X113832417Y-418447969D01*
X113839858Y-418435553D01*
X113848481Y-418423927D01*
X113858202Y-418413202D01*
X113868927Y-418403481D01*
X113880553Y-418394858D01*
X113892969Y-418387417D01*
X113906054Y-418381228D01*
X113919683Y-418376351D01*
X113933724Y-418372834D01*
X113948042Y-418370710D01*
X113962500Y-418370000D01*
X114257500Y-418370000D01*
X114271958Y-418370710D01*
X114271958Y-418370710D01*
G37*
D17*
X114110000Y-418690000D03*
D15*
G36*
X113301958Y-418370710D02*
G01*
X113316276Y-418372834D01*
X113330317Y-418376351D01*
X113343946Y-418381228D01*
X113357031Y-418387417D01*
X113369447Y-418394858D01*
X113381073Y-418403481D01*
X113391798Y-418413202D01*
X113401519Y-418423927D01*
X113410142Y-418435553D01*
X113417583Y-418447969D01*
X113423772Y-418461054D01*
X113428649Y-418474683D01*
X113432166Y-418488724D01*
X113434290Y-418503042D01*
X113435000Y-418517500D01*
X113435000Y-418862500D01*
X113434290Y-418876958D01*
X113432166Y-418891276D01*
X113428649Y-418905317D01*
X113423772Y-418918946D01*
X113417583Y-418932031D01*
X113410142Y-418944447D01*
X113401519Y-418956073D01*
X113391798Y-418966798D01*
X113381073Y-418976519D01*
X113369447Y-418985142D01*
X113357031Y-418992583D01*
X113343946Y-418998772D01*
X113330317Y-419003649D01*
X113316276Y-419007166D01*
X113301958Y-419009290D01*
X113287500Y-419010000D01*
X112992500Y-419010000D01*
X112978042Y-419009290D01*
X112963724Y-419007166D01*
X112949683Y-419003649D01*
X112936054Y-418998772D01*
X112922969Y-418992583D01*
X112910553Y-418985142D01*
X112898927Y-418976519D01*
X112888202Y-418966798D01*
X112878481Y-418956073D01*
X112869858Y-418944447D01*
X112862417Y-418932031D01*
X112856228Y-418918946D01*
X112851351Y-418905317D01*
X112847834Y-418891276D01*
X112845710Y-418876958D01*
X112845000Y-418862500D01*
X112845000Y-418517500D01*
X112845710Y-418503042D01*
X112847834Y-418488724D01*
X112851351Y-418474683D01*
X112856228Y-418461054D01*
X112862417Y-418447969D01*
X112869858Y-418435553D01*
X112878481Y-418423927D01*
X112888202Y-418413202D01*
X112898927Y-418403481D01*
X112910553Y-418394858D01*
X112922969Y-418387417D01*
X112936054Y-418381228D01*
X112949683Y-418376351D01*
X112963724Y-418372834D01*
X112978042Y-418370710D01*
X112992500Y-418370000D01*
X113287500Y-418370000D01*
X113301958Y-418370710D01*
X113301958Y-418370710D01*
G37*
D17*
X113140000Y-418690000D03*
D15*
G36*
X106121958Y-465650710D02*
G01*
X106136276Y-465652834D01*
X106150317Y-465656351D01*
X106163946Y-465661228D01*
X106177031Y-465667417D01*
X106189447Y-465674858D01*
X106201073Y-465683481D01*
X106211798Y-465693202D01*
X106221519Y-465703927D01*
X106230142Y-465715553D01*
X106237583Y-465727969D01*
X106243772Y-465741054D01*
X106248649Y-465754683D01*
X106252166Y-465768724D01*
X106254290Y-465783042D01*
X106255000Y-465797500D01*
X106255000Y-466142500D01*
X106254290Y-466156958D01*
X106252166Y-466171276D01*
X106248649Y-466185317D01*
X106243772Y-466198946D01*
X106237583Y-466212031D01*
X106230142Y-466224447D01*
X106221519Y-466236073D01*
X106211798Y-466246798D01*
X106201073Y-466256519D01*
X106189447Y-466265142D01*
X106177031Y-466272583D01*
X106163946Y-466278772D01*
X106150317Y-466283649D01*
X106136276Y-466287166D01*
X106121958Y-466289290D01*
X106107500Y-466290000D01*
X105812500Y-466290000D01*
X105798042Y-466289290D01*
X105783724Y-466287166D01*
X105769683Y-466283649D01*
X105756054Y-466278772D01*
X105742969Y-466272583D01*
X105730553Y-466265142D01*
X105718927Y-466256519D01*
X105708202Y-466246798D01*
X105698481Y-466236073D01*
X105689858Y-466224447D01*
X105682417Y-466212031D01*
X105676228Y-466198946D01*
X105671351Y-466185317D01*
X105667834Y-466171276D01*
X105665710Y-466156958D01*
X105665000Y-466142500D01*
X105665000Y-465797500D01*
X105665710Y-465783042D01*
X105667834Y-465768724D01*
X105671351Y-465754683D01*
X105676228Y-465741054D01*
X105682417Y-465727969D01*
X105689858Y-465715553D01*
X105698481Y-465703927D01*
X105708202Y-465693202D01*
X105718927Y-465683481D01*
X105730553Y-465674858D01*
X105742969Y-465667417D01*
X105756054Y-465661228D01*
X105769683Y-465656351D01*
X105783724Y-465652834D01*
X105798042Y-465650710D01*
X105812500Y-465650000D01*
X106107500Y-465650000D01*
X106121958Y-465650710D01*
X106121958Y-465650710D01*
G37*
D17*
X105960000Y-465970000D03*
D15*
G36*
X107091958Y-465650710D02*
G01*
X107106276Y-465652834D01*
X107120317Y-465656351D01*
X107133946Y-465661228D01*
X107147031Y-465667417D01*
X107159447Y-465674858D01*
X107171073Y-465683481D01*
X107181798Y-465693202D01*
X107191519Y-465703927D01*
X107200142Y-465715553D01*
X107207583Y-465727969D01*
X107213772Y-465741054D01*
X107218649Y-465754683D01*
X107222166Y-465768724D01*
X107224290Y-465783042D01*
X107225000Y-465797500D01*
X107225000Y-466142500D01*
X107224290Y-466156958D01*
X107222166Y-466171276D01*
X107218649Y-466185317D01*
X107213772Y-466198946D01*
X107207583Y-466212031D01*
X107200142Y-466224447D01*
X107191519Y-466236073D01*
X107181798Y-466246798D01*
X107171073Y-466256519D01*
X107159447Y-466265142D01*
X107147031Y-466272583D01*
X107133946Y-466278772D01*
X107120317Y-466283649D01*
X107106276Y-466287166D01*
X107091958Y-466289290D01*
X107077500Y-466290000D01*
X106782500Y-466290000D01*
X106768042Y-466289290D01*
X106753724Y-466287166D01*
X106739683Y-466283649D01*
X106726054Y-466278772D01*
X106712969Y-466272583D01*
X106700553Y-466265142D01*
X106688927Y-466256519D01*
X106678202Y-466246798D01*
X106668481Y-466236073D01*
X106659858Y-466224447D01*
X106652417Y-466212031D01*
X106646228Y-466198946D01*
X106641351Y-466185317D01*
X106637834Y-466171276D01*
X106635710Y-466156958D01*
X106635000Y-466142500D01*
X106635000Y-465797500D01*
X106635710Y-465783042D01*
X106637834Y-465768724D01*
X106641351Y-465754683D01*
X106646228Y-465741054D01*
X106652417Y-465727969D01*
X106659858Y-465715553D01*
X106668481Y-465703927D01*
X106678202Y-465693202D01*
X106688927Y-465683481D01*
X106700553Y-465674858D01*
X106712969Y-465667417D01*
X106726054Y-465661228D01*
X106739683Y-465656351D01*
X106753724Y-465652834D01*
X106768042Y-465650710D01*
X106782500Y-465650000D01*
X107077500Y-465650000D01*
X107091958Y-465650710D01*
X107091958Y-465650710D01*
G37*
D17*
X106930000Y-465970000D03*
D15*
G36*
X108836958Y-455435710D02*
G01*
X108851276Y-455437834D01*
X108865317Y-455441351D01*
X108878946Y-455446228D01*
X108892031Y-455452417D01*
X108904447Y-455459858D01*
X108916073Y-455468481D01*
X108926798Y-455478202D01*
X108936519Y-455488927D01*
X108945142Y-455500553D01*
X108952583Y-455512969D01*
X108958772Y-455526054D01*
X108963649Y-455539683D01*
X108967166Y-455553724D01*
X108969290Y-455568042D01*
X108970000Y-455582500D01*
X108970000Y-455877500D01*
X108969290Y-455891958D01*
X108967166Y-455906276D01*
X108963649Y-455920317D01*
X108958772Y-455933946D01*
X108952583Y-455947031D01*
X108945142Y-455959447D01*
X108936519Y-455971073D01*
X108926798Y-455981798D01*
X108916073Y-455991519D01*
X108904447Y-456000142D01*
X108892031Y-456007583D01*
X108878946Y-456013772D01*
X108865317Y-456018649D01*
X108851276Y-456022166D01*
X108836958Y-456024290D01*
X108822500Y-456025000D01*
X108477500Y-456025000D01*
X108463042Y-456024290D01*
X108448724Y-456022166D01*
X108434683Y-456018649D01*
X108421054Y-456013772D01*
X108407969Y-456007583D01*
X108395553Y-456000142D01*
X108383927Y-455991519D01*
X108373202Y-455981798D01*
X108363481Y-455971073D01*
X108354858Y-455959447D01*
X108347417Y-455947031D01*
X108341228Y-455933946D01*
X108336351Y-455920317D01*
X108332834Y-455906276D01*
X108330710Y-455891958D01*
X108330000Y-455877500D01*
X108330000Y-455582500D01*
X108330710Y-455568042D01*
X108332834Y-455553724D01*
X108336351Y-455539683D01*
X108341228Y-455526054D01*
X108347417Y-455512969D01*
X108354858Y-455500553D01*
X108363481Y-455488927D01*
X108373202Y-455478202D01*
X108383927Y-455468481D01*
X108395553Y-455459858D01*
X108407969Y-455452417D01*
X108421054Y-455446228D01*
X108434683Y-455441351D01*
X108448724Y-455437834D01*
X108463042Y-455435710D01*
X108477500Y-455435000D01*
X108822500Y-455435000D01*
X108836958Y-455435710D01*
X108836958Y-455435710D01*
G37*
D17*
X108650000Y-455730000D03*
D15*
G36*
X108836958Y-456405710D02*
G01*
X108851276Y-456407834D01*
X108865317Y-456411351D01*
X108878946Y-456416228D01*
X108892031Y-456422417D01*
X108904447Y-456429858D01*
X108916073Y-456438481D01*
X108926798Y-456448202D01*
X108936519Y-456458927D01*
X108945142Y-456470553D01*
X108952583Y-456482969D01*
X108958772Y-456496054D01*
X108963649Y-456509683D01*
X108967166Y-456523724D01*
X108969290Y-456538042D01*
X108970000Y-456552500D01*
X108970000Y-456847500D01*
X108969290Y-456861958D01*
X108967166Y-456876276D01*
X108963649Y-456890317D01*
X108958772Y-456903946D01*
X108952583Y-456917031D01*
X108945142Y-456929447D01*
X108936519Y-456941073D01*
X108926798Y-456951798D01*
X108916073Y-456961519D01*
X108904447Y-456970142D01*
X108892031Y-456977583D01*
X108878946Y-456983772D01*
X108865317Y-456988649D01*
X108851276Y-456992166D01*
X108836958Y-456994290D01*
X108822500Y-456995000D01*
X108477500Y-456995000D01*
X108463042Y-456994290D01*
X108448724Y-456992166D01*
X108434683Y-456988649D01*
X108421054Y-456983772D01*
X108407969Y-456977583D01*
X108395553Y-456970142D01*
X108383927Y-456961519D01*
X108373202Y-456951798D01*
X108363481Y-456941073D01*
X108354858Y-456929447D01*
X108347417Y-456917031D01*
X108341228Y-456903946D01*
X108336351Y-456890317D01*
X108332834Y-456876276D01*
X108330710Y-456861958D01*
X108330000Y-456847500D01*
X108330000Y-456552500D01*
X108330710Y-456538042D01*
X108332834Y-456523724D01*
X108336351Y-456509683D01*
X108341228Y-456496054D01*
X108347417Y-456482969D01*
X108354858Y-456470553D01*
X108363481Y-456458927D01*
X108373202Y-456448202D01*
X108383927Y-456438481D01*
X108395553Y-456429858D01*
X108407969Y-456422417D01*
X108421054Y-456416228D01*
X108434683Y-456411351D01*
X108448724Y-456407834D01*
X108463042Y-456405710D01*
X108477500Y-456405000D01*
X108822500Y-456405000D01*
X108836958Y-456405710D01*
X108836958Y-456405710D01*
G37*
D17*
X108650000Y-456700000D03*
D15*
G36*
X120631958Y-459405710D02*
G01*
X120646276Y-459407834D01*
X120660317Y-459411351D01*
X120673946Y-459416228D01*
X120687031Y-459422417D01*
X120699447Y-459429858D01*
X120711073Y-459438481D01*
X120721798Y-459448202D01*
X120731519Y-459458927D01*
X120740142Y-459470553D01*
X120747583Y-459482969D01*
X120753772Y-459496054D01*
X120758649Y-459509683D01*
X120762166Y-459523724D01*
X120764290Y-459538042D01*
X120765000Y-459552500D01*
X120765000Y-459897500D01*
X120764290Y-459911958D01*
X120762166Y-459926276D01*
X120758649Y-459940317D01*
X120753772Y-459953946D01*
X120747583Y-459967031D01*
X120740142Y-459979447D01*
X120731519Y-459991073D01*
X120721798Y-460001798D01*
X120711073Y-460011519D01*
X120699447Y-460020142D01*
X120687031Y-460027583D01*
X120673946Y-460033772D01*
X120660317Y-460038649D01*
X120646276Y-460042166D01*
X120631958Y-460044290D01*
X120617500Y-460045000D01*
X120322500Y-460045000D01*
X120308042Y-460044290D01*
X120293724Y-460042166D01*
X120279683Y-460038649D01*
X120266054Y-460033772D01*
X120252969Y-460027583D01*
X120240553Y-460020142D01*
X120228927Y-460011519D01*
X120218202Y-460001798D01*
X120208481Y-459991073D01*
X120199858Y-459979447D01*
X120192417Y-459967031D01*
X120186228Y-459953946D01*
X120181351Y-459940317D01*
X120177834Y-459926276D01*
X120175710Y-459911958D01*
X120175000Y-459897500D01*
X120175000Y-459552500D01*
X120175710Y-459538042D01*
X120177834Y-459523724D01*
X120181351Y-459509683D01*
X120186228Y-459496054D01*
X120192417Y-459482969D01*
X120199858Y-459470553D01*
X120208481Y-459458927D01*
X120218202Y-459448202D01*
X120228927Y-459438481D01*
X120240553Y-459429858D01*
X120252969Y-459422417D01*
X120266054Y-459416228D01*
X120279683Y-459411351D01*
X120293724Y-459407834D01*
X120308042Y-459405710D01*
X120322500Y-459405000D01*
X120617500Y-459405000D01*
X120631958Y-459405710D01*
X120631958Y-459405710D01*
G37*
D17*
X120470000Y-459725000D03*
D15*
G36*
X119661958Y-459405710D02*
G01*
X119676276Y-459407834D01*
X119690317Y-459411351D01*
X119703946Y-459416228D01*
X119717031Y-459422417D01*
X119729447Y-459429858D01*
X119741073Y-459438481D01*
X119751798Y-459448202D01*
X119761519Y-459458927D01*
X119770142Y-459470553D01*
X119777583Y-459482969D01*
X119783772Y-459496054D01*
X119788649Y-459509683D01*
X119792166Y-459523724D01*
X119794290Y-459538042D01*
X119795000Y-459552500D01*
X119795000Y-459897500D01*
X119794290Y-459911958D01*
X119792166Y-459926276D01*
X119788649Y-459940317D01*
X119783772Y-459953946D01*
X119777583Y-459967031D01*
X119770142Y-459979447D01*
X119761519Y-459991073D01*
X119751798Y-460001798D01*
X119741073Y-460011519D01*
X119729447Y-460020142D01*
X119717031Y-460027583D01*
X119703946Y-460033772D01*
X119690317Y-460038649D01*
X119676276Y-460042166D01*
X119661958Y-460044290D01*
X119647500Y-460045000D01*
X119352500Y-460045000D01*
X119338042Y-460044290D01*
X119323724Y-460042166D01*
X119309683Y-460038649D01*
X119296054Y-460033772D01*
X119282969Y-460027583D01*
X119270553Y-460020142D01*
X119258927Y-460011519D01*
X119248202Y-460001798D01*
X119238481Y-459991073D01*
X119229858Y-459979447D01*
X119222417Y-459967031D01*
X119216228Y-459953946D01*
X119211351Y-459940317D01*
X119207834Y-459926276D01*
X119205710Y-459911958D01*
X119205000Y-459897500D01*
X119205000Y-459552500D01*
X119205710Y-459538042D01*
X119207834Y-459523724D01*
X119211351Y-459509683D01*
X119216228Y-459496054D01*
X119222417Y-459482969D01*
X119229858Y-459470553D01*
X119238481Y-459458927D01*
X119248202Y-459448202D01*
X119258927Y-459438481D01*
X119270553Y-459429858D01*
X119282969Y-459422417D01*
X119296054Y-459416228D01*
X119309683Y-459411351D01*
X119323724Y-459407834D01*
X119338042Y-459405710D01*
X119352500Y-459405000D01*
X119647500Y-459405000D01*
X119661958Y-459405710D01*
X119661958Y-459405710D01*
G37*
D17*
X119500000Y-459725000D03*
D15*
G36*
X120631958Y-458380710D02*
G01*
X120646276Y-458382834D01*
X120660317Y-458386351D01*
X120673946Y-458391228D01*
X120687031Y-458397417D01*
X120699447Y-458404858D01*
X120711073Y-458413481D01*
X120721798Y-458423202D01*
X120731519Y-458433927D01*
X120740142Y-458445553D01*
X120747583Y-458457969D01*
X120753772Y-458471054D01*
X120758649Y-458484683D01*
X120762166Y-458498724D01*
X120764290Y-458513042D01*
X120765000Y-458527500D01*
X120765000Y-458872500D01*
X120764290Y-458886958D01*
X120762166Y-458901276D01*
X120758649Y-458915317D01*
X120753772Y-458928946D01*
X120747583Y-458942031D01*
X120740142Y-458954447D01*
X120731519Y-458966073D01*
X120721798Y-458976798D01*
X120711073Y-458986519D01*
X120699447Y-458995142D01*
X120687031Y-459002583D01*
X120673946Y-459008772D01*
X120660317Y-459013649D01*
X120646276Y-459017166D01*
X120631958Y-459019290D01*
X120617500Y-459020000D01*
X120322500Y-459020000D01*
X120308042Y-459019290D01*
X120293724Y-459017166D01*
X120279683Y-459013649D01*
X120266054Y-459008772D01*
X120252969Y-459002583D01*
X120240553Y-458995142D01*
X120228927Y-458986519D01*
X120218202Y-458976798D01*
X120208481Y-458966073D01*
X120199858Y-458954447D01*
X120192417Y-458942031D01*
X120186228Y-458928946D01*
X120181351Y-458915317D01*
X120177834Y-458901276D01*
X120175710Y-458886958D01*
X120175000Y-458872500D01*
X120175000Y-458527500D01*
X120175710Y-458513042D01*
X120177834Y-458498724D01*
X120181351Y-458484683D01*
X120186228Y-458471054D01*
X120192417Y-458457969D01*
X120199858Y-458445553D01*
X120208481Y-458433927D01*
X120218202Y-458423202D01*
X120228927Y-458413481D01*
X120240553Y-458404858D01*
X120252969Y-458397417D01*
X120266054Y-458391228D01*
X120279683Y-458386351D01*
X120293724Y-458382834D01*
X120308042Y-458380710D01*
X120322500Y-458380000D01*
X120617500Y-458380000D01*
X120631958Y-458380710D01*
X120631958Y-458380710D01*
G37*
D17*
X120470000Y-458700000D03*
D15*
G36*
X119661958Y-458380710D02*
G01*
X119676276Y-458382834D01*
X119690317Y-458386351D01*
X119703946Y-458391228D01*
X119717031Y-458397417D01*
X119729447Y-458404858D01*
X119741073Y-458413481D01*
X119751798Y-458423202D01*
X119761519Y-458433927D01*
X119770142Y-458445553D01*
X119777583Y-458457969D01*
X119783772Y-458471054D01*
X119788649Y-458484683D01*
X119792166Y-458498724D01*
X119794290Y-458513042D01*
X119795000Y-458527500D01*
X119795000Y-458872500D01*
X119794290Y-458886958D01*
X119792166Y-458901276D01*
X119788649Y-458915317D01*
X119783772Y-458928946D01*
X119777583Y-458942031D01*
X119770142Y-458954447D01*
X119761519Y-458966073D01*
X119751798Y-458976798D01*
X119741073Y-458986519D01*
X119729447Y-458995142D01*
X119717031Y-459002583D01*
X119703946Y-459008772D01*
X119690317Y-459013649D01*
X119676276Y-459017166D01*
X119661958Y-459019290D01*
X119647500Y-459020000D01*
X119352500Y-459020000D01*
X119338042Y-459019290D01*
X119323724Y-459017166D01*
X119309683Y-459013649D01*
X119296054Y-459008772D01*
X119282969Y-459002583D01*
X119270553Y-458995142D01*
X119258927Y-458986519D01*
X119248202Y-458976798D01*
X119238481Y-458966073D01*
X119229858Y-458954447D01*
X119222417Y-458942031D01*
X119216228Y-458928946D01*
X119211351Y-458915317D01*
X119207834Y-458901276D01*
X119205710Y-458886958D01*
X119205000Y-458872500D01*
X119205000Y-458527500D01*
X119205710Y-458513042D01*
X119207834Y-458498724D01*
X119211351Y-458484683D01*
X119216228Y-458471054D01*
X119222417Y-458457969D01*
X119229858Y-458445553D01*
X119238481Y-458433927D01*
X119248202Y-458423202D01*
X119258927Y-458413481D01*
X119270553Y-458404858D01*
X119282969Y-458397417D01*
X119296054Y-458391228D01*
X119309683Y-458386351D01*
X119323724Y-458382834D01*
X119338042Y-458380710D01*
X119352500Y-458380000D01*
X119647500Y-458380000D01*
X119661958Y-458380710D01*
X119661958Y-458380710D01*
G37*
D17*
X119500000Y-458700000D03*
D15*
G36*
X106091958Y-462130710D02*
G01*
X106106276Y-462132834D01*
X106120317Y-462136351D01*
X106133946Y-462141228D01*
X106147031Y-462147417D01*
X106159447Y-462154858D01*
X106171073Y-462163481D01*
X106181798Y-462173202D01*
X106191519Y-462183927D01*
X106200142Y-462195553D01*
X106207583Y-462207969D01*
X106213772Y-462221054D01*
X106218649Y-462234683D01*
X106222166Y-462248724D01*
X106224290Y-462263042D01*
X106225000Y-462277500D01*
X106225000Y-462622500D01*
X106224290Y-462636958D01*
X106222166Y-462651276D01*
X106218649Y-462665317D01*
X106213772Y-462678946D01*
X106207583Y-462692031D01*
X106200142Y-462704447D01*
X106191519Y-462716073D01*
X106181798Y-462726798D01*
X106171073Y-462736519D01*
X106159447Y-462745142D01*
X106147031Y-462752583D01*
X106133946Y-462758772D01*
X106120317Y-462763649D01*
X106106276Y-462767166D01*
X106091958Y-462769290D01*
X106077500Y-462770000D01*
X105782500Y-462770000D01*
X105768042Y-462769290D01*
X105753724Y-462767166D01*
X105739683Y-462763649D01*
X105726054Y-462758772D01*
X105712969Y-462752583D01*
X105700553Y-462745142D01*
X105688927Y-462736519D01*
X105678202Y-462726798D01*
X105668481Y-462716073D01*
X105659858Y-462704447D01*
X105652417Y-462692031D01*
X105646228Y-462678946D01*
X105641351Y-462665317D01*
X105637834Y-462651276D01*
X105635710Y-462636958D01*
X105635000Y-462622500D01*
X105635000Y-462277500D01*
X105635710Y-462263042D01*
X105637834Y-462248724D01*
X105641351Y-462234683D01*
X105646228Y-462221054D01*
X105652417Y-462207969D01*
X105659858Y-462195553D01*
X105668481Y-462183927D01*
X105678202Y-462173202D01*
X105688927Y-462163481D01*
X105700553Y-462154858D01*
X105712969Y-462147417D01*
X105726054Y-462141228D01*
X105739683Y-462136351D01*
X105753724Y-462132834D01*
X105768042Y-462130710D01*
X105782500Y-462130000D01*
X106077500Y-462130000D01*
X106091958Y-462130710D01*
X106091958Y-462130710D01*
G37*
D17*
X105930000Y-462450000D03*
D15*
G36*
X107061958Y-462130710D02*
G01*
X107076276Y-462132834D01*
X107090317Y-462136351D01*
X107103946Y-462141228D01*
X107117031Y-462147417D01*
X107129447Y-462154858D01*
X107141073Y-462163481D01*
X107151798Y-462173202D01*
X107161519Y-462183927D01*
X107170142Y-462195553D01*
X107177583Y-462207969D01*
X107183772Y-462221054D01*
X107188649Y-462234683D01*
X107192166Y-462248724D01*
X107194290Y-462263042D01*
X107195000Y-462277500D01*
X107195000Y-462622500D01*
X107194290Y-462636958D01*
X107192166Y-462651276D01*
X107188649Y-462665317D01*
X107183772Y-462678946D01*
X107177583Y-462692031D01*
X107170142Y-462704447D01*
X107161519Y-462716073D01*
X107151798Y-462726798D01*
X107141073Y-462736519D01*
X107129447Y-462745142D01*
X107117031Y-462752583D01*
X107103946Y-462758772D01*
X107090317Y-462763649D01*
X107076276Y-462767166D01*
X107061958Y-462769290D01*
X107047500Y-462770000D01*
X106752500Y-462770000D01*
X106738042Y-462769290D01*
X106723724Y-462767166D01*
X106709683Y-462763649D01*
X106696054Y-462758772D01*
X106682969Y-462752583D01*
X106670553Y-462745142D01*
X106658927Y-462736519D01*
X106648202Y-462726798D01*
X106638481Y-462716073D01*
X106629858Y-462704447D01*
X106622417Y-462692031D01*
X106616228Y-462678946D01*
X106611351Y-462665317D01*
X106607834Y-462651276D01*
X106605710Y-462636958D01*
X106605000Y-462622500D01*
X106605000Y-462277500D01*
X106605710Y-462263042D01*
X106607834Y-462248724D01*
X106611351Y-462234683D01*
X106616228Y-462221054D01*
X106622417Y-462207969D01*
X106629858Y-462195553D01*
X106638481Y-462183927D01*
X106648202Y-462173202D01*
X106658927Y-462163481D01*
X106670553Y-462154858D01*
X106682969Y-462147417D01*
X106696054Y-462141228D01*
X106709683Y-462136351D01*
X106723724Y-462132834D01*
X106738042Y-462130710D01*
X106752500Y-462130000D01*
X107047500Y-462130000D01*
X107061958Y-462130710D01*
X107061958Y-462130710D01*
G37*
D17*
X106900000Y-462450000D03*
D15*
G36*
X114511958Y-467800710D02*
G01*
X114526276Y-467802834D01*
X114540317Y-467806351D01*
X114553946Y-467811228D01*
X114567031Y-467817417D01*
X114579447Y-467824858D01*
X114591073Y-467833481D01*
X114601798Y-467843202D01*
X114611519Y-467853927D01*
X114620142Y-467865553D01*
X114627583Y-467877969D01*
X114633772Y-467891054D01*
X114638649Y-467904683D01*
X114642166Y-467918724D01*
X114644290Y-467933042D01*
X114645000Y-467947500D01*
X114645000Y-468242500D01*
X114644290Y-468256958D01*
X114642166Y-468271276D01*
X114638649Y-468285317D01*
X114633772Y-468298946D01*
X114627583Y-468312031D01*
X114620142Y-468324447D01*
X114611519Y-468336073D01*
X114601798Y-468346798D01*
X114591073Y-468356519D01*
X114579447Y-468365142D01*
X114567031Y-468372583D01*
X114553946Y-468378772D01*
X114540317Y-468383649D01*
X114526276Y-468387166D01*
X114511958Y-468389290D01*
X114497500Y-468390000D01*
X114152500Y-468390000D01*
X114138042Y-468389290D01*
X114123724Y-468387166D01*
X114109683Y-468383649D01*
X114096054Y-468378772D01*
X114082969Y-468372583D01*
X114070553Y-468365142D01*
X114058927Y-468356519D01*
X114048202Y-468346798D01*
X114038481Y-468336073D01*
X114029858Y-468324447D01*
X114022417Y-468312031D01*
X114016228Y-468298946D01*
X114011351Y-468285317D01*
X114007834Y-468271276D01*
X114005710Y-468256958D01*
X114005000Y-468242500D01*
X114005000Y-467947500D01*
X114005710Y-467933042D01*
X114007834Y-467918724D01*
X114011351Y-467904683D01*
X114016228Y-467891054D01*
X114022417Y-467877969D01*
X114029858Y-467865553D01*
X114038481Y-467853927D01*
X114048202Y-467843202D01*
X114058927Y-467833481D01*
X114070553Y-467824858D01*
X114082969Y-467817417D01*
X114096054Y-467811228D01*
X114109683Y-467806351D01*
X114123724Y-467802834D01*
X114138042Y-467800710D01*
X114152500Y-467800000D01*
X114497500Y-467800000D01*
X114511958Y-467800710D01*
X114511958Y-467800710D01*
G37*
D17*
X114325000Y-468095000D03*
D15*
G36*
X114511958Y-466830710D02*
G01*
X114526276Y-466832834D01*
X114540317Y-466836351D01*
X114553946Y-466841228D01*
X114567031Y-466847417D01*
X114579447Y-466854858D01*
X114591073Y-466863481D01*
X114601798Y-466873202D01*
X114611519Y-466883927D01*
X114620142Y-466895553D01*
X114627583Y-466907969D01*
X114633772Y-466921054D01*
X114638649Y-466934683D01*
X114642166Y-466948724D01*
X114644290Y-466963042D01*
X114645000Y-466977500D01*
X114645000Y-467272500D01*
X114644290Y-467286958D01*
X114642166Y-467301276D01*
X114638649Y-467315317D01*
X114633772Y-467328946D01*
X114627583Y-467342031D01*
X114620142Y-467354447D01*
X114611519Y-467366073D01*
X114601798Y-467376798D01*
X114591073Y-467386519D01*
X114579447Y-467395142D01*
X114567031Y-467402583D01*
X114553946Y-467408772D01*
X114540317Y-467413649D01*
X114526276Y-467417166D01*
X114511958Y-467419290D01*
X114497500Y-467420000D01*
X114152500Y-467420000D01*
X114138042Y-467419290D01*
X114123724Y-467417166D01*
X114109683Y-467413649D01*
X114096054Y-467408772D01*
X114082969Y-467402583D01*
X114070553Y-467395142D01*
X114058927Y-467386519D01*
X114048202Y-467376798D01*
X114038481Y-467366073D01*
X114029858Y-467354447D01*
X114022417Y-467342031D01*
X114016228Y-467328946D01*
X114011351Y-467315317D01*
X114007834Y-467301276D01*
X114005710Y-467286958D01*
X114005000Y-467272500D01*
X114005000Y-466977500D01*
X114005710Y-466963042D01*
X114007834Y-466948724D01*
X114011351Y-466934683D01*
X114016228Y-466921054D01*
X114022417Y-466907969D01*
X114029858Y-466895553D01*
X114038481Y-466883927D01*
X114048202Y-466873202D01*
X114058927Y-466863481D01*
X114070553Y-466854858D01*
X114082969Y-466847417D01*
X114096054Y-466841228D01*
X114109683Y-466836351D01*
X114123724Y-466832834D01*
X114138042Y-466830710D01*
X114152500Y-466830000D01*
X114497500Y-466830000D01*
X114511958Y-466830710D01*
X114511958Y-466830710D01*
G37*
D17*
X114325000Y-467125000D03*
D11*
X115180000Y-393575000D03*
X114380000Y-393575000D03*
X115180000Y-393575000D03*
X114380000Y-393575000D03*
X108780000Y-393575000D03*
X108780000Y-393575000D03*
X109580000Y-393575000D03*
X109580000Y-393575000D03*
D12*
X113730000Y-393575000D03*
X112730000Y-393575000D03*
X113230000Y-393575000D03*
X110730000Y-393575000D03*
X110230000Y-393575000D03*
X112230000Y-393575000D03*
X111730000Y-393575000D03*
X111230000Y-393575000D03*
D18*
X168300000Y-450775000D03*
X168300000Y-460275000D03*
D19*
X146905000Y-458100000D03*
X145635000Y-458100000D03*
X144365000Y-458100000D03*
X143095000Y-458100000D03*
X143095000Y-465300000D03*
X144365000Y-465300000D03*
X145635000Y-465300000D03*
X146905000Y-465300000D03*
D20*
X156400000Y-457000000D03*
D21*
X152950000Y-454400000D03*
X152950000Y-454800000D03*
X152950000Y-455200000D03*
X152950000Y-455600000D03*
X152950000Y-456000000D03*
X152950000Y-456400000D03*
X152950000Y-456800000D03*
X152950000Y-457200000D03*
X152950000Y-457600000D03*
X152950000Y-458000000D03*
X152950000Y-458400000D03*
X152950000Y-458800000D03*
X152950000Y-459200000D03*
X152950000Y-459600000D03*
D22*
X153800000Y-460450000D03*
X154200000Y-460450000D03*
X154600000Y-460450000D03*
X155000000Y-460450000D03*
X155400000Y-460450000D03*
X155800000Y-460450000D03*
X156200000Y-460450000D03*
X156600000Y-460450000D03*
X157000000Y-460450000D03*
X157400000Y-460450000D03*
X157800000Y-460450000D03*
X158200000Y-460450000D03*
X158600000Y-460450000D03*
X159000000Y-460450000D03*
D21*
X159850000Y-459600000D03*
X159850000Y-459200000D03*
X159850000Y-458800000D03*
X159850000Y-458400000D03*
X159850000Y-458000000D03*
X159850000Y-457600000D03*
X159850000Y-457200000D03*
X159850000Y-456800000D03*
X159850000Y-456400000D03*
X159850000Y-456000000D03*
X159850000Y-455600000D03*
X159850000Y-455200000D03*
X159850000Y-454800000D03*
X159850000Y-454400000D03*
D22*
X159000000Y-453550000D03*
X158600000Y-453550000D03*
X158200000Y-453550000D03*
X157800000Y-453550000D03*
X157400000Y-453550000D03*
X157000000Y-453550000D03*
X156600000Y-453550000D03*
X156200000Y-453550000D03*
X155800000Y-453550000D03*
X155400000Y-453550000D03*
X155000000Y-453550000D03*
X154600000Y-453550000D03*
X154200000Y-453550000D03*
X153800000Y-453550000D03*
D18*
X124350000Y-457325000D03*
X124350000Y-466825000D03*
D19*
X99045000Y-461910000D03*
X100315000Y-461910000D03*
X101585000Y-461910000D03*
X102855000Y-461910000D03*
X102855000Y-454710000D03*
X101585000Y-454710000D03*
X100315000Y-454710000D03*
X99045000Y-454710000D03*
D20*
X112800000Y-461950000D03*
D21*
X109350000Y-459350000D03*
X109350000Y-459750000D03*
X109350000Y-460150000D03*
X109350000Y-460550000D03*
X109350000Y-460950000D03*
X109350000Y-461350000D03*
X109350000Y-461750000D03*
X109350000Y-462150000D03*
X109350000Y-462550000D03*
X109350000Y-462950000D03*
X109350000Y-463350000D03*
X109350000Y-463750000D03*
X109350000Y-464150000D03*
X109350000Y-464550000D03*
D22*
X110200000Y-465400000D03*
X110600000Y-465400000D03*
X111000000Y-465400000D03*
X111400000Y-465400000D03*
X111800000Y-465400000D03*
X112200000Y-465400000D03*
X112600000Y-465400000D03*
X113000000Y-465400000D03*
X113400000Y-465400000D03*
X113800000Y-465400000D03*
X114200000Y-465400000D03*
X114600000Y-465400000D03*
X115000000Y-465400000D03*
X115400000Y-465400000D03*
D21*
X116250000Y-464550000D03*
X116250000Y-464150000D03*
X116250000Y-463750000D03*
X116250000Y-463350000D03*
X116250000Y-462950000D03*
X116250000Y-462550000D03*
X116250000Y-462150000D03*
X116250000Y-461750000D03*
X116250000Y-461350000D03*
X116250000Y-460950000D03*
X116250000Y-460550000D03*
X116250000Y-460150000D03*
X116250000Y-459750000D03*
X116250000Y-459350000D03*
D22*
X115400000Y-458500000D03*
X115000000Y-458500000D03*
X114600000Y-458500000D03*
X114200000Y-458500000D03*
X113800000Y-458500000D03*
X113400000Y-458500000D03*
X113000000Y-458500000D03*
X112600000Y-458500000D03*
X112200000Y-458500000D03*
X111800000Y-458500000D03*
X111400000Y-458500000D03*
X111000000Y-458500000D03*
X110600000Y-458500000D03*
X110200000Y-458500000D03*
D15*
G36*
X112469504Y-413346204D02*
G01*
X112493773Y-413349804D01*
X112517571Y-413355765D01*
X112540671Y-413364030D01*
X112562849Y-413374520D01*
X112583893Y-413387133D01*
X112603598Y-413401747D01*
X112621777Y-413418223D01*
X112638253Y-413436402D01*
X112652867Y-413456107D01*
X112665480Y-413477151D01*
X112675970Y-413499329D01*
X112684235Y-413522429D01*
X112690196Y-413546227D01*
X112693796Y-413570496D01*
X112695000Y-413595000D01*
X112695000Y-414345000D01*
X112693796Y-414369504D01*
X112690196Y-414393773D01*
X112684235Y-414417571D01*
X112675970Y-414440671D01*
X112665480Y-414462849D01*
X112652867Y-414483893D01*
X112638253Y-414503598D01*
X112621777Y-414521777D01*
X112603598Y-414538253D01*
X112583893Y-414552867D01*
X112562849Y-414565480D01*
X112540671Y-414575970D01*
X112517571Y-414584235D01*
X112493773Y-414590196D01*
X112469504Y-414593796D01*
X112445000Y-414595000D01*
X111195000Y-414595000D01*
X111170496Y-414593796D01*
X111146227Y-414590196D01*
X111122429Y-414584235D01*
X111099329Y-414575970D01*
X111077151Y-414565480D01*
X111056107Y-414552867D01*
X111036402Y-414538253D01*
X111018223Y-414521777D01*
X111001747Y-414503598D01*
X110987133Y-414483893D01*
X110974520Y-414462849D01*
X110964030Y-414440671D01*
X110955765Y-414417571D01*
X110949804Y-414393773D01*
X110946204Y-414369504D01*
X110945000Y-414345000D01*
X110945000Y-413595000D01*
X110946204Y-413570496D01*
X110949804Y-413546227D01*
X110955765Y-413522429D01*
X110964030Y-413499329D01*
X110974520Y-413477151D01*
X110987133Y-413456107D01*
X111001747Y-413436402D01*
X111018223Y-413418223D01*
X111036402Y-413401747D01*
X111056107Y-413387133D01*
X111077151Y-413374520D01*
X111099329Y-413364030D01*
X111122429Y-413355765D01*
X111146227Y-413349804D01*
X111170496Y-413346204D01*
X111195000Y-413345000D01*
X112445000Y-413345000D01*
X112469504Y-413346204D01*
X112469504Y-413346204D01*
G37*
D16*
X111820000Y-413970000D03*
D15*
G36*
X112469504Y-416146204D02*
G01*
X112493773Y-416149804D01*
X112517571Y-416155765D01*
X112540671Y-416164030D01*
X112562849Y-416174520D01*
X112583893Y-416187133D01*
X112603598Y-416201747D01*
X112621777Y-416218223D01*
X112638253Y-416236402D01*
X112652867Y-416256107D01*
X112665480Y-416277151D01*
X112675970Y-416299329D01*
X112684235Y-416322429D01*
X112690196Y-416346227D01*
X112693796Y-416370496D01*
X112695000Y-416395000D01*
X112695000Y-417145000D01*
X112693796Y-417169504D01*
X112690196Y-417193773D01*
X112684235Y-417217571D01*
X112675970Y-417240671D01*
X112665480Y-417262849D01*
X112652867Y-417283893D01*
X112638253Y-417303598D01*
X112621777Y-417321777D01*
X112603598Y-417338253D01*
X112583893Y-417352867D01*
X112562849Y-417365480D01*
X112540671Y-417375970D01*
X112517571Y-417384235D01*
X112493773Y-417390196D01*
X112469504Y-417393796D01*
X112445000Y-417395000D01*
X111195000Y-417395000D01*
X111170496Y-417393796D01*
X111146227Y-417390196D01*
X111122429Y-417384235D01*
X111099329Y-417375970D01*
X111077151Y-417365480D01*
X111056107Y-417352867D01*
X111036402Y-417338253D01*
X111018223Y-417321777D01*
X111001747Y-417303598D01*
X110987133Y-417283893D01*
X110974520Y-417262849D01*
X110964030Y-417240671D01*
X110955765Y-417217571D01*
X110949804Y-417193773D01*
X110946204Y-417169504D01*
X110945000Y-417145000D01*
X110945000Y-416395000D01*
X110946204Y-416370496D01*
X110949804Y-416346227D01*
X110955765Y-416322429D01*
X110964030Y-416299329D01*
X110974520Y-416277151D01*
X110987133Y-416256107D01*
X111001747Y-416236402D01*
X111018223Y-416218223D01*
X111036402Y-416201747D01*
X111056107Y-416187133D01*
X111077151Y-416174520D01*
X111099329Y-416164030D01*
X111122429Y-416155765D01*
X111146227Y-416149804D01*
X111170496Y-416146204D01*
X111195000Y-416145000D01*
X112445000Y-416145000D01*
X112469504Y-416146204D01*
X112469504Y-416146204D01*
G37*
D16*
X111820000Y-416770000D03*
M02*
