G04 #@! TF.GenerationSoftware,KiCad,Pcbnew,(5.1.4)-1*
G04 #@! TF.CreationDate,2023-06-17T21:44:23-04:00*
G04 #@! TF.ProjectId,ThumbsUp,5468756d-6273-4557-902e-6b696361645f,rev?*
G04 #@! TF.SameCoordinates,Original*
G04 #@! TF.FileFunction,Profile,NP*
%FSLAX46Y46*%
G04 Gerber Fmt 4.6, Leading zero omitted, Abs format (unit mm)*
G04 Created by KiCad (PCBNEW (5.1.4)-1) date 2023-06-17 21:44:23*
%MOMM*%
%LPD*%
G04 APERTURE LIST*
%ADD10C,0.050000*%
G04 APERTURE END LIST*
D10*
X136000000Y-458130000D02*
X136002490Y-458734349D01*
X130340000Y-458130000D02*
X136000000Y-458130000D01*
X130334214Y-458738116D02*
X130340000Y-458130000D01*
X130330000Y-452030000D02*
X130330000Y-420160000D01*
X136010000Y-452030000D02*
X130330000Y-452030000D01*
X136000000Y-420160000D02*
X136010000Y-452030000D01*
X130330000Y-420160000D02*
X136000000Y-420160000D01*
X130330000Y-413930000D02*
X130320000Y-397550000D01*
X136010000Y-413930000D02*
X130330000Y-413930000D01*
X136020000Y-397550000D02*
X136010000Y-413930000D01*
X130320000Y-397550000D02*
X136020000Y-397550000D01*
X136020000Y-391330000D02*
X136021905Y-389806391D01*
X130320000Y-391330000D02*
X136020000Y-391330000D01*
X130314797Y-389810158D02*
X130320000Y-391330000D01*
X75800000Y-440500000D02*
X70800000Y-445500000D01*
X70800000Y-445500000D02*
X56700000Y-445500000D01*
X93900000Y-440500000D02*
X94900000Y-439500000D01*
X93900000Y-440500000D02*
X75800000Y-440500000D01*
X171400000Y-439500000D02*
X172400000Y-440500000D01*
X209700000Y-445500000D02*
X211712025Y-447600000D01*
X190700000Y-440500000D02*
X195700000Y-445500000D01*
X209700000Y-445500000D02*
X195700000Y-445500000D01*
X190700000Y-440500000D02*
X172400000Y-440500000D01*
X200912025Y-460110323D02*
X146303913Y-474809185D01*
X168712025Y-387660322D02*
X171412025Y-390360322D01*
X65232790Y-460112952D02*
X65432790Y-460112952D01*
X94932790Y-390362952D02*
X94900000Y-439500000D01*
X171412025Y-390360322D02*
X171400000Y-439500000D01*
X211712025Y-447600000D02*
X211712025Y-458910323D01*
X201112025Y-460110322D02*
X210312025Y-460110323D01*
X201112025Y-460110322D02*
X200912025Y-460110323D01*
X211712025Y-458910323D02*
X210312025Y-460110323D01*
X129254192Y-473950399D02*
X120032789Y-474812952D01*
X168712025Y-387660322D02*
X138212026Y-387660322D01*
X129254192Y-473950399D02*
X132132325Y-463188599D01*
X130334214Y-458738116D02*
X132132325Y-463188599D01*
X130314797Y-389810158D02*
X128132789Y-387662952D01*
X97632790Y-387662952D02*
X94932790Y-390362952D01*
X97632790Y-387662952D02*
X128132789Y-387662952D01*
X54632790Y-447700000D02*
X54632789Y-458912952D01*
X54632790Y-447700000D02*
X56700000Y-445500000D01*
X54632789Y-458912952D02*
X56032790Y-460112952D01*
X65232790Y-460112952D02*
X56032790Y-460112952D01*
X136021905Y-389806391D02*
X138212026Y-387660322D01*
X137082510Y-473946632D02*
X146303913Y-474809185D01*
X136002490Y-458734349D02*
X134204378Y-463184833D01*
X137082510Y-473946632D02*
X134204378Y-463184833D01*
X120032789Y-474812952D02*
X65432790Y-460112952D01*
M02*
