M48
; DRILL file {KiCad (5.1.4)-1} date 6/17/2023 6:30:07 PM
; FORMAT={-:-/ absolute / metric / decimal}
; #@! TF.CreationDate,2023-06-17T18:30:07-04:00
; #@! TF.GenerationSoftware,Kicad,Pcbnew,(5.1.4)-1
; #@! TF.FileFunction,Plated,1,2,PTH
FMAT,2
METRIC
T1C1.000
T2C1.470
%
G90
G05
T1
X54.063Y-578.573
X54.063Y-581.113
X54.063Y-583.653
X54.063Y-586.193
X96.064Y-537.315
X98.604Y-537.315
X101.144Y-537.315
X103.684Y-537.315
X108.863Y-598.493
X111.316Y-599.15
X113.77Y-599.808
X116.223Y-600.465
X126.406Y-518.478
X126.406Y-521.018
X126.406Y-523.558
X126.406Y-526.098
X126.471Y-549.605
X126.471Y-552.145
X126.471Y-554.685
X126.471Y-557.225
X95.046Y-517.196
X97.586Y-517.196
X100.126Y-517.196
X102.666Y-517.196
X95.907Y-556.401
X98.447Y-556.401
X100.987Y-556.401
X103.527Y-556.401
T2
X58.203Y-559.403
X59.513Y-557.943
X64.513Y-557.443
X64.553Y-556.863
X20.103Y-541.353
X21.413Y-539.893
X26.413Y-539.393
X26.453Y-538.813
X21.373Y-568.023
X21.413Y-567.443
X26.413Y-566.943
X27.723Y-565.483
X58.203Y-521.303
X59.513Y-519.843
X64.513Y-519.343
X64.553Y-518.763
X77.253Y-554.403
X78.563Y-552.943
X83.563Y-552.443
X83.603Y-551.863
X77.253Y-516.303
X78.563Y-514.843
X83.563Y-514.343
X83.603Y-513.763
X39.153Y-564.403
X40.463Y-562.943
X45.463Y-562.443
X45.503Y-561.863
X39.153Y-526.303
X40.463Y-524.843
X45.463Y-524.343
X45.503Y-523.763
X20.103Y-522.303
X21.413Y-520.843
X26.413Y-520.343
X26.453Y-519.763
X77.253Y-535.353
X78.563Y-533.893
X83.563Y-533.393
X83.603Y-532.813
X39.153Y-545.353
X40.463Y-543.893
X45.463Y-543.393
X45.503Y-542.813
X58.203Y-540.353
X59.513Y-538.893
X64.513Y-538.393
X64.553Y-537.813
T0
M30
