G04 #@! TF.GenerationSoftware,KiCad,Pcbnew,(5.1.4)-1*
G04 #@! TF.CreationDate,2023-06-17T18:31:40-04:00*
G04 #@! TF.ProjectId,ThumbsUp,5468756d-6273-4557-902e-6b696361645f,rev?*
G04 #@! TF.SameCoordinates,Original*
G04 #@! TF.FileFunction,Legend,Bot*
G04 #@! TF.FilePolarity,Positive*
%FSLAX46Y46*%
G04 Gerber Fmt 4.6, Leading zero omitted, Abs format (unit mm)*
G04 Created by KiCad (PCBNEW (5.1.4)-1) date 2023-06-17 18:31:40*
%MOMM*%
%LPD*%
G04 APERTURE LIST*
%ADD10C,0.150000*%
%ADD11C,0.200000*%
%ADD12C,0.120000*%
%ADD13C,0.100000*%
%ADD14C,0.254000*%
G04 APERTURE END LIST*
D10*
X125659047Y-444515714D02*
X125659047Y-445182380D01*
X126087619Y-444515714D02*
X126087619Y-445039523D01*
X126040000Y-445134761D01*
X125944761Y-445182380D01*
X125801904Y-445182380D01*
X125706666Y-445134761D01*
X125659047Y-445087142D01*
X124468571Y-444134761D02*
X125325714Y-445420476D01*
X124182857Y-444896666D02*
X123706666Y-444896666D01*
X124278095Y-445182380D02*
X123944761Y-444182380D01*
X123611428Y-445182380D01*
X123278095Y-445182380D02*
X123278095Y-444182380D01*
X122706666Y-445182380D02*
X123135238Y-444610952D01*
X122706666Y-444182380D02*
X123278095Y-444753809D01*
X121849523Y-444182380D02*
X122040000Y-444182380D01*
X122135238Y-444230000D01*
X122182857Y-444277619D01*
X122278095Y-444420476D01*
X122325714Y-444610952D01*
X122325714Y-444991904D01*
X122278095Y-445087142D01*
X122230476Y-445134761D01*
X122135238Y-445182380D01*
X121944761Y-445182380D01*
X121849523Y-445134761D01*
X121801904Y-445087142D01*
X121754285Y-444991904D01*
X121754285Y-444753809D01*
X121801904Y-444658571D01*
X121849523Y-444610952D01*
X121944761Y-444563333D01*
X122135238Y-444563333D01*
X122230476Y-444610952D01*
X122278095Y-444658571D01*
X122325714Y-444753809D01*
X120897142Y-444182380D02*
X121087619Y-444182380D01*
X121182857Y-444230000D01*
X121230476Y-444277619D01*
X121325714Y-444420476D01*
X121373333Y-444610952D01*
X121373333Y-444991904D01*
X121325714Y-445087142D01*
X121278095Y-445134761D01*
X121182857Y-445182380D01*
X120992380Y-445182380D01*
X120897142Y-445134761D01*
X120849523Y-445087142D01*
X120801904Y-444991904D01*
X120801904Y-444753809D01*
X120849523Y-444658571D01*
X120897142Y-444610952D01*
X120992380Y-444563333D01*
X121182857Y-444563333D01*
X121278095Y-444610952D01*
X121325714Y-444658571D01*
X121373333Y-444753809D01*
X119944761Y-444182380D02*
X120135238Y-444182380D01*
X120230476Y-444230000D01*
X120278095Y-444277619D01*
X120373333Y-444420476D01*
X120420952Y-444610952D01*
X120420952Y-444991904D01*
X120373333Y-445087142D01*
X120325714Y-445134761D01*
X120230476Y-445182380D01*
X120040000Y-445182380D01*
X119944761Y-445134761D01*
X119897142Y-445087142D01*
X119849523Y-444991904D01*
X119849523Y-444753809D01*
X119897142Y-444658571D01*
X119944761Y-444610952D01*
X120040000Y-444563333D01*
X120230476Y-444563333D01*
X120325714Y-444610952D01*
X120373333Y-444658571D01*
X120420952Y-444753809D01*
X118992380Y-444182380D02*
X119182857Y-444182380D01*
X119278095Y-444230000D01*
X119325714Y-444277619D01*
X119420952Y-444420476D01*
X119468571Y-444610952D01*
X119468571Y-444991904D01*
X119420952Y-445087142D01*
X119373333Y-445134761D01*
X119278095Y-445182380D01*
X119087619Y-445182380D01*
X118992380Y-445134761D01*
X118944761Y-445087142D01*
X118897142Y-444991904D01*
X118897142Y-444753809D01*
X118944761Y-444658571D01*
X118992380Y-444610952D01*
X119087619Y-444563333D01*
X119278095Y-444563333D01*
X119373333Y-444610952D01*
X119420952Y-444658571D01*
X119468571Y-444753809D01*
X118040000Y-444182380D02*
X118230476Y-444182380D01*
X118325714Y-444230000D01*
X118373333Y-444277619D01*
X118468571Y-444420476D01*
X118516190Y-444610952D01*
X118516190Y-444991904D01*
X118468571Y-445087142D01*
X118420952Y-445134761D01*
X118325714Y-445182380D01*
X118135238Y-445182380D01*
X118040000Y-445134761D01*
X117992380Y-445087142D01*
X117944761Y-444991904D01*
X117944761Y-444753809D01*
X117992380Y-444658571D01*
X118040000Y-444610952D01*
X118135238Y-444563333D01*
X118325714Y-444563333D01*
X118420952Y-444610952D01*
X118468571Y-444658571D01*
X118516190Y-444753809D01*
X128635238Y-445832380D02*
X128063809Y-445832380D01*
X128349523Y-446832380D02*
X128349523Y-445832380D01*
X127730476Y-446832380D02*
X127730476Y-445832380D01*
X127301904Y-446832380D02*
X127301904Y-446308571D01*
X127349523Y-446213333D01*
X127444761Y-446165714D01*
X127587619Y-446165714D01*
X127682857Y-446213333D01*
X127730476Y-446260952D01*
X126397142Y-446165714D02*
X126397142Y-446832380D01*
X126825714Y-446165714D02*
X126825714Y-446689523D01*
X126778095Y-446784761D01*
X126682857Y-446832380D01*
X126540000Y-446832380D01*
X126444761Y-446784761D01*
X126397142Y-446737142D01*
X125920952Y-446832380D02*
X125920952Y-446165714D01*
X125920952Y-446260952D02*
X125873333Y-446213333D01*
X125778095Y-446165714D01*
X125635238Y-446165714D01*
X125540000Y-446213333D01*
X125492380Y-446308571D01*
X125492380Y-446832380D01*
X125492380Y-446308571D02*
X125444761Y-446213333D01*
X125349523Y-446165714D01*
X125206666Y-446165714D01*
X125111428Y-446213333D01*
X125063809Y-446308571D01*
X125063809Y-446832380D01*
X124587619Y-446832380D02*
X124587619Y-445832380D01*
X124587619Y-446213333D02*
X124492380Y-446165714D01*
X124301904Y-446165714D01*
X124206666Y-446213333D01*
X124159047Y-446260952D01*
X124111428Y-446356190D01*
X124111428Y-446641904D01*
X124159047Y-446737142D01*
X124206666Y-446784761D01*
X124301904Y-446832380D01*
X124492380Y-446832380D01*
X124587619Y-446784761D01*
X123730476Y-446784761D02*
X123635238Y-446832380D01*
X123444761Y-446832380D01*
X123349523Y-446784761D01*
X123301904Y-446689523D01*
X123301904Y-446641904D01*
X123349523Y-446546666D01*
X123444761Y-446499047D01*
X123587619Y-446499047D01*
X123682857Y-446451428D01*
X123730476Y-446356190D01*
X123730476Y-446308571D01*
X123682857Y-446213333D01*
X123587619Y-446165714D01*
X123444761Y-446165714D01*
X123349523Y-446213333D01*
X122873333Y-445832380D02*
X122873333Y-446641904D01*
X122825714Y-446737142D01*
X122778095Y-446784761D01*
X122682857Y-446832380D01*
X122492380Y-446832380D01*
X122397142Y-446784761D01*
X122349523Y-446737142D01*
X122301904Y-446641904D01*
X122301904Y-445832380D01*
X121825714Y-446165714D02*
X121825714Y-447165714D01*
X121825714Y-446213333D02*
X121730476Y-446165714D01*
X121540000Y-446165714D01*
X121444761Y-446213333D01*
X121397142Y-446260952D01*
X121349523Y-446356190D01*
X121349523Y-446641904D01*
X121397142Y-446737142D01*
X121444761Y-446784761D01*
X121540000Y-446832380D01*
X121730476Y-446832380D01*
X121825714Y-446784761D01*
X120920952Y-446737142D02*
X120873333Y-446784761D01*
X120920952Y-446832380D01*
X120968571Y-446784761D01*
X120920952Y-446737142D01*
X120920952Y-446832380D01*
X120920952Y-446451428D02*
X120968571Y-445880000D01*
X120920952Y-445832380D01*
X120873333Y-445880000D01*
X120920952Y-446451428D01*
X120920952Y-445832380D01*
X119778095Y-446165714D02*
X119540000Y-446832380D01*
X119301904Y-446165714D01*
X118492380Y-445832380D02*
X118682857Y-445832380D01*
X118778095Y-445880000D01*
X118825714Y-445927619D01*
X118920952Y-446070476D01*
X118968571Y-446260952D01*
X118968571Y-446641904D01*
X118920952Y-446737142D01*
X118873333Y-446784761D01*
X118778095Y-446832380D01*
X118587619Y-446832380D01*
X118492380Y-446784761D01*
X118444761Y-446737142D01*
X118397142Y-446641904D01*
X118397142Y-446403809D01*
X118444761Y-446308571D01*
X118492380Y-446260952D01*
X118587619Y-446213333D01*
X118778095Y-446213333D01*
X118873333Y-446260952D01*
X118920952Y-446308571D01*
X118968571Y-446403809D01*
X117206666Y-446832380D02*
X117206666Y-445832380D01*
X116873333Y-446546666D01*
X116540000Y-445832380D01*
X116540000Y-446832380D01*
X116159047Y-445832380D02*
X115492380Y-446832380D01*
X115492380Y-445832380D02*
X116159047Y-446832380D01*
X126897142Y-447577619D02*
X126849523Y-447530000D01*
X126754285Y-447482380D01*
X126516190Y-447482380D01*
X126420952Y-447530000D01*
X126373333Y-447577619D01*
X126325714Y-447672857D01*
X126325714Y-447768095D01*
X126373333Y-447910952D01*
X126944761Y-448482380D01*
X126325714Y-448482380D01*
X125706666Y-447482380D02*
X125611428Y-447482380D01*
X125516190Y-447530000D01*
X125468571Y-447577619D01*
X125420952Y-447672857D01*
X125373333Y-447863333D01*
X125373333Y-448101428D01*
X125420952Y-448291904D01*
X125468571Y-448387142D01*
X125516190Y-448434761D01*
X125611428Y-448482380D01*
X125706666Y-448482380D01*
X125801904Y-448434761D01*
X125849523Y-448387142D01*
X125897142Y-448291904D01*
X125944761Y-448101428D01*
X125944761Y-447863333D01*
X125897142Y-447672857D01*
X125849523Y-447577619D01*
X125801904Y-447530000D01*
X125706666Y-447482380D01*
X124992380Y-447577619D02*
X124944761Y-447530000D01*
X124849523Y-447482380D01*
X124611428Y-447482380D01*
X124516190Y-447530000D01*
X124468571Y-447577619D01*
X124420952Y-447672857D01*
X124420952Y-447768095D01*
X124468571Y-447910952D01*
X125040000Y-448482380D01*
X124420952Y-448482380D01*
X124087619Y-447482380D02*
X123468571Y-447482380D01*
X123801904Y-447863333D01*
X123659047Y-447863333D01*
X123563809Y-447910952D01*
X123516190Y-447958571D01*
X123468571Y-448053809D01*
X123468571Y-448291904D01*
X123516190Y-448387142D01*
X123563809Y-448434761D01*
X123659047Y-448482380D01*
X123944761Y-448482380D01*
X124040000Y-448434761D01*
X124087619Y-448387142D01*
X123040000Y-448101428D02*
X122278095Y-448101428D01*
X121611428Y-447482380D02*
X121516190Y-447482380D01*
X121420952Y-447530000D01*
X121373333Y-447577619D01*
X121325714Y-447672857D01*
X121278095Y-447863333D01*
X121278095Y-448101428D01*
X121325714Y-448291904D01*
X121373333Y-448387142D01*
X121420952Y-448434761D01*
X121516190Y-448482380D01*
X121611428Y-448482380D01*
X121706666Y-448434761D01*
X121754285Y-448387142D01*
X121801904Y-448291904D01*
X121849523Y-448101428D01*
X121849523Y-447863333D01*
X121801904Y-447672857D01*
X121754285Y-447577619D01*
X121706666Y-447530000D01*
X121611428Y-447482380D01*
X120420952Y-447482380D02*
X120611428Y-447482380D01*
X120706666Y-447530000D01*
X120754285Y-447577619D01*
X120849523Y-447720476D01*
X120897142Y-447910952D01*
X120897142Y-448291904D01*
X120849523Y-448387142D01*
X120801904Y-448434761D01*
X120706666Y-448482380D01*
X120516190Y-448482380D01*
X120420952Y-448434761D01*
X120373333Y-448387142D01*
X120325714Y-448291904D01*
X120325714Y-448053809D01*
X120373333Y-447958571D01*
X120420952Y-447910952D01*
X120516190Y-447863333D01*
X120706666Y-447863333D01*
X120801904Y-447910952D01*
X120849523Y-447958571D01*
X120897142Y-448053809D01*
X119897142Y-448101428D02*
X119135238Y-448101428D01*
X118135238Y-448482380D02*
X118706666Y-448482380D01*
X118420952Y-448482380D02*
X118420952Y-447482380D01*
X118516190Y-447625238D01*
X118611428Y-447720476D01*
X118706666Y-447768095D01*
X117278095Y-447815714D02*
X117278095Y-448482380D01*
X117516190Y-447434761D02*
X117754285Y-448149047D01*
X117135238Y-448149047D01*
D11*
X109920000Y-430505000D02*
X111220000Y-430505000D01*
X112168000Y-424138000D02*
X112168000Y-430642000D01*
X115672000Y-424138000D02*
X112168000Y-424138000D01*
X115672000Y-430642000D02*
X115672000Y-424138000D01*
X112168000Y-430642000D02*
X115672000Y-430642000D01*
D12*
X111060000Y-434812064D02*
X111060000Y-433607936D01*
X113780000Y-434812064D02*
X113780000Y-433607936D01*
D13*
X86910920Y-462746986D02*
X87431929Y-460816041D01*
X81118085Y-461183959D02*
X81639094Y-459253014D01*
X81562548Y-463375409D02*
X85424439Y-464417427D01*
X83125575Y-457582573D02*
X86987466Y-458624591D01*
X77133175Y-460146986D02*
X77654184Y-458216041D01*
X71340340Y-458583959D02*
X71861349Y-456653014D01*
X71784803Y-460775409D02*
X75646694Y-461817427D01*
X73347830Y-454982573D02*
X77209721Y-456024591D01*
D12*
X106460000Y-391150000D02*
X106460000Y-389820000D01*
X105130000Y-391150000D02*
X106460000Y-391150000D01*
X103860000Y-391150000D02*
X103860000Y-388490000D01*
X103860000Y-388490000D02*
X96180000Y-388490000D01*
X103860000Y-391150000D02*
X96180000Y-391150000D01*
X96180000Y-391150000D02*
X96180000Y-388490000D01*
X107510000Y-391835000D02*
X107510000Y-390035000D01*
X107510000Y-386325000D02*
X107510000Y-387785000D01*
X116450000Y-386325000D02*
X116450000Y-387785000D01*
X116450000Y-391835000D02*
X116450000Y-390035000D01*
X116450000Y-386325000D02*
X107510000Y-386325000D01*
D11*
X125900000Y-412150000D02*
G75*
G03X125900000Y-412250000I0J-50000D01*
G01*
X125900000Y-412250000D02*
G75*
G03X125900000Y-412150000I0J50000D01*
G01*
X125900000Y-412150000D02*
G75*
G03X125900000Y-412250000I0J-50000D01*
G01*
X125900000Y-412250000D02*
X125900000Y-412250000D01*
X125900000Y-412150000D02*
X125900000Y-412150000D01*
X125900000Y-412250000D02*
X125900000Y-412250000D01*
D13*
X124300000Y-410725000D02*
X118550000Y-410725000D01*
X124300000Y-410725000D02*
X124300000Y-410725000D01*
X118550000Y-410725000D02*
X124300000Y-410725000D01*
X118550000Y-410725000D02*
X118550000Y-410725000D01*
X114800000Y-410725000D02*
X113800000Y-410725000D01*
X114800000Y-410725000D02*
X114800000Y-410725000D01*
X113800000Y-410725000D02*
X114800000Y-410725000D01*
X113800000Y-410725000D02*
X113800000Y-410725000D01*
X113800000Y-404725000D02*
X113800000Y-404725000D01*
X113800000Y-410725000D02*
X113800000Y-404725000D01*
X113800000Y-410725000D02*
X113800000Y-410725000D01*
X113800000Y-404725000D02*
X113800000Y-410725000D01*
X113800000Y-404725000D02*
X122550000Y-404725000D01*
X113800000Y-404725000D02*
X113800000Y-404725000D01*
X122550000Y-404725000D02*
X113800000Y-404725000D01*
X122550000Y-404725000D02*
X122550000Y-404725000D01*
X125550000Y-404725000D02*
X128300000Y-404725000D01*
X125550000Y-404725000D02*
X125550000Y-404725000D01*
X128300000Y-404725000D02*
X125550000Y-404725000D01*
X128300000Y-404725000D02*
X128300000Y-404725000D01*
X128300000Y-405200000D02*
X128300000Y-405200000D01*
X128300000Y-404725000D02*
X128300000Y-405200000D01*
X128300000Y-404725000D02*
X128300000Y-404725000D01*
X128300000Y-405200000D02*
X128300000Y-404725000D01*
X130800000Y-410250000D02*
X128300000Y-410250000D01*
X130800000Y-405225000D02*
X130800000Y-410250000D01*
X128300000Y-405225000D02*
X130800000Y-405225000D01*
X128300000Y-410250000D02*
X128300000Y-405225000D01*
X128300000Y-410725000D02*
X128300000Y-410725000D01*
X128300000Y-410250000D02*
X128300000Y-410725000D01*
X128300000Y-410250000D02*
X128300000Y-410250000D01*
X128300000Y-410725000D02*
X128300000Y-410250000D01*
X128300000Y-410725000D02*
X127300000Y-410725000D01*
X128300000Y-410725000D02*
X128300000Y-410725000D01*
X127300000Y-410725000D02*
X128300000Y-410725000D01*
X127300000Y-410725000D02*
X127300000Y-410725000D01*
D12*
X127546095Y-400048305D02*
X128876095Y-400048305D01*
X127546095Y-398718305D02*
X127546095Y-400048305D01*
X127546095Y-397448305D02*
X130206095Y-397448305D01*
X130206095Y-397448305D02*
X130206095Y-389768305D01*
X127546095Y-397448305D02*
X127546095Y-389768305D01*
X127546095Y-389768305D02*
X130206095Y-389768305D01*
X127610599Y-431174893D02*
X128940599Y-431174893D01*
X127610599Y-429844893D02*
X127610599Y-431174893D01*
X127610599Y-428574893D02*
X130270599Y-428574893D01*
X130270599Y-428574893D02*
X130270599Y-420894893D01*
X127610599Y-428574893D02*
X127610599Y-420894893D01*
X127610599Y-420894893D02*
X130270599Y-420894893D01*
X57862789Y-449862952D02*
X56532789Y-449862952D01*
X57862789Y-451192952D02*
X57862789Y-449862952D01*
X57862789Y-452462952D02*
X55202789Y-452462952D01*
X55202789Y-452462952D02*
X55202789Y-460142952D01*
X57862789Y-452462952D02*
X57862789Y-460142952D01*
X57862789Y-460142952D02*
X55202789Y-460142952D01*
X107326974Y-430350972D02*
X107326974Y-429020972D01*
X105996974Y-430350972D02*
X107326974Y-430350972D01*
X104726974Y-430350972D02*
X104726974Y-427690972D01*
X104726974Y-427690972D02*
X97046974Y-427690972D01*
X104726974Y-430350972D02*
X97046974Y-430350972D01*
X97046974Y-430350972D02*
X97046974Y-427690972D01*
X107484161Y-411265202D02*
X107484161Y-409935202D01*
X106154161Y-411265202D02*
X107484161Y-411265202D01*
X104884161Y-411265202D02*
X104884161Y-408605202D01*
X104884161Y-408605202D02*
X97204161Y-408605202D01*
X104884161Y-411265202D02*
X97204161Y-411265202D01*
X97204161Y-411265202D02*
X97204161Y-408605202D01*
X110392338Y-469484041D02*
X110048109Y-470768723D01*
X111677019Y-469828271D02*
X110392338Y-469484041D01*
X112903745Y-470156971D02*
X112215286Y-472726334D01*
X112215286Y-472726334D02*
X119633597Y-474714064D01*
X112903745Y-470156971D02*
X120322055Y-472144701D01*
X120322055Y-472144701D02*
X119633597Y-474714064D01*
D14*
X125985880Y-470280000D02*
G75*
G03X125985880Y-470280000I-125880J0D01*
G01*
D11*
X126750000Y-456475000D02*
X125650000Y-456475000D01*
X121950000Y-456475000D02*
X123050000Y-456475000D01*
X121950000Y-467875000D02*
X123050000Y-467875000D01*
X126750000Y-467875000D02*
X125650000Y-467875000D01*
X121950000Y-467875000D02*
X121950000Y-456475000D01*
X126750000Y-467875000D02*
X126750000Y-456475000D01*
X98370000Y-453985000D02*
X98370000Y-455635000D01*
X103590000Y-455985000D02*
X98310000Y-455985000D01*
X103590000Y-460835000D02*
X103590000Y-455985000D01*
X98310000Y-460835000D02*
X103590000Y-460835000D01*
X98310000Y-455985000D02*
X98310000Y-460835000D01*
D14*
X109700000Y-458175000D02*
G75*
G03X109700000Y-458175000I-100000J0D01*
G01*
D12*
X110910000Y-416072064D02*
X110910000Y-414867936D01*
X112730000Y-416072064D02*
X112730000Y-414867936D01*
D14*
X114887619Y-426694523D02*
X114887619Y-427722619D01*
X114827142Y-427843571D01*
X114766666Y-427904047D01*
X114645714Y-427964523D01*
X114403809Y-427964523D01*
X114282857Y-427904047D01*
X114222380Y-427843571D01*
X114161904Y-427722619D01*
X114161904Y-426694523D01*
X112891904Y-427964523D02*
X113617619Y-427964523D01*
X113254761Y-427964523D02*
X113254761Y-426694523D01*
X113375714Y-426875952D01*
X113496666Y-426996904D01*
X113617619Y-427057380D01*
D10*
X115057142Y-433567142D02*
X115104761Y-433519523D01*
X115152380Y-433376666D01*
X115152380Y-433281428D01*
X115104761Y-433138571D01*
X115009523Y-433043333D01*
X114914285Y-432995714D01*
X114723809Y-432948095D01*
X114580952Y-432948095D01*
X114390476Y-432995714D01*
X114295238Y-433043333D01*
X114200000Y-433138571D01*
X114152380Y-433281428D01*
X114152380Y-433376666D01*
X114200000Y-433519523D01*
X114247619Y-433567142D01*
X115152380Y-434519523D02*
X115152380Y-433948095D01*
X115152380Y-434233809D02*
X114152380Y-434233809D01*
X114295238Y-434138571D01*
X114390476Y-434043333D01*
X114438095Y-433948095D01*
X115152380Y-435471904D02*
X115152380Y-434900476D01*
X115152380Y-435186190D02*
X114152380Y-435186190D01*
X114295238Y-435090952D01*
X114390476Y-434995714D01*
X114438095Y-434900476D01*
D14*
X84639230Y-465156422D02*
X85205490Y-464682821D01*
X85339887Y-465345474D02*
X85670728Y-464119323D01*
X85203623Y-463993289D01*
X85071093Y-464020168D01*
X84996950Y-464062802D01*
X84907054Y-464163824D01*
X84859791Y-464338988D01*
X84886670Y-464471519D01*
X84929304Y-464545661D01*
X85030326Y-464635558D01*
X85497431Y-464761592D01*
X84444578Y-463788483D02*
X84176754Y-464781080D01*
X84086858Y-464882102D01*
X84012715Y-464924736D01*
X83880185Y-464951616D01*
X83646632Y-464888598D01*
X83545610Y-464798701D01*
X83502977Y-464724559D01*
X83476097Y-464592029D01*
X83743921Y-463599431D01*
X82829199Y-464668038D02*
X83160040Y-463441888D01*
X82128542Y-464478986D01*
X82459382Y-463252836D01*
X80902391Y-464148145D02*
X81603049Y-464337197D01*
X81252720Y-464242671D02*
X81583561Y-463016521D01*
X81653074Y-463223194D01*
X81738342Y-463371479D01*
X81839363Y-463461375D01*
X75606440Y-462160080D02*
X75415521Y-462171205D01*
X75341379Y-462213839D01*
X75251482Y-462314860D01*
X75204219Y-462490025D01*
X75231099Y-462622555D01*
X75273733Y-462696698D01*
X75374754Y-462786594D01*
X75841859Y-462912629D01*
X76172700Y-461686479D01*
X75763983Y-461576199D01*
X75631453Y-461603078D01*
X75557310Y-461645712D01*
X75467414Y-461746734D01*
X75435905Y-461863510D01*
X75462784Y-461996040D01*
X75505418Y-462070183D01*
X75606440Y-462160080D01*
X76015157Y-462270360D01*
X74712997Y-461292621D02*
X74479445Y-461229604D01*
X74346914Y-461256483D01*
X74198630Y-461341751D01*
X74077224Y-461559549D01*
X73966944Y-461968265D01*
X73962315Y-462217572D01*
X74047582Y-462365857D01*
X74148604Y-462455754D01*
X74382157Y-462518771D01*
X74514687Y-462491892D01*
X74662972Y-462406624D01*
X74784377Y-462188826D01*
X74894658Y-461780109D01*
X74899287Y-461530802D01*
X74814019Y-461382518D01*
X74712997Y-461292621D01*
X73428459Y-460946026D02*
X73194907Y-460883008D01*
X73062376Y-460909888D01*
X72914091Y-460995156D01*
X72792686Y-461212954D01*
X72682406Y-461621670D01*
X72677776Y-461870977D01*
X72763044Y-462019262D01*
X72864066Y-462109159D01*
X73097618Y-462172176D01*
X73230149Y-462145297D01*
X73378434Y-462060029D01*
X73499839Y-461842231D01*
X73610119Y-461433514D01*
X73614748Y-461184207D01*
X73529481Y-461035923D01*
X73428459Y-460946026D01*
X72552637Y-460709711D02*
X71851980Y-460520659D01*
X71871468Y-461841335D02*
X72202309Y-460615185D01*
X71186565Y-461593895D02*
X70995646Y-461605020D01*
X70703706Y-461526249D01*
X70602684Y-461436352D01*
X70560050Y-461362210D01*
X70533171Y-461229679D01*
X70564679Y-461112903D01*
X70654576Y-461011881D01*
X70728719Y-460969247D01*
X70861249Y-460942368D01*
X71110556Y-460946997D01*
X71243086Y-460920118D01*
X71317229Y-460877484D01*
X71407126Y-460776462D01*
X71438634Y-460659686D01*
X71411755Y-460527155D01*
X71369121Y-460453013D01*
X71268099Y-460363116D01*
X70976159Y-460284344D01*
X70785240Y-460295469D01*
X70117958Y-460679174D02*
X69709241Y-460568893D01*
X69360779Y-461163900D02*
X69944661Y-461321443D01*
X70275501Y-460095292D01*
X69691620Y-459937749D01*
X68251405Y-460864567D02*
X68835286Y-461022111D01*
X69166127Y-459795960D01*
X67200420Y-460580990D02*
X67901077Y-460770041D01*
X67550748Y-460675516D02*
X67881589Y-459449365D01*
X67951102Y-459656038D01*
X68036370Y-459804323D01*
X68137392Y-459894220D01*
D10*
X119642857Y-466682380D02*
X119976190Y-466206190D01*
X120214285Y-466682380D02*
X120214285Y-465682380D01*
X119833333Y-465682380D01*
X119738095Y-465730000D01*
X119690476Y-465777619D01*
X119642857Y-465872857D01*
X119642857Y-466015714D01*
X119690476Y-466110952D01*
X119738095Y-466158571D01*
X119833333Y-466206190D01*
X120214285Y-466206190D01*
X118690476Y-466682380D02*
X119261904Y-466682380D01*
X118976190Y-466682380D02*
X118976190Y-465682380D01*
X119071428Y-465825238D01*
X119166666Y-465920476D01*
X119261904Y-465968095D01*
X118357142Y-465682380D02*
X117690476Y-465682380D01*
X118119047Y-466682380D01*
X108007619Y-390629523D02*
X107293333Y-390629523D01*
X107150476Y-390677142D01*
X107055238Y-390772380D01*
X107007619Y-390915238D01*
X107007619Y-391010476D01*
X108007619Y-389677142D02*
X108007619Y-390153333D01*
X107531428Y-390200952D01*
X107579047Y-390153333D01*
X107626666Y-390058095D01*
X107626666Y-389820000D01*
X107579047Y-389724761D01*
X107531428Y-389677142D01*
X107436190Y-389629523D01*
X107198095Y-389629523D01*
X107102857Y-389677142D01*
X107055238Y-389724761D01*
X107007619Y-389820000D01*
X107007619Y-390058095D01*
X107055238Y-390153333D01*
X107102857Y-390200952D01*
X108007619Y-389010476D02*
X108007619Y-388915238D01*
X107960000Y-388820000D01*
X107912380Y-388772380D01*
X107817142Y-388724761D01*
X107626666Y-388677142D01*
X107388571Y-388677142D01*
X107198095Y-388724761D01*
X107102857Y-388772380D01*
X107055238Y-388820000D01*
X107007619Y-388915238D01*
X107007619Y-389010476D01*
X107055238Y-389105714D01*
X107102857Y-389153333D01*
X107198095Y-389200952D01*
X107388571Y-389248571D01*
X107626666Y-389248571D01*
X107817142Y-389200952D01*
X107912380Y-389153333D01*
X107960000Y-389105714D01*
X108007619Y-389010476D01*
X117076666Y-470997380D02*
X117410000Y-470521190D01*
X117648095Y-470997380D02*
X117648095Y-469997380D01*
X117267142Y-469997380D01*
X117171904Y-470045000D01*
X117124285Y-470092619D01*
X117076666Y-470187857D01*
X117076666Y-470330714D01*
X117124285Y-470425952D01*
X117171904Y-470473571D01*
X117267142Y-470521190D01*
X117648095Y-470521190D01*
X116219523Y-470330714D02*
X116219523Y-470997380D01*
X116457619Y-469949761D02*
X116695714Y-470664047D01*
X116076666Y-470664047D01*
X109917380Y-450369333D02*
X109441190Y-450036000D01*
X109917380Y-449797904D02*
X108917380Y-449797904D01*
X108917380Y-450178857D01*
X108965000Y-450274095D01*
X109012619Y-450321714D01*
X109107857Y-450369333D01*
X109250714Y-450369333D01*
X109345952Y-450321714D01*
X109393571Y-450274095D01*
X109441190Y-450178857D01*
X109441190Y-449797904D01*
X109012619Y-450750285D02*
X108965000Y-450797904D01*
X108917380Y-450893142D01*
X108917380Y-451131238D01*
X108965000Y-451226476D01*
X109012619Y-451274095D01*
X109107857Y-451321714D01*
X109203095Y-451321714D01*
X109345952Y-451274095D01*
X109917380Y-450702666D01*
X109917380Y-451321714D01*
X108647380Y-450369333D02*
X108171190Y-450036000D01*
X108647380Y-449797904D02*
X107647380Y-449797904D01*
X107647380Y-450178857D01*
X107695000Y-450274095D01*
X107742619Y-450321714D01*
X107837857Y-450369333D01*
X107980714Y-450369333D01*
X108075952Y-450321714D01*
X108123571Y-450274095D01*
X108171190Y-450178857D01*
X108171190Y-449797904D01*
X108647380Y-451321714D02*
X108647380Y-450750285D01*
X108647380Y-451036000D02*
X107647380Y-451036000D01*
X107790238Y-450940761D01*
X107885476Y-450845523D01*
X107933095Y-450750285D01*
X120676666Y-390757380D02*
X121010000Y-390281190D01*
X121248095Y-390757380D02*
X121248095Y-389757380D01*
X120867142Y-389757380D01*
X120771904Y-389805000D01*
X120724285Y-389852619D01*
X120676666Y-389947857D01*
X120676666Y-390090714D01*
X120724285Y-390185952D01*
X120771904Y-390233571D01*
X120867142Y-390281190D01*
X121248095Y-390281190D01*
X120200476Y-390757380D02*
X120010000Y-390757380D01*
X119914761Y-390709761D01*
X119867142Y-390662142D01*
X119771904Y-390519285D01*
X119724285Y-390328809D01*
X119724285Y-389947857D01*
X119771904Y-389852619D01*
X119819523Y-389805000D01*
X119914761Y-389757380D01*
X120105238Y-389757380D01*
X120200476Y-389805000D01*
X120248095Y-389852619D01*
X120295714Y-389947857D01*
X120295714Y-390185952D01*
X120248095Y-390281190D01*
X120200476Y-390328809D01*
X120105238Y-390376428D01*
X119914761Y-390376428D01*
X119819523Y-390328809D01*
X119771904Y-390281190D01*
X119724285Y-390185952D01*
X120676666Y-392027380D02*
X121010000Y-391551190D01*
X121248095Y-392027380D02*
X121248095Y-391027380D01*
X120867142Y-391027380D01*
X120771904Y-391075000D01*
X120724285Y-391122619D01*
X120676666Y-391217857D01*
X120676666Y-391360714D01*
X120724285Y-391455952D01*
X120771904Y-391503571D01*
X120867142Y-391551190D01*
X121248095Y-391551190D01*
X120105238Y-391455952D02*
X120200476Y-391408333D01*
X120248095Y-391360714D01*
X120295714Y-391265476D01*
X120295714Y-391217857D01*
X120248095Y-391122619D01*
X120200476Y-391075000D01*
X120105238Y-391027380D01*
X119914761Y-391027380D01*
X119819523Y-391075000D01*
X119771904Y-391122619D01*
X119724285Y-391217857D01*
X119724285Y-391265476D01*
X119771904Y-391360714D01*
X119819523Y-391408333D01*
X119914761Y-391455952D01*
X120105238Y-391455952D01*
X120200476Y-391503571D01*
X120248095Y-391551190D01*
X120295714Y-391646428D01*
X120295714Y-391836904D01*
X120248095Y-391932142D01*
X120200476Y-391979761D01*
X120105238Y-392027380D01*
X119914761Y-392027380D01*
X119819523Y-391979761D01*
X119771904Y-391932142D01*
X119724285Y-391836904D01*
X119724285Y-391646428D01*
X119771904Y-391551190D01*
X119819523Y-391503571D01*
X119914761Y-391455952D01*
X106591666Y-468712380D02*
X106925000Y-468236190D01*
X107163095Y-468712380D02*
X107163095Y-467712380D01*
X106782142Y-467712380D01*
X106686904Y-467760000D01*
X106639285Y-467807619D01*
X106591666Y-467902857D01*
X106591666Y-468045714D01*
X106639285Y-468140952D01*
X106686904Y-468188571D01*
X106782142Y-468236190D01*
X107163095Y-468236190D01*
X106258333Y-467712380D02*
X105591666Y-467712380D01*
X106020238Y-468712380D01*
X119366666Y-460652380D02*
X119700000Y-460176190D01*
X119938095Y-460652380D02*
X119938095Y-459652380D01*
X119557142Y-459652380D01*
X119461904Y-459700000D01*
X119414285Y-459747619D01*
X119366666Y-459842857D01*
X119366666Y-459985714D01*
X119414285Y-460080952D01*
X119461904Y-460128571D01*
X119557142Y-460176190D01*
X119938095Y-460176190D01*
X118509523Y-459652380D02*
X118700000Y-459652380D01*
X118795238Y-459700000D01*
X118842857Y-459747619D01*
X118938095Y-459890476D01*
X118985714Y-460080952D01*
X118985714Y-460461904D01*
X118938095Y-460557142D01*
X118890476Y-460604761D01*
X118795238Y-460652380D01*
X118604761Y-460652380D01*
X118509523Y-460604761D01*
X118461904Y-460557142D01*
X118414285Y-460461904D01*
X118414285Y-460223809D01*
X118461904Y-460128571D01*
X118509523Y-460080952D01*
X118604761Y-460033333D01*
X118795238Y-460033333D01*
X118890476Y-460080952D01*
X118938095Y-460128571D01*
X118985714Y-460223809D01*
X97692380Y-453045333D02*
X97216190Y-452712000D01*
X97692380Y-452473904D02*
X96692380Y-452473904D01*
X96692380Y-452854857D01*
X96740000Y-452950095D01*
X96787619Y-452997714D01*
X96882857Y-453045333D01*
X97025714Y-453045333D01*
X97120952Y-452997714D01*
X97168571Y-452950095D01*
X97216190Y-452854857D01*
X97216190Y-452473904D01*
X96692380Y-453378666D02*
X96692380Y-453997714D01*
X97073333Y-453664380D01*
X97073333Y-453807238D01*
X97120952Y-453902476D01*
X97168571Y-453950095D01*
X97263809Y-453997714D01*
X97501904Y-453997714D01*
X97597142Y-453950095D01*
X97644761Y-453902476D01*
X97692380Y-453807238D01*
X97692380Y-453521523D01*
X97644761Y-453426285D01*
X97597142Y-453378666D01*
X108587142Y-467492142D02*
X108634761Y-467444523D01*
X108682380Y-467301666D01*
X108682380Y-467206428D01*
X108634761Y-467063571D01*
X108539523Y-466968333D01*
X108444285Y-466920714D01*
X108253809Y-466873095D01*
X108110952Y-466873095D01*
X107920476Y-466920714D01*
X107825238Y-466968333D01*
X107730000Y-467063571D01*
X107682380Y-467206428D01*
X107682380Y-467301666D01*
X107730000Y-467444523D01*
X107777619Y-467492142D01*
X108682380Y-468444523D02*
X108682380Y-467873095D01*
X108682380Y-468158809D02*
X107682380Y-468158809D01*
X107825238Y-468063571D01*
X107920476Y-467968333D01*
X107968095Y-467873095D01*
X107682380Y-468777857D02*
X107682380Y-469444523D01*
X108682380Y-469015952D01*
X115952142Y-454757142D02*
X115999761Y-454709523D01*
X116047380Y-454566666D01*
X116047380Y-454471428D01*
X115999761Y-454328571D01*
X115904523Y-454233333D01*
X115809285Y-454185714D01*
X115618809Y-454138095D01*
X115475952Y-454138095D01*
X115285476Y-454185714D01*
X115190238Y-454233333D01*
X115095000Y-454328571D01*
X115047380Y-454471428D01*
X115047380Y-454566666D01*
X115095000Y-454709523D01*
X115142619Y-454757142D01*
X116047380Y-455709523D02*
X116047380Y-455138095D01*
X116047380Y-455423809D02*
X115047380Y-455423809D01*
X115190238Y-455328571D01*
X115285476Y-455233333D01*
X115333095Y-455138095D01*
X115047380Y-456566666D02*
X115047380Y-456376190D01*
X115095000Y-456280952D01*
X115142619Y-456233333D01*
X115285476Y-456138095D01*
X115475952Y-456090476D01*
X115856904Y-456090476D01*
X115952142Y-456138095D01*
X115999761Y-456185714D01*
X116047380Y-456280952D01*
X116047380Y-456471428D01*
X115999761Y-456566666D01*
X115952142Y-456614285D01*
X115856904Y-456661904D01*
X115618809Y-456661904D01*
X115523571Y-456614285D01*
X115475952Y-456566666D01*
X115428333Y-456471428D01*
X115428333Y-456280952D01*
X115475952Y-456185714D01*
X115523571Y-456138095D01*
X115618809Y-456090476D01*
X122012857Y-463475142D02*
X122060476Y-463522761D01*
X122203333Y-463570380D01*
X122298571Y-463570380D01*
X122441428Y-463522761D01*
X122536666Y-463427523D01*
X122584285Y-463332285D01*
X122631904Y-463141809D01*
X122631904Y-462998952D01*
X122584285Y-462808476D01*
X122536666Y-462713238D01*
X122441428Y-462618000D01*
X122298571Y-462570380D01*
X122203333Y-462570380D01*
X122060476Y-462618000D01*
X122012857Y-462665619D01*
X121060476Y-463570380D02*
X121631904Y-463570380D01*
X121346190Y-463570380D02*
X121346190Y-462570380D01*
X121441428Y-462713238D01*
X121536666Y-462808476D01*
X121631904Y-462856095D01*
X120155714Y-462570380D02*
X120631904Y-462570380D01*
X120679523Y-463046571D01*
X120631904Y-462998952D01*
X120536666Y-462951333D01*
X120298571Y-462951333D01*
X120203333Y-462998952D01*
X120155714Y-463046571D01*
X120108095Y-463141809D01*
X120108095Y-463379904D01*
X120155714Y-463475142D01*
X120203333Y-463522761D01*
X120298571Y-463570380D01*
X120536666Y-463570380D01*
X120631904Y-463522761D01*
X120679523Y-463475142D01*
X107057857Y-460737142D02*
X107105476Y-460784761D01*
X107248333Y-460832380D01*
X107343571Y-460832380D01*
X107486428Y-460784761D01*
X107581666Y-460689523D01*
X107629285Y-460594285D01*
X107676904Y-460403809D01*
X107676904Y-460260952D01*
X107629285Y-460070476D01*
X107581666Y-459975238D01*
X107486428Y-459880000D01*
X107343571Y-459832380D01*
X107248333Y-459832380D01*
X107105476Y-459880000D01*
X107057857Y-459927619D01*
X106105476Y-460832380D02*
X106676904Y-460832380D01*
X106391190Y-460832380D02*
X106391190Y-459832380D01*
X106486428Y-459975238D01*
X106581666Y-460070476D01*
X106676904Y-460118095D01*
X105248333Y-460165714D02*
X105248333Y-460832380D01*
X105486428Y-459784761D02*
X105724523Y-460499047D01*
X105105476Y-460499047D01*
X122012857Y-464745142D02*
X122060476Y-464792761D01*
X122203333Y-464840380D01*
X122298571Y-464840380D01*
X122441428Y-464792761D01*
X122536666Y-464697523D01*
X122584285Y-464602285D01*
X122631904Y-464411809D01*
X122631904Y-464268952D01*
X122584285Y-464078476D01*
X122536666Y-463983238D01*
X122441428Y-463888000D01*
X122298571Y-463840380D01*
X122203333Y-463840380D01*
X122060476Y-463888000D01*
X122012857Y-463935619D01*
X121060476Y-464840380D02*
X121631904Y-464840380D01*
X121346190Y-464840380D02*
X121346190Y-463840380D01*
X121441428Y-463983238D01*
X121536666Y-464078476D01*
X121631904Y-464126095D01*
X120727142Y-463840380D02*
X120108095Y-463840380D01*
X120441428Y-464221333D01*
X120298571Y-464221333D01*
X120203333Y-464268952D01*
X120155714Y-464316571D01*
X120108095Y-464411809D01*
X120108095Y-464649904D01*
X120155714Y-464745142D01*
X120203333Y-464792761D01*
X120298571Y-464840380D01*
X120584285Y-464840380D01*
X120679523Y-464792761D01*
X120727142Y-464745142D01*
X104740857Y-465253142D02*
X104788476Y-465300761D01*
X104931333Y-465348380D01*
X105026571Y-465348380D01*
X105169428Y-465300761D01*
X105264666Y-465205523D01*
X105312285Y-465110285D01*
X105359904Y-464919809D01*
X105359904Y-464776952D01*
X105312285Y-464586476D01*
X105264666Y-464491238D01*
X105169428Y-464396000D01*
X105026571Y-464348380D01*
X104931333Y-464348380D01*
X104788476Y-464396000D01*
X104740857Y-464443619D01*
X103788476Y-465348380D02*
X104359904Y-465348380D01*
X104074190Y-465348380D02*
X104074190Y-464348380D01*
X104169428Y-464491238D01*
X104264666Y-464586476D01*
X104359904Y-464634095D01*
X103407523Y-464443619D02*
X103359904Y-464396000D01*
X103264666Y-464348380D01*
X103026571Y-464348380D01*
X102931333Y-464396000D01*
X102883714Y-464443619D01*
X102836095Y-464538857D01*
X102836095Y-464634095D01*
X102883714Y-464776952D01*
X103455142Y-465348380D01*
X102836095Y-465348380D01*
X96612857Y-464237142D02*
X96660476Y-464284761D01*
X96803333Y-464332380D01*
X96898571Y-464332380D01*
X97041428Y-464284761D01*
X97136666Y-464189523D01*
X97184285Y-464094285D01*
X97231904Y-463903809D01*
X97231904Y-463760952D01*
X97184285Y-463570476D01*
X97136666Y-463475238D01*
X97041428Y-463380000D01*
X96898571Y-463332380D01*
X96803333Y-463332380D01*
X96660476Y-463380000D01*
X96612857Y-463427619D01*
X95660476Y-464332380D02*
X96231904Y-464332380D01*
X95946190Y-464332380D02*
X95946190Y-463332380D01*
X96041428Y-463475238D01*
X96136666Y-463570476D01*
X96231904Y-463618095D01*
X95041428Y-463332380D02*
X94946190Y-463332380D01*
X94850952Y-463380000D01*
X94803333Y-463427619D01*
X94755714Y-463522857D01*
X94708095Y-463713333D01*
X94708095Y-463951428D01*
X94755714Y-464141904D01*
X94803333Y-464237142D01*
X94850952Y-464284761D01*
X94946190Y-464332380D01*
X95041428Y-464332380D01*
X95136666Y-464284761D01*
X95184285Y-464237142D01*
X95231904Y-464141904D01*
X95279523Y-463951428D01*
X95279523Y-463713333D01*
X95231904Y-463522857D01*
X95184285Y-463427619D01*
X95136666Y-463380000D01*
X95041428Y-463332380D01*
X113791666Y-420317142D02*
X113839285Y-420364761D01*
X113982142Y-420412380D01*
X114077380Y-420412380D01*
X114220238Y-420364761D01*
X114315476Y-420269523D01*
X114363095Y-420174285D01*
X114410714Y-419983809D01*
X114410714Y-419840952D01*
X114363095Y-419650476D01*
X114315476Y-419555238D01*
X114220238Y-419460000D01*
X114077380Y-419412380D01*
X113982142Y-419412380D01*
X113839285Y-419460000D01*
X113791666Y-419507619D01*
X113315476Y-420412380D02*
X113125000Y-420412380D01*
X113029761Y-420364761D01*
X112982142Y-420317142D01*
X112886904Y-420174285D01*
X112839285Y-419983809D01*
X112839285Y-419602857D01*
X112886904Y-419507619D01*
X112934523Y-419460000D01*
X113029761Y-419412380D01*
X113220238Y-419412380D01*
X113315476Y-419460000D01*
X113363095Y-419507619D01*
X113410714Y-419602857D01*
X113410714Y-419840952D01*
X113363095Y-419936190D01*
X113315476Y-419983809D01*
X113220238Y-420031428D01*
X113029761Y-420031428D01*
X112934523Y-419983809D01*
X112886904Y-419936190D01*
X112839285Y-419840952D01*
X104772666Y-466523142D02*
X104820285Y-466570761D01*
X104963142Y-466618380D01*
X105058380Y-466618380D01*
X105201238Y-466570761D01*
X105296476Y-466475523D01*
X105344095Y-466380285D01*
X105391714Y-466189809D01*
X105391714Y-466046952D01*
X105344095Y-465856476D01*
X105296476Y-465761238D01*
X105201238Y-465666000D01*
X105058380Y-465618380D01*
X104963142Y-465618380D01*
X104820285Y-465666000D01*
X104772666Y-465713619D01*
X104439333Y-465618380D02*
X103772666Y-465618380D01*
X104201238Y-466618380D01*
X110297142Y-456133333D02*
X110344761Y-456085714D01*
X110392380Y-455942857D01*
X110392380Y-455847619D01*
X110344761Y-455704761D01*
X110249523Y-455609523D01*
X110154285Y-455561904D01*
X109963809Y-455514285D01*
X109820952Y-455514285D01*
X109630476Y-455561904D01*
X109535238Y-455609523D01*
X109440000Y-455704761D01*
X109392380Y-455847619D01*
X109392380Y-455942857D01*
X109440000Y-456085714D01*
X109487619Y-456133333D01*
X109392380Y-456990476D02*
X109392380Y-456800000D01*
X109440000Y-456704761D01*
X109487619Y-456657142D01*
X109630476Y-456561904D01*
X109820952Y-456514285D01*
X110201904Y-456514285D01*
X110297142Y-456561904D01*
X110344761Y-456609523D01*
X110392380Y-456704761D01*
X110392380Y-456895238D01*
X110344761Y-456990476D01*
X110297142Y-457038095D01*
X110201904Y-457085714D01*
X109963809Y-457085714D01*
X109868571Y-457038095D01*
X109820952Y-456990476D01*
X109773333Y-456895238D01*
X109773333Y-456704761D01*
X109820952Y-456609523D01*
X109868571Y-456561904D01*
X109963809Y-456514285D01*
X120151666Y-458240142D02*
X120199285Y-458287761D01*
X120342142Y-458335380D01*
X120437380Y-458335380D01*
X120580238Y-458287761D01*
X120675476Y-458192523D01*
X120723095Y-458097285D01*
X120770714Y-457906809D01*
X120770714Y-457763952D01*
X120723095Y-457573476D01*
X120675476Y-457478238D01*
X120580238Y-457383000D01*
X120437380Y-457335380D01*
X120342142Y-457335380D01*
X120199285Y-457383000D01*
X120151666Y-457430619D01*
X119246904Y-457335380D02*
X119723095Y-457335380D01*
X119770714Y-457811571D01*
X119723095Y-457763952D01*
X119627857Y-457716333D01*
X119389761Y-457716333D01*
X119294523Y-457763952D01*
X119246904Y-457811571D01*
X119199285Y-457906809D01*
X119199285Y-458144904D01*
X119246904Y-458240142D01*
X119294523Y-458287761D01*
X119389761Y-458335380D01*
X119627857Y-458335380D01*
X119723095Y-458287761D01*
X119770714Y-458240142D01*
X120117666Y-456945142D02*
X120165285Y-456992761D01*
X120308142Y-457040380D01*
X120403380Y-457040380D01*
X120546238Y-456992761D01*
X120641476Y-456897523D01*
X120689095Y-456802285D01*
X120736714Y-456611809D01*
X120736714Y-456468952D01*
X120689095Y-456278476D01*
X120641476Y-456183238D01*
X120546238Y-456088000D01*
X120403380Y-456040380D01*
X120308142Y-456040380D01*
X120165285Y-456088000D01*
X120117666Y-456135619D01*
X119260523Y-456373714D02*
X119260523Y-457040380D01*
X119498619Y-455992761D02*
X119736714Y-456707047D01*
X119117666Y-456707047D01*
X104772666Y-462967142D02*
X104820285Y-463014761D01*
X104963142Y-463062380D01*
X105058380Y-463062380D01*
X105201238Y-463014761D01*
X105296476Y-462919523D01*
X105344095Y-462824285D01*
X105391714Y-462633809D01*
X105391714Y-462490952D01*
X105344095Y-462300476D01*
X105296476Y-462205238D01*
X105201238Y-462110000D01*
X105058380Y-462062380D01*
X104963142Y-462062380D01*
X104820285Y-462110000D01*
X104772666Y-462157619D01*
X104439333Y-462062380D02*
X103820285Y-462062380D01*
X104153619Y-462443333D01*
X104010761Y-462443333D01*
X103915523Y-462490952D01*
X103867904Y-462538571D01*
X103820285Y-462633809D01*
X103820285Y-462871904D01*
X103867904Y-462967142D01*
X103915523Y-463014761D01*
X104010761Y-463062380D01*
X104296476Y-463062380D01*
X104391714Y-463014761D01*
X104439333Y-462967142D01*
X113512142Y-467543333D02*
X113559761Y-467495714D01*
X113607380Y-467352857D01*
X113607380Y-467257619D01*
X113559761Y-467114761D01*
X113464523Y-467019523D01*
X113369285Y-466971904D01*
X113178809Y-466924285D01*
X113035952Y-466924285D01*
X112845476Y-466971904D01*
X112750238Y-467019523D01*
X112655000Y-467114761D01*
X112607380Y-467257619D01*
X112607380Y-467352857D01*
X112655000Y-467495714D01*
X112702619Y-467543333D01*
X112702619Y-467924285D02*
X112655000Y-467971904D01*
X112607380Y-468067142D01*
X112607380Y-468305238D01*
X112655000Y-468400476D01*
X112702619Y-468448095D01*
X112797857Y-468495714D01*
X112893095Y-468495714D01*
X113035952Y-468448095D01*
X113607380Y-467876666D01*
X113607380Y-468495714D01*
X112789523Y-395197380D02*
X112789523Y-395911666D01*
X112837142Y-396054523D01*
X112932380Y-396149761D01*
X113075238Y-396197380D01*
X113170476Y-396197380D01*
X112408571Y-395197380D02*
X111789523Y-395197380D01*
X112122857Y-395578333D01*
X111980000Y-395578333D01*
X111884761Y-395625952D01*
X111837142Y-395673571D01*
X111789523Y-395768809D01*
X111789523Y-396006904D01*
X111837142Y-396102142D01*
X111884761Y-396149761D01*
X111980000Y-396197380D01*
X112265714Y-396197380D01*
X112360952Y-396149761D01*
X112408571Y-396102142D01*
X111408571Y-395292619D02*
X111360952Y-395245000D01*
X111265714Y-395197380D01*
X111027619Y-395197380D01*
X110932380Y-395245000D01*
X110884761Y-395292619D01*
X110837142Y-395387857D01*
X110837142Y-395483095D01*
X110884761Y-395625952D01*
X111456190Y-396197380D01*
X110837142Y-396197380D01*
D14*
X121604523Y-406821904D02*
X122511666Y-406821904D01*
X122693095Y-406761428D01*
X122814047Y-406640476D01*
X122874523Y-406459047D01*
X122874523Y-406338095D01*
X121604523Y-407305714D02*
X121604523Y-408091904D01*
X122088333Y-407668571D01*
X122088333Y-407850000D01*
X122148809Y-407970952D01*
X122209285Y-408031428D01*
X122330238Y-408091904D01*
X122632619Y-408091904D01*
X122753571Y-408031428D01*
X122814047Y-407970952D01*
X122874523Y-407850000D01*
X122874523Y-407487142D01*
X122814047Y-407366190D01*
X122753571Y-407305714D01*
X121604523Y-409180476D02*
X121604523Y-408938571D01*
X121665000Y-408817619D01*
X121725476Y-408757142D01*
X121906904Y-408636190D01*
X122148809Y-408575714D01*
X122632619Y-408575714D01*
X122753571Y-408636190D01*
X122814047Y-408696666D01*
X122874523Y-408817619D01*
X122874523Y-409059523D01*
X122814047Y-409180476D01*
X122753571Y-409240952D01*
X122632619Y-409301428D01*
X122330238Y-409301428D01*
X122209285Y-409240952D01*
X122148809Y-409180476D01*
X122088333Y-409059523D01*
X122088333Y-408817619D01*
X122148809Y-408696666D01*
X122209285Y-408636190D01*
X122330238Y-408575714D01*
D10*
X129685618Y-400500685D02*
X129685618Y-401214971D01*
X129733237Y-401357828D01*
X129828475Y-401453066D01*
X129971333Y-401500685D01*
X130066571Y-401500685D01*
X129304666Y-400500685D02*
X128685618Y-400500685D01*
X129018952Y-400881638D01*
X128876095Y-400881638D01*
X128780856Y-400929257D01*
X128733237Y-400976876D01*
X128685618Y-401072114D01*
X128685618Y-401310209D01*
X128733237Y-401405447D01*
X128780856Y-401453066D01*
X128876095Y-401500685D01*
X129161809Y-401500685D01*
X129257047Y-401453066D01*
X129304666Y-401405447D01*
X128209428Y-401500685D02*
X128018952Y-401500685D01*
X127923714Y-401453066D01*
X127876095Y-401405447D01*
X127780856Y-401262590D01*
X127733237Y-401072114D01*
X127733237Y-400691162D01*
X127780856Y-400595924D01*
X127828475Y-400548305D01*
X127923714Y-400500685D01*
X128114190Y-400500685D01*
X128209428Y-400548305D01*
X128257047Y-400595924D01*
X128304666Y-400691162D01*
X128304666Y-400929257D01*
X128257047Y-401024495D01*
X128209428Y-401072114D01*
X128114190Y-401119733D01*
X127923714Y-401119733D01*
X127828475Y-401072114D01*
X127780856Y-401024495D01*
X127733237Y-400929257D01*
X129750122Y-431627273D02*
X129750122Y-432341559D01*
X129797741Y-432484416D01*
X129892979Y-432579654D01*
X130035837Y-432627273D01*
X130131075Y-432627273D01*
X128845360Y-431960607D02*
X128845360Y-432627273D01*
X129083456Y-431579654D02*
X129321551Y-432293940D01*
X128702503Y-432293940D01*
X127845360Y-431627273D02*
X128321551Y-431627273D01*
X128369170Y-432103464D01*
X128321551Y-432055845D01*
X128226313Y-432008226D01*
X127988218Y-432008226D01*
X127892979Y-432055845D01*
X127845360Y-432103464D01*
X127797741Y-432198702D01*
X127797741Y-432436797D01*
X127845360Y-432532035D01*
X127892979Y-432579654D01*
X127988218Y-432627273D01*
X128226313Y-432627273D01*
X128321551Y-432579654D01*
X128369170Y-432532035D01*
X56866122Y-448315332D02*
X56866122Y-449029618D01*
X56913741Y-449172475D01*
X57008979Y-449267713D01*
X57151836Y-449315332D01*
X57247074Y-449315332D01*
X55866122Y-449315332D02*
X56437550Y-449315332D01*
X56151836Y-449315332D02*
X56151836Y-448315332D01*
X56247074Y-448458190D01*
X56342312Y-448553428D01*
X56437550Y-448601047D01*
X107779354Y-428687638D02*
X108493640Y-428687638D01*
X108636497Y-428640019D01*
X108731735Y-428544781D01*
X108779354Y-428401924D01*
X108779354Y-428306686D01*
X108207926Y-429306686D02*
X108160307Y-429211448D01*
X108112688Y-429163829D01*
X108017450Y-429116210D01*
X107969831Y-429116210D01*
X107874593Y-429163829D01*
X107826974Y-429211448D01*
X107779354Y-429306686D01*
X107779354Y-429497162D01*
X107826974Y-429592400D01*
X107874593Y-429640019D01*
X107969831Y-429687638D01*
X108017450Y-429687638D01*
X108112688Y-429640019D01*
X108160307Y-429592400D01*
X108207926Y-429497162D01*
X108207926Y-429306686D01*
X108255545Y-429211448D01*
X108303164Y-429163829D01*
X108398402Y-429116210D01*
X108588878Y-429116210D01*
X108684116Y-429163829D01*
X108731735Y-429211448D01*
X108779354Y-429306686D01*
X108779354Y-429497162D01*
X108731735Y-429592400D01*
X108684116Y-429640019D01*
X108588878Y-429687638D01*
X108398402Y-429687638D01*
X108303164Y-429640019D01*
X108255545Y-429592400D01*
X108207926Y-429497162D01*
X107936541Y-409601868D02*
X108650827Y-409601868D01*
X108793684Y-409554249D01*
X108888922Y-409459011D01*
X108936541Y-409316154D01*
X108936541Y-409220916D01*
X107936541Y-409982821D02*
X107936541Y-410649487D01*
X108936541Y-410220916D01*
X108762743Y-469586229D02*
X109452690Y-469771100D01*
X109603004Y-469762078D01*
X109719647Y-469694734D01*
X109802617Y-469569070D01*
X109827267Y-469477077D01*
X109469850Y-470810974D02*
X109617747Y-470259017D01*
X109543798Y-470534995D02*
X108577873Y-470276176D01*
X108740511Y-470221158D01*
X108857154Y-470153814D01*
X108927800Y-470074146D01*
X108282079Y-471380092D02*
X108331378Y-471196106D01*
X108402024Y-471116437D01*
X108460345Y-471082766D01*
X108622984Y-471027747D01*
X108819295Y-471031049D01*
X109187266Y-471129647D01*
X109266935Y-471200293D01*
X109300606Y-471258614D01*
X109321953Y-471362932D01*
X109272655Y-471546918D01*
X109202009Y-471626586D01*
X109143688Y-471660258D01*
X109039370Y-471681605D01*
X108809388Y-471619981D01*
X108729719Y-471549335D01*
X108696048Y-471491014D01*
X108674701Y-471386696D01*
X108723999Y-471202710D01*
X108794645Y-471123042D01*
X108852966Y-471089371D01*
X108957284Y-471068023D01*
D14*
X124370021Y-461942068D02*
X124974783Y-461942068D01*
X123704783Y-461518734D02*
X124370021Y-461942068D01*
X123704783Y-462365401D01*
X124974783Y-463453972D02*
X124974783Y-462728258D01*
X124974783Y-463091115D02*
X123704783Y-463091115D01*
X123886212Y-462970163D01*
X124007164Y-462849210D01*
X124067640Y-462728258D01*
X97560523Y-457814238D02*
X96290523Y-457814238D01*
X97439571Y-459144714D02*
X97500047Y-459084238D01*
X97560523Y-458902809D01*
X97560523Y-458781857D01*
X97500047Y-458600428D01*
X97379095Y-458479476D01*
X97258142Y-458419000D01*
X97016238Y-458358523D01*
X96834809Y-458358523D01*
X96592904Y-458419000D01*
X96471952Y-458479476D01*
X96351000Y-458600428D01*
X96290523Y-458781857D01*
X96290523Y-458902809D01*
X96351000Y-459084238D01*
X96411476Y-459144714D01*
X96411476Y-459628523D02*
X96351000Y-459689000D01*
X96290523Y-459809952D01*
X96290523Y-460112333D01*
X96351000Y-460233285D01*
X96411476Y-460293761D01*
X96532428Y-460354238D01*
X96653380Y-460354238D01*
X96834809Y-460293761D01*
X97560523Y-459568047D01*
X97560523Y-460354238D01*
X113374523Y-460810238D02*
X112104523Y-460810238D01*
X113253571Y-462140714D02*
X113314047Y-462080238D01*
X113374523Y-461898809D01*
X113374523Y-461777857D01*
X113314047Y-461596428D01*
X113193095Y-461475476D01*
X113072142Y-461415000D01*
X112830238Y-461354523D01*
X112648809Y-461354523D01*
X112406904Y-461415000D01*
X112285952Y-461475476D01*
X112165000Y-461596428D01*
X112104523Y-461777857D01*
X112104523Y-461898809D01*
X112165000Y-462080238D01*
X112225476Y-462140714D01*
X113374523Y-463350238D02*
X113374523Y-462624523D01*
X113374523Y-462987380D02*
X112104523Y-462987380D01*
X112285952Y-462866428D01*
X112406904Y-462745476D01*
X112467380Y-462624523D01*
D10*
X113568571Y-415136666D02*
X113568571Y-414803333D01*
X114092380Y-414803333D02*
X113092380Y-414803333D01*
X113092380Y-415279523D01*
X114092380Y-416184285D02*
X114092380Y-415612857D01*
X114092380Y-415898571D02*
X113092380Y-415898571D01*
X113235238Y-415803333D01*
X113330476Y-415708095D01*
X113378095Y-415612857D01*
M02*
