M48
; DRILL file {KiCad (5.1.4)-1} date 7/27/2023 9:11:16 PM
; FORMAT={-:-/ absolute / metric / decimal}
; #@! TF.CreationDate,2023-07-27T21:11:16-04:00
; #@! TF.GenerationSoftware,Kicad,Pcbnew,(5.1.4)-1
; #@! TF.FileFunction,Plated,1,2,PTH
FMAT,2
METRIC
T1C0.350
T2C0.400
T3C0.600
T4C1.000
T5C1.050
T6C1.470
T7C1.500
T8C1.600
T9C2.000
%
G90
G05
T1
X110.45Y-463.8
X110.45Y-463.8
X110.45Y-463.8
X114.6Y-462.65
X114.6Y-462.65
X114.6Y-462.65
X111.275Y-460.775
X111.275Y-462.05
X111.275Y-463.325
X112.55Y-460.775
X112.55Y-462.05
X112.55Y-463.325
X113.825Y-460.775
X113.825Y-462.05
X113.825Y-463.325
T2
X67.743Y-459.332
X95.6Y-452.627
X101.423Y-448.2
X102.467Y-448.2
X103.1Y-458.75
X103.1Y-462.15
X103.52Y-448.2
X103.925Y-463.625
X104.5Y-448.2
X104.95Y-463.574
X105.6Y-448.2
X106.2Y-452.7
X107.9Y-462.096
X108.375Y-468.15
X108.41Y-466.073
X108.6Y-455.5
X109.625Y-445.35
X109.625Y-448.575
X110.65Y-445.375
X110.7Y-448.55
X111.43Y-405.16
X111.569Y-396.012
X112.425Y-447.225
X112.741Y-396.721
X113.825Y-454.275
X114.575Y-468.975
X114.65Y-444.6
X115.525Y-467.102
X115.716Y-444.606
X117.075Y-464.525
X117.75Y-444.6
X117.975Y-460.823
X118.3Y-463.7
X121.4Y-460.875
X121.425Y-463.775
X121.948Y-447.728
X121.95Y-448.655
X121.964Y-446.801
X122.0Y-445.875
T4
X120.448Y-451.181
X122.988Y-451.181
X125.528Y-451.181
X128.068Y-451.181
X111.333Y-471.113
X113.786Y-471.77
X116.24Y-472.428
X118.693Y-473.085
X98.534Y-409.935
X101.074Y-409.935
X103.614Y-409.935
X106.154Y-409.935
X98.377Y-429.021
X100.917Y-429.021
X103.457Y-429.021
X105.997Y-429.021
X128.876Y-391.098
X128.876Y-393.638
X128.876Y-396.178
X128.876Y-398.718
X127.933Y-471.913
X128.59Y-469.459
X129.248Y-467.006
X129.905Y-464.553
X128.941Y-422.225
X128.941Y-424.765
X128.941Y-427.305
X128.941Y-429.845
X94.633Y-466.713
X97.086Y-467.37
X99.54Y-468.028
X101.993Y-468.685
X97.51Y-389.82
X100.05Y-389.82
X102.59Y-389.82
X105.13Y-389.82
X56.533Y-451.193
X56.533Y-453.733
X56.533Y-456.273
X56.533Y-458.813
X89.628Y-465.272
X90.285Y-462.818
X90.943Y-460.365
X91.6Y-457.911
T5
X70.773Y-459.726
X71.946Y-455.381
X75.67Y-454.055
X77.049Y-461.419
X78.221Y-457.074
X80.551Y-462.326
X81.723Y-457.981
X85.447Y-456.655
X86.827Y-464.019
X87.999Y-459.674
T6
X98.223Y-416.973
X99.533Y-415.513
X104.533Y-415.013
X104.573Y-414.433
X117.273Y-394.923
X118.583Y-393.463
X123.583Y-392.963
X123.623Y-392.383
X61.393Y-457.143
X61.433Y-456.563
X66.433Y-456.063
X67.743Y-454.603
X80.443Y-452.143
X80.483Y-451.563
X85.483Y-451.063
X86.793Y-449.603
X98.223Y-397.923
X99.533Y-396.463
X104.533Y-395.963
X104.573Y-395.383
X117.273Y-413.973
X118.583Y-412.513
X123.583Y-412.013
X123.623Y-411.433
X117.273Y-433.023
X118.583Y-431.563
X123.583Y-431.063
X123.623Y-430.483
X98.223Y-436.023
X99.533Y-434.563
X104.533Y-434.063
X104.573Y-433.483
T7
X124.0Y-405.2
X125.9Y-410.25
T8
X117.8Y-407.725
X124.8Y-407.725
T9
X116.6Y-410.125
T3
X107.66Y-388.525G85X107.66Y-389.325
G05
X107.66Y-392.545G85X107.66Y-393.645
G05
X116.3Y-388.525G85X116.3Y-389.325
G05
X116.3Y-392.545G85X116.3Y-393.645
G05
T0
M30
