M48
; DRILL file {KiCad (5.1.4)-1} date 6/17/2023 6:31:42 PM
; FORMAT={-:-/ absolute / metric / decimal}
; #@! TF.CreationDate,2023-06-17T18:31:42-04:00
; #@! TF.GenerationSoftware,Kicad,Pcbnew,(5.1.4)-1
; #@! TF.FileFunction,NonPlated,1,2,NPTH
FMAT,2
METRIC
T1C0.600
T2C1.750
T3C3.000
T4C3.988
%
G90
G05
T1
X109.09Y-392.615
X114.87Y-392.615
T2
X116.003Y-435.563
X126.163Y-435.563
X96.953Y-419.513
X107.113Y-419.513
X96.953Y-400.463
X107.113Y-400.463
X116.003Y-397.463
X126.163Y-397.463
X58.853Y-452.063
X69.013Y-452.063
X77.903Y-447.063
X88.063Y-447.063
X116.003Y-416.513
X126.163Y-416.513
X96.953Y-438.563
X107.113Y-438.563
T3
X99.493Y-424.593
X105.843Y-422.053
X99.493Y-405.543
X105.843Y-403.003
X118.543Y-402.543
X124.893Y-400.003
X60.123Y-449.523
X66.473Y-446.983
X79.173Y-444.523
X85.523Y-441.983
X118.543Y-421.593
X124.893Y-419.053
X99.493Y-443.643
X105.843Y-441.103
X118.543Y-440.643
X124.893Y-438.103
T4
X102.033Y-400.463
X121.083Y-397.463
X82.983Y-447.063
X102.033Y-438.563
X121.083Y-435.563
X102.033Y-419.513
X63.933Y-452.063
X121.083Y-416.513
T0
M30
