G04 #@! TF.GenerationSoftware,KiCad,Pcbnew,(5.1.4)-1*
G04 #@! TF.CreationDate,2023-06-17T18:31:40-04:00*
G04 #@! TF.ProjectId,ThumbsUp,5468756d-6273-4557-902e-6b696361645f,rev?*
G04 #@! TF.SameCoordinates,Original*
G04 #@! TF.FileFunction,Paste,Bot*
G04 #@! TF.FilePolarity,Positive*
%FSLAX46Y46*%
G04 Gerber Fmt 4.6, Leading zero omitted, Abs format (unit mm)*
G04 Created by KiCad (PCBNEW (5.1.4)-1) date 2023-06-17 18:31:40*
%MOMM*%
%LPD*%
G04 APERTURE LIST*
%ADD10R,2.550000X2.500000*%
%ADD11R,1.300000X3.250000*%
%ADD12R,1.300000X0.950000*%
%ADD13C,0.100000*%
%ADD14C,1.250000*%
%ADD15C,0.590000*%
%ADD16R,0.600000X1.160000*%
%ADD17R,0.300000X1.160000*%
%ADD18R,2.100000X5.600000*%
%ADD19R,0.650000X1.650000*%
%ADD20R,3.200000X3.200000*%
%ADD21R,0.850000X0.200000*%
%ADD22R,0.200000X0.850000*%
G04 APERTURE END LIST*
D10*
X128167789Y-419052952D03*
X115240789Y-421592952D03*
D11*
X117270000Y-427390000D03*
D12*
X110570000Y-425100000D03*
X110570000Y-427390000D03*
X110570000Y-429680000D03*
D13*
G36*
X113519504Y-432186204D02*
G01*
X113543773Y-432189804D01*
X113567571Y-432195765D01*
X113590671Y-432204030D01*
X113612849Y-432214520D01*
X113633893Y-432227133D01*
X113653598Y-432241747D01*
X113671777Y-432258223D01*
X113688253Y-432276402D01*
X113702867Y-432296107D01*
X113715480Y-432317151D01*
X113725970Y-432339329D01*
X113734235Y-432362429D01*
X113740196Y-432386227D01*
X113743796Y-432410496D01*
X113745000Y-432435000D01*
X113745000Y-433185000D01*
X113743796Y-433209504D01*
X113740196Y-433233773D01*
X113734235Y-433257571D01*
X113725970Y-433280671D01*
X113715480Y-433302849D01*
X113702867Y-433323893D01*
X113688253Y-433343598D01*
X113671777Y-433361777D01*
X113653598Y-433378253D01*
X113633893Y-433392867D01*
X113612849Y-433405480D01*
X113590671Y-433415970D01*
X113567571Y-433424235D01*
X113543773Y-433430196D01*
X113519504Y-433433796D01*
X113495000Y-433435000D01*
X111345000Y-433435000D01*
X111320496Y-433433796D01*
X111296227Y-433430196D01*
X111272429Y-433424235D01*
X111249329Y-433415970D01*
X111227151Y-433405480D01*
X111206107Y-433392867D01*
X111186402Y-433378253D01*
X111168223Y-433361777D01*
X111151747Y-433343598D01*
X111137133Y-433323893D01*
X111124520Y-433302849D01*
X111114030Y-433280671D01*
X111105765Y-433257571D01*
X111099804Y-433233773D01*
X111096204Y-433209504D01*
X111095000Y-433185000D01*
X111095000Y-432435000D01*
X111096204Y-432410496D01*
X111099804Y-432386227D01*
X111105765Y-432362429D01*
X111114030Y-432339329D01*
X111124520Y-432317151D01*
X111137133Y-432296107D01*
X111151747Y-432276402D01*
X111168223Y-432258223D01*
X111186402Y-432241747D01*
X111206107Y-432227133D01*
X111227151Y-432214520D01*
X111249329Y-432204030D01*
X111272429Y-432195765D01*
X111296227Y-432189804D01*
X111320496Y-432186204D01*
X111345000Y-432185000D01*
X113495000Y-432185000D01*
X113519504Y-432186204D01*
X113519504Y-432186204D01*
G37*
D14*
X112420000Y-432810000D03*
D13*
G36*
X113519504Y-434986204D02*
G01*
X113543773Y-434989804D01*
X113567571Y-434995765D01*
X113590671Y-435004030D01*
X113612849Y-435014520D01*
X113633893Y-435027133D01*
X113653598Y-435041747D01*
X113671777Y-435058223D01*
X113688253Y-435076402D01*
X113702867Y-435096107D01*
X113715480Y-435117151D01*
X113725970Y-435139329D01*
X113734235Y-435162429D01*
X113740196Y-435186227D01*
X113743796Y-435210496D01*
X113745000Y-435235000D01*
X113745000Y-435985000D01*
X113743796Y-436009504D01*
X113740196Y-436033773D01*
X113734235Y-436057571D01*
X113725970Y-436080671D01*
X113715480Y-436102849D01*
X113702867Y-436123893D01*
X113688253Y-436143598D01*
X113671777Y-436161777D01*
X113653598Y-436178253D01*
X113633893Y-436192867D01*
X113612849Y-436205480D01*
X113590671Y-436215970D01*
X113567571Y-436224235D01*
X113543773Y-436230196D01*
X113519504Y-436233796D01*
X113495000Y-436235000D01*
X111345000Y-436235000D01*
X111320496Y-436233796D01*
X111296227Y-436230196D01*
X111272429Y-436224235D01*
X111249329Y-436215970D01*
X111227151Y-436205480D01*
X111206107Y-436192867D01*
X111186402Y-436178253D01*
X111168223Y-436161777D01*
X111151747Y-436143598D01*
X111137133Y-436123893D01*
X111124520Y-436102849D01*
X111114030Y-436080671D01*
X111105765Y-436057571D01*
X111099804Y-436033773D01*
X111096204Y-436009504D01*
X111095000Y-435985000D01*
X111095000Y-435235000D01*
X111096204Y-435210496D01*
X111099804Y-435186227D01*
X111105765Y-435162429D01*
X111114030Y-435139329D01*
X111124520Y-435117151D01*
X111137133Y-435096107D01*
X111151747Y-435076402D01*
X111168223Y-435058223D01*
X111186402Y-435041747D01*
X111206107Y-435027133D01*
X111227151Y-435014520D01*
X111249329Y-435004030D01*
X111272429Y-434995765D01*
X111296227Y-434989804D01*
X111320496Y-434986204D01*
X111345000Y-434985000D01*
X113495000Y-434985000D01*
X113519504Y-434986204D01*
X113519504Y-434986204D01*
G37*
D14*
X112420000Y-435610000D03*
D13*
G36*
X118676958Y-467080710D02*
G01*
X118691276Y-467082834D01*
X118705317Y-467086351D01*
X118718946Y-467091228D01*
X118732031Y-467097417D01*
X118744447Y-467104858D01*
X118756073Y-467113481D01*
X118766798Y-467123202D01*
X118776519Y-467133927D01*
X118785142Y-467145553D01*
X118792583Y-467157969D01*
X118798772Y-467171054D01*
X118803649Y-467184683D01*
X118807166Y-467198724D01*
X118809290Y-467213042D01*
X118810000Y-467227500D01*
X118810000Y-467572500D01*
X118809290Y-467586958D01*
X118807166Y-467601276D01*
X118803649Y-467615317D01*
X118798772Y-467628946D01*
X118792583Y-467642031D01*
X118785142Y-467654447D01*
X118776519Y-467666073D01*
X118766798Y-467676798D01*
X118756073Y-467686519D01*
X118744447Y-467695142D01*
X118732031Y-467702583D01*
X118718946Y-467708772D01*
X118705317Y-467713649D01*
X118691276Y-467717166D01*
X118676958Y-467719290D01*
X118662500Y-467720000D01*
X118367500Y-467720000D01*
X118353042Y-467719290D01*
X118338724Y-467717166D01*
X118324683Y-467713649D01*
X118311054Y-467708772D01*
X118297969Y-467702583D01*
X118285553Y-467695142D01*
X118273927Y-467686519D01*
X118263202Y-467676798D01*
X118253481Y-467666073D01*
X118244858Y-467654447D01*
X118237417Y-467642031D01*
X118231228Y-467628946D01*
X118226351Y-467615317D01*
X118222834Y-467601276D01*
X118220710Y-467586958D01*
X118220000Y-467572500D01*
X118220000Y-467227500D01*
X118220710Y-467213042D01*
X118222834Y-467198724D01*
X118226351Y-467184683D01*
X118231228Y-467171054D01*
X118237417Y-467157969D01*
X118244858Y-467145553D01*
X118253481Y-467133927D01*
X118263202Y-467123202D01*
X118273927Y-467113481D01*
X118285553Y-467104858D01*
X118297969Y-467097417D01*
X118311054Y-467091228D01*
X118324683Y-467086351D01*
X118338724Y-467082834D01*
X118353042Y-467080710D01*
X118367500Y-467080000D01*
X118662500Y-467080000D01*
X118676958Y-467080710D01*
X118676958Y-467080710D01*
G37*
D15*
X118515000Y-467400000D03*
D13*
G36*
X119646958Y-467080710D02*
G01*
X119661276Y-467082834D01*
X119675317Y-467086351D01*
X119688946Y-467091228D01*
X119702031Y-467097417D01*
X119714447Y-467104858D01*
X119726073Y-467113481D01*
X119736798Y-467123202D01*
X119746519Y-467133927D01*
X119755142Y-467145553D01*
X119762583Y-467157969D01*
X119768772Y-467171054D01*
X119773649Y-467184683D01*
X119777166Y-467198724D01*
X119779290Y-467213042D01*
X119780000Y-467227500D01*
X119780000Y-467572500D01*
X119779290Y-467586958D01*
X119777166Y-467601276D01*
X119773649Y-467615317D01*
X119768772Y-467628946D01*
X119762583Y-467642031D01*
X119755142Y-467654447D01*
X119746519Y-467666073D01*
X119736798Y-467676798D01*
X119726073Y-467686519D01*
X119714447Y-467695142D01*
X119702031Y-467702583D01*
X119688946Y-467708772D01*
X119675317Y-467713649D01*
X119661276Y-467717166D01*
X119646958Y-467719290D01*
X119632500Y-467720000D01*
X119337500Y-467720000D01*
X119323042Y-467719290D01*
X119308724Y-467717166D01*
X119294683Y-467713649D01*
X119281054Y-467708772D01*
X119267969Y-467702583D01*
X119255553Y-467695142D01*
X119243927Y-467686519D01*
X119233202Y-467676798D01*
X119223481Y-467666073D01*
X119214858Y-467654447D01*
X119207417Y-467642031D01*
X119201228Y-467628946D01*
X119196351Y-467615317D01*
X119192834Y-467601276D01*
X119190710Y-467586958D01*
X119190000Y-467572500D01*
X119190000Y-467227500D01*
X119190710Y-467213042D01*
X119192834Y-467198724D01*
X119196351Y-467184683D01*
X119201228Y-467171054D01*
X119207417Y-467157969D01*
X119214858Y-467145553D01*
X119223481Y-467133927D01*
X119233202Y-467123202D01*
X119243927Y-467113481D01*
X119255553Y-467104858D01*
X119267969Y-467097417D01*
X119281054Y-467091228D01*
X119294683Y-467086351D01*
X119308724Y-467082834D01*
X119323042Y-467080710D01*
X119337500Y-467080000D01*
X119632500Y-467080000D01*
X119646958Y-467080710D01*
X119646958Y-467080710D01*
G37*
D15*
X119485000Y-467400000D03*
D10*
X109117789Y-422052952D03*
X96190789Y-424592952D03*
X128167789Y-438102952D03*
X115240789Y-440642952D03*
X115240790Y-402542952D03*
X128167790Y-400002952D03*
X109117790Y-441102952D03*
X96190790Y-443642952D03*
X96190790Y-405542952D03*
X109117790Y-403002952D03*
X75897789Y-444522953D03*
X88824789Y-441982953D03*
X56847789Y-449522952D03*
X69774789Y-446982952D03*
D13*
G36*
X117556958Y-469055710D02*
G01*
X117571276Y-469057834D01*
X117585317Y-469061351D01*
X117598946Y-469066228D01*
X117612031Y-469072417D01*
X117624447Y-469079858D01*
X117636073Y-469088481D01*
X117646798Y-469098202D01*
X117656519Y-469108927D01*
X117665142Y-469120553D01*
X117672583Y-469132969D01*
X117678772Y-469146054D01*
X117683649Y-469159683D01*
X117687166Y-469173724D01*
X117689290Y-469188042D01*
X117690000Y-469202500D01*
X117690000Y-469547500D01*
X117689290Y-469561958D01*
X117687166Y-469576276D01*
X117683649Y-469590317D01*
X117678772Y-469603946D01*
X117672583Y-469617031D01*
X117665142Y-469629447D01*
X117656519Y-469641073D01*
X117646798Y-469651798D01*
X117636073Y-469661519D01*
X117624447Y-469670142D01*
X117612031Y-469677583D01*
X117598946Y-469683772D01*
X117585317Y-469688649D01*
X117571276Y-469692166D01*
X117556958Y-469694290D01*
X117542500Y-469695000D01*
X117247500Y-469695000D01*
X117233042Y-469694290D01*
X117218724Y-469692166D01*
X117204683Y-469688649D01*
X117191054Y-469683772D01*
X117177969Y-469677583D01*
X117165553Y-469670142D01*
X117153927Y-469661519D01*
X117143202Y-469651798D01*
X117133481Y-469641073D01*
X117124858Y-469629447D01*
X117117417Y-469617031D01*
X117111228Y-469603946D01*
X117106351Y-469590317D01*
X117102834Y-469576276D01*
X117100710Y-469561958D01*
X117100000Y-469547500D01*
X117100000Y-469202500D01*
X117100710Y-469188042D01*
X117102834Y-469173724D01*
X117106351Y-469159683D01*
X117111228Y-469146054D01*
X117117417Y-469132969D01*
X117124858Y-469120553D01*
X117133481Y-469108927D01*
X117143202Y-469098202D01*
X117153927Y-469088481D01*
X117165553Y-469079858D01*
X117177969Y-469072417D01*
X117191054Y-469066228D01*
X117204683Y-469061351D01*
X117218724Y-469057834D01*
X117233042Y-469055710D01*
X117247500Y-469055000D01*
X117542500Y-469055000D01*
X117556958Y-469055710D01*
X117556958Y-469055710D01*
G37*
D15*
X117395000Y-469375000D03*
D13*
G36*
X116586958Y-469055710D02*
G01*
X116601276Y-469057834D01*
X116615317Y-469061351D01*
X116628946Y-469066228D01*
X116642031Y-469072417D01*
X116654447Y-469079858D01*
X116666073Y-469088481D01*
X116676798Y-469098202D01*
X116686519Y-469108927D01*
X116695142Y-469120553D01*
X116702583Y-469132969D01*
X116708772Y-469146054D01*
X116713649Y-469159683D01*
X116717166Y-469173724D01*
X116719290Y-469188042D01*
X116720000Y-469202500D01*
X116720000Y-469547500D01*
X116719290Y-469561958D01*
X116717166Y-469576276D01*
X116713649Y-469590317D01*
X116708772Y-469603946D01*
X116702583Y-469617031D01*
X116695142Y-469629447D01*
X116686519Y-469641073D01*
X116676798Y-469651798D01*
X116666073Y-469661519D01*
X116654447Y-469670142D01*
X116642031Y-469677583D01*
X116628946Y-469683772D01*
X116615317Y-469688649D01*
X116601276Y-469692166D01*
X116586958Y-469694290D01*
X116572500Y-469695000D01*
X116277500Y-469695000D01*
X116263042Y-469694290D01*
X116248724Y-469692166D01*
X116234683Y-469688649D01*
X116221054Y-469683772D01*
X116207969Y-469677583D01*
X116195553Y-469670142D01*
X116183927Y-469661519D01*
X116173202Y-469651798D01*
X116163481Y-469641073D01*
X116154858Y-469629447D01*
X116147417Y-469617031D01*
X116141228Y-469603946D01*
X116136351Y-469590317D01*
X116132834Y-469576276D01*
X116130710Y-469561958D01*
X116130000Y-469547500D01*
X116130000Y-469202500D01*
X116130710Y-469188042D01*
X116132834Y-469173724D01*
X116136351Y-469159683D01*
X116141228Y-469146054D01*
X116147417Y-469132969D01*
X116154858Y-469120553D01*
X116163481Y-469108927D01*
X116173202Y-469098202D01*
X116183927Y-469088481D01*
X116195553Y-469079858D01*
X116207969Y-469072417D01*
X116221054Y-469066228D01*
X116234683Y-469061351D01*
X116248724Y-469057834D01*
X116263042Y-469055710D01*
X116277500Y-469055000D01*
X116572500Y-469055000D01*
X116586958Y-469055710D01*
X116586958Y-469055710D01*
G37*
D15*
X116425000Y-469375000D03*
D13*
G36*
X109612958Y-447797710D02*
G01*
X109627276Y-447799834D01*
X109641317Y-447803351D01*
X109654946Y-447808228D01*
X109668031Y-447814417D01*
X109680447Y-447821858D01*
X109692073Y-447830481D01*
X109702798Y-447840202D01*
X109712519Y-447850927D01*
X109721142Y-447862553D01*
X109728583Y-447874969D01*
X109734772Y-447888054D01*
X109739649Y-447901683D01*
X109743166Y-447915724D01*
X109745290Y-447930042D01*
X109746000Y-447944500D01*
X109746000Y-448239500D01*
X109745290Y-448253958D01*
X109743166Y-448268276D01*
X109739649Y-448282317D01*
X109734772Y-448295946D01*
X109728583Y-448309031D01*
X109721142Y-448321447D01*
X109712519Y-448333073D01*
X109702798Y-448343798D01*
X109692073Y-448353519D01*
X109680447Y-448362142D01*
X109668031Y-448369583D01*
X109654946Y-448375772D01*
X109641317Y-448380649D01*
X109627276Y-448384166D01*
X109612958Y-448386290D01*
X109598500Y-448387000D01*
X109253500Y-448387000D01*
X109239042Y-448386290D01*
X109224724Y-448384166D01*
X109210683Y-448380649D01*
X109197054Y-448375772D01*
X109183969Y-448369583D01*
X109171553Y-448362142D01*
X109159927Y-448353519D01*
X109149202Y-448343798D01*
X109139481Y-448333073D01*
X109130858Y-448321447D01*
X109123417Y-448309031D01*
X109117228Y-448295946D01*
X109112351Y-448282317D01*
X109108834Y-448268276D01*
X109106710Y-448253958D01*
X109106000Y-448239500D01*
X109106000Y-447944500D01*
X109106710Y-447930042D01*
X109108834Y-447915724D01*
X109112351Y-447901683D01*
X109117228Y-447888054D01*
X109123417Y-447874969D01*
X109130858Y-447862553D01*
X109139481Y-447850927D01*
X109149202Y-447840202D01*
X109159927Y-447830481D01*
X109171553Y-447821858D01*
X109183969Y-447814417D01*
X109197054Y-447808228D01*
X109210683Y-447803351D01*
X109224724Y-447799834D01*
X109239042Y-447797710D01*
X109253500Y-447797000D01*
X109598500Y-447797000D01*
X109612958Y-447797710D01*
X109612958Y-447797710D01*
G37*
D15*
X109426000Y-448092000D03*
D13*
G36*
X109612958Y-448767710D02*
G01*
X109627276Y-448769834D01*
X109641317Y-448773351D01*
X109654946Y-448778228D01*
X109668031Y-448784417D01*
X109680447Y-448791858D01*
X109692073Y-448800481D01*
X109702798Y-448810202D01*
X109712519Y-448820927D01*
X109721142Y-448832553D01*
X109728583Y-448844969D01*
X109734772Y-448858054D01*
X109739649Y-448871683D01*
X109743166Y-448885724D01*
X109745290Y-448900042D01*
X109746000Y-448914500D01*
X109746000Y-449209500D01*
X109745290Y-449223958D01*
X109743166Y-449238276D01*
X109739649Y-449252317D01*
X109734772Y-449265946D01*
X109728583Y-449279031D01*
X109721142Y-449291447D01*
X109712519Y-449303073D01*
X109702798Y-449313798D01*
X109692073Y-449323519D01*
X109680447Y-449332142D01*
X109668031Y-449339583D01*
X109654946Y-449345772D01*
X109641317Y-449350649D01*
X109627276Y-449354166D01*
X109612958Y-449356290D01*
X109598500Y-449357000D01*
X109253500Y-449357000D01*
X109239042Y-449356290D01*
X109224724Y-449354166D01*
X109210683Y-449350649D01*
X109197054Y-449345772D01*
X109183969Y-449339583D01*
X109171553Y-449332142D01*
X109159927Y-449323519D01*
X109149202Y-449313798D01*
X109139481Y-449303073D01*
X109130858Y-449291447D01*
X109123417Y-449279031D01*
X109117228Y-449265946D01*
X109112351Y-449252317D01*
X109108834Y-449238276D01*
X109106710Y-449223958D01*
X109106000Y-449209500D01*
X109106000Y-448914500D01*
X109106710Y-448900042D01*
X109108834Y-448885724D01*
X109112351Y-448871683D01*
X109117228Y-448858054D01*
X109123417Y-448844969D01*
X109130858Y-448832553D01*
X109139481Y-448820927D01*
X109149202Y-448810202D01*
X109159927Y-448800481D01*
X109171553Y-448791858D01*
X109183969Y-448784417D01*
X109197054Y-448778228D01*
X109210683Y-448773351D01*
X109224724Y-448769834D01*
X109239042Y-448767710D01*
X109253500Y-448767000D01*
X109598500Y-448767000D01*
X109612958Y-448767710D01*
X109612958Y-448767710D01*
G37*
D15*
X109426000Y-449062000D03*
D13*
G36*
X108562958Y-447797710D02*
G01*
X108577276Y-447799834D01*
X108591317Y-447803351D01*
X108604946Y-447808228D01*
X108618031Y-447814417D01*
X108630447Y-447821858D01*
X108642073Y-447830481D01*
X108652798Y-447840202D01*
X108662519Y-447850927D01*
X108671142Y-447862553D01*
X108678583Y-447874969D01*
X108684772Y-447888054D01*
X108689649Y-447901683D01*
X108693166Y-447915724D01*
X108695290Y-447930042D01*
X108696000Y-447944500D01*
X108696000Y-448239500D01*
X108695290Y-448253958D01*
X108693166Y-448268276D01*
X108689649Y-448282317D01*
X108684772Y-448295946D01*
X108678583Y-448309031D01*
X108671142Y-448321447D01*
X108662519Y-448333073D01*
X108652798Y-448343798D01*
X108642073Y-448353519D01*
X108630447Y-448362142D01*
X108618031Y-448369583D01*
X108604946Y-448375772D01*
X108591317Y-448380649D01*
X108577276Y-448384166D01*
X108562958Y-448386290D01*
X108548500Y-448387000D01*
X108203500Y-448387000D01*
X108189042Y-448386290D01*
X108174724Y-448384166D01*
X108160683Y-448380649D01*
X108147054Y-448375772D01*
X108133969Y-448369583D01*
X108121553Y-448362142D01*
X108109927Y-448353519D01*
X108099202Y-448343798D01*
X108089481Y-448333073D01*
X108080858Y-448321447D01*
X108073417Y-448309031D01*
X108067228Y-448295946D01*
X108062351Y-448282317D01*
X108058834Y-448268276D01*
X108056710Y-448253958D01*
X108056000Y-448239500D01*
X108056000Y-447944500D01*
X108056710Y-447930042D01*
X108058834Y-447915724D01*
X108062351Y-447901683D01*
X108067228Y-447888054D01*
X108073417Y-447874969D01*
X108080858Y-447862553D01*
X108089481Y-447850927D01*
X108099202Y-447840202D01*
X108109927Y-447830481D01*
X108121553Y-447821858D01*
X108133969Y-447814417D01*
X108147054Y-447808228D01*
X108160683Y-447803351D01*
X108174724Y-447799834D01*
X108189042Y-447797710D01*
X108203500Y-447797000D01*
X108548500Y-447797000D01*
X108562958Y-447797710D01*
X108562958Y-447797710D01*
G37*
D15*
X108376000Y-448092000D03*
D13*
G36*
X108562958Y-448767710D02*
G01*
X108577276Y-448769834D01*
X108591317Y-448773351D01*
X108604946Y-448778228D01*
X108618031Y-448784417D01*
X108630447Y-448791858D01*
X108642073Y-448800481D01*
X108652798Y-448810202D01*
X108662519Y-448820927D01*
X108671142Y-448832553D01*
X108678583Y-448844969D01*
X108684772Y-448858054D01*
X108689649Y-448871683D01*
X108693166Y-448885724D01*
X108695290Y-448900042D01*
X108696000Y-448914500D01*
X108696000Y-449209500D01*
X108695290Y-449223958D01*
X108693166Y-449238276D01*
X108689649Y-449252317D01*
X108684772Y-449265946D01*
X108678583Y-449279031D01*
X108671142Y-449291447D01*
X108662519Y-449303073D01*
X108652798Y-449313798D01*
X108642073Y-449323519D01*
X108630447Y-449332142D01*
X108618031Y-449339583D01*
X108604946Y-449345772D01*
X108591317Y-449350649D01*
X108577276Y-449354166D01*
X108562958Y-449356290D01*
X108548500Y-449357000D01*
X108203500Y-449357000D01*
X108189042Y-449356290D01*
X108174724Y-449354166D01*
X108160683Y-449350649D01*
X108147054Y-449345772D01*
X108133969Y-449339583D01*
X108121553Y-449332142D01*
X108109927Y-449323519D01*
X108099202Y-449313798D01*
X108089481Y-449303073D01*
X108080858Y-449291447D01*
X108073417Y-449279031D01*
X108067228Y-449265946D01*
X108062351Y-449252317D01*
X108058834Y-449238276D01*
X108056710Y-449223958D01*
X108056000Y-449209500D01*
X108056000Y-448914500D01*
X108056710Y-448900042D01*
X108058834Y-448885724D01*
X108062351Y-448871683D01*
X108067228Y-448858054D01*
X108073417Y-448844969D01*
X108080858Y-448832553D01*
X108089481Y-448820927D01*
X108099202Y-448810202D01*
X108109927Y-448800481D01*
X108121553Y-448791858D01*
X108133969Y-448784417D01*
X108147054Y-448778228D01*
X108160683Y-448773351D01*
X108174724Y-448769834D01*
X108189042Y-448767710D01*
X108203500Y-448767000D01*
X108548500Y-448767000D01*
X108562958Y-448767710D01*
X108562958Y-448767710D01*
G37*
D15*
X108376000Y-449062000D03*
D13*
G36*
X118286958Y-391155710D02*
G01*
X118301276Y-391157834D01*
X118315317Y-391161351D01*
X118328946Y-391166228D01*
X118342031Y-391172417D01*
X118354447Y-391179858D01*
X118366073Y-391188481D01*
X118376798Y-391198202D01*
X118386519Y-391208927D01*
X118395142Y-391220553D01*
X118402583Y-391232969D01*
X118408772Y-391246054D01*
X118413649Y-391259683D01*
X118417166Y-391273724D01*
X118419290Y-391288042D01*
X118420000Y-391302500D01*
X118420000Y-391647500D01*
X118419290Y-391661958D01*
X118417166Y-391676276D01*
X118413649Y-391690317D01*
X118408772Y-391703946D01*
X118402583Y-391717031D01*
X118395142Y-391729447D01*
X118386519Y-391741073D01*
X118376798Y-391751798D01*
X118366073Y-391761519D01*
X118354447Y-391770142D01*
X118342031Y-391777583D01*
X118328946Y-391783772D01*
X118315317Y-391788649D01*
X118301276Y-391792166D01*
X118286958Y-391794290D01*
X118272500Y-391795000D01*
X117977500Y-391795000D01*
X117963042Y-391794290D01*
X117948724Y-391792166D01*
X117934683Y-391788649D01*
X117921054Y-391783772D01*
X117907969Y-391777583D01*
X117895553Y-391770142D01*
X117883927Y-391761519D01*
X117873202Y-391751798D01*
X117863481Y-391741073D01*
X117854858Y-391729447D01*
X117847417Y-391717031D01*
X117841228Y-391703946D01*
X117836351Y-391690317D01*
X117832834Y-391676276D01*
X117830710Y-391661958D01*
X117830000Y-391647500D01*
X117830000Y-391302500D01*
X117830710Y-391288042D01*
X117832834Y-391273724D01*
X117836351Y-391259683D01*
X117841228Y-391246054D01*
X117847417Y-391232969D01*
X117854858Y-391220553D01*
X117863481Y-391208927D01*
X117873202Y-391198202D01*
X117883927Y-391188481D01*
X117895553Y-391179858D01*
X117907969Y-391172417D01*
X117921054Y-391166228D01*
X117934683Y-391161351D01*
X117948724Y-391157834D01*
X117963042Y-391155710D01*
X117977500Y-391155000D01*
X118272500Y-391155000D01*
X118286958Y-391155710D01*
X118286958Y-391155710D01*
G37*
D15*
X118125000Y-391475000D03*
D13*
G36*
X119256958Y-391155710D02*
G01*
X119271276Y-391157834D01*
X119285317Y-391161351D01*
X119298946Y-391166228D01*
X119312031Y-391172417D01*
X119324447Y-391179858D01*
X119336073Y-391188481D01*
X119346798Y-391198202D01*
X119356519Y-391208927D01*
X119365142Y-391220553D01*
X119372583Y-391232969D01*
X119378772Y-391246054D01*
X119383649Y-391259683D01*
X119387166Y-391273724D01*
X119389290Y-391288042D01*
X119390000Y-391302500D01*
X119390000Y-391647500D01*
X119389290Y-391661958D01*
X119387166Y-391676276D01*
X119383649Y-391690317D01*
X119378772Y-391703946D01*
X119372583Y-391717031D01*
X119365142Y-391729447D01*
X119356519Y-391741073D01*
X119346798Y-391751798D01*
X119336073Y-391761519D01*
X119324447Y-391770142D01*
X119312031Y-391777583D01*
X119298946Y-391783772D01*
X119285317Y-391788649D01*
X119271276Y-391792166D01*
X119256958Y-391794290D01*
X119242500Y-391795000D01*
X118947500Y-391795000D01*
X118933042Y-391794290D01*
X118918724Y-391792166D01*
X118904683Y-391788649D01*
X118891054Y-391783772D01*
X118877969Y-391777583D01*
X118865553Y-391770142D01*
X118853927Y-391761519D01*
X118843202Y-391751798D01*
X118833481Y-391741073D01*
X118824858Y-391729447D01*
X118817417Y-391717031D01*
X118811228Y-391703946D01*
X118806351Y-391690317D01*
X118802834Y-391676276D01*
X118800710Y-391661958D01*
X118800000Y-391647500D01*
X118800000Y-391302500D01*
X118800710Y-391288042D01*
X118802834Y-391273724D01*
X118806351Y-391259683D01*
X118811228Y-391246054D01*
X118817417Y-391232969D01*
X118824858Y-391220553D01*
X118833481Y-391208927D01*
X118843202Y-391198202D01*
X118853927Y-391188481D01*
X118865553Y-391179858D01*
X118877969Y-391172417D01*
X118891054Y-391166228D01*
X118904683Y-391161351D01*
X118918724Y-391157834D01*
X118933042Y-391155710D01*
X118947500Y-391155000D01*
X119242500Y-391155000D01*
X119256958Y-391155710D01*
X119256958Y-391155710D01*
G37*
D15*
X119095000Y-391475000D03*
D13*
G36*
X119256958Y-390155710D02*
G01*
X119271276Y-390157834D01*
X119285317Y-390161351D01*
X119298946Y-390166228D01*
X119312031Y-390172417D01*
X119324447Y-390179858D01*
X119336073Y-390188481D01*
X119346798Y-390198202D01*
X119356519Y-390208927D01*
X119365142Y-390220553D01*
X119372583Y-390232969D01*
X119378772Y-390246054D01*
X119383649Y-390259683D01*
X119387166Y-390273724D01*
X119389290Y-390288042D01*
X119390000Y-390302500D01*
X119390000Y-390647500D01*
X119389290Y-390661958D01*
X119387166Y-390676276D01*
X119383649Y-390690317D01*
X119378772Y-390703946D01*
X119372583Y-390717031D01*
X119365142Y-390729447D01*
X119356519Y-390741073D01*
X119346798Y-390751798D01*
X119336073Y-390761519D01*
X119324447Y-390770142D01*
X119312031Y-390777583D01*
X119298946Y-390783772D01*
X119285317Y-390788649D01*
X119271276Y-390792166D01*
X119256958Y-390794290D01*
X119242500Y-390795000D01*
X118947500Y-390795000D01*
X118933042Y-390794290D01*
X118918724Y-390792166D01*
X118904683Y-390788649D01*
X118891054Y-390783772D01*
X118877969Y-390777583D01*
X118865553Y-390770142D01*
X118853927Y-390761519D01*
X118843202Y-390751798D01*
X118833481Y-390741073D01*
X118824858Y-390729447D01*
X118817417Y-390717031D01*
X118811228Y-390703946D01*
X118806351Y-390690317D01*
X118802834Y-390676276D01*
X118800710Y-390661958D01*
X118800000Y-390647500D01*
X118800000Y-390302500D01*
X118800710Y-390288042D01*
X118802834Y-390273724D01*
X118806351Y-390259683D01*
X118811228Y-390246054D01*
X118817417Y-390232969D01*
X118824858Y-390220553D01*
X118833481Y-390208927D01*
X118843202Y-390198202D01*
X118853927Y-390188481D01*
X118865553Y-390179858D01*
X118877969Y-390172417D01*
X118891054Y-390166228D01*
X118904683Y-390161351D01*
X118918724Y-390157834D01*
X118933042Y-390155710D01*
X118947500Y-390155000D01*
X119242500Y-390155000D01*
X119256958Y-390155710D01*
X119256958Y-390155710D01*
G37*
D15*
X119095000Y-390475000D03*
D13*
G36*
X118286958Y-390155710D02*
G01*
X118301276Y-390157834D01*
X118315317Y-390161351D01*
X118328946Y-390166228D01*
X118342031Y-390172417D01*
X118354447Y-390179858D01*
X118366073Y-390188481D01*
X118376798Y-390198202D01*
X118386519Y-390208927D01*
X118395142Y-390220553D01*
X118402583Y-390232969D01*
X118408772Y-390246054D01*
X118413649Y-390259683D01*
X118417166Y-390273724D01*
X118419290Y-390288042D01*
X118420000Y-390302500D01*
X118420000Y-390647500D01*
X118419290Y-390661958D01*
X118417166Y-390676276D01*
X118413649Y-390690317D01*
X118408772Y-390703946D01*
X118402583Y-390717031D01*
X118395142Y-390729447D01*
X118386519Y-390741073D01*
X118376798Y-390751798D01*
X118366073Y-390761519D01*
X118354447Y-390770142D01*
X118342031Y-390777583D01*
X118328946Y-390783772D01*
X118315317Y-390788649D01*
X118301276Y-390792166D01*
X118286958Y-390794290D01*
X118272500Y-390795000D01*
X117977500Y-390795000D01*
X117963042Y-390794290D01*
X117948724Y-390792166D01*
X117934683Y-390788649D01*
X117921054Y-390783772D01*
X117907969Y-390777583D01*
X117895553Y-390770142D01*
X117883927Y-390761519D01*
X117873202Y-390751798D01*
X117863481Y-390741073D01*
X117854858Y-390729447D01*
X117847417Y-390717031D01*
X117841228Y-390703946D01*
X117836351Y-390690317D01*
X117832834Y-390676276D01*
X117830710Y-390661958D01*
X117830000Y-390647500D01*
X117830000Y-390302500D01*
X117830710Y-390288042D01*
X117832834Y-390273724D01*
X117836351Y-390259683D01*
X117841228Y-390246054D01*
X117847417Y-390232969D01*
X117854858Y-390220553D01*
X117863481Y-390208927D01*
X117873202Y-390198202D01*
X117883927Y-390188481D01*
X117895553Y-390179858D01*
X117907969Y-390172417D01*
X117921054Y-390166228D01*
X117934683Y-390161351D01*
X117948724Y-390157834D01*
X117963042Y-390155710D01*
X117977500Y-390155000D01*
X118272500Y-390155000D01*
X118286958Y-390155710D01*
X118286958Y-390155710D01*
G37*
D15*
X118125000Y-390475000D03*
D13*
G36*
X107071958Y-466770710D02*
G01*
X107086276Y-466772834D01*
X107100317Y-466776351D01*
X107113946Y-466781228D01*
X107127031Y-466787417D01*
X107139447Y-466794858D01*
X107151073Y-466803481D01*
X107161798Y-466813202D01*
X107171519Y-466823927D01*
X107180142Y-466835553D01*
X107187583Y-466847969D01*
X107193772Y-466861054D01*
X107198649Y-466874683D01*
X107202166Y-466888724D01*
X107204290Y-466903042D01*
X107205000Y-466917500D01*
X107205000Y-467262500D01*
X107204290Y-467276958D01*
X107202166Y-467291276D01*
X107198649Y-467305317D01*
X107193772Y-467318946D01*
X107187583Y-467332031D01*
X107180142Y-467344447D01*
X107171519Y-467356073D01*
X107161798Y-467366798D01*
X107151073Y-467376519D01*
X107139447Y-467385142D01*
X107127031Y-467392583D01*
X107113946Y-467398772D01*
X107100317Y-467403649D01*
X107086276Y-467407166D01*
X107071958Y-467409290D01*
X107057500Y-467410000D01*
X106762500Y-467410000D01*
X106748042Y-467409290D01*
X106733724Y-467407166D01*
X106719683Y-467403649D01*
X106706054Y-467398772D01*
X106692969Y-467392583D01*
X106680553Y-467385142D01*
X106668927Y-467376519D01*
X106658202Y-467366798D01*
X106648481Y-467356073D01*
X106639858Y-467344447D01*
X106632417Y-467332031D01*
X106626228Y-467318946D01*
X106621351Y-467305317D01*
X106617834Y-467291276D01*
X106615710Y-467276958D01*
X106615000Y-467262500D01*
X106615000Y-466917500D01*
X106615710Y-466903042D01*
X106617834Y-466888724D01*
X106621351Y-466874683D01*
X106626228Y-466861054D01*
X106632417Y-466847969D01*
X106639858Y-466835553D01*
X106648481Y-466823927D01*
X106658202Y-466813202D01*
X106668927Y-466803481D01*
X106680553Y-466794858D01*
X106692969Y-466787417D01*
X106706054Y-466781228D01*
X106719683Y-466776351D01*
X106733724Y-466772834D01*
X106748042Y-466770710D01*
X106762500Y-466770000D01*
X107057500Y-466770000D01*
X107071958Y-466770710D01*
X107071958Y-466770710D01*
G37*
D15*
X106910000Y-467090000D03*
D13*
G36*
X106101958Y-466770710D02*
G01*
X106116276Y-466772834D01*
X106130317Y-466776351D01*
X106143946Y-466781228D01*
X106157031Y-466787417D01*
X106169447Y-466794858D01*
X106181073Y-466803481D01*
X106191798Y-466813202D01*
X106201519Y-466823927D01*
X106210142Y-466835553D01*
X106217583Y-466847969D01*
X106223772Y-466861054D01*
X106228649Y-466874683D01*
X106232166Y-466888724D01*
X106234290Y-466903042D01*
X106235000Y-466917500D01*
X106235000Y-467262500D01*
X106234290Y-467276958D01*
X106232166Y-467291276D01*
X106228649Y-467305317D01*
X106223772Y-467318946D01*
X106217583Y-467332031D01*
X106210142Y-467344447D01*
X106201519Y-467356073D01*
X106191798Y-467366798D01*
X106181073Y-467376519D01*
X106169447Y-467385142D01*
X106157031Y-467392583D01*
X106143946Y-467398772D01*
X106130317Y-467403649D01*
X106116276Y-467407166D01*
X106101958Y-467409290D01*
X106087500Y-467410000D01*
X105792500Y-467410000D01*
X105778042Y-467409290D01*
X105763724Y-467407166D01*
X105749683Y-467403649D01*
X105736054Y-467398772D01*
X105722969Y-467392583D01*
X105710553Y-467385142D01*
X105698927Y-467376519D01*
X105688202Y-467366798D01*
X105678481Y-467356073D01*
X105669858Y-467344447D01*
X105662417Y-467332031D01*
X105656228Y-467318946D01*
X105651351Y-467305317D01*
X105647834Y-467291276D01*
X105645710Y-467276958D01*
X105645000Y-467262500D01*
X105645000Y-466917500D01*
X105645710Y-466903042D01*
X105647834Y-466888724D01*
X105651351Y-466874683D01*
X105656228Y-466861054D01*
X105662417Y-466847969D01*
X105669858Y-466835553D01*
X105678481Y-466823927D01*
X105688202Y-466813202D01*
X105698927Y-466803481D01*
X105710553Y-466794858D01*
X105722969Y-466787417D01*
X105736054Y-466781228D01*
X105749683Y-466776351D01*
X105763724Y-466772834D01*
X105778042Y-466770710D01*
X105792500Y-466770000D01*
X106087500Y-466770000D01*
X106101958Y-466770710D01*
X106101958Y-466770710D01*
G37*
D15*
X105940000Y-467090000D03*
D13*
G36*
X119846958Y-460930710D02*
G01*
X119861276Y-460932834D01*
X119875317Y-460936351D01*
X119888946Y-460941228D01*
X119902031Y-460947417D01*
X119914447Y-460954858D01*
X119926073Y-460963481D01*
X119936798Y-460973202D01*
X119946519Y-460983927D01*
X119955142Y-460995553D01*
X119962583Y-461007969D01*
X119968772Y-461021054D01*
X119973649Y-461034683D01*
X119977166Y-461048724D01*
X119979290Y-461063042D01*
X119980000Y-461077500D01*
X119980000Y-461422500D01*
X119979290Y-461436958D01*
X119977166Y-461451276D01*
X119973649Y-461465317D01*
X119968772Y-461478946D01*
X119962583Y-461492031D01*
X119955142Y-461504447D01*
X119946519Y-461516073D01*
X119936798Y-461526798D01*
X119926073Y-461536519D01*
X119914447Y-461545142D01*
X119902031Y-461552583D01*
X119888946Y-461558772D01*
X119875317Y-461563649D01*
X119861276Y-461567166D01*
X119846958Y-461569290D01*
X119832500Y-461570000D01*
X119537500Y-461570000D01*
X119523042Y-461569290D01*
X119508724Y-461567166D01*
X119494683Y-461563649D01*
X119481054Y-461558772D01*
X119467969Y-461552583D01*
X119455553Y-461545142D01*
X119443927Y-461536519D01*
X119433202Y-461526798D01*
X119423481Y-461516073D01*
X119414858Y-461504447D01*
X119407417Y-461492031D01*
X119401228Y-461478946D01*
X119396351Y-461465317D01*
X119392834Y-461451276D01*
X119390710Y-461436958D01*
X119390000Y-461422500D01*
X119390000Y-461077500D01*
X119390710Y-461063042D01*
X119392834Y-461048724D01*
X119396351Y-461034683D01*
X119401228Y-461021054D01*
X119407417Y-461007969D01*
X119414858Y-460995553D01*
X119423481Y-460983927D01*
X119433202Y-460973202D01*
X119443927Y-460963481D01*
X119455553Y-460954858D01*
X119467969Y-460947417D01*
X119481054Y-460941228D01*
X119494683Y-460936351D01*
X119508724Y-460932834D01*
X119523042Y-460930710D01*
X119537500Y-460930000D01*
X119832500Y-460930000D01*
X119846958Y-460930710D01*
X119846958Y-460930710D01*
G37*
D15*
X119685000Y-461250000D03*
D13*
G36*
X118876958Y-460930710D02*
G01*
X118891276Y-460932834D01*
X118905317Y-460936351D01*
X118918946Y-460941228D01*
X118932031Y-460947417D01*
X118944447Y-460954858D01*
X118956073Y-460963481D01*
X118966798Y-460973202D01*
X118976519Y-460983927D01*
X118985142Y-460995553D01*
X118992583Y-461007969D01*
X118998772Y-461021054D01*
X119003649Y-461034683D01*
X119007166Y-461048724D01*
X119009290Y-461063042D01*
X119010000Y-461077500D01*
X119010000Y-461422500D01*
X119009290Y-461436958D01*
X119007166Y-461451276D01*
X119003649Y-461465317D01*
X118998772Y-461478946D01*
X118992583Y-461492031D01*
X118985142Y-461504447D01*
X118976519Y-461516073D01*
X118966798Y-461526798D01*
X118956073Y-461536519D01*
X118944447Y-461545142D01*
X118932031Y-461552583D01*
X118918946Y-461558772D01*
X118905317Y-461563649D01*
X118891276Y-461567166D01*
X118876958Y-461569290D01*
X118862500Y-461570000D01*
X118567500Y-461570000D01*
X118553042Y-461569290D01*
X118538724Y-461567166D01*
X118524683Y-461563649D01*
X118511054Y-461558772D01*
X118497969Y-461552583D01*
X118485553Y-461545142D01*
X118473927Y-461536519D01*
X118463202Y-461526798D01*
X118453481Y-461516073D01*
X118444858Y-461504447D01*
X118437417Y-461492031D01*
X118431228Y-461478946D01*
X118426351Y-461465317D01*
X118422834Y-461451276D01*
X118420710Y-461436958D01*
X118420000Y-461422500D01*
X118420000Y-461077500D01*
X118420710Y-461063042D01*
X118422834Y-461048724D01*
X118426351Y-461034683D01*
X118431228Y-461021054D01*
X118437417Y-461007969D01*
X118444858Y-460995553D01*
X118453481Y-460983927D01*
X118463202Y-460973202D01*
X118473927Y-460963481D01*
X118485553Y-460954858D01*
X118497969Y-460947417D01*
X118511054Y-460941228D01*
X118524683Y-460936351D01*
X118538724Y-460932834D01*
X118553042Y-460930710D01*
X118567500Y-460930000D01*
X118862500Y-460930000D01*
X118876958Y-460930710D01*
X118876958Y-460930710D01*
G37*
D15*
X118715000Y-461250000D03*
D13*
G36*
X97486958Y-454485710D02*
G01*
X97501276Y-454487834D01*
X97515317Y-454491351D01*
X97528946Y-454496228D01*
X97542031Y-454502417D01*
X97554447Y-454509858D01*
X97566073Y-454518481D01*
X97576798Y-454528202D01*
X97586519Y-454538927D01*
X97595142Y-454550553D01*
X97602583Y-454562969D01*
X97608772Y-454576054D01*
X97613649Y-454589683D01*
X97617166Y-454603724D01*
X97619290Y-454618042D01*
X97620000Y-454632500D01*
X97620000Y-454927500D01*
X97619290Y-454941958D01*
X97617166Y-454956276D01*
X97613649Y-454970317D01*
X97608772Y-454983946D01*
X97602583Y-454997031D01*
X97595142Y-455009447D01*
X97586519Y-455021073D01*
X97576798Y-455031798D01*
X97566073Y-455041519D01*
X97554447Y-455050142D01*
X97542031Y-455057583D01*
X97528946Y-455063772D01*
X97515317Y-455068649D01*
X97501276Y-455072166D01*
X97486958Y-455074290D01*
X97472500Y-455075000D01*
X97127500Y-455075000D01*
X97113042Y-455074290D01*
X97098724Y-455072166D01*
X97084683Y-455068649D01*
X97071054Y-455063772D01*
X97057969Y-455057583D01*
X97045553Y-455050142D01*
X97033927Y-455041519D01*
X97023202Y-455031798D01*
X97013481Y-455021073D01*
X97004858Y-455009447D01*
X96997417Y-454997031D01*
X96991228Y-454983946D01*
X96986351Y-454970317D01*
X96982834Y-454956276D01*
X96980710Y-454941958D01*
X96980000Y-454927500D01*
X96980000Y-454632500D01*
X96980710Y-454618042D01*
X96982834Y-454603724D01*
X96986351Y-454589683D01*
X96991228Y-454576054D01*
X96997417Y-454562969D01*
X97004858Y-454550553D01*
X97013481Y-454538927D01*
X97023202Y-454528202D01*
X97033927Y-454518481D01*
X97045553Y-454509858D01*
X97057969Y-454502417D01*
X97071054Y-454496228D01*
X97084683Y-454491351D01*
X97098724Y-454487834D01*
X97113042Y-454485710D01*
X97127500Y-454485000D01*
X97472500Y-454485000D01*
X97486958Y-454485710D01*
X97486958Y-454485710D01*
G37*
D15*
X97300000Y-454780000D03*
D13*
G36*
X97486958Y-455455710D02*
G01*
X97501276Y-455457834D01*
X97515317Y-455461351D01*
X97528946Y-455466228D01*
X97542031Y-455472417D01*
X97554447Y-455479858D01*
X97566073Y-455488481D01*
X97576798Y-455498202D01*
X97586519Y-455508927D01*
X97595142Y-455520553D01*
X97602583Y-455532969D01*
X97608772Y-455546054D01*
X97613649Y-455559683D01*
X97617166Y-455573724D01*
X97619290Y-455588042D01*
X97620000Y-455602500D01*
X97620000Y-455897500D01*
X97619290Y-455911958D01*
X97617166Y-455926276D01*
X97613649Y-455940317D01*
X97608772Y-455953946D01*
X97602583Y-455967031D01*
X97595142Y-455979447D01*
X97586519Y-455991073D01*
X97576798Y-456001798D01*
X97566073Y-456011519D01*
X97554447Y-456020142D01*
X97542031Y-456027583D01*
X97528946Y-456033772D01*
X97515317Y-456038649D01*
X97501276Y-456042166D01*
X97486958Y-456044290D01*
X97472500Y-456045000D01*
X97127500Y-456045000D01*
X97113042Y-456044290D01*
X97098724Y-456042166D01*
X97084683Y-456038649D01*
X97071054Y-456033772D01*
X97057969Y-456027583D01*
X97045553Y-456020142D01*
X97033927Y-456011519D01*
X97023202Y-456001798D01*
X97013481Y-455991073D01*
X97004858Y-455979447D01*
X96997417Y-455967031D01*
X96991228Y-455953946D01*
X96986351Y-455940317D01*
X96982834Y-455926276D01*
X96980710Y-455911958D01*
X96980000Y-455897500D01*
X96980000Y-455602500D01*
X96980710Y-455588042D01*
X96982834Y-455573724D01*
X96986351Y-455559683D01*
X96991228Y-455546054D01*
X96997417Y-455532969D01*
X97004858Y-455520553D01*
X97013481Y-455508927D01*
X97023202Y-455498202D01*
X97033927Y-455488481D01*
X97045553Y-455479858D01*
X97057969Y-455472417D01*
X97071054Y-455466228D01*
X97084683Y-455461351D01*
X97098724Y-455457834D01*
X97113042Y-455455710D01*
X97127500Y-455455000D01*
X97472500Y-455455000D01*
X97486958Y-455455710D01*
X97486958Y-455455710D01*
G37*
D15*
X97300000Y-455750000D03*
D13*
G36*
X109586958Y-468325710D02*
G01*
X109601276Y-468327834D01*
X109615317Y-468331351D01*
X109628946Y-468336228D01*
X109642031Y-468342417D01*
X109654447Y-468349858D01*
X109666073Y-468358481D01*
X109676798Y-468368202D01*
X109686519Y-468378927D01*
X109695142Y-468390553D01*
X109702583Y-468402969D01*
X109708772Y-468416054D01*
X109713649Y-468429683D01*
X109717166Y-468443724D01*
X109719290Y-468458042D01*
X109720000Y-468472500D01*
X109720000Y-468767500D01*
X109719290Y-468781958D01*
X109717166Y-468796276D01*
X109713649Y-468810317D01*
X109708772Y-468823946D01*
X109702583Y-468837031D01*
X109695142Y-468849447D01*
X109686519Y-468861073D01*
X109676798Y-468871798D01*
X109666073Y-468881519D01*
X109654447Y-468890142D01*
X109642031Y-468897583D01*
X109628946Y-468903772D01*
X109615317Y-468908649D01*
X109601276Y-468912166D01*
X109586958Y-468914290D01*
X109572500Y-468915000D01*
X109227500Y-468915000D01*
X109213042Y-468914290D01*
X109198724Y-468912166D01*
X109184683Y-468908649D01*
X109171054Y-468903772D01*
X109157969Y-468897583D01*
X109145553Y-468890142D01*
X109133927Y-468881519D01*
X109123202Y-468871798D01*
X109113481Y-468861073D01*
X109104858Y-468849447D01*
X109097417Y-468837031D01*
X109091228Y-468823946D01*
X109086351Y-468810317D01*
X109082834Y-468796276D01*
X109080710Y-468781958D01*
X109080000Y-468767500D01*
X109080000Y-468472500D01*
X109080710Y-468458042D01*
X109082834Y-468443724D01*
X109086351Y-468429683D01*
X109091228Y-468416054D01*
X109097417Y-468402969D01*
X109104858Y-468390553D01*
X109113481Y-468378927D01*
X109123202Y-468368202D01*
X109133927Y-468358481D01*
X109145553Y-468349858D01*
X109157969Y-468342417D01*
X109171054Y-468336228D01*
X109184683Y-468331351D01*
X109198724Y-468327834D01*
X109213042Y-468325710D01*
X109227500Y-468325000D01*
X109572500Y-468325000D01*
X109586958Y-468325710D01*
X109586958Y-468325710D01*
G37*
D15*
X109400000Y-468620000D03*
D13*
G36*
X109586958Y-467355710D02*
G01*
X109601276Y-467357834D01*
X109615317Y-467361351D01*
X109628946Y-467366228D01*
X109642031Y-467372417D01*
X109654447Y-467379858D01*
X109666073Y-467388481D01*
X109676798Y-467398202D01*
X109686519Y-467408927D01*
X109695142Y-467420553D01*
X109702583Y-467432969D01*
X109708772Y-467446054D01*
X109713649Y-467459683D01*
X109717166Y-467473724D01*
X109719290Y-467488042D01*
X109720000Y-467502500D01*
X109720000Y-467797500D01*
X109719290Y-467811958D01*
X109717166Y-467826276D01*
X109713649Y-467840317D01*
X109708772Y-467853946D01*
X109702583Y-467867031D01*
X109695142Y-467879447D01*
X109686519Y-467891073D01*
X109676798Y-467901798D01*
X109666073Y-467911519D01*
X109654447Y-467920142D01*
X109642031Y-467927583D01*
X109628946Y-467933772D01*
X109615317Y-467938649D01*
X109601276Y-467942166D01*
X109586958Y-467944290D01*
X109572500Y-467945000D01*
X109227500Y-467945000D01*
X109213042Y-467944290D01*
X109198724Y-467942166D01*
X109184683Y-467938649D01*
X109171054Y-467933772D01*
X109157969Y-467927583D01*
X109145553Y-467920142D01*
X109133927Y-467911519D01*
X109123202Y-467901798D01*
X109113481Y-467891073D01*
X109104858Y-467879447D01*
X109097417Y-467867031D01*
X109091228Y-467853946D01*
X109086351Y-467840317D01*
X109082834Y-467826276D01*
X109080710Y-467811958D01*
X109080000Y-467797500D01*
X109080000Y-467502500D01*
X109080710Y-467488042D01*
X109082834Y-467473724D01*
X109086351Y-467459683D01*
X109091228Y-467446054D01*
X109097417Y-467432969D01*
X109104858Y-467420553D01*
X109113481Y-467408927D01*
X109123202Y-467398202D01*
X109133927Y-467388481D01*
X109145553Y-467379858D01*
X109157969Y-467372417D01*
X109171054Y-467366228D01*
X109184683Y-467361351D01*
X109198724Y-467357834D01*
X109213042Y-467355710D01*
X109227500Y-467355000D01*
X109572500Y-467355000D01*
X109586958Y-467355710D01*
X109586958Y-467355710D01*
G37*
D15*
X109400000Y-467650000D03*
D13*
G36*
X114611958Y-454620710D02*
G01*
X114626276Y-454622834D01*
X114640317Y-454626351D01*
X114653946Y-454631228D01*
X114667031Y-454637417D01*
X114679447Y-454644858D01*
X114691073Y-454653481D01*
X114701798Y-454663202D01*
X114711519Y-454673927D01*
X114720142Y-454685553D01*
X114727583Y-454697969D01*
X114733772Y-454711054D01*
X114738649Y-454724683D01*
X114742166Y-454738724D01*
X114744290Y-454753042D01*
X114745000Y-454767500D01*
X114745000Y-455062500D01*
X114744290Y-455076958D01*
X114742166Y-455091276D01*
X114738649Y-455105317D01*
X114733772Y-455118946D01*
X114727583Y-455132031D01*
X114720142Y-455144447D01*
X114711519Y-455156073D01*
X114701798Y-455166798D01*
X114691073Y-455176519D01*
X114679447Y-455185142D01*
X114667031Y-455192583D01*
X114653946Y-455198772D01*
X114640317Y-455203649D01*
X114626276Y-455207166D01*
X114611958Y-455209290D01*
X114597500Y-455210000D01*
X114252500Y-455210000D01*
X114238042Y-455209290D01*
X114223724Y-455207166D01*
X114209683Y-455203649D01*
X114196054Y-455198772D01*
X114182969Y-455192583D01*
X114170553Y-455185142D01*
X114158927Y-455176519D01*
X114148202Y-455166798D01*
X114138481Y-455156073D01*
X114129858Y-455144447D01*
X114122417Y-455132031D01*
X114116228Y-455118946D01*
X114111351Y-455105317D01*
X114107834Y-455091276D01*
X114105710Y-455076958D01*
X114105000Y-455062500D01*
X114105000Y-454767500D01*
X114105710Y-454753042D01*
X114107834Y-454738724D01*
X114111351Y-454724683D01*
X114116228Y-454711054D01*
X114122417Y-454697969D01*
X114129858Y-454685553D01*
X114138481Y-454673927D01*
X114148202Y-454663202D01*
X114158927Y-454653481D01*
X114170553Y-454644858D01*
X114182969Y-454637417D01*
X114196054Y-454631228D01*
X114209683Y-454626351D01*
X114223724Y-454622834D01*
X114238042Y-454620710D01*
X114252500Y-454620000D01*
X114597500Y-454620000D01*
X114611958Y-454620710D01*
X114611958Y-454620710D01*
G37*
D15*
X114425000Y-454915000D03*
D13*
G36*
X114611958Y-455590710D02*
G01*
X114626276Y-455592834D01*
X114640317Y-455596351D01*
X114653946Y-455601228D01*
X114667031Y-455607417D01*
X114679447Y-455614858D01*
X114691073Y-455623481D01*
X114701798Y-455633202D01*
X114711519Y-455643927D01*
X114720142Y-455655553D01*
X114727583Y-455667969D01*
X114733772Y-455681054D01*
X114738649Y-455694683D01*
X114742166Y-455708724D01*
X114744290Y-455723042D01*
X114745000Y-455737500D01*
X114745000Y-456032500D01*
X114744290Y-456046958D01*
X114742166Y-456061276D01*
X114738649Y-456075317D01*
X114733772Y-456088946D01*
X114727583Y-456102031D01*
X114720142Y-456114447D01*
X114711519Y-456126073D01*
X114701798Y-456136798D01*
X114691073Y-456146519D01*
X114679447Y-456155142D01*
X114667031Y-456162583D01*
X114653946Y-456168772D01*
X114640317Y-456173649D01*
X114626276Y-456177166D01*
X114611958Y-456179290D01*
X114597500Y-456180000D01*
X114252500Y-456180000D01*
X114238042Y-456179290D01*
X114223724Y-456177166D01*
X114209683Y-456173649D01*
X114196054Y-456168772D01*
X114182969Y-456162583D01*
X114170553Y-456155142D01*
X114158927Y-456146519D01*
X114148202Y-456136798D01*
X114138481Y-456126073D01*
X114129858Y-456114447D01*
X114122417Y-456102031D01*
X114116228Y-456088946D01*
X114111351Y-456075317D01*
X114107834Y-456061276D01*
X114105710Y-456046958D01*
X114105000Y-456032500D01*
X114105000Y-455737500D01*
X114105710Y-455723042D01*
X114107834Y-455708724D01*
X114111351Y-455694683D01*
X114116228Y-455681054D01*
X114122417Y-455667969D01*
X114129858Y-455655553D01*
X114138481Y-455643927D01*
X114148202Y-455633202D01*
X114158927Y-455623481D01*
X114170553Y-455614858D01*
X114182969Y-455607417D01*
X114196054Y-455601228D01*
X114209683Y-455596351D01*
X114223724Y-455592834D01*
X114238042Y-455590710D01*
X114252500Y-455590000D01*
X114597500Y-455590000D01*
X114611958Y-455590710D01*
X114611958Y-455590710D01*
G37*
D15*
X114425000Y-455885000D03*
D13*
G36*
X119846958Y-461930710D02*
G01*
X119861276Y-461932834D01*
X119875317Y-461936351D01*
X119888946Y-461941228D01*
X119902031Y-461947417D01*
X119914447Y-461954858D01*
X119926073Y-461963481D01*
X119936798Y-461973202D01*
X119946519Y-461983927D01*
X119955142Y-461995553D01*
X119962583Y-462007969D01*
X119968772Y-462021054D01*
X119973649Y-462034683D01*
X119977166Y-462048724D01*
X119979290Y-462063042D01*
X119980000Y-462077500D01*
X119980000Y-462422500D01*
X119979290Y-462436958D01*
X119977166Y-462451276D01*
X119973649Y-462465317D01*
X119968772Y-462478946D01*
X119962583Y-462492031D01*
X119955142Y-462504447D01*
X119946519Y-462516073D01*
X119936798Y-462526798D01*
X119926073Y-462536519D01*
X119914447Y-462545142D01*
X119902031Y-462552583D01*
X119888946Y-462558772D01*
X119875317Y-462563649D01*
X119861276Y-462567166D01*
X119846958Y-462569290D01*
X119832500Y-462570000D01*
X119537500Y-462570000D01*
X119523042Y-462569290D01*
X119508724Y-462567166D01*
X119494683Y-462563649D01*
X119481054Y-462558772D01*
X119467969Y-462552583D01*
X119455553Y-462545142D01*
X119443927Y-462536519D01*
X119433202Y-462526798D01*
X119423481Y-462516073D01*
X119414858Y-462504447D01*
X119407417Y-462492031D01*
X119401228Y-462478946D01*
X119396351Y-462465317D01*
X119392834Y-462451276D01*
X119390710Y-462436958D01*
X119390000Y-462422500D01*
X119390000Y-462077500D01*
X119390710Y-462063042D01*
X119392834Y-462048724D01*
X119396351Y-462034683D01*
X119401228Y-462021054D01*
X119407417Y-462007969D01*
X119414858Y-461995553D01*
X119423481Y-461983927D01*
X119433202Y-461973202D01*
X119443927Y-461963481D01*
X119455553Y-461954858D01*
X119467969Y-461947417D01*
X119481054Y-461941228D01*
X119494683Y-461936351D01*
X119508724Y-461932834D01*
X119523042Y-461930710D01*
X119537500Y-461930000D01*
X119832500Y-461930000D01*
X119846958Y-461930710D01*
X119846958Y-461930710D01*
G37*
D15*
X119685000Y-462250000D03*
D13*
G36*
X118876958Y-461930710D02*
G01*
X118891276Y-461932834D01*
X118905317Y-461936351D01*
X118918946Y-461941228D01*
X118932031Y-461947417D01*
X118944447Y-461954858D01*
X118956073Y-461963481D01*
X118966798Y-461973202D01*
X118976519Y-461983927D01*
X118985142Y-461995553D01*
X118992583Y-462007969D01*
X118998772Y-462021054D01*
X119003649Y-462034683D01*
X119007166Y-462048724D01*
X119009290Y-462063042D01*
X119010000Y-462077500D01*
X119010000Y-462422500D01*
X119009290Y-462436958D01*
X119007166Y-462451276D01*
X119003649Y-462465317D01*
X118998772Y-462478946D01*
X118992583Y-462492031D01*
X118985142Y-462504447D01*
X118976519Y-462516073D01*
X118966798Y-462526798D01*
X118956073Y-462536519D01*
X118944447Y-462545142D01*
X118932031Y-462552583D01*
X118918946Y-462558772D01*
X118905317Y-462563649D01*
X118891276Y-462567166D01*
X118876958Y-462569290D01*
X118862500Y-462570000D01*
X118567500Y-462570000D01*
X118553042Y-462569290D01*
X118538724Y-462567166D01*
X118524683Y-462563649D01*
X118511054Y-462558772D01*
X118497969Y-462552583D01*
X118485553Y-462545142D01*
X118473927Y-462536519D01*
X118463202Y-462526798D01*
X118453481Y-462516073D01*
X118444858Y-462504447D01*
X118437417Y-462492031D01*
X118431228Y-462478946D01*
X118426351Y-462465317D01*
X118422834Y-462451276D01*
X118420710Y-462436958D01*
X118420000Y-462422500D01*
X118420000Y-462077500D01*
X118420710Y-462063042D01*
X118422834Y-462048724D01*
X118426351Y-462034683D01*
X118431228Y-462021054D01*
X118437417Y-462007969D01*
X118444858Y-461995553D01*
X118453481Y-461983927D01*
X118463202Y-461973202D01*
X118473927Y-461963481D01*
X118485553Y-461954858D01*
X118497969Y-461947417D01*
X118511054Y-461941228D01*
X118524683Y-461936351D01*
X118538724Y-461932834D01*
X118553042Y-461930710D01*
X118567500Y-461930000D01*
X118862500Y-461930000D01*
X118876958Y-461930710D01*
X118876958Y-461930710D01*
G37*
D15*
X118715000Y-462250000D03*
D13*
G36*
X106091958Y-461230710D02*
G01*
X106106276Y-461232834D01*
X106120317Y-461236351D01*
X106133946Y-461241228D01*
X106147031Y-461247417D01*
X106159447Y-461254858D01*
X106171073Y-461263481D01*
X106181798Y-461273202D01*
X106191519Y-461283927D01*
X106200142Y-461295553D01*
X106207583Y-461307969D01*
X106213772Y-461321054D01*
X106218649Y-461334683D01*
X106222166Y-461348724D01*
X106224290Y-461363042D01*
X106225000Y-461377500D01*
X106225000Y-461722500D01*
X106224290Y-461736958D01*
X106222166Y-461751276D01*
X106218649Y-461765317D01*
X106213772Y-461778946D01*
X106207583Y-461792031D01*
X106200142Y-461804447D01*
X106191519Y-461816073D01*
X106181798Y-461826798D01*
X106171073Y-461836519D01*
X106159447Y-461845142D01*
X106147031Y-461852583D01*
X106133946Y-461858772D01*
X106120317Y-461863649D01*
X106106276Y-461867166D01*
X106091958Y-461869290D01*
X106077500Y-461870000D01*
X105782500Y-461870000D01*
X105768042Y-461869290D01*
X105753724Y-461867166D01*
X105739683Y-461863649D01*
X105726054Y-461858772D01*
X105712969Y-461852583D01*
X105700553Y-461845142D01*
X105688927Y-461836519D01*
X105678202Y-461826798D01*
X105668481Y-461816073D01*
X105659858Y-461804447D01*
X105652417Y-461792031D01*
X105646228Y-461778946D01*
X105641351Y-461765317D01*
X105637834Y-461751276D01*
X105635710Y-461736958D01*
X105635000Y-461722500D01*
X105635000Y-461377500D01*
X105635710Y-461363042D01*
X105637834Y-461348724D01*
X105641351Y-461334683D01*
X105646228Y-461321054D01*
X105652417Y-461307969D01*
X105659858Y-461295553D01*
X105668481Y-461283927D01*
X105678202Y-461273202D01*
X105688927Y-461263481D01*
X105700553Y-461254858D01*
X105712969Y-461247417D01*
X105726054Y-461241228D01*
X105739683Y-461236351D01*
X105753724Y-461232834D01*
X105768042Y-461230710D01*
X105782500Y-461230000D01*
X106077500Y-461230000D01*
X106091958Y-461230710D01*
X106091958Y-461230710D01*
G37*
D15*
X105930000Y-461550000D03*
D13*
G36*
X107061958Y-461230710D02*
G01*
X107076276Y-461232834D01*
X107090317Y-461236351D01*
X107103946Y-461241228D01*
X107117031Y-461247417D01*
X107129447Y-461254858D01*
X107141073Y-461263481D01*
X107151798Y-461273202D01*
X107161519Y-461283927D01*
X107170142Y-461295553D01*
X107177583Y-461307969D01*
X107183772Y-461321054D01*
X107188649Y-461334683D01*
X107192166Y-461348724D01*
X107194290Y-461363042D01*
X107195000Y-461377500D01*
X107195000Y-461722500D01*
X107194290Y-461736958D01*
X107192166Y-461751276D01*
X107188649Y-461765317D01*
X107183772Y-461778946D01*
X107177583Y-461792031D01*
X107170142Y-461804447D01*
X107161519Y-461816073D01*
X107151798Y-461826798D01*
X107141073Y-461836519D01*
X107129447Y-461845142D01*
X107117031Y-461852583D01*
X107103946Y-461858772D01*
X107090317Y-461863649D01*
X107076276Y-461867166D01*
X107061958Y-461869290D01*
X107047500Y-461870000D01*
X106752500Y-461870000D01*
X106738042Y-461869290D01*
X106723724Y-461867166D01*
X106709683Y-461863649D01*
X106696054Y-461858772D01*
X106682969Y-461852583D01*
X106670553Y-461845142D01*
X106658927Y-461836519D01*
X106648202Y-461826798D01*
X106638481Y-461816073D01*
X106629858Y-461804447D01*
X106622417Y-461792031D01*
X106616228Y-461778946D01*
X106611351Y-461765317D01*
X106607834Y-461751276D01*
X106605710Y-461736958D01*
X106605000Y-461722500D01*
X106605000Y-461377500D01*
X106605710Y-461363042D01*
X106607834Y-461348724D01*
X106611351Y-461334683D01*
X106616228Y-461321054D01*
X106622417Y-461307969D01*
X106629858Y-461295553D01*
X106638481Y-461283927D01*
X106648202Y-461273202D01*
X106658927Y-461263481D01*
X106670553Y-461254858D01*
X106682969Y-461247417D01*
X106696054Y-461241228D01*
X106709683Y-461236351D01*
X106723724Y-461232834D01*
X106738042Y-461230710D01*
X106752500Y-461230000D01*
X107047500Y-461230000D01*
X107061958Y-461230710D01*
X107061958Y-461230710D01*
G37*
D15*
X106900000Y-461550000D03*
D13*
G36*
X119831958Y-463455710D02*
G01*
X119846276Y-463457834D01*
X119860317Y-463461351D01*
X119873946Y-463466228D01*
X119887031Y-463472417D01*
X119899447Y-463479858D01*
X119911073Y-463488481D01*
X119921798Y-463498202D01*
X119931519Y-463508927D01*
X119940142Y-463520553D01*
X119947583Y-463532969D01*
X119953772Y-463546054D01*
X119958649Y-463559683D01*
X119962166Y-463573724D01*
X119964290Y-463588042D01*
X119965000Y-463602500D01*
X119965000Y-463947500D01*
X119964290Y-463961958D01*
X119962166Y-463976276D01*
X119958649Y-463990317D01*
X119953772Y-464003946D01*
X119947583Y-464017031D01*
X119940142Y-464029447D01*
X119931519Y-464041073D01*
X119921798Y-464051798D01*
X119911073Y-464061519D01*
X119899447Y-464070142D01*
X119887031Y-464077583D01*
X119873946Y-464083772D01*
X119860317Y-464088649D01*
X119846276Y-464092166D01*
X119831958Y-464094290D01*
X119817500Y-464095000D01*
X119522500Y-464095000D01*
X119508042Y-464094290D01*
X119493724Y-464092166D01*
X119479683Y-464088649D01*
X119466054Y-464083772D01*
X119452969Y-464077583D01*
X119440553Y-464070142D01*
X119428927Y-464061519D01*
X119418202Y-464051798D01*
X119408481Y-464041073D01*
X119399858Y-464029447D01*
X119392417Y-464017031D01*
X119386228Y-464003946D01*
X119381351Y-463990317D01*
X119377834Y-463976276D01*
X119375710Y-463961958D01*
X119375000Y-463947500D01*
X119375000Y-463602500D01*
X119375710Y-463588042D01*
X119377834Y-463573724D01*
X119381351Y-463559683D01*
X119386228Y-463546054D01*
X119392417Y-463532969D01*
X119399858Y-463520553D01*
X119408481Y-463508927D01*
X119418202Y-463498202D01*
X119428927Y-463488481D01*
X119440553Y-463479858D01*
X119452969Y-463472417D01*
X119466054Y-463466228D01*
X119479683Y-463461351D01*
X119493724Y-463457834D01*
X119508042Y-463455710D01*
X119522500Y-463455000D01*
X119817500Y-463455000D01*
X119831958Y-463455710D01*
X119831958Y-463455710D01*
G37*
D15*
X119670000Y-463775000D03*
D13*
G36*
X118861958Y-463455710D02*
G01*
X118876276Y-463457834D01*
X118890317Y-463461351D01*
X118903946Y-463466228D01*
X118917031Y-463472417D01*
X118929447Y-463479858D01*
X118941073Y-463488481D01*
X118951798Y-463498202D01*
X118961519Y-463508927D01*
X118970142Y-463520553D01*
X118977583Y-463532969D01*
X118983772Y-463546054D01*
X118988649Y-463559683D01*
X118992166Y-463573724D01*
X118994290Y-463588042D01*
X118995000Y-463602500D01*
X118995000Y-463947500D01*
X118994290Y-463961958D01*
X118992166Y-463976276D01*
X118988649Y-463990317D01*
X118983772Y-464003946D01*
X118977583Y-464017031D01*
X118970142Y-464029447D01*
X118961519Y-464041073D01*
X118951798Y-464051798D01*
X118941073Y-464061519D01*
X118929447Y-464070142D01*
X118917031Y-464077583D01*
X118903946Y-464083772D01*
X118890317Y-464088649D01*
X118876276Y-464092166D01*
X118861958Y-464094290D01*
X118847500Y-464095000D01*
X118552500Y-464095000D01*
X118538042Y-464094290D01*
X118523724Y-464092166D01*
X118509683Y-464088649D01*
X118496054Y-464083772D01*
X118482969Y-464077583D01*
X118470553Y-464070142D01*
X118458927Y-464061519D01*
X118448202Y-464051798D01*
X118438481Y-464041073D01*
X118429858Y-464029447D01*
X118422417Y-464017031D01*
X118416228Y-464003946D01*
X118411351Y-463990317D01*
X118407834Y-463976276D01*
X118405710Y-463961958D01*
X118405000Y-463947500D01*
X118405000Y-463602500D01*
X118405710Y-463588042D01*
X118407834Y-463573724D01*
X118411351Y-463559683D01*
X118416228Y-463546054D01*
X118422417Y-463532969D01*
X118429858Y-463520553D01*
X118438481Y-463508927D01*
X118448202Y-463498202D01*
X118458927Y-463488481D01*
X118470553Y-463479858D01*
X118482969Y-463472417D01*
X118496054Y-463466228D01*
X118509683Y-463461351D01*
X118523724Y-463457834D01*
X118538042Y-463455710D01*
X118552500Y-463455000D01*
X118847500Y-463455000D01*
X118861958Y-463455710D01*
X118861958Y-463455710D01*
G37*
D15*
X118700000Y-463775000D03*
D13*
G36*
X106126958Y-464730710D02*
G01*
X106141276Y-464732834D01*
X106155317Y-464736351D01*
X106168946Y-464741228D01*
X106182031Y-464747417D01*
X106194447Y-464754858D01*
X106206073Y-464763481D01*
X106216798Y-464773202D01*
X106226519Y-464783927D01*
X106235142Y-464795553D01*
X106242583Y-464807969D01*
X106248772Y-464821054D01*
X106253649Y-464834683D01*
X106257166Y-464848724D01*
X106259290Y-464863042D01*
X106260000Y-464877500D01*
X106260000Y-465222500D01*
X106259290Y-465236958D01*
X106257166Y-465251276D01*
X106253649Y-465265317D01*
X106248772Y-465278946D01*
X106242583Y-465292031D01*
X106235142Y-465304447D01*
X106226519Y-465316073D01*
X106216798Y-465326798D01*
X106206073Y-465336519D01*
X106194447Y-465345142D01*
X106182031Y-465352583D01*
X106168946Y-465358772D01*
X106155317Y-465363649D01*
X106141276Y-465367166D01*
X106126958Y-465369290D01*
X106112500Y-465370000D01*
X105817500Y-465370000D01*
X105803042Y-465369290D01*
X105788724Y-465367166D01*
X105774683Y-465363649D01*
X105761054Y-465358772D01*
X105747969Y-465352583D01*
X105735553Y-465345142D01*
X105723927Y-465336519D01*
X105713202Y-465326798D01*
X105703481Y-465316073D01*
X105694858Y-465304447D01*
X105687417Y-465292031D01*
X105681228Y-465278946D01*
X105676351Y-465265317D01*
X105672834Y-465251276D01*
X105670710Y-465236958D01*
X105670000Y-465222500D01*
X105670000Y-464877500D01*
X105670710Y-464863042D01*
X105672834Y-464848724D01*
X105676351Y-464834683D01*
X105681228Y-464821054D01*
X105687417Y-464807969D01*
X105694858Y-464795553D01*
X105703481Y-464783927D01*
X105713202Y-464773202D01*
X105723927Y-464763481D01*
X105735553Y-464754858D01*
X105747969Y-464747417D01*
X105761054Y-464741228D01*
X105774683Y-464736351D01*
X105788724Y-464732834D01*
X105803042Y-464730710D01*
X105817500Y-464730000D01*
X106112500Y-464730000D01*
X106126958Y-464730710D01*
X106126958Y-464730710D01*
G37*
D15*
X105965000Y-465050000D03*
D13*
G36*
X107096958Y-464730710D02*
G01*
X107111276Y-464732834D01*
X107125317Y-464736351D01*
X107138946Y-464741228D01*
X107152031Y-464747417D01*
X107164447Y-464754858D01*
X107176073Y-464763481D01*
X107186798Y-464773202D01*
X107196519Y-464783927D01*
X107205142Y-464795553D01*
X107212583Y-464807969D01*
X107218772Y-464821054D01*
X107223649Y-464834683D01*
X107227166Y-464848724D01*
X107229290Y-464863042D01*
X107230000Y-464877500D01*
X107230000Y-465222500D01*
X107229290Y-465236958D01*
X107227166Y-465251276D01*
X107223649Y-465265317D01*
X107218772Y-465278946D01*
X107212583Y-465292031D01*
X107205142Y-465304447D01*
X107196519Y-465316073D01*
X107186798Y-465326798D01*
X107176073Y-465336519D01*
X107164447Y-465345142D01*
X107152031Y-465352583D01*
X107138946Y-465358772D01*
X107125317Y-465363649D01*
X107111276Y-465367166D01*
X107096958Y-465369290D01*
X107082500Y-465370000D01*
X106787500Y-465370000D01*
X106773042Y-465369290D01*
X106758724Y-465367166D01*
X106744683Y-465363649D01*
X106731054Y-465358772D01*
X106717969Y-465352583D01*
X106705553Y-465345142D01*
X106693927Y-465336519D01*
X106683202Y-465326798D01*
X106673481Y-465316073D01*
X106664858Y-465304447D01*
X106657417Y-465292031D01*
X106651228Y-465278946D01*
X106646351Y-465265317D01*
X106642834Y-465251276D01*
X106640710Y-465236958D01*
X106640000Y-465222500D01*
X106640000Y-464877500D01*
X106640710Y-464863042D01*
X106642834Y-464848724D01*
X106646351Y-464834683D01*
X106651228Y-464821054D01*
X106657417Y-464807969D01*
X106664858Y-464795553D01*
X106673481Y-464783927D01*
X106683202Y-464773202D01*
X106693927Y-464763481D01*
X106705553Y-464754858D01*
X106717969Y-464747417D01*
X106731054Y-464741228D01*
X106744683Y-464736351D01*
X106758724Y-464732834D01*
X106773042Y-464730710D01*
X106787500Y-464730000D01*
X107082500Y-464730000D01*
X107096958Y-464730710D01*
X107096958Y-464730710D01*
G37*
D15*
X106935000Y-465050000D03*
D13*
G36*
X98216958Y-463540710D02*
G01*
X98231276Y-463542834D01*
X98245317Y-463546351D01*
X98258946Y-463551228D01*
X98272031Y-463557417D01*
X98284447Y-463564858D01*
X98296073Y-463573481D01*
X98306798Y-463583202D01*
X98316519Y-463593927D01*
X98325142Y-463605553D01*
X98332583Y-463617969D01*
X98338772Y-463631054D01*
X98343649Y-463644683D01*
X98347166Y-463658724D01*
X98349290Y-463673042D01*
X98350000Y-463687500D01*
X98350000Y-464032500D01*
X98349290Y-464046958D01*
X98347166Y-464061276D01*
X98343649Y-464075317D01*
X98338772Y-464088946D01*
X98332583Y-464102031D01*
X98325142Y-464114447D01*
X98316519Y-464126073D01*
X98306798Y-464136798D01*
X98296073Y-464146519D01*
X98284447Y-464155142D01*
X98272031Y-464162583D01*
X98258946Y-464168772D01*
X98245317Y-464173649D01*
X98231276Y-464177166D01*
X98216958Y-464179290D01*
X98202500Y-464180000D01*
X97907500Y-464180000D01*
X97893042Y-464179290D01*
X97878724Y-464177166D01*
X97864683Y-464173649D01*
X97851054Y-464168772D01*
X97837969Y-464162583D01*
X97825553Y-464155142D01*
X97813927Y-464146519D01*
X97803202Y-464136798D01*
X97793481Y-464126073D01*
X97784858Y-464114447D01*
X97777417Y-464102031D01*
X97771228Y-464088946D01*
X97766351Y-464075317D01*
X97762834Y-464061276D01*
X97760710Y-464046958D01*
X97760000Y-464032500D01*
X97760000Y-463687500D01*
X97760710Y-463673042D01*
X97762834Y-463658724D01*
X97766351Y-463644683D01*
X97771228Y-463631054D01*
X97777417Y-463617969D01*
X97784858Y-463605553D01*
X97793481Y-463593927D01*
X97803202Y-463583202D01*
X97813927Y-463573481D01*
X97825553Y-463564858D01*
X97837969Y-463557417D01*
X97851054Y-463551228D01*
X97864683Y-463546351D01*
X97878724Y-463542834D01*
X97893042Y-463540710D01*
X97907500Y-463540000D01*
X98202500Y-463540000D01*
X98216958Y-463540710D01*
X98216958Y-463540710D01*
G37*
D15*
X98055000Y-463860000D03*
D13*
G36*
X99186958Y-463540710D02*
G01*
X99201276Y-463542834D01*
X99215317Y-463546351D01*
X99228946Y-463551228D01*
X99242031Y-463557417D01*
X99254447Y-463564858D01*
X99266073Y-463573481D01*
X99276798Y-463583202D01*
X99286519Y-463593927D01*
X99295142Y-463605553D01*
X99302583Y-463617969D01*
X99308772Y-463631054D01*
X99313649Y-463644683D01*
X99317166Y-463658724D01*
X99319290Y-463673042D01*
X99320000Y-463687500D01*
X99320000Y-464032500D01*
X99319290Y-464046958D01*
X99317166Y-464061276D01*
X99313649Y-464075317D01*
X99308772Y-464088946D01*
X99302583Y-464102031D01*
X99295142Y-464114447D01*
X99286519Y-464126073D01*
X99276798Y-464136798D01*
X99266073Y-464146519D01*
X99254447Y-464155142D01*
X99242031Y-464162583D01*
X99228946Y-464168772D01*
X99215317Y-464173649D01*
X99201276Y-464177166D01*
X99186958Y-464179290D01*
X99172500Y-464180000D01*
X98877500Y-464180000D01*
X98863042Y-464179290D01*
X98848724Y-464177166D01*
X98834683Y-464173649D01*
X98821054Y-464168772D01*
X98807969Y-464162583D01*
X98795553Y-464155142D01*
X98783927Y-464146519D01*
X98773202Y-464136798D01*
X98763481Y-464126073D01*
X98754858Y-464114447D01*
X98747417Y-464102031D01*
X98741228Y-464088946D01*
X98736351Y-464075317D01*
X98732834Y-464061276D01*
X98730710Y-464046958D01*
X98730000Y-464032500D01*
X98730000Y-463687500D01*
X98730710Y-463673042D01*
X98732834Y-463658724D01*
X98736351Y-463644683D01*
X98741228Y-463631054D01*
X98747417Y-463617969D01*
X98754858Y-463605553D01*
X98763481Y-463593927D01*
X98773202Y-463583202D01*
X98783927Y-463573481D01*
X98795553Y-463564858D01*
X98807969Y-463557417D01*
X98821054Y-463551228D01*
X98834683Y-463546351D01*
X98848724Y-463542834D01*
X98863042Y-463540710D01*
X98877500Y-463540000D01*
X99172500Y-463540000D01*
X99186958Y-463540710D01*
X99186958Y-463540710D01*
G37*
D15*
X99025000Y-463860000D03*
D13*
G36*
X114271958Y-418470710D02*
G01*
X114286276Y-418472834D01*
X114300317Y-418476351D01*
X114313946Y-418481228D01*
X114327031Y-418487417D01*
X114339447Y-418494858D01*
X114351073Y-418503481D01*
X114361798Y-418513202D01*
X114371519Y-418523927D01*
X114380142Y-418535553D01*
X114387583Y-418547969D01*
X114393772Y-418561054D01*
X114398649Y-418574683D01*
X114402166Y-418588724D01*
X114404290Y-418603042D01*
X114405000Y-418617500D01*
X114405000Y-418962500D01*
X114404290Y-418976958D01*
X114402166Y-418991276D01*
X114398649Y-419005317D01*
X114393772Y-419018946D01*
X114387583Y-419032031D01*
X114380142Y-419044447D01*
X114371519Y-419056073D01*
X114361798Y-419066798D01*
X114351073Y-419076519D01*
X114339447Y-419085142D01*
X114327031Y-419092583D01*
X114313946Y-419098772D01*
X114300317Y-419103649D01*
X114286276Y-419107166D01*
X114271958Y-419109290D01*
X114257500Y-419110000D01*
X113962500Y-419110000D01*
X113948042Y-419109290D01*
X113933724Y-419107166D01*
X113919683Y-419103649D01*
X113906054Y-419098772D01*
X113892969Y-419092583D01*
X113880553Y-419085142D01*
X113868927Y-419076519D01*
X113858202Y-419066798D01*
X113848481Y-419056073D01*
X113839858Y-419044447D01*
X113832417Y-419032031D01*
X113826228Y-419018946D01*
X113821351Y-419005317D01*
X113817834Y-418991276D01*
X113815710Y-418976958D01*
X113815000Y-418962500D01*
X113815000Y-418617500D01*
X113815710Y-418603042D01*
X113817834Y-418588724D01*
X113821351Y-418574683D01*
X113826228Y-418561054D01*
X113832417Y-418547969D01*
X113839858Y-418535553D01*
X113848481Y-418523927D01*
X113858202Y-418513202D01*
X113868927Y-418503481D01*
X113880553Y-418494858D01*
X113892969Y-418487417D01*
X113906054Y-418481228D01*
X113919683Y-418476351D01*
X113933724Y-418472834D01*
X113948042Y-418470710D01*
X113962500Y-418470000D01*
X114257500Y-418470000D01*
X114271958Y-418470710D01*
X114271958Y-418470710D01*
G37*
D15*
X114110000Y-418790000D03*
D13*
G36*
X113301958Y-418470710D02*
G01*
X113316276Y-418472834D01*
X113330317Y-418476351D01*
X113343946Y-418481228D01*
X113357031Y-418487417D01*
X113369447Y-418494858D01*
X113381073Y-418503481D01*
X113391798Y-418513202D01*
X113401519Y-418523927D01*
X113410142Y-418535553D01*
X113417583Y-418547969D01*
X113423772Y-418561054D01*
X113428649Y-418574683D01*
X113432166Y-418588724D01*
X113434290Y-418603042D01*
X113435000Y-418617500D01*
X113435000Y-418962500D01*
X113434290Y-418976958D01*
X113432166Y-418991276D01*
X113428649Y-419005317D01*
X113423772Y-419018946D01*
X113417583Y-419032031D01*
X113410142Y-419044447D01*
X113401519Y-419056073D01*
X113391798Y-419066798D01*
X113381073Y-419076519D01*
X113369447Y-419085142D01*
X113357031Y-419092583D01*
X113343946Y-419098772D01*
X113330317Y-419103649D01*
X113316276Y-419107166D01*
X113301958Y-419109290D01*
X113287500Y-419110000D01*
X112992500Y-419110000D01*
X112978042Y-419109290D01*
X112963724Y-419107166D01*
X112949683Y-419103649D01*
X112936054Y-419098772D01*
X112922969Y-419092583D01*
X112910553Y-419085142D01*
X112898927Y-419076519D01*
X112888202Y-419066798D01*
X112878481Y-419056073D01*
X112869858Y-419044447D01*
X112862417Y-419032031D01*
X112856228Y-419018946D01*
X112851351Y-419005317D01*
X112847834Y-418991276D01*
X112845710Y-418976958D01*
X112845000Y-418962500D01*
X112845000Y-418617500D01*
X112845710Y-418603042D01*
X112847834Y-418588724D01*
X112851351Y-418574683D01*
X112856228Y-418561054D01*
X112862417Y-418547969D01*
X112869858Y-418535553D01*
X112878481Y-418523927D01*
X112888202Y-418513202D01*
X112898927Y-418503481D01*
X112910553Y-418494858D01*
X112922969Y-418487417D01*
X112936054Y-418481228D01*
X112949683Y-418476351D01*
X112963724Y-418472834D01*
X112978042Y-418470710D01*
X112992500Y-418470000D01*
X113287500Y-418470000D01*
X113301958Y-418470710D01*
X113301958Y-418470710D01*
G37*
D15*
X113140000Y-418790000D03*
D13*
G36*
X106121958Y-465750710D02*
G01*
X106136276Y-465752834D01*
X106150317Y-465756351D01*
X106163946Y-465761228D01*
X106177031Y-465767417D01*
X106189447Y-465774858D01*
X106201073Y-465783481D01*
X106211798Y-465793202D01*
X106221519Y-465803927D01*
X106230142Y-465815553D01*
X106237583Y-465827969D01*
X106243772Y-465841054D01*
X106248649Y-465854683D01*
X106252166Y-465868724D01*
X106254290Y-465883042D01*
X106255000Y-465897500D01*
X106255000Y-466242500D01*
X106254290Y-466256958D01*
X106252166Y-466271276D01*
X106248649Y-466285317D01*
X106243772Y-466298946D01*
X106237583Y-466312031D01*
X106230142Y-466324447D01*
X106221519Y-466336073D01*
X106211798Y-466346798D01*
X106201073Y-466356519D01*
X106189447Y-466365142D01*
X106177031Y-466372583D01*
X106163946Y-466378772D01*
X106150317Y-466383649D01*
X106136276Y-466387166D01*
X106121958Y-466389290D01*
X106107500Y-466390000D01*
X105812500Y-466390000D01*
X105798042Y-466389290D01*
X105783724Y-466387166D01*
X105769683Y-466383649D01*
X105756054Y-466378772D01*
X105742969Y-466372583D01*
X105730553Y-466365142D01*
X105718927Y-466356519D01*
X105708202Y-466346798D01*
X105698481Y-466336073D01*
X105689858Y-466324447D01*
X105682417Y-466312031D01*
X105676228Y-466298946D01*
X105671351Y-466285317D01*
X105667834Y-466271276D01*
X105665710Y-466256958D01*
X105665000Y-466242500D01*
X105665000Y-465897500D01*
X105665710Y-465883042D01*
X105667834Y-465868724D01*
X105671351Y-465854683D01*
X105676228Y-465841054D01*
X105682417Y-465827969D01*
X105689858Y-465815553D01*
X105698481Y-465803927D01*
X105708202Y-465793202D01*
X105718927Y-465783481D01*
X105730553Y-465774858D01*
X105742969Y-465767417D01*
X105756054Y-465761228D01*
X105769683Y-465756351D01*
X105783724Y-465752834D01*
X105798042Y-465750710D01*
X105812500Y-465750000D01*
X106107500Y-465750000D01*
X106121958Y-465750710D01*
X106121958Y-465750710D01*
G37*
D15*
X105960000Y-466070000D03*
D13*
G36*
X107091958Y-465750710D02*
G01*
X107106276Y-465752834D01*
X107120317Y-465756351D01*
X107133946Y-465761228D01*
X107147031Y-465767417D01*
X107159447Y-465774858D01*
X107171073Y-465783481D01*
X107181798Y-465793202D01*
X107191519Y-465803927D01*
X107200142Y-465815553D01*
X107207583Y-465827969D01*
X107213772Y-465841054D01*
X107218649Y-465854683D01*
X107222166Y-465868724D01*
X107224290Y-465883042D01*
X107225000Y-465897500D01*
X107225000Y-466242500D01*
X107224290Y-466256958D01*
X107222166Y-466271276D01*
X107218649Y-466285317D01*
X107213772Y-466298946D01*
X107207583Y-466312031D01*
X107200142Y-466324447D01*
X107191519Y-466336073D01*
X107181798Y-466346798D01*
X107171073Y-466356519D01*
X107159447Y-466365142D01*
X107147031Y-466372583D01*
X107133946Y-466378772D01*
X107120317Y-466383649D01*
X107106276Y-466387166D01*
X107091958Y-466389290D01*
X107077500Y-466390000D01*
X106782500Y-466390000D01*
X106768042Y-466389290D01*
X106753724Y-466387166D01*
X106739683Y-466383649D01*
X106726054Y-466378772D01*
X106712969Y-466372583D01*
X106700553Y-466365142D01*
X106688927Y-466356519D01*
X106678202Y-466346798D01*
X106668481Y-466336073D01*
X106659858Y-466324447D01*
X106652417Y-466312031D01*
X106646228Y-466298946D01*
X106641351Y-466285317D01*
X106637834Y-466271276D01*
X106635710Y-466256958D01*
X106635000Y-466242500D01*
X106635000Y-465897500D01*
X106635710Y-465883042D01*
X106637834Y-465868724D01*
X106641351Y-465854683D01*
X106646228Y-465841054D01*
X106652417Y-465827969D01*
X106659858Y-465815553D01*
X106668481Y-465803927D01*
X106678202Y-465793202D01*
X106688927Y-465783481D01*
X106700553Y-465774858D01*
X106712969Y-465767417D01*
X106726054Y-465761228D01*
X106739683Y-465756351D01*
X106753724Y-465752834D01*
X106768042Y-465750710D01*
X106782500Y-465750000D01*
X107077500Y-465750000D01*
X107091958Y-465750710D01*
X107091958Y-465750710D01*
G37*
D15*
X106930000Y-466070000D03*
D13*
G36*
X108836958Y-455535710D02*
G01*
X108851276Y-455537834D01*
X108865317Y-455541351D01*
X108878946Y-455546228D01*
X108892031Y-455552417D01*
X108904447Y-455559858D01*
X108916073Y-455568481D01*
X108926798Y-455578202D01*
X108936519Y-455588927D01*
X108945142Y-455600553D01*
X108952583Y-455612969D01*
X108958772Y-455626054D01*
X108963649Y-455639683D01*
X108967166Y-455653724D01*
X108969290Y-455668042D01*
X108970000Y-455682500D01*
X108970000Y-455977500D01*
X108969290Y-455991958D01*
X108967166Y-456006276D01*
X108963649Y-456020317D01*
X108958772Y-456033946D01*
X108952583Y-456047031D01*
X108945142Y-456059447D01*
X108936519Y-456071073D01*
X108926798Y-456081798D01*
X108916073Y-456091519D01*
X108904447Y-456100142D01*
X108892031Y-456107583D01*
X108878946Y-456113772D01*
X108865317Y-456118649D01*
X108851276Y-456122166D01*
X108836958Y-456124290D01*
X108822500Y-456125000D01*
X108477500Y-456125000D01*
X108463042Y-456124290D01*
X108448724Y-456122166D01*
X108434683Y-456118649D01*
X108421054Y-456113772D01*
X108407969Y-456107583D01*
X108395553Y-456100142D01*
X108383927Y-456091519D01*
X108373202Y-456081798D01*
X108363481Y-456071073D01*
X108354858Y-456059447D01*
X108347417Y-456047031D01*
X108341228Y-456033946D01*
X108336351Y-456020317D01*
X108332834Y-456006276D01*
X108330710Y-455991958D01*
X108330000Y-455977500D01*
X108330000Y-455682500D01*
X108330710Y-455668042D01*
X108332834Y-455653724D01*
X108336351Y-455639683D01*
X108341228Y-455626054D01*
X108347417Y-455612969D01*
X108354858Y-455600553D01*
X108363481Y-455588927D01*
X108373202Y-455578202D01*
X108383927Y-455568481D01*
X108395553Y-455559858D01*
X108407969Y-455552417D01*
X108421054Y-455546228D01*
X108434683Y-455541351D01*
X108448724Y-455537834D01*
X108463042Y-455535710D01*
X108477500Y-455535000D01*
X108822500Y-455535000D01*
X108836958Y-455535710D01*
X108836958Y-455535710D01*
G37*
D15*
X108650000Y-455830000D03*
D13*
G36*
X108836958Y-456505710D02*
G01*
X108851276Y-456507834D01*
X108865317Y-456511351D01*
X108878946Y-456516228D01*
X108892031Y-456522417D01*
X108904447Y-456529858D01*
X108916073Y-456538481D01*
X108926798Y-456548202D01*
X108936519Y-456558927D01*
X108945142Y-456570553D01*
X108952583Y-456582969D01*
X108958772Y-456596054D01*
X108963649Y-456609683D01*
X108967166Y-456623724D01*
X108969290Y-456638042D01*
X108970000Y-456652500D01*
X108970000Y-456947500D01*
X108969290Y-456961958D01*
X108967166Y-456976276D01*
X108963649Y-456990317D01*
X108958772Y-457003946D01*
X108952583Y-457017031D01*
X108945142Y-457029447D01*
X108936519Y-457041073D01*
X108926798Y-457051798D01*
X108916073Y-457061519D01*
X108904447Y-457070142D01*
X108892031Y-457077583D01*
X108878946Y-457083772D01*
X108865317Y-457088649D01*
X108851276Y-457092166D01*
X108836958Y-457094290D01*
X108822500Y-457095000D01*
X108477500Y-457095000D01*
X108463042Y-457094290D01*
X108448724Y-457092166D01*
X108434683Y-457088649D01*
X108421054Y-457083772D01*
X108407969Y-457077583D01*
X108395553Y-457070142D01*
X108383927Y-457061519D01*
X108373202Y-457051798D01*
X108363481Y-457041073D01*
X108354858Y-457029447D01*
X108347417Y-457017031D01*
X108341228Y-457003946D01*
X108336351Y-456990317D01*
X108332834Y-456976276D01*
X108330710Y-456961958D01*
X108330000Y-456947500D01*
X108330000Y-456652500D01*
X108330710Y-456638042D01*
X108332834Y-456623724D01*
X108336351Y-456609683D01*
X108341228Y-456596054D01*
X108347417Y-456582969D01*
X108354858Y-456570553D01*
X108363481Y-456558927D01*
X108373202Y-456548202D01*
X108383927Y-456538481D01*
X108395553Y-456529858D01*
X108407969Y-456522417D01*
X108421054Y-456516228D01*
X108434683Y-456511351D01*
X108448724Y-456507834D01*
X108463042Y-456505710D01*
X108477500Y-456505000D01*
X108822500Y-456505000D01*
X108836958Y-456505710D01*
X108836958Y-456505710D01*
G37*
D15*
X108650000Y-456800000D03*
D13*
G36*
X120631958Y-459505710D02*
G01*
X120646276Y-459507834D01*
X120660317Y-459511351D01*
X120673946Y-459516228D01*
X120687031Y-459522417D01*
X120699447Y-459529858D01*
X120711073Y-459538481D01*
X120721798Y-459548202D01*
X120731519Y-459558927D01*
X120740142Y-459570553D01*
X120747583Y-459582969D01*
X120753772Y-459596054D01*
X120758649Y-459609683D01*
X120762166Y-459623724D01*
X120764290Y-459638042D01*
X120765000Y-459652500D01*
X120765000Y-459997500D01*
X120764290Y-460011958D01*
X120762166Y-460026276D01*
X120758649Y-460040317D01*
X120753772Y-460053946D01*
X120747583Y-460067031D01*
X120740142Y-460079447D01*
X120731519Y-460091073D01*
X120721798Y-460101798D01*
X120711073Y-460111519D01*
X120699447Y-460120142D01*
X120687031Y-460127583D01*
X120673946Y-460133772D01*
X120660317Y-460138649D01*
X120646276Y-460142166D01*
X120631958Y-460144290D01*
X120617500Y-460145000D01*
X120322500Y-460145000D01*
X120308042Y-460144290D01*
X120293724Y-460142166D01*
X120279683Y-460138649D01*
X120266054Y-460133772D01*
X120252969Y-460127583D01*
X120240553Y-460120142D01*
X120228927Y-460111519D01*
X120218202Y-460101798D01*
X120208481Y-460091073D01*
X120199858Y-460079447D01*
X120192417Y-460067031D01*
X120186228Y-460053946D01*
X120181351Y-460040317D01*
X120177834Y-460026276D01*
X120175710Y-460011958D01*
X120175000Y-459997500D01*
X120175000Y-459652500D01*
X120175710Y-459638042D01*
X120177834Y-459623724D01*
X120181351Y-459609683D01*
X120186228Y-459596054D01*
X120192417Y-459582969D01*
X120199858Y-459570553D01*
X120208481Y-459558927D01*
X120218202Y-459548202D01*
X120228927Y-459538481D01*
X120240553Y-459529858D01*
X120252969Y-459522417D01*
X120266054Y-459516228D01*
X120279683Y-459511351D01*
X120293724Y-459507834D01*
X120308042Y-459505710D01*
X120322500Y-459505000D01*
X120617500Y-459505000D01*
X120631958Y-459505710D01*
X120631958Y-459505710D01*
G37*
D15*
X120470000Y-459825000D03*
D13*
G36*
X119661958Y-459505710D02*
G01*
X119676276Y-459507834D01*
X119690317Y-459511351D01*
X119703946Y-459516228D01*
X119717031Y-459522417D01*
X119729447Y-459529858D01*
X119741073Y-459538481D01*
X119751798Y-459548202D01*
X119761519Y-459558927D01*
X119770142Y-459570553D01*
X119777583Y-459582969D01*
X119783772Y-459596054D01*
X119788649Y-459609683D01*
X119792166Y-459623724D01*
X119794290Y-459638042D01*
X119795000Y-459652500D01*
X119795000Y-459997500D01*
X119794290Y-460011958D01*
X119792166Y-460026276D01*
X119788649Y-460040317D01*
X119783772Y-460053946D01*
X119777583Y-460067031D01*
X119770142Y-460079447D01*
X119761519Y-460091073D01*
X119751798Y-460101798D01*
X119741073Y-460111519D01*
X119729447Y-460120142D01*
X119717031Y-460127583D01*
X119703946Y-460133772D01*
X119690317Y-460138649D01*
X119676276Y-460142166D01*
X119661958Y-460144290D01*
X119647500Y-460145000D01*
X119352500Y-460145000D01*
X119338042Y-460144290D01*
X119323724Y-460142166D01*
X119309683Y-460138649D01*
X119296054Y-460133772D01*
X119282969Y-460127583D01*
X119270553Y-460120142D01*
X119258927Y-460111519D01*
X119248202Y-460101798D01*
X119238481Y-460091073D01*
X119229858Y-460079447D01*
X119222417Y-460067031D01*
X119216228Y-460053946D01*
X119211351Y-460040317D01*
X119207834Y-460026276D01*
X119205710Y-460011958D01*
X119205000Y-459997500D01*
X119205000Y-459652500D01*
X119205710Y-459638042D01*
X119207834Y-459623724D01*
X119211351Y-459609683D01*
X119216228Y-459596054D01*
X119222417Y-459582969D01*
X119229858Y-459570553D01*
X119238481Y-459558927D01*
X119248202Y-459548202D01*
X119258927Y-459538481D01*
X119270553Y-459529858D01*
X119282969Y-459522417D01*
X119296054Y-459516228D01*
X119309683Y-459511351D01*
X119323724Y-459507834D01*
X119338042Y-459505710D01*
X119352500Y-459505000D01*
X119647500Y-459505000D01*
X119661958Y-459505710D01*
X119661958Y-459505710D01*
G37*
D15*
X119500000Y-459825000D03*
D13*
G36*
X120631958Y-458480710D02*
G01*
X120646276Y-458482834D01*
X120660317Y-458486351D01*
X120673946Y-458491228D01*
X120687031Y-458497417D01*
X120699447Y-458504858D01*
X120711073Y-458513481D01*
X120721798Y-458523202D01*
X120731519Y-458533927D01*
X120740142Y-458545553D01*
X120747583Y-458557969D01*
X120753772Y-458571054D01*
X120758649Y-458584683D01*
X120762166Y-458598724D01*
X120764290Y-458613042D01*
X120765000Y-458627500D01*
X120765000Y-458972500D01*
X120764290Y-458986958D01*
X120762166Y-459001276D01*
X120758649Y-459015317D01*
X120753772Y-459028946D01*
X120747583Y-459042031D01*
X120740142Y-459054447D01*
X120731519Y-459066073D01*
X120721798Y-459076798D01*
X120711073Y-459086519D01*
X120699447Y-459095142D01*
X120687031Y-459102583D01*
X120673946Y-459108772D01*
X120660317Y-459113649D01*
X120646276Y-459117166D01*
X120631958Y-459119290D01*
X120617500Y-459120000D01*
X120322500Y-459120000D01*
X120308042Y-459119290D01*
X120293724Y-459117166D01*
X120279683Y-459113649D01*
X120266054Y-459108772D01*
X120252969Y-459102583D01*
X120240553Y-459095142D01*
X120228927Y-459086519D01*
X120218202Y-459076798D01*
X120208481Y-459066073D01*
X120199858Y-459054447D01*
X120192417Y-459042031D01*
X120186228Y-459028946D01*
X120181351Y-459015317D01*
X120177834Y-459001276D01*
X120175710Y-458986958D01*
X120175000Y-458972500D01*
X120175000Y-458627500D01*
X120175710Y-458613042D01*
X120177834Y-458598724D01*
X120181351Y-458584683D01*
X120186228Y-458571054D01*
X120192417Y-458557969D01*
X120199858Y-458545553D01*
X120208481Y-458533927D01*
X120218202Y-458523202D01*
X120228927Y-458513481D01*
X120240553Y-458504858D01*
X120252969Y-458497417D01*
X120266054Y-458491228D01*
X120279683Y-458486351D01*
X120293724Y-458482834D01*
X120308042Y-458480710D01*
X120322500Y-458480000D01*
X120617500Y-458480000D01*
X120631958Y-458480710D01*
X120631958Y-458480710D01*
G37*
D15*
X120470000Y-458800000D03*
D13*
G36*
X119661958Y-458480710D02*
G01*
X119676276Y-458482834D01*
X119690317Y-458486351D01*
X119703946Y-458491228D01*
X119717031Y-458497417D01*
X119729447Y-458504858D01*
X119741073Y-458513481D01*
X119751798Y-458523202D01*
X119761519Y-458533927D01*
X119770142Y-458545553D01*
X119777583Y-458557969D01*
X119783772Y-458571054D01*
X119788649Y-458584683D01*
X119792166Y-458598724D01*
X119794290Y-458613042D01*
X119795000Y-458627500D01*
X119795000Y-458972500D01*
X119794290Y-458986958D01*
X119792166Y-459001276D01*
X119788649Y-459015317D01*
X119783772Y-459028946D01*
X119777583Y-459042031D01*
X119770142Y-459054447D01*
X119761519Y-459066073D01*
X119751798Y-459076798D01*
X119741073Y-459086519D01*
X119729447Y-459095142D01*
X119717031Y-459102583D01*
X119703946Y-459108772D01*
X119690317Y-459113649D01*
X119676276Y-459117166D01*
X119661958Y-459119290D01*
X119647500Y-459120000D01*
X119352500Y-459120000D01*
X119338042Y-459119290D01*
X119323724Y-459117166D01*
X119309683Y-459113649D01*
X119296054Y-459108772D01*
X119282969Y-459102583D01*
X119270553Y-459095142D01*
X119258927Y-459086519D01*
X119248202Y-459076798D01*
X119238481Y-459066073D01*
X119229858Y-459054447D01*
X119222417Y-459042031D01*
X119216228Y-459028946D01*
X119211351Y-459015317D01*
X119207834Y-459001276D01*
X119205710Y-458986958D01*
X119205000Y-458972500D01*
X119205000Y-458627500D01*
X119205710Y-458613042D01*
X119207834Y-458598724D01*
X119211351Y-458584683D01*
X119216228Y-458571054D01*
X119222417Y-458557969D01*
X119229858Y-458545553D01*
X119238481Y-458533927D01*
X119248202Y-458523202D01*
X119258927Y-458513481D01*
X119270553Y-458504858D01*
X119282969Y-458497417D01*
X119296054Y-458491228D01*
X119309683Y-458486351D01*
X119323724Y-458482834D01*
X119338042Y-458480710D01*
X119352500Y-458480000D01*
X119647500Y-458480000D01*
X119661958Y-458480710D01*
X119661958Y-458480710D01*
G37*
D15*
X119500000Y-458800000D03*
D13*
G36*
X106091958Y-462230710D02*
G01*
X106106276Y-462232834D01*
X106120317Y-462236351D01*
X106133946Y-462241228D01*
X106147031Y-462247417D01*
X106159447Y-462254858D01*
X106171073Y-462263481D01*
X106181798Y-462273202D01*
X106191519Y-462283927D01*
X106200142Y-462295553D01*
X106207583Y-462307969D01*
X106213772Y-462321054D01*
X106218649Y-462334683D01*
X106222166Y-462348724D01*
X106224290Y-462363042D01*
X106225000Y-462377500D01*
X106225000Y-462722500D01*
X106224290Y-462736958D01*
X106222166Y-462751276D01*
X106218649Y-462765317D01*
X106213772Y-462778946D01*
X106207583Y-462792031D01*
X106200142Y-462804447D01*
X106191519Y-462816073D01*
X106181798Y-462826798D01*
X106171073Y-462836519D01*
X106159447Y-462845142D01*
X106147031Y-462852583D01*
X106133946Y-462858772D01*
X106120317Y-462863649D01*
X106106276Y-462867166D01*
X106091958Y-462869290D01*
X106077500Y-462870000D01*
X105782500Y-462870000D01*
X105768042Y-462869290D01*
X105753724Y-462867166D01*
X105739683Y-462863649D01*
X105726054Y-462858772D01*
X105712969Y-462852583D01*
X105700553Y-462845142D01*
X105688927Y-462836519D01*
X105678202Y-462826798D01*
X105668481Y-462816073D01*
X105659858Y-462804447D01*
X105652417Y-462792031D01*
X105646228Y-462778946D01*
X105641351Y-462765317D01*
X105637834Y-462751276D01*
X105635710Y-462736958D01*
X105635000Y-462722500D01*
X105635000Y-462377500D01*
X105635710Y-462363042D01*
X105637834Y-462348724D01*
X105641351Y-462334683D01*
X105646228Y-462321054D01*
X105652417Y-462307969D01*
X105659858Y-462295553D01*
X105668481Y-462283927D01*
X105678202Y-462273202D01*
X105688927Y-462263481D01*
X105700553Y-462254858D01*
X105712969Y-462247417D01*
X105726054Y-462241228D01*
X105739683Y-462236351D01*
X105753724Y-462232834D01*
X105768042Y-462230710D01*
X105782500Y-462230000D01*
X106077500Y-462230000D01*
X106091958Y-462230710D01*
X106091958Y-462230710D01*
G37*
D15*
X105930000Y-462550000D03*
D13*
G36*
X107061958Y-462230710D02*
G01*
X107076276Y-462232834D01*
X107090317Y-462236351D01*
X107103946Y-462241228D01*
X107117031Y-462247417D01*
X107129447Y-462254858D01*
X107141073Y-462263481D01*
X107151798Y-462273202D01*
X107161519Y-462283927D01*
X107170142Y-462295553D01*
X107177583Y-462307969D01*
X107183772Y-462321054D01*
X107188649Y-462334683D01*
X107192166Y-462348724D01*
X107194290Y-462363042D01*
X107195000Y-462377500D01*
X107195000Y-462722500D01*
X107194290Y-462736958D01*
X107192166Y-462751276D01*
X107188649Y-462765317D01*
X107183772Y-462778946D01*
X107177583Y-462792031D01*
X107170142Y-462804447D01*
X107161519Y-462816073D01*
X107151798Y-462826798D01*
X107141073Y-462836519D01*
X107129447Y-462845142D01*
X107117031Y-462852583D01*
X107103946Y-462858772D01*
X107090317Y-462863649D01*
X107076276Y-462867166D01*
X107061958Y-462869290D01*
X107047500Y-462870000D01*
X106752500Y-462870000D01*
X106738042Y-462869290D01*
X106723724Y-462867166D01*
X106709683Y-462863649D01*
X106696054Y-462858772D01*
X106682969Y-462852583D01*
X106670553Y-462845142D01*
X106658927Y-462836519D01*
X106648202Y-462826798D01*
X106638481Y-462816073D01*
X106629858Y-462804447D01*
X106622417Y-462792031D01*
X106616228Y-462778946D01*
X106611351Y-462765317D01*
X106607834Y-462751276D01*
X106605710Y-462736958D01*
X106605000Y-462722500D01*
X106605000Y-462377500D01*
X106605710Y-462363042D01*
X106607834Y-462348724D01*
X106611351Y-462334683D01*
X106616228Y-462321054D01*
X106622417Y-462307969D01*
X106629858Y-462295553D01*
X106638481Y-462283927D01*
X106648202Y-462273202D01*
X106658927Y-462263481D01*
X106670553Y-462254858D01*
X106682969Y-462247417D01*
X106696054Y-462241228D01*
X106709683Y-462236351D01*
X106723724Y-462232834D01*
X106738042Y-462230710D01*
X106752500Y-462230000D01*
X107047500Y-462230000D01*
X107061958Y-462230710D01*
X107061958Y-462230710D01*
G37*
D15*
X106900000Y-462550000D03*
D13*
G36*
X114511958Y-467900710D02*
G01*
X114526276Y-467902834D01*
X114540317Y-467906351D01*
X114553946Y-467911228D01*
X114567031Y-467917417D01*
X114579447Y-467924858D01*
X114591073Y-467933481D01*
X114601798Y-467943202D01*
X114611519Y-467953927D01*
X114620142Y-467965553D01*
X114627583Y-467977969D01*
X114633772Y-467991054D01*
X114638649Y-468004683D01*
X114642166Y-468018724D01*
X114644290Y-468033042D01*
X114645000Y-468047500D01*
X114645000Y-468342500D01*
X114644290Y-468356958D01*
X114642166Y-468371276D01*
X114638649Y-468385317D01*
X114633772Y-468398946D01*
X114627583Y-468412031D01*
X114620142Y-468424447D01*
X114611519Y-468436073D01*
X114601798Y-468446798D01*
X114591073Y-468456519D01*
X114579447Y-468465142D01*
X114567031Y-468472583D01*
X114553946Y-468478772D01*
X114540317Y-468483649D01*
X114526276Y-468487166D01*
X114511958Y-468489290D01*
X114497500Y-468490000D01*
X114152500Y-468490000D01*
X114138042Y-468489290D01*
X114123724Y-468487166D01*
X114109683Y-468483649D01*
X114096054Y-468478772D01*
X114082969Y-468472583D01*
X114070553Y-468465142D01*
X114058927Y-468456519D01*
X114048202Y-468446798D01*
X114038481Y-468436073D01*
X114029858Y-468424447D01*
X114022417Y-468412031D01*
X114016228Y-468398946D01*
X114011351Y-468385317D01*
X114007834Y-468371276D01*
X114005710Y-468356958D01*
X114005000Y-468342500D01*
X114005000Y-468047500D01*
X114005710Y-468033042D01*
X114007834Y-468018724D01*
X114011351Y-468004683D01*
X114016228Y-467991054D01*
X114022417Y-467977969D01*
X114029858Y-467965553D01*
X114038481Y-467953927D01*
X114048202Y-467943202D01*
X114058927Y-467933481D01*
X114070553Y-467924858D01*
X114082969Y-467917417D01*
X114096054Y-467911228D01*
X114109683Y-467906351D01*
X114123724Y-467902834D01*
X114138042Y-467900710D01*
X114152500Y-467900000D01*
X114497500Y-467900000D01*
X114511958Y-467900710D01*
X114511958Y-467900710D01*
G37*
D15*
X114325000Y-468195000D03*
D13*
G36*
X114511958Y-466930710D02*
G01*
X114526276Y-466932834D01*
X114540317Y-466936351D01*
X114553946Y-466941228D01*
X114567031Y-466947417D01*
X114579447Y-466954858D01*
X114591073Y-466963481D01*
X114601798Y-466973202D01*
X114611519Y-466983927D01*
X114620142Y-466995553D01*
X114627583Y-467007969D01*
X114633772Y-467021054D01*
X114638649Y-467034683D01*
X114642166Y-467048724D01*
X114644290Y-467063042D01*
X114645000Y-467077500D01*
X114645000Y-467372500D01*
X114644290Y-467386958D01*
X114642166Y-467401276D01*
X114638649Y-467415317D01*
X114633772Y-467428946D01*
X114627583Y-467442031D01*
X114620142Y-467454447D01*
X114611519Y-467466073D01*
X114601798Y-467476798D01*
X114591073Y-467486519D01*
X114579447Y-467495142D01*
X114567031Y-467502583D01*
X114553946Y-467508772D01*
X114540317Y-467513649D01*
X114526276Y-467517166D01*
X114511958Y-467519290D01*
X114497500Y-467520000D01*
X114152500Y-467520000D01*
X114138042Y-467519290D01*
X114123724Y-467517166D01*
X114109683Y-467513649D01*
X114096054Y-467508772D01*
X114082969Y-467502583D01*
X114070553Y-467495142D01*
X114058927Y-467486519D01*
X114048202Y-467476798D01*
X114038481Y-467466073D01*
X114029858Y-467454447D01*
X114022417Y-467442031D01*
X114016228Y-467428946D01*
X114011351Y-467415317D01*
X114007834Y-467401276D01*
X114005710Y-467386958D01*
X114005000Y-467372500D01*
X114005000Y-467077500D01*
X114005710Y-467063042D01*
X114007834Y-467048724D01*
X114011351Y-467034683D01*
X114016228Y-467021054D01*
X114022417Y-467007969D01*
X114029858Y-466995553D01*
X114038481Y-466983927D01*
X114048202Y-466973202D01*
X114058927Y-466963481D01*
X114070553Y-466954858D01*
X114082969Y-466947417D01*
X114096054Y-466941228D01*
X114109683Y-466936351D01*
X114123724Y-466932834D01*
X114138042Y-466930710D01*
X114152500Y-466930000D01*
X114497500Y-466930000D01*
X114511958Y-466930710D01*
X114511958Y-466930710D01*
G37*
D15*
X114325000Y-467225000D03*
D16*
X115180000Y-393675000D03*
X114380000Y-393675000D03*
X115180000Y-393675000D03*
X114380000Y-393675000D03*
X108780000Y-393675000D03*
X108780000Y-393675000D03*
X109580000Y-393675000D03*
X109580000Y-393675000D03*
D17*
X113730000Y-393675000D03*
X112730000Y-393675000D03*
X113230000Y-393675000D03*
X110730000Y-393675000D03*
X110230000Y-393675000D03*
X112230000Y-393675000D03*
X111730000Y-393675000D03*
X111230000Y-393675000D03*
D18*
X124350000Y-457425000D03*
X124350000Y-466925000D03*
D19*
X99045000Y-462010000D03*
X100315000Y-462010000D03*
X101585000Y-462010000D03*
X102855000Y-462010000D03*
X102855000Y-454810000D03*
X101585000Y-454810000D03*
X100315000Y-454810000D03*
X99045000Y-454810000D03*
D20*
X112800000Y-462050000D03*
D21*
X109350000Y-459450000D03*
X109350000Y-459850000D03*
X109350000Y-460250000D03*
X109350000Y-460650000D03*
X109350000Y-461050000D03*
X109350000Y-461450000D03*
X109350000Y-461850000D03*
X109350000Y-462250000D03*
X109350000Y-462650000D03*
X109350000Y-463050000D03*
X109350000Y-463450000D03*
X109350000Y-463850000D03*
X109350000Y-464250000D03*
X109350000Y-464650000D03*
D22*
X110200000Y-465500000D03*
X110600000Y-465500000D03*
X111000000Y-465500000D03*
X111400000Y-465500000D03*
X111800000Y-465500000D03*
X112200000Y-465500000D03*
X112600000Y-465500000D03*
X113000000Y-465500000D03*
X113400000Y-465500000D03*
X113800000Y-465500000D03*
X114200000Y-465500000D03*
X114600000Y-465500000D03*
X115000000Y-465500000D03*
X115400000Y-465500000D03*
D21*
X116250000Y-464650000D03*
X116250000Y-464250000D03*
X116250000Y-463850000D03*
X116250000Y-463450000D03*
X116250000Y-463050000D03*
X116250000Y-462650000D03*
X116250000Y-462250000D03*
X116250000Y-461850000D03*
X116250000Y-461450000D03*
X116250000Y-461050000D03*
X116250000Y-460650000D03*
X116250000Y-460250000D03*
X116250000Y-459850000D03*
X116250000Y-459450000D03*
D22*
X115400000Y-458600000D03*
X115000000Y-458600000D03*
X114600000Y-458600000D03*
X114200000Y-458600000D03*
X113800000Y-458600000D03*
X113400000Y-458600000D03*
X113000000Y-458600000D03*
X112600000Y-458600000D03*
X112200000Y-458600000D03*
X111800000Y-458600000D03*
X111400000Y-458600000D03*
X111000000Y-458600000D03*
X110600000Y-458600000D03*
X110200000Y-458600000D03*
D13*
G36*
X112469504Y-413446204D02*
G01*
X112493773Y-413449804D01*
X112517571Y-413455765D01*
X112540671Y-413464030D01*
X112562849Y-413474520D01*
X112583893Y-413487133D01*
X112603598Y-413501747D01*
X112621777Y-413518223D01*
X112638253Y-413536402D01*
X112652867Y-413556107D01*
X112665480Y-413577151D01*
X112675970Y-413599329D01*
X112684235Y-413622429D01*
X112690196Y-413646227D01*
X112693796Y-413670496D01*
X112695000Y-413695000D01*
X112695000Y-414445000D01*
X112693796Y-414469504D01*
X112690196Y-414493773D01*
X112684235Y-414517571D01*
X112675970Y-414540671D01*
X112665480Y-414562849D01*
X112652867Y-414583893D01*
X112638253Y-414603598D01*
X112621777Y-414621777D01*
X112603598Y-414638253D01*
X112583893Y-414652867D01*
X112562849Y-414665480D01*
X112540671Y-414675970D01*
X112517571Y-414684235D01*
X112493773Y-414690196D01*
X112469504Y-414693796D01*
X112445000Y-414695000D01*
X111195000Y-414695000D01*
X111170496Y-414693796D01*
X111146227Y-414690196D01*
X111122429Y-414684235D01*
X111099329Y-414675970D01*
X111077151Y-414665480D01*
X111056107Y-414652867D01*
X111036402Y-414638253D01*
X111018223Y-414621777D01*
X111001747Y-414603598D01*
X110987133Y-414583893D01*
X110974520Y-414562849D01*
X110964030Y-414540671D01*
X110955765Y-414517571D01*
X110949804Y-414493773D01*
X110946204Y-414469504D01*
X110945000Y-414445000D01*
X110945000Y-413695000D01*
X110946204Y-413670496D01*
X110949804Y-413646227D01*
X110955765Y-413622429D01*
X110964030Y-413599329D01*
X110974520Y-413577151D01*
X110987133Y-413556107D01*
X111001747Y-413536402D01*
X111018223Y-413518223D01*
X111036402Y-413501747D01*
X111056107Y-413487133D01*
X111077151Y-413474520D01*
X111099329Y-413464030D01*
X111122429Y-413455765D01*
X111146227Y-413449804D01*
X111170496Y-413446204D01*
X111195000Y-413445000D01*
X112445000Y-413445000D01*
X112469504Y-413446204D01*
X112469504Y-413446204D01*
G37*
D14*
X111820000Y-414070000D03*
D13*
G36*
X112469504Y-416246204D02*
G01*
X112493773Y-416249804D01*
X112517571Y-416255765D01*
X112540671Y-416264030D01*
X112562849Y-416274520D01*
X112583893Y-416287133D01*
X112603598Y-416301747D01*
X112621777Y-416318223D01*
X112638253Y-416336402D01*
X112652867Y-416356107D01*
X112665480Y-416377151D01*
X112675970Y-416399329D01*
X112684235Y-416422429D01*
X112690196Y-416446227D01*
X112693796Y-416470496D01*
X112695000Y-416495000D01*
X112695000Y-417245000D01*
X112693796Y-417269504D01*
X112690196Y-417293773D01*
X112684235Y-417317571D01*
X112675970Y-417340671D01*
X112665480Y-417362849D01*
X112652867Y-417383893D01*
X112638253Y-417403598D01*
X112621777Y-417421777D01*
X112603598Y-417438253D01*
X112583893Y-417452867D01*
X112562849Y-417465480D01*
X112540671Y-417475970D01*
X112517571Y-417484235D01*
X112493773Y-417490196D01*
X112469504Y-417493796D01*
X112445000Y-417495000D01*
X111195000Y-417495000D01*
X111170496Y-417493796D01*
X111146227Y-417490196D01*
X111122429Y-417484235D01*
X111099329Y-417475970D01*
X111077151Y-417465480D01*
X111056107Y-417452867D01*
X111036402Y-417438253D01*
X111018223Y-417421777D01*
X111001747Y-417403598D01*
X110987133Y-417383893D01*
X110974520Y-417362849D01*
X110964030Y-417340671D01*
X110955765Y-417317571D01*
X110949804Y-417293773D01*
X110946204Y-417269504D01*
X110945000Y-417245000D01*
X110945000Y-416495000D01*
X110946204Y-416470496D01*
X110949804Y-416446227D01*
X110955765Y-416422429D01*
X110964030Y-416399329D01*
X110974520Y-416377151D01*
X110987133Y-416356107D01*
X111001747Y-416336402D01*
X111018223Y-416318223D01*
X111036402Y-416301747D01*
X111056107Y-416287133D01*
X111077151Y-416274520D01*
X111099329Y-416264030D01*
X111122429Y-416255765D01*
X111146227Y-416249804D01*
X111170496Y-416246204D01*
X111195000Y-416245000D01*
X112445000Y-416245000D01*
X112469504Y-416246204D01*
X112469504Y-416246204D01*
G37*
D14*
X111820000Y-416870000D03*
M02*
