G04 #@! TF.GenerationSoftware,KiCad,Pcbnew,(5.1.4)-1*
G04 #@! TF.CreationDate,2023-07-27T21:11:11-04:00*
G04 #@! TF.ProjectId,ThumbsUp,5468756d-6273-4557-902e-6b696361645f,rev?*
G04 #@! TF.SameCoordinates,Original*
G04 #@! TF.FileFunction,Copper,L1,Top*
G04 #@! TF.FilePolarity,Positive*
%FSLAX46Y46*%
G04 Gerber Fmt 4.6, Leading zero omitted, Abs format (unit mm)*
G04 Created by KiCad (PCBNEW (5.1.4)-1) date 2023-07-27 21:11:11*
%MOMM*%
%LPD*%
G04 APERTURE LIST*
%ADD10C,0.600000*%
%ADD11C,2.250000*%
%ADD12C,2.250000*%
%ADD13C,1.575000*%
%ADD14O,1.700000X1.700000*%
%ADD15R,1.700000X1.700000*%
%ADD16O,0.900000X1.700000*%
%ADD17O,0.900000X2.000000*%
%ADD18C,1.700000*%
%ADD19C,1.700000*%
%ADD20C,0.100000*%
%ADD21C,0.800000*%
%ADD22C,3.000000*%
%ADD23C,0.200000*%
%ADD24C,0.500000*%
%ADD25C,0.400000*%
G04 APERTURE END LIST*
D10*
X113825000Y-463325000D03*
X113825000Y-462050000D03*
X113825000Y-460775000D03*
X112550000Y-463325000D03*
X112550000Y-462050000D03*
X112550000Y-460775000D03*
X111275000Y-463325000D03*
X111275000Y-462050000D03*
X111275000Y-460775000D03*
D11*
X118582789Y-412512952D03*
X117927790Y-413242952D03*
D12*
X117272789Y-413972952D02*
X118582791Y-412512952D01*
D11*
X123622789Y-411432952D03*
X123602789Y-411722952D03*
D12*
X123582789Y-412012952D02*
X123622789Y-411432952D01*
D13*
X85447277Y-456655373D03*
X87998928Y-459674326D03*
X86826658Y-464018953D03*
X81723356Y-457981047D03*
X80551086Y-462325674D03*
X75669532Y-454055373D03*
X78221183Y-457074326D03*
X77048913Y-461418953D03*
X71945611Y-455381047D03*
X70773341Y-459725674D03*
D14*
X97510000Y-389820000D03*
X100050000Y-389820000D03*
X102590000Y-389820000D03*
D15*
X105130000Y-389820000D03*
D11*
X99532789Y-415512952D03*
X98877790Y-416242952D03*
D12*
X98222789Y-416972952D02*
X99532791Y-415512952D01*
D11*
X104572789Y-414432952D03*
X104552789Y-414722952D03*
D12*
X104532789Y-415012952D02*
X104572789Y-414432952D01*
D11*
X118582789Y-431562952D03*
X117927790Y-432292952D03*
D12*
X117272789Y-433022952D02*
X118582791Y-431562952D01*
D11*
X123622789Y-430482952D03*
X123602789Y-430772952D03*
D12*
X123582789Y-431062952D02*
X123622789Y-430482952D01*
D11*
X123602790Y-392672952D03*
D12*
X123582790Y-392962952D02*
X123622790Y-392382952D01*
D11*
X123622790Y-392382952D03*
X117927791Y-394192952D03*
D12*
X117272790Y-394922952D02*
X118582792Y-393462952D01*
D11*
X118582790Y-393462952D03*
X99532790Y-434562952D03*
X98877791Y-435292952D03*
D12*
X98222790Y-436022952D02*
X99532792Y-434562952D01*
D11*
X104572790Y-433482952D03*
X104552790Y-433772952D03*
D12*
X104532790Y-434062952D02*
X104572790Y-433482952D01*
D11*
X104552790Y-395672952D03*
D12*
X104532790Y-395962952D02*
X104572790Y-395382952D01*
D11*
X104572790Y-395382952D03*
X98877791Y-397192952D03*
D12*
X98222790Y-397922952D02*
X99532792Y-396462952D01*
D11*
X99532790Y-396462952D03*
X85482789Y-451062953D03*
X86137788Y-450332953D03*
D12*
X86792789Y-449602953D02*
X85482787Y-451062953D01*
D11*
X80442789Y-452142953D03*
X80462789Y-451852953D03*
D12*
X80482789Y-451562953D02*
X80442789Y-452142953D01*
D11*
X66432789Y-456062952D03*
X67087788Y-455332952D03*
D12*
X67742789Y-454602952D02*
X66432787Y-456062952D01*
D11*
X61392789Y-457142952D03*
X61412789Y-456852952D03*
D12*
X61432789Y-456562952D02*
X61392789Y-457142952D01*
D16*
X116300000Y-388925000D03*
X107660000Y-388925000D03*
D17*
X116300000Y-393095000D03*
X107660000Y-393095000D03*
D18*
X101993144Y-468685154D03*
D19*
X101993144Y-468685154D02*
X101993144Y-468685154D01*
D18*
X99539692Y-468027754D03*
D19*
X99539692Y-468027754D02*
X99539692Y-468027754D01*
D18*
X97086241Y-467370353D03*
D19*
X97086241Y-467370353D02*
X97086241Y-467370353D01*
D18*
X94632789Y-466712953D03*
D20*
G36*
X95233830Y-467753986D02*
G01*
X93591756Y-467313994D01*
X94031748Y-465671920D01*
X95673822Y-466111912D01*
X95233830Y-467753986D01*
X95233830Y-467753986D01*
G37*
D21*
X117800000Y-407725000D03*
X124800000Y-407725000D03*
D11*
X124000000Y-405200000D03*
D22*
X116600000Y-410125000D03*
D11*
X125900000Y-410250000D03*
D14*
X128876095Y-391098305D03*
X128876095Y-393638305D03*
X128876095Y-396178305D03*
D15*
X128876095Y-398718305D03*
D14*
X128940599Y-422224893D03*
X128940599Y-424764893D03*
X128940599Y-427304893D03*
D15*
X128940599Y-429844893D03*
D14*
X128068428Y-451181322D03*
X125528428Y-451181322D03*
X122988428Y-451181322D03*
D15*
X120448428Y-451181322D03*
D18*
X89627956Y-465271820D03*
D19*
X89627956Y-465271820D02*
X89627956Y-465271820D01*
D18*
X90285356Y-462818368D03*
D19*
X90285356Y-462818368D02*
X90285356Y-462818368D01*
D18*
X90942757Y-460364917D03*
D19*
X90942757Y-460364917D02*
X90942757Y-460364917D01*
D18*
X91600157Y-457911465D03*
D20*
G36*
X90559124Y-458512506D02*
G01*
X90999116Y-456870432D01*
X92641190Y-457310424D01*
X92201198Y-458952498D01*
X90559124Y-458512506D01*
X90559124Y-458512506D01*
G37*
D14*
X56532789Y-458812952D03*
X56532789Y-456272952D03*
X56532789Y-453732952D03*
D15*
X56532789Y-451192952D03*
D14*
X98376974Y-429020972D03*
X100916974Y-429020972D03*
X103456974Y-429020972D03*
D15*
X105996974Y-429020972D03*
D14*
X98534161Y-409935202D03*
X101074161Y-409935202D03*
X103614161Y-409935202D03*
D15*
X106154161Y-409935202D03*
D18*
X118693145Y-473085153D03*
D19*
X118693145Y-473085153D02*
X118693145Y-473085153D01*
D18*
X116239693Y-472427753D03*
D19*
X116239693Y-472427753D02*
X116239693Y-472427753D01*
D18*
X113786242Y-471770352D03*
D19*
X113786242Y-471770352D02*
X113786242Y-471770352D01*
D18*
X111332790Y-471112952D03*
D20*
G36*
X110731749Y-470071919D02*
G01*
X112373823Y-470511911D01*
X111933831Y-472153985D01*
X110291757Y-471713993D01*
X110731749Y-470071919D01*
X110731749Y-470071919D01*
G37*
D18*
X127932789Y-471912952D03*
D19*
X127932789Y-471912952D02*
X127932789Y-471912952D01*
D18*
X128590189Y-469459500D03*
D19*
X128590189Y-469459500D02*
X128590189Y-469459500D01*
D18*
X129247590Y-467006049D03*
D19*
X129247590Y-467006049D02*
X129247590Y-467006049D01*
D18*
X129904990Y-464552597D03*
D20*
G36*
X128863957Y-465153638D02*
G01*
X129303949Y-463511564D01*
X130946023Y-463951556D01*
X130506031Y-465593630D01*
X128863957Y-465153638D01*
X128863957Y-465153638D01*
G37*
D21*
X111569500Y-396012202D03*
X109625000Y-445350002D03*
X112740650Y-396720650D03*
X110650000Y-445375000D03*
D10*
X114600000Y-462650000D03*
X110450000Y-463800000D03*
D21*
X118300000Y-463700000D03*
X107899774Y-462095979D03*
D10*
X110450000Y-463800000D03*
X114600000Y-462650000D03*
X110450000Y-463800000D03*
X114600000Y-462650000D03*
D21*
X110700000Y-448550000D03*
X104950000Y-463573818D03*
X109625000Y-448575000D03*
X103925000Y-463625000D03*
X67742789Y-459332211D03*
X117975000Y-460823000D03*
X121400000Y-460875000D03*
X121425000Y-463775000D03*
X114575000Y-468975000D03*
X108375000Y-468150000D03*
X103100000Y-458750000D03*
X103100000Y-462150004D03*
X113825000Y-454275000D03*
X108600000Y-455500000D03*
X115525000Y-467102000D03*
X121950145Y-448655167D03*
X121947694Y-447728169D03*
X121964373Y-446801317D03*
X122000000Y-445875000D03*
X104500000Y-448199964D03*
X103519894Y-448199964D03*
X102466731Y-448199964D03*
X101422667Y-448199964D03*
X111430000Y-405160000D03*
X114650000Y-444600000D03*
X105600000Y-448200000D03*
X115715988Y-444606396D03*
X117750000Y-444600000D03*
X112425000Y-447225000D03*
X95600000Y-452627000D03*
X106200000Y-452700000D03*
X108410000Y-466073000D03*
X117075000Y-464525000D03*
D23*
X111569500Y-396012202D02*
X111560000Y-396021702D01*
X111569500Y-396012202D02*
X110300000Y-397281702D01*
X110300000Y-397281702D02*
X110300000Y-444675002D01*
X110024999Y-444950003D02*
X109625000Y-445350002D01*
X110300000Y-444675002D02*
X110024999Y-444950003D01*
X112740650Y-396720650D02*
X110650000Y-398811300D01*
X110650000Y-444809315D02*
X110650000Y-445375000D01*
X110650000Y-398811300D02*
X110650000Y-444809315D01*
X107900040Y-461900000D02*
X107900000Y-461900040D01*
X108000000Y-461900000D02*
X107900040Y-461900000D01*
D24*
X115650000Y-463700000D02*
X117734315Y-463700000D01*
X117734315Y-463700000D02*
X118300000Y-463700000D01*
X114600000Y-462650000D02*
X115650000Y-463700000D01*
D25*
X109603795Y-463800000D02*
X108299773Y-462495978D01*
X108299773Y-462495978D02*
X107899774Y-462095979D01*
X110450000Y-463800000D02*
X109603795Y-463800000D01*
D23*
X110700000Y-449115685D02*
X110700000Y-448550000D01*
X110700000Y-450237462D02*
X110700000Y-449115685D01*
X104950000Y-455987462D02*
X110700000Y-450237462D01*
X104950000Y-463573818D02*
X104950000Y-455987462D01*
X103925000Y-463059315D02*
X103925000Y-463625000D01*
X109625000Y-448575000D02*
X109625000Y-450850000D01*
X109625000Y-450850000D02*
X103925000Y-456550000D01*
X103925000Y-456550000D02*
X103925000Y-463059315D01*
D24*
X67742789Y-454602952D02*
X67742789Y-459332211D01*
X86792789Y-449752953D02*
X86792789Y-449602953D01*
X86739836Y-449700000D02*
X86792789Y-449752953D01*
X70300000Y-454100000D02*
X74700000Y-449700000D01*
X67742789Y-454602952D02*
X68245741Y-454100000D01*
X68245741Y-454100000D02*
X70300000Y-454100000D01*
X78221183Y-449821183D02*
X78100000Y-449700000D01*
X74700000Y-449700000D02*
X78100000Y-449700000D01*
X78100000Y-449700000D02*
X86739836Y-449700000D01*
X94632789Y-466712953D02*
X94787047Y-466712953D01*
X94787047Y-466712953D02*
X95356648Y-466143352D01*
X76807415Y-454031183D02*
X78221183Y-454031183D01*
X76783225Y-454055373D02*
X76807415Y-454031183D01*
X75669532Y-454055373D02*
X76783225Y-454055373D01*
X78221183Y-457074326D02*
X78221183Y-454031183D01*
X78221183Y-454031183D02*
X78221183Y-449821183D01*
X87998928Y-459207024D02*
X85447277Y-456655373D01*
X87998928Y-459674326D02*
X87998928Y-459207024D01*
X73271285Y-454055373D02*
X71945611Y-455381047D01*
X75669532Y-454055373D02*
X73271285Y-454055373D01*
D23*
X113873000Y-460823000D02*
X113825000Y-460775000D01*
D24*
X117975000Y-460823000D02*
X113873000Y-460823000D01*
X117975000Y-460823000D02*
X121098000Y-460823000D01*
X121098000Y-460823000D02*
X121500000Y-460823000D01*
X121425000Y-460898000D02*
X121500000Y-460823000D01*
X121425000Y-463775000D02*
X121425000Y-460898000D01*
X114575000Y-468975000D02*
X109200000Y-468975000D01*
X109200000Y-468975000D02*
X108375000Y-468150000D01*
X103100000Y-458750000D02*
X103100000Y-462150004D01*
X89177953Y-449602953D02*
X86792789Y-449602953D01*
X103100000Y-458750000D02*
X98325000Y-458750000D01*
X98325000Y-458750000D02*
X89177953Y-449602953D01*
X113740000Y-455500000D02*
X113825000Y-455585000D01*
X108600000Y-455500000D02*
X113740000Y-455500000D01*
X113825000Y-460775000D02*
X113825000Y-455585000D01*
X113825000Y-455585000D02*
X113825000Y-454275000D01*
D23*
X120548000Y-467102000D02*
X115525000Y-467102000D01*
X122477002Y-465172998D02*
X120548000Y-467102000D01*
X122477002Y-452263858D02*
X122477002Y-465172998D01*
X121911427Y-451698283D02*
X122477002Y-452263858D01*
X122146412Y-450429376D02*
X121911427Y-450664361D01*
X116719038Y-445002002D02*
X122146412Y-450429376D01*
X121911427Y-450664361D02*
X121911427Y-451698283D01*
X113529998Y-413195002D02*
X113529998Y-440903962D01*
X113529998Y-440903962D02*
X116675000Y-444048964D01*
X116600000Y-410125000D02*
X113529998Y-413195002D01*
X116675000Y-444048964D02*
X116675000Y-444996040D01*
X116675000Y-444996040D02*
X116669038Y-445002002D01*
X116669038Y-445002002D02*
X116719038Y-445002002D01*
X128940599Y-443426790D02*
X128940599Y-430894893D01*
X123712222Y-448655167D02*
X128940599Y-443426790D01*
X128940599Y-430894893D02*
X128940599Y-429844893D01*
X121950145Y-448655167D02*
X123712222Y-448655167D01*
X121947694Y-447728169D02*
X124176757Y-447728169D01*
X124176757Y-447728169D02*
X128594022Y-443310904D01*
X128594022Y-432244098D02*
X127554022Y-431204098D01*
X127554022Y-431204098D02*
X127554022Y-428691470D01*
X128090600Y-428154892D02*
X128940599Y-427304893D01*
X127554022Y-428691470D02*
X128090600Y-428154892D01*
X128594022Y-443310904D02*
X128594022Y-432244098D01*
X128090600Y-425614892D02*
X128940599Y-424764893D01*
X127227011Y-426478481D02*
X128090600Y-425614892D01*
X127227011Y-431339550D02*
X127227011Y-426478481D01*
X128267011Y-432379550D02*
X127227011Y-431339550D01*
X128267011Y-443175452D02*
X128267011Y-432379550D01*
X124641146Y-446801317D02*
X128267011Y-443175452D01*
X121964373Y-446801317D02*
X124641146Y-446801317D01*
X128090600Y-423074892D02*
X128940599Y-422224893D01*
X126900000Y-431475002D02*
X126900000Y-424265492D01*
X127940000Y-432515002D02*
X126900000Y-431475002D01*
X127940000Y-443040000D02*
X127940000Y-432515002D01*
X122000000Y-445875000D02*
X125105000Y-445875000D01*
X126900000Y-424265492D02*
X128090600Y-423074892D01*
X125105000Y-445875000D02*
X127940000Y-443040000D01*
X105879028Y-429020972D02*
X105996974Y-429020972D01*
X105996974Y-429211974D02*
X105996974Y-429020972D01*
X109472989Y-442215011D02*
X109472989Y-432687989D01*
X104500000Y-447188000D02*
X109472989Y-442215011D01*
X109472989Y-432687989D02*
X105996974Y-429211974D01*
X104500000Y-448199964D02*
X104500000Y-447188000D01*
X103519894Y-447634279D02*
X109145978Y-442008195D01*
X105081980Y-430645978D02*
X104306973Y-429870971D01*
X109145978Y-442008195D02*
X109145978Y-432823440D01*
X103519894Y-448199964D02*
X103519894Y-447634279D01*
X106968516Y-430645978D02*
X105081980Y-430645978D01*
X104306973Y-429870971D02*
X103456974Y-429020972D01*
X109145978Y-432823440D02*
X106968516Y-430645978D01*
X106833065Y-430972989D02*
X102868991Y-430972989D01*
X101766973Y-429870971D02*
X100916974Y-429020972D01*
X108818967Y-432958891D02*
X106833065Y-430972989D01*
X102466731Y-448199964D02*
X102866730Y-447799965D01*
X102868991Y-430972989D02*
X101766973Y-429870971D01*
X102872035Y-447799965D02*
X108818967Y-441853033D01*
X108818967Y-441853033D02*
X108818967Y-432958891D01*
X102866730Y-447799965D02*
X102872035Y-447799965D01*
X99226973Y-429870971D02*
X98376974Y-429020972D01*
X100656002Y-431300000D02*
X99226973Y-429870971D01*
X101422667Y-448199964D02*
X103217631Y-446405000D01*
X103759000Y-446405000D02*
X108491956Y-441672044D01*
X108491956Y-441672044D02*
X108491956Y-433094342D01*
X108491956Y-433094342D02*
X106697614Y-431300000D01*
X103217631Y-446405000D02*
X103759000Y-446405000D01*
X106697614Y-431300000D02*
X100656002Y-431300000D01*
X105152790Y-395962952D02*
X104532790Y-395962952D01*
X111430000Y-441380000D02*
X114250001Y-444200001D01*
X114250001Y-444200001D02*
X114650000Y-444600000D01*
X111430000Y-405160000D02*
X111430000Y-441380000D01*
X105600000Y-446650000D02*
X105600000Y-448200000D01*
X109950000Y-442300000D02*
X105600000Y-446650000D01*
X104532789Y-415012952D02*
X109950000Y-420430163D01*
X109950000Y-420430163D02*
X109950000Y-442300000D01*
X123582790Y-392962952D02*
X121837048Y-392962952D01*
X115315989Y-444206397D02*
X115715988Y-444606396D01*
X113202988Y-442093396D02*
X115315989Y-444206397D01*
X118360000Y-396440000D02*
X118360000Y-397960000D01*
X118360000Y-397960000D02*
X113202988Y-403117012D01*
X121837048Y-392962952D02*
X118360000Y-396440000D01*
X113202988Y-403117012D02*
X113202988Y-442093396D01*
X113930000Y-440780000D02*
X117350001Y-444200001D01*
X113930000Y-433210000D02*
X113930000Y-440780000D01*
X127787534Y-419352466D02*
X113930000Y-433210000D01*
X123622789Y-411432952D02*
X127787534Y-415597697D01*
X127787534Y-415597697D02*
X127787534Y-419352466D01*
X117350001Y-444200001D02*
X117750000Y-444600000D01*
D24*
X97775000Y-450400000D02*
X95600000Y-452575000D01*
X104549962Y-450400000D02*
X97775000Y-450400000D01*
X112425000Y-447225000D02*
X107724962Y-447225000D01*
X95600000Y-452575000D02*
X95600000Y-452627000D01*
X106200000Y-448749962D02*
X106224981Y-448724981D01*
X106200000Y-452700000D02*
X106200000Y-448749962D01*
X107724962Y-447225000D02*
X106224981Y-448724981D01*
X106224981Y-448724981D02*
X104549962Y-450400000D01*
X108313000Y-466073000D02*
X108410000Y-466073000D01*
X107122773Y-464882773D02*
X108313000Y-466073000D01*
X107122773Y-455827265D02*
X107122773Y-464882773D01*
X112425000Y-447225000D02*
X112425000Y-450525038D01*
X112425000Y-450525038D02*
X107122773Y-455827265D01*
D23*
X86826658Y-464018953D02*
X86351651Y-464018953D01*
X86351651Y-464018953D02*
X86251651Y-463918953D01*
X114900000Y-466700000D02*
X103870000Y-466700000D01*
X117075000Y-464525000D02*
X114900000Y-466700000D01*
X103870000Y-466700000D02*
X93176000Y-456006000D01*
X93176000Y-456006000D02*
X90394000Y-456006000D01*
X90394000Y-456006000D02*
X89400000Y-457000000D01*
X89400000Y-461445611D02*
X86826658Y-464018953D01*
X89400000Y-457000000D02*
X89400000Y-461445611D01*
M02*
