M48
; DRILL file {KiCad (5.1.4)-1} date 6/17/2023 6:30:56 PM
; FORMAT={-:-/ absolute / metric / decimal}
; #@! TF.CreationDate,2023-06-17T18:30:56-04:00
; #@! TF.GenerationSoftware,Kicad,Pcbnew,(5.1.4)-1
; #@! TF.FileFunction,NonPlated,1,2,NPTH
FMAT,2
METRIC
T1C1.750
T2C3.000
T3C3.988
%
G90
G05
T1
X212.382Y-561.96
X222.542Y-561.96
X193.332Y-556.96
X203.492Y-556.96
X231.432Y-528.86
X241.592Y-528.86
X193.332Y-518.86
X203.492Y-518.86
X231.432Y-566.96
X241.592Y-566.96
X212.382Y-542.91
X222.542Y-542.91
X250.482Y-562.96
X260.642Y-562.96
X212.382Y-523.86
X222.542Y-523.86
X250.482Y-524.86
X260.642Y-524.86
X193.332Y-537.91
X203.492Y-537.91
X231.432Y-547.91
X241.592Y-547.91
X250.482Y-543.91
X260.642Y-543.91
T2
X194.602Y-516.32
X200.952Y-513.78
X232.702Y-564.42
X239.052Y-561.88
X213.652Y-540.37
X220.002Y-537.83
X251.752Y-560.42
X258.102Y-557.88
X213.652Y-521.32
X220.002Y-518.78
X251.752Y-522.32
X258.102Y-519.78
X194.602Y-535.37
X200.952Y-532.83
X232.702Y-545.37
X239.052Y-542.83
X251.752Y-541.37
X258.102Y-538.83
X213.652Y-559.42
X220.002Y-556.88
X194.602Y-554.42
X200.952Y-551.88
X232.702Y-526.32
X239.052Y-523.78
T3
X217.462Y-542.91
X255.562Y-562.96
X198.412Y-537.91
X236.512Y-547.91
X255.562Y-543.91
X217.462Y-561.96
X198.412Y-556.96
X236.512Y-528.86
X198.412Y-518.86
X236.512Y-566.96
X217.462Y-523.86
X255.562Y-524.86
T0
M30
