G04 #@! TF.GenerationSoftware,KiCad,Pcbnew,(5.1.4)-1*
G04 #@! TF.CreationDate,2023-06-17T18:30:50-04:00*
G04 #@! TF.ProjectId,ThumbsUp,5468756d-6273-4557-902e-6b696361645f,rev?*
G04 #@! TF.SameCoordinates,Original*
G04 #@! TF.FileFunction,Soldermask,Top*
G04 #@! TF.FilePolarity,Negative*
%FSLAX46Y46*%
G04 Gerber Fmt 4.6, Leading zero omitted, Abs format (unit mm)*
G04 Created by KiCad (PCBNEW (5.1.4)-1) date 2023-06-17 18:30:50*
%MOMM*%
%LPD*%
G04 APERTURE LIST*
%ADD10C,0.100000*%
G04 APERTURE END LIST*
D10*
G36*
X164455165Y-601119626D02*
G01*
X162714567Y-601586018D01*
X162248175Y-599845420D01*
X163988773Y-599379028D01*
X164455165Y-601119626D01*
X164455165Y-601119626D01*
G37*
G36*
X165915564Y-598930641D02*
G01*
X165981749Y-598937160D01*
X166151588Y-598988680D01*
X166308113Y-599072345D01*
X166343851Y-599101675D01*
X166445308Y-599184937D01*
X166528570Y-599286394D01*
X166557900Y-599322132D01*
X166641565Y-599478657D01*
X166693085Y-599648496D01*
X166710481Y-599825123D01*
X166693085Y-600001750D01*
X166641565Y-600171589D01*
X166557900Y-600328114D01*
X166528570Y-600363852D01*
X166445308Y-600465309D01*
X166343851Y-600548571D01*
X166308113Y-600577901D01*
X166151588Y-600661566D01*
X165981749Y-600713086D01*
X165915565Y-600719604D01*
X165849382Y-600726123D01*
X165760862Y-600726123D01*
X165694679Y-600719604D01*
X165628495Y-600713086D01*
X165458656Y-600661566D01*
X165302131Y-600577901D01*
X165266393Y-600548571D01*
X165164936Y-600465309D01*
X165081674Y-600363852D01*
X165052344Y-600328114D01*
X164968679Y-600171589D01*
X164917159Y-600001750D01*
X164899763Y-599825123D01*
X164917159Y-599648496D01*
X164968679Y-599478657D01*
X165052344Y-599322132D01*
X165081674Y-599286394D01*
X165164936Y-599184937D01*
X165266393Y-599101675D01*
X165302131Y-599072345D01*
X165458656Y-598988680D01*
X165628495Y-598937160D01*
X165694680Y-598930641D01*
X165760862Y-598924123D01*
X165849382Y-598924123D01*
X165915564Y-598930641D01*
X165915564Y-598930641D01*
G37*
G36*
X168369015Y-598273240D02*
G01*
X168435200Y-598279759D01*
X168605039Y-598331279D01*
X168761564Y-598414944D01*
X168797302Y-598444274D01*
X168898759Y-598527536D01*
X168982021Y-598628993D01*
X169011351Y-598664731D01*
X169095016Y-598821256D01*
X169146536Y-598991095D01*
X169163932Y-599167722D01*
X169146536Y-599344349D01*
X169095016Y-599514188D01*
X169011351Y-599670713D01*
X168982021Y-599706451D01*
X168898759Y-599807908D01*
X168797302Y-599891170D01*
X168761564Y-599920500D01*
X168605039Y-600004165D01*
X168435200Y-600055685D01*
X168369016Y-600062203D01*
X168302833Y-600068722D01*
X168214313Y-600068722D01*
X168148130Y-600062203D01*
X168081946Y-600055685D01*
X167912107Y-600004165D01*
X167755582Y-599920500D01*
X167719844Y-599891170D01*
X167618387Y-599807908D01*
X167535125Y-599706451D01*
X167505795Y-599670713D01*
X167422130Y-599514188D01*
X167370610Y-599344349D01*
X167353214Y-599167722D01*
X167370610Y-598991095D01*
X167422130Y-598821256D01*
X167505795Y-598664731D01*
X167535125Y-598628993D01*
X167618387Y-598527536D01*
X167719844Y-598444274D01*
X167755582Y-598414944D01*
X167912107Y-598331279D01*
X168081946Y-598279759D01*
X168148131Y-598273240D01*
X168214313Y-598266722D01*
X168302833Y-598266722D01*
X168369015Y-598273240D01*
X168369015Y-598273240D01*
G37*
G36*
X170822467Y-597615840D02*
G01*
X170888652Y-597622359D01*
X171058491Y-597673879D01*
X171215016Y-597757544D01*
X171250754Y-597786874D01*
X171352211Y-597870136D01*
X171435473Y-597971593D01*
X171464803Y-598007331D01*
X171548468Y-598163856D01*
X171599988Y-598333695D01*
X171617384Y-598510322D01*
X171599988Y-598686949D01*
X171548468Y-598856788D01*
X171464803Y-599013313D01*
X171435473Y-599049051D01*
X171352211Y-599150508D01*
X171250754Y-599233770D01*
X171215016Y-599263100D01*
X171058491Y-599346765D01*
X170888652Y-599398285D01*
X170822467Y-599404804D01*
X170756285Y-599411322D01*
X170667765Y-599411322D01*
X170601583Y-599404804D01*
X170535398Y-599398285D01*
X170365559Y-599346765D01*
X170209034Y-599263100D01*
X170173296Y-599233770D01*
X170071839Y-599150508D01*
X169988577Y-599049051D01*
X169959247Y-599013313D01*
X169875582Y-598856788D01*
X169824062Y-598686949D01*
X169806666Y-598510322D01*
X169824062Y-598333695D01*
X169875582Y-598163856D01*
X169959247Y-598007331D01*
X169988577Y-597971593D01*
X170071839Y-597870136D01*
X170173296Y-597786874D01*
X170209034Y-597757544D01*
X170365559Y-597673879D01*
X170535398Y-597622359D01*
X170601583Y-597615840D01*
X170667765Y-597609322D01*
X170756285Y-597609322D01*
X170822467Y-597615840D01*
X170822467Y-597615840D01*
G37*
G36*
X226022468Y-585335841D02*
G01*
X226088652Y-585342359D01*
X226258491Y-585393879D01*
X226415016Y-585477544D01*
X226450754Y-585506874D01*
X226552211Y-585590136D01*
X226635473Y-585691593D01*
X226664803Y-585727331D01*
X226748468Y-585883856D01*
X226799988Y-586053695D01*
X226817384Y-586230322D01*
X226799988Y-586406949D01*
X226748468Y-586576788D01*
X226664803Y-586733313D01*
X226635473Y-586769051D01*
X226552211Y-586870508D01*
X226450754Y-586953770D01*
X226415016Y-586983100D01*
X226258491Y-587066765D01*
X226088652Y-587118285D01*
X226022467Y-587124804D01*
X225956285Y-587131322D01*
X225867765Y-587131322D01*
X225801583Y-587124804D01*
X225735398Y-587118285D01*
X225565559Y-587066765D01*
X225409034Y-586983100D01*
X225373296Y-586953770D01*
X225271839Y-586870508D01*
X225188577Y-586769051D01*
X225159247Y-586733313D01*
X225075582Y-586576788D01*
X225024062Y-586406949D01*
X225006666Y-586230322D01*
X225024062Y-586053695D01*
X225075582Y-585883856D01*
X225159247Y-585727331D01*
X225188577Y-585691593D01*
X225271839Y-585590136D01*
X225373296Y-585506874D01*
X225409034Y-585477544D01*
X225565559Y-585393879D01*
X225735398Y-585342359D01*
X225801582Y-585335841D01*
X225867765Y-585329322D01*
X225956285Y-585329322D01*
X226022468Y-585335841D01*
X226022468Y-585335841D01*
G37*
G36*
X226022467Y-582795840D02*
G01*
X226088652Y-582802359D01*
X226258491Y-582853879D01*
X226415016Y-582937544D01*
X226450754Y-582966874D01*
X226552211Y-583050136D01*
X226635473Y-583151593D01*
X226664803Y-583187331D01*
X226748468Y-583343856D01*
X226799988Y-583513695D01*
X226817384Y-583690322D01*
X226799988Y-583866949D01*
X226748468Y-584036788D01*
X226664803Y-584193313D01*
X226635473Y-584229051D01*
X226552211Y-584330508D01*
X226450754Y-584413770D01*
X226415016Y-584443100D01*
X226258491Y-584526765D01*
X226088652Y-584578285D01*
X226022468Y-584584803D01*
X225956285Y-584591322D01*
X225867765Y-584591322D01*
X225801582Y-584584803D01*
X225735398Y-584578285D01*
X225565559Y-584526765D01*
X225409034Y-584443100D01*
X225373296Y-584413770D01*
X225271839Y-584330508D01*
X225188577Y-584229051D01*
X225159247Y-584193313D01*
X225075582Y-584036788D01*
X225024062Y-583866949D01*
X225006666Y-583690322D01*
X225024062Y-583513695D01*
X225075582Y-583343856D01*
X225159247Y-583187331D01*
X225188577Y-583151593D01*
X225271839Y-583050136D01*
X225373296Y-582966874D01*
X225409034Y-582937544D01*
X225565559Y-582853879D01*
X225735398Y-582802359D01*
X225801583Y-582795840D01*
X225867765Y-582789322D01*
X225956285Y-582789322D01*
X226022467Y-582795840D01*
X226022467Y-582795840D01*
G37*
G36*
X226022467Y-580255840D02*
G01*
X226088652Y-580262359D01*
X226258491Y-580313879D01*
X226415016Y-580397544D01*
X226450754Y-580426874D01*
X226552211Y-580510136D01*
X226635473Y-580611593D01*
X226664803Y-580647331D01*
X226748468Y-580803856D01*
X226799988Y-580973695D01*
X226817384Y-581150322D01*
X226799988Y-581326949D01*
X226748468Y-581496788D01*
X226664803Y-581653313D01*
X226635473Y-581689051D01*
X226552211Y-581790508D01*
X226450754Y-581873770D01*
X226415016Y-581903100D01*
X226258491Y-581986765D01*
X226088652Y-582038285D01*
X226022467Y-582044804D01*
X225956285Y-582051322D01*
X225867765Y-582051322D01*
X225801583Y-582044804D01*
X225735398Y-582038285D01*
X225565559Y-581986765D01*
X225409034Y-581903100D01*
X225373296Y-581873770D01*
X225271839Y-581790508D01*
X225188577Y-581689051D01*
X225159247Y-581653313D01*
X225075582Y-581496788D01*
X225024062Y-581326949D01*
X225006666Y-581150322D01*
X225024062Y-580973695D01*
X225075582Y-580803856D01*
X225159247Y-580647331D01*
X225188577Y-580611593D01*
X225271839Y-580510136D01*
X225373296Y-580426874D01*
X225409034Y-580397544D01*
X225565559Y-580313879D01*
X225735398Y-580262359D01*
X225801583Y-580255840D01*
X225867765Y-580249322D01*
X225956285Y-580249322D01*
X226022467Y-580255840D01*
X226022467Y-580255840D01*
G37*
G36*
X226813025Y-579511322D02*
G01*
X225011025Y-579511322D01*
X225011025Y-577709322D01*
X226813025Y-577709322D01*
X226813025Y-579511322D01*
X226813025Y-579511322D01*
G37*
G36*
X237108499Y-564994007D02*
G01*
X237326499Y-565084306D01*
X237480648Y-565148156D01*
X237815573Y-565371946D01*
X238100402Y-565656775D01*
X238324192Y-565991700D01*
X238356587Y-566069909D01*
X238478341Y-566363849D01*
X238556925Y-566758917D01*
X238556925Y-567161729D01*
X238478341Y-567556797D01*
X238427476Y-567679595D01*
X238324192Y-567928946D01*
X238100402Y-568263871D01*
X237815573Y-568548700D01*
X237480648Y-568772490D01*
X237326499Y-568836340D01*
X237108499Y-568926639D01*
X236713431Y-569005223D01*
X236310619Y-569005223D01*
X235915551Y-568926639D01*
X235697551Y-568836340D01*
X235543402Y-568772490D01*
X235208477Y-568548700D01*
X234923648Y-568263871D01*
X234699858Y-567928946D01*
X234596574Y-567679595D01*
X234545709Y-567556797D01*
X234467125Y-567161729D01*
X234467125Y-566758917D01*
X234545709Y-566363849D01*
X234667463Y-566069909D01*
X234699858Y-565991700D01*
X234923648Y-565656775D01*
X235208477Y-565371946D01*
X235543402Y-565148156D01*
X235697551Y-565084306D01*
X235915551Y-564994007D01*
X236310619Y-564915423D01*
X236713431Y-564915423D01*
X237108499Y-564994007D01*
X237108499Y-564994007D01*
G37*
G36*
X231702129Y-566069908D02*
G01*
X231870651Y-566139712D01*
X232022316Y-566241051D01*
X232151297Y-566370032D01*
X232252636Y-566521697D01*
X232322440Y-566690219D01*
X232358025Y-566869120D01*
X232358025Y-567051526D01*
X232322440Y-567230427D01*
X232252636Y-567398949D01*
X232151297Y-567550614D01*
X232022316Y-567679595D01*
X231870651Y-567780934D01*
X231702129Y-567850738D01*
X231523228Y-567886323D01*
X231340822Y-567886323D01*
X231161921Y-567850738D01*
X230993399Y-567780934D01*
X230841734Y-567679595D01*
X230712753Y-567550614D01*
X230611414Y-567398949D01*
X230541610Y-567230427D01*
X230506025Y-567051526D01*
X230506025Y-566869120D01*
X230541610Y-566690219D01*
X230611414Y-566521697D01*
X230712753Y-566370032D01*
X230841734Y-566241051D01*
X230993399Y-566139712D01*
X231161921Y-566069908D01*
X231340822Y-566034323D01*
X231523228Y-566034323D01*
X231702129Y-566069908D01*
X231702129Y-566069908D01*
G37*
G36*
X241862129Y-566069908D02*
G01*
X242030651Y-566139712D01*
X242182316Y-566241051D01*
X242311297Y-566370032D01*
X242412636Y-566521697D01*
X242482440Y-566690219D01*
X242518025Y-566869120D01*
X242518025Y-567051526D01*
X242482440Y-567230427D01*
X242412636Y-567398949D01*
X242311297Y-567550614D01*
X242182316Y-567679595D01*
X242030651Y-567780934D01*
X241862129Y-567850738D01*
X241683228Y-567886323D01*
X241500822Y-567886323D01*
X241321921Y-567850738D01*
X241153399Y-567780934D01*
X241001734Y-567679595D01*
X240872753Y-567550614D01*
X240771414Y-567398949D01*
X240701610Y-567230427D01*
X240666025Y-567051526D01*
X240666025Y-566869120D01*
X240701610Y-566690219D01*
X240771414Y-566521697D01*
X240872753Y-566370032D01*
X241001734Y-566241051D01*
X241153399Y-566139712D01*
X241321921Y-566069908D01*
X241500822Y-566034323D01*
X241683228Y-566034323D01*
X241862129Y-566069908D01*
X241862129Y-566069908D01*
G37*
G36*
X232940245Y-562886322D02*
G01*
X233154435Y-562928927D01*
X233436699Y-563045844D01*
X233690730Y-563215582D01*
X233906766Y-563431618D01*
X234076504Y-563685649D01*
X234177280Y-563928945D01*
X234193421Y-563967914D01*
X234252291Y-564263870D01*
X234253025Y-564267563D01*
X234253025Y-564573083D01*
X234193421Y-564872733D01*
X234076504Y-565154997D01*
X233906766Y-565409028D01*
X233690730Y-565625064D01*
X233436699Y-565794802D01*
X233154435Y-565911719D01*
X233004610Y-565941521D01*
X232854786Y-565971323D01*
X232549264Y-565971323D01*
X232399440Y-565941521D01*
X232249615Y-565911719D01*
X231967351Y-565794802D01*
X231713320Y-565625064D01*
X231497284Y-565409028D01*
X231327546Y-565154997D01*
X231210629Y-564872733D01*
X231151025Y-564573083D01*
X231151025Y-564267563D01*
X231151760Y-564263870D01*
X231210629Y-563967914D01*
X231226770Y-563928945D01*
X231327546Y-563685649D01*
X231497284Y-563431618D01*
X231713320Y-563215582D01*
X231967351Y-563045844D01*
X232249615Y-562928927D01*
X232463805Y-562886322D01*
X232549264Y-562869323D01*
X232854786Y-562869323D01*
X232940245Y-562886322D01*
X232940245Y-562886322D01*
G37*
G36*
X256158499Y-560994006D02*
G01*
X256341740Y-561069907D01*
X256530648Y-561148155D01*
X256865573Y-561371945D01*
X257150402Y-561656774D01*
X257374192Y-561991699D01*
X257406587Y-562069908D01*
X257528341Y-562363848D01*
X257606925Y-562758916D01*
X257606925Y-563161728D01*
X257528341Y-563556796D01*
X257477476Y-563679594D01*
X257374192Y-563928945D01*
X257150402Y-564263870D01*
X256865573Y-564548699D01*
X256530648Y-564772489D01*
X256376499Y-564836339D01*
X256158499Y-564926638D01*
X255763431Y-565005222D01*
X255360619Y-565005222D01*
X254965551Y-564926638D01*
X254747551Y-564836339D01*
X254593402Y-564772489D01*
X254258477Y-564548699D01*
X253973648Y-564263870D01*
X253749858Y-563928945D01*
X253646574Y-563679594D01*
X253595709Y-563556796D01*
X253517125Y-563161728D01*
X253517125Y-562758916D01*
X253595709Y-562363848D01*
X253717463Y-562069908D01*
X253749858Y-561991699D01*
X253973648Y-561656774D01*
X254258477Y-561371945D01*
X254593402Y-561148155D01*
X254782310Y-561069907D01*
X254965551Y-560994006D01*
X255360619Y-560915422D01*
X255763431Y-560915422D01*
X256158499Y-560994006D01*
X256158499Y-560994006D01*
G37*
G36*
X218058499Y-559994006D02*
G01*
X218276499Y-560084305D01*
X218430648Y-560148155D01*
X218765573Y-560371945D01*
X219050402Y-560656774D01*
X219274192Y-560991699D01*
X219306587Y-561069908D01*
X219428341Y-561363848D01*
X219506925Y-561758916D01*
X219506925Y-562161728D01*
X219428341Y-562556796D01*
X219373075Y-562690219D01*
X219274192Y-562928945D01*
X219050402Y-563263870D01*
X218765573Y-563548699D01*
X218430648Y-563772489D01*
X218276499Y-563836339D01*
X218058499Y-563926638D01*
X217663431Y-564005222D01*
X217260619Y-564005222D01*
X216865551Y-563926638D01*
X216647551Y-563836339D01*
X216493402Y-563772489D01*
X216158477Y-563548699D01*
X215873648Y-563263870D01*
X215649858Y-562928945D01*
X215550975Y-562690219D01*
X215495709Y-562556796D01*
X215417125Y-562161728D01*
X215417125Y-561758916D01*
X215495709Y-561363848D01*
X215617463Y-561069908D01*
X215649858Y-560991699D01*
X215873648Y-560656774D01*
X216158477Y-560371945D01*
X216493402Y-560148155D01*
X216647551Y-560084305D01*
X216865551Y-559994006D01*
X217260619Y-559915422D01*
X217663431Y-559915422D01*
X218058499Y-559994006D01*
X218058499Y-559994006D01*
G37*
G36*
X250752129Y-562069907D02*
G01*
X250920651Y-562139711D01*
X251072316Y-562241050D01*
X251201297Y-562370031D01*
X251302636Y-562521696D01*
X251372440Y-562690218D01*
X251408025Y-562869119D01*
X251408025Y-563051525D01*
X251372440Y-563230426D01*
X251302636Y-563398948D01*
X251201297Y-563550613D01*
X251072316Y-563679594D01*
X250920651Y-563780933D01*
X250752129Y-563850737D01*
X250573228Y-563886322D01*
X250390822Y-563886322D01*
X250211921Y-563850737D01*
X250043399Y-563780933D01*
X249891734Y-563679594D01*
X249762753Y-563550613D01*
X249661414Y-563398948D01*
X249591610Y-563230426D01*
X249556025Y-563051525D01*
X249556025Y-562869119D01*
X249591610Y-562690218D01*
X249661414Y-562521696D01*
X249762753Y-562370031D01*
X249891734Y-562241050D01*
X250043399Y-562139711D01*
X250211921Y-562069907D01*
X250390822Y-562034322D01*
X250573228Y-562034322D01*
X250752129Y-562069907D01*
X250752129Y-562069907D01*
G37*
G36*
X260912129Y-562069907D02*
G01*
X261080651Y-562139711D01*
X261232316Y-562241050D01*
X261361297Y-562370031D01*
X261462636Y-562521696D01*
X261532440Y-562690218D01*
X261568025Y-562869119D01*
X261568025Y-563051525D01*
X261532440Y-563230426D01*
X261462636Y-563398948D01*
X261361297Y-563550613D01*
X261232316Y-563679594D01*
X261080651Y-563780933D01*
X260912129Y-563850737D01*
X260733228Y-563886322D01*
X260550822Y-563886322D01*
X260371921Y-563850737D01*
X260203399Y-563780933D01*
X260051734Y-563679594D01*
X259922753Y-563550613D01*
X259821414Y-563398948D01*
X259751610Y-563230426D01*
X259716025Y-563051525D01*
X259716025Y-562869119D01*
X259751610Y-562690218D01*
X259821414Y-562521696D01*
X259922753Y-562370031D01*
X260051734Y-562241050D01*
X260203399Y-562139711D01*
X260371921Y-562069907D01*
X260550822Y-562034322D01*
X260733228Y-562034322D01*
X260912129Y-562069907D01*
X260912129Y-562069907D01*
G37*
G36*
X239354610Y-560359125D02*
G01*
X239504435Y-560388927D01*
X239786699Y-560505844D01*
X240040730Y-560675582D01*
X240256766Y-560891618D01*
X240426504Y-561145649D01*
X240543421Y-561427913D01*
X240562076Y-561521697D01*
X240588945Y-561656775D01*
X240603025Y-561727563D01*
X240603025Y-562033083D01*
X240543421Y-562332733D01*
X240426504Y-562614997D01*
X240256766Y-562869028D01*
X240040730Y-563085064D01*
X239786699Y-563254802D01*
X239504435Y-563371719D01*
X239367550Y-563398947D01*
X239204786Y-563431323D01*
X238899264Y-563431323D01*
X238736500Y-563398947D01*
X238599615Y-563371719D01*
X238317351Y-563254802D01*
X238063320Y-563085064D01*
X237847284Y-562869028D01*
X237677546Y-562614997D01*
X237560629Y-562332733D01*
X237501025Y-562033083D01*
X237501025Y-561727563D01*
X237515106Y-561656775D01*
X237541974Y-561521697D01*
X237560629Y-561427913D01*
X237677546Y-561145649D01*
X237847284Y-560891618D01*
X238063320Y-560675582D01*
X238317351Y-560505844D01*
X238599615Y-560388927D01*
X238749440Y-560359125D01*
X238899264Y-560329323D01*
X239204786Y-560329323D01*
X239354610Y-560359125D01*
X239354610Y-560359125D01*
G37*
G36*
X212652129Y-561069907D02*
G01*
X212820651Y-561139711D01*
X212972316Y-561241050D01*
X213101297Y-561370031D01*
X213202636Y-561521696D01*
X213272440Y-561690218D01*
X213308025Y-561869119D01*
X213308025Y-562051525D01*
X213272440Y-562230426D01*
X213202636Y-562398948D01*
X213101297Y-562550613D01*
X212972316Y-562679594D01*
X212820651Y-562780933D01*
X212652129Y-562850737D01*
X212473228Y-562886322D01*
X212290822Y-562886322D01*
X212111921Y-562850737D01*
X211943399Y-562780933D01*
X211791734Y-562679594D01*
X211662753Y-562550613D01*
X211561414Y-562398948D01*
X211491610Y-562230426D01*
X211456025Y-562051525D01*
X211456025Y-561869119D01*
X211491610Y-561690218D01*
X211561414Y-561521696D01*
X211662753Y-561370031D01*
X211791734Y-561241050D01*
X211943399Y-561139711D01*
X212111921Y-561069907D01*
X212290822Y-561034322D01*
X212473228Y-561034322D01*
X212652129Y-561069907D01*
X212652129Y-561069907D01*
G37*
G36*
X222812129Y-561069907D02*
G01*
X222980651Y-561139711D01*
X223132316Y-561241050D01*
X223261297Y-561370031D01*
X223362636Y-561521696D01*
X223432440Y-561690218D01*
X223468025Y-561869119D01*
X223468025Y-562051525D01*
X223432440Y-562230426D01*
X223362636Y-562398948D01*
X223261297Y-562550613D01*
X223132316Y-562679594D01*
X222980651Y-562780933D01*
X222812129Y-562850737D01*
X222633228Y-562886322D01*
X222450822Y-562886322D01*
X222271921Y-562850737D01*
X222103399Y-562780933D01*
X221951734Y-562679594D01*
X221822753Y-562550613D01*
X221721414Y-562398948D01*
X221651610Y-562230426D01*
X221616025Y-562051525D01*
X221616025Y-561869119D01*
X221651610Y-561690218D01*
X221721414Y-561521696D01*
X221822753Y-561370031D01*
X221951734Y-561241050D01*
X222103399Y-561139711D01*
X222271921Y-561069907D01*
X222450822Y-561034322D01*
X222633228Y-561034322D01*
X222812129Y-561069907D01*
X222812129Y-561069907D01*
G37*
G36*
X252054610Y-558899124D02*
G01*
X252204435Y-558928926D01*
X252486699Y-559045843D01*
X252740730Y-559215581D01*
X252956766Y-559431617D01*
X253126504Y-559685648D01*
X253243421Y-559967912D01*
X253273223Y-560117737D01*
X253303025Y-560267561D01*
X253303025Y-560573083D01*
X253282637Y-560675582D01*
X253243421Y-560872732D01*
X253126504Y-561154996D01*
X252956766Y-561409027D01*
X252740730Y-561625063D01*
X252486699Y-561794801D01*
X252204435Y-561911718D01*
X252054610Y-561941520D01*
X251904786Y-561971322D01*
X251599264Y-561971322D01*
X251449440Y-561941520D01*
X251299615Y-561911718D01*
X251017351Y-561794801D01*
X250763320Y-561625063D01*
X250547284Y-561409027D01*
X250377546Y-561154996D01*
X250260629Y-560872732D01*
X250221413Y-560675582D01*
X250201025Y-560573083D01*
X250201025Y-560267561D01*
X250230827Y-560117737D01*
X250260629Y-559967912D01*
X250377546Y-559685648D01*
X250547284Y-559431617D01*
X250763320Y-559215581D01*
X251017351Y-559045843D01*
X251299615Y-558928926D01*
X251449440Y-558899124D01*
X251599264Y-558869322D01*
X251904786Y-558869322D01*
X252054610Y-558899124D01*
X252054610Y-558899124D01*
G37*
G36*
X213890250Y-557886322D02*
G01*
X214104435Y-557928926D01*
X214386699Y-558045843D01*
X214640730Y-558215581D01*
X214856766Y-558431617D01*
X215026504Y-558685648D01*
X215143421Y-558967912D01*
X215203025Y-559267562D01*
X215203025Y-559573082D01*
X215143421Y-559872732D01*
X215026504Y-560154996D01*
X214856766Y-560409027D01*
X214640730Y-560625063D01*
X214386699Y-560794801D01*
X214104435Y-560911718D01*
X213954610Y-560941520D01*
X213804786Y-560971322D01*
X213499264Y-560971322D01*
X213349440Y-560941520D01*
X213199615Y-560911718D01*
X212917351Y-560794801D01*
X212663320Y-560625063D01*
X212447284Y-560409027D01*
X212277546Y-560154996D01*
X212160629Y-559872732D01*
X212101025Y-559573082D01*
X212101025Y-559267562D01*
X212160629Y-558967912D01*
X212277546Y-558685648D01*
X212447284Y-558431617D01*
X212663320Y-558215581D01*
X212917351Y-558045843D01*
X213199615Y-557928926D01*
X213413800Y-557886322D01*
X213499264Y-557869322D01*
X213804786Y-557869322D01*
X213890250Y-557886322D01*
X213890250Y-557886322D01*
G37*
G36*
X258404610Y-556359124D02*
G01*
X258554435Y-556388926D01*
X258836699Y-556505843D01*
X259090730Y-556675581D01*
X259306766Y-556891617D01*
X259476504Y-557145648D01*
X259593421Y-557427912D01*
X259617828Y-557550613D01*
X259643484Y-557679593D01*
X259653025Y-557727562D01*
X259653025Y-558033082D01*
X259593421Y-558332732D01*
X259476504Y-558614996D01*
X259306766Y-558869027D01*
X259090730Y-559085063D01*
X258836699Y-559254801D01*
X258554435Y-559371718D01*
X258404610Y-559401520D01*
X258254786Y-559431322D01*
X257949264Y-559431322D01*
X257799440Y-559401520D01*
X257649615Y-559371718D01*
X257367351Y-559254801D01*
X257113320Y-559085063D01*
X256897284Y-558869027D01*
X256727546Y-558614996D01*
X256610629Y-558332732D01*
X256551025Y-558033082D01*
X256551025Y-557727562D01*
X256560567Y-557679593D01*
X256586222Y-557550613D01*
X256610629Y-557427912D01*
X256727546Y-557145648D01*
X256897284Y-556891617D01*
X257113320Y-556675581D01*
X257367351Y-556505843D01*
X257649615Y-556388926D01*
X257799440Y-556359124D01*
X257949264Y-556329322D01*
X258254786Y-556329322D01*
X258404610Y-556359124D01*
X258404610Y-556359124D01*
G37*
G36*
X199008499Y-554994006D02*
G01*
X199226499Y-555084305D01*
X199380648Y-555148155D01*
X199715573Y-555371945D01*
X200000402Y-555656774D01*
X200224192Y-555991699D01*
X200256587Y-556069908D01*
X200378341Y-556363848D01*
X200456925Y-556758916D01*
X200456925Y-557161728D01*
X200378341Y-557556796D01*
X200327476Y-557679594D01*
X200224192Y-557928945D01*
X200000402Y-558263870D01*
X199715573Y-558548699D01*
X199380648Y-558772489D01*
X199226499Y-558836339D01*
X199008499Y-558926638D01*
X198613431Y-559005222D01*
X198210619Y-559005222D01*
X197815551Y-558926638D01*
X197597551Y-558836339D01*
X197443402Y-558772489D01*
X197108477Y-558548699D01*
X196823648Y-558263870D01*
X196599858Y-557928945D01*
X196496574Y-557679594D01*
X196445709Y-557556796D01*
X196367125Y-557161728D01*
X196367125Y-556758916D01*
X196445709Y-556363848D01*
X196567463Y-556069908D01*
X196599858Y-555991699D01*
X196823648Y-555656774D01*
X197108477Y-555371945D01*
X197443402Y-555148155D01*
X197597551Y-555084305D01*
X197815551Y-554994006D01*
X198210619Y-554915422D01*
X198613431Y-554915422D01*
X199008499Y-554994006D01*
X199008499Y-554994006D01*
G37*
G36*
X220304610Y-555359124D02*
G01*
X220454435Y-555388926D01*
X220736699Y-555505843D01*
X220990730Y-555675581D01*
X221206766Y-555891617D01*
X221376504Y-556145648D01*
X221493421Y-556427912D01*
X221493421Y-556427913D01*
X221553025Y-556727561D01*
X221553025Y-557033083D01*
X221530634Y-557145648D01*
X221493421Y-557332732D01*
X221376504Y-557614996D01*
X221206766Y-557869027D01*
X220990730Y-558085063D01*
X220736699Y-558254801D01*
X220454435Y-558371718D01*
X220304610Y-558401520D01*
X220154786Y-558431322D01*
X219849264Y-558431322D01*
X219699440Y-558401520D01*
X219549615Y-558371718D01*
X219267351Y-558254801D01*
X219013320Y-558085063D01*
X218797284Y-557869027D01*
X218627546Y-557614996D01*
X218510629Y-557332732D01*
X218473416Y-557145648D01*
X218451025Y-557033083D01*
X218451025Y-556727561D01*
X218510629Y-556427913D01*
X218510629Y-556427912D01*
X218627546Y-556145648D01*
X218797284Y-555891617D01*
X219013320Y-555675581D01*
X219267351Y-555505843D01*
X219549615Y-555388926D01*
X219699440Y-555359124D01*
X219849264Y-555329322D01*
X220154786Y-555329322D01*
X220304610Y-555359124D01*
X220304610Y-555359124D01*
G37*
G36*
X153813019Y-558131280D02*
G01*
X152011019Y-558131280D01*
X152011019Y-556329280D01*
X153813019Y-556329280D01*
X153813019Y-558131280D01*
X153813019Y-558131280D01*
G37*
G36*
X193602129Y-556069907D02*
G01*
X193770651Y-556139711D01*
X193922316Y-556241050D01*
X194051297Y-556370031D01*
X194152636Y-556521696D01*
X194222440Y-556690218D01*
X194258025Y-556869119D01*
X194258025Y-557051525D01*
X194222440Y-557230426D01*
X194152636Y-557398948D01*
X194051297Y-557550613D01*
X193922316Y-557679594D01*
X193770651Y-557780933D01*
X193602129Y-557850737D01*
X193423228Y-557886322D01*
X193240822Y-557886322D01*
X193061921Y-557850737D01*
X192893399Y-557780933D01*
X192741734Y-557679594D01*
X192612753Y-557550613D01*
X192511414Y-557398948D01*
X192441610Y-557230426D01*
X192406025Y-557051525D01*
X192406025Y-556869119D01*
X192441610Y-556690218D01*
X192511414Y-556521696D01*
X192612753Y-556370031D01*
X192741734Y-556241050D01*
X192893399Y-556139711D01*
X193061921Y-556069907D01*
X193240822Y-556034322D01*
X193423228Y-556034322D01*
X193602129Y-556069907D01*
X193602129Y-556069907D01*
G37*
G36*
X203762129Y-556069907D02*
G01*
X203930651Y-556139711D01*
X204082316Y-556241050D01*
X204211297Y-556370031D01*
X204312636Y-556521696D01*
X204382440Y-556690218D01*
X204418025Y-556869119D01*
X204418025Y-557051525D01*
X204382440Y-557230426D01*
X204312636Y-557398948D01*
X204211297Y-557550613D01*
X204082316Y-557679594D01*
X203930651Y-557780933D01*
X203762129Y-557850737D01*
X203583228Y-557886322D01*
X203400822Y-557886322D01*
X203221921Y-557850737D01*
X203053399Y-557780933D01*
X202901734Y-557679594D01*
X202772753Y-557550613D01*
X202671414Y-557398948D01*
X202601610Y-557230426D01*
X202566025Y-557051525D01*
X202566025Y-556869119D01*
X202601610Y-556690218D01*
X202671414Y-556521696D01*
X202772753Y-556370031D01*
X202901734Y-556241050D01*
X203053399Y-556139711D01*
X203221921Y-556069907D01*
X203400822Y-556034322D01*
X203583228Y-556034322D01*
X203762129Y-556069907D01*
X203762129Y-556069907D01*
G37*
G36*
X184457722Y-557358847D02*
G01*
X182655722Y-557358847D01*
X182655722Y-555556847D01*
X184457722Y-555556847D01*
X184457722Y-557358847D01*
X184457722Y-557358847D01*
G37*
G36*
X181127164Y-555563365D02*
G01*
X181193349Y-555569884D01*
X181363188Y-555621404D01*
X181363190Y-555621405D01*
X181429360Y-555656774D01*
X181519713Y-555705069D01*
X181555451Y-555734399D01*
X181656908Y-555817661D01*
X181717601Y-555891617D01*
X181769500Y-555954856D01*
X181853165Y-556111381D01*
X181904685Y-556281220D01*
X181922081Y-556457847D01*
X181904685Y-556634474D01*
X181853165Y-556804313D01*
X181769500Y-556960838D01*
X181740170Y-556996576D01*
X181656908Y-557098033D01*
X181579295Y-557161727D01*
X181519713Y-557210625D01*
X181363188Y-557294290D01*
X181193349Y-557345810D01*
X181127165Y-557352328D01*
X181060982Y-557358847D01*
X180972462Y-557358847D01*
X180906279Y-557352328D01*
X180840095Y-557345810D01*
X180670256Y-557294290D01*
X180513731Y-557210625D01*
X180454149Y-557161727D01*
X180376536Y-557098033D01*
X180293274Y-556996576D01*
X180263944Y-556960838D01*
X180180279Y-556804313D01*
X180128759Y-556634474D01*
X180111363Y-556457847D01*
X180128759Y-556281220D01*
X180180279Y-556111381D01*
X180263944Y-555954856D01*
X180315843Y-555891617D01*
X180376536Y-555817661D01*
X180477993Y-555734399D01*
X180513731Y-555705069D01*
X180604084Y-555656774D01*
X180670254Y-555621405D01*
X180670256Y-555621404D01*
X180840095Y-555569884D01*
X180906280Y-555563365D01*
X180972462Y-555556847D01*
X181060982Y-555556847D01*
X181127164Y-555563365D01*
X181127164Y-555563365D01*
G37*
G36*
X178587164Y-555563365D02*
G01*
X178653349Y-555569884D01*
X178823188Y-555621404D01*
X178823190Y-555621405D01*
X178889360Y-555656774D01*
X178979713Y-555705069D01*
X179015451Y-555734399D01*
X179116908Y-555817661D01*
X179177601Y-555891617D01*
X179229500Y-555954856D01*
X179313165Y-556111381D01*
X179364685Y-556281220D01*
X179382081Y-556457847D01*
X179364685Y-556634474D01*
X179313165Y-556804313D01*
X179229500Y-556960838D01*
X179200170Y-556996576D01*
X179116908Y-557098033D01*
X179039295Y-557161727D01*
X178979713Y-557210625D01*
X178823188Y-557294290D01*
X178653349Y-557345810D01*
X178587165Y-557352328D01*
X178520982Y-557358847D01*
X178432462Y-557358847D01*
X178366279Y-557352328D01*
X178300095Y-557345810D01*
X178130256Y-557294290D01*
X177973731Y-557210625D01*
X177914149Y-557161727D01*
X177836536Y-557098033D01*
X177753274Y-556996576D01*
X177723944Y-556960838D01*
X177640279Y-556804313D01*
X177588759Y-556634474D01*
X177571363Y-556457847D01*
X177588759Y-556281220D01*
X177640279Y-556111381D01*
X177723944Y-555954856D01*
X177775843Y-555891617D01*
X177836536Y-555817661D01*
X177937993Y-555734399D01*
X177973731Y-555705069D01*
X178064084Y-555656774D01*
X178130254Y-555621405D01*
X178130256Y-555621404D01*
X178300095Y-555569884D01*
X178366280Y-555563365D01*
X178432462Y-555556847D01*
X178520982Y-555556847D01*
X178587164Y-555563365D01*
X178587164Y-555563365D01*
G37*
G36*
X176047164Y-555563365D02*
G01*
X176113349Y-555569884D01*
X176283188Y-555621404D01*
X176283190Y-555621405D01*
X176349360Y-555656774D01*
X176439713Y-555705069D01*
X176475451Y-555734399D01*
X176576908Y-555817661D01*
X176637601Y-555891617D01*
X176689500Y-555954856D01*
X176773165Y-556111381D01*
X176824685Y-556281220D01*
X176842081Y-556457847D01*
X176824685Y-556634474D01*
X176773165Y-556804313D01*
X176689500Y-556960838D01*
X176660170Y-556996576D01*
X176576908Y-557098033D01*
X176499295Y-557161727D01*
X176439713Y-557210625D01*
X176283188Y-557294290D01*
X176113349Y-557345810D01*
X176047165Y-557352328D01*
X175980982Y-557358847D01*
X175892462Y-557358847D01*
X175826279Y-557352328D01*
X175760095Y-557345810D01*
X175590256Y-557294290D01*
X175433731Y-557210625D01*
X175374149Y-557161727D01*
X175296536Y-557098033D01*
X175213274Y-556996576D01*
X175183944Y-556960838D01*
X175100279Y-556804313D01*
X175048759Y-556634474D01*
X175031363Y-556457847D01*
X175048759Y-556281220D01*
X175100279Y-556111381D01*
X175183944Y-555954856D01*
X175235843Y-555891617D01*
X175296536Y-555817661D01*
X175397993Y-555734399D01*
X175433731Y-555705069D01*
X175524084Y-555656774D01*
X175590254Y-555621405D01*
X175590256Y-555621404D01*
X175760095Y-555569884D01*
X175826280Y-555563365D01*
X175892462Y-555556847D01*
X175980982Y-555556847D01*
X176047164Y-555563365D01*
X176047164Y-555563365D01*
G37*
G36*
X194904610Y-552899124D02*
G01*
X195054435Y-552928926D01*
X195336699Y-553045843D01*
X195590730Y-553215581D01*
X195806766Y-553431617D01*
X195976504Y-553685648D01*
X196093421Y-553967912D01*
X196153025Y-554267562D01*
X196153025Y-554573082D01*
X196093421Y-554872732D01*
X195976504Y-555154996D01*
X195806766Y-555409027D01*
X195590730Y-555625063D01*
X195336699Y-555794801D01*
X195054435Y-555911718D01*
X194904610Y-555941520D01*
X194754786Y-555971322D01*
X194449264Y-555971322D01*
X194299440Y-555941520D01*
X194149615Y-555911718D01*
X193867351Y-555794801D01*
X193613320Y-555625063D01*
X193397284Y-555409027D01*
X193227546Y-555154996D01*
X193110629Y-554872732D01*
X193051025Y-554573082D01*
X193051025Y-554267562D01*
X193110629Y-553967912D01*
X193227546Y-553685648D01*
X193397284Y-553431617D01*
X193613320Y-553215581D01*
X193867351Y-553045843D01*
X194149615Y-552928926D01*
X194299440Y-552899124D01*
X194449264Y-552869322D01*
X194754786Y-552869322D01*
X194904610Y-552899124D01*
X194904610Y-552899124D01*
G37*
G36*
X153022462Y-553795799D02*
G01*
X153088646Y-553802317D01*
X153258485Y-553853837D01*
X153415010Y-553937502D01*
X153450748Y-553966832D01*
X153552205Y-554050094D01*
X153635467Y-554151551D01*
X153664797Y-554187289D01*
X153748462Y-554343814D01*
X153799982Y-554513653D01*
X153817378Y-554690280D01*
X153799982Y-554866907D01*
X153748462Y-555036746D01*
X153664797Y-555193271D01*
X153635467Y-555229009D01*
X153552205Y-555330466D01*
X153480970Y-555388926D01*
X153415010Y-555443058D01*
X153258485Y-555526723D01*
X153088646Y-555578243D01*
X153022462Y-555584761D01*
X152956279Y-555591280D01*
X152867759Y-555591280D01*
X152801576Y-555584761D01*
X152735392Y-555578243D01*
X152565553Y-555526723D01*
X152409028Y-555443058D01*
X152343068Y-555388926D01*
X152271833Y-555330466D01*
X152188571Y-555229009D01*
X152159241Y-555193271D01*
X152075576Y-555036746D01*
X152024056Y-554866907D01*
X152006660Y-554690280D01*
X152024056Y-554513653D01*
X152075576Y-554343814D01*
X152159241Y-554187289D01*
X152188571Y-554151551D01*
X152271833Y-554050094D01*
X152373290Y-553966832D01*
X152409028Y-553937502D01*
X152565553Y-553853837D01*
X152735392Y-553802317D01*
X152801576Y-553795799D01*
X152867759Y-553789280D01*
X152956279Y-553789280D01*
X153022462Y-553795799D01*
X153022462Y-553795799D01*
G37*
G36*
X201254610Y-550359124D02*
G01*
X201404435Y-550388926D01*
X201686699Y-550505843D01*
X201940730Y-550675581D01*
X202156766Y-550891617D01*
X202326504Y-551145648D01*
X202443421Y-551427912D01*
X202503025Y-551727562D01*
X202503025Y-552033082D01*
X202443421Y-552332732D01*
X202326504Y-552614996D01*
X202156766Y-552869027D01*
X201940730Y-553085063D01*
X201686699Y-553254801D01*
X201404435Y-553371718D01*
X201254610Y-553401520D01*
X201104786Y-553431322D01*
X200799264Y-553431322D01*
X200649440Y-553401520D01*
X200499615Y-553371718D01*
X200217351Y-553254801D01*
X199963320Y-553085063D01*
X199747284Y-552869027D01*
X199577546Y-552614996D01*
X199460629Y-552332732D01*
X199401025Y-552033082D01*
X199401025Y-551727562D01*
X199460629Y-551427912D01*
X199577546Y-551145648D01*
X199747284Y-550891617D01*
X199963320Y-550675581D01*
X200217351Y-550505843D01*
X200499615Y-550388926D01*
X200649440Y-550359124D01*
X200799264Y-550329322D01*
X201104786Y-550329322D01*
X201254610Y-550359124D01*
X201254610Y-550359124D01*
G37*
G36*
X153022462Y-551255799D02*
G01*
X153088646Y-551262317D01*
X153258485Y-551313837D01*
X153415010Y-551397502D01*
X153450748Y-551426832D01*
X153552205Y-551510094D01*
X153635467Y-551611551D01*
X153664797Y-551647289D01*
X153748462Y-551803814D01*
X153799982Y-551973653D01*
X153817378Y-552150280D01*
X153799982Y-552326907D01*
X153748462Y-552496746D01*
X153664797Y-552653271D01*
X153635467Y-552689009D01*
X153552205Y-552790466D01*
X153456478Y-552869026D01*
X153415010Y-552903058D01*
X153258485Y-552986723D01*
X153088646Y-553038243D01*
X153022462Y-553044761D01*
X152956279Y-553051280D01*
X152867759Y-553051280D01*
X152801576Y-553044761D01*
X152735392Y-553038243D01*
X152565553Y-552986723D01*
X152409028Y-552903058D01*
X152367560Y-552869026D01*
X152271833Y-552790466D01*
X152188571Y-552689009D01*
X152159241Y-552653271D01*
X152075576Y-552496746D01*
X152024056Y-552326907D01*
X152006660Y-552150280D01*
X152024056Y-551973653D01*
X152075576Y-551803814D01*
X152159241Y-551647289D01*
X152188571Y-551611551D01*
X152271833Y-551510094D01*
X152373290Y-551426832D01*
X152409028Y-551397502D01*
X152565553Y-551313837D01*
X152735392Y-551262317D01*
X152801576Y-551255799D01*
X152867759Y-551249280D01*
X152956279Y-551249280D01*
X153022462Y-551255799D01*
X153022462Y-551255799D01*
G37*
G36*
X153022461Y-548715798D02*
G01*
X153088646Y-548722317D01*
X153258485Y-548773837D01*
X153415010Y-548857502D01*
X153441137Y-548878944D01*
X153552205Y-548970094D01*
X153635467Y-549071551D01*
X153664797Y-549107289D01*
X153748462Y-549263814D01*
X153799982Y-549433653D01*
X153817378Y-549610280D01*
X153799982Y-549786907D01*
X153748462Y-549956746D01*
X153664797Y-550113271D01*
X153635467Y-550149009D01*
X153552205Y-550250466D01*
X153456117Y-550329322D01*
X153415010Y-550363058D01*
X153258485Y-550446723D01*
X153088646Y-550498243D01*
X153022462Y-550504761D01*
X152956279Y-550511280D01*
X152867759Y-550511280D01*
X152801576Y-550504761D01*
X152735392Y-550498243D01*
X152565553Y-550446723D01*
X152409028Y-550363058D01*
X152367921Y-550329322D01*
X152271833Y-550250466D01*
X152188571Y-550149009D01*
X152159241Y-550113271D01*
X152075576Y-549956746D01*
X152024056Y-549786907D01*
X152006660Y-549610280D01*
X152024056Y-549433653D01*
X152075576Y-549263814D01*
X152159241Y-549107289D01*
X152188571Y-549071551D01*
X152271833Y-548970094D01*
X152382901Y-548878944D01*
X152409028Y-548857502D01*
X152565553Y-548773837D01*
X152735392Y-548722317D01*
X152801577Y-548715798D01*
X152867759Y-548709280D01*
X152956279Y-548709280D01*
X153022461Y-548715798D01*
X153022461Y-548715798D01*
G37*
G36*
X237108500Y-545944006D02*
G01*
X237326500Y-546034305D01*
X237480649Y-546098155D01*
X237815574Y-546321945D01*
X238100403Y-546606774D01*
X238324193Y-546941699D01*
X238356588Y-547019908D01*
X238478342Y-547313848D01*
X238556926Y-547708916D01*
X238556926Y-548111728D01*
X238478342Y-548506796D01*
X238427477Y-548629594D01*
X238324193Y-548878945D01*
X238100403Y-549213870D01*
X237815574Y-549498699D01*
X237480649Y-549722489D01*
X237326500Y-549786339D01*
X237108500Y-549876638D01*
X236713432Y-549955222D01*
X236310620Y-549955222D01*
X235915552Y-549876638D01*
X235697552Y-549786339D01*
X235543403Y-549722489D01*
X235208478Y-549498699D01*
X234923649Y-549213870D01*
X234699859Y-548878945D01*
X234596575Y-548629594D01*
X234545710Y-548506796D01*
X234467126Y-548111728D01*
X234467126Y-547708916D01*
X234545710Y-547313848D01*
X234667464Y-547019908D01*
X234699859Y-546941699D01*
X234923649Y-546606774D01*
X235208478Y-546321945D01*
X235543403Y-546098155D01*
X235697552Y-546034305D01*
X235915552Y-545944006D01*
X236310620Y-545865422D01*
X236713432Y-545865422D01*
X237108500Y-545944006D01*
X237108500Y-545944006D01*
G37*
G36*
X231702130Y-547019907D02*
G01*
X231870652Y-547089711D01*
X232022317Y-547191050D01*
X232151298Y-547320031D01*
X232252637Y-547471696D01*
X232322441Y-547640218D01*
X232358026Y-547819119D01*
X232358026Y-548001525D01*
X232322441Y-548180426D01*
X232252637Y-548348948D01*
X232151298Y-548500613D01*
X232022317Y-548629594D01*
X231870652Y-548730933D01*
X231702130Y-548800737D01*
X231523229Y-548836322D01*
X231340823Y-548836322D01*
X231161922Y-548800737D01*
X230993400Y-548730933D01*
X230841735Y-548629594D01*
X230712754Y-548500613D01*
X230611415Y-548348948D01*
X230541611Y-548180426D01*
X230506026Y-548001525D01*
X230506026Y-547819119D01*
X230541611Y-547640218D01*
X230611415Y-547471696D01*
X230712754Y-547320031D01*
X230841735Y-547191050D01*
X230993400Y-547089711D01*
X231161922Y-547019907D01*
X231340823Y-546984322D01*
X231523229Y-546984322D01*
X231702130Y-547019907D01*
X231702130Y-547019907D01*
G37*
G36*
X241862130Y-547019907D02*
G01*
X242030652Y-547089711D01*
X242182317Y-547191050D01*
X242311298Y-547320031D01*
X242412637Y-547471696D01*
X242482441Y-547640218D01*
X242518026Y-547819119D01*
X242518026Y-548001525D01*
X242482441Y-548180426D01*
X242412637Y-548348948D01*
X242311298Y-548500613D01*
X242182317Y-548629594D01*
X242030652Y-548730933D01*
X241862130Y-548800737D01*
X241683229Y-548836322D01*
X241500823Y-548836322D01*
X241321922Y-548800737D01*
X241153400Y-548730933D01*
X241001735Y-548629594D01*
X240872754Y-548500613D01*
X240771415Y-548348948D01*
X240701611Y-548180426D01*
X240666026Y-548001525D01*
X240666026Y-547819119D01*
X240701611Y-547640218D01*
X240771415Y-547471696D01*
X240872754Y-547320031D01*
X241001735Y-547191050D01*
X241153400Y-547089711D01*
X241321922Y-547019907D01*
X241500823Y-546984322D01*
X241683229Y-546984322D01*
X241862130Y-547019907D01*
X241862130Y-547019907D01*
G37*
G36*
X232940251Y-543836322D02*
G01*
X233154436Y-543878926D01*
X233436700Y-543995843D01*
X233690731Y-544165581D01*
X233906767Y-544381617D01*
X234076505Y-544635648D01*
X234177281Y-544878944D01*
X234193422Y-544917913D01*
X234252292Y-545213869D01*
X234253026Y-545217562D01*
X234253026Y-545523082D01*
X234193422Y-545822732D01*
X234076505Y-546104996D01*
X233906767Y-546359027D01*
X233690731Y-546575063D01*
X233436700Y-546744801D01*
X233154436Y-546861718D01*
X233004611Y-546891520D01*
X232854787Y-546921322D01*
X232549265Y-546921322D01*
X232399441Y-546891520D01*
X232249616Y-546861718D01*
X231967352Y-546744801D01*
X231713321Y-546575063D01*
X231497285Y-546359027D01*
X231327547Y-546104996D01*
X231210630Y-545822732D01*
X231151026Y-545523082D01*
X231151026Y-545217562D01*
X231151761Y-545213869D01*
X231210630Y-544917913D01*
X231226771Y-544878944D01*
X231327547Y-544635648D01*
X231497285Y-544381617D01*
X231713321Y-544165581D01*
X231967352Y-543995843D01*
X232249616Y-543878926D01*
X232463801Y-543836322D01*
X232549265Y-543819322D01*
X232854787Y-543819322D01*
X232940251Y-543836322D01*
X232940251Y-543836322D01*
G37*
G36*
X256158498Y-541944006D02*
G01*
X256341739Y-542019907D01*
X256530647Y-542098155D01*
X256865572Y-542321945D01*
X257150401Y-542606774D01*
X257374191Y-542941699D01*
X257406586Y-543019908D01*
X257528340Y-543313848D01*
X257606924Y-543708916D01*
X257606924Y-544111728D01*
X257528340Y-544506796D01*
X257474967Y-544635650D01*
X257374191Y-544878945D01*
X257150401Y-545213870D01*
X256865572Y-545498699D01*
X256530647Y-545722489D01*
X256376498Y-545786339D01*
X256158498Y-545876638D01*
X255763430Y-545955222D01*
X255360618Y-545955222D01*
X254965550Y-545876638D01*
X254747550Y-545786339D01*
X254593401Y-545722489D01*
X254258476Y-545498699D01*
X253973647Y-545213870D01*
X253749857Y-544878945D01*
X253649081Y-544635650D01*
X253595708Y-544506796D01*
X253517124Y-544111728D01*
X253517124Y-543708916D01*
X253595708Y-543313848D01*
X253717462Y-543019908D01*
X253749857Y-542941699D01*
X253973647Y-542606774D01*
X254258476Y-542321945D01*
X254593401Y-542098155D01*
X254782309Y-542019907D01*
X254965550Y-541944006D01*
X255360618Y-541865422D01*
X255763430Y-541865422D01*
X256158498Y-541944006D01*
X256158498Y-541944006D01*
G37*
G36*
X218058499Y-540944006D02*
G01*
X218276499Y-541034305D01*
X218430648Y-541098155D01*
X218765573Y-541321945D01*
X219050402Y-541606774D01*
X219274192Y-541941699D01*
X219306587Y-542019908D01*
X219428341Y-542313848D01*
X219506925Y-542708916D01*
X219506925Y-543111728D01*
X219428341Y-543506796D01*
X219373075Y-543640219D01*
X219274192Y-543878945D01*
X219050402Y-544213870D01*
X218765573Y-544498699D01*
X218430648Y-544722489D01*
X218276499Y-544786339D01*
X218058499Y-544876638D01*
X217663431Y-544955222D01*
X217260619Y-544955222D01*
X216865551Y-544876638D01*
X216647551Y-544786339D01*
X216493402Y-544722489D01*
X216158477Y-544498699D01*
X215873648Y-544213870D01*
X215649858Y-543878945D01*
X215550975Y-543640219D01*
X215495709Y-543506796D01*
X215417125Y-543111728D01*
X215417125Y-542708916D01*
X215495709Y-542313848D01*
X215617463Y-542019908D01*
X215649858Y-541941699D01*
X215873648Y-541606774D01*
X216158477Y-541321945D01*
X216493402Y-541098155D01*
X216647551Y-541034305D01*
X216865551Y-540944006D01*
X217260619Y-540865422D01*
X217663431Y-540865422D01*
X218058499Y-540944006D01*
X218058499Y-540944006D01*
G37*
G36*
X260912128Y-543019907D02*
G01*
X261080650Y-543089711D01*
X261232315Y-543191050D01*
X261361296Y-543320031D01*
X261462635Y-543471696D01*
X261532439Y-543640218D01*
X261568024Y-543819119D01*
X261568024Y-544001525D01*
X261532439Y-544180426D01*
X261462635Y-544348948D01*
X261361296Y-544500613D01*
X261232315Y-544629594D01*
X261080650Y-544730933D01*
X260912128Y-544800737D01*
X260733227Y-544836322D01*
X260550821Y-544836322D01*
X260371920Y-544800737D01*
X260203398Y-544730933D01*
X260051733Y-544629594D01*
X259922752Y-544500613D01*
X259821413Y-544348948D01*
X259751609Y-544180426D01*
X259716024Y-544001525D01*
X259716024Y-543819119D01*
X259751609Y-543640218D01*
X259821413Y-543471696D01*
X259922752Y-543320031D01*
X260051733Y-543191050D01*
X260203398Y-543089711D01*
X260371920Y-543019907D01*
X260550821Y-542984322D01*
X260733227Y-542984322D01*
X260912128Y-543019907D01*
X260912128Y-543019907D01*
G37*
G36*
X250752128Y-543019907D02*
G01*
X250920650Y-543089711D01*
X251072315Y-543191050D01*
X251201296Y-543320031D01*
X251302635Y-543471696D01*
X251372439Y-543640218D01*
X251408024Y-543819119D01*
X251408024Y-544001525D01*
X251372439Y-544180426D01*
X251302635Y-544348948D01*
X251201296Y-544500613D01*
X251072315Y-544629594D01*
X250920650Y-544730933D01*
X250752128Y-544800737D01*
X250573227Y-544836322D01*
X250390821Y-544836322D01*
X250211920Y-544800737D01*
X250043398Y-544730933D01*
X249891733Y-544629594D01*
X249762752Y-544500613D01*
X249661413Y-544348948D01*
X249591609Y-544180426D01*
X249556024Y-544001525D01*
X249556024Y-543819119D01*
X249591609Y-543640218D01*
X249661413Y-543471696D01*
X249762752Y-543320031D01*
X249891733Y-543191050D01*
X250043398Y-543089711D01*
X250211920Y-543019907D01*
X250390821Y-542984322D01*
X250573227Y-542984322D01*
X250752128Y-543019907D01*
X250752128Y-543019907D01*
G37*
G36*
X239354611Y-541309124D02*
G01*
X239504436Y-541338926D01*
X239786700Y-541455843D01*
X240040731Y-541625581D01*
X240256767Y-541841617D01*
X240426505Y-542095648D01*
X240543422Y-542377912D01*
X240543422Y-542377913D01*
X240603026Y-542677561D01*
X240603026Y-542983083D01*
X240595701Y-543019907D01*
X240543422Y-543282732D01*
X240426505Y-543564996D01*
X240256767Y-543819027D01*
X240040731Y-544035063D01*
X239786700Y-544204801D01*
X239504436Y-544321718D01*
X239367546Y-544348947D01*
X239204787Y-544381322D01*
X238899265Y-544381322D01*
X238736506Y-544348947D01*
X238599616Y-544321718D01*
X238317352Y-544204801D01*
X238063321Y-544035063D01*
X237847285Y-543819027D01*
X237677547Y-543564996D01*
X237560630Y-543282732D01*
X237508351Y-543019907D01*
X237501026Y-542983083D01*
X237501026Y-542677561D01*
X237560630Y-542377913D01*
X237560630Y-542377912D01*
X237677547Y-542095648D01*
X237847285Y-541841617D01*
X238063321Y-541625581D01*
X238317352Y-541455843D01*
X238599616Y-541338926D01*
X238749441Y-541309124D01*
X238899265Y-541279322D01*
X239204787Y-541279322D01*
X239354611Y-541309124D01*
X239354611Y-541309124D01*
G37*
G36*
X212652129Y-542019907D02*
G01*
X212820651Y-542089711D01*
X212972316Y-542191050D01*
X213101297Y-542320031D01*
X213202636Y-542471696D01*
X213272440Y-542640218D01*
X213308025Y-542819119D01*
X213308025Y-543001525D01*
X213272440Y-543180426D01*
X213202636Y-543348948D01*
X213101297Y-543500613D01*
X212972316Y-543629594D01*
X212820651Y-543730933D01*
X212652129Y-543800737D01*
X212473228Y-543836322D01*
X212290822Y-543836322D01*
X212111921Y-543800737D01*
X211943399Y-543730933D01*
X211791734Y-543629594D01*
X211662753Y-543500613D01*
X211561414Y-543348948D01*
X211491610Y-543180426D01*
X211456025Y-543001525D01*
X211456025Y-542819119D01*
X211491610Y-542640218D01*
X211561414Y-542471696D01*
X211662753Y-542320031D01*
X211791734Y-542191050D01*
X211943399Y-542089711D01*
X212111921Y-542019907D01*
X212290822Y-541984322D01*
X212473228Y-541984322D01*
X212652129Y-542019907D01*
X212652129Y-542019907D01*
G37*
G36*
X222812129Y-542019907D02*
G01*
X222980651Y-542089711D01*
X223132316Y-542191050D01*
X223261297Y-542320031D01*
X223362636Y-542471696D01*
X223432440Y-542640218D01*
X223468025Y-542819119D01*
X223468025Y-543001525D01*
X223432440Y-543180426D01*
X223362636Y-543348948D01*
X223261297Y-543500613D01*
X223132316Y-543629594D01*
X222980651Y-543730933D01*
X222812129Y-543800737D01*
X222633228Y-543836322D01*
X222450822Y-543836322D01*
X222271921Y-543800737D01*
X222103399Y-543730933D01*
X221951734Y-543629594D01*
X221822753Y-543500613D01*
X221721414Y-543348948D01*
X221651610Y-543180426D01*
X221616025Y-543001525D01*
X221616025Y-542819119D01*
X221651610Y-542640218D01*
X221721414Y-542471696D01*
X221822753Y-542320031D01*
X221951734Y-542191050D01*
X222103399Y-542089711D01*
X222271921Y-542019907D01*
X222450822Y-541984322D01*
X222633228Y-541984322D01*
X222812129Y-542019907D01*
X222812129Y-542019907D01*
G37*
G36*
X252054609Y-539849124D02*
G01*
X252204434Y-539878926D01*
X252486698Y-539995843D01*
X252740729Y-540165581D01*
X252956765Y-540381617D01*
X253126503Y-540635648D01*
X253243420Y-540917912D01*
X253273222Y-541067737D01*
X253303024Y-541217561D01*
X253303024Y-541523083D01*
X253282636Y-541625581D01*
X253243420Y-541822732D01*
X253126503Y-542104996D01*
X252956765Y-542359027D01*
X252740729Y-542575063D01*
X252486698Y-542744801D01*
X252204434Y-542861718D01*
X252054609Y-542891520D01*
X251904785Y-542921322D01*
X251599263Y-542921322D01*
X251449439Y-542891520D01*
X251299614Y-542861718D01*
X251017350Y-542744801D01*
X250763319Y-542575063D01*
X250547283Y-542359027D01*
X250377545Y-542104996D01*
X250260628Y-541822732D01*
X250221412Y-541625581D01*
X250201024Y-541523083D01*
X250201024Y-541217561D01*
X250230826Y-541067737D01*
X250260628Y-540917912D01*
X250377545Y-540635648D01*
X250547283Y-540381617D01*
X250763319Y-540165581D01*
X251017350Y-539995843D01*
X251299614Y-539878926D01*
X251449439Y-539849124D01*
X251599263Y-539819322D01*
X251904785Y-539819322D01*
X252054609Y-539849124D01*
X252054609Y-539849124D01*
G37*
G36*
X213890255Y-538836323D02*
G01*
X214104435Y-538878926D01*
X214386699Y-538995843D01*
X214640730Y-539165581D01*
X214856766Y-539381617D01*
X215026504Y-539635648D01*
X215143421Y-539917912D01*
X215203025Y-540217562D01*
X215203025Y-540523082D01*
X215143421Y-540822732D01*
X215026504Y-541104996D01*
X214856766Y-541359027D01*
X214640730Y-541575063D01*
X214386699Y-541744801D01*
X214104435Y-541861718D01*
X213954610Y-541891520D01*
X213804786Y-541921322D01*
X213499264Y-541921322D01*
X213349440Y-541891520D01*
X213199615Y-541861718D01*
X212917351Y-541744801D01*
X212663320Y-541575063D01*
X212447284Y-541359027D01*
X212277546Y-541104996D01*
X212160629Y-540822732D01*
X212101025Y-540523082D01*
X212101025Y-540217562D01*
X212160629Y-539917912D01*
X212277546Y-539635648D01*
X212447284Y-539381617D01*
X212663320Y-539165581D01*
X212917351Y-538995843D01*
X213199615Y-538878926D01*
X213413795Y-538836323D01*
X213499264Y-538819322D01*
X213804786Y-538819322D01*
X213890255Y-538836323D01*
X213890255Y-538836323D01*
G37*
G36*
X258404609Y-537309124D02*
G01*
X258554434Y-537338926D01*
X258836698Y-537455843D01*
X259090729Y-537625581D01*
X259306765Y-537841617D01*
X259476503Y-538095648D01*
X259593420Y-538377912D01*
X259653024Y-538677562D01*
X259653024Y-538983082D01*
X259593420Y-539282732D01*
X259476503Y-539564996D01*
X259306765Y-539819027D01*
X259090729Y-540035063D01*
X258836698Y-540204801D01*
X258554434Y-540321718D01*
X258404609Y-540351520D01*
X258254785Y-540381322D01*
X257949263Y-540381322D01*
X257799439Y-540351520D01*
X257649614Y-540321718D01*
X257367350Y-540204801D01*
X257113319Y-540035063D01*
X256897283Y-539819027D01*
X256727545Y-539564996D01*
X256610628Y-539282732D01*
X256551024Y-538983082D01*
X256551024Y-538677562D01*
X256610628Y-538377912D01*
X256727545Y-538095648D01*
X256897283Y-537841617D01*
X257113319Y-537625581D01*
X257367350Y-537455843D01*
X257649614Y-537338926D01*
X257799439Y-537309124D01*
X257949263Y-537279322D01*
X258254785Y-537279322D01*
X258404609Y-537309124D01*
X258404609Y-537309124D01*
G37*
G36*
X199008499Y-535944007D02*
G01*
X199226499Y-536034306D01*
X199380648Y-536098156D01*
X199715573Y-536321946D01*
X200000402Y-536606775D01*
X200224192Y-536941700D01*
X200256587Y-537019909D01*
X200378341Y-537313849D01*
X200456925Y-537708917D01*
X200456925Y-538111729D01*
X200378341Y-538506797D01*
X200327476Y-538629595D01*
X200224192Y-538878946D01*
X200000402Y-539213871D01*
X199715573Y-539498700D01*
X199380648Y-539722490D01*
X199226499Y-539786340D01*
X199008499Y-539876639D01*
X198613431Y-539955223D01*
X198210619Y-539955223D01*
X197815551Y-539876639D01*
X197597551Y-539786340D01*
X197443402Y-539722490D01*
X197108477Y-539498700D01*
X196823648Y-539213871D01*
X196599858Y-538878946D01*
X196496574Y-538629595D01*
X196445709Y-538506797D01*
X196367125Y-538111729D01*
X196367125Y-537708917D01*
X196445709Y-537313849D01*
X196567463Y-537019909D01*
X196599858Y-536941700D01*
X196823648Y-536606775D01*
X197108477Y-536321946D01*
X197443402Y-536098156D01*
X197597551Y-536034306D01*
X197815551Y-535944007D01*
X198210619Y-535865423D01*
X198613431Y-535865423D01*
X199008499Y-535944007D01*
X199008499Y-535944007D01*
G37*
G36*
X220304610Y-536309124D02*
G01*
X220454435Y-536338926D01*
X220736699Y-536455843D01*
X220990730Y-536625581D01*
X221206766Y-536841617D01*
X221376504Y-537095648D01*
X221493421Y-537377912D01*
X221553025Y-537677562D01*
X221553025Y-537983082D01*
X221493421Y-538282732D01*
X221376504Y-538564996D01*
X221206766Y-538819027D01*
X220990730Y-539035063D01*
X220736699Y-539204801D01*
X220454435Y-539321718D01*
X220304610Y-539351520D01*
X220154786Y-539381322D01*
X219849264Y-539381322D01*
X219699440Y-539351520D01*
X219549615Y-539321718D01*
X219267351Y-539204801D01*
X219013320Y-539035063D01*
X218797284Y-538819027D01*
X218627546Y-538564996D01*
X218510629Y-538282732D01*
X218451025Y-537983082D01*
X218451025Y-537677562D01*
X218510629Y-537377912D01*
X218627546Y-537095648D01*
X218797284Y-536841617D01*
X219013320Y-536625581D01*
X219267351Y-536455843D01*
X219549615Y-536338926D01*
X219699440Y-536309124D01*
X219849264Y-536279322D01*
X220154786Y-536279322D01*
X220304610Y-536309124D01*
X220304610Y-536309124D01*
G37*
G36*
X203762129Y-537019908D02*
G01*
X203930651Y-537089712D01*
X204082316Y-537191051D01*
X204211297Y-537320032D01*
X204312636Y-537471697D01*
X204382440Y-537640219D01*
X204418025Y-537819120D01*
X204418025Y-538001526D01*
X204382440Y-538180427D01*
X204312636Y-538348949D01*
X204211297Y-538500614D01*
X204082316Y-538629595D01*
X203930651Y-538730934D01*
X203762129Y-538800738D01*
X203583228Y-538836323D01*
X203400822Y-538836323D01*
X203221921Y-538800738D01*
X203053399Y-538730934D01*
X202901734Y-538629595D01*
X202772753Y-538500614D01*
X202671414Y-538348949D01*
X202601610Y-538180427D01*
X202566025Y-538001526D01*
X202566025Y-537819120D01*
X202601610Y-537640219D01*
X202671414Y-537471697D01*
X202772753Y-537320032D01*
X202901734Y-537191051D01*
X203053399Y-537089712D01*
X203221921Y-537019908D01*
X203400822Y-536984323D01*
X203583228Y-536984323D01*
X203762129Y-537019908D01*
X203762129Y-537019908D01*
G37*
G36*
X193602129Y-537019908D02*
G01*
X193770651Y-537089712D01*
X193922316Y-537191051D01*
X194051297Y-537320032D01*
X194152636Y-537471697D01*
X194222440Y-537640219D01*
X194258025Y-537819120D01*
X194258025Y-538001526D01*
X194222440Y-538180427D01*
X194152636Y-538348949D01*
X194051297Y-538500614D01*
X193922316Y-538629595D01*
X193770651Y-538730934D01*
X193602129Y-538800738D01*
X193423228Y-538836323D01*
X193240822Y-538836323D01*
X193061921Y-538800738D01*
X192893399Y-538730934D01*
X192741734Y-538629595D01*
X192612753Y-538500614D01*
X192511414Y-538348949D01*
X192441610Y-538180427D01*
X192406025Y-538001526D01*
X192406025Y-537819120D01*
X192441610Y-537640219D01*
X192511414Y-537471697D01*
X192612753Y-537320032D01*
X192741734Y-537191051D01*
X192893399Y-537089712D01*
X193061921Y-537019908D01*
X193240822Y-536984323D01*
X193423228Y-536984323D01*
X193602129Y-537019908D01*
X193602129Y-537019908D01*
G37*
G36*
X176349454Y-536447529D02*
G01*
X176415639Y-536454048D01*
X176585478Y-536505568D01*
X176742003Y-536589233D01*
X176763378Y-536606775D01*
X176879198Y-536701825D01*
X176962460Y-536803282D01*
X176991790Y-536839020D01*
X177075455Y-536995545D01*
X177126975Y-537165384D01*
X177144371Y-537342011D01*
X177126975Y-537518638D01*
X177075455Y-537688477D01*
X176991790Y-537845002D01*
X176962460Y-537880740D01*
X176879198Y-537982197D01*
X176777741Y-538065459D01*
X176742003Y-538094789D01*
X176585478Y-538178454D01*
X176415639Y-538229974D01*
X176349455Y-538236492D01*
X176283272Y-538243011D01*
X176194752Y-538243011D01*
X176128569Y-538236492D01*
X176062385Y-538229974D01*
X175892546Y-538178454D01*
X175736021Y-538094789D01*
X175700283Y-538065459D01*
X175598826Y-537982197D01*
X175515564Y-537880740D01*
X175486234Y-537845002D01*
X175402569Y-537688477D01*
X175351049Y-537518638D01*
X175333653Y-537342011D01*
X175351049Y-537165384D01*
X175402569Y-536995545D01*
X175486234Y-536839020D01*
X175515564Y-536803282D01*
X175598826Y-536701825D01*
X175714646Y-536606775D01*
X175736021Y-536589233D01*
X175892546Y-536505568D01*
X176062385Y-536454048D01*
X176128570Y-536447529D01*
X176194752Y-536441011D01*
X176283272Y-536441011D01*
X176349454Y-536447529D01*
X176349454Y-536447529D01*
G37*
G36*
X181429454Y-536447529D02*
G01*
X181495639Y-536454048D01*
X181665478Y-536505568D01*
X181822003Y-536589233D01*
X181843378Y-536606775D01*
X181959198Y-536701825D01*
X182042460Y-536803282D01*
X182071790Y-536839020D01*
X182155455Y-536995545D01*
X182206975Y-537165384D01*
X182224371Y-537342011D01*
X182206975Y-537518638D01*
X182155455Y-537688477D01*
X182071790Y-537845002D01*
X182042460Y-537880740D01*
X181959198Y-537982197D01*
X181857741Y-538065459D01*
X181822003Y-538094789D01*
X181665478Y-538178454D01*
X181495639Y-538229974D01*
X181429455Y-538236492D01*
X181363272Y-538243011D01*
X181274752Y-538243011D01*
X181208569Y-538236492D01*
X181142385Y-538229974D01*
X180972546Y-538178454D01*
X180816021Y-538094789D01*
X180780283Y-538065459D01*
X180678826Y-537982197D01*
X180595564Y-537880740D01*
X180566234Y-537845002D01*
X180482569Y-537688477D01*
X180431049Y-537518638D01*
X180413653Y-537342011D01*
X180431049Y-537165384D01*
X180482569Y-536995545D01*
X180566234Y-536839020D01*
X180595564Y-536803282D01*
X180678826Y-536701825D01*
X180794646Y-536606775D01*
X180816021Y-536589233D01*
X180972546Y-536505568D01*
X181142385Y-536454048D01*
X181208570Y-536447529D01*
X181274752Y-536441011D01*
X181363272Y-536441011D01*
X181429454Y-536447529D01*
X181429454Y-536447529D01*
G37*
G36*
X184760012Y-538243011D02*
G01*
X182958012Y-538243011D01*
X182958012Y-536441011D01*
X184760012Y-536441011D01*
X184760012Y-538243011D01*
X184760012Y-538243011D01*
G37*
G36*
X178889454Y-536447529D02*
G01*
X178955639Y-536454048D01*
X179125478Y-536505568D01*
X179282003Y-536589233D01*
X179303378Y-536606775D01*
X179419198Y-536701825D01*
X179502460Y-536803282D01*
X179531790Y-536839020D01*
X179615455Y-536995545D01*
X179666975Y-537165384D01*
X179684371Y-537342011D01*
X179666975Y-537518638D01*
X179615455Y-537688477D01*
X179531790Y-537845002D01*
X179502460Y-537880740D01*
X179419198Y-537982197D01*
X179317741Y-538065459D01*
X179282003Y-538094789D01*
X179125478Y-538178454D01*
X178955639Y-538229974D01*
X178889455Y-538236492D01*
X178823272Y-538243011D01*
X178734752Y-538243011D01*
X178668569Y-538236492D01*
X178602385Y-538229974D01*
X178432546Y-538178454D01*
X178276021Y-538094789D01*
X178240283Y-538065459D01*
X178138826Y-537982197D01*
X178055564Y-537880740D01*
X178026234Y-537845002D01*
X177942569Y-537688477D01*
X177891049Y-537518638D01*
X177873653Y-537342011D01*
X177891049Y-537165384D01*
X177942569Y-536995545D01*
X178026234Y-536839020D01*
X178055564Y-536803282D01*
X178138826Y-536701825D01*
X178254646Y-536606775D01*
X178276021Y-536589233D01*
X178432546Y-536505568D01*
X178602385Y-536454048D01*
X178668570Y-536447529D01*
X178734752Y-536441011D01*
X178823272Y-536441011D01*
X178889454Y-536447529D01*
X178889454Y-536447529D01*
G37*
G36*
X194904610Y-533849125D02*
G01*
X195054435Y-533878927D01*
X195336699Y-533995844D01*
X195590730Y-534165582D01*
X195806766Y-534381618D01*
X195976504Y-534635649D01*
X196093421Y-534917913D01*
X196153025Y-535217563D01*
X196153025Y-535523083D01*
X196093421Y-535822733D01*
X195976504Y-536104997D01*
X195806766Y-536359028D01*
X195590730Y-536575064D01*
X195336699Y-536744802D01*
X195054435Y-536861719D01*
X194904610Y-536891521D01*
X194754786Y-536921323D01*
X194449264Y-536921323D01*
X194299440Y-536891521D01*
X194149615Y-536861719D01*
X193867351Y-536744802D01*
X193613320Y-536575064D01*
X193397284Y-536359028D01*
X193227546Y-536104997D01*
X193110629Y-535822733D01*
X193051025Y-535523083D01*
X193051025Y-535217563D01*
X193110629Y-534917913D01*
X193227546Y-534635649D01*
X193397284Y-534381618D01*
X193613320Y-534165582D01*
X193867351Y-533995844D01*
X194149615Y-533878927D01*
X194299440Y-533849125D01*
X194449264Y-533819323D01*
X194754786Y-533819323D01*
X194904610Y-533849125D01*
X194904610Y-533849125D01*
G37*
G36*
X201254610Y-531309125D02*
G01*
X201404435Y-531338927D01*
X201686699Y-531455844D01*
X201940730Y-531625582D01*
X202156766Y-531841618D01*
X202326504Y-532095649D01*
X202443421Y-532377913D01*
X202503025Y-532677563D01*
X202503025Y-532983083D01*
X202443421Y-533282733D01*
X202326504Y-533564997D01*
X202156766Y-533819028D01*
X201940730Y-534035064D01*
X201686699Y-534204802D01*
X201404435Y-534321719D01*
X201254610Y-534351521D01*
X201104786Y-534381323D01*
X200799264Y-534381323D01*
X200649440Y-534351521D01*
X200499615Y-534321719D01*
X200217351Y-534204802D01*
X199963320Y-534035064D01*
X199747284Y-533819028D01*
X199577546Y-533564997D01*
X199460629Y-533282733D01*
X199401025Y-532983083D01*
X199401025Y-532677563D01*
X199460629Y-532377913D01*
X199577546Y-532095649D01*
X199747284Y-531841618D01*
X199963320Y-531625582D01*
X200217351Y-531455844D01*
X200499615Y-531338927D01*
X200649440Y-531309125D01*
X200799264Y-531279323D01*
X201104786Y-531279323D01*
X201254610Y-531309125D01*
X201254610Y-531309125D01*
G37*
G36*
X237108499Y-526894006D02*
G01*
X237326499Y-526984305D01*
X237480648Y-527048155D01*
X237815573Y-527271945D01*
X238100402Y-527556774D01*
X238324192Y-527891699D01*
X238356587Y-527969908D01*
X238478341Y-528263848D01*
X238556925Y-528658916D01*
X238556925Y-529061728D01*
X238478341Y-529456796D01*
X238427476Y-529579594D01*
X238324192Y-529828945D01*
X238100402Y-530163870D01*
X237815573Y-530448699D01*
X237480648Y-530672489D01*
X237326499Y-530736339D01*
X237108499Y-530826638D01*
X236713431Y-530905222D01*
X236310619Y-530905222D01*
X235915551Y-530826638D01*
X235697551Y-530736339D01*
X235543402Y-530672489D01*
X235208477Y-530448699D01*
X234923648Y-530163870D01*
X234699858Y-529828945D01*
X234596574Y-529579594D01*
X234545709Y-529456796D01*
X234467125Y-529061728D01*
X234467125Y-528658916D01*
X234545709Y-528263848D01*
X234667463Y-527969908D01*
X234699858Y-527891699D01*
X234923648Y-527556774D01*
X235208477Y-527271945D01*
X235543402Y-527048155D01*
X235697551Y-526984305D01*
X235915551Y-526894006D01*
X236310619Y-526815422D01*
X236713431Y-526815422D01*
X237108499Y-526894006D01*
X237108499Y-526894006D01*
G37*
G36*
X241862129Y-527969907D02*
G01*
X242030651Y-528039711D01*
X242182316Y-528141050D01*
X242311297Y-528270031D01*
X242412636Y-528421696D01*
X242482440Y-528590218D01*
X242518025Y-528769119D01*
X242518025Y-528951525D01*
X242482440Y-529130426D01*
X242412636Y-529298948D01*
X242311297Y-529450613D01*
X242182316Y-529579594D01*
X242030651Y-529680933D01*
X241862129Y-529750737D01*
X241683228Y-529786322D01*
X241500822Y-529786322D01*
X241321921Y-529750737D01*
X241153399Y-529680933D01*
X241001734Y-529579594D01*
X240872753Y-529450613D01*
X240771414Y-529298948D01*
X240701610Y-529130426D01*
X240666025Y-528951525D01*
X240666025Y-528769119D01*
X240701610Y-528590218D01*
X240771414Y-528421696D01*
X240872753Y-528270031D01*
X241001734Y-528141050D01*
X241153399Y-528039711D01*
X241321921Y-527969907D01*
X241500822Y-527934322D01*
X241683228Y-527934322D01*
X241862129Y-527969907D01*
X241862129Y-527969907D01*
G37*
G36*
X231702129Y-527969907D02*
G01*
X231870651Y-528039711D01*
X232022316Y-528141050D01*
X232151297Y-528270031D01*
X232252636Y-528421696D01*
X232322440Y-528590218D01*
X232358025Y-528769119D01*
X232358025Y-528951525D01*
X232322440Y-529130426D01*
X232252636Y-529298948D01*
X232151297Y-529450613D01*
X232022316Y-529579594D01*
X231870651Y-529680933D01*
X231702129Y-529750737D01*
X231523228Y-529786322D01*
X231340822Y-529786322D01*
X231161921Y-529750737D01*
X230993399Y-529680933D01*
X230841734Y-529579594D01*
X230712753Y-529450613D01*
X230611414Y-529298948D01*
X230541610Y-529130426D01*
X230506025Y-528951525D01*
X230506025Y-528769119D01*
X230541610Y-528590218D01*
X230611414Y-528421696D01*
X230712753Y-528270031D01*
X230841734Y-528141050D01*
X230993399Y-528039711D01*
X231161921Y-527969907D01*
X231340822Y-527934322D01*
X231523228Y-527934322D01*
X231702129Y-527969907D01*
X231702129Y-527969907D01*
G37*
G36*
X232940255Y-524786323D02*
G01*
X233154435Y-524828926D01*
X233436699Y-524945843D01*
X233690730Y-525115581D01*
X233906766Y-525331617D01*
X234076504Y-525585648D01*
X234193421Y-525867912D01*
X234223223Y-526017737D01*
X234252291Y-526163869D01*
X234253025Y-526167562D01*
X234253025Y-526473082D01*
X234193421Y-526772732D01*
X234076504Y-527054996D01*
X233906766Y-527309027D01*
X233690730Y-527525063D01*
X233436699Y-527694801D01*
X233154435Y-527811718D01*
X233004610Y-527841520D01*
X232854786Y-527871322D01*
X232549264Y-527871322D01*
X232399440Y-527841520D01*
X232249615Y-527811718D01*
X231967351Y-527694801D01*
X231713320Y-527525063D01*
X231497284Y-527309027D01*
X231327546Y-527054996D01*
X231210629Y-526772732D01*
X231151025Y-526473082D01*
X231151025Y-526167562D01*
X231151760Y-526163869D01*
X231180827Y-526017737D01*
X231210629Y-525867912D01*
X231327546Y-525585648D01*
X231497284Y-525331617D01*
X231713320Y-525115581D01*
X231967351Y-524945843D01*
X232249615Y-524828926D01*
X232463795Y-524786323D01*
X232549264Y-524769322D01*
X232854786Y-524769322D01*
X232940255Y-524786323D01*
X232940255Y-524786323D01*
G37*
G36*
X256158499Y-522894006D02*
G01*
X256341742Y-522969908D01*
X256530648Y-523048155D01*
X256865573Y-523271945D01*
X257150402Y-523556774D01*
X257374192Y-523891699D01*
X257406587Y-523969908D01*
X257528341Y-524263848D01*
X257606925Y-524658916D01*
X257606925Y-525061728D01*
X257528341Y-525456796D01*
X257474968Y-525585650D01*
X257374192Y-525828945D01*
X257150402Y-526163870D01*
X256865573Y-526448699D01*
X256530648Y-526672489D01*
X256376499Y-526736339D01*
X256158499Y-526826638D01*
X255763431Y-526905222D01*
X255360619Y-526905222D01*
X254965551Y-526826638D01*
X254747551Y-526736339D01*
X254593402Y-526672489D01*
X254258477Y-526448699D01*
X253973648Y-526163870D01*
X253749858Y-525828945D01*
X253649082Y-525585650D01*
X253595709Y-525456796D01*
X253517125Y-525061728D01*
X253517125Y-524658916D01*
X253595709Y-524263848D01*
X253717463Y-523969908D01*
X253749858Y-523891699D01*
X253973648Y-523556774D01*
X254258477Y-523271945D01*
X254593402Y-523048155D01*
X254782308Y-522969908D01*
X254965551Y-522894006D01*
X255360619Y-522815422D01*
X255763431Y-522815422D01*
X256158499Y-522894006D01*
X256158499Y-522894006D01*
G37*
G36*
X153859726Y-526781794D02*
G01*
X152057726Y-526781794D01*
X152057726Y-524979794D01*
X153859726Y-524979794D01*
X153859726Y-526781794D01*
X153859726Y-526781794D01*
G37*
G36*
X218058499Y-521894007D02*
G01*
X218276499Y-521984306D01*
X218430648Y-522048156D01*
X218765573Y-522271946D01*
X219050402Y-522556775D01*
X219274192Y-522891700D01*
X219306587Y-522969909D01*
X219428341Y-523263849D01*
X219506925Y-523658917D01*
X219506925Y-524061729D01*
X219428341Y-524456797D01*
X219344620Y-524658916D01*
X219274192Y-524828946D01*
X219050402Y-525163871D01*
X218765573Y-525448700D01*
X218430648Y-525672490D01*
X218276499Y-525736340D01*
X218058499Y-525826639D01*
X217663431Y-525905223D01*
X217260619Y-525905223D01*
X216865551Y-525826639D01*
X216647551Y-525736340D01*
X216493402Y-525672490D01*
X216158477Y-525448700D01*
X215873648Y-525163871D01*
X215649858Y-524828946D01*
X215579430Y-524658916D01*
X215495709Y-524456797D01*
X215417125Y-524061729D01*
X215417125Y-523658917D01*
X215495709Y-523263849D01*
X215617463Y-522969909D01*
X215649858Y-522891700D01*
X215873648Y-522556775D01*
X216158477Y-522271946D01*
X216493402Y-522048156D01*
X216647551Y-521984306D01*
X216865551Y-521894007D01*
X217260619Y-521815423D01*
X217663431Y-521815423D01*
X218058499Y-521894007D01*
X218058499Y-521894007D01*
G37*
G36*
X250752129Y-523969907D02*
G01*
X250920651Y-524039711D01*
X251072316Y-524141050D01*
X251201297Y-524270031D01*
X251302636Y-524421696D01*
X251372440Y-524590218D01*
X251408025Y-524769119D01*
X251408025Y-524951525D01*
X251372440Y-525130426D01*
X251302636Y-525298948D01*
X251201297Y-525450613D01*
X251072316Y-525579594D01*
X250920651Y-525680933D01*
X250752129Y-525750737D01*
X250573228Y-525786322D01*
X250390822Y-525786322D01*
X250211921Y-525750737D01*
X250043399Y-525680933D01*
X249891734Y-525579594D01*
X249762753Y-525450613D01*
X249661414Y-525298948D01*
X249591610Y-525130426D01*
X249556025Y-524951525D01*
X249556025Y-524769119D01*
X249591610Y-524590218D01*
X249661414Y-524421696D01*
X249762753Y-524270031D01*
X249891734Y-524141050D01*
X250043399Y-524039711D01*
X250211921Y-523969907D01*
X250390822Y-523934322D01*
X250573228Y-523934322D01*
X250752129Y-523969907D01*
X250752129Y-523969907D01*
G37*
G36*
X260912129Y-523969907D02*
G01*
X261080651Y-524039711D01*
X261232316Y-524141050D01*
X261361297Y-524270031D01*
X261462636Y-524421696D01*
X261532440Y-524590218D01*
X261568025Y-524769119D01*
X261568025Y-524951525D01*
X261532440Y-525130426D01*
X261462636Y-525298948D01*
X261361297Y-525450613D01*
X261232316Y-525579594D01*
X261080651Y-525680933D01*
X260912129Y-525750737D01*
X260733228Y-525786322D01*
X260550822Y-525786322D01*
X260371921Y-525750737D01*
X260203399Y-525680933D01*
X260051734Y-525579594D01*
X259922753Y-525450613D01*
X259821414Y-525298948D01*
X259751610Y-525130426D01*
X259716025Y-524951525D01*
X259716025Y-524769119D01*
X259751610Y-524590218D01*
X259821414Y-524421696D01*
X259922753Y-524270031D01*
X260051734Y-524141050D01*
X260203399Y-524039711D01*
X260371921Y-523969907D01*
X260550822Y-523934322D01*
X260733228Y-523934322D01*
X260912129Y-523969907D01*
X260912129Y-523969907D01*
G37*
G36*
X239354610Y-522259124D02*
G01*
X239504435Y-522288926D01*
X239786699Y-522405843D01*
X240040730Y-522575581D01*
X240256766Y-522791617D01*
X240426504Y-523045648D01*
X240543421Y-523327912D01*
X240543421Y-523327913D01*
X240603025Y-523627561D01*
X240603025Y-523933083D01*
X240599356Y-523951526D01*
X240543421Y-524232732D01*
X240426504Y-524514996D01*
X240256766Y-524769027D01*
X240040730Y-524985063D01*
X239786699Y-525154801D01*
X239504435Y-525271718D01*
X239367545Y-525298947D01*
X239204786Y-525331322D01*
X238899264Y-525331322D01*
X238736505Y-525298947D01*
X238599615Y-525271718D01*
X238317351Y-525154801D01*
X238063320Y-524985063D01*
X237847284Y-524769027D01*
X237677546Y-524514996D01*
X237560629Y-524232732D01*
X237504694Y-523951526D01*
X237501025Y-523933083D01*
X237501025Y-523627561D01*
X237560629Y-523327913D01*
X237560629Y-523327912D01*
X237677546Y-523045648D01*
X237847284Y-522791617D01*
X238063320Y-522575581D01*
X238317351Y-522405843D01*
X238599615Y-522288926D01*
X238749440Y-522259124D01*
X238899264Y-522229322D01*
X239204786Y-522229322D01*
X239354610Y-522259124D01*
X239354610Y-522259124D01*
G37*
G36*
X222812129Y-522969908D02*
G01*
X222980651Y-523039712D01*
X223132316Y-523141051D01*
X223261297Y-523270032D01*
X223362636Y-523421697D01*
X223432440Y-523590219D01*
X223468025Y-523769120D01*
X223468025Y-523951526D01*
X223432440Y-524130427D01*
X223362636Y-524298949D01*
X223261297Y-524450614D01*
X223132316Y-524579595D01*
X222980651Y-524680934D01*
X222812129Y-524750738D01*
X222633228Y-524786323D01*
X222450822Y-524786323D01*
X222271921Y-524750738D01*
X222103399Y-524680934D01*
X221951734Y-524579595D01*
X221822753Y-524450614D01*
X221721414Y-524298949D01*
X221651610Y-524130427D01*
X221616025Y-523951526D01*
X221616025Y-523769120D01*
X221651610Y-523590219D01*
X221721414Y-523421697D01*
X221822753Y-523270032D01*
X221951734Y-523141051D01*
X222103399Y-523039712D01*
X222271921Y-522969908D01*
X222450822Y-522934323D01*
X222633228Y-522934323D01*
X222812129Y-522969908D01*
X222812129Y-522969908D01*
G37*
G36*
X212652129Y-522969908D02*
G01*
X212820651Y-523039712D01*
X212972316Y-523141051D01*
X213101297Y-523270032D01*
X213202636Y-523421697D01*
X213272440Y-523590219D01*
X213308025Y-523769120D01*
X213308025Y-523951526D01*
X213272440Y-524130427D01*
X213202636Y-524298949D01*
X213101297Y-524450614D01*
X212972316Y-524579595D01*
X212820651Y-524680934D01*
X212652129Y-524750738D01*
X212473228Y-524786323D01*
X212290822Y-524786323D01*
X212111921Y-524750738D01*
X211943399Y-524680934D01*
X211791734Y-524579595D01*
X211662753Y-524450614D01*
X211561414Y-524298949D01*
X211491610Y-524130427D01*
X211456025Y-523951526D01*
X211456025Y-523769120D01*
X211491610Y-523590219D01*
X211561414Y-523421697D01*
X211662753Y-523270032D01*
X211791734Y-523141051D01*
X211943399Y-523039712D01*
X212111921Y-522969908D01*
X212290822Y-522934323D01*
X212473228Y-522934323D01*
X212652129Y-522969908D01*
X212652129Y-522969908D01*
G37*
G36*
X153069169Y-522446313D02*
G01*
X153135353Y-522452831D01*
X153305192Y-522504351D01*
X153461717Y-522588016D01*
X153497455Y-522617346D01*
X153598912Y-522700608D01*
X153673600Y-522791617D01*
X153711504Y-522837803D01*
X153795169Y-522994328D01*
X153846689Y-523164167D01*
X153864085Y-523340794D01*
X153846689Y-523517421D01*
X153795169Y-523687260D01*
X153711504Y-523843785D01*
X153688905Y-523871322D01*
X153598912Y-523980980D01*
X153500519Y-524061728D01*
X153461717Y-524093572D01*
X153305192Y-524177237D01*
X153135353Y-524228757D01*
X153069169Y-524235275D01*
X153002986Y-524241794D01*
X152914466Y-524241794D01*
X152848283Y-524235275D01*
X152782099Y-524228757D01*
X152612260Y-524177237D01*
X152455735Y-524093572D01*
X152416933Y-524061728D01*
X152318540Y-523980980D01*
X152228547Y-523871322D01*
X152205948Y-523843785D01*
X152122283Y-523687260D01*
X152070763Y-523517421D01*
X152053367Y-523340794D01*
X152070763Y-523164167D01*
X152122283Y-522994328D01*
X152205948Y-522837803D01*
X152243852Y-522791617D01*
X152318540Y-522700608D01*
X152419997Y-522617346D01*
X152455735Y-522588016D01*
X152612260Y-522504351D01*
X152782099Y-522452831D01*
X152848283Y-522446313D01*
X152914466Y-522439794D01*
X153002986Y-522439794D01*
X153069169Y-522446313D01*
X153069169Y-522446313D01*
G37*
G36*
X252054610Y-520799124D02*
G01*
X252204435Y-520828926D01*
X252486699Y-520945843D01*
X252740730Y-521115581D01*
X252956766Y-521331617D01*
X253126504Y-521585648D01*
X253243421Y-521867912D01*
X253248612Y-521894008D01*
X253303025Y-522167561D01*
X253303025Y-522473083D01*
X253286377Y-522556776D01*
X253243421Y-522772732D01*
X253126504Y-523054996D01*
X252956766Y-523309027D01*
X252740730Y-523525063D01*
X252486699Y-523694801D01*
X252204435Y-523811718D01*
X252054610Y-523841520D01*
X251904786Y-523871322D01*
X251599264Y-523871322D01*
X251449440Y-523841520D01*
X251299615Y-523811718D01*
X251017351Y-523694801D01*
X250763320Y-523525063D01*
X250547284Y-523309027D01*
X250377546Y-523054996D01*
X250260629Y-522772732D01*
X250217673Y-522556776D01*
X250201025Y-522473083D01*
X250201025Y-522167561D01*
X250255438Y-521894008D01*
X250260629Y-521867912D01*
X250377546Y-521585648D01*
X250547284Y-521331617D01*
X250763320Y-521115581D01*
X251017351Y-520945843D01*
X251299615Y-520828926D01*
X251449440Y-520799124D01*
X251599264Y-520769322D01*
X251904786Y-520769322D01*
X252054610Y-520799124D01*
X252054610Y-520799124D01*
G37*
G36*
X213890245Y-519786322D02*
G01*
X214104435Y-519828927D01*
X214386699Y-519945844D01*
X214640730Y-520115582D01*
X214856766Y-520331618D01*
X215026504Y-520585649D01*
X215126324Y-520826637D01*
X215143421Y-520867914D01*
X215203025Y-521167562D01*
X215203025Y-521473084D01*
X215180634Y-521585650D01*
X215143421Y-521772733D01*
X215026504Y-522054997D01*
X214856766Y-522309028D01*
X214640730Y-522525064D01*
X214386699Y-522694802D01*
X214104435Y-522811719D01*
X213954610Y-522841521D01*
X213804786Y-522871323D01*
X213499264Y-522871323D01*
X213349440Y-522841521D01*
X213199615Y-522811719D01*
X212917351Y-522694802D01*
X212663320Y-522525064D01*
X212447284Y-522309028D01*
X212277546Y-522054997D01*
X212160629Y-521772733D01*
X212123416Y-521585650D01*
X212101025Y-521473084D01*
X212101025Y-521167562D01*
X212160629Y-520867914D01*
X212177726Y-520826637D01*
X212277546Y-520585649D01*
X212447284Y-520331618D01*
X212663320Y-520115582D01*
X212917351Y-519945844D01*
X213199615Y-519828927D01*
X213413805Y-519786322D01*
X213499264Y-519769323D01*
X213804786Y-519769323D01*
X213890245Y-519786322D01*
X213890245Y-519786322D01*
G37*
G36*
X153069169Y-519906313D02*
G01*
X153135353Y-519912831D01*
X153305192Y-519964351D01*
X153461717Y-520048016D01*
X153497455Y-520077346D01*
X153598912Y-520160608D01*
X153682174Y-520262065D01*
X153711504Y-520297803D01*
X153795169Y-520454328D01*
X153846689Y-520624167D01*
X153864085Y-520800794D01*
X153846689Y-520977421D01*
X153795169Y-521147260D01*
X153711504Y-521303785D01*
X153688905Y-521331322D01*
X153598912Y-521440980D01*
X153497455Y-521524242D01*
X153461717Y-521553572D01*
X153305192Y-521637237D01*
X153135353Y-521688757D01*
X153069168Y-521695276D01*
X153002986Y-521701794D01*
X152914466Y-521701794D01*
X152848284Y-521695276D01*
X152782099Y-521688757D01*
X152612260Y-521637237D01*
X152455735Y-521553572D01*
X152419997Y-521524242D01*
X152318540Y-521440980D01*
X152228547Y-521331322D01*
X152205948Y-521303785D01*
X152122283Y-521147260D01*
X152070763Y-520977421D01*
X152053367Y-520800794D01*
X152070763Y-520624167D01*
X152122283Y-520454328D01*
X152205948Y-520297803D01*
X152235278Y-520262065D01*
X152318540Y-520160608D01*
X152419997Y-520077346D01*
X152455735Y-520048016D01*
X152612260Y-519964351D01*
X152782099Y-519912831D01*
X152848283Y-519906313D01*
X152914466Y-519899794D01*
X153002986Y-519899794D01*
X153069169Y-519906313D01*
X153069169Y-519906313D01*
G37*
G36*
X258350119Y-518248285D02*
G01*
X258554435Y-518288926D01*
X258836699Y-518405843D01*
X259090730Y-518575581D01*
X259306766Y-518791617D01*
X259476504Y-519045648D01*
X259593421Y-519327912D01*
X259617828Y-519450613D01*
X259653025Y-519627561D01*
X259653025Y-519933083D01*
X259646805Y-519964351D01*
X259593421Y-520232732D01*
X259476504Y-520514996D01*
X259306766Y-520769027D01*
X259090730Y-520985063D01*
X258836699Y-521154801D01*
X258554435Y-521271718D01*
X258404610Y-521301520D01*
X258254786Y-521331322D01*
X257949264Y-521331322D01*
X257799440Y-521301520D01*
X257649615Y-521271718D01*
X257367351Y-521154801D01*
X257113320Y-520985063D01*
X256897284Y-520769027D01*
X256727546Y-520514996D01*
X256610629Y-520232732D01*
X256557245Y-519964351D01*
X256551025Y-519933083D01*
X256551025Y-519627561D01*
X256586222Y-519450613D01*
X256610629Y-519327912D01*
X256727546Y-519045648D01*
X256897284Y-518791617D01*
X257113320Y-518575581D01*
X257367351Y-518405843D01*
X257649615Y-518288926D01*
X257853931Y-518248285D01*
X257949264Y-518229322D01*
X258254786Y-518229322D01*
X258350119Y-518248285D01*
X258350119Y-518248285D01*
G37*
G36*
X199008499Y-516894006D02*
G01*
X199226499Y-516984305D01*
X199380648Y-517048155D01*
X199715573Y-517271945D01*
X200000402Y-517556774D01*
X200224192Y-517891699D01*
X200269262Y-518000508D01*
X200378341Y-518263848D01*
X200456925Y-518658916D01*
X200456925Y-519061728D01*
X200378341Y-519456796D01*
X200327476Y-519579594D01*
X200224192Y-519828945D01*
X200000402Y-520163870D01*
X199715573Y-520448699D01*
X199380648Y-520672489D01*
X199226499Y-520736339D01*
X199008499Y-520826638D01*
X198613431Y-520905222D01*
X198210619Y-520905222D01*
X197815551Y-520826638D01*
X197597551Y-520736339D01*
X197443402Y-520672489D01*
X197108477Y-520448699D01*
X196823648Y-520163870D01*
X196599858Y-519828945D01*
X196496574Y-519579594D01*
X196445709Y-519456796D01*
X196367125Y-519061728D01*
X196367125Y-518658916D01*
X196445709Y-518263848D01*
X196554788Y-518000508D01*
X196599858Y-517891699D01*
X196823648Y-517556774D01*
X197108477Y-517271945D01*
X197443402Y-517048155D01*
X197597551Y-516984305D01*
X197815551Y-516894006D01*
X198210619Y-516815422D01*
X198613431Y-516815422D01*
X199008499Y-516894006D01*
X199008499Y-516894006D01*
G37*
G36*
X220304610Y-517259125D02*
G01*
X220454435Y-517288927D01*
X220736699Y-517405844D01*
X220990730Y-517575582D01*
X221206766Y-517791618D01*
X221376504Y-518045649D01*
X221493421Y-518327913D01*
X221512076Y-518421697D01*
X221553025Y-518627562D01*
X221553025Y-518933084D01*
X221530634Y-519045650D01*
X221493421Y-519232733D01*
X221376504Y-519514997D01*
X221206766Y-519769028D01*
X220990730Y-519985064D01*
X220736699Y-520154802D01*
X220454435Y-520271719D01*
X220304610Y-520301521D01*
X220154786Y-520331323D01*
X219849264Y-520331323D01*
X219699440Y-520301521D01*
X219549615Y-520271719D01*
X219267351Y-520154802D01*
X219013320Y-519985064D01*
X218797284Y-519769028D01*
X218627546Y-519514997D01*
X218510629Y-519232733D01*
X218473416Y-519045650D01*
X218451025Y-518933084D01*
X218451025Y-518627562D01*
X218491974Y-518421697D01*
X218510629Y-518327913D01*
X218627546Y-518045649D01*
X218797284Y-517791618D01*
X219013320Y-517575582D01*
X219267351Y-517405844D01*
X219549615Y-517288927D01*
X219699440Y-517259125D01*
X219849264Y-517229323D01*
X220154786Y-517229323D01*
X220304610Y-517259125D01*
X220304610Y-517259125D01*
G37*
G36*
X193602129Y-517969907D02*
G01*
X193770651Y-518039711D01*
X193922316Y-518141050D01*
X194051297Y-518270031D01*
X194152636Y-518421696D01*
X194222440Y-518590218D01*
X194258025Y-518769119D01*
X194258025Y-518951525D01*
X194222440Y-519130426D01*
X194152636Y-519298948D01*
X194051297Y-519450613D01*
X193922316Y-519579594D01*
X193770651Y-519680933D01*
X193602129Y-519750737D01*
X193423228Y-519786322D01*
X193240822Y-519786322D01*
X193061921Y-519750737D01*
X192893399Y-519680933D01*
X192741734Y-519579594D01*
X192612753Y-519450613D01*
X192511414Y-519298948D01*
X192441610Y-519130426D01*
X192406025Y-518951525D01*
X192406025Y-518769119D01*
X192441610Y-518590218D01*
X192511414Y-518421696D01*
X192612753Y-518270031D01*
X192741734Y-518141050D01*
X192893399Y-518039711D01*
X193061921Y-517969907D01*
X193240822Y-517934322D01*
X193423228Y-517934322D01*
X193602129Y-517969907D01*
X193602129Y-517969907D01*
G37*
G36*
X203762129Y-517969907D02*
G01*
X203930651Y-518039711D01*
X204082316Y-518141050D01*
X204211297Y-518270031D01*
X204312636Y-518421696D01*
X204382440Y-518590218D01*
X204418025Y-518769119D01*
X204418025Y-518951525D01*
X204382440Y-519130426D01*
X204312636Y-519298948D01*
X204211297Y-519450613D01*
X204082316Y-519579594D01*
X203930651Y-519680933D01*
X203762129Y-519750737D01*
X203583228Y-519786322D01*
X203400822Y-519786322D01*
X203221921Y-519750737D01*
X203053399Y-519680933D01*
X202901734Y-519579594D01*
X202772753Y-519450613D01*
X202671414Y-519298948D01*
X202601610Y-519130426D01*
X202566025Y-518951525D01*
X202566025Y-518769119D01*
X202601610Y-518590218D01*
X202671414Y-518421696D01*
X202772753Y-518270031D01*
X202901734Y-518141050D01*
X203053399Y-518039711D01*
X203221921Y-517969907D01*
X203400822Y-517934322D01*
X203583228Y-517934322D01*
X203762129Y-517969907D01*
X203762129Y-517969907D01*
G37*
G36*
X153069168Y-517366312D02*
G01*
X153135353Y-517372831D01*
X153305192Y-517424351D01*
X153461717Y-517508016D01*
X153496969Y-517536947D01*
X153598912Y-517620608D01*
X153682174Y-517722065D01*
X153711504Y-517757803D01*
X153711505Y-517757805D01*
X153783074Y-517891699D01*
X153795169Y-517914328D01*
X153846689Y-518084167D01*
X153864085Y-518260794D01*
X153846689Y-518437421D01*
X153795169Y-518607260D01*
X153711504Y-518763785D01*
X153707126Y-518769119D01*
X153598912Y-518900980D01*
X153497455Y-518984242D01*
X153461717Y-519013572D01*
X153305192Y-519097237D01*
X153135353Y-519148757D01*
X153069169Y-519155275D01*
X153002986Y-519161794D01*
X152914466Y-519161794D01*
X152848283Y-519155275D01*
X152782099Y-519148757D01*
X152612260Y-519097237D01*
X152455735Y-519013572D01*
X152419997Y-518984242D01*
X152318540Y-518900980D01*
X152210326Y-518769119D01*
X152205948Y-518763785D01*
X152122283Y-518607260D01*
X152070763Y-518437421D01*
X152053367Y-518260794D01*
X152070763Y-518084167D01*
X152122283Y-517914328D01*
X152134379Y-517891699D01*
X152205947Y-517757805D01*
X152205948Y-517757803D01*
X152235278Y-517722065D01*
X152318540Y-517620608D01*
X152420483Y-517536947D01*
X152455735Y-517508016D01*
X152612260Y-517424351D01*
X152782099Y-517372831D01*
X152848284Y-517366312D01*
X152914466Y-517359794D01*
X153002986Y-517359794D01*
X153069168Y-517366312D01*
X153069168Y-517366312D01*
G37*
G36*
X177613025Y-518261322D02*
G01*
X175811025Y-518261322D01*
X175811025Y-516459322D01*
X177613025Y-516459322D01*
X177613025Y-518261322D01*
X177613025Y-518261322D01*
G37*
G36*
X179362468Y-516465841D02*
G01*
X179428652Y-516472359D01*
X179598491Y-516523879D01*
X179755016Y-516607544D01*
X179790754Y-516636874D01*
X179892211Y-516720136D01*
X179970409Y-516815422D01*
X180004803Y-516857331D01*
X180088468Y-517013856D01*
X180139988Y-517183695D01*
X180157384Y-517360322D01*
X180139988Y-517536949D01*
X180088468Y-517706788D01*
X180004803Y-517863313D01*
X179998230Y-517871322D01*
X179892211Y-518000508D01*
X179790754Y-518083770D01*
X179755016Y-518113100D01*
X179598491Y-518196765D01*
X179428652Y-518248285D01*
X179362467Y-518254804D01*
X179296285Y-518261322D01*
X179207765Y-518261322D01*
X179141583Y-518254804D01*
X179075398Y-518248285D01*
X178905559Y-518196765D01*
X178749034Y-518113100D01*
X178713296Y-518083770D01*
X178611839Y-518000508D01*
X178505820Y-517871322D01*
X178499247Y-517863313D01*
X178415582Y-517706788D01*
X178364062Y-517536949D01*
X178346666Y-517360322D01*
X178364062Y-517183695D01*
X178415582Y-517013856D01*
X178499247Y-516857331D01*
X178533641Y-516815422D01*
X178611839Y-516720136D01*
X178713296Y-516636874D01*
X178749034Y-516607544D01*
X178905559Y-516523879D01*
X179075398Y-516472359D01*
X179141582Y-516465841D01*
X179207765Y-516459322D01*
X179296285Y-516459322D01*
X179362468Y-516465841D01*
X179362468Y-516465841D01*
G37*
G36*
X181902468Y-516465841D02*
G01*
X181968652Y-516472359D01*
X182138491Y-516523879D01*
X182295016Y-516607544D01*
X182330754Y-516636874D01*
X182432211Y-516720136D01*
X182510409Y-516815422D01*
X182544803Y-516857331D01*
X182628468Y-517013856D01*
X182679988Y-517183695D01*
X182697384Y-517360322D01*
X182679988Y-517536949D01*
X182628468Y-517706788D01*
X182544803Y-517863313D01*
X182538230Y-517871322D01*
X182432211Y-518000508D01*
X182330754Y-518083770D01*
X182295016Y-518113100D01*
X182138491Y-518196765D01*
X181968652Y-518248285D01*
X181902467Y-518254804D01*
X181836285Y-518261322D01*
X181747765Y-518261322D01*
X181681583Y-518254804D01*
X181615398Y-518248285D01*
X181445559Y-518196765D01*
X181289034Y-518113100D01*
X181253296Y-518083770D01*
X181151839Y-518000508D01*
X181045820Y-517871322D01*
X181039247Y-517863313D01*
X180955582Y-517706788D01*
X180904062Y-517536949D01*
X180886666Y-517360322D01*
X180904062Y-517183695D01*
X180955582Y-517013856D01*
X181039247Y-516857331D01*
X181073641Y-516815422D01*
X181151839Y-516720136D01*
X181253296Y-516636874D01*
X181289034Y-516607544D01*
X181445559Y-516523879D01*
X181615398Y-516472359D01*
X181681582Y-516465841D01*
X181747765Y-516459322D01*
X181836285Y-516459322D01*
X181902468Y-516465841D01*
X181902468Y-516465841D01*
G37*
G36*
X184442468Y-516465841D02*
G01*
X184508652Y-516472359D01*
X184678491Y-516523879D01*
X184835016Y-516607544D01*
X184870754Y-516636874D01*
X184972211Y-516720136D01*
X185050409Y-516815422D01*
X185084803Y-516857331D01*
X185168468Y-517013856D01*
X185219988Y-517183695D01*
X185237384Y-517360322D01*
X185219988Y-517536949D01*
X185168468Y-517706788D01*
X185084803Y-517863313D01*
X185078230Y-517871322D01*
X184972211Y-518000508D01*
X184870754Y-518083770D01*
X184835016Y-518113100D01*
X184678491Y-518196765D01*
X184508652Y-518248285D01*
X184442467Y-518254804D01*
X184376285Y-518261322D01*
X184287765Y-518261322D01*
X184221583Y-518254804D01*
X184155398Y-518248285D01*
X183985559Y-518196765D01*
X183829034Y-518113100D01*
X183793296Y-518083770D01*
X183691839Y-518000508D01*
X183585820Y-517871322D01*
X183579247Y-517863313D01*
X183495582Y-517706788D01*
X183444062Y-517536949D01*
X183426666Y-517360322D01*
X183444062Y-517183695D01*
X183495582Y-517013856D01*
X183579247Y-516857331D01*
X183613641Y-516815422D01*
X183691839Y-516720136D01*
X183793296Y-516636874D01*
X183829034Y-516607544D01*
X183985559Y-516523879D01*
X184155398Y-516472359D01*
X184221582Y-516465841D01*
X184287765Y-516459322D01*
X184376285Y-516459322D01*
X184442468Y-516465841D01*
X184442468Y-516465841D01*
G37*
G36*
X194904610Y-514799124D02*
G01*
X195054435Y-514828926D01*
X195336699Y-514945843D01*
X195590730Y-515115581D01*
X195806766Y-515331617D01*
X195976504Y-515585648D01*
X196093421Y-515867912D01*
X196153025Y-516167562D01*
X196153025Y-516473082D01*
X196093421Y-516772732D01*
X195976504Y-517054996D01*
X195806766Y-517309027D01*
X195590730Y-517525063D01*
X195336699Y-517694801D01*
X195054435Y-517811718D01*
X194904610Y-517841520D01*
X194754786Y-517871322D01*
X194449264Y-517871322D01*
X194299440Y-517841520D01*
X194149615Y-517811718D01*
X193867351Y-517694801D01*
X193613320Y-517525063D01*
X193397284Y-517309027D01*
X193227546Y-517054996D01*
X193110629Y-516772732D01*
X193051025Y-516473082D01*
X193051025Y-516167562D01*
X193110629Y-515867912D01*
X193227546Y-515585648D01*
X193397284Y-515331617D01*
X193613320Y-515115581D01*
X193867351Y-514945843D01*
X194149615Y-514828926D01*
X194299440Y-514799124D01*
X194449264Y-514769322D01*
X194754786Y-514769322D01*
X194904610Y-514799124D01*
X194904610Y-514799124D01*
G37*
G36*
X201254610Y-512259124D02*
G01*
X201404435Y-512288926D01*
X201686699Y-512405843D01*
X201940730Y-512575581D01*
X202156766Y-512791617D01*
X202326504Y-513045648D01*
X202443421Y-513327912D01*
X202503025Y-513627562D01*
X202503025Y-513933082D01*
X202443421Y-514232732D01*
X202326504Y-514514996D01*
X202156766Y-514769027D01*
X201940730Y-514985063D01*
X201686699Y-515154801D01*
X201404435Y-515271718D01*
X201254610Y-515301520D01*
X201104786Y-515331322D01*
X200799264Y-515331322D01*
X200649440Y-515301520D01*
X200499615Y-515271718D01*
X200217351Y-515154801D01*
X199963320Y-514985063D01*
X199747284Y-514769027D01*
X199577546Y-514514996D01*
X199460629Y-514232732D01*
X199401025Y-513933082D01*
X199401025Y-513627562D01*
X199460629Y-513327912D01*
X199577546Y-513045648D01*
X199747284Y-512791617D01*
X199963320Y-512575581D01*
X200217351Y-512405843D01*
X200499615Y-512288926D01*
X200649440Y-512259124D01*
X200799264Y-512229322D01*
X201104786Y-512229322D01*
X201254610Y-512259124D01*
X201254610Y-512259124D01*
G37*
M02*
