G04 #@! TF.GenerationSoftware,KiCad,Pcbnew,(5.1.4)-1*
G04 #@! TF.CreationDate,2023-07-27T21:12:13-04:00*
G04 #@! TF.ProjectId,ThumbsUp,5468756d-6273-4557-902e-6b696361645f,rev?*
G04 #@! TF.SameCoordinates,Original*
G04 #@! TF.FileFunction,Copper,L1,Top*
G04 #@! TF.FilePolarity,Positive*
%FSLAX46Y46*%
G04 Gerber Fmt 4.6, Leading zero omitted, Abs format (unit mm)*
G04 Created by KiCad (PCBNEW (5.1.4)-1) date 2023-07-27 21:12:13*
%MOMM*%
%LPD*%
G04 APERTURE LIST*
%ADD10C,1.575000*%
%ADD11C,2.250000*%
%ADD12C,2.250000*%
%ADD13C,0.600000*%
%ADD14O,0.900000X1.700000*%
%ADD15O,0.900000X2.000000*%
%ADD16O,1.700000X1.700000*%
%ADD17R,1.700000X1.700000*%
%ADD18C,1.700000*%
%ADD19C,1.700000*%
%ADD20C,0.100000*%
%ADD21C,0.800000*%
%ADD22C,3.000000*%
%ADD23C,0.200000*%
%ADD24C,0.500000*%
G04 APERTURE END LIST*
D10*
X208727730Y-453955373D03*
X212451651Y-455281047D03*
X213623921Y-459625674D03*
X206176079Y-456974326D03*
X207348349Y-461318953D03*
D11*
X160862025Y-412410323D03*
X160207026Y-413140323D03*
D12*
X159552025Y-413870323D02*
X160862027Y-412410323D01*
D11*
X165902025Y-411330323D03*
X165882025Y-411620323D03*
D12*
X165862025Y-411910323D02*
X165902025Y-411330323D01*
D10*
X199027730Y-456555373D03*
X202751651Y-457881047D03*
X203923921Y-462225674D03*
X196476079Y-459574326D03*
X197648349Y-463918953D03*
D13*
X175900000Y-461112500D03*
X175900000Y-459837500D03*
X175900000Y-458562500D03*
X174625000Y-461112500D03*
X174625000Y-459837500D03*
X174625000Y-458562500D03*
X173350000Y-461112500D03*
X173350000Y-459837500D03*
X173350000Y-458562500D03*
D11*
X179892025Y-405150323D03*
D12*
X179912025Y-404860323D02*
X179872025Y-405440323D01*
D11*
X179872025Y-405440323D03*
X185567024Y-403630323D03*
D12*
X186222025Y-402900323D02*
X184912023Y-404360323D01*
D11*
X184912025Y-404360323D03*
D14*
X176595000Y-388810000D03*
X167955000Y-388810000D03*
D15*
X176595000Y-392980000D03*
X167955000Y-392980000D03*
D11*
X165882026Y-392570322D03*
D12*
X165862026Y-392860322D02*
X165902026Y-392280322D01*
D11*
X165902026Y-392280322D03*
X160207027Y-394090322D03*
D12*
X159552026Y-394820322D02*
X160862028Y-393360322D01*
D11*
X160862026Y-393360322D03*
X160862025Y-431460322D03*
X160207026Y-432190322D03*
D12*
X159552025Y-432920322D02*
X160862027Y-431460322D01*
D11*
X165902025Y-430380322D03*
X165882025Y-430670322D03*
D12*
X165862025Y-430960322D02*
X165902025Y-430380322D01*
D11*
X203962025Y-450960323D03*
X204617024Y-450230323D03*
D12*
X205272025Y-449500323D02*
X203962023Y-450960323D01*
D11*
X198922025Y-452040323D03*
X198942025Y-451750323D03*
D12*
X198962025Y-451460323D02*
X198922025Y-452040323D01*
D11*
X184912025Y-442460322D03*
X185567024Y-441730322D03*
D12*
X186222025Y-441000322D02*
X184912023Y-442460322D01*
D11*
X179872025Y-443540322D03*
X179892025Y-443250322D03*
D12*
X179912025Y-442960322D02*
X179872025Y-443540322D01*
D11*
X184912025Y-423410322D03*
X185567024Y-422680322D03*
D12*
X186222025Y-421950322D02*
X184912023Y-423410322D01*
D11*
X179872025Y-424490322D03*
X179892025Y-424200322D03*
D12*
X179912025Y-423910322D02*
X179872025Y-424490322D01*
D16*
X186830000Y-389860000D03*
X184290000Y-389860000D03*
X181750000Y-389860000D03*
D17*
X179210000Y-389860000D03*
D11*
X223012025Y-455960322D03*
X223667024Y-455230322D03*
D12*
X224322025Y-454500322D02*
X223012023Y-455960322D01*
D11*
X217972025Y-457040322D03*
X217992025Y-456750322D03*
D12*
X218012025Y-456460322D02*
X217972025Y-457040322D01*
D18*
X173212025Y-471010322D03*
D19*
X173212025Y-471010322D02*
X173212025Y-471010322D01*
D18*
X170758573Y-471667722D03*
D19*
X170758573Y-471667722D02*
X170758573Y-471667722D01*
D18*
X168305122Y-472325123D03*
D19*
X168305122Y-472325123D02*
X168305122Y-472325123D01*
D18*
X165851670Y-472982523D03*
D20*
G36*
X164810637Y-472381482D02*
G01*
X166452711Y-471941490D01*
X166892703Y-473583564D01*
X165250629Y-474023556D01*
X164810637Y-472381482D01*
X164810637Y-472381482D01*
G37*
D18*
X182551669Y-468482524D03*
D19*
X182551669Y-468482524D02*
X182551669Y-468482524D01*
D18*
X185005121Y-467825124D03*
D19*
X185005121Y-467825124D02*
X185005121Y-467825124D01*
D18*
X187458572Y-467167723D03*
D19*
X187458572Y-467167723D02*
X187458572Y-467167723D01*
D18*
X189912024Y-466510323D03*
D20*
G36*
X188870991Y-465909282D02*
G01*
X190513065Y-465469290D01*
X190953057Y-467111364D01*
X189310983Y-467551356D01*
X188870991Y-465909282D01*
X188870991Y-465909282D01*
G37*
D18*
X156391130Y-471814978D03*
D19*
X156391130Y-471814978D02*
X156391130Y-471814978D01*
D18*
X155733730Y-469361526D03*
D19*
X155733730Y-469361526D02*
X155733730Y-469361526D01*
D18*
X155076329Y-466908075D03*
D19*
X155076329Y-466908075D02*
X155076329Y-466908075D01*
D18*
X154418929Y-464454623D03*
D20*
G36*
X153817888Y-465495656D02*
G01*
X153377896Y-463853582D01*
X155019970Y-463413590D01*
X155459962Y-465055664D01*
X153817888Y-465495656D01*
X153817888Y-465495656D01*
G37*
D16*
X156195921Y-451084972D03*
X158735921Y-451084972D03*
X161275921Y-451084972D03*
D17*
X163815921Y-451084972D03*
D16*
X178739012Y-409842011D03*
X181279012Y-409842011D03*
X183819012Y-409842011D03*
D17*
X186359012Y-409842011D03*
D16*
X228412025Y-458730322D03*
X228412025Y-456190322D03*
X228412025Y-453650322D03*
D17*
X228412025Y-451110322D03*
D16*
X178436722Y-428957847D03*
X180976722Y-428957847D03*
X183516722Y-428957847D03*
D17*
X186056722Y-428957847D03*
D16*
X155458726Y-390760794D03*
X155458726Y-393300794D03*
X155458726Y-395840794D03*
D17*
X155458726Y-398380794D03*
D21*
X165850000Y-407575000D03*
X158850000Y-407575000D03*
D11*
X159650000Y-410100000D03*
D22*
X167050000Y-405175000D03*
D11*
X157750000Y-405050000D03*
D18*
X194698626Y-465168258D03*
D19*
X194698626Y-465168258D02*
X194698626Y-465168258D01*
D18*
X194041226Y-462714806D03*
D19*
X194041226Y-462714806D02*
X194041226Y-462714806D01*
D18*
X193383825Y-460261355D03*
D19*
X193383825Y-460261355D02*
X193383825Y-460261355D01*
D18*
X192726425Y-457807903D03*
D20*
G36*
X192125384Y-458848936D02*
G01*
X191685392Y-457206862D01*
X193327466Y-456766870D01*
X193767458Y-458408944D01*
X192125384Y-458848936D01*
X192125384Y-458848936D01*
G37*
D16*
X155412019Y-422110280D03*
X155412019Y-424650280D03*
X155412019Y-427190280D03*
D17*
X155412019Y-429730280D03*
D13*
X176700000Y-460450000D03*
X172550000Y-461600000D03*
D21*
X179550000Y-461200000D03*
X169697010Y-460550000D03*
X170940000Y-447310000D03*
X169962066Y-447132897D03*
X169070000Y-461250000D03*
X172525000Y-395350000D03*
X171325000Y-444250000D03*
X171125000Y-395325002D03*
X170275000Y-444150000D03*
X166357000Y-459960000D03*
X179092999Y-463367001D03*
X179750000Y-458525000D03*
X166357000Y-451257000D03*
X182950000Y-458525000D03*
X163780000Y-456860000D03*
X166360000Y-461760000D03*
X178130000Y-465580000D03*
X170630000Y-452780000D03*
X182990000Y-461600000D03*
X176290000Y-451950000D03*
X170043126Y-423774993D03*
X170800000Y-405150000D03*
X176593736Y-464930409D03*
X170460000Y-464757010D03*
X168850000Y-464740000D03*
X175052000Y-464780000D03*
X161595533Y-446178806D03*
X162171148Y-445452157D03*
X162833296Y-444803380D03*
X173530377Y-441025984D03*
X173563055Y-440099549D03*
X174020492Y-439172764D03*
X174558538Y-438417875D03*
X167280000Y-442580000D03*
X167920000Y-441230002D03*
X174010000Y-447340000D03*
X175310000Y-404588968D03*
X177740000Y-450820000D03*
X176255856Y-447294144D03*
X172627002Y-449642998D03*
X169625000Y-462975000D03*
X191121047Y-463918953D03*
X179810000Y-462590000D03*
X179640000Y-465740000D03*
X165100000Y-469720000D03*
D23*
X179459315Y-461200000D02*
X179550000Y-461200000D01*
D24*
X177450000Y-461200000D02*
X176700000Y-460450000D01*
X179550000Y-461200000D02*
X177450000Y-461200000D01*
D23*
X169697010Y-448552990D02*
X170540001Y-447709999D01*
X170540001Y-447709999D02*
X170940000Y-447310000D01*
X169697010Y-460550000D02*
X169697010Y-448552990D01*
X169070000Y-448024963D02*
X169562067Y-447532896D01*
X169562067Y-447532896D02*
X169962066Y-447132897D01*
X169070000Y-461250000D02*
X169070000Y-448024963D01*
X171170000Y-444095000D02*
X171170000Y-424280149D01*
X171790000Y-396085000D02*
X172125001Y-395749999D01*
X171325000Y-444250000D02*
X171170000Y-444095000D01*
X172125001Y-395749999D02*
X172525000Y-395350000D01*
X171170000Y-424280149D02*
X171790000Y-423660149D01*
X171790000Y-423660149D02*
X171790000Y-396085000D01*
X171427001Y-423560686D02*
X171427001Y-396192688D01*
X171427001Y-396192688D02*
X171125000Y-395890687D01*
X170842989Y-443582011D02*
X170842989Y-424144697D01*
X170275000Y-444150000D02*
X170842989Y-443582011D01*
X171125000Y-395890687D02*
X171125000Y-395325002D01*
X170842989Y-424144697D02*
X171427001Y-423560686D01*
D24*
X166357000Y-459960000D02*
X166357000Y-451257000D01*
X184431829Y-457043171D02*
X183349999Y-458125001D01*
X176290000Y-451950000D02*
X176290000Y-450690000D01*
X192726425Y-457807903D02*
X191961693Y-457043171D01*
X176290000Y-450690000D02*
X174140000Y-448540000D01*
X191961693Y-457043171D02*
X184431829Y-457043171D01*
X179380000Y-451950000D02*
X179555000Y-451775000D01*
X184912025Y-444051312D02*
X184912025Y-442460322D01*
X184912025Y-446417975D02*
X184912025Y-444051312D01*
X170630000Y-452214315D02*
X170630000Y-452780000D01*
X163815921Y-452434972D02*
X163780000Y-452470893D01*
X176290000Y-451950000D02*
X179380000Y-451950000D01*
X171910000Y-448540000D02*
X170630000Y-449820000D01*
X163780000Y-452470893D02*
X163780000Y-456860000D01*
X170630000Y-449820000D02*
X170630000Y-452214315D01*
X178197500Y-463410000D02*
X175900000Y-461112500D01*
X179750000Y-451970000D02*
X179555000Y-451775000D01*
X179750000Y-458525000D02*
X179750000Y-451970000D01*
X183349999Y-458125001D02*
X182950000Y-458525000D01*
X163815921Y-451084972D02*
X163815921Y-452434972D01*
X174140000Y-448540000D02*
X171910000Y-448540000D01*
X179555000Y-451775000D02*
X184912025Y-446417975D01*
X199027730Y-454972270D02*
X199027730Y-456555373D01*
X205732680Y-450960323D02*
X205732680Y-449960978D01*
X199100000Y-454900000D02*
X198400000Y-454900000D01*
X199100000Y-454900000D02*
X199027730Y-454972270D01*
X205732680Y-449960978D02*
X205272025Y-449500323D01*
X201100000Y-454900000D02*
X199100000Y-454900000D01*
X208727730Y-453955373D02*
X205732680Y-450960323D01*
X205272025Y-449500323D02*
X205272025Y-450727975D01*
X204500000Y-448728298D02*
X205272025Y-449500323D01*
X186222025Y-441000322D02*
X186621703Y-441400000D01*
X187900000Y-434500000D02*
X187900000Y-423628297D01*
X187900000Y-423628297D02*
X186222025Y-421950322D01*
X159552025Y-432920322D02*
X159320024Y-432688321D01*
X205272025Y-450727975D02*
X201100000Y-454900000D01*
X185960322Y-442460322D02*
X184912025Y-442460322D01*
X185500000Y-440278297D02*
X185500000Y-436900000D01*
X185500000Y-436900000D02*
X187900000Y-434500000D01*
X198400000Y-454900000D02*
X185960322Y-442460322D01*
X186222025Y-441000322D02*
X185500000Y-440278297D01*
X210053404Y-455281047D02*
X208727730Y-453955373D01*
X193383825Y-458465303D02*
X192726425Y-457807903D01*
X206176079Y-456974326D02*
X203658372Y-456974326D01*
X194041226Y-462714806D02*
X194041226Y-464510858D01*
X208727730Y-454422675D02*
X206176079Y-456974326D01*
X193383825Y-460261355D02*
X193383825Y-458465303D01*
X213239150Y-454493548D02*
X212451651Y-455281047D01*
X224322025Y-454500322D02*
X224315251Y-454493548D01*
X198169358Y-457881047D02*
X196476079Y-459574326D01*
X208727730Y-453955373D02*
X208727730Y-454422675D01*
X212451651Y-455281047D02*
X210053404Y-455281047D01*
X196476079Y-459574326D02*
X194070854Y-459574326D01*
X199027730Y-456555373D02*
X199027730Y-457732270D01*
X203658372Y-456974326D02*
X202751651Y-457881047D01*
X199027730Y-457732270D02*
X198878953Y-457881047D01*
X194070854Y-459574326D02*
X193383825Y-460261355D01*
X194041226Y-464510858D02*
X194698626Y-465168258D01*
X176595000Y-392980000D02*
X176595000Y-388810000D01*
X202751651Y-457881047D02*
X198878953Y-457881047D01*
X198878953Y-457881047D02*
X198169358Y-457881047D01*
X224315251Y-454493548D02*
X213239150Y-454493548D01*
X166357000Y-460525685D02*
X166360000Y-460528685D01*
X166360000Y-460528685D02*
X166360000Y-461760000D01*
X166357000Y-459960000D02*
X166357000Y-460525685D01*
X179092999Y-463367001D02*
X179658684Y-463367001D01*
X179658684Y-463367001D02*
X182551669Y-466259986D01*
X182551669Y-467280443D02*
X182551669Y-468482524D01*
X179050000Y-463410000D02*
X179092999Y-463367001D01*
X182950000Y-458525000D02*
X182950000Y-461490000D01*
X179750000Y-458525000D02*
X182950000Y-458525000D01*
X179092999Y-463367001D02*
X179092999Y-464617001D01*
X179750000Y-458525000D02*
X175937500Y-458525000D01*
X175937500Y-458525000D02*
X175900000Y-458562500D01*
X179092999Y-464617001D02*
X178130000Y-465580000D01*
X182551669Y-466259986D02*
X182551669Y-467280443D01*
X178197500Y-463410000D02*
X179050000Y-463410000D01*
X182950000Y-461490000D02*
X183060000Y-461600000D01*
D23*
X170515978Y-424190978D02*
X170050000Y-423725000D01*
X170050000Y-423768119D02*
X170043126Y-423774993D01*
X167322990Y-444627010D02*
X170515978Y-441434022D01*
X167322990Y-462075028D02*
X167322990Y-444627010D01*
X171044022Y-422730978D02*
X171044022Y-416167394D01*
X170800000Y-405715685D02*
X170800000Y-405150000D01*
X170050000Y-423725000D02*
X171044022Y-422730978D01*
X170800000Y-415923372D02*
X170800000Y-405715685D01*
X171044022Y-416167394D02*
X170800000Y-415923372D01*
X170050000Y-423725000D02*
X170050000Y-423768119D01*
X170515978Y-441434022D02*
X170515978Y-424190978D01*
X169377962Y-464130000D02*
X167322990Y-462075028D01*
X176593736Y-464930409D02*
X175793327Y-464130000D01*
X175793327Y-464130000D02*
X169377962Y-464130000D01*
X155412019Y-441992019D02*
X162110000Y-448690000D01*
X175052000Y-464780000D02*
X170482990Y-464780000D01*
X165250000Y-449280000D02*
X165250000Y-461705685D01*
X165250000Y-461705685D02*
X168284315Y-464740000D01*
X155412019Y-429730280D02*
X155412019Y-441992019D01*
X162110000Y-448690000D02*
X164660000Y-448690000D01*
X164660000Y-448690000D02*
X165250000Y-449280000D01*
X168284315Y-464740000D02*
X168850000Y-464740000D01*
X170482990Y-464780000D02*
X170460000Y-464757010D01*
X157099999Y-430900001D02*
X156105978Y-431894022D01*
X156105978Y-431894022D02*
X156105978Y-442130904D01*
X161029848Y-446178806D02*
X161595533Y-446178806D01*
X157099999Y-428878260D02*
X157099999Y-430900001D01*
X156105978Y-442130904D02*
X160153880Y-446178806D01*
X160153880Y-446178806D02*
X161029848Y-446178806D01*
X155412019Y-427190280D02*
X157099999Y-428878260D01*
X157427010Y-426665271D02*
X157427010Y-431035453D01*
X161605463Y-445452157D02*
X162171148Y-445452157D01*
X156432989Y-432029474D02*
X156432989Y-441995452D01*
X157427010Y-431035453D02*
X156432989Y-432029474D01*
X156432989Y-441995452D02*
X159889694Y-445452157D01*
X159889694Y-445452157D02*
X161605463Y-445452157D01*
X155412019Y-424650280D02*
X157427010Y-426665271D01*
X155412019Y-422110280D02*
X157754021Y-424452282D01*
X156760000Y-441860000D02*
X159703380Y-444803380D01*
X157754021Y-424452282D02*
X157754021Y-431170905D01*
X157754021Y-431170905D02*
X156760000Y-432164926D01*
X159703380Y-444803380D02*
X162833296Y-444803380D01*
X156760000Y-432164926D02*
X156760000Y-441860000D01*
X173130378Y-440625985D02*
X173530377Y-441025984D01*
X172643099Y-440138706D02*
X173130378Y-440625985D01*
X175879764Y-428957847D02*
X172643099Y-432194512D01*
X172643099Y-432194512D02*
X172643099Y-440138706D01*
X178436722Y-428957847D02*
X175879764Y-428957847D01*
X180976722Y-428957847D02*
X179763591Y-430170978D01*
X179763591Y-430170978D02*
X175129096Y-430170978D01*
X172970110Y-439506604D02*
X173163056Y-439699550D01*
X172970110Y-432329964D02*
X172970110Y-439506604D01*
X173163056Y-439699550D02*
X173563055Y-440099549D01*
X175129096Y-430170978D02*
X172970110Y-432329964D01*
X183516722Y-428957847D02*
X181976580Y-430497989D01*
X173620493Y-438772765D02*
X174020492Y-439172764D01*
X173297121Y-432540416D02*
X173297121Y-438449393D01*
X173297121Y-438449393D02*
X173620493Y-438772765D01*
X181976580Y-430497989D02*
X175339548Y-430497989D01*
X175339548Y-430497989D02*
X173297121Y-432540416D01*
X175475000Y-430825000D02*
X173624132Y-432675868D01*
X173624132Y-437483469D02*
X174158539Y-438017876D01*
X185239569Y-430825000D02*
X175475000Y-430825000D01*
X173624132Y-432675868D02*
X173624132Y-437483469D01*
X186056722Y-428957847D02*
X186056722Y-430007847D01*
X174158539Y-438017876D02*
X174558538Y-438417875D01*
X186056722Y-430007847D02*
X185239569Y-430825000D01*
X170188967Y-425088967D02*
X170188967Y-440456718D01*
X170100000Y-396910000D02*
X170100000Y-415685835D01*
X170100000Y-415685835D02*
X170717011Y-416302846D01*
X170188967Y-440456718D02*
X168065685Y-442580000D01*
X169164001Y-423336000D02*
X169164001Y-424064001D01*
X167845685Y-442580000D02*
X167280000Y-442580000D01*
X168680000Y-395490000D02*
X170100000Y-396910000D01*
X165862026Y-394212026D02*
X167140000Y-395490000D01*
X167140000Y-395490000D02*
X168680000Y-395490000D01*
X165862026Y-392860322D02*
X165862026Y-394212026D01*
X168065685Y-442580000D02*
X167845685Y-442580000D01*
X170717011Y-416302846D02*
X170717011Y-421782991D01*
X170717011Y-421782991D02*
X169164001Y-423336000D01*
X169164001Y-424064001D02*
X170188967Y-425088967D01*
X165862025Y-411910323D02*
X170390000Y-416438298D01*
X170390000Y-416438298D02*
X170390000Y-421647539D01*
X170390000Y-421647539D02*
X168836990Y-423200549D01*
X168836990Y-423200549D02*
X168836990Y-424216990D01*
X168836990Y-424216990D02*
X169860000Y-425240000D01*
X169860000Y-425240000D02*
X169860000Y-439290002D01*
X169860000Y-439290002D02*
X168319999Y-440830003D01*
X168319999Y-440830003D02*
X167920000Y-441230002D01*
X171989077Y-445319077D02*
X173610001Y-446940001D01*
X175310000Y-421990000D02*
X171989077Y-425310923D01*
X171989077Y-425310923D02*
X171989077Y-445319077D01*
X173610001Y-446940001D02*
X174010000Y-447340000D01*
X175310000Y-404588968D02*
X175310000Y-421990000D01*
X172316088Y-440699354D02*
X175160000Y-443543266D01*
X175160000Y-448240000D02*
X177340001Y-450420001D01*
X175160000Y-443543266D02*
X175160000Y-448240000D01*
X177340001Y-450420001D02*
X177740000Y-450820000D01*
X172316088Y-432046259D02*
X172316088Y-440699354D01*
X179872025Y-424490322D02*
X172316088Y-432046259D01*
X179872025Y-443677975D02*
X179872025Y-443540322D01*
X179912025Y-443637975D02*
X179912025Y-442960322D01*
X176255856Y-447294144D02*
X179912025Y-443637975D01*
D24*
X169625000Y-462705000D02*
X169625000Y-462975000D01*
X172627002Y-457222998D02*
X172627002Y-450208683D01*
X172627002Y-450208683D02*
X172627002Y-449642998D01*
X172300000Y-457550000D02*
X172627002Y-457222998D01*
X172300000Y-457550000D02*
X172000001Y-457849999D01*
X172000001Y-460329999D02*
X169625000Y-462705000D01*
X172000001Y-457849999D02*
X172000001Y-460329999D01*
D23*
X189256409Y-462620000D02*
X179840000Y-462620000D01*
X190555362Y-463918953D02*
X189256409Y-462620000D01*
X203298247Y-461600000D02*
X203923921Y-462225674D01*
X191121047Y-463918953D02*
X190555362Y-463918953D01*
X179840000Y-462620000D02*
X179810000Y-462590000D01*
X179640000Y-465740000D02*
X179130001Y-466249999D01*
X169197965Y-466249999D02*
X165727964Y-469720000D01*
X165727964Y-469720000D02*
X165100000Y-469720000D01*
X179130001Y-466249999D02*
X169197965Y-466249999D01*
M02*
