M48
; DRILL file {KiCad (5.1.4)-1} date 6/17/2023 6:32:26 PM
; FORMAT={-:-/ absolute / metric / decimal}
; #@! TF.CreationDate,2023-06-17T18:32:26-04:00
; #@! TF.GenerationSoftware,Kicad,Pcbnew,(5.1.4)-1
; #@! TF.FileFunction,Plated,1,2,PTH
FMAT,2
METRIC
T1C0.400
T2C0.600
T3C1.000
T4C1.050
T5C1.470
T6C1.500
T7C1.600
T8C2.000
%
G90
G05
T1
X160.9Y-446.9
X161.16Y-461.05
X161.592Y-446.183
X162.168Y-445.456
X162.829Y-444.807
X164.1Y-456.0
X166.223Y-461.127
X166.325Y-450.975
X167.0Y-455.976
X167.0Y-459.45
X167.28Y-442.58
X167.282Y-451.832
X167.793Y-456.753
X167.92Y-441.23
X168.05Y-466.35
X168.675Y-459.425
X169.182Y-458.53
X169.2Y-451.0
X169.2Y-463.75
X169.25Y-467.4
X169.8Y-457.839
X170.043Y-423.775
X170.15Y-464.9
X170.275Y-444.15
X170.75Y-447.05
X170.8Y-405.15
X171.125Y-395.325
X171.325Y-444.25
X171.672Y-447.148
X172.444Y-446.206
X172.525Y-395.35
X173.53Y-441.026
X173.563Y-440.1
X174.02Y-439.173
X174.047Y-463.785
X174.1Y-446.5
X174.2Y-467.4
X174.45Y-462.95
X174.559Y-438.418
X174.829Y-466.35
X175.31Y-404.589
X175.73Y-464.9
X175.806Y-463.819
X176.256Y-447.294
X176.477Y-458.523
X176.561Y-450.324
X177.072Y-449.551
X177.125Y-448.55
X177.504Y-465.7
X178.225Y-460.45
X178.969Y-464.9
X179.518Y-457.318
X180.411Y-459.317
X181.041Y-447.294
X181.284Y-453.679
X181.584Y-459.262
X183.325Y-458.05
X183.725Y-461.6
T3
X178.437Y-428.958
X180.977Y-428.958
X183.517Y-428.958
X186.057Y-428.958
X228.412Y-451.11
X228.412Y-453.65
X228.412Y-456.19
X228.412Y-458.73
X178.739Y-409.842
X181.279Y-409.842
X183.819Y-409.842
X186.359Y-409.842
X192.726Y-457.808
X193.384Y-460.261
X194.041Y-462.715
X194.699Y-465.168
X179.21Y-389.86
X181.75Y-389.86
X184.29Y-389.86
X186.83Y-389.86
X182.552Y-468.483
X185.005Y-467.825
X187.459Y-467.168
X189.912Y-466.51
X165.852Y-472.983
X168.305Y-472.325
X170.759Y-471.668
X173.212Y-471.01
X154.419Y-464.455
X155.076Y-466.908
X155.734Y-469.362
X156.391Y-471.815
X155.412Y-422.11
X155.412Y-424.65
X155.412Y-427.19
X155.412Y-429.73
X155.459Y-390.761
X155.459Y-393.301
X155.459Y-395.841
X155.459Y-398.381
X156.196Y-451.085
X158.736Y-451.085
X161.276Y-451.085
X163.816Y-451.085
T4
X196.476Y-459.574
X197.648Y-463.919
X199.028Y-456.555
X202.752Y-457.881
X203.924Y-462.226
X206.176Y-456.974
X207.348Y-461.319
X208.728Y-453.955
X212.452Y-455.281
X213.624Y-459.626
T5
X159.552Y-413.87
X160.862Y-412.41
X165.862Y-411.91
X165.902Y-411.33
X179.872Y-424.49
X179.912Y-423.91
X184.912Y-423.41
X186.222Y-421.95
X198.922Y-452.04
X198.962Y-451.46
X203.962Y-450.96
X205.272Y-449.5
X179.872Y-443.54
X179.912Y-442.96
X184.912Y-442.46
X186.222Y-441.0
X179.872Y-405.44
X179.912Y-404.86
X184.912Y-404.36
X186.222Y-402.9
X159.552Y-394.82
X160.862Y-393.36
X165.862Y-392.86
X165.902Y-392.28
X217.972Y-457.04
X218.012Y-456.46
X223.012Y-455.96
X224.322Y-454.5
X159.552Y-432.92
X160.862Y-431.46
X165.862Y-430.96
X165.902Y-430.38
T6
X157.75Y-405.05
X159.65Y-410.1
T7
X158.85Y-407.575
X165.85Y-407.575
T8
X167.05Y-405.175
T2
X167.955Y-388.41G85X167.955Y-389.21
G05
X167.955Y-392.43G85X167.955Y-393.53
G05
X176.595Y-388.41G85X176.595Y-389.21
G05
X176.595Y-392.43G85X176.595Y-393.53
G05
T0
M30
