G04 #@! TF.GenerationSoftware,KiCad,Pcbnew,(5.1.4)-1*
G04 #@! TF.CreationDate,2023-07-27T21:12:14-04:00*
G04 #@! TF.ProjectId,ThumbsUp,5468756d-6273-4557-902e-6b696361645f,rev?*
G04 #@! TF.SameCoordinates,Original*
G04 #@! TF.FileFunction,Legend,Bot*
G04 #@! TF.FilePolarity,Positive*
%FSLAX46Y46*%
G04 Gerber Fmt 4.6, Leading zero omitted, Abs format (unit mm)*
G04 Created by KiCad (PCBNEW (5.1.4)-1) date 2023-07-27 21:12:14*
%MOMM*%
%LPD*%
G04 APERTURE LIST*
%ADD10C,0.150000*%
%ADD11C,0.100000*%
%ADD12C,0.200000*%
%ADD13C,0.120000*%
%ADD14C,0.254000*%
G04 APERTURE END LIST*
D10*
X165699047Y-444005714D02*
X165699047Y-444672380D01*
X166127619Y-444005714D02*
X166127619Y-444529523D01*
X166080000Y-444624761D01*
X165984761Y-444672380D01*
X165841904Y-444672380D01*
X165746666Y-444624761D01*
X165699047Y-444577142D01*
X164508571Y-443624761D02*
X165365714Y-444910476D01*
X164222857Y-444386666D02*
X163746666Y-444386666D01*
X164318095Y-444672380D02*
X163984761Y-443672380D01*
X163651428Y-444672380D01*
X163318095Y-444672380D02*
X163318095Y-443672380D01*
X162746666Y-444672380D02*
X163175238Y-444100952D01*
X162746666Y-443672380D02*
X163318095Y-444243809D01*
X161889523Y-443672380D02*
X162080000Y-443672380D01*
X162175238Y-443720000D01*
X162222857Y-443767619D01*
X162318095Y-443910476D01*
X162365714Y-444100952D01*
X162365714Y-444481904D01*
X162318095Y-444577142D01*
X162270476Y-444624761D01*
X162175238Y-444672380D01*
X161984761Y-444672380D01*
X161889523Y-444624761D01*
X161841904Y-444577142D01*
X161794285Y-444481904D01*
X161794285Y-444243809D01*
X161841904Y-444148571D01*
X161889523Y-444100952D01*
X161984761Y-444053333D01*
X162175238Y-444053333D01*
X162270476Y-444100952D01*
X162318095Y-444148571D01*
X162365714Y-444243809D01*
X160937142Y-443672380D02*
X161127619Y-443672380D01*
X161222857Y-443720000D01*
X161270476Y-443767619D01*
X161365714Y-443910476D01*
X161413333Y-444100952D01*
X161413333Y-444481904D01*
X161365714Y-444577142D01*
X161318095Y-444624761D01*
X161222857Y-444672380D01*
X161032380Y-444672380D01*
X160937142Y-444624761D01*
X160889523Y-444577142D01*
X160841904Y-444481904D01*
X160841904Y-444243809D01*
X160889523Y-444148571D01*
X160937142Y-444100952D01*
X161032380Y-444053333D01*
X161222857Y-444053333D01*
X161318095Y-444100952D01*
X161365714Y-444148571D01*
X161413333Y-444243809D01*
X159984761Y-443672380D02*
X160175238Y-443672380D01*
X160270476Y-443720000D01*
X160318095Y-443767619D01*
X160413333Y-443910476D01*
X160460952Y-444100952D01*
X160460952Y-444481904D01*
X160413333Y-444577142D01*
X160365714Y-444624761D01*
X160270476Y-444672380D01*
X160080000Y-444672380D01*
X159984761Y-444624761D01*
X159937142Y-444577142D01*
X159889523Y-444481904D01*
X159889523Y-444243809D01*
X159937142Y-444148571D01*
X159984761Y-444100952D01*
X160080000Y-444053333D01*
X160270476Y-444053333D01*
X160365714Y-444100952D01*
X160413333Y-444148571D01*
X160460952Y-444243809D01*
X159032380Y-443672380D02*
X159222857Y-443672380D01*
X159318095Y-443720000D01*
X159365714Y-443767619D01*
X159460952Y-443910476D01*
X159508571Y-444100952D01*
X159508571Y-444481904D01*
X159460952Y-444577142D01*
X159413333Y-444624761D01*
X159318095Y-444672380D01*
X159127619Y-444672380D01*
X159032380Y-444624761D01*
X158984761Y-444577142D01*
X158937142Y-444481904D01*
X158937142Y-444243809D01*
X158984761Y-444148571D01*
X159032380Y-444100952D01*
X159127619Y-444053333D01*
X159318095Y-444053333D01*
X159413333Y-444100952D01*
X159460952Y-444148571D01*
X159508571Y-444243809D01*
X158080000Y-443672380D02*
X158270476Y-443672380D01*
X158365714Y-443720000D01*
X158413333Y-443767619D01*
X158508571Y-443910476D01*
X158556190Y-444100952D01*
X158556190Y-444481904D01*
X158508571Y-444577142D01*
X158460952Y-444624761D01*
X158365714Y-444672380D01*
X158175238Y-444672380D01*
X158080000Y-444624761D01*
X158032380Y-444577142D01*
X157984761Y-444481904D01*
X157984761Y-444243809D01*
X158032380Y-444148571D01*
X158080000Y-444100952D01*
X158175238Y-444053333D01*
X158365714Y-444053333D01*
X158460952Y-444100952D01*
X158508571Y-444148571D01*
X158556190Y-444243809D01*
X168675238Y-445322380D02*
X168103809Y-445322380D01*
X168389523Y-446322380D02*
X168389523Y-445322380D01*
X167770476Y-446322380D02*
X167770476Y-445322380D01*
X167341904Y-446322380D02*
X167341904Y-445798571D01*
X167389523Y-445703333D01*
X167484761Y-445655714D01*
X167627619Y-445655714D01*
X167722857Y-445703333D01*
X167770476Y-445750952D01*
X166437142Y-445655714D02*
X166437142Y-446322380D01*
X166865714Y-445655714D02*
X166865714Y-446179523D01*
X166818095Y-446274761D01*
X166722857Y-446322380D01*
X166580000Y-446322380D01*
X166484761Y-446274761D01*
X166437142Y-446227142D01*
X165960952Y-446322380D02*
X165960952Y-445655714D01*
X165960952Y-445750952D02*
X165913333Y-445703333D01*
X165818095Y-445655714D01*
X165675238Y-445655714D01*
X165580000Y-445703333D01*
X165532380Y-445798571D01*
X165532380Y-446322380D01*
X165532380Y-445798571D02*
X165484761Y-445703333D01*
X165389523Y-445655714D01*
X165246666Y-445655714D01*
X165151428Y-445703333D01*
X165103809Y-445798571D01*
X165103809Y-446322380D01*
X164627619Y-446322380D02*
X164627619Y-445322380D01*
X164627619Y-445703333D02*
X164532380Y-445655714D01*
X164341904Y-445655714D01*
X164246666Y-445703333D01*
X164199047Y-445750952D01*
X164151428Y-445846190D01*
X164151428Y-446131904D01*
X164199047Y-446227142D01*
X164246666Y-446274761D01*
X164341904Y-446322380D01*
X164532380Y-446322380D01*
X164627619Y-446274761D01*
X163770476Y-446274761D02*
X163675238Y-446322380D01*
X163484761Y-446322380D01*
X163389523Y-446274761D01*
X163341904Y-446179523D01*
X163341904Y-446131904D01*
X163389523Y-446036666D01*
X163484761Y-445989047D01*
X163627619Y-445989047D01*
X163722857Y-445941428D01*
X163770476Y-445846190D01*
X163770476Y-445798571D01*
X163722857Y-445703333D01*
X163627619Y-445655714D01*
X163484761Y-445655714D01*
X163389523Y-445703333D01*
X162913333Y-445322380D02*
X162913333Y-446131904D01*
X162865714Y-446227142D01*
X162818095Y-446274761D01*
X162722857Y-446322380D01*
X162532380Y-446322380D01*
X162437142Y-446274761D01*
X162389523Y-446227142D01*
X162341904Y-446131904D01*
X162341904Y-445322380D01*
X161865714Y-445655714D02*
X161865714Y-446655714D01*
X161865714Y-445703333D02*
X161770476Y-445655714D01*
X161580000Y-445655714D01*
X161484761Y-445703333D01*
X161437142Y-445750952D01*
X161389523Y-445846190D01*
X161389523Y-446131904D01*
X161437142Y-446227142D01*
X161484761Y-446274761D01*
X161580000Y-446322380D01*
X161770476Y-446322380D01*
X161865714Y-446274761D01*
X160960952Y-446227142D02*
X160913333Y-446274761D01*
X160960952Y-446322380D01*
X161008571Y-446274761D01*
X160960952Y-446227142D01*
X160960952Y-446322380D01*
X160960952Y-445941428D02*
X161008571Y-445370000D01*
X160960952Y-445322380D01*
X160913333Y-445370000D01*
X160960952Y-445941428D01*
X160960952Y-445322380D01*
X159818095Y-445655714D02*
X159580000Y-446322380D01*
X159341904Y-445655714D01*
X158532380Y-445322380D02*
X158722857Y-445322380D01*
X158818095Y-445370000D01*
X158865714Y-445417619D01*
X158960952Y-445560476D01*
X159008571Y-445750952D01*
X159008571Y-446131904D01*
X158960952Y-446227142D01*
X158913333Y-446274761D01*
X158818095Y-446322380D01*
X158627619Y-446322380D01*
X158532380Y-446274761D01*
X158484761Y-446227142D01*
X158437142Y-446131904D01*
X158437142Y-445893809D01*
X158484761Y-445798571D01*
X158532380Y-445750952D01*
X158627619Y-445703333D01*
X158818095Y-445703333D01*
X158913333Y-445750952D01*
X158960952Y-445798571D01*
X159008571Y-445893809D01*
X157246666Y-446322380D02*
X157246666Y-445322380D01*
X156913333Y-446036666D01*
X156580000Y-445322380D01*
X156580000Y-446322380D01*
X156199047Y-445322380D02*
X155532380Y-446322380D01*
X155532380Y-445322380D02*
X156199047Y-446322380D01*
X166937142Y-447067619D02*
X166889523Y-447020000D01*
X166794285Y-446972380D01*
X166556190Y-446972380D01*
X166460952Y-447020000D01*
X166413333Y-447067619D01*
X166365714Y-447162857D01*
X166365714Y-447258095D01*
X166413333Y-447400952D01*
X166984761Y-447972380D01*
X166365714Y-447972380D01*
X165746666Y-446972380D02*
X165651428Y-446972380D01*
X165556190Y-447020000D01*
X165508571Y-447067619D01*
X165460952Y-447162857D01*
X165413333Y-447353333D01*
X165413333Y-447591428D01*
X165460952Y-447781904D01*
X165508571Y-447877142D01*
X165556190Y-447924761D01*
X165651428Y-447972380D01*
X165746666Y-447972380D01*
X165841904Y-447924761D01*
X165889523Y-447877142D01*
X165937142Y-447781904D01*
X165984761Y-447591428D01*
X165984761Y-447353333D01*
X165937142Y-447162857D01*
X165889523Y-447067619D01*
X165841904Y-447020000D01*
X165746666Y-446972380D01*
X165032380Y-447067619D02*
X164984761Y-447020000D01*
X164889523Y-446972380D01*
X164651428Y-446972380D01*
X164556190Y-447020000D01*
X164508571Y-447067619D01*
X164460952Y-447162857D01*
X164460952Y-447258095D01*
X164508571Y-447400952D01*
X165080000Y-447972380D01*
X164460952Y-447972380D01*
X164127619Y-446972380D02*
X163508571Y-446972380D01*
X163841904Y-447353333D01*
X163699047Y-447353333D01*
X163603809Y-447400952D01*
X163556190Y-447448571D01*
X163508571Y-447543809D01*
X163508571Y-447781904D01*
X163556190Y-447877142D01*
X163603809Y-447924761D01*
X163699047Y-447972380D01*
X163984761Y-447972380D01*
X164080000Y-447924761D01*
X164127619Y-447877142D01*
X163080000Y-447591428D02*
X162318095Y-447591428D01*
X161651428Y-446972380D02*
X161556190Y-446972380D01*
X161460952Y-447020000D01*
X161413333Y-447067619D01*
X161365714Y-447162857D01*
X161318095Y-447353333D01*
X161318095Y-447591428D01*
X161365714Y-447781904D01*
X161413333Y-447877142D01*
X161460952Y-447924761D01*
X161556190Y-447972380D01*
X161651428Y-447972380D01*
X161746666Y-447924761D01*
X161794285Y-447877142D01*
X161841904Y-447781904D01*
X161889523Y-447591428D01*
X161889523Y-447353333D01*
X161841904Y-447162857D01*
X161794285Y-447067619D01*
X161746666Y-447020000D01*
X161651428Y-446972380D01*
X160460952Y-446972380D02*
X160651428Y-446972380D01*
X160746666Y-447020000D01*
X160794285Y-447067619D01*
X160889523Y-447210476D01*
X160937142Y-447400952D01*
X160937142Y-447781904D01*
X160889523Y-447877142D01*
X160841904Y-447924761D01*
X160746666Y-447972380D01*
X160556190Y-447972380D01*
X160460952Y-447924761D01*
X160413333Y-447877142D01*
X160365714Y-447781904D01*
X160365714Y-447543809D01*
X160413333Y-447448571D01*
X160460952Y-447400952D01*
X160556190Y-447353333D01*
X160746666Y-447353333D01*
X160841904Y-447400952D01*
X160889523Y-447448571D01*
X160937142Y-447543809D01*
X159937142Y-447591428D02*
X159175238Y-447591428D01*
X158175238Y-447972380D02*
X158746666Y-447972380D01*
X158460952Y-447972380D02*
X158460952Y-446972380D01*
X158556190Y-447115238D01*
X158651428Y-447210476D01*
X158746666Y-447258095D01*
X157318095Y-447305714D02*
X157318095Y-447972380D01*
X157556190Y-446924761D02*
X157794285Y-447639047D01*
X157175238Y-447639047D01*
D11*
X213056922Y-458483959D02*
X212535913Y-456553014D01*
X207264087Y-460046986D02*
X206743078Y-458116041D01*
X208750568Y-461717427D02*
X212612459Y-460675409D01*
X207187541Y-455924591D02*
X211049432Y-454882573D01*
D12*
X167850000Y-428040000D02*
X169150000Y-428040000D01*
X170098000Y-421673000D02*
X170098000Y-428177000D01*
X173602000Y-421673000D02*
X170098000Y-421673000D01*
X173602000Y-428177000D02*
X173602000Y-421673000D01*
X170098000Y-428177000D02*
X173602000Y-428177000D01*
D13*
X164682064Y-427790000D02*
X163477936Y-427790000D01*
X164682064Y-425070000D02*
X163477936Y-425070000D01*
D11*
X203356922Y-461083959D02*
X202835913Y-459153014D01*
X197564087Y-462646986D02*
X197043078Y-460716041D01*
X199050568Y-464317427D02*
X202912459Y-463275409D01*
X197487541Y-458524591D02*
X201349432Y-457482573D01*
D13*
X171015000Y-456877500D02*
X171015000Y-456227500D01*
X178235000Y-463447500D02*
X177585000Y-463447500D01*
X178235000Y-462797500D02*
X178235000Y-463447500D01*
X178235000Y-456227500D02*
X177585000Y-456227500D01*
X178235000Y-456877500D02*
X178235000Y-456227500D01*
X171015000Y-463447500D02*
X171665000Y-463447500D01*
X171015000Y-462797500D02*
X171015000Y-463447500D01*
X167805000Y-391720000D02*
X167805000Y-389920000D01*
X167805000Y-386210000D02*
X167805000Y-387670000D01*
X176745000Y-386210000D02*
X176745000Y-387670000D01*
X176745000Y-391720000D02*
X176745000Y-389920000D01*
X176745000Y-386210000D02*
X167805000Y-386210000D01*
X177880000Y-388530000D02*
X177880000Y-389860000D01*
X179210000Y-388530000D02*
X177880000Y-388530000D01*
X180480000Y-388530000D02*
X180480000Y-391190000D01*
X180480000Y-391190000D02*
X188160000Y-391190000D01*
X180480000Y-388530000D02*
X188160000Y-388530000D01*
X188160000Y-388530000D02*
X188160000Y-391190000D01*
X171530000Y-412572064D02*
X171530000Y-411367936D01*
X173350000Y-412572064D02*
X173350000Y-411367936D01*
X164222759Y-472042071D02*
X164566989Y-473326752D01*
X165507441Y-471697842D02*
X164222759Y-472042071D01*
X166734166Y-471369141D02*
X167422625Y-473938504D01*
X167422625Y-473938504D02*
X174840935Y-471950774D01*
X166734166Y-471369141D02*
X174152477Y-469381411D01*
X174152477Y-469381411D02*
X174840935Y-471950774D01*
D12*
X157900000Y-455555000D02*
X157900000Y-457205000D01*
X163120000Y-457555000D02*
X157840000Y-457555000D01*
X163120000Y-462405000D02*
X163120000Y-457555000D01*
X157840000Y-462405000D02*
X163120000Y-462405000D01*
X157840000Y-457555000D02*
X157840000Y-462405000D01*
D14*
X187935880Y-463630000D02*
G75*
G03X187935880Y-463630000I-125880J0D01*
G01*
D12*
X188700000Y-449825000D02*
X187600000Y-449825000D01*
X183900000Y-449825000D02*
X185000000Y-449825000D01*
X183900000Y-461225000D02*
X185000000Y-461225000D01*
X188700000Y-461225000D02*
X187600000Y-461225000D01*
X183900000Y-461225000D02*
X183900000Y-449825000D01*
X188700000Y-461225000D02*
X188700000Y-449825000D01*
D13*
X187689012Y-411172011D02*
X187689012Y-409842011D01*
X186359012Y-411172011D02*
X187689012Y-411172011D01*
X185089012Y-411172011D02*
X185089012Y-408512011D01*
X185089012Y-408512011D02*
X177409012Y-408512011D01*
X185089012Y-411172011D02*
X177409012Y-411172011D01*
X177409012Y-411172011D02*
X177409012Y-408512011D01*
X229742025Y-449780322D02*
X228412025Y-449780322D01*
X229742025Y-451110322D02*
X229742025Y-449780322D01*
X229742025Y-452380322D02*
X227082025Y-452380322D01*
X227082025Y-452380322D02*
X227082025Y-460060322D01*
X229742025Y-452380322D02*
X229742025Y-460060322D01*
X229742025Y-460060322D02*
X227082025Y-460060322D01*
X187386722Y-430287847D02*
X187386722Y-428957847D01*
X186056722Y-430287847D02*
X187386722Y-430287847D01*
X184786722Y-430287847D02*
X184786722Y-427627847D01*
X184786722Y-427627847D02*
X177106722Y-427627847D01*
X184786722Y-430287847D02*
X177106722Y-430287847D01*
X177106722Y-430287847D02*
X177106722Y-427627847D01*
X154128726Y-399710794D02*
X155458726Y-399710794D01*
X154128726Y-398380794D02*
X154128726Y-399710794D01*
X154128726Y-397110794D02*
X156788726Y-397110794D01*
X156788726Y-397110794D02*
X156788726Y-389430794D01*
X154128726Y-397110794D02*
X154128726Y-389430794D01*
X154128726Y-389430794D02*
X156788726Y-389430794D01*
D12*
X157750000Y-403150000D02*
G75*
G03X157750000Y-403050000I0J50000D01*
G01*
X157750000Y-403050000D02*
G75*
G03X157750000Y-403150000I0J-50000D01*
G01*
X157750000Y-403150000D02*
G75*
G03X157750000Y-403050000I0J50000D01*
G01*
X157750000Y-403050000D02*
X157750000Y-403050000D01*
X157750000Y-403150000D02*
X157750000Y-403150000D01*
X157750000Y-403050000D02*
X157750000Y-403050000D01*
D11*
X159350000Y-404575000D02*
X165100000Y-404575000D01*
X159350000Y-404575000D02*
X159350000Y-404575000D01*
X165100000Y-404575000D02*
X159350000Y-404575000D01*
X165100000Y-404575000D02*
X165100000Y-404575000D01*
X168850000Y-404575000D02*
X169850000Y-404575000D01*
X168850000Y-404575000D02*
X168850000Y-404575000D01*
X169850000Y-404575000D02*
X168850000Y-404575000D01*
X169850000Y-404575000D02*
X169850000Y-404575000D01*
X169850000Y-410575000D02*
X169850000Y-410575000D01*
X169850000Y-404575000D02*
X169850000Y-410575000D01*
X169850000Y-404575000D02*
X169850000Y-404575000D01*
X169850000Y-410575000D02*
X169850000Y-404575000D01*
X169850000Y-410575000D02*
X161100000Y-410575000D01*
X169850000Y-410575000D02*
X169850000Y-410575000D01*
X161100000Y-410575000D02*
X169850000Y-410575000D01*
X161100000Y-410575000D02*
X161100000Y-410575000D01*
X158100000Y-410575000D02*
X155350000Y-410575000D01*
X158100000Y-410575000D02*
X158100000Y-410575000D01*
X155350000Y-410575000D02*
X158100000Y-410575000D01*
X155350000Y-410575000D02*
X155350000Y-410575000D01*
X155350000Y-410100000D02*
X155350000Y-410100000D01*
X155350000Y-410575000D02*
X155350000Y-410100000D01*
X155350000Y-410575000D02*
X155350000Y-410575000D01*
X155350000Y-410100000D02*
X155350000Y-410575000D01*
X152850000Y-405050000D02*
X155350000Y-405050000D01*
X152850000Y-410075000D02*
X152850000Y-405050000D01*
X155350000Y-410075000D02*
X152850000Y-410075000D01*
X155350000Y-405050000D02*
X155350000Y-410075000D01*
X155350000Y-404575000D02*
X155350000Y-404575000D01*
X155350000Y-405050000D02*
X155350000Y-404575000D01*
X155350000Y-405050000D02*
X155350000Y-405050000D01*
X155350000Y-404575000D02*
X155350000Y-405050000D01*
X155350000Y-404575000D02*
X156350000Y-404575000D01*
X155350000Y-404575000D02*
X155350000Y-404575000D01*
X156350000Y-404575000D02*
X155350000Y-404575000D01*
X156350000Y-404575000D02*
X156350000Y-404575000D01*
D13*
X154082019Y-431060280D02*
X155412019Y-431060280D01*
X154082019Y-429730280D02*
X154082019Y-431060280D01*
X154082019Y-428460280D02*
X156742019Y-428460280D01*
X156742019Y-428460280D02*
X156742019Y-420780280D01*
X154082019Y-428460280D02*
X154082019Y-420780280D01*
X154082019Y-420780280D02*
X156742019Y-420780280D01*
D14*
X215459177Y-460064755D02*
X215299767Y-460170406D01*
X215257133Y-460244549D01*
X215230254Y-460377079D01*
X215277517Y-460552243D01*
X215367414Y-460653265D01*
X215441556Y-460695899D01*
X215574087Y-460722779D01*
X216041191Y-460596744D01*
X215710351Y-459370594D01*
X215301634Y-459480874D01*
X215200612Y-459570771D01*
X215157978Y-459644913D01*
X215131099Y-459777444D01*
X215162607Y-459894220D01*
X215252504Y-459995242D01*
X215326647Y-460037876D01*
X215459177Y-460064755D01*
X215867894Y-459954475D01*
X214250648Y-459764452D02*
X214017096Y-459827469D01*
X213916074Y-459917366D01*
X213830806Y-460065651D01*
X213835435Y-460314957D01*
X213945716Y-460723674D01*
X214067121Y-460941472D01*
X214215406Y-461026740D01*
X214347936Y-461053619D01*
X214581489Y-460990602D01*
X214682511Y-460900705D01*
X214767778Y-460752420D01*
X214763149Y-460503114D01*
X214652869Y-460094397D01*
X214531463Y-459876599D01*
X214383179Y-459791331D01*
X214250648Y-459764452D01*
X212966110Y-460111047D02*
X212732557Y-460174064D01*
X212631535Y-460263961D01*
X212546268Y-460412246D01*
X212550897Y-460661552D01*
X212661177Y-461070269D01*
X212782583Y-461288067D01*
X212930867Y-461373335D01*
X213063398Y-461400214D01*
X213296950Y-461337197D01*
X213397972Y-461247300D01*
X213483240Y-461099015D01*
X213478611Y-460849709D01*
X213368330Y-460440992D01*
X213246925Y-460223194D01*
X213098640Y-460137926D01*
X212966110Y-460111047D01*
X212090288Y-460347362D02*
X211389631Y-460536413D01*
X212070800Y-461668038D02*
X211739959Y-460441888D01*
X211354389Y-461798701D02*
X211194979Y-461904353D01*
X210903038Y-461983124D01*
X210770507Y-461956245D01*
X210696365Y-461913611D01*
X210606468Y-461812589D01*
X210574960Y-461695813D01*
X210601839Y-461563282D01*
X210644473Y-461489140D01*
X210745495Y-461399243D01*
X210963293Y-461277838D01*
X211064315Y-461187941D01*
X211106949Y-461113799D01*
X211133828Y-460981268D01*
X211102319Y-460864492D01*
X211012423Y-460763470D01*
X210938280Y-460720836D01*
X210805750Y-460693957D01*
X210513809Y-460772728D01*
X210354399Y-460878379D01*
X209970695Y-461545661D02*
X209561978Y-461655941D01*
X209560112Y-462345474D02*
X210143993Y-462187930D01*
X209813152Y-460961780D01*
X209229271Y-461119323D01*
X208450738Y-462644806D02*
X209034619Y-462487262D01*
X208703778Y-461261112D01*
X207801077Y-461629958D02*
X207726934Y-461587324D01*
X207594404Y-461560444D01*
X207302463Y-461639216D01*
X207201441Y-461729113D01*
X207158808Y-461803255D01*
X207131928Y-461935786D01*
X207163437Y-462052562D01*
X207269088Y-462211972D01*
X208158797Y-462723577D01*
X207399752Y-462928383D01*
X172817619Y-424229523D02*
X172817619Y-425257619D01*
X172757142Y-425378571D01*
X172696666Y-425439047D01*
X172575714Y-425499523D01*
X172333809Y-425499523D01*
X172212857Y-425439047D01*
X172152380Y-425378571D01*
X172091904Y-425257619D01*
X172091904Y-424229523D01*
X171547619Y-424350476D02*
X171487142Y-424290000D01*
X171366190Y-424229523D01*
X171063809Y-424229523D01*
X170942857Y-424290000D01*
X170882380Y-424350476D01*
X170821904Y-424471428D01*
X170821904Y-424592380D01*
X170882380Y-424773809D01*
X171608095Y-425499523D01*
X170821904Y-425499523D01*
D10*
X164722857Y-424507142D02*
X164770476Y-424554761D01*
X164913333Y-424602380D01*
X165008571Y-424602380D01*
X165151428Y-424554761D01*
X165246666Y-424459523D01*
X165294285Y-424364285D01*
X165341904Y-424173809D01*
X165341904Y-424030952D01*
X165294285Y-423840476D01*
X165246666Y-423745238D01*
X165151428Y-423650000D01*
X165008571Y-423602380D01*
X164913333Y-423602380D01*
X164770476Y-423650000D01*
X164722857Y-423697619D01*
X163770476Y-424602380D02*
X164341904Y-424602380D01*
X164056190Y-424602380D02*
X164056190Y-423602380D01*
X164151428Y-423745238D01*
X164246666Y-423840476D01*
X164341904Y-423888095D01*
X163199047Y-424030952D02*
X163294285Y-423983333D01*
X163341904Y-423935714D01*
X163389523Y-423840476D01*
X163389523Y-423792857D01*
X163341904Y-423697619D01*
X163294285Y-423650000D01*
X163199047Y-423602380D01*
X163008571Y-423602380D01*
X162913333Y-423650000D01*
X162865714Y-423697619D01*
X162818095Y-423792857D01*
X162818095Y-423840476D01*
X162865714Y-423935714D01*
X162913333Y-423983333D01*
X163008571Y-424030952D01*
X163199047Y-424030952D01*
X163294285Y-424078571D01*
X163341904Y-424126190D01*
X163389523Y-424221428D01*
X163389523Y-424411904D01*
X163341904Y-424507142D01*
X163294285Y-424554761D01*
X163199047Y-424602380D01*
X163008571Y-424602380D01*
X162913333Y-424554761D01*
X162865714Y-424507142D01*
X162818095Y-424411904D01*
X162818095Y-424221428D01*
X162865714Y-424126190D01*
X162913333Y-424078571D01*
X163008571Y-424030952D01*
D14*
X202538562Y-464352951D02*
X202789736Y-463658790D01*
X203239220Y-464163900D02*
X202908379Y-462937749D01*
X202441274Y-463063784D01*
X202340252Y-463153681D01*
X202297618Y-463227823D01*
X202270739Y-463360354D01*
X202318002Y-463535518D01*
X202407899Y-463636540D01*
X202482041Y-463679174D01*
X202614571Y-463706053D01*
X203081676Y-463580018D01*
X201682229Y-463268590D02*
X201950052Y-464261188D01*
X201923173Y-464393718D01*
X201880539Y-464467861D01*
X201779517Y-464557758D01*
X201545964Y-464620775D01*
X201413434Y-464593895D01*
X201339291Y-464551262D01*
X201249395Y-464450240D01*
X200981571Y-463457642D01*
X200728531Y-464841335D02*
X200397690Y-463615185D01*
X200027874Y-465030387D01*
X199697033Y-463804237D01*
X199203049Y-464062802D02*
X199128906Y-464020168D01*
X198996376Y-463993289D01*
X198704435Y-464072060D01*
X198603413Y-464161957D01*
X198560779Y-464236099D01*
X198533900Y-464368630D01*
X198565409Y-464485406D01*
X198671060Y-464644816D01*
X199560769Y-465156422D01*
X198801723Y-465361228D01*
D10*
X170257380Y-458861309D02*
X169257380Y-458861309D01*
X170162142Y-459908928D02*
X170209761Y-459861309D01*
X170257380Y-459718452D01*
X170257380Y-459623214D01*
X170209761Y-459480357D01*
X170114523Y-459385119D01*
X170019285Y-459337500D01*
X169828809Y-459289880D01*
X169685952Y-459289880D01*
X169495476Y-459337500D01*
X169400238Y-459385119D01*
X169305000Y-459480357D01*
X169257380Y-459623214D01*
X169257380Y-459718452D01*
X169305000Y-459861309D01*
X169352619Y-459908928D01*
X169257380Y-460242261D02*
X169257380Y-460861309D01*
X169638333Y-460527976D01*
X169638333Y-460670833D01*
X169685952Y-460766071D01*
X169733571Y-460813690D01*
X169828809Y-460861309D01*
X170066904Y-460861309D01*
X170162142Y-460813690D01*
X170209761Y-460766071D01*
X170257380Y-460670833D01*
X170257380Y-460385119D01*
X170209761Y-460289880D01*
X170162142Y-460242261D01*
X173084523Y-395082380D02*
X173084523Y-395796666D01*
X173132142Y-395939523D01*
X173227380Y-396034761D01*
X173370238Y-396082380D01*
X173465476Y-396082380D01*
X172703571Y-395082380D02*
X172084523Y-395082380D01*
X172417857Y-395463333D01*
X172275000Y-395463333D01*
X172179761Y-395510952D01*
X172132142Y-395558571D01*
X172084523Y-395653809D01*
X172084523Y-395891904D01*
X172132142Y-395987142D01*
X172179761Y-396034761D01*
X172275000Y-396082380D01*
X172560714Y-396082380D01*
X172655952Y-396034761D01*
X172703571Y-395987142D01*
X171751190Y-395082380D02*
X171084523Y-395082380D01*
X171513095Y-396082380D01*
X176332380Y-389050476D02*
X177046666Y-389050476D01*
X177189523Y-389002857D01*
X177284761Y-388907619D01*
X177332380Y-388764761D01*
X177332380Y-388669523D01*
X176332380Y-390002857D02*
X176332380Y-389526666D01*
X176808571Y-389479047D01*
X176760952Y-389526666D01*
X176713333Y-389621904D01*
X176713333Y-389860000D01*
X176760952Y-389955238D01*
X176808571Y-390002857D01*
X176903809Y-390050476D01*
X177141904Y-390050476D01*
X177237142Y-390002857D01*
X177284761Y-389955238D01*
X177332380Y-389860000D01*
X177332380Y-389621904D01*
X177284761Y-389526666D01*
X177237142Y-389479047D01*
X176427619Y-390431428D02*
X176380000Y-390479047D01*
X176332380Y-390574285D01*
X176332380Y-390812380D01*
X176380000Y-390907619D01*
X176427619Y-390955238D01*
X176522857Y-391002857D01*
X176618095Y-391002857D01*
X176760952Y-390955238D01*
X177332380Y-390383809D01*
X177332380Y-391002857D01*
X165506666Y-423072380D02*
X165840000Y-422596190D01*
X166078095Y-423072380D02*
X166078095Y-422072380D01*
X165697142Y-422072380D01*
X165601904Y-422120000D01*
X165554285Y-422167619D01*
X165506666Y-422262857D01*
X165506666Y-422405714D01*
X165554285Y-422500952D01*
X165601904Y-422548571D01*
X165697142Y-422596190D01*
X166078095Y-422596190D01*
X164601904Y-422072380D02*
X165078095Y-422072380D01*
X165125714Y-422548571D01*
X165078095Y-422500952D01*
X164982857Y-422453333D01*
X164744761Y-422453333D01*
X164649523Y-422500952D01*
X164601904Y-422548571D01*
X164554285Y-422643809D01*
X164554285Y-422881904D01*
X164601904Y-422977142D01*
X164649523Y-423024761D01*
X164744761Y-423072380D01*
X164982857Y-423072380D01*
X165078095Y-423024761D01*
X165125714Y-422977142D01*
X181817857Y-458952380D02*
X182151190Y-458476190D01*
X182389285Y-458952380D02*
X182389285Y-457952380D01*
X182008333Y-457952380D01*
X181913095Y-458000000D01*
X181865476Y-458047619D01*
X181817857Y-458142857D01*
X181817857Y-458285714D01*
X181865476Y-458380952D01*
X181913095Y-458428571D01*
X182008333Y-458476190D01*
X182389285Y-458476190D01*
X180865476Y-458952380D02*
X181436904Y-458952380D01*
X181151190Y-458952380D02*
X181151190Y-457952380D01*
X181246428Y-458095238D01*
X181341666Y-458190476D01*
X181436904Y-458238095D01*
X180008333Y-457952380D02*
X180198809Y-457952380D01*
X180294047Y-458000000D01*
X180341666Y-458047619D01*
X180436904Y-458190476D01*
X180484523Y-458380952D01*
X180484523Y-458761904D01*
X180436904Y-458857142D01*
X180389285Y-458904761D01*
X180294047Y-458952380D01*
X180103571Y-458952380D01*
X180008333Y-458904761D01*
X179960714Y-458857142D01*
X179913095Y-458761904D01*
X179913095Y-458523809D01*
X179960714Y-458428571D01*
X180008333Y-458380952D01*
X180103571Y-458333333D01*
X180294047Y-458333333D01*
X180389285Y-458380952D01*
X180436904Y-458428571D01*
X180484523Y-458523809D01*
X182517857Y-460107142D02*
X182565476Y-460154761D01*
X182708333Y-460202380D01*
X182803571Y-460202380D01*
X182946428Y-460154761D01*
X183041666Y-460059523D01*
X183089285Y-459964285D01*
X183136904Y-459773809D01*
X183136904Y-459630952D01*
X183089285Y-459440476D01*
X183041666Y-459345238D01*
X182946428Y-459250000D01*
X182803571Y-459202380D01*
X182708333Y-459202380D01*
X182565476Y-459250000D01*
X182517857Y-459297619D01*
X182136904Y-459297619D02*
X182089285Y-459250000D01*
X181994047Y-459202380D01*
X181755952Y-459202380D01*
X181660714Y-459250000D01*
X181613095Y-459297619D01*
X181565476Y-459392857D01*
X181565476Y-459488095D01*
X181613095Y-459630952D01*
X182184523Y-460202380D01*
X181565476Y-460202380D01*
X181184523Y-459297619D02*
X181136904Y-459250000D01*
X181041666Y-459202380D01*
X180803571Y-459202380D01*
X180708333Y-459250000D01*
X180660714Y-459297619D01*
X180613095Y-459392857D01*
X180613095Y-459488095D01*
X180660714Y-459630952D01*
X181232142Y-460202380D01*
X180613095Y-460202380D01*
X182522857Y-392082380D02*
X182856190Y-391606190D01*
X183094285Y-392082380D02*
X183094285Y-391082380D01*
X182713333Y-391082380D01*
X182618095Y-391130000D01*
X182570476Y-391177619D01*
X182522857Y-391272857D01*
X182522857Y-391415714D01*
X182570476Y-391510952D01*
X182618095Y-391558571D01*
X182713333Y-391606190D01*
X183094285Y-391606190D01*
X181570476Y-392082380D02*
X182141904Y-392082380D01*
X181856190Y-392082380D02*
X181856190Y-391082380D01*
X181951428Y-391225238D01*
X182046666Y-391320476D01*
X182141904Y-391368095D01*
X180951428Y-391082380D02*
X180856190Y-391082380D01*
X180760952Y-391130000D01*
X180713333Y-391177619D01*
X180665714Y-391272857D01*
X180618095Y-391463333D01*
X180618095Y-391701428D01*
X180665714Y-391891904D01*
X180713333Y-391987142D01*
X180760952Y-392034761D01*
X180856190Y-392082380D01*
X180951428Y-392082380D01*
X181046666Y-392034761D01*
X181094285Y-391987142D01*
X181141904Y-391891904D01*
X181189523Y-391701428D01*
X181189523Y-391463333D01*
X181141904Y-391272857D01*
X181094285Y-391177619D01*
X181046666Y-391130000D01*
X180951428Y-391082380D01*
X164432857Y-471307380D02*
X164766190Y-470831190D01*
X165004285Y-471307380D02*
X165004285Y-470307380D01*
X164623333Y-470307380D01*
X164528095Y-470355000D01*
X164480476Y-470402619D01*
X164432857Y-470497857D01*
X164432857Y-470640714D01*
X164480476Y-470735952D01*
X164528095Y-470783571D01*
X164623333Y-470831190D01*
X165004285Y-470831190D01*
X163480476Y-471307380D02*
X164051904Y-471307380D01*
X163766190Y-471307380D02*
X163766190Y-470307380D01*
X163861428Y-470450238D01*
X163956666Y-470545476D01*
X164051904Y-470593095D01*
X163099523Y-470402619D02*
X163051904Y-470355000D01*
X162956666Y-470307380D01*
X162718571Y-470307380D01*
X162623333Y-470355000D01*
X162575714Y-470402619D01*
X162528095Y-470497857D01*
X162528095Y-470593095D01*
X162575714Y-470735952D01*
X163147142Y-471307380D01*
X162528095Y-471307380D01*
X182017857Y-464407142D02*
X182065476Y-464454761D01*
X182208333Y-464502380D01*
X182303571Y-464502380D01*
X182446428Y-464454761D01*
X182541666Y-464359523D01*
X182589285Y-464264285D01*
X182636904Y-464073809D01*
X182636904Y-463930952D01*
X182589285Y-463740476D01*
X182541666Y-463645238D01*
X182446428Y-463550000D01*
X182303571Y-463502380D01*
X182208333Y-463502380D01*
X182065476Y-463550000D01*
X182017857Y-463597619D01*
X181636904Y-463597619D02*
X181589285Y-463550000D01*
X181494047Y-463502380D01*
X181255952Y-463502380D01*
X181160714Y-463550000D01*
X181113095Y-463597619D01*
X181065476Y-463692857D01*
X181065476Y-463788095D01*
X181113095Y-463930952D01*
X181684523Y-464502380D01*
X181065476Y-464502380D01*
X180494047Y-463930952D02*
X180589285Y-463883333D01*
X180636904Y-463835714D01*
X180684523Y-463740476D01*
X180684523Y-463692857D01*
X180636904Y-463597619D01*
X180589285Y-463550000D01*
X180494047Y-463502380D01*
X180303571Y-463502380D01*
X180208333Y-463550000D01*
X180160714Y-463597619D01*
X180113095Y-463692857D01*
X180113095Y-463740476D01*
X180160714Y-463835714D01*
X180208333Y-463883333D01*
X180303571Y-463930952D01*
X180494047Y-463930952D01*
X180589285Y-463978571D01*
X180636904Y-464026190D01*
X180684523Y-464121428D01*
X180684523Y-464311904D01*
X180636904Y-464407142D01*
X180589285Y-464454761D01*
X180494047Y-464502380D01*
X180303571Y-464502380D01*
X180208333Y-464454761D01*
X180160714Y-464407142D01*
X180113095Y-464311904D01*
X180113095Y-464121428D01*
X180160714Y-464026190D01*
X180208333Y-463978571D01*
X180303571Y-463930952D01*
X173127142Y-453182142D02*
X173174761Y-453134523D01*
X173222380Y-452991666D01*
X173222380Y-452896428D01*
X173174761Y-452753571D01*
X173079523Y-452658333D01*
X172984285Y-452610714D01*
X172793809Y-452563095D01*
X172650952Y-452563095D01*
X172460476Y-452610714D01*
X172365238Y-452658333D01*
X172270000Y-452753571D01*
X172222380Y-452896428D01*
X172222380Y-452991666D01*
X172270000Y-453134523D01*
X172317619Y-453182142D01*
X172317619Y-453563095D02*
X172270000Y-453610714D01*
X172222380Y-453705952D01*
X172222380Y-453944047D01*
X172270000Y-454039285D01*
X172317619Y-454086904D01*
X172412857Y-454134523D01*
X172508095Y-454134523D01*
X172650952Y-454086904D01*
X173222380Y-453515476D01*
X173222380Y-454134523D01*
X172222380Y-454467857D02*
X172222380Y-455134523D01*
X173222380Y-454705952D01*
X168692857Y-458032142D02*
X168740476Y-458079761D01*
X168883333Y-458127380D01*
X168978571Y-458127380D01*
X169121428Y-458079761D01*
X169216666Y-457984523D01*
X169264285Y-457889285D01*
X169311904Y-457698809D01*
X169311904Y-457555952D01*
X169264285Y-457365476D01*
X169216666Y-457270238D01*
X169121428Y-457175000D01*
X168978571Y-457127380D01*
X168883333Y-457127380D01*
X168740476Y-457175000D01*
X168692857Y-457222619D01*
X168311904Y-457222619D02*
X168264285Y-457175000D01*
X168169047Y-457127380D01*
X167930952Y-457127380D01*
X167835714Y-457175000D01*
X167788095Y-457222619D01*
X167740476Y-457317857D01*
X167740476Y-457413095D01*
X167788095Y-457555952D01*
X168359523Y-458127380D01*
X167740476Y-458127380D01*
X166883333Y-457127380D02*
X167073809Y-457127380D01*
X167169047Y-457175000D01*
X167216666Y-457222619D01*
X167311904Y-457365476D01*
X167359523Y-457555952D01*
X167359523Y-457936904D01*
X167311904Y-458032142D01*
X167264285Y-458079761D01*
X167169047Y-458127380D01*
X166978571Y-458127380D01*
X166883333Y-458079761D01*
X166835714Y-458032142D01*
X166788095Y-457936904D01*
X166788095Y-457698809D01*
X166835714Y-457603571D01*
X166883333Y-457555952D01*
X166978571Y-457508333D01*
X167169047Y-457508333D01*
X167264285Y-457555952D01*
X167311904Y-457603571D01*
X167359523Y-457698809D01*
X170627380Y-442542142D02*
X170151190Y-442208809D01*
X170627380Y-441970714D02*
X169627380Y-441970714D01*
X169627380Y-442351666D01*
X169675000Y-442446904D01*
X169722619Y-442494523D01*
X169817857Y-442542142D01*
X169960714Y-442542142D01*
X170055952Y-442494523D01*
X170103571Y-442446904D01*
X170151190Y-442351666D01*
X170151190Y-441970714D01*
X170627380Y-443494523D02*
X170627380Y-442923095D01*
X170627380Y-443208809D02*
X169627380Y-443208809D01*
X169770238Y-443113571D01*
X169865476Y-443018333D01*
X169913095Y-442923095D01*
X169627380Y-444399285D02*
X169627380Y-443923095D01*
X170103571Y-443875476D01*
X170055952Y-443923095D01*
X170008333Y-444018333D01*
X170008333Y-444256428D01*
X170055952Y-444351666D01*
X170103571Y-444399285D01*
X170198809Y-444446904D01*
X170436904Y-444446904D01*
X170532142Y-444399285D01*
X170579761Y-444351666D01*
X170627380Y-444256428D01*
X170627380Y-444018333D01*
X170579761Y-443923095D01*
X170532142Y-443875476D01*
X166662857Y-469232380D02*
X166996190Y-468756190D01*
X167234285Y-469232380D02*
X167234285Y-468232380D01*
X166853333Y-468232380D01*
X166758095Y-468280000D01*
X166710476Y-468327619D01*
X166662857Y-468422857D01*
X166662857Y-468565714D01*
X166710476Y-468660952D01*
X166758095Y-468708571D01*
X166853333Y-468756190D01*
X167234285Y-468756190D01*
X165710476Y-469232380D02*
X166281904Y-469232380D01*
X165996190Y-469232380D02*
X165996190Y-468232380D01*
X166091428Y-468375238D01*
X166186666Y-468470476D01*
X166281904Y-468518095D01*
X165377142Y-468232380D02*
X164758095Y-468232380D01*
X165091428Y-468613333D01*
X164948571Y-468613333D01*
X164853333Y-468660952D01*
X164805714Y-468708571D01*
X164758095Y-468803809D01*
X164758095Y-469041904D01*
X164805714Y-469137142D01*
X164853333Y-469184761D01*
X164948571Y-469232380D01*
X165234285Y-469232380D01*
X165329523Y-469184761D01*
X165377142Y-469137142D01*
X172027380Y-442567142D02*
X171551190Y-442233809D01*
X172027380Y-441995714D02*
X171027380Y-441995714D01*
X171027380Y-442376666D01*
X171075000Y-442471904D01*
X171122619Y-442519523D01*
X171217857Y-442567142D01*
X171360714Y-442567142D01*
X171455952Y-442519523D01*
X171503571Y-442471904D01*
X171551190Y-442376666D01*
X171551190Y-441995714D01*
X172027380Y-443519523D02*
X172027380Y-442948095D01*
X172027380Y-443233809D02*
X171027380Y-443233809D01*
X171170238Y-443138571D01*
X171265476Y-443043333D01*
X171313095Y-442948095D01*
X171360714Y-444376666D02*
X172027380Y-444376666D01*
X170979761Y-444138571D02*
X171694047Y-443900476D01*
X171694047Y-444519523D01*
X177357142Y-453172142D02*
X177404761Y-453124523D01*
X177452380Y-452981666D01*
X177452380Y-452886428D01*
X177404761Y-452743571D01*
X177309523Y-452648333D01*
X177214285Y-452600714D01*
X177023809Y-452553095D01*
X176880952Y-452553095D01*
X176690476Y-452600714D01*
X176595238Y-452648333D01*
X176500000Y-452743571D01*
X176452380Y-452886428D01*
X176452380Y-452981666D01*
X176500000Y-453124523D01*
X176547619Y-453172142D01*
X176452380Y-453505476D02*
X176452380Y-454124523D01*
X176833333Y-453791190D01*
X176833333Y-453934047D01*
X176880952Y-454029285D01*
X176928571Y-454076904D01*
X177023809Y-454124523D01*
X177261904Y-454124523D01*
X177357142Y-454076904D01*
X177404761Y-454029285D01*
X177452380Y-453934047D01*
X177452380Y-453648333D01*
X177404761Y-453553095D01*
X177357142Y-453505476D01*
X176547619Y-454505476D02*
X176500000Y-454553095D01*
X176452380Y-454648333D01*
X176452380Y-454886428D01*
X176500000Y-454981666D01*
X176547619Y-455029285D01*
X176642857Y-455076904D01*
X176738095Y-455076904D01*
X176880952Y-455029285D01*
X177452380Y-454457857D01*
X177452380Y-455076904D01*
X179402857Y-466232142D02*
X179450476Y-466279761D01*
X179593333Y-466327380D01*
X179688571Y-466327380D01*
X179831428Y-466279761D01*
X179926666Y-466184523D01*
X179974285Y-466089285D01*
X180021904Y-465898809D01*
X180021904Y-465755952D01*
X179974285Y-465565476D01*
X179926666Y-465470238D01*
X179831428Y-465375000D01*
X179688571Y-465327380D01*
X179593333Y-465327380D01*
X179450476Y-465375000D01*
X179402857Y-465422619D01*
X179069523Y-465327380D02*
X178450476Y-465327380D01*
X178783809Y-465708333D01*
X178640952Y-465708333D01*
X178545714Y-465755952D01*
X178498095Y-465803571D01*
X178450476Y-465898809D01*
X178450476Y-466136904D01*
X178498095Y-466232142D01*
X178545714Y-466279761D01*
X178640952Y-466327380D01*
X178926666Y-466327380D01*
X179021904Y-466279761D01*
X179069523Y-466232142D01*
X177498095Y-466327380D02*
X178069523Y-466327380D01*
X177783809Y-466327380D02*
X177783809Y-465327380D01*
X177879047Y-465470238D01*
X177974285Y-465565476D01*
X178069523Y-465613095D01*
X170617857Y-463032142D02*
X170665476Y-463079761D01*
X170808333Y-463127380D01*
X170903571Y-463127380D01*
X171046428Y-463079761D01*
X171141666Y-462984523D01*
X171189285Y-462889285D01*
X171236904Y-462698809D01*
X171236904Y-462555952D01*
X171189285Y-462365476D01*
X171141666Y-462270238D01*
X171046428Y-462175000D01*
X170903571Y-462127380D01*
X170808333Y-462127380D01*
X170665476Y-462175000D01*
X170617857Y-462222619D01*
X170236904Y-462222619D02*
X170189285Y-462175000D01*
X170094047Y-462127380D01*
X169855952Y-462127380D01*
X169760714Y-462175000D01*
X169713095Y-462222619D01*
X169665476Y-462317857D01*
X169665476Y-462413095D01*
X169713095Y-462555952D01*
X170284523Y-463127380D01*
X169665476Y-463127380D01*
X168760714Y-462127380D02*
X169236904Y-462127380D01*
X169284523Y-462603571D01*
X169236904Y-462555952D01*
X169141666Y-462508333D01*
X168903571Y-462508333D01*
X168808333Y-462555952D01*
X168760714Y-462603571D01*
X168713095Y-462698809D01*
X168713095Y-462936904D01*
X168760714Y-463032142D01*
X168808333Y-463079761D01*
X168903571Y-463127380D01*
X169141666Y-463127380D01*
X169236904Y-463079761D01*
X169284523Y-463032142D01*
X170657142Y-468297142D02*
X170704761Y-468249523D01*
X170752380Y-468106666D01*
X170752380Y-468011428D01*
X170704761Y-467868571D01*
X170609523Y-467773333D01*
X170514285Y-467725714D01*
X170323809Y-467678095D01*
X170180952Y-467678095D01*
X169990476Y-467725714D01*
X169895238Y-467773333D01*
X169800000Y-467868571D01*
X169752380Y-468011428D01*
X169752380Y-468106666D01*
X169800000Y-468249523D01*
X169847619Y-468297142D01*
X169847619Y-468678095D02*
X169800000Y-468725714D01*
X169752380Y-468820952D01*
X169752380Y-469059047D01*
X169800000Y-469154285D01*
X169847619Y-469201904D01*
X169942857Y-469249523D01*
X170038095Y-469249523D01*
X170180952Y-469201904D01*
X170752380Y-468630476D01*
X170752380Y-469249523D01*
X169752380Y-469582857D02*
X169752380Y-470201904D01*
X170133333Y-469868571D01*
X170133333Y-470011428D01*
X170180952Y-470106666D01*
X170228571Y-470154285D01*
X170323809Y-470201904D01*
X170561904Y-470201904D01*
X170657142Y-470154285D01*
X170704761Y-470106666D01*
X170752380Y-470011428D01*
X170752380Y-469725714D01*
X170704761Y-469630476D01*
X170657142Y-469582857D01*
X170537857Y-462157142D02*
X170585476Y-462204761D01*
X170728333Y-462252380D01*
X170823571Y-462252380D01*
X170966428Y-462204761D01*
X171061666Y-462109523D01*
X171109285Y-462014285D01*
X171156904Y-461823809D01*
X171156904Y-461680952D01*
X171109285Y-461490476D01*
X171061666Y-461395238D01*
X170966428Y-461300000D01*
X170823571Y-461252380D01*
X170728333Y-461252380D01*
X170585476Y-461300000D01*
X170537857Y-461347619D01*
X170156904Y-461347619D02*
X170109285Y-461300000D01*
X170014047Y-461252380D01*
X169775952Y-461252380D01*
X169680714Y-461300000D01*
X169633095Y-461347619D01*
X169585476Y-461442857D01*
X169585476Y-461538095D01*
X169633095Y-461680952D01*
X170204523Y-462252380D01*
X169585476Y-462252380D01*
X168728333Y-461585714D02*
X168728333Y-462252380D01*
X168966428Y-461204761D02*
X169204523Y-461919047D01*
X168585476Y-461919047D01*
X182527857Y-393162380D02*
X182861190Y-392686190D01*
X183099285Y-393162380D02*
X183099285Y-392162380D01*
X182718333Y-392162380D01*
X182623095Y-392210000D01*
X182575476Y-392257619D01*
X182527857Y-392352857D01*
X182527857Y-392495714D01*
X182575476Y-392590952D01*
X182623095Y-392638571D01*
X182718333Y-392686190D01*
X183099285Y-392686190D01*
X181575476Y-393162380D02*
X182146904Y-393162380D01*
X181861190Y-393162380D02*
X181861190Y-392162380D01*
X181956428Y-392305238D01*
X182051666Y-392400476D01*
X182146904Y-392448095D01*
X180623095Y-393162380D02*
X181194523Y-393162380D01*
X180908809Y-393162380D02*
X180908809Y-392162380D01*
X181004047Y-392305238D01*
X181099285Y-392400476D01*
X181194523Y-392448095D01*
X182417857Y-456407142D02*
X182465476Y-456454761D01*
X182608333Y-456502380D01*
X182703571Y-456502380D01*
X182846428Y-456454761D01*
X182941666Y-456359523D01*
X182989285Y-456264285D01*
X183036904Y-456073809D01*
X183036904Y-455930952D01*
X182989285Y-455740476D01*
X182941666Y-455645238D01*
X182846428Y-455550000D01*
X182703571Y-455502380D01*
X182608333Y-455502380D01*
X182465476Y-455550000D01*
X182417857Y-455597619D01*
X182036904Y-455597619D02*
X181989285Y-455550000D01*
X181894047Y-455502380D01*
X181655952Y-455502380D01*
X181560714Y-455550000D01*
X181513095Y-455597619D01*
X181465476Y-455692857D01*
X181465476Y-455788095D01*
X181513095Y-455930952D01*
X182084523Y-456502380D01*
X181465476Y-456502380D01*
X180513095Y-456502380D02*
X181084523Y-456502380D01*
X180798809Y-456502380D02*
X180798809Y-455502380D01*
X180894047Y-455645238D01*
X180989285Y-455740476D01*
X181084523Y-455788095D01*
X174188571Y-411636666D02*
X174188571Y-411303333D01*
X174712380Y-411303333D02*
X173712380Y-411303333D01*
X173712380Y-411779523D01*
X173807619Y-412112857D02*
X173760000Y-412160476D01*
X173712380Y-412255714D01*
X173712380Y-412493809D01*
X173760000Y-412589047D01*
X173807619Y-412636666D01*
X173902857Y-412684285D01*
X173998095Y-412684285D01*
X174140952Y-412636666D01*
X174712380Y-412065238D01*
X174712380Y-412684285D01*
X182067857Y-463107142D02*
X182115476Y-463154761D01*
X182258333Y-463202380D01*
X182353571Y-463202380D01*
X182496428Y-463154761D01*
X182591666Y-463059523D01*
X182639285Y-462964285D01*
X182686904Y-462773809D01*
X182686904Y-462630952D01*
X182639285Y-462440476D01*
X182591666Y-462345238D01*
X182496428Y-462250000D01*
X182353571Y-462202380D01*
X182258333Y-462202380D01*
X182115476Y-462250000D01*
X182067857Y-462297619D01*
X181686904Y-462297619D02*
X181639285Y-462250000D01*
X181544047Y-462202380D01*
X181305952Y-462202380D01*
X181210714Y-462250000D01*
X181163095Y-462297619D01*
X181115476Y-462392857D01*
X181115476Y-462488095D01*
X181163095Y-462630952D01*
X181734523Y-463202380D01*
X181115476Y-463202380D01*
X180639285Y-463202380D02*
X180448809Y-463202380D01*
X180353571Y-463154761D01*
X180305952Y-463107142D01*
X180210714Y-462964285D01*
X180163095Y-462773809D01*
X180163095Y-462392857D01*
X180210714Y-462297619D01*
X180258333Y-462250000D01*
X180353571Y-462202380D01*
X180544047Y-462202380D01*
X180639285Y-462250000D01*
X180686904Y-462297619D01*
X180734523Y-462392857D01*
X180734523Y-462630952D01*
X180686904Y-462726190D01*
X180639285Y-462773809D01*
X180544047Y-462821428D01*
X180353571Y-462821428D01*
X180258333Y-462773809D01*
X180210714Y-462726190D01*
X180163095Y-462630952D01*
X159757142Y-424943333D02*
X159804761Y-424895714D01*
X159852380Y-424752857D01*
X159852380Y-424657619D01*
X159804761Y-424514761D01*
X159709523Y-424419523D01*
X159614285Y-424371904D01*
X159423809Y-424324285D01*
X159280952Y-424324285D01*
X159090476Y-424371904D01*
X158995238Y-424419523D01*
X158900000Y-424514761D01*
X158852380Y-424657619D01*
X158852380Y-424752857D01*
X158900000Y-424895714D01*
X158947619Y-424943333D01*
X159280952Y-425514761D02*
X159233333Y-425419523D01*
X159185714Y-425371904D01*
X159090476Y-425324285D01*
X159042857Y-425324285D01*
X158947619Y-425371904D01*
X158900000Y-425419523D01*
X158852380Y-425514761D01*
X158852380Y-425705238D01*
X158900000Y-425800476D01*
X158947619Y-425848095D01*
X159042857Y-425895714D01*
X159090476Y-425895714D01*
X159185714Y-425848095D01*
X159233333Y-425800476D01*
X159280952Y-425705238D01*
X159280952Y-425514761D01*
X159328571Y-425419523D01*
X159376190Y-425371904D01*
X159471428Y-425324285D01*
X159661904Y-425324285D01*
X159757142Y-425371904D01*
X159804761Y-425419523D01*
X159852380Y-425514761D01*
X159852380Y-425705238D01*
X159804761Y-425800476D01*
X159757142Y-425848095D01*
X159661904Y-425895714D01*
X159471428Y-425895714D01*
X159376190Y-425848095D01*
X159328571Y-425800476D01*
X159280952Y-425705238D01*
X168307857Y-461282142D02*
X168355476Y-461329761D01*
X168498333Y-461377380D01*
X168593571Y-461377380D01*
X168736428Y-461329761D01*
X168831666Y-461234523D01*
X168879285Y-461139285D01*
X168926904Y-460948809D01*
X168926904Y-460805952D01*
X168879285Y-460615476D01*
X168831666Y-460520238D01*
X168736428Y-460425000D01*
X168593571Y-460377380D01*
X168498333Y-460377380D01*
X168355476Y-460425000D01*
X168307857Y-460472619D01*
X167926904Y-460472619D02*
X167879285Y-460425000D01*
X167784047Y-460377380D01*
X167545952Y-460377380D01*
X167450714Y-460425000D01*
X167403095Y-460472619D01*
X167355476Y-460567857D01*
X167355476Y-460663095D01*
X167403095Y-460805952D01*
X167974523Y-461377380D01*
X167355476Y-461377380D01*
X166736428Y-460377380D02*
X166641190Y-460377380D01*
X166545952Y-460425000D01*
X166498333Y-460472619D01*
X166450714Y-460567857D01*
X166403095Y-460758333D01*
X166403095Y-460996428D01*
X166450714Y-461186904D01*
X166498333Y-461282142D01*
X166545952Y-461329761D01*
X166641190Y-461377380D01*
X166736428Y-461377380D01*
X166831666Y-461329761D01*
X166879285Y-461282142D01*
X166926904Y-461186904D01*
X166974523Y-460996428D01*
X166974523Y-460758333D01*
X166926904Y-460567857D01*
X166879285Y-460472619D01*
X166831666Y-460425000D01*
X166736428Y-460377380D01*
X159452857Y-465547142D02*
X159500476Y-465594761D01*
X159643333Y-465642380D01*
X159738571Y-465642380D01*
X159881428Y-465594761D01*
X159976666Y-465499523D01*
X160024285Y-465404285D01*
X160071904Y-465213809D01*
X160071904Y-465070952D01*
X160024285Y-464880476D01*
X159976666Y-464785238D01*
X159881428Y-464690000D01*
X159738571Y-464642380D01*
X159643333Y-464642380D01*
X159500476Y-464690000D01*
X159452857Y-464737619D01*
X158500476Y-465642380D02*
X159071904Y-465642380D01*
X158786190Y-465642380D02*
X158786190Y-464642380D01*
X158881428Y-464785238D01*
X158976666Y-464880476D01*
X159071904Y-464928095D01*
X158024285Y-465642380D02*
X157833809Y-465642380D01*
X157738571Y-465594761D01*
X157690952Y-465547142D01*
X157595714Y-465404285D01*
X157548095Y-465213809D01*
X157548095Y-464832857D01*
X157595714Y-464737619D01*
X157643333Y-464690000D01*
X157738571Y-464642380D01*
X157929047Y-464642380D01*
X158024285Y-464690000D01*
X158071904Y-464737619D01*
X158119523Y-464832857D01*
X158119523Y-465070952D01*
X158071904Y-465166190D01*
X158024285Y-465213809D01*
X157929047Y-465261428D01*
X157738571Y-465261428D01*
X157643333Y-465213809D01*
X157595714Y-465166190D01*
X157548095Y-465070952D01*
X164339542Y-474225776D02*
X163649595Y-474410647D01*
X163523930Y-474493618D01*
X163456587Y-474610260D01*
X163447565Y-474760574D01*
X163472214Y-474852567D01*
X163114797Y-473518669D02*
X163262694Y-474070627D01*
X163188745Y-473794648D02*
X164154671Y-473535829D01*
X164041331Y-473664796D01*
X163973988Y-473781439D01*
X163952641Y-473885756D01*
X163890132Y-472916528D02*
X163923804Y-472858207D01*
X163945151Y-472753889D01*
X163883528Y-472523907D01*
X163812882Y-472444239D01*
X163754560Y-472410567D01*
X163650243Y-472389220D01*
X163558250Y-472413869D01*
X163432585Y-472496840D01*
X163028524Y-473196694D01*
X162868303Y-472598740D01*
D14*
X158529523Y-452515238D02*
X157259523Y-452515238D01*
X158408571Y-453845714D02*
X158469047Y-453785238D01*
X158529523Y-453603809D01*
X158529523Y-453482857D01*
X158469047Y-453301428D01*
X158348095Y-453180476D01*
X158227142Y-453120000D01*
X157985238Y-453059523D01*
X157803809Y-453059523D01*
X157561904Y-453120000D01*
X157440952Y-453180476D01*
X157320000Y-453301428D01*
X157259523Y-453482857D01*
X157259523Y-453603809D01*
X157320000Y-453785238D01*
X157380476Y-453845714D01*
X157682857Y-454934285D02*
X158529523Y-454934285D01*
X157199047Y-454631904D02*
X158106190Y-454329523D01*
X158106190Y-455115714D01*
X186320021Y-455292068D02*
X186924783Y-455292068D01*
X185654783Y-454868734D02*
X186320021Y-455292068D01*
X185654783Y-455715401D01*
X185775736Y-456078258D02*
X185715260Y-456138734D01*
X185654783Y-456259687D01*
X185654783Y-456562068D01*
X185715260Y-456683020D01*
X185775736Y-456743496D01*
X185896688Y-456803972D01*
X186017640Y-456803972D01*
X186199069Y-456743496D01*
X186924783Y-456017782D01*
X186924783Y-456803972D01*
D10*
X188141392Y-409032487D02*
X188855678Y-409032487D01*
X188998535Y-408984868D01*
X189093773Y-408889630D01*
X189141392Y-408746772D01*
X189141392Y-408651534D01*
X188236631Y-409461058D02*
X188189012Y-409508677D01*
X188141392Y-409603915D01*
X188141392Y-409842011D01*
X188189012Y-409937249D01*
X188236631Y-409984868D01*
X188331869Y-410032487D01*
X188427107Y-410032487D01*
X188569964Y-409984868D01*
X189141392Y-409413439D01*
X189141392Y-410032487D01*
X188141392Y-410889630D02*
X188141392Y-410699153D01*
X188189012Y-410603915D01*
X188236631Y-410556296D01*
X188379488Y-410461058D01*
X188569964Y-410413439D01*
X188950916Y-410413439D01*
X189046154Y-410461058D01*
X189093773Y-410508677D01*
X189141392Y-410603915D01*
X189141392Y-410794391D01*
X189093773Y-410889630D01*
X189046154Y-410937249D01*
X188950916Y-410984868D01*
X188712821Y-410984868D01*
X188617583Y-410937249D01*
X188569964Y-410889630D01*
X188522345Y-410794391D01*
X188522345Y-410603915D01*
X188569964Y-410508677D01*
X188617583Y-410461058D01*
X188712821Y-410413439D01*
X229221548Y-448232702D02*
X229221548Y-448946988D01*
X229269167Y-449089845D01*
X229364405Y-449185083D01*
X229507263Y-449232702D01*
X229602501Y-449232702D01*
X228792977Y-448327941D02*
X228745358Y-448280322D01*
X228650120Y-448232702D01*
X228412025Y-448232702D01*
X228316786Y-448280322D01*
X228269167Y-448327941D01*
X228221548Y-448423179D01*
X228221548Y-448518417D01*
X228269167Y-448661274D01*
X228840596Y-449232702D01*
X228221548Y-449232702D01*
X227364405Y-448566036D02*
X227364405Y-449232702D01*
X227602501Y-448185083D02*
X227840596Y-448899369D01*
X227221548Y-448899369D01*
X187839102Y-428148323D02*
X188553388Y-428148323D01*
X188696245Y-428100704D01*
X188791483Y-428005466D01*
X188839102Y-427862608D01*
X188839102Y-427767370D01*
X187934341Y-428576894D02*
X187886722Y-428624513D01*
X187839102Y-428719751D01*
X187839102Y-428957847D01*
X187886722Y-429053085D01*
X187934341Y-429100704D01*
X188029579Y-429148323D01*
X188124817Y-429148323D01*
X188267674Y-429100704D01*
X188839102Y-428529275D01*
X188839102Y-429148323D01*
X187839102Y-429481656D02*
X187839102Y-430148323D01*
X188839102Y-429719751D01*
X156268249Y-400163174D02*
X156268249Y-400877460D01*
X156315868Y-401020317D01*
X156411106Y-401115555D01*
X156553964Y-401163174D01*
X156649202Y-401163174D01*
X155363487Y-400496508D02*
X155363487Y-401163174D01*
X155601583Y-400115555D02*
X155839678Y-400829841D01*
X155220630Y-400829841D01*
X154315868Y-401163174D02*
X154887297Y-401163174D01*
X154601583Y-401163174D02*
X154601583Y-400163174D01*
X154696821Y-400306032D01*
X154792059Y-400401270D01*
X154887297Y-400448889D01*
D14*
X160654523Y-406421904D02*
X161561666Y-406421904D01*
X161743095Y-406361428D01*
X161864047Y-406240476D01*
X161924523Y-406059047D01*
X161924523Y-405938095D01*
X161077857Y-407570952D02*
X161924523Y-407570952D01*
X160594047Y-407268571D02*
X161501190Y-406966190D01*
X161501190Y-407752380D01*
X160654523Y-408780476D02*
X160654523Y-408538571D01*
X160715000Y-408417619D01*
X160775476Y-408357142D01*
X160956904Y-408236190D01*
X161198809Y-408175714D01*
X161682619Y-408175714D01*
X161803571Y-408236190D01*
X161864047Y-408296666D01*
X161924523Y-408417619D01*
X161924523Y-408659523D01*
X161864047Y-408780476D01*
X161803571Y-408840952D01*
X161682619Y-408901428D01*
X161380238Y-408901428D01*
X161259285Y-408840952D01*
X161198809Y-408780476D01*
X161138333Y-408659523D01*
X161138333Y-408417619D01*
X161198809Y-408296666D01*
X161259285Y-408236190D01*
X161380238Y-408175714D01*
D10*
X156221542Y-431512660D02*
X156221542Y-432226946D01*
X156269161Y-432369803D01*
X156364399Y-432465041D01*
X156507257Y-432512660D01*
X156602495Y-432512660D01*
X155316780Y-431845994D02*
X155316780Y-432512660D01*
X155554876Y-431465041D02*
X155792971Y-432179327D01*
X155173923Y-432179327D01*
X154888209Y-431512660D02*
X154269161Y-431512660D01*
X154602495Y-431893613D01*
X154459638Y-431893613D01*
X154364399Y-431941232D01*
X154316780Y-431988851D01*
X154269161Y-432084089D01*
X154269161Y-432322184D01*
X154316780Y-432417422D01*
X154364399Y-432465041D01*
X154459638Y-432512660D01*
X154745352Y-432512660D01*
X154840590Y-432465041D01*
X154888209Y-432417422D01*
M02*
