M48
; DRILL file {KiCad (5.1.4)-1} date 7/27/2023 9:12:17 PM
; FORMAT={-:-/ absolute / metric / decimal}
; #@! TF.CreationDate,2023-07-27T21:12:17-04:00
; #@! TF.GenerationSoftware,Kicad,Pcbnew,(5.1.4)-1
; #@! TF.FileFunction,NonPlated,1,2,NPTH
FMAT,2
METRIC
T1C0.600
T2C1.750
T3C3.000
T4C3.988
%
G90
G05
T1
X169.385Y-392.5
X175.165Y-392.5
T2
X177.332Y-438.46
X187.492Y-438.46
X158.282Y-397.36
X168.442Y-397.36
X196.382Y-446.96
X206.542Y-446.96
X158.282Y-416.41
X168.442Y-416.41
X177.332Y-400.36
X187.492Y-400.36
X215.432Y-451.96
X225.592Y-451.96
X158.282Y-435.46
X168.442Y-435.46
X177.332Y-419.41
X187.492Y-419.41
T3
X178.602Y-435.92
X184.952Y-433.38
X160.822Y-402.44
X167.172Y-399.9
X197.652Y-444.42
X204.002Y-441.88
X160.822Y-421.49
X167.172Y-418.95
X178.602Y-397.82
X184.952Y-395.28
X216.702Y-449.42
X223.052Y-446.88
X160.822Y-440.54
X167.172Y-438.0
X178.602Y-416.87
X184.952Y-414.33
T4
X163.362Y-397.36
X201.462Y-446.96
X163.362Y-416.41
X182.412Y-400.36
X220.512Y-451.96
X163.362Y-435.46
X182.412Y-419.41
X182.412Y-438.46
T0
M30
