%FSLAX45Y45*%
G04 Gerber Fmt 4.5, Leading zero omitted, Abs format (unit mm)*
G04 Created by KiCad (PCBNEW (5.1.4)-1) date 2023-07-27 21:12:18*
%MOMM*%
%LPD*%
G04 APERTURE LIST*
%ADD10C,0.050000*%
%ADD11C,0.200000*%
%ADD12C,0.300000*%
G04 APERTURE END LIST*
D10*
X20870000Y-44050000D02*
X19040000Y-44050000D01*
X18940000Y-43950000D02*
X19040000Y-44050000D01*
X22770000Y-44550000D02*
X22971202Y-44760000D01*
X20870000Y-44050000D02*
X21370000Y-44550000D01*
X22770000Y-44550000D02*
X21370000Y-44550000D01*
X21891203Y-46011032D02*
X16430391Y-47480918D01*
X15400249Y-45873435D02*
X15220438Y-46318483D01*
X15399750Y-43338677D02*
X15400903Y-45039647D01*
X15400249Y-45873435D02*
X15401485Y-45141609D01*
X15508251Y-47394663D02*
X15220438Y-46318483D01*
X15401485Y-45141609D02*
X15400903Y-45039647D01*
X18671203Y-38766032D02*
X18941203Y-39036032D01*
X15402190Y-38980639D02*
X15621203Y-38766032D01*
X15508251Y-47394663D02*
X16430391Y-47480918D01*
X18941203Y-39036032D02*
X18940000Y-43950000D01*
X15402190Y-38980639D02*
X15399750Y-43338677D01*
X22971202Y-45891032D02*
X22831202Y-46011032D01*
X18671203Y-38766032D02*
X15621203Y-38766032D01*
X21911203Y-46011032D02*
X22831202Y-46011032D01*
X22971202Y-44760000D02*
X22971202Y-45891032D01*
X21911203Y-46011032D02*
X21891203Y-46011032D01*
D11*
X17237500Y-46142500D02*
X17272500Y-46177500D01*
X17272500Y-46142500D02*
X17237500Y-46177500D01*
X17652500Y-46027500D02*
X17687500Y-46062500D01*
X17687500Y-46027500D02*
X17652500Y-46062500D01*
X17317500Y-45838750D02*
X17352500Y-45873750D01*
X17352500Y-45838750D02*
X17317500Y-45873750D01*
X17317500Y-45966250D02*
X17352500Y-46001250D01*
X17352500Y-45966250D02*
X17317500Y-46001250D01*
X17317500Y-46093750D02*
X17352500Y-46128750D01*
X17352500Y-46093750D02*
X17317500Y-46128750D01*
X17445000Y-45838750D02*
X17480000Y-45873750D01*
X17480000Y-45838750D02*
X17445000Y-45873750D01*
X17445000Y-45966250D02*
X17480000Y-46001250D01*
X17480000Y-45966250D02*
X17445000Y-46001250D01*
X17445000Y-46093750D02*
X17480000Y-46128750D01*
X17480000Y-46093750D02*
X17445000Y-46128750D01*
X17572500Y-45838750D02*
X17607500Y-45873750D01*
X17607500Y-45838750D02*
X17572500Y-45873750D01*
X17572500Y-45966250D02*
X17607500Y-46001250D01*
X17607500Y-45966250D02*
X17572500Y-46001250D01*
X17572500Y-46093750D02*
X17607500Y-46128750D01*
X17607500Y-46093750D02*
X17572500Y-46128750D01*
X16179553Y-44617881D02*
G75*
G03X16179553Y-44617881I-20000J0D01*
G01*
X16237115Y-44545216D02*
G75*
G03X16237115Y-44545216I-20000J0D01*
G01*
X16303330Y-44480338D02*
G75*
G03X16303330Y-44480338I-20000J0D01*
G01*
X16398000Y-45686000D02*
G75*
G03X16398000Y-45686000I-20000J0D01*
G01*
X16530000Y-46972000D02*
G75*
G03X16530000Y-46972000I-20000J0D01*
G01*
X16655700Y-45125700D02*
G75*
G03X16655700Y-45125700I-20000J0D01*
G01*
X16655700Y-45996000D02*
G75*
G03X16655700Y-45996000I-20000J0D01*
G01*
X16656000Y-46176000D02*
G75*
G03X16656000Y-46176000I-20000J0D01*
G01*
X16748000Y-44258000D02*
G75*
G03X16748000Y-44258000I-20000J0D01*
G01*
X16812000Y-44123000D02*
G75*
G03X16812000Y-44123000I-20000J0D01*
G01*
X16905000Y-46474000D02*
G75*
G03X16905000Y-46474000I-20000J0D01*
G01*
X16927000Y-46125000D02*
G75*
G03X16927000Y-46125000I-20000J0D01*
G01*
X16982500Y-46297500D02*
G75*
G03X16982500Y-46297500I-20000J0D01*
G01*
X16989701Y-46055000D02*
G75*
G03X16989701Y-46055000I-20000J0D01*
G01*
X17016207Y-44713290D02*
G75*
G03X17016207Y-44713290I-20000J0D01*
G01*
X17024313Y-42377499D02*
G75*
G03X17024313Y-42377499I-20000J0D01*
G01*
X17047500Y-44415000D02*
G75*
G03X17047500Y-44415000I-20000J0D01*
G01*
X17066000Y-46475701D02*
G75*
G03X17066000Y-46475701I-20000J0D01*
G01*
X17083000Y-45278000D02*
G75*
G03X17083000Y-45278000I-20000J0D01*
G01*
X17100000Y-40515000D02*
G75*
G03X17100000Y-40515000I-20000J0D01*
G01*
X17114000Y-44731000D02*
G75*
G03X17114000Y-44731000I-20000J0D01*
G01*
X17132500Y-39532500D02*
G75*
G03X17132500Y-39532500I-20000J0D01*
G01*
X17152500Y-44425000D02*
G75*
G03X17152500Y-44425000I-20000J0D01*
G01*
X17272500Y-39535000D02*
G75*
G03X17272500Y-39535000I-20000J0D01*
G01*
X17282700Y-44964300D02*
G75*
G03X17282700Y-44964300I-20000J0D01*
G01*
X17373038Y-44102598D02*
G75*
G03X17373038Y-44102598I-20000J0D01*
G01*
X17376306Y-44009955D02*
G75*
G03X17376306Y-44009955I-20000J0D01*
G01*
X17421000Y-44734000D02*
G75*
G03X17421000Y-44734000I-20000J0D01*
G01*
X17422049Y-43917276D02*
G75*
G03X17422049Y-43917276I-20000J0D01*
G01*
X17475854Y-43841788D02*
G75*
G03X17475854Y-43841788I-20000J0D01*
G01*
X17525200Y-46478000D02*
G75*
G03X17525200Y-46478000I-20000J0D01*
G01*
X17551000Y-40458897D02*
G75*
G03X17551000Y-40458897I-20000J0D01*
G01*
X17645586Y-44729414D02*
G75*
G03X17645586Y-44729414I-20000J0D01*
G01*
X17649000Y-45195000D02*
G75*
G03X17649000Y-45195000I-20000J0D01*
G01*
X17679374Y-46493041D02*
G75*
G03X17679374Y-46493041I-20000J0D01*
G01*
X17794000Y-45082000D02*
G75*
G03X17794000Y-45082000I-20000J0D01*
G01*
X17833000Y-46558000D02*
G75*
G03X17833000Y-46558000I-20000J0D01*
G01*
X17929300Y-46336700D02*
G75*
G03X17929300Y-46336700I-20000J0D01*
G01*
X17975000Y-46120000D02*
G75*
G03X17975000Y-46120000I-20000J0D01*
G01*
X17984000Y-46574000D02*
G75*
G03X17984000Y-46574000I-20000J0D01*
G01*
X17995000Y-45852500D02*
G75*
G03X17995000Y-45852500I-20000J0D01*
G01*
X18001000Y-46259000D02*
G75*
G03X18001000Y-46259000I-20000J0D01*
G01*
X18315000Y-45852500D02*
G75*
G03X18315000Y-45852500I-20000J0D01*
G01*
X18319000Y-46160000D02*
G75*
G03X18319000Y-46160000I-20000J0D01*
G01*
X19132105Y-46391895D02*
G75*
G03X19132105Y-46391895I-20000J0D01*
G01*
X16795500Y-38851000D02*
X16795500Y-38911000D01*
X16765500Y-38881000D02*
X16825500Y-38881000D01*
X16775500Y-38841000D02*
X16775500Y-38921000D01*
X16815500Y-38841000D02*
X16815500Y-38921000D01*
X16775500Y-38921000D02*
G75*
G03X16815500Y-38921000I20000J0D01*
G01*
X16815500Y-38841000D02*
G75*
G03X16775500Y-38841000I-20000J0D01*
G01*
X16795500Y-39268000D02*
X16795500Y-39328000D01*
X16765500Y-39298000D02*
X16825500Y-39298000D01*
X16775500Y-39243000D02*
X16775500Y-39353000D01*
X16815500Y-39243000D02*
X16815500Y-39353000D01*
X16775500Y-39353000D02*
G75*
G03X16815500Y-39353000I20000J0D01*
G01*
X16815500Y-39243000D02*
G75*
G03X16775500Y-39243000I-20000J0D01*
G01*
X17659500Y-38851000D02*
X17659500Y-38911000D01*
X17629500Y-38881000D02*
X17689500Y-38881000D01*
X17639500Y-38841000D02*
X17639500Y-38921000D01*
X17679500Y-38841000D02*
X17679500Y-38921000D01*
X17639500Y-38921000D02*
G75*
G03X17679500Y-38921000I20000J0D01*
G01*
X17679500Y-38841000D02*
G75*
G03X17639500Y-38841000I-20000J0D01*
G01*
X17659500Y-39268000D02*
X17659500Y-39328000D01*
X17629500Y-39298000D02*
X17689500Y-39298000D01*
X17639500Y-39243000D02*
X17639500Y-39353000D01*
X17679500Y-39243000D02*
X17679500Y-39353000D01*
X17639500Y-39353000D02*
G75*
G03X17679500Y-39353000I20000J0D01*
G01*
X17679500Y-39243000D02*
G75*
G03X17639500Y-39243000I-20000J0D01*
G01*
X15654948Y-45143853D02*
X15654948Y-45073141D01*
X15584236Y-45073141D01*
X15584236Y-45143853D01*
X15654948Y-45143853D01*
X15908948Y-45143853D02*
X15908948Y-45073141D01*
X15838236Y-45073141D01*
X15838236Y-45143853D01*
X15908948Y-45143853D01*
X16162948Y-45143853D02*
X16162948Y-45073141D01*
X16092236Y-45073141D01*
X16092236Y-45143853D01*
X16162948Y-45143853D01*
X16416948Y-45143853D02*
X16416948Y-45073141D01*
X16346236Y-45073141D01*
X16346236Y-45143853D01*
X16416948Y-45143853D01*
X22876558Y-45146388D02*
X22876558Y-45075676D01*
X22805847Y-45075676D01*
X22805847Y-45146388D01*
X22876558Y-45146388D01*
X22876558Y-45400388D02*
X22876558Y-45329676D01*
X22805847Y-45329676D01*
X22805847Y-45400388D01*
X22876558Y-45400388D01*
X22876558Y-45654388D02*
X22876558Y-45583676D01*
X22805847Y-45583676D01*
X22805847Y-45654388D01*
X22876558Y-45654388D01*
X22876558Y-45908388D02*
X22876558Y-45837676D01*
X22805847Y-45837676D01*
X22805847Y-45908388D01*
X22876558Y-45908388D01*
X17879028Y-42931140D02*
X17879028Y-42860429D01*
X17808317Y-42860429D01*
X17808317Y-42931140D01*
X17879028Y-42931140D01*
X18133028Y-42931140D02*
X18133028Y-42860429D01*
X18062317Y-42860429D01*
X18062317Y-42931140D01*
X18133028Y-42931140D01*
X18387028Y-42931140D02*
X18387028Y-42860429D01*
X18316317Y-42860429D01*
X18316317Y-42931140D01*
X18387028Y-42931140D01*
X18641028Y-42931140D02*
X18641028Y-42860429D01*
X18570317Y-42860429D01*
X18570317Y-42931140D01*
X18641028Y-42931140D01*
X17956356Y-39021356D02*
X17956356Y-38950644D01*
X17885644Y-38950644D01*
X17885644Y-39021356D01*
X17956356Y-39021356D01*
X18210356Y-39021356D02*
X18210356Y-38950644D01*
X18139644Y-38950644D01*
X18139644Y-39021356D01*
X18210356Y-39021356D01*
X18464356Y-39021356D02*
X18464356Y-38950644D01*
X18393644Y-38950644D01*
X18393644Y-39021356D01*
X18464356Y-39021356D01*
X18718356Y-39021356D02*
X18718356Y-38950644D01*
X18647644Y-38950644D01*
X18647644Y-39021356D01*
X18718356Y-39021356D01*
X19307998Y-45816146D02*
X19307998Y-45745435D01*
X19237287Y-45745435D01*
X19237287Y-45816146D01*
X19307998Y-45816146D01*
X19373738Y-46061491D02*
X19373738Y-45990780D01*
X19303027Y-45990780D01*
X19303027Y-46061491D01*
X19373738Y-46061491D01*
X19439478Y-46306836D02*
X19439478Y-46236125D01*
X19368767Y-46236125D01*
X19368767Y-46306836D01*
X19439478Y-46306836D01*
X19505218Y-46552181D02*
X19505218Y-46481470D01*
X19434507Y-46481470D01*
X19434507Y-46552181D01*
X19505218Y-46552181D01*
X15581228Y-39111435D02*
X15581228Y-39040724D01*
X15510517Y-39040724D01*
X15510517Y-39111435D01*
X15581228Y-39111435D01*
X15581228Y-39365435D02*
X15581228Y-39294724D01*
X15510517Y-39294724D01*
X15510517Y-39365435D01*
X15581228Y-39365435D01*
X15581228Y-39619435D02*
X15581228Y-39548724D01*
X15510517Y-39548724D01*
X15510517Y-39619435D01*
X15581228Y-39619435D01*
X15581228Y-39873435D02*
X15581228Y-39802724D01*
X15510517Y-39802724D01*
X15510517Y-39873435D01*
X15581228Y-39873435D01*
X15477249Y-46480818D02*
X15477249Y-46410107D01*
X15406537Y-46410107D01*
X15406537Y-46480818D01*
X15477249Y-46480818D01*
X15542989Y-46726163D02*
X15542989Y-46655452D01*
X15472277Y-46655452D01*
X15472277Y-46726163D01*
X15542989Y-46726163D01*
X15608729Y-46971508D02*
X15608729Y-46900797D01*
X15538017Y-46900797D01*
X15538017Y-46971508D01*
X15608729Y-46971508D01*
X15674469Y-47216853D02*
X15674469Y-47146142D01*
X15603757Y-47146142D01*
X15603757Y-47216853D01*
X15674469Y-47216853D01*
X16620523Y-47333608D02*
X16620523Y-47262897D01*
X16549811Y-47262897D01*
X16549811Y-47333608D01*
X16620523Y-47333608D01*
X16865868Y-47267868D02*
X16865868Y-47197157D01*
X16795157Y-47197157D01*
X16795157Y-47267868D01*
X16865868Y-47267868D01*
X17111213Y-47202128D02*
X17111213Y-47131416D01*
X17040502Y-47131416D01*
X17040502Y-47202128D01*
X17111213Y-47202128D01*
X17356558Y-47136388D02*
X17356558Y-47065676D01*
X17285847Y-47065676D01*
X17285847Y-47136388D01*
X17356558Y-47136388D01*
X15576558Y-42246384D02*
X15576558Y-42175672D01*
X15505846Y-42175672D01*
X15505846Y-42246384D01*
X15576558Y-42246384D01*
X15576558Y-42500384D02*
X15576558Y-42429672D01*
X15505846Y-42429672D01*
X15505846Y-42500384D01*
X15576558Y-42500384D01*
X15576558Y-42754384D02*
X15576558Y-42683672D01*
X15505846Y-42683672D01*
X15505846Y-42754384D01*
X15576558Y-42754384D01*
X15576558Y-43008384D02*
X15576558Y-42937672D01*
X15505846Y-42937672D01*
X15505846Y-43008384D01*
X15576558Y-43008384D01*
X18290523Y-46883608D02*
X18290523Y-46812897D01*
X18219811Y-46812897D01*
X18219811Y-46883608D01*
X18290523Y-46883608D01*
X18535868Y-46817868D02*
X18535868Y-46747157D01*
X18465156Y-46747157D01*
X18465156Y-46817868D01*
X18535868Y-46817868D01*
X18781213Y-46752128D02*
X18781213Y-46681417D01*
X18710502Y-46681417D01*
X18710502Y-46752128D01*
X18781213Y-46752128D01*
X19026558Y-46686388D02*
X19026558Y-46615677D01*
X18955847Y-46615677D01*
X18955847Y-46686388D01*
X19026558Y-46686388D01*
X17909257Y-41019557D02*
X17909257Y-40948845D01*
X17838546Y-40948845D01*
X17838546Y-41019557D01*
X17909257Y-41019557D01*
X18163257Y-41019557D02*
X18163257Y-40948845D01*
X18092546Y-40948845D01*
X18092546Y-41019557D01*
X18163257Y-41019557D01*
X18417257Y-41019557D02*
X18417257Y-40948845D01*
X18346546Y-40948845D01*
X18346546Y-41019557D01*
X18417257Y-41019557D01*
X18671257Y-41019557D02*
X18671257Y-40948845D01*
X18600546Y-40948845D01*
X18600546Y-41019557D01*
X18671257Y-41019557D01*
X19647608Y-46009933D02*
X19700108Y-45957433D01*
X19647608Y-45904933D01*
X19595108Y-45957433D01*
X19647608Y-46009933D01*
X19764835Y-46444395D02*
X19817335Y-46391895D01*
X19764835Y-46339395D01*
X19712335Y-46391895D01*
X19764835Y-46444395D01*
X19902773Y-45708037D02*
X19955273Y-45655537D01*
X19902773Y-45603037D01*
X19850273Y-45655537D01*
X19902773Y-45708037D01*
X20275165Y-45840605D02*
X20327665Y-45788105D01*
X20275165Y-45735605D01*
X20222665Y-45788105D01*
X20275165Y-45840605D01*
X20392392Y-46275067D02*
X20444892Y-46222567D01*
X20392392Y-46170067D01*
X20339892Y-46222567D01*
X20392392Y-46275067D01*
X20617608Y-45749933D02*
X20670108Y-45697433D01*
X20617608Y-45644933D01*
X20565108Y-45697433D01*
X20617608Y-45749933D01*
X20734835Y-46184395D02*
X20787335Y-46131895D01*
X20734835Y-46079395D01*
X20682335Y-46131895D01*
X20734835Y-46184395D01*
X20872773Y-45448037D02*
X20925273Y-45395537D01*
X20872773Y-45343037D01*
X20820273Y-45395537D01*
X20872773Y-45448037D01*
X21245165Y-45580605D02*
X21297665Y-45528105D01*
X21245165Y-45475605D01*
X21192665Y-45528105D01*
X21245165Y-45580605D01*
X21362392Y-46015067D02*
X21414892Y-45962567D01*
X21362392Y-45910067D01*
X21309892Y-45962567D01*
X21362392Y-46015067D01*
X17913703Y-44280532D02*
X18060703Y-44427532D01*
X18060703Y-44280532D02*
X17913703Y-44427532D01*
X18060703Y-44354032D02*
G75*
G03X18060703Y-44354032I-73500J0D01*
G01*
X17917703Y-44222532D02*
X18064703Y-44369532D01*
X18064703Y-44222532D02*
X17917703Y-44369532D01*
X18064703Y-44296032D02*
G75*
G03X18064703Y-44296032I-73500J0D01*
G01*
X18417703Y-44172532D02*
X18564703Y-44319532D01*
X18564703Y-44172532D02*
X18417703Y-44319532D01*
X18564703Y-44246032D02*
G75*
G03X18564703Y-44246032I-73500J0D01*
G01*
X18548703Y-44026532D02*
X18695703Y-44173532D01*
X18695703Y-44026532D02*
X18548703Y-44173532D01*
X18695703Y-44100032D02*
G75*
G03X18695703Y-44100032I-73500J0D01*
G01*
X15881703Y-39408532D02*
X16028703Y-39555532D01*
X16028703Y-39408532D02*
X15881703Y-39555532D01*
X16028703Y-39482032D02*
G75*
G03X16028703Y-39482032I-73500J0D01*
G01*
X16012703Y-39262532D02*
X16159703Y-39409532D01*
X16159703Y-39262532D02*
X16012703Y-39409532D01*
X16159703Y-39336032D02*
G75*
G03X16159703Y-39336032I-73500J0D01*
G01*
X16512703Y-39212532D02*
X16659703Y-39359532D01*
X16659703Y-39212532D02*
X16512703Y-39359532D01*
X16659703Y-39286032D02*
G75*
G03X16659703Y-39286032I-73500J0D01*
G01*
X16516703Y-39154532D02*
X16663703Y-39301532D01*
X16663703Y-39154532D02*
X16516703Y-39301532D01*
X16663703Y-39228032D02*
G75*
G03X16663703Y-39228032I-73500J0D01*
G01*
X19818703Y-45130532D02*
X19965703Y-45277532D01*
X19965703Y-45130532D02*
X19818703Y-45277532D01*
X19965703Y-45204032D02*
G75*
G03X19965703Y-45204032I-73500J0D01*
G01*
X19822703Y-45072532D02*
X19969703Y-45219532D01*
X19969703Y-45072532D02*
X19822703Y-45219532D01*
X19969703Y-45146032D02*
G75*
G03X19969703Y-45146032I-73500J0D01*
G01*
X20322703Y-45022532D02*
X20469703Y-45169532D01*
X20469703Y-45022532D02*
X20322703Y-45169532D01*
X20469703Y-45096032D02*
G75*
G03X20469703Y-45096032I-73500J0D01*
G01*
X20453703Y-44876532D02*
X20600703Y-45023532D01*
X20600703Y-44876532D02*
X20453703Y-45023532D01*
X20600703Y-44950032D02*
G75*
G03X20600703Y-44950032I-73500J0D01*
G01*
X15881702Y-41313532D02*
X16028702Y-41460532D01*
X16028702Y-41313532D02*
X15881702Y-41460532D01*
X16028702Y-41387032D02*
G75*
G03X16028702Y-41387032I-73500J0D01*
G01*
X16012702Y-41167532D02*
X16159702Y-41314532D01*
X16159702Y-41167532D02*
X16012702Y-41314532D01*
X16159702Y-41241032D02*
G75*
G03X16159702Y-41241032I-73500J0D01*
G01*
X16512702Y-41117532D02*
X16659702Y-41264532D01*
X16659702Y-41117532D02*
X16512702Y-41264532D01*
X16659702Y-41191032D02*
G75*
G03X16659702Y-41191032I-73500J0D01*
G01*
X16516702Y-41059532D02*
X16663702Y-41206532D01*
X16663702Y-41059532D02*
X16516702Y-41206532D01*
X16663702Y-41133032D02*
G75*
G03X16663702Y-41133032I-73500J0D01*
G01*
X17913703Y-40470532D02*
X18060703Y-40617532D01*
X18060703Y-40470532D02*
X17913703Y-40617532D01*
X18060703Y-40544032D02*
G75*
G03X18060703Y-40544032I-73500J0D01*
G01*
X17917703Y-40412532D02*
X18064703Y-40559532D01*
X18064703Y-40412532D02*
X17917703Y-40559532D01*
X18064703Y-40486032D02*
G75*
G03X18064703Y-40486032I-73500J0D01*
G01*
X18417703Y-40362532D02*
X18564703Y-40509532D01*
X18564703Y-40362532D02*
X18417703Y-40509532D01*
X18564703Y-40436032D02*
G75*
G03X18564703Y-40436032I-73500J0D01*
G01*
X18548703Y-40216532D02*
X18695703Y-40363532D01*
X18695703Y-40216532D02*
X18548703Y-40363532D01*
X18695703Y-40290032D02*
G75*
G03X18695703Y-40290032I-73500J0D01*
G01*
X21723703Y-45630532D02*
X21870703Y-45777532D01*
X21870703Y-45630532D02*
X21723703Y-45777532D01*
X21870703Y-45704032D02*
G75*
G03X21870703Y-45704032I-73500J0D01*
G01*
X21727703Y-45572532D02*
X21874703Y-45719532D01*
X21874703Y-45572532D02*
X21727703Y-45719532D01*
X21874703Y-45646032D02*
G75*
G03X21874703Y-45646032I-73500J0D01*
G01*
X22227703Y-45522532D02*
X22374702Y-45669532D01*
X22374702Y-45522532D02*
X22227703Y-45669532D01*
X22374702Y-45596032D02*
G75*
G03X22374702Y-45596032I-73500J0D01*
G01*
X22358703Y-45376532D02*
X22505702Y-45523532D01*
X22505702Y-45376532D02*
X22358703Y-45523532D01*
X22505702Y-45450032D02*
G75*
G03X22505702Y-45450032I-73500J0D01*
G01*
X15881702Y-43218532D02*
X16028702Y-43365532D01*
X16028702Y-43218532D02*
X15881702Y-43365532D01*
X16028702Y-43292032D02*
G75*
G03X16028702Y-43292032I-73500J0D01*
G01*
X16012702Y-43072532D02*
X16159702Y-43219532D01*
X16159702Y-43072532D02*
X16012702Y-43219532D01*
X16159702Y-43146032D02*
G75*
G03X16159702Y-43146032I-73500J0D01*
G01*
X16512702Y-43022532D02*
X16659702Y-43169532D01*
X16659702Y-43022532D02*
X16512702Y-43169532D01*
X16659702Y-43096032D02*
G75*
G03X16659702Y-43096032I-73500J0D01*
G01*
X16516702Y-42964532D02*
X16663702Y-43111532D01*
X16663702Y-42964532D02*
X16516702Y-43111532D01*
X16663702Y-43038032D02*
G75*
G03X16663702Y-43038032I-73500J0D01*
G01*
X17913703Y-42375532D02*
X18060703Y-42522532D01*
X18060703Y-42375532D02*
X17913703Y-42522532D01*
X18060703Y-42449032D02*
G75*
G03X18060703Y-42449032I-73500J0D01*
G01*
X17917703Y-42317532D02*
X18064703Y-42464532D01*
X18064703Y-42317532D02*
X17917703Y-42464532D01*
X18064703Y-42391032D02*
G75*
G03X18064703Y-42391032I-73500J0D01*
G01*
X18417703Y-42267532D02*
X18564703Y-42414532D01*
X18564703Y-42267532D02*
X18417703Y-42414532D01*
X18564703Y-42341032D02*
G75*
G03X18564703Y-42341032I-73500J0D01*
G01*
X18548703Y-42121532D02*
X18695703Y-42268532D01*
X18695703Y-42121532D02*
X18548703Y-42268532D01*
X18695703Y-42195032D02*
G75*
G03X18695703Y-42195032I-73500J0D01*
G01*
X15700000Y-40430000D02*
X15850000Y-40580000D01*
X15850000Y-40430000D02*
X15700000Y-40580000D01*
X15775000Y-40430000D02*
X15775000Y-40580000D01*
X15700000Y-40505000D02*
X15850000Y-40505000D01*
X15890000Y-40935000D02*
X16040000Y-41085000D01*
X16040000Y-40935000D02*
X15890000Y-41085000D01*
X15965000Y-40935000D02*
X15965000Y-41085000D01*
X15890000Y-41010000D02*
X16040000Y-41010000D01*
X15805000Y-40677500D02*
X15965000Y-40837500D01*
X15965000Y-40677500D02*
X15805000Y-40837500D01*
X15941569Y-40814069D02*
X15941569Y-40700931D01*
X15828431Y-40700931D01*
X15828431Y-40814069D01*
X15941569Y-40814069D01*
X16505000Y-40677500D02*
X16665000Y-40837500D01*
X16665000Y-40677500D02*
X16505000Y-40837500D01*
X16641569Y-40814069D02*
X16641569Y-40700931D01*
X16528431Y-40700931D01*
X16528431Y-40814069D01*
X16641569Y-40814069D01*
X16605000Y-40417500D02*
X16805000Y-40617500D01*
X16805000Y-40417500D02*
X16605000Y-40617500D01*
X16705000Y-40617500D02*
X16805000Y-40517500D01*
X16705000Y-40417500D01*
X16605000Y-40517500D01*
X16705000Y-40617500D01*
D12*
X15504366Y-47949133D02*
X15504366Y-47649133D01*
X15575795Y-47649133D01*
X15618652Y-47663419D01*
X15647223Y-47691990D01*
X15661509Y-47720561D01*
X15675795Y-47777704D01*
X15675795Y-47820561D01*
X15661509Y-47877704D01*
X15647223Y-47906276D01*
X15618652Y-47934847D01*
X15575795Y-47949133D01*
X15504366Y-47949133D01*
X15804366Y-47949133D02*
X15804366Y-47749133D01*
X15804366Y-47806276D02*
X15818652Y-47777704D01*
X15832938Y-47763419D01*
X15861509Y-47749133D01*
X15890080Y-47749133D01*
X15990080Y-47949133D02*
X15990080Y-47749133D01*
X15990080Y-47649133D02*
X15975795Y-47663419D01*
X15990080Y-47677704D01*
X16004366Y-47663419D01*
X15990080Y-47649133D01*
X15990080Y-47677704D01*
X16175795Y-47949133D02*
X16147223Y-47934847D01*
X16132938Y-47906276D01*
X16132938Y-47649133D01*
X16332938Y-47949133D02*
X16304366Y-47934847D01*
X16290080Y-47906276D01*
X16290080Y-47649133D01*
X16675795Y-47949133D02*
X16675795Y-47649133D01*
X16775795Y-47863419D01*
X16875795Y-47649133D01*
X16875795Y-47949133D01*
X17147223Y-47949133D02*
X17147223Y-47791990D01*
X17132938Y-47763419D01*
X17104366Y-47749133D01*
X17047223Y-47749133D01*
X17018652Y-47763419D01*
X17147223Y-47934847D02*
X17118652Y-47949133D01*
X17047223Y-47949133D01*
X17018652Y-47934847D01*
X17004366Y-47906276D01*
X17004366Y-47877704D01*
X17018652Y-47849133D01*
X17047223Y-47834847D01*
X17118652Y-47834847D01*
X17147223Y-47820561D01*
X17290081Y-47749133D02*
X17290081Y-48049133D01*
X17290081Y-47763419D02*
X17318652Y-47749133D01*
X17375795Y-47749133D01*
X17404366Y-47763419D01*
X17418652Y-47777704D01*
X17432938Y-47806276D01*
X17432938Y-47891990D01*
X17418652Y-47920561D01*
X17404366Y-47934847D01*
X17375795Y-47949133D01*
X17318652Y-47949133D01*
X17290081Y-47934847D01*
X17561509Y-47920561D02*
X17575795Y-47934847D01*
X17561509Y-47949133D01*
X17547223Y-47934847D01*
X17561509Y-47920561D01*
X17561509Y-47949133D01*
X17561509Y-47763419D02*
X17575795Y-47777704D01*
X17561509Y-47791990D01*
X17547223Y-47777704D01*
X17561509Y-47763419D01*
X17561509Y-47791990D01*
X15182938Y-48425919D02*
X15217938Y-48460919D01*
X15217938Y-48425919D02*
X15182938Y-48460919D01*
X15561509Y-48279133D02*
X15590080Y-48279133D01*
X15618652Y-48293419D01*
X15632938Y-48307704D01*
X15647223Y-48336276D01*
X15661509Y-48393419D01*
X15661509Y-48464847D01*
X15647223Y-48521990D01*
X15632938Y-48550561D01*
X15618652Y-48564847D01*
X15590080Y-48579133D01*
X15561509Y-48579133D01*
X15532938Y-48564847D01*
X15518652Y-48550561D01*
X15504366Y-48521990D01*
X15490080Y-48464847D01*
X15490080Y-48393419D01*
X15504366Y-48336276D01*
X15518652Y-48307704D01*
X15532938Y-48293419D01*
X15561509Y-48279133D01*
X15790080Y-48550561D02*
X15804366Y-48564847D01*
X15790080Y-48579133D01*
X15775795Y-48564847D01*
X15790080Y-48550561D01*
X15790080Y-48579133D01*
X15904366Y-48279133D02*
X16090080Y-48279133D01*
X15990080Y-48393419D01*
X16032938Y-48393419D01*
X16061509Y-48407704D01*
X16075795Y-48421990D01*
X16090080Y-48450561D01*
X16090080Y-48521990D01*
X16075795Y-48550561D01*
X16061509Y-48564847D01*
X16032938Y-48579133D01*
X15947223Y-48579133D01*
X15918652Y-48564847D01*
X15904366Y-48550561D01*
X16361509Y-48279133D02*
X16218652Y-48279133D01*
X16204366Y-48421990D01*
X16218652Y-48407704D01*
X16247223Y-48393419D01*
X16318652Y-48393419D01*
X16347223Y-48407704D01*
X16361509Y-48421990D01*
X16375795Y-48450561D01*
X16375795Y-48521990D01*
X16361509Y-48550561D01*
X16347223Y-48564847D01*
X16318652Y-48579133D01*
X16247223Y-48579133D01*
X16218652Y-48564847D01*
X16204366Y-48550561D01*
X16504366Y-48579133D02*
X16504366Y-48379133D01*
X16504366Y-48407704D02*
X16518652Y-48393419D01*
X16547223Y-48379133D01*
X16590080Y-48379133D01*
X16618652Y-48393419D01*
X16632938Y-48421990D01*
X16632938Y-48579133D01*
X16632938Y-48421990D02*
X16647223Y-48393419D01*
X16675795Y-48379133D01*
X16718652Y-48379133D01*
X16747223Y-48393419D01*
X16761509Y-48421990D01*
X16761509Y-48579133D01*
X16904366Y-48579133D02*
X16904366Y-48379133D01*
X16904366Y-48407704D02*
X16918652Y-48393419D01*
X16947223Y-48379133D01*
X16990081Y-48379133D01*
X17018652Y-48393419D01*
X17032938Y-48421990D01*
X17032938Y-48579133D01*
X17032938Y-48421990D02*
X17047223Y-48393419D01*
X17075795Y-48379133D01*
X17118652Y-48379133D01*
X17147223Y-48393419D01*
X17161509Y-48421990D01*
X17161509Y-48579133D01*
X17747223Y-48264847D02*
X17490081Y-48650561D01*
X18132938Y-48279133D02*
X18161509Y-48279133D01*
X18190081Y-48293419D01*
X18204366Y-48307704D01*
X18218652Y-48336276D01*
X18232938Y-48393419D01*
X18232938Y-48464847D01*
X18218652Y-48521990D01*
X18204366Y-48550561D01*
X18190081Y-48564847D01*
X18161509Y-48579133D01*
X18132938Y-48579133D01*
X18104366Y-48564847D01*
X18090081Y-48550561D01*
X18075795Y-48521990D01*
X18061509Y-48464847D01*
X18061509Y-48393419D01*
X18075795Y-48336276D01*
X18090081Y-48307704D01*
X18104366Y-48293419D01*
X18132938Y-48279133D01*
X18361509Y-48550561D02*
X18375795Y-48564847D01*
X18361509Y-48579133D01*
X18347223Y-48564847D01*
X18361509Y-48550561D01*
X18361509Y-48579133D01*
X18561509Y-48279133D02*
X18590081Y-48279133D01*
X18618652Y-48293419D01*
X18632938Y-48307704D01*
X18647223Y-48336276D01*
X18661509Y-48393419D01*
X18661509Y-48464847D01*
X18647223Y-48521990D01*
X18632938Y-48550561D01*
X18618652Y-48564847D01*
X18590081Y-48579133D01*
X18561509Y-48579133D01*
X18532938Y-48564847D01*
X18518652Y-48550561D01*
X18504366Y-48521990D01*
X18490081Y-48464847D01*
X18490081Y-48393419D01*
X18504366Y-48336276D01*
X18518652Y-48307704D01*
X18532938Y-48293419D01*
X18561509Y-48279133D01*
X18947223Y-48579133D02*
X18775795Y-48579133D01*
X18861509Y-48579133D02*
X18861509Y-48279133D01*
X18832938Y-48321990D01*
X18804366Y-48350561D01*
X18775795Y-48364847D01*
X19204366Y-48379133D02*
X19204366Y-48579133D01*
X19132938Y-48264847D02*
X19061509Y-48479133D01*
X19247223Y-48479133D01*
X19347223Y-48279133D02*
X19347223Y-48336276D01*
X19461509Y-48279133D02*
X19461509Y-48336276D01*
X19904366Y-48693419D02*
X19890081Y-48679133D01*
X19861509Y-48636276D01*
X19847223Y-48607704D01*
X19832938Y-48564847D01*
X19818652Y-48493419D01*
X19818652Y-48436276D01*
X19832938Y-48364847D01*
X19847223Y-48321990D01*
X19861509Y-48293419D01*
X19890081Y-48250561D01*
X19904366Y-48236276D01*
X20175795Y-48579133D02*
X20004366Y-48579133D01*
X20090081Y-48579133D02*
X20090081Y-48279133D01*
X20061509Y-48321990D01*
X20032938Y-48350561D01*
X20004366Y-48364847D01*
X20461509Y-48579133D02*
X20290081Y-48579133D01*
X20375795Y-48579133D02*
X20375795Y-48279133D01*
X20347223Y-48321990D01*
X20318652Y-48350561D01*
X20290081Y-48364847D01*
X20818652Y-48579133D02*
X20818652Y-48279133D01*
X20947223Y-48579133D02*
X20947223Y-48421990D01*
X20932938Y-48393419D01*
X20904366Y-48379133D01*
X20861509Y-48379133D01*
X20832938Y-48393419D01*
X20818652Y-48407704D01*
X21132938Y-48579133D02*
X21104366Y-48564847D01*
X21090081Y-48550561D01*
X21075795Y-48521990D01*
X21075795Y-48436276D01*
X21090081Y-48407704D01*
X21104366Y-48393419D01*
X21132938Y-48379133D01*
X21175795Y-48379133D01*
X21204366Y-48393419D01*
X21218652Y-48407704D01*
X21232938Y-48436276D01*
X21232938Y-48521990D01*
X21218652Y-48550561D01*
X21204366Y-48564847D01*
X21175795Y-48579133D01*
X21132938Y-48579133D01*
X21404366Y-48579133D02*
X21375795Y-48564847D01*
X21361509Y-48536276D01*
X21361509Y-48279133D01*
X21632938Y-48564847D02*
X21604366Y-48579133D01*
X21547223Y-48579133D01*
X21518652Y-48564847D01*
X21504366Y-48536276D01*
X21504366Y-48421990D01*
X21518652Y-48393419D01*
X21547223Y-48379133D01*
X21604366Y-48379133D01*
X21632938Y-48393419D01*
X21647223Y-48421990D01*
X21647223Y-48450561D01*
X21504366Y-48479133D01*
X21761509Y-48564847D02*
X21790081Y-48579133D01*
X21847223Y-48579133D01*
X21875795Y-48564847D01*
X21890081Y-48536276D01*
X21890081Y-48521990D01*
X21875795Y-48493419D01*
X21847223Y-48479133D01*
X21804366Y-48479133D01*
X21775795Y-48464847D01*
X21761509Y-48436276D01*
X21761509Y-48421990D01*
X21775795Y-48393419D01*
X21804366Y-48379133D01*
X21847223Y-48379133D01*
X21875795Y-48393419D01*
X21990081Y-48693419D02*
X22004366Y-48679133D01*
X22032938Y-48636276D01*
X22047223Y-48607704D01*
X22061509Y-48564847D01*
X22075795Y-48493419D01*
X22075795Y-48436276D01*
X22061509Y-48364847D01*
X22047223Y-48321990D01*
X22032938Y-48293419D01*
X22004366Y-48250561D01*
X21990081Y-48236276D01*
X15217938Y-48839419D02*
G75*
G03X15217938Y-48839419I-20000J0D01*
G01*
X15561509Y-48675133D02*
X15590080Y-48675133D01*
X15618652Y-48689419D01*
X15632938Y-48703704D01*
X15647223Y-48732276D01*
X15661509Y-48789419D01*
X15661509Y-48860847D01*
X15647223Y-48917990D01*
X15632938Y-48946561D01*
X15618652Y-48960847D01*
X15590080Y-48975133D01*
X15561509Y-48975133D01*
X15532938Y-48960847D01*
X15518652Y-48946561D01*
X15504366Y-48917990D01*
X15490080Y-48860847D01*
X15490080Y-48789419D01*
X15504366Y-48732276D01*
X15518652Y-48703704D01*
X15532938Y-48689419D01*
X15561509Y-48675133D01*
X15790080Y-48946561D02*
X15804366Y-48960847D01*
X15790080Y-48975133D01*
X15775795Y-48960847D01*
X15790080Y-48946561D01*
X15790080Y-48975133D01*
X16061509Y-48775133D02*
X16061509Y-48975133D01*
X15990080Y-48660847D02*
X15918652Y-48875133D01*
X16104366Y-48875133D01*
X16275795Y-48675133D02*
X16304366Y-48675133D01*
X16332938Y-48689419D01*
X16347223Y-48703704D01*
X16361509Y-48732276D01*
X16375795Y-48789419D01*
X16375795Y-48860847D01*
X16361509Y-48917990D01*
X16347223Y-48946561D01*
X16332938Y-48960847D01*
X16304366Y-48975133D01*
X16275795Y-48975133D01*
X16247223Y-48960847D01*
X16232938Y-48946561D01*
X16218652Y-48917990D01*
X16204366Y-48860847D01*
X16204366Y-48789419D01*
X16218652Y-48732276D01*
X16232938Y-48703704D01*
X16247223Y-48689419D01*
X16275795Y-48675133D01*
X16504366Y-48975133D02*
X16504366Y-48775133D01*
X16504366Y-48803704D02*
X16518652Y-48789419D01*
X16547223Y-48775133D01*
X16590080Y-48775133D01*
X16618652Y-48789419D01*
X16632938Y-48817990D01*
X16632938Y-48975133D01*
X16632938Y-48817990D02*
X16647223Y-48789419D01*
X16675795Y-48775133D01*
X16718652Y-48775133D01*
X16747223Y-48789419D01*
X16761509Y-48817990D01*
X16761509Y-48975133D01*
X16904366Y-48975133D02*
X16904366Y-48775133D01*
X16904366Y-48803704D02*
X16918652Y-48789419D01*
X16947223Y-48775133D01*
X16990081Y-48775133D01*
X17018652Y-48789419D01*
X17032938Y-48817990D01*
X17032938Y-48975133D01*
X17032938Y-48817990D02*
X17047223Y-48789419D01*
X17075795Y-48775133D01*
X17118652Y-48775133D01*
X17147223Y-48789419D01*
X17161509Y-48817990D01*
X17161509Y-48975133D01*
X17747223Y-48660847D02*
X17490081Y-49046561D01*
X18132938Y-48675133D02*
X18161509Y-48675133D01*
X18190081Y-48689419D01*
X18204366Y-48703704D01*
X18218652Y-48732276D01*
X18232938Y-48789419D01*
X18232938Y-48860847D01*
X18218652Y-48917990D01*
X18204366Y-48946561D01*
X18190081Y-48960847D01*
X18161509Y-48975133D01*
X18132938Y-48975133D01*
X18104366Y-48960847D01*
X18090081Y-48946561D01*
X18075795Y-48917990D01*
X18061509Y-48860847D01*
X18061509Y-48789419D01*
X18075795Y-48732276D01*
X18090081Y-48703704D01*
X18104366Y-48689419D01*
X18132938Y-48675133D01*
X18361509Y-48946561D02*
X18375795Y-48960847D01*
X18361509Y-48975133D01*
X18347223Y-48960847D01*
X18361509Y-48946561D01*
X18361509Y-48975133D01*
X18561509Y-48675133D02*
X18590081Y-48675133D01*
X18618652Y-48689419D01*
X18632938Y-48703704D01*
X18647223Y-48732276D01*
X18661509Y-48789419D01*
X18661509Y-48860847D01*
X18647223Y-48917990D01*
X18632938Y-48946561D01*
X18618652Y-48960847D01*
X18590081Y-48975133D01*
X18561509Y-48975133D01*
X18532938Y-48960847D01*
X18518652Y-48946561D01*
X18504366Y-48917990D01*
X18490081Y-48860847D01*
X18490081Y-48789419D01*
X18504366Y-48732276D01*
X18518652Y-48703704D01*
X18532938Y-48689419D01*
X18561509Y-48675133D01*
X18947223Y-48975133D02*
X18775795Y-48975133D01*
X18861509Y-48975133D02*
X18861509Y-48675133D01*
X18832938Y-48717990D01*
X18804366Y-48746561D01*
X18775795Y-48760847D01*
X19204366Y-48675133D02*
X19147223Y-48675133D01*
X19118652Y-48689419D01*
X19104366Y-48703704D01*
X19075795Y-48746561D01*
X19061509Y-48803704D01*
X19061509Y-48917990D01*
X19075795Y-48946561D01*
X19090081Y-48960847D01*
X19118652Y-48975133D01*
X19175795Y-48975133D01*
X19204366Y-48960847D01*
X19218652Y-48946561D01*
X19232938Y-48917990D01*
X19232938Y-48846561D01*
X19218652Y-48817990D01*
X19204366Y-48803704D01*
X19175795Y-48789419D01*
X19118652Y-48789419D01*
X19090081Y-48803704D01*
X19075795Y-48817990D01*
X19061509Y-48846561D01*
X19347223Y-48675133D02*
X19347223Y-48732276D01*
X19461509Y-48675133D02*
X19461509Y-48732276D01*
X19904366Y-49089419D02*
X19890081Y-49075133D01*
X19861509Y-49032276D01*
X19847223Y-49003704D01*
X19832938Y-48960847D01*
X19818652Y-48889419D01*
X19818652Y-48832276D01*
X19832938Y-48760847D01*
X19847223Y-48717990D01*
X19861509Y-48689419D01*
X19890081Y-48646561D01*
X19904366Y-48632276D01*
X20147223Y-48775133D02*
X20147223Y-48975133D01*
X20075795Y-48660847D02*
X20004366Y-48875133D01*
X20190081Y-48875133D01*
X20447223Y-48675133D02*
X20304366Y-48675133D01*
X20290081Y-48817990D01*
X20304366Y-48803704D01*
X20332938Y-48789419D01*
X20404366Y-48789419D01*
X20432938Y-48803704D01*
X20447223Y-48817990D01*
X20461509Y-48846561D01*
X20461509Y-48917990D01*
X20447223Y-48946561D01*
X20432938Y-48960847D01*
X20404366Y-48975133D01*
X20332938Y-48975133D01*
X20304366Y-48960847D01*
X20290081Y-48946561D01*
X20818652Y-48975133D02*
X20818652Y-48675133D01*
X20947223Y-48975133D02*
X20947223Y-48817990D01*
X20932938Y-48789419D01*
X20904366Y-48775133D01*
X20861509Y-48775133D01*
X20832938Y-48789419D01*
X20818652Y-48803704D01*
X21132938Y-48975133D02*
X21104366Y-48960847D01*
X21090081Y-48946561D01*
X21075795Y-48917990D01*
X21075795Y-48832276D01*
X21090081Y-48803704D01*
X21104366Y-48789419D01*
X21132938Y-48775133D01*
X21175795Y-48775133D01*
X21204366Y-48789419D01*
X21218652Y-48803704D01*
X21232938Y-48832276D01*
X21232938Y-48917990D01*
X21218652Y-48946561D01*
X21204366Y-48960847D01*
X21175795Y-48975133D01*
X21132938Y-48975133D01*
X21404366Y-48975133D02*
X21375795Y-48960847D01*
X21361509Y-48932276D01*
X21361509Y-48675133D01*
X21632938Y-48960847D02*
X21604366Y-48975133D01*
X21547223Y-48975133D01*
X21518652Y-48960847D01*
X21504366Y-48932276D01*
X21504366Y-48817990D01*
X21518652Y-48789419D01*
X21547223Y-48775133D01*
X21604366Y-48775133D01*
X21632938Y-48789419D01*
X21647223Y-48817990D01*
X21647223Y-48846561D01*
X21504366Y-48875133D01*
X21761509Y-48960847D02*
X21790081Y-48975133D01*
X21847223Y-48975133D01*
X21875795Y-48960847D01*
X21890081Y-48932276D01*
X21890081Y-48917990D01*
X21875795Y-48889419D01*
X21847223Y-48875133D01*
X21804366Y-48875133D01*
X21775795Y-48860847D01*
X21761509Y-48832276D01*
X21761509Y-48817990D01*
X21775795Y-48789419D01*
X21804366Y-48775133D01*
X21847223Y-48775133D01*
X21875795Y-48789419D01*
X21990081Y-49089419D02*
X22004366Y-49075133D01*
X22032938Y-49032276D01*
X22047223Y-49003704D01*
X22061509Y-48960847D01*
X22075795Y-48889419D01*
X22075795Y-48832276D01*
X22061509Y-48760847D01*
X22047223Y-48717990D01*
X22032938Y-48689419D01*
X22004366Y-48646561D01*
X21990081Y-48632276D01*
X15187938Y-49205419D02*
X15187938Y-49265419D01*
X15157938Y-49235419D02*
X15217938Y-49235419D01*
X15561509Y-49071133D02*
X15590080Y-49071133D01*
X15618652Y-49085419D01*
X15632938Y-49099704D01*
X15647223Y-49128276D01*
X15661509Y-49185419D01*
X15661509Y-49256847D01*
X15647223Y-49313990D01*
X15632938Y-49342561D01*
X15618652Y-49356847D01*
X15590080Y-49371133D01*
X15561509Y-49371133D01*
X15532938Y-49356847D01*
X15518652Y-49342561D01*
X15504366Y-49313990D01*
X15490080Y-49256847D01*
X15490080Y-49185419D01*
X15504366Y-49128276D01*
X15518652Y-49099704D01*
X15532938Y-49085419D01*
X15561509Y-49071133D01*
X15790080Y-49342561D02*
X15804366Y-49356847D01*
X15790080Y-49371133D01*
X15775795Y-49356847D01*
X15790080Y-49342561D01*
X15790080Y-49371133D01*
X16061509Y-49071133D02*
X16004366Y-49071133D01*
X15975795Y-49085419D01*
X15961509Y-49099704D01*
X15932938Y-49142561D01*
X15918652Y-49199704D01*
X15918652Y-49313990D01*
X15932938Y-49342561D01*
X15947223Y-49356847D01*
X15975795Y-49371133D01*
X16032938Y-49371133D01*
X16061509Y-49356847D01*
X16075795Y-49342561D01*
X16090080Y-49313990D01*
X16090080Y-49242561D01*
X16075795Y-49213990D01*
X16061509Y-49199704D01*
X16032938Y-49185419D01*
X15975795Y-49185419D01*
X15947223Y-49199704D01*
X15932938Y-49213990D01*
X15918652Y-49242561D01*
X16275795Y-49071133D02*
X16304366Y-49071133D01*
X16332938Y-49085419D01*
X16347223Y-49099704D01*
X16361509Y-49128276D01*
X16375795Y-49185419D01*
X16375795Y-49256847D01*
X16361509Y-49313990D01*
X16347223Y-49342561D01*
X16332938Y-49356847D01*
X16304366Y-49371133D01*
X16275795Y-49371133D01*
X16247223Y-49356847D01*
X16232938Y-49342561D01*
X16218652Y-49313990D01*
X16204366Y-49256847D01*
X16204366Y-49185419D01*
X16218652Y-49128276D01*
X16232938Y-49099704D01*
X16247223Y-49085419D01*
X16275795Y-49071133D01*
X16504366Y-49371133D02*
X16504366Y-49171133D01*
X16504366Y-49199704D02*
X16518652Y-49185419D01*
X16547223Y-49171133D01*
X16590080Y-49171133D01*
X16618652Y-49185419D01*
X16632938Y-49213990D01*
X16632938Y-49371133D01*
X16632938Y-49213990D02*
X16647223Y-49185419D01*
X16675795Y-49171133D01*
X16718652Y-49171133D01*
X16747223Y-49185419D01*
X16761509Y-49213990D01*
X16761509Y-49371133D01*
X16904366Y-49371133D02*
X16904366Y-49171133D01*
X16904366Y-49199704D02*
X16918652Y-49185419D01*
X16947223Y-49171133D01*
X16990081Y-49171133D01*
X17018652Y-49185419D01*
X17032938Y-49213990D01*
X17032938Y-49371133D01*
X17032938Y-49213990D02*
X17047223Y-49185419D01*
X17075795Y-49171133D01*
X17118652Y-49171133D01*
X17147223Y-49185419D01*
X17161509Y-49213990D01*
X17161509Y-49371133D01*
X17747223Y-49056847D02*
X17490081Y-49442561D01*
X18132938Y-49071133D02*
X18161509Y-49071133D01*
X18190081Y-49085419D01*
X18204366Y-49099704D01*
X18218652Y-49128276D01*
X18232938Y-49185419D01*
X18232938Y-49256847D01*
X18218652Y-49313990D01*
X18204366Y-49342561D01*
X18190081Y-49356847D01*
X18161509Y-49371133D01*
X18132938Y-49371133D01*
X18104366Y-49356847D01*
X18090081Y-49342561D01*
X18075795Y-49313990D01*
X18061509Y-49256847D01*
X18061509Y-49185419D01*
X18075795Y-49128276D01*
X18090081Y-49099704D01*
X18104366Y-49085419D01*
X18132938Y-49071133D01*
X18361509Y-49342561D02*
X18375795Y-49356847D01*
X18361509Y-49371133D01*
X18347223Y-49356847D01*
X18361509Y-49342561D01*
X18361509Y-49371133D01*
X18561509Y-49071133D02*
X18590081Y-49071133D01*
X18618652Y-49085419D01*
X18632938Y-49099704D01*
X18647223Y-49128276D01*
X18661509Y-49185419D01*
X18661509Y-49256847D01*
X18647223Y-49313990D01*
X18632938Y-49342561D01*
X18618652Y-49356847D01*
X18590081Y-49371133D01*
X18561509Y-49371133D01*
X18532938Y-49356847D01*
X18518652Y-49342561D01*
X18504366Y-49313990D01*
X18490081Y-49256847D01*
X18490081Y-49185419D01*
X18504366Y-49128276D01*
X18518652Y-49099704D01*
X18532938Y-49085419D01*
X18561509Y-49071133D01*
X18775795Y-49099704D02*
X18790081Y-49085419D01*
X18818652Y-49071133D01*
X18890081Y-49071133D01*
X18918652Y-49085419D01*
X18932938Y-49099704D01*
X18947223Y-49128276D01*
X18947223Y-49156847D01*
X18932938Y-49199704D01*
X18761509Y-49371133D01*
X18947223Y-49371133D01*
X19204366Y-49171133D02*
X19204366Y-49371133D01*
X19132938Y-49056847D02*
X19061509Y-49271133D01*
X19247223Y-49271133D01*
X19347223Y-49071133D02*
X19347223Y-49128276D01*
X19461509Y-49071133D02*
X19461509Y-49128276D01*
X19904366Y-49485419D02*
X19890081Y-49471133D01*
X19861509Y-49428276D01*
X19847223Y-49399704D01*
X19832938Y-49356847D01*
X19818652Y-49285419D01*
X19818652Y-49228276D01*
X19832938Y-49156847D01*
X19847223Y-49113990D01*
X19861509Y-49085419D01*
X19890081Y-49042561D01*
X19904366Y-49028276D01*
X20075795Y-49071133D02*
X20104366Y-49071133D01*
X20132938Y-49085419D01*
X20147223Y-49099704D01*
X20161509Y-49128276D01*
X20175795Y-49185419D01*
X20175795Y-49256847D01*
X20161509Y-49313990D01*
X20147223Y-49342561D01*
X20132938Y-49356847D01*
X20104366Y-49371133D01*
X20075795Y-49371133D01*
X20047223Y-49356847D01*
X20032938Y-49342561D01*
X20018652Y-49313990D01*
X20004366Y-49256847D01*
X20004366Y-49185419D01*
X20018652Y-49128276D01*
X20032938Y-49099704D01*
X20047223Y-49085419D01*
X20075795Y-49071133D01*
X20532938Y-49371133D02*
X20532938Y-49071133D01*
X20661509Y-49371133D02*
X20661509Y-49213990D01*
X20647223Y-49185419D01*
X20618652Y-49171133D01*
X20575795Y-49171133D01*
X20547223Y-49185419D01*
X20532938Y-49199704D01*
X20847223Y-49371133D02*
X20818652Y-49356847D01*
X20804366Y-49342561D01*
X20790081Y-49313990D01*
X20790081Y-49228276D01*
X20804366Y-49199704D01*
X20818652Y-49185419D01*
X20847223Y-49171133D01*
X20890081Y-49171133D01*
X20918652Y-49185419D01*
X20932938Y-49199704D01*
X20947223Y-49228276D01*
X20947223Y-49313990D01*
X20932938Y-49342561D01*
X20918652Y-49356847D01*
X20890081Y-49371133D01*
X20847223Y-49371133D01*
X21118652Y-49371133D02*
X21090081Y-49356847D01*
X21075795Y-49328276D01*
X21075795Y-49071133D01*
X21347223Y-49356847D02*
X21318652Y-49371133D01*
X21261509Y-49371133D01*
X21232938Y-49356847D01*
X21218652Y-49328276D01*
X21218652Y-49213990D01*
X21232938Y-49185419D01*
X21261509Y-49171133D01*
X21318652Y-49171133D01*
X21347223Y-49185419D01*
X21361509Y-49213990D01*
X21361509Y-49242561D01*
X21218652Y-49271133D01*
X21475795Y-49356847D02*
X21504366Y-49371133D01*
X21561509Y-49371133D01*
X21590081Y-49356847D01*
X21604366Y-49328276D01*
X21604366Y-49313990D01*
X21590081Y-49285419D01*
X21561509Y-49271133D01*
X21518652Y-49271133D01*
X21490081Y-49256847D01*
X21475795Y-49228276D01*
X21475795Y-49213990D01*
X21490081Y-49185419D01*
X21518652Y-49171133D01*
X21561509Y-49171133D01*
X21590081Y-49185419D01*
X21961509Y-49256847D02*
X22190081Y-49256847D01*
X22075795Y-49371133D02*
X22075795Y-49142561D01*
X22690080Y-49171133D02*
X22690080Y-49371133D01*
X22618652Y-49056847D02*
X22547223Y-49271133D01*
X22732938Y-49271133D01*
X23061509Y-49356847D02*
X23090080Y-49371133D01*
X23147223Y-49371133D01*
X23175795Y-49356847D01*
X23190080Y-49328276D01*
X23190080Y-49313990D01*
X23175795Y-49285419D01*
X23147223Y-49271133D01*
X23104366Y-49271133D01*
X23075795Y-49256847D01*
X23061509Y-49228276D01*
X23061509Y-49213990D01*
X23075795Y-49185419D01*
X23104366Y-49171133D01*
X23147223Y-49171133D01*
X23175795Y-49185419D01*
X23361509Y-49371133D02*
X23332938Y-49356847D01*
X23318652Y-49328276D01*
X23318652Y-49071133D01*
X23518652Y-49371133D02*
X23490080Y-49356847D01*
X23475795Y-49342561D01*
X23461509Y-49313990D01*
X23461509Y-49228276D01*
X23475795Y-49199704D01*
X23490080Y-49185419D01*
X23518652Y-49171133D01*
X23561509Y-49171133D01*
X23590080Y-49185419D01*
X23604366Y-49199704D01*
X23618652Y-49228276D01*
X23618652Y-49313990D01*
X23604366Y-49342561D01*
X23590080Y-49356847D01*
X23561509Y-49371133D01*
X23518652Y-49371133D01*
X23704366Y-49171133D02*
X23818652Y-49171133D01*
X23747223Y-49071133D02*
X23747223Y-49328276D01*
X23761509Y-49356847D01*
X23790080Y-49371133D01*
X23818652Y-49371133D01*
X23904366Y-49356847D02*
X23932938Y-49371133D01*
X23990080Y-49371133D01*
X24018652Y-49356847D01*
X24032938Y-49328276D01*
X24032938Y-49313990D01*
X24018652Y-49285419D01*
X23990080Y-49271133D01*
X23947223Y-49271133D01*
X23918652Y-49256847D01*
X23904366Y-49228276D01*
X23904366Y-49213990D01*
X23918652Y-49185419D01*
X23947223Y-49171133D01*
X23990080Y-49171133D01*
X24018652Y-49185419D01*
X24132938Y-49485419D02*
X24147223Y-49471133D01*
X24175795Y-49428276D01*
X24190080Y-49399704D01*
X24204366Y-49356847D01*
X24218652Y-49285419D01*
X24218652Y-49228276D01*
X24204366Y-49156847D01*
X24190080Y-49113990D01*
X24175795Y-49085419D01*
X24147223Y-49042561D01*
X24132938Y-49028276D01*
X15203293Y-49666774D02*
X15203293Y-49596063D01*
X15132582Y-49596063D01*
X15132582Y-49666774D01*
X15203293Y-49666774D01*
X15661509Y-49767133D02*
X15490080Y-49767133D01*
X15575795Y-49767133D02*
X15575795Y-49467133D01*
X15547223Y-49509990D01*
X15518652Y-49538561D01*
X15490080Y-49552847D01*
X15790080Y-49738561D02*
X15804366Y-49752847D01*
X15790080Y-49767133D01*
X15775795Y-49752847D01*
X15790080Y-49738561D01*
X15790080Y-49767133D01*
X15990080Y-49467133D02*
X16018652Y-49467133D01*
X16047223Y-49481419D01*
X16061509Y-49495704D01*
X16075795Y-49524276D01*
X16090080Y-49581419D01*
X16090080Y-49652847D01*
X16075795Y-49709990D01*
X16061509Y-49738561D01*
X16047223Y-49752847D01*
X16018652Y-49767133D01*
X15990080Y-49767133D01*
X15961509Y-49752847D01*
X15947223Y-49738561D01*
X15932938Y-49709990D01*
X15918652Y-49652847D01*
X15918652Y-49581419D01*
X15932938Y-49524276D01*
X15947223Y-49495704D01*
X15961509Y-49481419D01*
X15990080Y-49467133D01*
X16275795Y-49467133D02*
X16304366Y-49467133D01*
X16332938Y-49481419D01*
X16347223Y-49495704D01*
X16361509Y-49524276D01*
X16375795Y-49581419D01*
X16375795Y-49652847D01*
X16361509Y-49709990D01*
X16347223Y-49738561D01*
X16332938Y-49752847D01*
X16304366Y-49767133D01*
X16275795Y-49767133D01*
X16247223Y-49752847D01*
X16232938Y-49738561D01*
X16218652Y-49709990D01*
X16204366Y-49652847D01*
X16204366Y-49581419D01*
X16218652Y-49524276D01*
X16232938Y-49495704D01*
X16247223Y-49481419D01*
X16275795Y-49467133D01*
X16504366Y-49767133D02*
X16504366Y-49567133D01*
X16504366Y-49595704D02*
X16518652Y-49581419D01*
X16547223Y-49567133D01*
X16590080Y-49567133D01*
X16618652Y-49581419D01*
X16632938Y-49609990D01*
X16632938Y-49767133D01*
X16632938Y-49609990D02*
X16647223Y-49581419D01*
X16675795Y-49567133D01*
X16718652Y-49567133D01*
X16747223Y-49581419D01*
X16761509Y-49609990D01*
X16761509Y-49767133D01*
X16904366Y-49767133D02*
X16904366Y-49567133D01*
X16904366Y-49595704D02*
X16918652Y-49581419D01*
X16947223Y-49567133D01*
X16990081Y-49567133D01*
X17018652Y-49581419D01*
X17032938Y-49609990D01*
X17032938Y-49767133D01*
X17032938Y-49609990D02*
X17047223Y-49581419D01*
X17075795Y-49567133D01*
X17118652Y-49567133D01*
X17147223Y-49581419D01*
X17161509Y-49609990D01*
X17161509Y-49767133D01*
X17747223Y-49452847D02*
X17490081Y-49838561D01*
X18132938Y-49467133D02*
X18161509Y-49467133D01*
X18190081Y-49481419D01*
X18204366Y-49495704D01*
X18218652Y-49524276D01*
X18232938Y-49581419D01*
X18232938Y-49652847D01*
X18218652Y-49709990D01*
X18204366Y-49738561D01*
X18190081Y-49752847D01*
X18161509Y-49767133D01*
X18132938Y-49767133D01*
X18104366Y-49752847D01*
X18090081Y-49738561D01*
X18075795Y-49709990D01*
X18061509Y-49652847D01*
X18061509Y-49581419D01*
X18075795Y-49524276D01*
X18090081Y-49495704D01*
X18104366Y-49481419D01*
X18132938Y-49467133D01*
X18361509Y-49738561D02*
X18375795Y-49752847D01*
X18361509Y-49767133D01*
X18347223Y-49752847D01*
X18361509Y-49738561D01*
X18361509Y-49767133D01*
X18561509Y-49467133D02*
X18590081Y-49467133D01*
X18618652Y-49481419D01*
X18632938Y-49495704D01*
X18647223Y-49524276D01*
X18661509Y-49581419D01*
X18661509Y-49652847D01*
X18647223Y-49709990D01*
X18632938Y-49738561D01*
X18618652Y-49752847D01*
X18590081Y-49767133D01*
X18561509Y-49767133D01*
X18532938Y-49752847D01*
X18518652Y-49738561D01*
X18504366Y-49709990D01*
X18490081Y-49652847D01*
X18490081Y-49581419D01*
X18504366Y-49524276D01*
X18518652Y-49495704D01*
X18532938Y-49481419D01*
X18561509Y-49467133D01*
X18761509Y-49467133D02*
X18947223Y-49467133D01*
X18847223Y-49581419D01*
X18890081Y-49581419D01*
X18918652Y-49595704D01*
X18932938Y-49609990D01*
X18947223Y-49638561D01*
X18947223Y-49709990D01*
X18932938Y-49738561D01*
X18918652Y-49752847D01*
X18890081Y-49767133D01*
X18804366Y-49767133D01*
X18775795Y-49752847D01*
X18761509Y-49738561D01*
X19090081Y-49767133D02*
X19147223Y-49767133D01*
X19175795Y-49752847D01*
X19190081Y-49738561D01*
X19218652Y-49695704D01*
X19232938Y-49638561D01*
X19232938Y-49524276D01*
X19218652Y-49495704D01*
X19204366Y-49481419D01*
X19175795Y-49467133D01*
X19118652Y-49467133D01*
X19090081Y-49481419D01*
X19075795Y-49495704D01*
X19061509Y-49524276D01*
X19061509Y-49595704D01*
X19075795Y-49624276D01*
X19090081Y-49638561D01*
X19118652Y-49652847D01*
X19175795Y-49652847D01*
X19204366Y-49638561D01*
X19218652Y-49624276D01*
X19232938Y-49595704D01*
X19347223Y-49467133D02*
X19347223Y-49524276D01*
X19461509Y-49467133D02*
X19461509Y-49524276D01*
X19904366Y-49881419D02*
X19890081Y-49867133D01*
X19861509Y-49824276D01*
X19847223Y-49795704D01*
X19832938Y-49752847D01*
X19818652Y-49681419D01*
X19818652Y-49624276D01*
X19832938Y-49552847D01*
X19847223Y-49509990D01*
X19861509Y-49481419D01*
X19890081Y-49438561D01*
X19904366Y-49424276D01*
X20147223Y-49567133D02*
X20147223Y-49767133D01*
X20075795Y-49452847D02*
X20004366Y-49667133D01*
X20190081Y-49667133D01*
X20432938Y-49567133D02*
X20432938Y-49767133D01*
X20361509Y-49452847D02*
X20290081Y-49667133D01*
X20475795Y-49667133D01*
X20818652Y-49767133D02*
X20818652Y-49467133D01*
X20947223Y-49767133D02*
X20947223Y-49609990D01*
X20932938Y-49581419D01*
X20904366Y-49567133D01*
X20861509Y-49567133D01*
X20832938Y-49581419D01*
X20818652Y-49595704D01*
X21132938Y-49767133D02*
X21104366Y-49752847D01*
X21090081Y-49738561D01*
X21075795Y-49709990D01*
X21075795Y-49624276D01*
X21090081Y-49595704D01*
X21104366Y-49581419D01*
X21132938Y-49567133D01*
X21175795Y-49567133D01*
X21204366Y-49581419D01*
X21218652Y-49595704D01*
X21232938Y-49624276D01*
X21232938Y-49709990D01*
X21218652Y-49738561D01*
X21204366Y-49752847D01*
X21175795Y-49767133D01*
X21132938Y-49767133D01*
X21404366Y-49767133D02*
X21375795Y-49752847D01*
X21361509Y-49724276D01*
X21361509Y-49467133D01*
X21632938Y-49752847D02*
X21604366Y-49767133D01*
X21547223Y-49767133D01*
X21518652Y-49752847D01*
X21504366Y-49724276D01*
X21504366Y-49609990D01*
X21518652Y-49581419D01*
X21547223Y-49567133D01*
X21604366Y-49567133D01*
X21632938Y-49581419D01*
X21647223Y-49609990D01*
X21647223Y-49638561D01*
X21504366Y-49667133D01*
X21761509Y-49752847D02*
X21790081Y-49767133D01*
X21847223Y-49767133D01*
X21875795Y-49752847D01*
X21890081Y-49724276D01*
X21890081Y-49709990D01*
X21875795Y-49681419D01*
X21847223Y-49667133D01*
X21804366Y-49667133D01*
X21775795Y-49652847D01*
X21761509Y-49624276D01*
X21761509Y-49609990D01*
X21775795Y-49581419D01*
X21804366Y-49567133D01*
X21847223Y-49567133D01*
X21875795Y-49581419D01*
X21990081Y-49881419D02*
X22004366Y-49867133D01*
X22032938Y-49824276D01*
X22047223Y-49795704D01*
X22061509Y-49752847D01*
X22075795Y-49681419D01*
X22075795Y-49624276D01*
X22061509Y-49552847D01*
X22047223Y-49509990D01*
X22032938Y-49481419D01*
X22004366Y-49438561D01*
X21990081Y-49424276D01*
X15165438Y-50079919D02*
X15217938Y-50027419D01*
X15165438Y-49974919D01*
X15112938Y-50027419D01*
X15165438Y-50079919D01*
X15661509Y-50163133D02*
X15490080Y-50163133D01*
X15575795Y-50163133D02*
X15575795Y-49863133D01*
X15547223Y-49905990D01*
X15518652Y-49934561D01*
X15490080Y-49948847D01*
X15790080Y-50134561D02*
X15804366Y-50148847D01*
X15790080Y-50163133D01*
X15775795Y-50148847D01*
X15790080Y-50134561D01*
X15790080Y-50163133D01*
X15990080Y-49863133D02*
X16018652Y-49863133D01*
X16047223Y-49877419D01*
X16061509Y-49891704D01*
X16075795Y-49920276D01*
X16090080Y-49977419D01*
X16090080Y-50048847D01*
X16075795Y-50105990D01*
X16061509Y-50134561D01*
X16047223Y-50148847D01*
X16018652Y-50163133D01*
X15990080Y-50163133D01*
X15961509Y-50148847D01*
X15947223Y-50134561D01*
X15932938Y-50105990D01*
X15918652Y-50048847D01*
X15918652Y-49977419D01*
X15932938Y-49920276D01*
X15947223Y-49891704D01*
X15961509Y-49877419D01*
X15990080Y-49863133D01*
X16361509Y-49863133D02*
X16218652Y-49863133D01*
X16204366Y-50005990D01*
X16218652Y-49991704D01*
X16247223Y-49977419D01*
X16318652Y-49977419D01*
X16347223Y-49991704D01*
X16361509Y-50005990D01*
X16375795Y-50034561D01*
X16375795Y-50105990D01*
X16361509Y-50134561D01*
X16347223Y-50148847D01*
X16318652Y-50163133D01*
X16247223Y-50163133D01*
X16218652Y-50148847D01*
X16204366Y-50134561D01*
X16504366Y-50163133D02*
X16504366Y-49963133D01*
X16504366Y-49991704D02*
X16518652Y-49977419D01*
X16547223Y-49963133D01*
X16590080Y-49963133D01*
X16618652Y-49977419D01*
X16632938Y-50005990D01*
X16632938Y-50163133D01*
X16632938Y-50005990D02*
X16647223Y-49977419D01*
X16675795Y-49963133D01*
X16718652Y-49963133D01*
X16747223Y-49977419D01*
X16761509Y-50005990D01*
X16761509Y-50163133D01*
X16904366Y-50163133D02*
X16904366Y-49963133D01*
X16904366Y-49991704D02*
X16918652Y-49977419D01*
X16947223Y-49963133D01*
X16990081Y-49963133D01*
X17018652Y-49977419D01*
X17032938Y-50005990D01*
X17032938Y-50163133D01*
X17032938Y-50005990D02*
X17047223Y-49977419D01*
X17075795Y-49963133D01*
X17118652Y-49963133D01*
X17147223Y-49977419D01*
X17161509Y-50005990D01*
X17161509Y-50163133D01*
X17747223Y-49848847D02*
X17490081Y-50234561D01*
X18132938Y-49863133D02*
X18161509Y-49863133D01*
X18190081Y-49877419D01*
X18204366Y-49891704D01*
X18218652Y-49920276D01*
X18232938Y-49977419D01*
X18232938Y-50048847D01*
X18218652Y-50105990D01*
X18204366Y-50134561D01*
X18190081Y-50148847D01*
X18161509Y-50163133D01*
X18132938Y-50163133D01*
X18104366Y-50148847D01*
X18090081Y-50134561D01*
X18075795Y-50105990D01*
X18061509Y-50048847D01*
X18061509Y-49977419D01*
X18075795Y-49920276D01*
X18090081Y-49891704D01*
X18104366Y-49877419D01*
X18132938Y-49863133D01*
X18361509Y-50134561D02*
X18375795Y-50148847D01*
X18361509Y-50163133D01*
X18347223Y-50148847D01*
X18361509Y-50134561D01*
X18361509Y-50163133D01*
X18561509Y-49863133D02*
X18590081Y-49863133D01*
X18618652Y-49877419D01*
X18632938Y-49891704D01*
X18647223Y-49920276D01*
X18661509Y-49977419D01*
X18661509Y-50048847D01*
X18647223Y-50105990D01*
X18632938Y-50134561D01*
X18618652Y-50148847D01*
X18590081Y-50163133D01*
X18561509Y-50163133D01*
X18532938Y-50148847D01*
X18518652Y-50134561D01*
X18504366Y-50105990D01*
X18490081Y-50048847D01*
X18490081Y-49977419D01*
X18504366Y-49920276D01*
X18518652Y-49891704D01*
X18532938Y-49877419D01*
X18561509Y-49863133D01*
X18918652Y-49963133D02*
X18918652Y-50163133D01*
X18847223Y-49848847D02*
X18775795Y-50063133D01*
X18961509Y-50063133D01*
X19232938Y-50163133D02*
X19061509Y-50163133D01*
X19147223Y-50163133D02*
X19147223Y-49863133D01*
X19118652Y-49905990D01*
X19090081Y-49934561D01*
X19061509Y-49948847D01*
X19347223Y-49863133D02*
X19347223Y-49920276D01*
X19461509Y-49863133D02*
X19461509Y-49920276D01*
X19904366Y-50277419D02*
X19890081Y-50263133D01*
X19861509Y-50220276D01*
X19847223Y-50191704D01*
X19832938Y-50148847D01*
X19818652Y-50077419D01*
X19818652Y-50020276D01*
X19832938Y-49948847D01*
X19847223Y-49905990D01*
X19861509Y-49877419D01*
X19890081Y-49834561D01*
X19904366Y-49820276D01*
X20175795Y-50163133D02*
X20004366Y-50163133D01*
X20090081Y-50163133D02*
X20090081Y-49863133D01*
X20061509Y-49905990D01*
X20032938Y-49934561D01*
X20004366Y-49948847D01*
X20361509Y-49863133D02*
X20390081Y-49863133D01*
X20418652Y-49877419D01*
X20432938Y-49891704D01*
X20447223Y-49920276D01*
X20461509Y-49977419D01*
X20461509Y-50048847D01*
X20447223Y-50105990D01*
X20432938Y-50134561D01*
X20418652Y-50148847D01*
X20390081Y-50163133D01*
X20361509Y-50163133D01*
X20332938Y-50148847D01*
X20318652Y-50134561D01*
X20304366Y-50105990D01*
X20290081Y-50048847D01*
X20290081Y-49977419D01*
X20304366Y-49920276D01*
X20318652Y-49891704D01*
X20332938Y-49877419D01*
X20361509Y-49863133D01*
X20818652Y-50163133D02*
X20818652Y-49863133D01*
X20947223Y-50163133D02*
X20947223Y-50005990D01*
X20932938Y-49977419D01*
X20904366Y-49963133D01*
X20861509Y-49963133D01*
X20832938Y-49977419D01*
X20818652Y-49991704D01*
X21132938Y-50163133D02*
X21104366Y-50148847D01*
X21090081Y-50134561D01*
X21075795Y-50105990D01*
X21075795Y-50020276D01*
X21090081Y-49991704D01*
X21104366Y-49977419D01*
X21132938Y-49963133D01*
X21175795Y-49963133D01*
X21204366Y-49977419D01*
X21218652Y-49991704D01*
X21232938Y-50020276D01*
X21232938Y-50105990D01*
X21218652Y-50134561D01*
X21204366Y-50148847D01*
X21175795Y-50163133D01*
X21132938Y-50163133D01*
X21404366Y-50163133D02*
X21375795Y-50148847D01*
X21361509Y-50120276D01*
X21361509Y-49863133D01*
X21632938Y-50148847D02*
X21604366Y-50163133D01*
X21547223Y-50163133D01*
X21518652Y-50148847D01*
X21504366Y-50120276D01*
X21504366Y-50005990D01*
X21518652Y-49977419D01*
X21547223Y-49963133D01*
X21604366Y-49963133D01*
X21632938Y-49977419D01*
X21647223Y-50005990D01*
X21647223Y-50034561D01*
X21504366Y-50063133D01*
X21761509Y-50148847D02*
X21790081Y-50163133D01*
X21847223Y-50163133D01*
X21875795Y-50148847D01*
X21890081Y-50120276D01*
X21890081Y-50105990D01*
X21875795Y-50077419D01*
X21847223Y-50063133D01*
X21804366Y-50063133D01*
X21775795Y-50048847D01*
X21761509Y-50020276D01*
X21761509Y-50005990D01*
X21775795Y-49977419D01*
X21804366Y-49963133D01*
X21847223Y-49963133D01*
X21875795Y-49977419D01*
X21990081Y-50277419D02*
X22004366Y-50263133D01*
X22032938Y-50220276D01*
X22047223Y-50191704D01*
X22061509Y-50148847D01*
X22075795Y-50077419D01*
X22075795Y-50020276D01*
X22061509Y-49948847D01*
X22047223Y-49905990D01*
X22032938Y-49877419D01*
X22004366Y-49834561D01*
X21990081Y-49820276D01*
X15070938Y-50349919D02*
X15217938Y-50496919D01*
X15217938Y-50349919D02*
X15070938Y-50496919D01*
X15217938Y-50423419D02*
G75*
G03X15217938Y-50423419I-73500J0D01*
G01*
X15661509Y-50559133D02*
X15490080Y-50559133D01*
X15575795Y-50559133D02*
X15575795Y-50259133D01*
X15547223Y-50301990D01*
X15518652Y-50330561D01*
X15490080Y-50344847D01*
X15790080Y-50530561D02*
X15804366Y-50544847D01*
X15790080Y-50559133D01*
X15775795Y-50544847D01*
X15790080Y-50530561D01*
X15790080Y-50559133D01*
X16061509Y-50359133D02*
X16061509Y-50559133D01*
X15990080Y-50244847D02*
X15918652Y-50459133D01*
X16104366Y-50459133D01*
X16190080Y-50259133D02*
X16390080Y-50259133D01*
X16261509Y-50559133D01*
X16504366Y-50559133D02*
X16504366Y-50359133D01*
X16504366Y-50387704D02*
X16518652Y-50373419D01*
X16547223Y-50359133D01*
X16590080Y-50359133D01*
X16618652Y-50373419D01*
X16632938Y-50401990D01*
X16632938Y-50559133D01*
X16632938Y-50401990D02*
X16647223Y-50373419D01*
X16675795Y-50359133D01*
X16718652Y-50359133D01*
X16747223Y-50373419D01*
X16761509Y-50401990D01*
X16761509Y-50559133D01*
X16904366Y-50559133D02*
X16904366Y-50359133D01*
X16904366Y-50387704D02*
X16918652Y-50373419D01*
X16947223Y-50359133D01*
X16990081Y-50359133D01*
X17018652Y-50373419D01*
X17032938Y-50401990D01*
X17032938Y-50559133D01*
X17032938Y-50401990D02*
X17047223Y-50373419D01*
X17075795Y-50359133D01*
X17118652Y-50359133D01*
X17147223Y-50373419D01*
X17161509Y-50401990D01*
X17161509Y-50559133D01*
X17747223Y-50244847D02*
X17490081Y-50630561D01*
X18132938Y-50259133D02*
X18161509Y-50259133D01*
X18190081Y-50273419D01*
X18204366Y-50287704D01*
X18218652Y-50316276D01*
X18232938Y-50373419D01*
X18232938Y-50444847D01*
X18218652Y-50501990D01*
X18204366Y-50530561D01*
X18190081Y-50544847D01*
X18161509Y-50559133D01*
X18132938Y-50559133D01*
X18104366Y-50544847D01*
X18090081Y-50530561D01*
X18075795Y-50501990D01*
X18061509Y-50444847D01*
X18061509Y-50373419D01*
X18075795Y-50316276D01*
X18090081Y-50287704D01*
X18104366Y-50273419D01*
X18132938Y-50259133D01*
X18361509Y-50530561D02*
X18375795Y-50544847D01*
X18361509Y-50559133D01*
X18347223Y-50544847D01*
X18361509Y-50530561D01*
X18361509Y-50559133D01*
X18561509Y-50259133D02*
X18590081Y-50259133D01*
X18618652Y-50273419D01*
X18632938Y-50287704D01*
X18647223Y-50316276D01*
X18661509Y-50373419D01*
X18661509Y-50444847D01*
X18647223Y-50501990D01*
X18632938Y-50530561D01*
X18618652Y-50544847D01*
X18590081Y-50559133D01*
X18561509Y-50559133D01*
X18532938Y-50544847D01*
X18518652Y-50530561D01*
X18504366Y-50501990D01*
X18490081Y-50444847D01*
X18490081Y-50373419D01*
X18504366Y-50316276D01*
X18518652Y-50287704D01*
X18532938Y-50273419D01*
X18561509Y-50259133D01*
X18932938Y-50259133D02*
X18790081Y-50259133D01*
X18775795Y-50401990D01*
X18790081Y-50387704D01*
X18818652Y-50373419D01*
X18890081Y-50373419D01*
X18918652Y-50387704D01*
X18932938Y-50401990D01*
X18947223Y-50430561D01*
X18947223Y-50501990D01*
X18932938Y-50530561D01*
X18918652Y-50544847D01*
X18890081Y-50559133D01*
X18818652Y-50559133D01*
X18790081Y-50544847D01*
X18775795Y-50530561D01*
X19118652Y-50387704D02*
X19090081Y-50373419D01*
X19075795Y-50359133D01*
X19061509Y-50330561D01*
X19061509Y-50316276D01*
X19075795Y-50287704D01*
X19090081Y-50273419D01*
X19118652Y-50259133D01*
X19175795Y-50259133D01*
X19204366Y-50273419D01*
X19218652Y-50287704D01*
X19232938Y-50316276D01*
X19232938Y-50330561D01*
X19218652Y-50359133D01*
X19204366Y-50373419D01*
X19175795Y-50387704D01*
X19118652Y-50387704D01*
X19090081Y-50401990D01*
X19075795Y-50416276D01*
X19061509Y-50444847D01*
X19061509Y-50501990D01*
X19075795Y-50530561D01*
X19090081Y-50544847D01*
X19118652Y-50559133D01*
X19175795Y-50559133D01*
X19204366Y-50544847D01*
X19218652Y-50530561D01*
X19232938Y-50501990D01*
X19232938Y-50444847D01*
X19218652Y-50416276D01*
X19204366Y-50401990D01*
X19175795Y-50387704D01*
X19347223Y-50259133D02*
X19347223Y-50316276D01*
X19461509Y-50259133D02*
X19461509Y-50316276D01*
X19904366Y-50673419D02*
X19890081Y-50659133D01*
X19861509Y-50616276D01*
X19847223Y-50587704D01*
X19832938Y-50544847D01*
X19818652Y-50473419D01*
X19818652Y-50416276D01*
X19832938Y-50344847D01*
X19847223Y-50301990D01*
X19861509Y-50273419D01*
X19890081Y-50230561D01*
X19904366Y-50216276D01*
X19990081Y-50259133D02*
X20175795Y-50259133D01*
X20075795Y-50373419D01*
X20118652Y-50373419D01*
X20147223Y-50387704D01*
X20161509Y-50401990D01*
X20175795Y-50430561D01*
X20175795Y-50501990D01*
X20161509Y-50530561D01*
X20147223Y-50544847D01*
X20118652Y-50559133D01*
X20032938Y-50559133D01*
X20004366Y-50544847D01*
X19990081Y-50530561D01*
X20290081Y-50287704D02*
X20304366Y-50273419D01*
X20332938Y-50259133D01*
X20404366Y-50259133D01*
X20432938Y-50273419D01*
X20447223Y-50287704D01*
X20461509Y-50316276D01*
X20461509Y-50344847D01*
X20447223Y-50387704D01*
X20275795Y-50559133D01*
X20461509Y-50559133D01*
X20818652Y-50559133D02*
X20818652Y-50259133D01*
X20947223Y-50559133D02*
X20947223Y-50401990D01*
X20932938Y-50373419D01*
X20904366Y-50359133D01*
X20861509Y-50359133D01*
X20832938Y-50373419D01*
X20818652Y-50387704D01*
X21132938Y-50559133D02*
X21104366Y-50544847D01*
X21090081Y-50530561D01*
X21075795Y-50501990D01*
X21075795Y-50416276D01*
X21090081Y-50387704D01*
X21104366Y-50373419D01*
X21132938Y-50359133D01*
X21175795Y-50359133D01*
X21204366Y-50373419D01*
X21218652Y-50387704D01*
X21232938Y-50416276D01*
X21232938Y-50501990D01*
X21218652Y-50530561D01*
X21204366Y-50544847D01*
X21175795Y-50559133D01*
X21132938Y-50559133D01*
X21404366Y-50559133D02*
X21375795Y-50544847D01*
X21361509Y-50516276D01*
X21361509Y-50259133D01*
X21632938Y-50544847D02*
X21604366Y-50559133D01*
X21547223Y-50559133D01*
X21518652Y-50544847D01*
X21504366Y-50516276D01*
X21504366Y-50401990D01*
X21518652Y-50373419D01*
X21547223Y-50359133D01*
X21604366Y-50359133D01*
X21632938Y-50373419D01*
X21647223Y-50401990D01*
X21647223Y-50430561D01*
X21504366Y-50459133D01*
X21761509Y-50544847D02*
X21790081Y-50559133D01*
X21847223Y-50559133D01*
X21875795Y-50544847D01*
X21890081Y-50516276D01*
X21890081Y-50501990D01*
X21875795Y-50473419D01*
X21847223Y-50459133D01*
X21804366Y-50459133D01*
X21775795Y-50444847D01*
X21761509Y-50416276D01*
X21761509Y-50401990D01*
X21775795Y-50373419D01*
X21804366Y-50359133D01*
X21847223Y-50359133D01*
X21875795Y-50373419D01*
X21990081Y-50673419D02*
X22004366Y-50659133D01*
X22032938Y-50616276D01*
X22047223Y-50587704D01*
X22061509Y-50544847D01*
X22075795Y-50473419D01*
X22075795Y-50416276D01*
X22061509Y-50344847D01*
X22047223Y-50301990D01*
X22032938Y-50273419D01*
X22004366Y-50230561D01*
X21990081Y-50216276D01*
X15067938Y-50744419D02*
X15217938Y-50894419D01*
X15217938Y-50744419D02*
X15067938Y-50894419D01*
X15142938Y-50744419D02*
X15142938Y-50894419D01*
X15067938Y-50819419D02*
X15217938Y-50819419D01*
X15661509Y-50955133D02*
X15490080Y-50955133D01*
X15575795Y-50955133D02*
X15575795Y-50655133D01*
X15547223Y-50697990D01*
X15518652Y-50726561D01*
X15490080Y-50740847D01*
X15790080Y-50926561D02*
X15804366Y-50940847D01*
X15790080Y-50955133D01*
X15775795Y-50940847D01*
X15790080Y-50926561D01*
X15790080Y-50955133D01*
X16075795Y-50655133D02*
X15932938Y-50655133D01*
X15918652Y-50797990D01*
X15932938Y-50783704D01*
X15961509Y-50769419D01*
X16032938Y-50769419D01*
X16061509Y-50783704D01*
X16075795Y-50797990D01*
X16090080Y-50826561D01*
X16090080Y-50897990D01*
X16075795Y-50926561D01*
X16061509Y-50940847D01*
X16032938Y-50955133D01*
X15961509Y-50955133D01*
X15932938Y-50940847D01*
X15918652Y-50926561D01*
X16275795Y-50655133D02*
X16304366Y-50655133D01*
X16332938Y-50669419D01*
X16347223Y-50683704D01*
X16361509Y-50712276D01*
X16375795Y-50769419D01*
X16375795Y-50840847D01*
X16361509Y-50897990D01*
X16347223Y-50926561D01*
X16332938Y-50940847D01*
X16304366Y-50955133D01*
X16275795Y-50955133D01*
X16247223Y-50940847D01*
X16232938Y-50926561D01*
X16218652Y-50897990D01*
X16204366Y-50840847D01*
X16204366Y-50769419D01*
X16218652Y-50712276D01*
X16232938Y-50683704D01*
X16247223Y-50669419D01*
X16275795Y-50655133D01*
X16504366Y-50955133D02*
X16504366Y-50755133D01*
X16504366Y-50783704D02*
X16518652Y-50769419D01*
X16547223Y-50755133D01*
X16590080Y-50755133D01*
X16618652Y-50769419D01*
X16632938Y-50797990D01*
X16632938Y-50955133D01*
X16632938Y-50797990D02*
X16647223Y-50769419D01*
X16675795Y-50755133D01*
X16718652Y-50755133D01*
X16747223Y-50769419D01*
X16761509Y-50797990D01*
X16761509Y-50955133D01*
X16904366Y-50955133D02*
X16904366Y-50755133D01*
X16904366Y-50783704D02*
X16918652Y-50769419D01*
X16947223Y-50755133D01*
X16990081Y-50755133D01*
X17018652Y-50769419D01*
X17032938Y-50797990D01*
X17032938Y-50955133D01*
X17032938Y-50797990D02*
X17047223Y-50769419D01*
X17075795Y-50755133D01*
X17118652Y-50755133D01*
X17147223Y-50769419D01*
X17161509Y-50797990D01*
X17161509Y-50955133D01*
X17747223Y-50640847D02*
X17490081Y-51026561D01*
X18132938Y-50655133D02*
X18161509Y-50655133D01*
X18190081Y-50669419D01*
X18204366Y-50683704D01*
X18218652Y-50712276D01*
X18232938Y-50769419D01*
X18232938Y-50840847D01*
X18218652Y-50897990D01*
X18204366Y-50926561D01*
X18190081Y-50940847D01*
X18161509Y-50955133D01*
X18132938Y-50955133D01*
X18104366Y-50940847D01*
X18090081Y-50926561D01*
X18075795Y-50897990D01*
X18061509Y-50840847D01*
X18061509Y-50769419D01*
X18075795Y-50712276D01*
X18090081Y-50683704D01*
X18104366Y-50669419D01*
X18132938Y-50655133D01*
X18361509Y-50926561D02*
X18375795Y-50940847D01*
X18361509Y-50955133D01*
X18347223Y-50940847D01*
X18361509Y-50926561D01*
X18361509Y-50955133D01*
X18561509Y-50655133D02*
X18590081Y-50655133D01*
X18618652Y-50669419D01*
X18632938Y-50683704D01*
X18647223Y-50712276D01*
X18661509Y-50769419D01*
X18661509Y-50840847D01*
X18647223Y-50897990D01*
X18632938Y-50926561D01*
X18618652Y-50940847D01*
X18590081Y-50955133D01*
X18561509Y-50955133D01*
X18532938Y-50940847D01*
X18518652Y-50926561D01*
X18504366Y-50897990D01*
X18490081Y-50840847D01*
X18490081Y-50769419D01*
X18504366Y-50712276D01*
X18518652Y-50683704D01*
X18532938Y-50669419D01*
X18561509Y-50655133D01*
X18932938Y-50655133D02*
X18790081Y-50655133D01*
X18775795Y-50797990D01*
X18790081Y-50783704D01*
X18818652Y-50769419D01*
X18890081Y-50769419D01*
X18918652Y-50783704D01*
X18932938Y-50797990D01*
X18947223Y-50826561D01*
X18947223Y-50897990D01*
X18932938Y-50926561D01*
X18918652Y-50940847D01*
X18890081Y-50955133D01*
X18818652Y-50955133D01*
X18790081Y-50940847D01*
X18775795Y-50926561D01*
X19090081Y-50955133D02*
X19147223Y-50955133D01*
X19175795Y-50940847D01*
X19190081Y-50926561D01*
X19218652Y-50883704D01*
X19232938Y-50826561D01*
X19232938Y-50712276D01*
X19218652Y-50683704D01*
X19204366Y-50669419D01*
X19175795Y-50655133D01*
X19118652Y-50655133D01*
X19090081Y-50669419D01*
X19075795Y-50683704D01*
X19061509Y-50712276D01*
X19061509Y-50783704D01*
X19075795Y-50812276D01*
X19090081Y-50826561D01*
X19118652Y-50840847D01*
X19175795Y-50840847D01*
X19204366Y-50826561D01*
X19218652Y-50812276D01*
X19232938Y-50783704D01*
X19347223Y-50655133D02*
X19347223Y-50712276D01*
X19461509Y-50655133D02*
X19461509Y-50712276D01*
X19904366Y-51069419D02*
X19890081Y-51055133D01*
X19861509Y-51012276D01*
X19847223Y-50983704D01*
X19832938Y-50940847D01*
X19818652Y-50869419D01*
X19818652Y-50812276D01*
X19832938Y-50740847D01*
X19847223Y-50697990D01*
X19861509Y-50669419D01*
X19890081Y-50626561D01*
X19904366Y-50612276D01*
X20004366Y-50683704D02*
X20018652Y-50669419D01*
X20047223Y-50655133D01*
X20118652Y-50655133D01*
X20147223Y-50669419D01*
X20161509Y-50683704D01*
X20175795Y-50712276D01*
X20175795Y-50740847D01*
X20161509Y-50783704D01*
X19990081Y-50955133D01*
X20175795Y-50955133D01*
X20532938Y-50955133D02*
X20532938Y-50655133D01*
X20661509Y-50955133D02*
X20661509Y-50797990D01*
X20647223Y-50769419D01*
X20618652Y-50755133D01*
X20575795Y-50755133D01*
X20547223Y-50769419D01*
X20532938Y-50783704D01*
X20847223Y-50955133D02*
X20818652Y-50940847D01*
X20804366Y-50926561D01*
X20790081Y-50897990D01*
X20790081Y-50812276D01*
X20804366Y-50783704D01*
X20818652Y-50769419D01*
X20847223Y-50755133D01*
X20890081Y-50755133D01*
X20918652Y-50769419D01*
X20932938Y-50783704D01*
X20947223Y-50812276D01*
X20947223Y-50897990D01*
X20932938Y-50926561D01*
X20918652Y-50940847D01*
X20890081Y-50955133D01*
X20847223Y-50955133D01*
X21118652Y-50955133D02*
X21090081Y-50940847D01*
X21075795Y-50912276D01*
X21075795Y-50655133D01*
X21347223Y-50940847D02*
X21318652Y-50955133D01*
X21261509Y-50955133D01*
X21232938Y-50940847D01*
X21218652Y-50912276D01*
X21218652Y-50797990D01*
X21232938Y-50769419D01*
X21261509Y-50755133D01*
X21318652Y-50755133D01*
X21347223Y-50769419D01*
X21361509Y-50797990D01*
X21361509Y-50826561D01*
X21218652Y-50855133D01*
X21475795Y-50940847D02*
X21504366Y-50955133D01*
X21561509Y-50955133D01*
X21590081Y-50940847D01*
X21604366Y-50912276D01*
X21604366Y-50897990D01*
X21590081Y-50869419D01*
X21561509Y-50855133D01*
X21518652Y-50855133D01*
X21490081Y-50840847D01*
X21475795Y-50812276D01*
X21475795Y-50797990D01*
X21490081Y-50769419D01*
X21518652Y-50755133D01*
X21561509Y-50755133D01*
X21590081Y-50769419D01*
X21704366Y-51069419D02*
X21718652Y-51055133D01*
X21747223Y-51012276D01*
X21761509Y-50983704D01*
X21775795Y-50940847D01*
X21790081Y-50869419D01*
X21790081Y-50812276D01*
X21775795Y-50740847D01*
X21761509Y-50697990D01*
X21747223Y-50669419D01*
X21718652Y-50626561D01*
X21704366Y-50612276D01*
X15057938Y-51135419D02*
X15217938Y-51295419D01*
X15217938Y-51135419D02*
X15057938Y-51295419D01*
X15194507Y-51271988D02*
X15194507Y-51158849D01*
X15081369Y-51158849D01*
X15081369Y-51271988D01*
X15194507Y-51271988D01*
X15661509Y-51351133D02*
X15490080Y-51351133D01*
X15575795Y-51351133D02*
X15575795Y-51051133D01*
X15547223Y-51093990D01*
X15518652Y-51122561D01*
X15490080Y-51136847D01*
X15790080Y-51322561D02*
X15804366Y-51336847D01*
X15790080Y-51351133D01*
X15775795Y-51336847D01*
X15790080Y-51322561D01*
X15790080Y-51351133D01*
X16061509Y-51051133D02*
X16004366Y-51051133D01*
X15975795Y-51065419D01*
X15961509Y-51079704D01*
X15932938Y-51122561D01*
X15918652Y-51179704D01*
X15918652Y-51293990D01*
X15932938Y-51322561D01*
X15947223Y-51336847D01*
X15975795Y-51351133D01*
X16032938Y-51351133D01*
X16061509Y-51336847D01*
X16075795Y-51322561D01*
X16090080Y-51293990D01*
X16090080Y-51222561D01*
X16075795Y-51193990D01*
X16061509Y-51179704D01*
X16032938Y-51165419D01*
X15975795Y-51165419D01*
X15947223Y-51179704D01*
X15932938Y-51193990D01*
X15918652Y-51222561D01*
X16275795Y-51051133D02*
X16304366Y-51051133D01*
X16332938Y-51065419D01*
X16347223Y-51079704D01*
X16361509Y-51108276D01*
X16375795Y-51165419D01*
X16375795Y-51236847D01*
X16361509Y-51293990D01*
X16347223Y-51322561D01*
X16332938Y-51336847D01*
X16304366Y-51351133D01*
X16275795Y-51351133D01*
X16247223Y-51336847D01*
X16232938Y-51322561D01*
X16218652Y-51293990D01*
X16204366Y-51236847D01*
X16204366Y-51165419D01*
X16218652Y-51108276D01*
X16232938Y-51079704D01*
X16247223Y-51065419D01*
X16275795Y-51051133D01*
X16504366Y-51351133D02*
X16504366Y-51151133D01*
X16504366Y-51179704D02*
X16518652Y-51165419D01*
X16547223Y-51151133D01*
X16590080Y-51151133D01*
X16618652Y-51165419D01*
X16632938Y-51193990D01*
X16632938Y-51351133D01*
X16632938Y-51193990D02*
X16647223Y-51165419D01*
X16675795Y-51151133D01*
X16718652Y-51151133D01*
X16747223Y-51165419D01*
X16761509Y-51193990D01*
X16761509Y-51351133D01*
X16904366Y-51351133D02*
X16904366Y-51151133D01*
X16904366Y-51179704D02*
X16918652Y-51165419D01*
X16947223Y-51151133D01*
X16990081Y-51151133D01*
X17018652Y-51165419D01*
X17032938Y-51193990D01*
X17032938Y-51351133D01*
X17032938Y-51193990D02*
X17047223Y-51165419D01*
X17075795Y-51151133D01*
X17118652Y-51151133D01*
X17147223Y-51165419D01*
X17161509Y-51193990D01*
X17161509Y-51351133D01*
X17747223Y-51036847D02*
X17490081Y-51422561D01*
X18132938Y-51051133D02*
X18161509Y-51051133D01*
X18190081Y-51065419D01*
X18204366Y-51079704D01*
X18218652Y-51108276D01*
X18232938Y-51165419D01*
X18232938Y-51236847D01*
X18218652Y-51293990D01*
X18204366Y-51322561D01*
X18190081Y-51336847D01*
X18161509Y-51351133D01*
X18132938Y-51351133D01*
X18104366Y-51336847D01*
X18090081Y-51322561D01*
X18075795Y-51293990D01*
X18061509Y-51236847D01*
X18061509Y-51165419D01*
X18075795Y-51108276D01*
X18090081Y-51079704D01*
X18104366Y-51065419D01*
X18132938Y-51051133D01*
X18361509Y-51322561D02*
X18375795Y-51336847D01*
X18361509Y-51351133D01*
X18347223Y-51336847D01*
X18361509Y-51322561D01*
X18361509Y-51351133D01*
X18561509Y-51051133D02*
X18590081Y-51051133D01*
X18618652Y-51065419D01*
X18632938Y-51079704D01*
X18647223Y-51108276D01*
X18661509Y-51165419D01*
X18661509Y-51236847D01*
X18647223Y-51293990D01*
X18632938Y-51322561D01*
X18618652Y-51336847D01*
X18590081Y-51351133D01*
X18561509Y-51351133D01*
X18532938Y-51336847D01*
X18518652Y-51322561D01*
X18504366Y-51293990D01*
X18490081Y-51236847D01*
X18490081Y-51165419D01*
X18504366Y-51108276D01*
X18518652Y-51079704D01*
X18532938Y-51065419D01*
X18561509Y-51051133D01*
X18918652Y-51051133D02*
X18861509Y-51051133D01*
X18832938Y-51065419D01*
X18818652Y-51079704D01*
X18790081Y-51122561D01*
X18775795Y-51179704D01*
X18775795Y-51293990D01*
X18790081Y-51322561D01*
X18804366Y-51336847D01*
X18832938Y-51351133D01*
X18890081Y-51351133D01*
X18918652Y-51336847D01*
X18932938Y-51322561D01*
X18947223Y-51293990D01*
X18947223Y-51222561D01*
X18932938Y-51193990D01*
X18918652Y-51179704D01*
X18890081Y-51165419D01*
X18832938Y-51165419D01*
X18804366Y-51179704D01*
X18790081Y-51193990D01*
X18775795Y-51222561D01*
X19047223Y-51051133D02*
X19232938Y-51051133D01*
X19132938Y-51165419D01*
X19175795Y-51165419D01*
X19204366Y-51179704D01*
X19218652Y-51193990D01*
X19232938Y-51222561D01*
X19232938Y-51293990D01*
X19218652Y-51322561D01*
X19204366Y-51336847D01*
X19175795Y-51351133D01*
X19090081Y-51351133D01*
X19061509Y-51336847D01*
X19047223Y-51322561D01*
X19347223Y-51051133D02*
X19347223Y-51108276D01*
X19461509Y-51051133D02*
X19461509Y-51108276D01*
X19904366Y-51465419D02*
X19890081Y-51451133D01*
X19861509Y-51408276D01*
X19847223Y-51379704D01*
X19832938Y-51336847D01*
X19818652Y-51265419D01*
X19818652Y-51208276D01*
X19832938Y-51136847D01*
X19847223Y-51093990D01*
X19861509Y-51065419D01*
X19890081Y-51022561D01*
X19904366Y-51008276D01*
X20004366Y-51079704D02*
X20018652Y-51065419D01*
X20047223Y-51051133D01*
X20118652Y-51051133D01*
X20147223Y-51065419D01*
X20161509Y-51079704D01*
X20175795Y-51108276D01*
X20175795Y-51136847D01*
X20161509Y-51179704D01*
X19990081Y-51351133D01*
X20175795Y-51351133D01*
X20532938Y-51351133D02*
X20532938Y-51051133D01*
X20661509Y-51351133D02*
X20661509Y-51193990D01*
X20647223Y-51165419D01*
X20618652Y-51151133D01*
X20575795Y-51151133D01*
X20547223Y-51165419D01*
X20532938Y-51179704D01*
X20847223Y-51351133D02*
X20818652Y-51336847D01*
X20804366Y-51322561D01*
X20790081Y-51293990D01*
X20790081Y-51208276D01*
X20804366Y-51179704D01*
X20818652Y-51165419D01*
X20847223Y-51151133D01*
X20890081Y-51151133D01*
X20918652Y-51165419D01*
X20932938Y-51179704D01*
X20947223Y-51208276D01*
X20947223Y-51293990D01*
X20932938Y-51322561D01*
X20918652Y-51336847D01*
X20890081Y-51351133D01*
X20847223Y-51351133D01*
X21118652Y-51351133D02*
X21090081Y-51336847D01*
X21075795Y-51308276D01*
X21075795Y-51051133D01*
X21347223Y-51336847D02*
X21318652Y-51351133D01*
X21261509Y-51351133D01*
X21232938Y-51336847D01*
X21218652Y-51308276D01*
X21218652Y-51193990D01*
X21232938Y-51165419D01*
X21261509Y-51151133D01*
X21318652Y-51151133D01*
X21347223Y-51165419D01*
X21361509Y-51193990D01*
X21361509Y-51222561D01*
X21218652Y-51251133D01*
X21475795Y-51336847D02*
X21504366Y-51351133D01*
X21561509Y-51351133D01*
X21590081Y-51336847D01*
X21604366Y-51308276D01*
X21604366Y-51293990D01*
X21590081Y-51265419D01*
X21561509Y-51251133D01*
X21518652Y-51251133D01*
X21490081Y-51236847D01*
X21475795Y-51208276D01*
X21475795Y-51193990D01*
X21490081Y-51165419D01*
X21518652Y-51151133D01*
X21561509Y-51151133D01*
X21590081Y-51165419D01*
X21704366Y-51465419D02*
X21718652Y-51451133D01*
X21747223Y-51408276D01*
X21761509Y-51379704D01*
X21775795Y-51336847D01*
X21790081Y-51265419D01*
X21790081Y-51208276D01*
X21775795Y-51136847D01*
X21761509Y-51093990D01*
X21747223Y-51065419D01*
X21718652Y-51022561D01*
X21704366Y-51008276D01*
X15017938Y-51511419D02*
X15217938Y-51711419D01*
X15217938Y-51511419D02*
X15017938Y-51711419D01*
X15117938Y-51711419D02*
X15217938Y-51611419D01*
X15117938Y-51511419D01*
X15017938Y-51611419D01*
X15117938Y-51711419D01*
X15490080Y-51475704D02*
X15504366Y-51461419D01*
X15532938Y-51447133D01*
X15604366Y-51447133D01*
X15632938Y-51461419D01*
X15647223Y-51475704D01*
X15661509Y-51504276D01*
X15661509Y-51532847D01*
X15647223Y-51575704D01*
X15475795Y-51747133D01*
X15661509Y-51747133D01*
X15790080Y-51718561D02*
X15804366Y-51732847D01*
X15790080Y-51747133D01*
X15775795Y-51732847D01*
X15790080Y-51718561D01*
X15790080Y-51747133D01*
X15990080Y-51447133D02*
X16018652Y-51447133D01*
X16047223Y-51461419D01*
X16061509Y-51475704D01*
X16075795Y-51504276D01*
X16090080Y-51561419D01*
X16090080Y-51632847D01*
X16075795Y-51689990D01*
X16061509Y-51718561D01*
X16047223Y-51732847D01*
X16018652Y-51747133D01*
X15990080Y-51747133D01*
X15961509Y-51732847D01*
X15947223Y-51718561D01*
X15932938Y-51689990D01*
X15918652Y-51632847D01*
X15918652Y-51561419D01*
X15932938Y-51504276D01*
X15947223Y-51475704D01*
X15961509Y-51461419D01*
X15990080Y-51447133D01*
X16275795Y-51447133D02*
X16304366Y-51447133D01*
X16332938Y-51461419D01*
X16347223Y-51475704D01*
X16361509Y-51504276D01*
X16375795Y-51561419D01*
X16375795Y-51632847D01*
X16361509Y-51689990D01*
X16347223Y-51718561D01*
X16332938Y-51732847D01*
X16304366Y-51747133D01*
X16275795Y-51747133D01*
X16247223Y-51732847D01*
X16232938Y-51718561D01*
X16218652Y-51689990D01*
X16204366Y-51632847D01*
X16204366Y-51561419D01*
X16218652Y-51504276D01*
X16232938Y-51475704D01*
X16247223Y-51461419D01*
X16275795Y-51447133D01*
X16504366Y-51747133D02*
X16504366Y-51547133D01*
X16504366Y-51575704D02*
X16518652Y-51561419D01*
X16547223Y-51547133D01*
X16590080Y-51547133D01*
X16618652Y-51561419D01*
X16632938Y-51589990D01*
X16632938Y-51747133D01*
X16632938Y-51589990D02*
X16647223Y-51561419D01*
X16675795Y-51547133D01*
X16718652Y-51547133D01*
X16747223Y-51561419D01*
X16761509Y-51589990D01*
X16761509Y-51747133D01*
X16904366Y-51747133D02*
X16904366Y-51547133D01*
X16904366Y-51575704D02*
X16918652Y-51561419D01*
X16947223Y-51547133D01*
X16990081Y-51547133D01*
X17018652Y-51561419D01*
X17032938Y-51589990D01*
X17032938Y-51747133D01*
X17032938Y-51589990D02*
X17047223Y-51561419D01*
X17075795Y-51547133D01*
X17118652Y-51547133D01*
X17147223Y-51561419D01*
X17161509Y-51589990D01*
X17161509Y-51747133D01*
X17747223Y-51432847D02*
X17490081Y-51818561D01*
X18132938Y-51447133D02*
X18161509Y-51447133D01*
X18190081Y-51461419D01*
X18204366Y-51475704D01*
X18218652Y-51504276D01*
X18232938Y-51561419D01*
X18232938Y-51632847D01*
X18218652Y-51689990D01*
X18204366Y-51718561D01*
X18190081Y-51732847D01*
X18161509Y-51747133D01*
X18132938Y-51747133D01*
X18104366Y-51732847D01*
X18090081Y-51718561D01*
X18075795Y-51689990D01*
X18061509Y-51632847D01*
X18061509Y-51561419D01*
X18075795Y-51504276D01*
X18090081Y-51475704D01*
X18104366Y-51461419D01*
X18132938Y-51447133D01*
X18361509Y-51718561D02*
X18375795Y-51732847D01*
X18361509Y-51747133D01*
X18347223Y-51732847D01*
X18361509Y-51718561D01*
X18361509Y-51747133D01*
X18561509Y-51447133D02*
X18590081Y-51447133D01*
X18618652Y-51461419D01*
X18632938Y-51475704D01*
X18647223Y-51504276D01*
X18661509Y-51561419D01*
X18661509Y-51632847D01*
X18647223Y-51689990D01*
X18632938Y-51718561D01*
X18618652Y-51732847D01*
X18590081Y-51747133D01*
X18561509Y-51747133D01*
X18532938Y-51732847D01*
X18518652Y-51718561D01*
X18504366Y-51689990D01*
X18490081Y-51632847D01*
X18490081Y-51561419D01*
X18504366Y-51504276D01*
X18518652Y-51475704D01*
X18532938Y-51461419D01*
X18561509Y-51447133D01*
X18761509Y-51447133D02*
X18961509Y-51447133D01*
X18832938Y-51747133D01*
X19090081Y-51747133D02*
X19147223Y-51747133D01*
X19175795Y-51732847D01*
X19190081Y-51718561D01*
X19218652Y-51675704D01*
X19232938Y-51618561D01*
X19232938Y-51504276D01*
X19218652Y-51475704D01*
X19204366Y-51461419D01*
X19175795Y-51447133D01*
X19118652Y-51447133D01*
X19090081Y-51461419D01*
X19075795Y-51475704D01*
X19061509Y-51504276D01*
X19061509Y-51575704D01*
X19075795Y-51604276D01*
X19090081Y-51618561D01*
X19118652Y-51632847D01*
X19175795Y-51632847D01*
X19204366Y-51618561D01*
X19218652Y-51604276D01*
X19232938Y-51575704D01*
X19347223Y-51447133D02*
X19347223Y-51504276D01*
X19461509Y-51447133D02*
X19461509Y-51504276D01*
X19904366Y-51861419D02*
X19890081Y-51847133D01*
X19861509Y-51804276D01*
X19847223Y-51775704D01*
X19832938Y-51732847D01*
X19818652Y-51661419D01*
X19818652Y-51604276D01*
X19832938Y-51532847D01*
X19847223Y-51489990D01*
X19861509Y-51461419D01*
X19890081Y-51418561D01*
X19904366Y-51404276D01*
X20175795Y-51747133D02*
X20004366Y-51747133D01*
X20090081Y-51747133D02*
X20090081Y-51447133D01*
X20061509Y-51489990D01*
X20032938Y-51518561D01*
X20004366Y-51532847D01*
X20532938Y-51747133D02*
X20532938Y-51447133D01*
X20661509Y-51747133D02*
X20661509Y-51589990D01*
X20647223Y-51561419D01*
X20618652Y-51547133D01*
X20575795Y-51547133D01*
X20547223Y-51561419D01*
X20532938Y-51575704D01*
X20847223Y-51747133D02*
X20818652Y-51732847D01*
X20804366Y-51718561D01*
X20790081Y-51689990D01*
X20790081Y-51604276D01*
X20804366Y-51575704D01*
X20818652Y-51561419D01*
X20847223Y-51547133D01*
X20890081Y-51547133D01*
X20918652Y-51561419D01*
X20932938Y-51575704D01*
X20947223Y-51604276D01*
X20947223Y-51689990D01*
X20932938Y-51718561D01*
X20918652Y-51732847D01*
X20890081Y-51747133D01*
X20847223Y-51747133D01*
X21118652Y-51747133D02*
X21090081Y-51732847D01*
X21075795Y-51704276D01*
X21075795Y-51447133D01*
X21347223Y-51732847D02*
X21318652Y-51747133D01*
X21261509Y-51747133D01*
X21232938Y-51732847D01*
X21218652Y-51704276D01*
X21218652Y-51589990D01*
X21232938Y-51561419D01*
X21261509Y-51547133D01*
X21318652Y-51547133D01*
X21347223Y-51561419D01*
X21361509Y-51589990D01*
X21361509Y-51618561D01*
X21218652Y-51647133D01*
X21461509Y-51861419D02*
X21475795Y-51847133D01*
X21504366Y-51804276D01*
X21518652Y-51775704D01*
X21532938Y-51732847D01*
X21547223Y-51661419D01*
X21547223Y-51604276D01*
X21532938Y-51532847D01*
X21518652Y-51489990D01*
X21504366Y-51461419D01*
X21475795Y-51418561D01*
X21461509Y-51404276D01*
M02*
