G04 #@! TF.GenerationSoftware,KiCad,Pcbnew,(5.1.4)-1*
G04 #@! TF.CreationDate,2023-06-17T18:32:24-04:00*
G04 #@! TF.ProjectId,ThumbsUp,5468756d-6273-4557-902e-6b696361645f,rev?*
G04 #@! TF.SameCoordinates,Original*
G04 #@! TF.FileFunction,Legend,Bot*
G04 #@! TF.FilePolarity,Positive*
%FSLAX46Y46*%
G04 Gerber Fmt 4.6, Leading zero omitted, Abs format (unit mm)*
G04 Created by KiCad (PCBNEW (5.1.4)-1) date 2023-06-17 18:32:24*
%MOMM*%
%LPD*%
G04 APERTURE LIST*
%ADD10C,0.150000*%
%ADD11C,0.120000*%
%ADD12C,0.200000*%
%ADD13C,0.100000*%
%ADD14C,0.254000*%
G04 APERTURE END LIST*
D10*
X165699047Y-444005714D02*
X165699047Y-444672380D01*
X166127619Y-444005714D02*
X166127619Y-444529523D01*
X166080000Y-444624761D01*
X165984761Y-444672380D01*
X165841904Y-444672380D01*
X165746666Y-444624761D01*
X165699047Y-444577142D01*
X164508571Y-443624761D02*
X165365714Y-444910476D01*
X164222857Y-444386666D02*
X163746666Y-444386666D01*
X164318095Y-444672380D02*
X163984761Y-443672380D01*
X163651428Y-444672380D01*
X163318095Y-444672380D02*
X163318095Y-443672380D01*
X162746666Y-444672380D02*
X163175238Y-444100952D01*
X162746666Y-443672380D02*
X163318095Y-444243809D01*
X161889523Y-443672380D02*
X162080000Y-443672380D01*
X162175238Y-443720000D01*
X162222857Y-443767619D01*
X162318095Y-443910476D01*
X162365714Y-444100952D01*
X162365714Y-444481904D01*
X162318095Y-444577142D01*
X162270476Y-444624761D01*
X162175238Y-444672380D01*
X161984761Y-444672380D01*
X161889523Y-444624761D01*
X161841904Y-444577142D01*
X161794285Y-444481904D01*
X161794285Y-444243809D01*
X161841904Y-444148571D01*
X161889523Y-444100952D01*
X161984761Y-444053333D01*
X162175238Y-444053333D01*
X162270476Y-444100952D01*
X162318095Y-444148571D01*
X162365714Y-444243809D01*
X160937142Y-443672380D02*
X161127619Y-443672380D01*
X161222857Y-443720000D01*
X161270476Y-443767619D01*
X161365714Y-443910476D01*
X161413333Y-444100952D01*
X161413333Y-444481904D01*
X161365714Y-444577142D01*
X161318095Y-444624761D01*
X161222857Y-444672380D01*
X161032380Y-444672380D01*
X160937142Y-444624761D01*
X160889523Y-444577142D01*
X160841904Y-444481904D01*
X160841904Y-444243809D01*
X160889523Y-444148571D01*
X160937142Y-444100952D01*
X161032380Y-444053333D01*
X161222857Y-444053333D01*
X161318095Y-444100952D01*
X161365714Y-444148571D01*
X161413333Y-444243809D01*
X159984761Y-443672380D02*
X160175238Y-443672380D01*
X160270476Y-443720000D01*
X160318095Y-443767619D01*
X160413333Y-443910476D01*
X160460952Y-444100952D01*
X160460952Y-444481904D01*
X160413333Y-444577142D01*
X160365714Y-444624761D01*
X160270476Y-444672380D01*
X160080000Y-444672380D01*
X159984761Y-444624761D01*
X159937142Y-444577142D01*
X159889523Y-444481904D01*
X159889523Y-444243809D01*
X159937142Y-444148571D01*
X159984761Y-444100952D01*
X160080000Y-444053333D01*
X160270476Y-444053333D01*
X160365714Y-444100952D01*
X160413333Y-444148571D01*
X160460952Y-444243809D01*
X159032380Y-443672380D02*
X159222857Y-443672380D01*
X159318095Y-443720000D01*
X159365714Y-443767619D01*
X159460952Y-443910476D01*
X159508571Y-444100952D01*
X159508571Y-444481904D01*
X159460952Y-444577142D01*
X159413333Y-444624761D01*
X159318095Y-444672380D01*
X159127619Y-444672380D01*
X159032380Y-444624761D01*
X158984761Y-444577142D01*
X158937142Y-444481904D01*
X158937142Y-444243809D01*
X158984761Y-444148571D01*
X159032380Y-444100952D01*
X159127619Y-444053333D01*
X159318095Y-444053333D01*
X159413333Y-444100952D01*
X159460952Y-444148571D01*
X159508571Y-444243809D01*
X158080000Y-443672380D02*
X158270476Y-443672380D01*
X158365714Y-443720000D01*
X158413333Y-443767619D01*
X158508571Y-443910476D01*
X158556190Y-444100952D01*
X158556190Y-444481904D01*
X158508571Y-444577142D01*
X158460952Y-444624761D01*
X158365714Y-444672380D01*
X158175238Y-444672380D01*
X158080000Y-444624761D01*
X158032380Y-444577142D01*
X157984761Y-444481904D01*
X157984761Y-444243809D01*
X158032380Y-444148571D01*
X158080000Y-444100952D01*
X158175238Y-444053333D01*
X158365714Y-444053333D01*
X158460952Y-444100952D01*
X158508571Y-444148571D01*
X158556190Y-444243809D01*
X168675238Y-445322380D02*
X168103809Y-445322380D01*
X168389523Y-446322380D02*
X168389523Y-445322380D01*
X167770476Y-446322380D02*
X167770476Y-445322380D01*
X167341904Y-446322380D02*
X167341904Y-445798571D01*
X167389523Y-445703333D01*
X167484761Y-445655714D01*
X167627619Y-445655714D01*
X167722857Y-445703333D01*
X167770476Y-445750952D01*
X166437142Y-445655714D02*
X166437142Y-446322380D01*
X166865714Y-445655714D02*
X166865714Y-446179523D01*
X166818095Y-446274761D01*
X166722857Y-446322380D01*
X166580000Y-446322380D01*
X166484761Y-446274761D01*
X166437142Y-446227142D01*
X165960952Y-446322380D02*
X165960952Y-445655714D01*
X165960952Y-445750952D02*
X165913333Y-445703333D01*
X165818095Y-445655714D01*
X165675238Y-445655714D01*
X165580000Y-445703333D01*
X165532380Y-445798571D01*
X165532380Y-446322380D01*
X165532380Y-445798571D02*
X165484761Y-445703333D01*
X165389523Y-445655714D01*
X165246666Y-445655714D01*
X165151428Y-445703333D01*
X165103809Y-445798571D01*
X165103809Y-446322380D01*
X164627619Y-446322380D02*
X164627619Y-445322380D01*
X164627619Y-445703333D02*
X164532380Y-445655714D01*
X164341904Y-445655714D01*
X164246666Y-445703333D01*
X164199047Y-445750952D01*
X164151428Y-445846190D01*
X164151428Y-446131904D01*
X164199047Y-446227142D01*
X164246666Y-446274761D01*
X164341904Y-446322380D01*
X164532380Y-446322380D01*
X164627619Y-446274761D01*
X163770476Y-446274761D02*
X163675238Y-446322380D01*
X163484761Y-446322380D01*
X163389523Y-446274761D01*
X163341904Y-446179523D01*
X163341904Y-446131904D01*
X163389523Y-446036666D01*
X163484761Y-445989047D01*
X163627619Y-445989047D01*
X163722857Y-445941428D01*
X163770476Y-445846190D01*
X163770476Y-445798571D01*
X163722857Y-445703333D01*
X163627619Y-445655714D01*
X163484761Y-445655714D01*
X163389523Y-445703333D01*
X162913333Y-445322380D02*
X162913333Y-446131904D01*
X162865714Y-446227142D01*
X162818095Y-446274761D01*
X162722857Y-446322380D01*
X162532380Y-446322380D01*
X162437142Y-446274761D01*
X162389523Y-446227142D01*
X162341904Y-446131904D01*
X162341904Y-445322380D01*
X161865714Y-445655714D02*
X161865714Y-446655714D01*
X161865714Y-445703333D02*
X161770476Y-445655714D01*
X161580000Y-445655714D01*
X161484761Y-445703333D01*
X161437142Y-445750952D01*
X161389523Y-445846190D01*
X161389523Y-446131904D01*
X161437142Y-446227142D01*
X161484761Y-446274761D01*
X161580000Y-446322380D01*
X161770476Y-446322380D01*
X161865714Y-446274761D01*
X160960952Y-446227142D02*
X160913333Y-446274761D01*
X160960952Y-446322380D01*
X161008571Y-446274761D01*
X160960952Y-446227142D01*
X160960952Y-446322380D01*
X160960952Y-445941428D02*
X161008571Y-445370000D01*
X160960952Y-445322380D01*
X160913333Y-445370000D01*
X160960952Y-445941428D01*
X160960952Y-445322380D01*
X159818095Y-445655714D02*
X159580000Y-446322380D01*
X159341904Y-445655714D01*
X158532380Y-445322380D02*
X158722857Y-445322380D01*
X158818095Y-445370000D01*
X158865714Y-445417619D01*
X158960952Y-445560476D01*
X159008571Y-445750952D01*
X159008571Y-446131904D01*
X158960952Y-446227142D01*
X158913333Y-446274761D01*
X158818095Y-446322380D01*
X158627619Y-446322380D01*
X158532380Y-446274761D01*
X158484761Y-446227142D01*
X158437142Y-446131904D01*
X158437142Y-445893809D01*
X158484761Y-445798571D01*
X158532380Y-445750952D01*
X158627619Y-445703333D01*
X158818095Y-445703333D01*
X158913333Y-445750952D01*
X158960952Y-445798571D01*
X159008571Y-445893809D01*
X157246666Y-446322380D02*
X157246666Y-445322380D01*
X156913333Y-446036666D01*
X156580000Y-445322380D01*
X156580000Y-446322380D01*
X156199047Y-445322380D02*
X155532380Y-446322380D01*
X155532380Y-445322380D02*
X156199047Y-446322380D01*
X166937142Y-447067619D02*
X166889523Y-447020000D01*
X166794285Y-446972380D01*
X166556190Y-446972380D01*
X166460952Y-447020000D01*
X166413333Y-447067619D01*
X166365714Y-447162857D01*
X166365714Y-447258095D01*
X166413333Y-447400952D01*
X166984761Y-447972380D01*
X166365714Y-447972380D01*
X165746666Y-446972380D02*
X165651428Y-446972380D01*
X165556190Y-447020000D01*
X165508571Y-447067619D01*
X165460952Y-447162857D01*
X165413333Y-447353333D01*
X165413333Y-447591428D01*
X165460952Y-447781904D01*
X165508571Y-447877142D01*
X165556190Y-447924761D01*
X165651428Y-447972380D01*
X165746666Y-447972380D01*
X165841904Y-447924761D01*
X165889523Y-447877142D01*
X165937142Y-447781904D01*
X165984761Y-447591428D01*
X165984761Y-447353333D01*
X165937142Y-447162857D01*
X165889523Y-447067619D01*
X165841904Y-447020000D01*
X165746666Y-446972380D01*
X165032380Y-447067619D02*
X164984761Y-447020000D01*
X164889523Y-446972380D01*
X164651428Y-446972380D01*
X164556190Y-447020000D01*
X164508571Y-447067619D01*
X164460952Y-447162857D01*
X164460952Y-447258095D01*
X164508571Y-447400952D01*
X165080000Y-447972380D01*
X164460952Y-447972380D01*
X164127619Y-446972380D02*
X163508571Y-446972380D01*
X163841904Y-447353333D01*
X163699047Y-447353333D01*
X163603809Y-447400952D01*
X163556190Y-447448571D01*
X163508571Y-447543809D01*
X163508571Y-447781904D01*
X163556190Y-447877142D01*
X163603809Y-447924761D01*
X163699047Y-447972380D01*
X163984761Y-447972380D01*
X164080000Y-447924761D01*
X164127619Y-447877142D01*
X163080000Y-447591428D02*
X162318095Y-447591428D01*
X161651428Y-446972380D02*
X161556190Y-446972380D01*
X161460952Y-447020000D01*
X161413333Y-447067619D01*
X161365714Y-447162857D01*
X161318095Y-447353333D01*
X161318095Y-447591428D01*
X161365714Y-447781904D01*
X161413333Y-447877142D01*
X161460952Y-447924761D01*
X161556190Y-447972380D01*
X161651428Y-447972380D01*
X161746666Y-447924761D01*
X161794285Y-447877142D01*
X161841904Y-447781904D01*
X161889523Y-447591428D01*
X161889523Y-447353333D01*
X161841904Y-447162857D01*
X161794285Y-447067619D01*
X161746666Y-447020000D01*
X161651428Y-446972380D01*
X160460952Y-446972380D02*
X160651428Y-446972380D01*
X160746666Y-447020000D01*
X160794285Y-447067619D01*
X160889523Y-447210476D01*
X160937142Y-447400952D01*
X160937142Y-447781904D01*
X160889523Y-447877142D01*
X160841904Y-447924761D01*
X160746666Y-447972380D01*
X160556190Y-447972380D01*
X160460952Y-447924761D01*
X160413333Y-447877142D01*
X160365714Y-447781904D01*
X160365714Y-447543809D01*
X160413333Y-447448571D01*
X160460952Y-447400952D01*
X160556190Y-447353333D01*
X160746666Y-447353333D01*
X160841904Y-447400952D01*
X160889523Y-447448571D01*
X160937142Y-447543809D01*
X159937142Y-447591428D02*
X159175238Y-447591428D01*
X158175238Y-447972380D02*
X158746666Y-447972380D01*
X158460952Y-447972380D02*
X158460952Y-446972380D01*
X158556190Y-447115238D01*
X158651428Y-447210476D01*
X158746666Y-447258095D01*
X157318095Y-447305714D02*
X157318095Y-447972380D01*
X157556190Y-446924761D02*
X157794285Y-447639047D01*
X157175238Y-447639047D01*
D11*
X164682064Y-427790000D02*
X163477936Y-427790000D01*
X164682064Y-425070000D02*
X163477936Y-425070000D01*
D12*
X167850000Y-428040000D02*
X169150000Y-428040000D01*
X170098000Y-421673000D02*
X170098000Y-428177000D01*
X173602000Y-421673000D02*
X170098000Y-421673000D01*
X173602000Y-428177000D02*
X173602000Y-421673000D01*
X170098000Y-428177000D02*
X173602000Y-428177000D01*
D11*
X167805000Y-391720000D02*
X167805000Y-389920000D01*
X167805000Y-386210000D02*
X167805000Y-387670000D01*
X176745000Y-386210000D02*
X176745000Y-387670000D01*
X176745000Y-391720000D02*
X176745000Y-389920000D01*
X176745000Y-386210000D02*
X167805000Y-386210000D01*
X154082019Y-431060280D02*
X155412019Y-431060280D01*
X154082019Y-429730280D02*
X154082019Y-431060280D01*
X154082019Y-428460280D02*
X156742019Y-428460280D01*
X156742019Y-428460280D02*
X156742019Y-420780280D01*
X154082019Y-428460280D02*
X154082019Y-420780280D01*
X154082019Y-420780280D02*
X156742019Y-420780280D01*
X154128726Y-399710794D02*
X155458726Y-399710794D01*
X154128726Y-398380794D02*
X154128726Y-399710794D01*
X154128726Y-397110794D02*
X156788726Y-397110794D01*
X156788726Y-397110794D02*
X156788726Y-389430794D01*
X154128726Y-397110794D02*
X154128726Y-389430794D01*
X154128726Y-389430794D02*
X156788726Y-389430794D01*
X229742025Y-449780322D02*
X228412025Y-449780322D01*
X229742025Y-451110322D02*
X229742025Y-449780322D01*
X229742025Y-452380322D02*
X227082025Y-452380322D01*
X227082025Y-452380322D02*
X227082025Y-460060322D01*
X229742025Y-452380322D02*
X229742025Y-460060322D01*
X229742025Y-460060322D02*
X227082025Y-460060322D01*
D12*
X157750000Y-403150000D02*
G75*
G03X157750000Y-403050000I0J50000D01*
G01*
X157750000Y-403050000D02*
G75*
G03X157750000Y-403150000I0J-50000D01*
G01*
X157750000Y-403150000D02*
G75*
G03X157750000Y-403050000I0J50000D01*
G01*
X157750000Y-403050000D02*
X157750000Y-403050000D01*
X157750000Y-403150000D02*
X157750000Y-403150000D01*
X157750000Y-403050000D02*
X157750000Y-403050000D01*
D13*
X159350000Y-404575000D02*
X165100000Y-404575000D01*
X159350000Y-404575000D02*
X159350000Y-404575000D01*
X165100000Y-404575000D02*
X159350000Y-404575000D01*
X165100000Y-404575000D02*
X165100000Y-404575000D01*
X168850000Y-404575000D02*
X169850000Y-404575000D01*
X168850000Y-404575000D02*
X168850000Y-404575000D01*
X169850000Y-404575000D02*
X168850000Y-404575000D01*
X169850000Y-404575000D02*
X169850000Y-404575000D01*
X169850000Y-410575000D02*
X169850000Y-410575000D01*
X169850000Y-404575000D02*
X169850000Y-410575000D01*
X169850000Y-404575000D02*
X169850000Y-404575000D01*
X169850000Y-410575000D02*
X169850000Y-404575000D01*
X169850000Y-410575000D02*
X161100000Y-410575000D01*
X169850000Y-410575000D02*
X169850000Y-410575000D01*
X161100000Y-410575000D02*
X169850000Y-410575000D01*
X161100000Y-410575000D02*
X161100000Y-410575000D01*
X158100000Y-410575000D02*
X155350000Y-410575000D01*
X158100000Y-410575000D02*
X158100000Y-410575000D01*
X155350000Y-410575000D02*
X158100000Y-410575000D01*
X155350000Y-410575000D02*
X155350000Y-410575000D01*
X155350000Y-410100000D02*
X155350000Y-410100000D01*
X155350000Y-410575000D02*
X155350000Y-410100000D01*
X155350000Y-410575000D02*
X155350000Y-410575000D01*
X155350000Y-410100000D02*
X155350000Y-410575000D01*
X152850000Y-405050000D02*
X155350000Y-405050000D01*
X152850000Y-410075000D02*
X152850000Y-405050000D01*
X155350000Y-410075000D02*
X152850000Y-410075000D01*
X155350000Y-405050000D02*
X155350000Y-410075000D01*
X155350000Y-404575000D02*
X155350000Y-404575000D01*
X155350000Y-405050000D02*
X155350000Y-404575000D01*
X155350000Y-405050000D02*
X155350000Y-405050000D01*
X155350000Y-404575000D02*
X155350000Y-405050000D01*
X155350000Y-404575000D02*
X156350000Y-404575000D01*
X155350000Y-404575000D02*
X155350000Y-404575000D01*
X156350000Y-404575000D02*
X155350000Y-404575000D01*
X156350000Y-404575000D02*
X156350000Y-404575000D01*
X203356922Y-461083959D02*
X202835913Y-459153014D01*
X197564087Y-462646986D02*
X197043078Y-460716041D01*
X199050568Y-464317427D02*
X202912459Y-463275409D01*
X197487541Y-458524591D02*
X201349432Y-457482573D01*
X213056922Y-458483959D02*
X212535913Y-456553014D01*
X207264087Y-460046986D02*
X206743078Y-458116041D01*
X208750568Y-461717427D02*
X212612459Y-460675409D01*
X207187541Y-455924591D02*
X211049432Y-454882573D01*
D11*
X177880000Y-388530000D02*
X177880000Y-389860000D01*
X179210000Y-388530000D02*
X177880000Y-388530000D01*
X180480000Y-388530000D02*
X180480000Y-391190000D01*
X180480000Y-391190000D02*
X188160000Y-391190000D01*
X180480000Y-388530000D02*
X188160000Y-388530000D01*
X188160000Y-388530000D02*
X188160000Y-391190000D01*
X171530000Y-412572064D02*
X171530000Y-411367936D01*
X173350000Y-412572064D02*
X173350000Y-411367936D01*
X164222759Y-472042071D02*
X164566989Y-473326752D01*
X165507441Y-471697842D02*
X164222759Y-472042071D01*
X166734166Y-471369141D02*
X167422625Y-473938504D01*
X167422625Y-473938504D02*
X174840935Y-471950774D01*
X166734166Y-471369141D02*
X174152477Y-469381411D01*
X174152477Y-469381411D02*
X174840935Y-471950774D01*
D14*
X171300000Y-453125000D02*
G75*
G03X171300000Y-453125000I-100000J0D01*
G01*
X187935880Y-463630000D02*
G75*
G03X187935880Y-463630000I-125880J0D01*
G01*
D12*
X188700000Y-449825000D02*
X187600000Y-449825000D01*
X183900000Y-449825000D02*
X185000000Y-449825000D01*
X183900000Y-461225000D02*
X185000000Y-461225000D01*
X188700000Y-461225000D02*
X187600000Y-461225000D01*
X183900000Y-461225000D02*
X183900000Y-449825000D01*
X188700000Y-461225000D02*
X188700000Y-449825000D01*
X165580000Y-466125000D02*
X165580000Y-464475000D01*
X160360000Y-464125000D02*
X165640000Y-464125000D01*
X160360000Y-459275000D02*
X160360000Y-464125000D01*
X165640000Y-459275000D02*
X160360000Y-459275000D01*
X165640000Y-464125000D02*
X165640000Y-459275000D01*
D11*
X187689012Y-411172011D02*
X187689012Y-409842011D01*
X186359012Y-411172011D02*
X187689012Y-411172011D01*
X185089012Y-411172011D02*
X185089012Y-408512011D01*
X185089012Y-408512011D02*
X177409012Y-408512011D01*
X185089012Y-411172011D02*
X177409012Y-411172011D01*
X177409012Y-411172011D02*
X177409012Y-408512011D01*
X187386722Y-430287847D02*
X187386722Y-428957847D01*
X186056722Y-430287847D02*
X187386722Y-430287847D01*
X184786722Y-430287847D02*
X184786722Y-427627847D01*
X184786722Y-427627847D02*
X177106722Y-427627847D01*
X184786722Y-430287847D02*
X177106722Y-430287847D01*
X177106722Y-430287847D02*
X177106722Y-427627847D01*
D10*
X164722857Y-424507142D02*
X164770476Y-424554761D01*
X164913333Y-424602380D01*
X165008571Y-424602380D01*
X165151428Y-424554761D01*
X165246666Y-424459523D01*
X165294285Y-424364285D01*
X165341904Y-424173809D01*
X165341904Y-424030952D01*
X165294285Y-423840476D01*
X165246666Y-423745238D01*
X165151428Y-423650000D01*
X165008571Y-423602380D01*
X164913333Y-423602380D01*
X164770476Y-423650000D01*
X164722857Y-423697619D01*
X163770476Y-424602380D02*
X164341904Y-424602380D01*
X164056190Y-424602380D02*
X164056190Y-423602380D01*
X164151428Y-423745238D01*
X164246666Y-423840476D01*
X164341904Y-423888095D01*
X163199047Y-424030952D02*
X163294285Y-423983333D01*
X163341904Y-423935714D01*
X163389523Y-423840476D01*
X163389523Y-423792857D01*
X163341904Y-423697619D01*
X163294285Y-423650000D01*
X163199047Y-423602380D01*
X163008571Y-423602380D01*
X162913333Y-423650000D01*
X162865714Y-423697619D01*
X162818095Y-423792857D01*
X162818095Y-423840476D01*
X162865714Y-423935714D01*
X162913333Y-423983333D01*
X163008571Y-424030952D01*
X163199047Y-424030952D01*
X163294285Y-424078571D01*
X163341904Y-424126190D01*
X163389523Y-424221428D01*
X163389523Y-424411904D01*
X163341904Y-424507142D01*
X163294285Y-424554761D01*
X163199047Y-424602380D01*
X163008571Y-424602380D01*
X162913333Y-424554761D01*
X162865714Y-424507142D01*
X162818095Y-424411904D01*
X162818095Y-424221428D01*
X162865714Y-424126190D01*
X162913333Y-424078571D01*
X163008571Y-424030952D01*
D14*
X172817619Y-424229523D02*
X172817619Y-425257619D01*
X172757142Y-425378571D01*
X172696666Y-425439047D01*
X172575714Y-425499523D01*
X172333809Y-425499523D01*
X172212857Y-425439047D01*
X172152380Y-425378571D01*
X172091904Y-425257619D01*
X172091904Y-424229523D01*
X171547619Y-424350476D02*
X171487142Y-424290000D01*
X171366190Y-424229523D01*
X171063809Y-424229523D01*
X170942857Y-424290000D01*
X170882380Y-424350476D01*
X170821904Y-424471428D01*
X170821904Y-424592380D01*
X170882380Y-424773809D01*
X171608095Y-425499523D01*
X170821904Y-425499523D01*
D10*
X173084523Y-395082380D02*
X173084523Y-395796666D01*
X173132142Y-395939523D01*
X173227380Y-396034761D01*
X173370238Y-396082380D01*
X173465476Y-396082380D01*
X172703571Y-395082380D02*
X172084523Y-395082380D01*
X172417857Y-395463333D01*
X172275000Y-395463333D01*
X172179761Y-395510952D01*
X172132142Y-395558571D01*
X172084523Y-395653809D01*
X172084523Y-395891904D01*
X172132142Y-395987142D01*
X172179761Y-396034761D01*
X172275000Y-396082380D01*
X172560714Y-396082380D01*
X172655952Y-396034761D01*
X172703571Y-395987142D01*
X171751190Y-395082380D02*
X171084523Y-395082380D01*
X171513095Y-396082380D01*
X156221542Y-431512660D02*
X156221542Y-432226946D01*
X156269161Y-432369803D01*
X156364399Y-432465041D01*
X156507257Y-432512660D01*
X156602495Y-432512660D01*
X155316780Y-431845994D02*
X155316780Y-432512660D01*
X155554876Y-431465041D02*
X155792971Y-432179327D01*
X155173923Y-432179327D01*
X154888209Y-431512660D02*
X154269161Y-431512660D01*
X154602495Y-431893613D01*
X154459638Y-431893613D01*
X154364399Y-431941232D01*
X154316780Y-431988851D01*
X154269161Y-432084089D01*
X154269161Y-432322184D01*
X154316780Y-432417422D01*
X154364399Y-432465041D01*
X154459638Y-432512660D01*
X154745352Y-432512660D01*
X154840590Y-432465041D01*
X154888209Y-432417422D01*
X156268249Y-400163174D02*
X156268249Y-400877460D01*
X156315868Y-401020317D01*
X156411106Y-401115555D01*
X156553964Y-401163174D01*
X156649202Y-401163174D01*
X155363487Y-400496508D02*
X155363487Y-401163174D01*
X155601583Y-400115555D02*
X155839678Y-400829841D01*
X155220630Y-400829841D01*
X154315868Y-401163174D02*
X154887297Y-401163174D01*
X154601583Y-401163174D02*
X154601583Y-400163174D01*
X154696821Y-400306032D01*
X154792059Y-400401270D01*
X154887297Y-400448889D01*
X229221548Y-448232702D02*
X229221548Y-448946988D01*
X229269167Y-449089845D01*
X229364405Y-449185083D01*
X229507263Y-449232702D01*
X229602501Y-449232702D01*
X228792977Y-448327941D02*
X228745358Y-448280322D01*
X228650120Y-448232702D01*
X228412025Y-448232702D01*
X228316786Y-448280322D01*
X228269167Y-448327941D01*
X228221548Y-448423179D01*
X228221548Y-448518417D01*
X228269167Y-448661274D01*
X228840596Y-449232702D01*
X228221548Y-449232702D01*
X227364405Y-448566036D02*
X227364405Y-449232702D01*
X227602501Y-448185083D02*
X227840596Y-448899369D01*
X227221548Y-448899369D01*
D14*
X160654523Y-406421904D02*
X161561666Y-406421904D01*
X161743095Y-406361428D01*
X161864047Y-406240476D01*
X161924523Y-406059047D01*
X161924523Y-405938095D01*
X161077857Y-407570952D02*
X161924523Y-407570952D01*
X160594047Y-407268571D02*
X161501190Y-406966190D01*
X161501190Y-407752380D01*
X160654523Y-408780476D02*
X160654523Y-408538571D01*
X160715000Y-408417619D01*
X160775476Y-408357142D01*
X160956904Y-408236190D01*
X161198809Y-408175714D01*
X161682619Y-408175714D01*
X161803571Y-408236190D01*
X161864047Y-408296666D01*
X161924523Y-408417619D01*
X161924523Y-408659523D01*
X161864047Y-408780476D01*
X161803571Y-408840952D01*
X161682619Y-408901428D01*
X161380238Y-408901428D01*
X161259285Y-408840952D01*
X161198809Y-408780476D01*
X161138333Y-408659523D01*
X161138333Y-408417619D01*
X161198809Y-408296666D01*
X161259285Y-408236190D01*
X161380238Y-408175714D01*
X202538562Y-464352951D02*
X202789736Y-463658790D01*
X203239220Y-464163900D02*
X202908379Y-462937749D01*
X202441274Y-463063784D01*
X202340252Y-463153681D01*
X202297618Y-463227823D01*
X202270739Y-463360354D01*
X202318002Y-463535518D01*
X202407899Y-463636540D01*
X202482041Y-463679174D01*
X202614571Y-463706053D01*
X203081676Y-463580018D01*
X201682229Y-463268590D02*
X201950052Y-464261188D01*
X201923173Y-464393718D01*
X201880539Y-464467861D01*
X201779517Y-464557758D01*
X201545964Y-464620775D01*
X201413434Y-464593895D01*
X201339291Y-464551262D01*
X201249395Y-464450240D01*
X200981571Y-463457642D01*
X200728531Y-464841335D02*
X200397690Y-463615185D01*
X200027874Y-465030387D01*
X199697033Y-463804237D01*
X199203049Y-464062802D02*
X199128906Y-464020168D01*
X198996376Y-463993289D01*
X198704435Y-464072060D01*
X198603413Y-464161957D01*
X198560779Y-464236099D01*
X198533900Y-464368630D01*
X198565409Y-464485406D01*
X198671060Y-464644816D01*
X199560769Y-465156422D01*
X198801723Y-465361228D01*
X215459177Y-460064755D02*
X215299767Y-460170406D01*
X215257133Y-460244549D01*
X215230254Y-460377079D01*
X215277517Y-460552243D01*
X215367414Y-460653265D01*
X215441556Y-460695899D01*
X215574087Y-460722779D01*
X216041191Y-460596744D01*
X215710351Y-459370594D01*
X215301634Y-459480874D01*
X215200612Y-459570771D01*
X215157978Y-459644913D01*
X215131099Y-459777444D01*
X215162607Y-459894220D01*
X215252504Y-459995242D01*
X215326647Y-460037876D01*
X215459177Y-460064755D01*
X215867894Y-459954475D01*
X214250648Y-459764452D02*
X214017096Y-459827469D01*
X213916074Y-459917366D01*
X213830806Y-460065651D01*
X213835435Y-460314957D01*
X213945716Y-460723674D01*
X214067121Y-460941472D01*
X214215406Y-461026740D01*
X214347936Y-461053619D01*
X214581489Y-460990602D01*
X214682511Y-460900705D01*
X214767778Y-460752420D01*
X214763149Y-460503114D01*
X214652869Y-460094397D01*
X214531463Y-459876599D01*
X214383179Y-459791331D01*
X214250648Y-459764452D01*
X212966110Y-460111047D02*
X212732557Y-460174064D01*
X212631535Y-460263961D01*
X212546268Y-460412246D01*
X212550897Y-460661552D01*
X212661177Y-461070269D01*
X212782583Y-461288067D01*
X212930867Y-461373335D01*
X213063398Y-461400214D01*
X213296950Y-461337197D01*
X213397972Y-461247300D01*
X213483240Y-461099015D01*
X213478611Y-460849709D01*
X213368330Y-460440992D01*
X213246925Y-460223194D01*
X213098640Y-460137926D01*
X212966110Y-460111047D01*
X212090288Y-460347362D02*
X211389631Y-460536413D01*
X212070800Y-461668038D02*
X211739959Y-460441888D01*
X211354389Y-461798701D02*
X211194979Y-461904353D01*
X210903038Y-461983124D01*
X210770507Y-461956245D01*
X210696365Y-461913611D01*
X210606468Y-461812589D01*
X210574960Y-461695813D01*
X210601839Y-461563282D01*
X210644473Y-461489140D01*
X210745495Y-461399243D01*
X210963293Y-461277838D01*
X211064315Y-461187941D01*
X211106949Y-461113799D01*
X211133828Y-460981268D01*
X211102319Y-460864492D01*
X211012423Y-460763470D01*
X210938280Y-460720836D01*
X210805750Y-460693957D01*
X210513809Y-460772728D01*
X210354399Y-460878379D01*
X209970695Y-461545661D02*
X209561978Y-461655941D01*
X209560112Y-462345474D02*
X210143993Y-462187930D01*
X209813152Y-460961780D01*
X209229271Y-461119323D01*
X208450738Y-462644806D02*
X209034619Y-462487262D01*
X208703778Y-461261112D01*
X207801077Y-461629958D02*
X207726934Y-461587324D01*
X207594404Y-461560444D01*
X207302463Y-461639216D01*
X207201441Y-461729113D01*
X207158808Y-461803255D01*
X207131928Y-461935786D01*
X207163437Y-462052562D01*
X207269088Y-462211972D01*
X208158797Y-462723577D01*
X207399752Y-462928383D01*
D10*
X176332380Y-389050476D02*
X177046666Y-389050476D01*
X177189523Y-389002857D01*
X177284761Y-388907619D01*
X177332380Y-388764761D01*
X177332380Y-388669523D01*
X176332380Y-390002857D02*
X176332380Y-389526666D01*
X176808571Y-389479047D01*
X176760952Y-389526666D01*
X176713333Y-389621904D01*
X176713333Y-389860000D01*
X176760952Y-389955238D01*
X176808571Y-390002857D01*
X176903809Y-390050476D01*
X177141904Y-390050476D01*
X177237142Y-390002857D01*
X177284761Y-389955238D01*
X177332380Y-389860000D01*
X177332380Y-389621904D01*
X177284761Y-389526666D01*
X177237142Y-389479047D01*
X176427619Y-390431428D02*
X176380000Y-390479047D01*
X176332380Y-390574285D01*
X176332380Y-390812380D01*
X176380000Y-390907619D01*
X176427619Y-390955238D01*
X176522857Y-391002857D01*
X176618095Y-391002857D01*
X176760952Y-390955238D01*
X177332380Y-390383809D01*
X177332380Y-391002857D01*
X183742857Y-454107142D02*
X183790476Y-454154761D01*
X183933333Y-454202380D01*
X184028571Y-454202380D01*
X184171428Y-454154761D01*
X184266666Y-454059523D01*
X184314285Y-453964285D01*
X184361904Y-453773809D01*
X184361904Y-453630952D01*
X184314285Y-453440476D01*
X184266666Y-453345238D01*
X184171428Y-453250000D01*
X184028571Y-453202380D01*
X183933333Y-453202380D01*
X183790476Y-453250000D01*
X183742857Y-453297619D01*
X183361904Y-453297619D02*
X183314285Y-453250000D01*
X183219047Y-453202380D01*
X182980952Y-453202380D01*
X182885714Y-453250000D01*
X182838095Y-453297619D01*
X182790476Y-453392857D01*
X182790476Y-453488095D01*
X182838095Y-453630952D01*
X183409523Y-454202380D01*
X182790476Y-454202380D01*
X181838095Y-454202380D02*
X182409523Y-454202380D01*
X182123809Y-454202380D02*
X182123809Y-453202380D01*
X182219047Y-453345238D01*
X182314285Y-453440476D01*
X182409523Y-453488095D01*
X170442857Y-460707142D02*
X170490476Y-460754761D01*
X170633333Y-460802380D01*
X170728571Y-460802380D01*
X170871428Y-460754761D01*
X170966666Y-460659523D01*
X171014285Y-460564285D01*
X171061904Y-460373809D01*
X171061904Y-460230952D01*
X171014285Y-460040476D01*
X170966666Y-459945238D01*
X170871428Y-459850000D01*
X170728571Y-459802380D01*
X170633333Y-459802380D01*
X170490476Y-459850000D01*
X170442857Y-459897619D01*
X170061904Y-459897619D02*
X170014285Y-459850000D01*
X169919047Y-459802380D01*
X169680952Y-459802380D01*
X169585714Y-459850000D01*
X169538095Y-459897619D01*
X169490476Y-459992857D01*
X169490476Y-460088095D01*
X169538095Y-460230952D01*
X170109523Y-460802380D01*
X169490476Y-460802380D01*
X168633333Y-460135714D02*
X168633333Y-460802380D01*
X168871428Y-459754761D02*
X169109523Y-460469047D01*
X168490476Y-460469047D01*
X183842857Y-457807142D02*
X183890476Y-457854761D01*
X184033333Y-457902380D01*
X184128571Y-457902380D01*
X184271428Y-457854761D01*
X184366666Y-457759523D01*
X184414285Y-457664285D01*
X184461904Y-457473809D01*
X184461904Y-457330952D01*
X184414285Y-457140476D01*
X184366666Y-457045238D01*
X184271428Y-456950000D01*
X184128571Y-456902380D01*
X184033333Y-456902380D01*
X183890476Y-456950000D01*
X183842857Y-456997619D01*
X183461904Y-456997619D02*
X183414285Y-456950000D01*
X183319047Y-456902380D01*
X183080952Y-456902380D01*
X182985714Y-456950000D01*
X182938095Y-456997619D01*
X182890476Y-457092857D01*
X182890476Y-457188095D01*
X182938095Y-457330952D01*
X183509523Y-457902380D01*
X182890476Y-457902380D01*
X182509523Y-456997619D02*
X182461904Y-456950000D01*
X182366666Y-456902380D01*
X182128571Y-456902380D01*
X182033333Y-456950000D01*
X181985714Y-456997619D01*
X181938095Y-457092857D01*
X181938095Y-457188095D01*
X181985714Y-457330952D01*
X182557142Y-457902380D01*
X181938095Y-457902380D01*
X165942857Y-455207142D02*
X165990476Y-455254761D01*
X166133333Y-455302380D01*
X166228571Y-455302380D01*
X166371428Y-455254761D01*
X166466666Y-455159523D01*
X166514285Y-455064285D01*
X166561904Y-454873809D01*
X166561904Y-454730952D01*
X166514285Y-454540476D01*
X166466666Y-454445238D01*
X166371428Y-454350000D01*
X166228571Y-454302380D01*
X166133333Y-454302380D01*
X165990476Y-454350000D01*
X165942857Y-454397619D01*
X164990476Y-455302380D02*
X165561904Y-455302380D01*
X165276190Y-455302380D02*
X165276190Y-454302380D01*
X165371428Y-454445238D01*
X165466666Y-454540476D01*
X165561904Y-454588095D01*
X164514285Y-455302380D02*
X164323809Y-455302380D01*
X164228571Y-455254761D01*
X164180952Y-455207142D01*
X164085714Y-455064285D01*
X164038095Y-454873809D01*
X164038095Y-454492857D01*
X164085714Y-454397619D01*
X164133333Y-454350000D01*
X164228571Y-454302380D01*
X164419047Y-454302380D01*
X164514285Y-454350000D01*
X164561904Y-454397619D01*
X164609523Y-454492857D01*
X164609523Y-454730952D01*
X164561904Y-454826190D01*
X164514285Y-454873809D01*
X164419047Y-454921428D01*
X164228571Y-454921428D01*
X164133333Y-454873809D01*
X164085714Y-454826190D01*
X164038095Y-454730952D01*
X159757142Y-424943333D02*
X159804761Y-424895714D01*
X159852380Y-424752857D01*
X159852380Y-424657619D01*
X159804761Y-424514761D01*
X159709523Y-424419523D01*
X159614285Y-424371904D01*
X159423809Y-424324285D01*
X159280952Y-424324285D01*
X159090476Y-424371904D01*
X158995238Y-424419523D01*
X158900000Y-424514761D01*
X158852380Y-424657619D01*
X158852380Y-424752857D01*
X158900000Y-424895714D01*
X158947619Y-424943333D01*
X159280952Y-425514761D02*
X159233333Y-425419523D01*
X159185714Y-425371904D01*
X159090476Y-425324285D01*
X159042857Y-425324285D01*
X158947619Y-425371904D01*
X158900000Y-425419523D01*
X158852380Y-425514761D01*
X158852380Y-425705238D01*
X158900000Y-425800476D01*
X158947619Y-425848095D01*
X159042857Y-425895714D01*
X159090476Y-425895714D01*
X159185714Y-425848095D01*
X159233333Y-425800476D01*
X159280952Y-425705238D01*
X159280952Y-425514761D01*
X159328571Y-425419523D01*
X159376190Y-425371904D01*
X159471428Y-425324285D01*
X159661904Y-425324285D01*
X159757142Y-425371904D01*
X159804761Y-425419523D01*
X159852380Y-425514761D01*
X159852380Y-425705238D01*
X159804761Y-425800476D01*
X159757142Y-425848095D01*
X159661904Y-425895714D01*
X159471428Y-425895714D01*
X159376190Y-425848095D01*
X159328571Y-425800476D01*
X159280952Y-425705238D01*
X168342857Y-459807142D02*
X168390476Y-459854761D01*
X168533333Y-459902380D01*
X168628571Y-459902380D01*
X168771428Y-459854761D01*
X168866666Y-459759523D01*
X168914285Y-459664285D01*
X168961904Y-459473809D01*
X168961904Y-459330952D01*
X168914285Y-459140476D01*
X168866666Y-459045238D01*
X168771428Y-458950000D01*
X168628571Y-458902380D01*
X168533333Y-458902380D01*
X168390476Y-458950000D01*
X168342857Y-458997619D01*
X167961904Y-458997619D02*
X167914285Y-458950000D01*
X167819047Y-458902380D01*
X167580952Y-458902380D01*
X167485714Y-458950000D01*
X167438095Y-458997619D01*
X167390476Y-459092857D01*
X167390476Y-459188095D01*
X167438095Y-459330952D01*
X168009523Y-459902380D01*
X167390476Y-459902380D01*
X166771428Y-458902380D02*
X166676190Y-458902380D01*
X166580952Y-458950000D01*
X166533333Y-458997619D01*
X166485714Y-459092857D01*
X166438095Y-459283333D01*
X166438095Y-459521428D01*
X166485714Y-459711904D01*
X166533333Y-459807142D01*
X166580952Y-459854761D01*
X166676190Y-459902380D01*
X166771428Y-459902380D01*
X166866666Y-459854761D01*
X166914285Y-459807142D01*
X166961904Y-459711904D01*
X167009523Y-459521428D01*
X167009523Y-459283333D01*
X166961904Y-459092857D01*
X166914285Y-458997619D01*
X166866666Y-458950000D01*
X166771428Y-458902380D01*
X171407142Y-466257142D02*
X171454761Y-466209523D01*
X171502380Y-466066666D01*
X171502380Y-465971428D01*
X171454761Y-465828571D01*
X171359523Y-465733333D01*
X171264285Y-465685714D01*
X171073809Y-465638095D01*
X170930952Y-465638095D01*
X170740476Y-465685714D01*
X170645238Y-465733333D01*
X170550000Y-465828571D01*
X170502380Y-465971428D01*
X170502380Y-466066666D01*
X170550000Y-466209523D01*
X170597619Y-466257142D01*
X170597619Y-466638095D02*
X170550000Y-466685714D01*
X170502380Y-466780952D01*
X170502380Y-467019047D01*
X170550000Y-467114285D01*
X170597619Y-467161904D01*
X170692857Y-467209523D01*
X170788095Y-467209523D01*
X170930952Y-467161904D01*
X171502380Y-466590476D01*
X171502380Y-467209523D01*
X170502380Y-467542857D02*
X170502380Y-468161904D01*
X170883333Y-467828571D01*
X170883333Y-467971428D01*
X170930952Y-468066666D01*
X170978571Y-468114285D01*
X171073809Y-468161904D01*
X171311904Y-468161904D01*
X171407142Y-468114285D01*
X171454761Y-468066666D01*
X171502380Y-467971428D01*
X171502380Y-467685714D01*
X171454761Y-467590476D01*
X171407142Y-467542857D01*
X170492857Y-461957142D02*
X170540476Y-462004761D01*
X170683333Y-462052380D01*
X170778571Y-462052380D01*
X170921428Y-462004761D01*
X171016666Y-461909523D01*
X171064285Y-461814285D01*
X171111904Y-461623809D01*
X171111904Y-461480952D01*
X171064285Y-461290476D01*
X171016666Y-461195238D01*
X170921428Y-461100000D01*
X170778571Y-461052380D01*
X170683333Y-461052380D01*
X170540476Y-461100000D01*
X170492857Y-461147619D01*
X170111904Y-461147619D02*
X170064285Y-461100000D01*
X169969047Y-461052380D01*
X169730952Y-461052380D01*
X169635714Y-461100000D01*
X169588095Y-461147619D01*
X169540476Y-461242857D01*
X169540476Y-461338095D01*
X169588095Y-461480952D01*
X170159523Y-462052380D01*
X169540476Y-462052380D01*
X168635714Y-461052380D02*
X169111904Y-461052380D01*
X169159523Y-461528571D01*
X169111904Y-461480952D01*
X169016666Y-461433333D01*
X168778571Y-461433333D01*
X168683333Y-461480952D01*
X168635714Y-461528571D01*
X168588095Y-461623809D01*
X168588095Y-461861904D01*
X168635714Y-461957142D01*
X168683333Y-462004761D01*
X168778571Y-462052380D01*
X169016666Y-462052380D01*
X169111904Y-462004761D01*
X169159523Y-461957142D01*
X174188571Y-411636666D02*
X174188571Y-411303333D01*
X174712380Y-411303333D02*
X173712380Y-411303333D01*
X173712380Y-411779523D01*
X173807619Y-412112857D02*
X173760000Y-412160476D01*
X173712380Y-412255714D01*
X173712380Y-412493809D01*
X173760000Y-412589047D01*
X173807619Y-412636666D01*
X173902857Y-412684285D01*
X173998095Y-412684285D01*
X174140952Y-412636666D01*
X174712380Y-412065238D01*
X174712380Y-412684285D01*
X177202142Y-449867142D02*
X177249761Y-449819523D01*
X177297380Y-449676666D01*
X177297380Y-449581428D01*
X177249761Y-449438571D01*
X177154523Y-449343333D01*
X177059285Y-449295714D01*
X176868809Y-449248095D01*
X176725952Y-449248095D01*
X176535476Y-449295714D01*
X176440238Y-449343333D01*
X176345000Y-449438571D01*
X176297380Y-449581428D01*
X176297380Y-449676666D01*
X176345000Y-449819523D01*
X176392619Y-449867142D01*
X176297380Y-450200476D02*
X176297380Y-450819523D01*
X176678333Y-450486190D01*
X176678333Y-450629047D01*
X176725952Y-450724285D01*
X176773571Y-450771904D01*
X176868809Y-450819523D01*
X177106904Y-450819523D01*
X177202142Y-450771904D01*
X177249761Y-450724285D01*
X177297380Y-450629047D01*
X177297380Y-450343333D01*
X177249761Y-450248095D01*
X177202142Y-450200476D01*
X176392619Y-451200476D02*
X176345000Y-451248095D01*
X176297380Y-451343333D01*
X176297380Y-451581428D01*
X176345000Y-451676666D01*
X176392619Y-451724285D01*
X176487857Y-451771904D01*
X176583095Y-451771904D01*
X176725952Y-451724285D01*
X177297380Y-451152857D01*
X177297380Y-451771904D01*
X181092857Y-455602380D02*
X181426190Y-455126190D01*
X181664285Y-455602380D02*
X181664285Y-454602380D01*
X181283333Y-454602380D01*
X181188095Y-454650000D01*
X181140476Y-454697619D01*
X181092857Y-454792857D01*
X181092857Y-454935714D01*
X181140476Y-455030952D01*
X181188095Y-455078571D01*
X181283333Y-455126190D01*
X181664285Y-455126190D01*
X180140476Y-455602380D02*
X180711904Y-455602380D01*
X180426190Y-455602380D02*
X180426190Y-454602380D01*
X180521428Y-454745238D01*
X180616666Y-454840476D01*
X180711904Y-454888095D01*
X179283333Y-454602380D02*
X179473809Y-454602380D01*
X179569047Y-454650000D01*
X179616666Y-454697619D01*
X179711904Y-454840476D01*
X179759523Y-455030952D01*
X179759523Y-455411904D01*
X179711904Y-455507142D01*
X179664285Y-455554761D01*
X179569047Y-455602380D01*
X179378571Y-455602380D01*
X179283333Y-455554761D01*
X179235714Y-455507142D01*
X179188095Y-455411904D01*
X179188095Y-455173809D01*
X179235714Y-455078571D01*
X179283333Y-455030952D01*
X179378571Y-454983333D01*
X179569047Y-454983333D01*
X179664285Y-455030952D01*
X179711904Y-455078571D01*
X179759523Y-455173809D01*
X170727142Y-451872142D02*
X170774761Y-451824523D01*
X170822380Y-451681666D01*
X170822380Y-451586428D01*
X170774761Y-451443571D01*
X170679523Y-451348333D01*
X170584285Y-451300714D01*
X170393809Y-451253095D01*
X170250952Y-451253095D01*
X170060476Y-451300714D01*
X169965238Y-451348333D01*
X169870000Y-451443571D01*
X169822380Y-451586428D01*
X169822380Y-451681666D01*
X169870000Y-451824523D01*
X169917619Y-451872142D01*
X169917619Y-452253095D02*
X169870000Y-452300714D01*
X169822380Y-452395952D01*
X169822380Y-452634047D01*
X169870000Y-452729285D01*
X169917619Y-452776904D01*
X170012857Y-452824523D01*
X170108095Y-452824523D01*
X170250952Y-452776904D01*
X170822380Y-452205476D01*
X170822380Y-452824523D01*
X169822380Y-453157857D02*
X169822380Y-453824523D01*
X170822380Y-453395952D01*
X168742857Y-456607142D02*
X168790476Y-456654761D01*
X168933333Y-456702380D01*
X169028571Y-456702380D01*
X169171428Y-456654761D01*
X169266666Y-456559523D01*
X169314285Y-456464285D01*
X169361904Y-456273809D01*
X169361904Y-456130952D01*
X169314285Y-455940476D01*
X169266666Y-455845238D01*
X169171428Y-455750000D01*
X169028571Y-455702380D01*
X168933333Y-455702380D01*
X168790476Y-455750000D01*
X168742857Y-455797619D01*
X168361904Y-455797619D02*
X168314285Y-455750000D01*
X168219047Y-455702380D01*
X167980952Y-455702380D01*
X167885714Y-455750000D01*
X167838095Y-455797619D01*
X167790476Y-455892857D01*
X167790476Y-455988095D01*
X167838095Y-456130952D01*
X168409523Y-456702380D01*
X167790476Y-456702380D01*
X166933333Y-455702380D02*
X167123809Y-455702380D01*
X167219047Y-455750000D01*
X167266666Y-455797619D01*
X167361904Y-455940476D01*
X167409523Y-456130952D01*
X167409523Y-456511904D01*
X167361904Y-456607142D01*
X167314285Y-456654761D01*
X167219047Y-456702380D01*
X167028571Y-456702380D01*
X166933333Y-456654761D01*
X166885714Y-456607142D01*
X166838095Y-456511904D01*
X166838095Y-456273809D01*
X166885714Y-456178571D01*
X166933333Y-456130952D01*
X167028571Y-456083333D01*
X167219047Y-456083333D01*
X167314285Y-456130952D01*
X167361904Y-456178571D01*
X167409523Y-456273809D01*
X170492857Y-463452380D02*
X170826190Y-462976190D01*
X171064285Y-463452380D02*
X171064285Y-462452380D01*
X170683333Y-462452380D01*
X170588095Y-462500000D01*
X170540476Y-462547619D01*
X170492857Y-462642857D01*
X170492857Y-462785714D01*
X170540476Y-462880952D01*
X170588095Y-462928571D01*
X170683333Y-462976190D01*
X171064285Y-462976190D01*
X169540476Y-463452380D02*
X170111904Y-463452380D01*
X169826190Y-463452380D02*
X169826190Y-462452380D01*
X169921428Y-462595238D01*
X170016666Y-462690476D01*
X170111904Y-462738095D01*
X169207142Y-462452380D02*
X168588095Y-462452380D01*
X168921428Y-462833333D01*
X168778571Y-462833333D01*
X168683333Y-462880952D01*
X168635714Y-462928571D01*
X168588095Y-463023809D01*
X168588095Y-463261904D01*
X168635714Y-463357142D01*
X168683333Y-463404761D01*
X168778571Y-463452380D01*
X169064285Y-463452380D01*
X169159523Y-463404761D01*
X169207142Y-463357142D01*
X168292857Y-465527380D02*
X168626190Y-465051190D01*
X168864285Y-465527380D02*
X168864285Y-464527380D01*
X168483333Y-464527380D01*
X168388095Y-464575000D01*
X168340476Y-464622619D01*
X168292857Y-464717857D01*
X168292857Y-464860714D01*
X168340476Y-464955952D01*
X168388095Y-465003571D01*
X168483333Y-465051190D01*
X168864285Y-465051190D01*
X167340476Y-465527380D02*
X167911904Y-465527380D01*
X167626190Y-465527380D02*
X167626190Y-464527380D01*
X167721428Y-464670238D01*
X167816666Y-464765476D01*
X167911904Y-464813095D01*
X166959523Y-464622619D02*
X166911904Y-464575000D01*
X166816666Y-464527380D01*
X166578571Y-464527380D01*
X166483333Y-464575000D01*
X166435714Y-464622619D01*
X166388095Y-464717857D01*
X166388095Y-464813095D01*
X166435714Y-464955952D01*
X167007142Y-465527380D01*
X166388095Y-465527380D01*
X182527857Y-393162380D02*
X182861190Y-392686190D01*
X183099285Y-393162380D02*
X183099285Y-392162380D01*
X182718333Y-392162380D01*
X182623095Y-392210000D01*
X182575476Y-392257619D01*
X182527857Y-392352857D01*
X182527857Y-392495714D01*
X182575476Y-392590952D01*
X182623095Y-392638571D01*
X182718333Y-392686190D01*
X183099285Y-392686190D01*
X181575476Y-393162380D02*
X182146904Y-393162380D01*
X181861190Y-393162380D02*
X181861190Y-392162380D01*
X181956428Y-392305238D01*
X182051666Y-392400476D01*
X182146904Y-392448095D01*
X180623095Y-393162380D02*
X181194523Y-393162380D01*
X180908809Y-393162380D02*
X180908809Y-392162380D01*
X181004047Y-392305238D01*
X181099285Y-392400476D01*
X181194523Y-392448095D01*
X172027380Y-442567142D02*
X171551190Y-442233809D01*
X172027380Y-441995714D02*
X171027380Y-441995714D01*
X171027380Y-442376666D01*
X171075000Y-442471904D01*
X171122619Y-442519523D01*
X171217857Y-442567142D01*
X171360714Y-442567142D01*
X171455952Y-442519523D01*
X171503571Y-442471904D01*
X171551190Y-442376666D01*
X171551190Y-441995714D01*
X172027380Y-443519523D02*
X172027380Y-442948095D01*
X172027380Y-443233809D02*
X171027380Y-443233809D01*
X171170238Y-443138571D01*
X171265476Y-443043333D01*
X171313095Y-442948095D01*
X171360714Y-444376666D02*
X172027380Y-444376666D01*
X170979761Y-444138571D02*
X171694047Y-443900476D01*
X171694047Y-444519523D01*
X182522857Y-392082380D02*
X182856190Y-391606190D01*
X183094285Y-392082380D02*
X183094285Y-391082380D01*
X182713333Y-391082380D01*
X182618095Y-391130000D01*
X182570476Y-391177619D01*
X182522857Y-391272857D01*
X182522857Y-391415714D01*
X182570476Y-391510952D01*
X182618095Y-391558571D01*
X182713333Y-391606190D01*
X183094285Y-391606190D01*
X181570476Y-392082380D02*
X182141904Y-392082380D01*
X181856190Y-392082380D02*
X181856190Y-391082380D01*
X181951428Y-391225238D01*
X182046666Y-391320476D01*
X182141904Y-391368095D01*
X180951428Y-391082380D02*
X180856190Y-391082380D01*
X180760952Y-391130000D01*
X180713333Y-391177619D01*
X180665714Y-391272857D01*
X180618095Y-391463333D01*
X180618095Y-391701428D01*
X180665714Y-391891904D01*
X180713333Y-391987142D01*
X180760952Y-392034761D01*
X180856190Y-392082380D01*
X180951428Y-392082380D01*
X181046666Y-392034761D01*
X181094285Y-391987142D01*
X181141904Y-391891904D01*
X181189523Y-391701428D01*
X181189523Y-391463333D01*
X181141904Y-391272857D01*
X181094285Y-391177619D01*
X181046666Y-391130000D01*
X180951428Y-391082380D01*
X170627380Y-442542142D02*
X170151190Y-442208809D01*
X170627380Y-441970714D02*
X169627380Y-441970714D01*
X169627380Y-442351666D01*
X169675000Y-442446904D01*
X169722619Y-442494523D01*
X169817857Y-442542142D01*
X169960714Y-442542142D01*
X170055952Y-442494523D01*
X170103571Y-442446904D01*
X170151190Y-442351666D01*
X170151190Y-441970714D01*
X170627380Y-443494523D02*
X170627380Y-442923095D01*
X170627380Y-443208809D02*
X169627380Y-443208809D01*
X169770238Y-443113571D01*
X169865476Y-443018333D01*
X169913095Y-442923095D01*
X169627380Y-444399285D02*
X169627380Y-443923095D01*
X170103571Y-443875476D01*
X170055952Y-443923095D01*
X170008333Y-444018333D01*
X170008333Y-444256428D01*
X170055952Y-444351666D01*
X170103571Y-444399285D01*
X170198809Y-444446904D01*
X170436904Y-444446904D01*
X170532142Y-444399285D01*
X170579761Y-444351666D01*
X170627380Y-444256428D01*
X170627380Y-444018333D01*
X170579761Y-443923095D01*
X170532142Y-443875476D01*
X176895142Y-466107142D02*
X176942761Y-466059523D01*
X176990380Y-465916666D01*
X176990380Y-465821428D01*
X176942761Y-465678571D01*
X176847523Y-465583333D01*
X176752285Y-465535714D01*
X176561809Y-465488095D01*
X176418952Y-465488095D01*
X176228476Y-465535714D01*
X176133238Y-465583333D01*
X176038000Y-465678571D01*
X175990380Y-465821428D01*
X175990380Y-465916666D01*
X176038000Y-466059523D01*
X176085619Y-466107142D01*
X175990380Y-466440476D02*
X175990380Y-467059523D01*
X176371333Y-466726190D01*
X176371333Y-466869047D01*
X176418952Y-466964285D01*
X176466571Y-467011904D01*
X176561809Y-467059523D01*
X176799904Y-467059523D01*
X176895142Y-467011904D01*
X176942761Y-466964285D01*
X176990380Y-466869047D01*
X176990380Y-466583333D01*
X176942761Y-466488095D01*
X176895142Y-466440476D01*
X176990380Y-468011904D02*
X176990380Y-467440476D01*
X176990380Y-467726190D02*
X175990380Y-467726190D01*
X176133238Y-467630952D01*
X176228476Y-467535714D01*
X176276095Y-467440476D01*
X181342857Y-459757142D02*
X181390476Y-459804761D01*
X181533333Y-459852380D01*
X181628571Y-459852380D01*
X181771428Y-459804761D01*
X181866666Y-459709523D01*
X181914285Y-459614285D01*
X181961904Y-459423809D01*
X181961904Y-459280952D01*
X181914285Y-459090476D01*
X181866666Y-458995238D01*
X181771428Y-458900000D01*
X181628571Y-458852380D01*
X181533333Y-458852380D01*
X181390476Y-458900000D01*
X181342857Y-458947619D01*
X180961904Y-458947619D02*
X180914285Y-458900000D01*
X180819047Y-458852380D01*
X180580952Y-458852380D01*
X180485714Y-458900000D01*
X180438095Y-458947619D01*
X180390476Y-459042857D01*
X180390476Y-459138095D01*
X180438095Y-459280952D01*
X181009523Y-459852380D01*
X180390476Y-459852380D01*
X179914285Y-459852380D02*
X179723809Y-459852380D01*
X179628571Y-459804761D01*
X179580952Y-459757142D01*
X179485714Y-459614285D01*
X179438095Y-459423809D01*
X179438095Y-459042857D01*
X179485714Y-458947619D01*
X179533333Y-458900000D01*
X179628571Y-458852380D01*
X179819047Y-458852380D01*
X179914285Y-458900000D01*
X179961904Y-458947619D01*
X180009523Y-459042857D01*
X180009523Y-459280952D01*
X179961904Y-459376190D01*
X179914285Y-459423809D01*
X179819047Y-459471428D01*
X179628571Y-459471428D01*
X179533333Y-459423809D01*
X179485714Y-459376190D01*
X179438095Y-459280952D01*
X181292857Y-461057142D02*
X181340476Y-461104761D01*
X181483333Y-461152380D01*
X181578571Y-461152380D01*
X181721428Y-461104761D01*
X181816666Y-461009523D01*
X181864285Y-460914285D01*
X181911904Y-460723809D01*
X181911904Y-460580952D01*
X181864285Y-460390476D01*
X181816666Y-460295238D01*
X181721428Y-460200000D01*
X181578571Y-460152380D01*
X181483333Y-460152380D01*
X181340476Y-460200000D01*
X181292857Y-460247619D01*
X180911904Y-460247619D02*
X180864285Y-460200000D01*
X180769047Y-460152380D01*
X180530952Y-460152380D01*
X180435714Y-460200000D01*
X180388095Y-460247619D01*
X180340476Y-460342857D01*
X180340476Y-460438095D01*
X180388095Y-460580952D01*
X180959523Y-461152380D01*
X180340476Y-461152380D01*
X179769047Y-460580952D02*
X179864285Y-460533333D01*
X179911904Y-460485714D01*
X179959523Y-460390476D01*
X179959523Y-460342857D01*
X179911904Y-460247619D01*
X179864285Y-460200000D01*
X179769047Y-460152380D01*
X179578571Y-460152380D01*
X179483333Y-460200000D01*
X179435714Y-460247619D01*
X179388095Y-460342857D01*
X179388095Y-460390476D01*
X179435714Y-460485714D01*
X179483333Y-460533333D01*
X179578571Y-460580952D01*
X179769047Y-460580952D01*
X179864285Y-460628571D01*
X179911904Y-460676190D01*
X179959523Y-460771428D01*
X179959523Y-460961904D01*
X179911904Y-461057142D01*
X179864285Y-461104761D01*
X179769047Y-461152380D01*
X179578571Y-461152380D01*
X179483333Y-461104761D01*
X179435714Y-461057142D01*
X179388095Y-460961904D01*
X179388095Y-460771428D01*
X179435714Y-460676190D01*
X179483333Y-460628571D01*
X179578571Y-460580952D01*
X165506666Y-423072380D02*
X165840000Y-422596190D01*
X166078095Y-423072380D02*
X166078095Y-422072380D01*
X165697142Y-422072380D01*
X165601904Y-422120000D01*
X165554285Y-422167619D01*
X165506666Y-422262857D01*
X165506666Y-422405714D01*
X165554285Y-422500952D01*
X165601904Y-422548571D01*
X165697142Y-422596190D01*
X166078095Y-422596190D01*
X164601904Y-422072380D02*
X165078095Y-422072380D01*
X165125714Y-422548571D01*
X165078095Y-422500952D01*
X164982857Y-422453333D01*
X164744761Y-422453333D01*
X164649523Y-422500952D01*
X164601904Y-422548571D01*
X164554285Y-422643809D01*
X164554285Y-422881904D01*
X164601904Y-422977142D01*
X164649523Y-423024761D01*
X164744761Y-423072380D01*
X164982857Y-423072380D01*
X165078095Y-423024761D01*
X165125714Y-422977142D01*
X164339542Y-474225776D02*
X163649595Y-474410647D01*
X163523930Y-474493618D01*
X163456587Y-474610260D01*
X163447565Y-474760574D01*
X163472214Y-474852567D01*
X163114797Y-473518669D02*
X163262694Y-474070627D01*
X163188745Y-473794648D02*
X164154671Y-473535829D01*
X164041331Y-473664796D01*
X163973988Y-473781439D01*
X163952641Y-473885756D01*
X163890132Y-472916528D02*
X163923804Y-472858207D01*
X163945151Y-472753889D01*
X163883528Y-472523907D01*
X163812882Y-472444239D01*
X163754560Y-472410567D01*
X163650243Y-472389220D01*
X163558250Y-472413869D01*
X163432585Y-472496840D01*
X163028524Y-473196694D01*
X162868303Y-472598740D01*
D14*
X172449523Y-450160238D02*
X171179523Y-450160238D01*
X172328571Y-451490714D02*
X172389047Y-451430238D01*
X172449523Y-451248809D01*
X172449523Y-451127857D01*
X172389047Y-450946428D01*
X172268095Y-450825476D01*
X172147142Y-450765000D01*
X171905238Y-450704523D01*
X171723809Y-450704523D01*
X171481904Y-450765000D01*
X171360952Y-450825476D01*
X171240000Y-450946428D01*
X171179523Y-451127857D01*
X171179523Y-451248809D01*
X171240000Y-451430238D01*
X171300476Y-451490714D01*
X171179523Y-451914047D02*
X171179523Y-452700238D01*
X171663333Y-452276904D01*
X171663333Y-452458333D01*
X171723809Y-452579285D01*
X171784285Y-452639761D01*
X171905238Y-452700238D01*
X172207619Y-452700238D01*
X172328571Y-452639761D01*
X172389047Y-452579285D01*
X172449523Y-452458333D01*
X172449523Y-452095476D01*
X172389047Y-451974523D01*
X172328571Y-451914047D01*
X186320021Y-455292068D02*
X186924783Y-455292068D01*
X185654783Y-454868734D02*
X186320021Y-455292068D01*
X185654783Y-455715401D01*
X185775736Y-456078258D02*
X185715260Y-456138734D01*
X185654783Y-456259687D01*
X185654783Y-456562068D01*
X185715260Y-456683020D01*
X185775736Y-456743496D01*
X185896688Y-456803972D01*
X186017640Y-456803972D01*
X186199069Y-456743496D01*
X186924783Y-456017782D01*
X186924783Y-456803972D01*
X166099523Y-466685238D02*
X164829523Y-466685238D01*
X165978571Y-468015714D02*
X166039047Y-467955238D01*
X166099523Y-467773809D01*
X166099523Y-467652857D01*
X166039047Y-467471428D01*
X165918095Y-467350476D01*
X165797142Y-467290000D01*
X165555238Y-467229523D01*
X165373809Y-467229523D01*
X165131904Y-467290000D01*
X165010952Y-467350476D01*
X164890000Y-467471428D01*
X164829523Y-467652857D01*
X164829523Y-467773809D01*
X164890000Y-467955238D01*
X164950476Y-468015714D01*
X165252857Y-469104285D02*
X166099523Y-469104285D01*
X164769047Y-468801904D02*
X165676190Y-468499523D01*
X165676190Y-469285714D01*
D10*
X188141392Y-409032487D02*
X188855678Y-409032487D01*
X188998535Y-408984868D01*
X189093773Y-408889630D01*
X189141392Y-408746772D01*
X189141392Y-408651534D01*
X188236631Y-409461058D02*
X188189012Y-409508677D01*
X188141392Y-409603915D01*
X188141392Y-409842011D01*
X188189012Y-409937249D01*
X188236631Y-409984868D01*
X188331869Y-410032487D01*
X188427107Y-410032487D01*
X188569964Y-409984868D01*
X189141392Y-409413439D01*
X189141392Y-410032487D01*
X188141392Y-410889630D02*
X188141392Y-410699153D01*
X188189012Y-410603915D01*
X188236631Y-410556296D01*
X188379488Y-410461058D01*
X188569964Y-410413439D01*
X188950916Y-410413439D01*
X189046154Y-410461058D01*
X189093773Y-410508677D01*
X189141392Y-410603915D01*
X189141392Y-410794391D01*
X189093773Y-410889630D01*
X189046154Y-410937249D01*
X188950916Y-410984868D01*
X188712821Y-410984868D01*
X188617583Y-410937249D01*
X188569964Y-410889630D01*
X188522345Y-410794391D01*
X188522345Y-410603915D01*
X188569964Y-410508677D01*
X188617583Y-410461058D01*
X188712821Y-410413439D01*
X187839102Y-428148323D02*
X188553388Y-428148323D01*
X188696245Y-428100704D01*
X188791483Y-428005466D01*
X188839102Y-427862608D01*
X188839102Y-427767370D01*
X187934341Y-428576894D02*
X187886722Y-428624513D01*
X187839102Y-428719751D01*
X187839102Y-428957847D01*
X187886722Y-429053085D01*
X187934341Y-429100704D01*
X188029579Y-429148323D01*
X188124817Y-429148323D01*
X188267674Y-429100704D01*
X188839102Y-428529275D01*
X188839102Y-429148323D01*
X187839102Y-429481656D02*
X187839102Y-430148323D01*
X188839102Y-429719751D01*
M02*
