M48
; DRILL file {KiCad (5.1.4)-1} date 7/27/2023 9:12:17 PM
; FORMAT={-:-/ absolute / metric / decimal}
; #@! TF.CreationDate,2023-07-27T21:12:17-04:00
; #@! TF.GenerationSoftware,Kicad,Pcbnew,(5.1.4)-1
; #@! TF.FileFunction,Plated,1,2,PTH
FMAT,2
METRIC
T1C0.350
T2C0.400
T3C0.600
T4C1.000
T5C1.050
T6C1.470
T7C1.500
T8C1.600
T9C2.000
%
G90
G05
T1
X172.55Y-461.6
X176.7Y-460.45
X173.35Y-458.562
X173.35Y-459.837
X173.35Y-461.112
X174.625Y-458.562
X174.625Y-459.837
X174.625Y-461.112
X175.9Y-458.562
X175.9Y-459.837
X175.9Y-461.112
T2
X161.596Y-446.179
X162.171Y-445.452
X162.833Y-444.803
X163.78Y-456.86
X165.1Y-469.72
X166.357Y-451.257
X166.357Y-459.96
X166.36Y-461.76
X167.28Y-442.58
X167.92Y-441.23
X168.85Y-464.74
X169.07Y-461.25
X169.625Y-462.975
X169.697Y-460.55
X169.962Y-447.133
X170.043Y-423.775
X170.275Y-444.15
X170.46Y-464.757
X170.63Y-452.78
X170.8Y-405.15
X170.94Y-447.31
X171.125Y-395.325
X171.325Y-444.25
X172.525Y-395.35
X172.627Y-449.643
X173.53Y-441.026
X173.563Y-440.1
X174.01Y-447.34
X174.02Y-439.173
X174.559Y-438.418
X175.052Y-464.78
X175.31Y-404.589
X176.256Y-447.294
X176.29Y-451.95
X176.594Y-464.93
X177.74Y-450.82
X178.13Y-465.58
X179.093Y-463.367
X179.55Y-461.2
X179.64Y-465.74
X179.75Y-458.525
X179.81Y-462.59
X182.95Y-458.525
X182.99Y-461.6
X191.121Y-463.919
T4
X156.196Y-451.085
X158.736Y-451.085
X161.276Y-451.085
X163.816Y-451.085
X228.412Y-451.11
X228.412Y-453.65
X228.412Y-456.19
X228.412Y-458.73
X178.437Y-428.958
X180.977Y-428.958
X183.517Y-428.958
X186.057Y-428.958
X179.21Y-389.86
X181.75Y-389.86
X184.29Y-389.86
X186.83Y-389.86
X192.726Y-457.808
X193.384Y-460.261
X194.041Y-462.715
X194.699Y-465.168
X155.459Y-390.761
X155.459Y-393.301
X155.459Y-395.841
X155.459Y-398.381
X154.419Y-464.455
X155.076Y-466.908
X155.734Y-469.362
X156.391Y-471.815
X165.852Y-472.983
X168.305Y-472.325
X170.759Y-471.668
X173.212Y-471.01
X155.412Y-422.11
X155.412Y-424.65
X155.412Y-427.19
X155.412Y-429.73
X182.552Y-468.483
X185.005Y-467.825
X187.459Y-467.168
X189.912Y-466.51
X178.739Y-409.842
X181.279Y-409.842
X183.819Y-409.842
X186.359Y-409.842
T5
X196.476Y-459.574
X197.648Y-463.919
X199.028Y-456.555
X202.752Y-457.881
X203.924Y-462.226
X206.176Y-456.974
X207.348Y-461.319
X208.728Y-453.955
X212.452Y-455.281
X213.624Y-459.626
T6
X179.872Y-443.54
X179.912Y-442.96
X184.912Y-442.46
X186.222Y-441.0
X159.552Y-394.82
X160.862Y-393.36
X165.862Y-392.86
X165.902Y-392.28
X198.922Y-452.04
X198.962Y-451.46
X203.962Y-450.96
X205.272Y-449.5
X159.552Y-413.87
X160.862Y-412.41
X165.862Y-411.91
X165.902Y-411.33
X179.872Y-405.44
X179.912Y-404.86
X184.912Y-404.36
X186.222Y-402.9
X217.972Y-457.04
X218.012Y-456.46
X223.012Y-455.96
X224.322Y-454.5
X159.552Y-432.92
X160.862Y-431.46
X165.862Y-430.96
X165.902Y-430.38
X179.872Y-424.49
X179.912Y-423.91
X184.912Y-423.41
X186.222Y-421.95
T7
X157.75Y-405.05
X159.65Y-410.1
T8
X158.85Y-407.575
X165.85Y-407.575
T9
X167.05Y-405.175
T3
X167.955Y-388.41G85X167.955Y-389.21
G05
X167.955Y-392.43G85X167.955Y-393.53
G05
X176.595Y-388.41G85X176.595Y-389.21
G05
X176.595Y-392.43G85X176.595Y-393.53
G05
T0
M30
